<?xml version="1.0" standalone="no"?>
<!DOCTYPE svg PUBLIC "-//W3C//DTD SVG 1.1//EN" "http://www.w3.org/Graphics/SVG/1.1/DTD/svg11.dtd">
<svg width="100%" height="100%" viewBox="0 0 284 100" version="1.1" xmlns="http://www.w3.org/2000/svg" xmlns:xlink="http://www.w3.org/1999/xlink" xml:space="preserve" style="fill-rule:evenodd;clip-rule:evenodd;stroke-linejoin:round;stroke-miterlimit:1.41421;">
    <g id="tint">
        <path d="M120.274,16.297L110.354,6.377L54.152,6.376L64.072,16.296L64.081,16.296L78.464,30.679L84.47,27.672L73.094,16.296L120.274,16.297Z" style="fill:rgb(116,164,100);fill-rule:nonzero;"/>
        <path d="M187.843,16.297L177.923,6.377L121.721,6.376L131.642,16.296L131.652,16.296L145.904,30.549L151.912,27.542L140.666,16.296L187.843,16.297Z" style="fill:rgb(116,164,100);fill-rule:nonzero;"/>
        <path d="M254.416,16.298L244.492,6.376L188.285,6.376L198.207,16.298L198.219,16.298L210.573,28.653L216.58,25.646L207.232,16.298L254.416,16.298Z" style="fill:rgb(116,164,100);fill-rule:nonzero;"/>
        <path d="M95.075,46.064L105.487,35.652L99.48,32.646L86.062,46.064L86.037,46.064L76.117,55.984L132.319,55.982L142.239,46.063L95.075,46.064Z" style="fill:rgb(116,164,100);fill-rule:nonzero;"/>
        <rect x="61.527" y="25.511" width="170.057" height="11.339" style="fill:rgb(116,164,100);"/>
    </g>
    <g id="primary">
        <rect x="61.527" y="25.511" width="164.989" height="11.339" style="fill:rgb(55,124,33);"/>
        <path d="M2.837,42.52L42.521,82.204L82.205,42.521L42.52,2.836L2.837,42.52L2.837,42.52Z" style="fill:rgb(55,124,33);"/>
        <path d="M2.837,42.52L42.521,82.204L82.205,42.521L42.52,2.836L2.837,42.52L2.837,42.52Z" style="fill:rgb(55,124,33);"/>
        <path d="M133.204,19.842L61.527,19.842L84.205,42.519L155.88,42.519L133.204,19.842Z" style="fill:rgb(55,124,33);fill-rule:nonzero;"/>
        <path d="M199.762,19.842L163.537,19.842L162.573,19.842L162.425,19.842L161.573,19.842L135.198,19.842L157.875,42.519L222.438,42.519L199.762,19.842Z" style="fill:rgb(55,124,33);fill-rule:nonzero;"/>
        <path d="M257.953,19.842L201.757,19.842L224.434,42.519L280.63,42.519L257.953,19.842Z" style="fill:rgb(55,124,33);fill-rule:nonzero;"/>
        <path d="M233.447,42.519L229.903,46.063L277.083,46.063L254.355,68.789L213.088,68.789L207.829,74.048L249.102,74.048L226.423,96.726L35.376,96.726L58.053,74.048L126.34,74.048L131.6,68.789L131.599,68.789L154.326,46.063L154.341,46.063L157.885,42.519L157.875,42.519L135.198,19.842L199.762,19.842L222.438,42.519L166.898,42.519L163.354,46.063L210.534,46.063L187.806,68.789L146.467,68.789L141.208,74.048L192.961,74.048L198.221,68.789L198.148,68.789L220.875,46.063L220.89,46.063L224.434,42.519L201.757,19.842L257.953,19.842L280.63,42.519L233.447,42.519Z" style="fill:rgb(55,124,33);"/>
        <g transform="matrix(1,0,0,1,68.9973,4.60261)">
            <path d="M14.988,83.9L9.122,83.9L9.122,79.644L13.7,79.644L13.882,78.916L9.122,78.916L9.122,74.884L14.526,74.884L14.722,74.142L8.31,74.142L8.31,84.642L14.75,84.642L14.988,83.9Z" style="fill:white;fill-rule:nonzero;"/>
            <path d="M17.06,73.302L17.06,82.864C17.06,84.18 17.578,84.726 18.712,84.726C19.244,84.726 19.734,84.642 20.07,84.572L20.07,83.928C19.79,83.97 19.412,84.026 18.95,84.026C18.292,84.026 17.872,83.788 17.872,82.78L17.872,73.302L17.06,73.302Z" style="fill:white;fill-rule:nonzero;"/>
            <path d="M21.218,80.778C21.218,83.452 22.156,84.796 24.774,84.796C25.852,84.796 26.86,84.6 27.42,84.46L27.476,83.788C26.93,83.872 26.006,84.054 24.872,84.054C22.674,84.054 22.058,82.892 22.058,80.75L27.784,80.75L27.784,79.784C27.784,77.768 27.042,76.634 24.802,76.634C22.338,76.634 21.218,78.034 21.218,80.778ZM24.718,77.306C26.412,77.306 26.986,78.104 26.986,79.84L26.986,80.12L22.086,80.12C22.198,78.258 22.912,77.306 24.718,77.306Z" style="fill:white;fill-rule:nonzero;"/>
            <path d="M33.664,77.32C34.588,77.32 35.316,77.432 35.806,77.502L35.806,76.802C35.288,76.704 34.518,76.578 33.58,76.578C32.404,76.578 31.522,76.858 30.92,77.446C30.178,78.132 29.8,79.336 29.8,80.904C29.8,82.276 30.122,83.368 30.85,84.04C31.396,84.558 32.236,84.81 33.342,84.81C34.448,84.81 35.26,84.614 35.806,84.46L35.806,83.83C35.26,83.914 34.462,84.068 33.468,84.068C32.614,84.068 31.928,83.9 31.466,83.466C30.92,82.962 30.654,82.094 30.654,80.806C30.654,79.462 30.948,78.468 31.522,77.936C31.97,77.502 32.712,77.32 33.664,77.32Z" style="fill:white;fill-rule:nonzero;"/>
            <path d="M42.414,76.788L39.474,76.788L39.474,74.94L38.662,75.15L38.662,76.788L37.15,76.788L37.038,77.474L38.662,77.474L38.662,82.864C38.662,84.222 39.236,84.726 40.636,84.726C41.238,84.726 41.896,84.628 42.316,84.544L42.386,83.858C42.078,83.9 41.49,83.998 40.846,83.998C39.964,83.998 39.474,83.774 39.474,82.71L39.474,77.474L42.26,77.474L42.414,76.788Z" style="fill:white;fill-rule:nonzero;"/>
            <path d="M44.514,76.788L44.514,84.642L45.326,84.642L45.326,78.034C45.802,77.726 46.698,77.404 47.65,77.418C48.126,77.418 48.532,77.474 48.77,77.516L48.77,76.732C48.56,76.704 48.266,76.676 47.874,76.676C46.894,76.676 46.18,76.942 45.802,77.166C45.774,77.194 45.438,77.6 45.396,77.656L45.312,77.656L45.116,76.788L44.514,76.788Z" style="fill:white;fill-rule:nonzero;"/>
            <path d="M56.96,80.54C56.96,78.916 56.61,78.006 56.036,77.404C55.546,76.914 54.72,76.578 53.53,76.578C52.284,76.578 51.416,76.942 50.856,77.474C50.142,78.146 49.736,79.378 49.736,80.904C49.736,82.416 50.142,83.34 50.59,83.858C51.108,84.446 51.934,84.81 53.236,84.81C54.622,84.81 55.42,84.432 55.966,83.872C56.568,83.242 56.96,82.08 56.96,80.54ZM53.32,84.11C52.186,84.11 51.584,83.76 51.206,83.326C50.814,82.878 50.548,81.982 50.548,80.806C50.548,79.378 50.982,78.384 51.458,77.95C51.822,77.614 52.466,77.306 53.432,77.306C54.412,77.306 55.014,77.558 55.406,77.964C55.826,78.398 56.134,79.07 56.134,80.68C56.134,82.08 55.784,82.948 55.294,83.452C54.888,83.858 54.188,84.11 53.32,84.11Z" style="fill:white;fill-rule:nonzero;"/>
            <path d="M70.932,84.642L70.932,79.504C70.932,78.426 70.75,77.712 70.302,77.292C69.882,76.886 69.294,76.676 68.37,76.676C67.348,76.676 66.452,76.984 66.004,77.236L65.57,77.782L65.5,77.782C65.43,77.656 65.332,77.488 65.15,77.32C64.716,76.9 64.072,76.676 63.064,76.676C62.042,76.676 61.174,76.956 60.81,77.152L60.39,77.614L60.32,77.614L60.11,76.788L59.508,76.788L59.508,84.642L60.32,84.642L60.32,77.936C60.908,77.698 61.72,77.404 62.742,77.404C63.386,77.404 64.044,77.53 64.38,77.852C64.702,78.16 64.814,78.58 64.814,79.266L64.814,84.642L65.626,84.642L65.626,78.034C66.186,77.74 67.012,77.404 68.02,77.404C68.678,77.404 69.266,77.558 69.602,77.88C69.938,78.202 70.12,78.748 70.12,79.784L70.12,84.642L70.932,84.642Z" style="fill:white;fill-rule:nonzero;"/>
            <path d="M79.472,84.642L79.472,79.77C79.472,78.23 79.248,77.642 78.898,77.264C78.52,76.83 77.834,76.648 76.756,76.648C75.636,76.648 74.474,76.886 73.886,77.04L73.886,77.698C74.418,77.6 75.636,77.376 76.588,77.376C77.47,77.376 77.988,77.516 78.24,77.81C78.506,78.132 78.674,78.692 78.674,80.05C76.168,80.274 74.572,80.568 73.97,81.016C73.662,81.212 73.354,81.744 73.354,82.626C73.354,83.354 73.522,83.844 73.802,84.152C74.124,84.516 74.712,84.782 75.804,84.782C77.162,84.782 78.002,84.432 78.24,84.264C78.31,84.208 78.506,83.942 78.618,83.788L78.688,83.788L78.884,84.642L79.472,84.642ZM78.674,83.55C78.254,83.76 77.26,84.096 76.07,84.096C75.216,84.096 74.712,83.9 74.474,83.648C74.278,83.424 74.152,83.06 74.152,82.556C74.152,81.968 74.292,81.618 74.502,81.436C74.824,81.086 76.854,80.792 78.674,80.68L78.674,83.55Z" style="fill:white;fill-rule:nonzero;"/>
            <path d="M88.754,76.788L88.614,76.788L88.236,77.04C87.536,76.872 86.752,76.704 85.758,76.704C84.428,76.704 83.588,77.04 83.098,77.516C82.426,78.188 82.02,79.406 82.02,81.044C82.02,82.654 82.412,83.648 83.056,84.152C83.504,84.516 84.176,84.754 85.282,84.754C86.304,84.754 87.158,84.558 87.396,84.404C87.48,84.362 87.76,84.026 87.886,83.872L87.942,83.872L87.942,84.292C87.942,86.056 87.676,86.784 87.284,87.176C86.92,87.498 86.304,87.736 85.156,87.736C83.994,87.736 82.972,87.568 82.426,87.47L82.426,88.184C82.958,88.282 83.952,88.478 85.198,88.478C86.584,88.478 87.34,88.156 87.816,87.722C88.362,87.204 88.754,86.35 88.754,84.222L88.754,76.788ZM82.86,80.904C82.86,79.462 83.182,78.524 83.658,78.034C84.092,77.614 84.764,77.404 85.814,77.404C86.64,77.404 87.368,77.516 87.942,77.586L87.942,83.578C87.242,83.9 86.346,84.04 85.534,84.04C84.75,84.04 84.036,83.872 83.63,83.55C83.154,83.172 82.86,82.36 82.86,80.904Z" style="fill:white;fill-rule:nonzero;"/>
            <path d="M98.078,84.642L98.078,79.504C98.078,78.44 97.854,77.726 97.42,77.32C97,76.9 96.398,76.676 95.376,76.676C94.382,76.676 93.374,76.956 92.996,77.166C92.954,77.194 92.632,77.558 92.59,77.614L92.52,77.614L92.296,76.788L91.708,76.788L91.708,84.642L92.52,84.642L92.52,77.922C93.136,77.67 94.018,77.404 95.026,77.404C95.754,77.404 96.37,77.544 96.72,77.88C97.07,78.216 97.266,78.79 97.266,79.784L97.266,84.642L98.078,84.642Z" style="fill:white;fill-rule:nonzero;"/>
            <path d="M100.612,80.778C100.612,83.452 101.55,84.796 104.168,84.796C105.246,84.796 106.254,84.6 106.814,84.46L106.87,83.788C106.324,83.872 105.4,84.054 104.266,84.054C102.068,84.054 101.452,82.892 101.452,80.75L107.178,80.75L107.178,79.784C107.178,77.768 106.436,76.634 104.196,76.634C101.732,76.634 100.612,78.034 100.612,80.778ZM104.112,77.306C105.806,77.306 106.38,78.104 106.38,79.84L106.38,80.12L101.48,80.12C101.592,78.258 102.306,77.306 104.112,77.306Z" style="fill:white;fill-rule:nonzero;"/>
            <path d="M113.94,76.788L111,76.788L111,74.94L110.188,75.15L110.188,76.788L108.676,76.788L108.564,77.474L110.188,77.474L110.188,82.864C110.188,84.222 110.762,84.726 112.162,84.726C112.764,84.726 113.422,84.628 113.842,84.544L113.912,83.858C113.604,83.9 113.016,83.998 112.372,83.998C111.49,83.998 111,83.774 111,82.71L111,77.474L113.786,77.474L113.94,76.788Z" style="fill:white;fill-rule:nonzero;"/>
            <path d="M116.852,84.642L116.852,76.788L116.04,76.788L116.04,84.642L116.852,84.642ZM116.978,74.114C116.978,73.932 116.95,73.792 116.852,73.708C116.782,73.638 116.656,73.61 116.488,73.61C116.306,73.61 116.166,73.652 116.124,73.708C116.012,73.764 115.956,73.918 115.956,74.128C115.956,74.31 115.998,74.45 116.068,74.52C116.138,74.604 116.264,74.632 116.46,74.632C116.614,74.632 116.768,74.604 116.852,74.534C116.95,74.464 116.978,74.296 116.978,74.114Z" style="fill:white;fill-rule:nonzero;"/>
            <path d="M124.538,82.486C124.538,81.954 124.412,81.506 124.132,81.184C123.838,80.848 123.236,80.61 122.088,80.344C121.024,80.106 120.534,79.91 120.296,79.63C120.114,79.42 120.058,79.126 120.058,78.832C120.058,77.838 120.534,77.278 122.186,77.278C123.012,77.278 123.67,77.362 124.272,77.46L124.272,76.788C123.796,76.69 123.04,76.578 122.172,76.578C120.086,76.578 119.26,77.432 119.26,78.874C119.26,79.322 119.358,79.784 119.61,80.078C120.002,80.568 120.66,80.778 121.766,81.044C122.718,81.268 123.25,81.45 123.502,81.73C123.67,81.954 123.74,82.248 123.74,82.542C123.74,83.536 123.292,84.04 121.528,84.04C120.674,84.04 119.806,83.914 119.232,83.802L119.232,84.488C119.792,84.628 120.744,84.74 121.528,84.74C123.908,84.74 124.538,83.872 124.538,82.486Z" style="fill:white;fill-rule:nonzero;"/>
            <path d="M138.328,84.642L138.328,79.504C138.328,78.426 138.146,77.712 137.698,77.292C137.278,76.886 136.69,76.676 135.766,76.676C134.744,76.676 133.848,76.984 133.4,77.236L132.966,77.782L132.896,77.782C132.826,77.656 132.728,77.488 132.546,77.32C132.112,76.9 131.468,76.676 130.46,76.676C129.438,76.676 128.57,76.956 128.206,77.152L127.786,77.614L127.716,77.614L127.506,76.788L126.904,76.788L126.904,84.642L127.716,84.642L127.716,77.936C128.304,77.698 129.116,77.404 130.138,77.404C130.782,77.404 131.44,77.53 131.776,77.852C132.098,78.16 132.21,78.58 132.21,79.266L132.21,84.642L133.022,84.642L133.022,78.034C133.582,77.74 134.408,77.404 135.416,77.404C136.074,77.404 136.662,77.558 136.998,77.88C137.334,78.202 137.516,78.748 137.516,79.784L137.516,84.642L138.328,84.642Z" style="fill:white;fill-rule:nonzero;"/>
        </g>
        <g>
            <g transform="matrix(1,0,0,1,15.246,-13.047)">
                <path d="M144.247,63.565C143.857,63.497 143.422,63.422 142.747,63.422C141.772,63.422 141.239,63.647 140.872,63.962C140.527,64.24 140.039,64.96 140.039,66.4C140.039,67.607 140.339,68.297 140.684,68.635C141.074,69.002 141.554,69.197 142.514,69.197C143.159,69.197 143.789,69.092 144.247,68.972L144.247,68.597C143.849,68.672 143.242,68.785 142.597,68.785C141.809,68.785 141.329,68.627 141.037,68.335C140.684,67.982 140.497,67.277 140.497,66.332C140.497,65.267 140.842,64.525 141.187,64.247C141.494,64.007 141.944,63.835 142.754,63.835C143.467,63.835 143.857,63.902 144.247,63.947L144.247,63.565L144.247,63.565Z" style="fill:white;fill-rule:nonzero;"/>
            </g>
            <g transform="matrix(1,0,0,1,15.246,-13.047)">
                <path d="M149.182,66.925C149.182,66.055 148.994,65.567 148.687,65.245C148.424,64.982 147.982,64.802 147.344,64.802C146.677,64.802 146.212,64.997 145.912,65.282C145.529,65.642 145.312,66.302 145.312,67.12C145.312,67.93 145.529,68.425 145.769,68.702C146.047,69.017 146.489,69.212 147.187,69.212C147.929,69.212 148.357,69.01 148.649,68.71C148.972,68.372 149.182,67.75 149.182,66.925ZM147.232,68.837C146.624,68.837 146.302,68.65 146.099,68.417C145.889,68.177 145.747,67.697 145.747,67.067C145.747,66.302 145.979,65.77 146.234,65.537C146.429,65.357 146.774,65.192 147.292,65.192C147.817,65.192 148.139,65.327 148.349,65.545C148.574,65.777 148.739,66.137 148.739,67C148.739,67.75 148.552,68.215 148.289,68.485C148.072,68.702 147.697,68.837 147.232,68.837L147.232,68.837Z" style="fill:white;fill-rule:nonzero;"/>
            </g>
            <g transform="matrix(1,0,0,1,15.246,-13.047)">
                <path d="M153.554,69.122L153.554,66.512C153.554,65.687 153.434,65.372 153.247,65.17C153.044,64.937 152.677,64.84 152.099,64.84C151.499,64.84 150.877,64.967 150.562,65.05L150.562,65.402C150.847,65.35 151.499,65.23 152.009,65.23C152.482,65.23 152.759,65.305 152.894,65.462C153.037,65.635 153.127,65.935 153.127,66.662C151.784,66.782 150.929,66.94 150.607,67.18C150.442,67.285 150.277,67.57 150.277,68.042C150.277,68.432 150.367,68.695 150.517,68.86C150.689,69.055 151.004,69.197 151.589,69.197C152.317,69.197 152.767,69.01 152.894,68.92C152.932,68.89 153.037,68.747 153.097,68.665L153.134,68.665L153.239,69.122L153.554,69.122ZM153.127,68.537C152.902,68.65 152.369,68.83 151.732,68.83C151.274,68.83 151.004,68.725 150.877,68.59C150.772,68.47 150.704,68.275 150.704,68.005C150.704,67.69 150.779,67.502 150.892,67.405C151.064,67.217 152.152,67.06 153.127,67L153.127,68.537Z" style="fill:white;fill-rule:nonzero;"/>
            </g>
            <g transform="matrix(1,0,0,1,15.246,-13.047)">
                <path d="M155.114,63.047L155.114,68.17C155.114,68.875 155.392,69.167 155.999,69.167C156.284,69.167 156.547,69.122 156.727,69.085L156.727,68.74C156.577,68.762 156.374,68.792 156.127,68.792C155.774,68.792 155.549,68.665 155.549,68.125L155.549,63.047L155.114,63.047L155.114,63.047Z" style="fill:white;fill-rule:nonzero;"/>
            </g>
            <g transform="matrix(1,0,0,1,15.246,-13.047)">
                <path d="M157.342,67.052C157.342,68.485 157.844,69.205 159.247,69.205C159.824,69.205 160.364,69.1 160.664,69.025L160.694,68.665C160.402,68.71 159.907,68.807 159.299,68.807C158.122,68.807 157.792,68.185 157.792,67.037L160.859,67.037L160.859,66.52C160.859,65.44 160.462,64.832 159.262,64.832C157.942,64.832 157.342,65.582 157.342,67.052ZM159.217,65.192C160.124,65.192 160.432,65.62 160.432,66.55L160.432,66.7L157.807,66.7C157.867,65.702 158.249,65.192 159.217,65.192L159.217,65.192Z" style="fill:white;fill-rule:nonzero;"/>
            </g>
            <g transform="matrix(1,0,0,1,15.246,-13.047)">
                <path d="M164.699,67.967C164.699,67.682 164.632,67.442 164.482,67.27C164.324,67.09 164.002,66.962 163.387,66.82C162.817,66.692 162.554,66.587 162.427,66.437C162.329,66.325 162.299,66.167 162.299,66.01C162.299,65.477 162.554,65.177 163.439,65.177C163.882,65.177 164.234,65.222 164.557,65.275L164.557,64.915C164.302,64.862 163.897,64.802 163.432,64.802C162.314,64.802 161.872,65.26 161.872,66.032C161.872,66.272 161.924,66.52 162.059,66.677C162.269,66.94 162.622,67.052 163.214,67.195C163.724,67.315 164.009,67.412 164.144,67.562C164.234,67.682 164.272,67.84 164.272,67.997C164.272,68.53 164.032,68.8 163.087,68.8C162.629,68.8 162.164,68.732 161.857,68.672L161.857,69.04C162.157,69.115 162.667,69.175 163.087,69.175C164.362,69.175 164.699,68.71 164.699,67.967L164.699,67.967Z" style="fill:white;fill-rule:nonzero;"/>
            </g>
            <g transform="matrix(1,0,0,1,15.246,-13.047)">
                <path d="M167.744,65.2C168.239,65.2 168.629,65.26 168.892,65.297L168.892,64.922C168.614,64.87 168.202,64.802 167.699,64.802C167.069,64.802 166.597,64.952 166.274,65.267C165.877,65.635 165.674,66.28 165.674,67.12C165.674,67.855 165.847,68.44 166.237,68.8C166.529,69.077 166.979,69.212 167.572,69.212C168.164,69.212 168.599,69.107 168.892,69.025L168.892,68.687C168.599,68.732 168.172,68.815 167.639,68.815C167.182,68.815 166.814,68.725 166.567,68.492C166.274,68.222 166.132,67.757 166.132,67.067C166.132,66.347 166.289,65.815 166.597,65.53C166.837,65.297 167.234,65.2 167.744,65.2L167.744,65.2Z" style="fill:white;fill-rule:nonzero;"/>
            </g>
            <g transform="matrix(1,0,0,1,15.246,-13.047)">
                <path d="M169.829,67.052C169.829,68.485 170.332,69.205 171.734,69.205C172.312,69.205 172.852,69.1 173.152,69.025L173.182,68.665C172.889,68.71 172.394,68.807 171.787,68.807C170.609,68.807 170.279,68.185 170.279,67.037L173.347,67.037L173.347,66.52C173.347,65.44 172.949,64.832 171.749,64.832C170.429,64.832 169.829,65.582 169.829,67.052ZM171.704,65.192C172.612,65.192 172.919,65.62 172.919,66.55L172.919,66.7L170.294,66.7C170.354,65.702 170.737,65.192 171.704,65.192L171.704,65.192Z" style="fill:white;fill-rule:nonzero;"/>
            </g>
            <g transform="matrix(1,0,0,1,15.246,-13.047)">
                <path d="M149.197,76.622L147.097,70.997L146.294,70.997L144.044,76.622L144.502,76.622L145.259,74.702L148.004,74.702L148.709,76.622L149.197,76.622ZM147.869,74.312L145.402,74.312L146.557,71.41L146.797,71.41L147.869,74.312Z" style="fill:white;fill-rule:nonzero;"/>
            </g>
            <g transform="matrix(1,0,0,1,15.246,-13.047)">
                <path d="M153.599,72.415L153.127,72.415L151.649,76.217L151.469,76.217L150.044,72.415L149.572,72.415L151.169,76.622L151.919,76.622L153.599,72.415L153.599,72.415Z" style="fill:white;fill-rule:nonzero;"/>
            </g>
            <g transform="matrix(1,0,0,1,15.246,-13.047)">
                <path d="M157.567,76.622L157.567,74.012C157.567,73.187 157.447,72.872 157.259,72.67C157.057,72.437 156.689,72.34 156.112,72.34C155.512,72.34 154.889,72.467 154.574,72.55L154.574,72.902C154.859,72.85 155.512,72.73 156.022,72.73C156.494,72.73 156.772,72.805 156.907,72.962C157.049,73.135 157.139,73.435 157.139,74.162C155.797,74.282 154.942,74.44 154.619,74.68C154.454,74.785 154.289,75.07 154.289,75.542C154.289,75.932 154.379,76.195 154.529,76.36C154.702,76.555 155.017,76.697 155.602,76.697C156.329,76.697 156.779,76.51 156.907,76.42C156.944,76.39 157.049,76.247 157.109,76.165L157.147,76.165L157.252,76.622L157.567,76.622ZM157.139,76.037C156.914,76.15 156.382,76.33 155.744,76.33C155.287,76.33 155.017,76.225 154.889,76.09C154.784,75.97 154.717,75.775 154.717,75.505C154.717,75.19 154.792,75.002 154.904,74.905C155.077,74.717 156.164,74.56 157.139,74.5L157.139,76.037Z" style="fill:white;fill-rule:nonzero;"/>
            </g>
            <g transform="matrix(1,0,0,1,15.246,-13.047)">
                <path d="M161.392,72.415L159.817,72.415L159.817,71.425L159.382,71.537L159.382,72.415L158.572,72.415L158.512,72.782L159.382,72.782L159.382,75.67C159.382,76.397 159.689,76.667 160.439,76.667C160.762,76.667 161.114,76.615 161.339,76.57L161.377,76.202C161.212,76.225 160.897,76.277 160.552,76.277C160.079,76.277 159.817,76.157 159.817,75.587L159.817,72.782L161.309,72.782L161.392,72.415L161.392,72.415Z" style="fill:white;fill-rule:nonzero;"/>
            </g>
            <g transform="matrix(1,0,0,1,15.246,-13.047)">
                <path d="M165.442,76.622L165.442,74.012C165.442,73.187 165.322,72.872 165.134,72.67C164.932,72.437 164.564,72.34 163.987,72.34C163.387,72.34 162.764,72.467 162.449,72.55L162.449,72.902C162.734,72.85 163.387,72.73 163.897,72.73C164.369,72.73 164.647,72.805 164.782,72.962C164.924,73.135 165.014,73.435 165.014,74.162C163.672,74.282 162.817,74.44 162.494,74.68C162.329,74.785 162.164,75.07 162.164,75.542C162.164,75.932 162.254,76.195 162.404,76.36C162.577,76.555 162.892,76.697 163.477,76.697C164.204,76.697 164.654,76.51 164.782,76.42C164.819,76.39 164.924,76.247 164.984,76.165L165.022,76.165L165.127,76.622L165.442,76.622ZM165.014,76.037C164.789,76.15 164.257,76.33 163.619,76.33C163.162,76.33 162.892,76.225 162.764,76.09C162.659,75.97 162.592,75.775 162.592,75.505C162.592,75.19 162.667,75.002 162.779,74.905C162.952,74.717 164.039,74.56 165.014,74.5L165.014,76.037Z" style="fill:white;fill-rule:nonzero;"/>
            </g>
            <g transform="matrix(1,0,0,1,15.246,-13.047)">
                <path d="M167.024,72.415L167.024,76.622L167.459,76.622L167.459,73.082C167.714,72.917 168.194,72.745 168.704,72.752C168.959,72.752 169.177,72.782 169.304,72.805L169.304,72.385C169.192,72.37 169.034,72.355 168.824,72.355C168.299,72.355 167.917,72.497 167.714,72.617C167.699,72.632 167.519,72.85 167.497,72.88L167.452,72.88L167.347,72.415L167.024,72.415L167.024,72.415Z" style="fill:white;fill-rule:nonzero;"/>
            </g>
        </g>
        <g>
            <g transform="matrix(1,0,0,1,17.964,-13.047)">
                <path d="M204.003,66.961C204.82,66.961 205.248,66.879 205.585,66.639C205.93,66.391 206.17,65.844 206.17,65.184C206.17,64.509 205.99,64.089 205.705,63.871C205.495,63.706 205.135,63.631 204.648,63.631L202.503,63.631L202.503,69.256L202.938,69.256L202.938,66.961L204.003,66.961ZM205.72,65.199C205.72,65.806 205.518,66.189 205.263,66.369C205.06,66.519 204.663,66.564 203.995,66.564L202.938,66.564L202.938,64.014L204.475,64.014C204.888,64.014 205.195,64.059 205.383,64.201C205.585,64.351 205.72,64.674 205.72,65.199Z" style="fill:white;fill-rule:nonzero;"/>
            </g>
            <g transform="matrix(1,0,0,1,17.964,-13.047)">
                <path d="M207.378,65.049L207.378,69.256L207.813,69.256L207.813,65.716C208.068,65.551 208.548,65.379 209.058,65.386C209.313,65.386 209.53,65.416 209.658,65.439L209.658,65.019C209.545,65.004 209.388,64.989 209.178,64.989C208.653,64.989 208.27,65.131 208.068,65.251C208.053,65.266 207.873,65.484 207.85,65.514L207.805,65.514L207.7,65.049L207.378,65.049L207.378,65.049Z" style="fill:white;fill-rule:nonzero;"/>
            </g>
            <g transform="matrix(1,0,0,1,17.964,-13.047)">
                <path d="M214.045,67.059C214.045,66.189 213.858,65.701 213.55,65.379C213.288,65.116 212.845,64.936 212.208,64.936C211.54,64.936 211.075,65.131 210.775,65.416C210.393,65.776 210.175,66.436 210.175,67.254C210.175,68.064 210.393,68.559 210.633,68.836C210.91,69.151 211.353,69.346 212.05,69.346C212.793,69.346 213.22,69.144 213.513,68.844C213.835,68.506 214.045,67.884 214.045,67.059ZM212.095,68.971C211.488,68.971 211.165,68.784 210.963,68.551C210.753,68.311 210.61,67.831 210.61,67.201C210.61,66.436 210.843,65.904 211.098,65.671C211.293,65.491 211.638,65.326 212.155,65.326C212.68,65.326 213.003,65.461 213.213,65.679C213.438,65.911 213.603,66.271 213.603,67.134C213.603,67.884 213.415,68.349 213.153,68.619C212.935,68.836 212.56,68.971 212.095,68.971L212.095,68.971Z" style="fill:white;fill-rule:nonzero;"/>
            </g>
            <g transform="matrix(1,0,0,1,17.964,-13.047)">
                <path d="M215.845,69.181C216.183,69.256 216.573,69.324 217.075,69.324C217.713,69.324 218.133,69.159 218.41,68.889C218.763,68.536 218.995,67.906 218.995,67.014C218.995,66.061 218.755,65.544 218.463,65.296C218.193,65.056 217.84,64.959 217.263,64.959C216.753,64.959 216.265,65.079 216.138,65.161C216.093,65.184 215.935,65.341 215.875,65.424L215.845,65.424L215.74,65.049L215.41,65.049L215.41,71.304L215.845,71.304L215.845,69.181L215.845,69.181ZM218.545,67.051C218.545,67.861 218.35,68.386 218.095,68.626C217.863,68.859 217.525,68.949 217,68.949C216.543,68.949 216.138,68.881 215.845,68.836L215.845,65.589C216.22,65.416 216.67,65.341 217.105,65.341C217.585,65.341 217.915,65.424 218.125,65.596C218.365,65.814 218.545,66.256 218.545,67.051L218.545,67.051Z" style="fill:white;fill-rule:nonzero;"/>
            </g>
            <g transform="matrix(1,0,0,1,17.964,-13.047)">
                <path d="M223.368,69.256L223.368,66.646C223.368,65.821 223.248,65.506 223.06,65.304C222.858,65.071 222.49,64.974 221.913,64.974C221.313,64.974 220.69,65.101 220.375,65.184L220.375,65.536C220.66,65.484 221.313,65.364 221.823,65.364C222.295,65.364 222.573,65.439 222.708,65.596C222.85,65.769 222.94,66.069 222.94,66.796C221.598,66.916 220.743,67.074 220.42,67.314C220.255,67.419 220.09,67.704 220.09,68.176C220.09,68.566 220.18,68.829 220.33,68.994C220.503,69.189 220.818,69.331 221.403,69.331C222.13,69.331 222.58,69.144 222.708,69.054C222.745,69.024 222.85,68.881 222.91,68.799L222.948,68.799L223.053,69.256L223.368,69.256ZM222.94,68.671C222.715,68.784 222.183,68.964 221.545,68.964C221.088,68.964 220.818,68.859 220.69,68.724C220.585,68.604 220.518,68.409 220.518,68.139C220.518,67.824 220.593,67.636 220.705,67.539C220.878,67.351 221.965,67.194 222.94,67.134L222.94,68.671Z" style="fill:white;fill-rule:nonzero;"/>
            </g>
            <g transform="matrix(1,0,0,1,17.964,-13.047)">
                <path d="M228.34,65.049L228.265,65.049L228.063,65.184C227.688,65.094 227.268,65.004 226.735,65.004C226.023,65.004 225.573,65.184 225.31,65.439C224.95,65.799 224.733,66.451 224.733,67.329C224.733,68.191 224.943,68.724 225.288,68.994C225.528,69.189 225.888,69.316 226.48,69.316C227.028,69.316 227.485,69.211 227.613,69.129C227.658,69.106 227.808,68.926 227.875,68.844L227.905,68.844L227.905,69.069C227.905,70.014 227.763,70.404 227.553,70.614C227.358,70.786 227.028,70.914 226.413,70.914C225.79,70.914 225.243,70.824 224.95,70.771L224.95,71.154C225.235,71.206 225.768,71.311 226.435,71.311C227.178,71.311 227.583,71.139 227.838,70.906C228.13,70.629 228.34,70.171 228.34,69.031L228.34,65.049L228.34,65.049ZM225.183,67.254C225.183,66.481 225.355,65.979 225.61,65.716C225.843,65.491 226.203,65.379 226.765,65.379C227.208,65.379 227.598,65.439 227.905,65.476L227.905,68.686C227.53,68.859 227.05,68.934 226.615,68.934C226.195,68.934 225.813,68.844 225.595,68.671C225.34,68.469 225.183,68.034 225.183,67.254L225.183,67.254Z" style="fill:white;fill-rule:nonzero;"/>
            </g>
            <g transform="matrix(1,0,0,1,17.964,-13.047)">
                <path d="M232.923,69.256L232.923,66.646C232.923,65.821 232.803,65.506 232.615,65.304C232.413,65.071 232.045,64.974 231.468,64.974C230.868,64.974 230.245,65.101 229.93,65.184L229.93,65.536C230.215,65.484 230.868,65.364 231.378,65.364C231.85,65.364 232.128,65.439 232.263,65.596C232.405,65.769 232.495,66.069 232.495,66.796C231.153,66.916 230.298,67.074 229.975,67.314C229.81,67.419 229.645,67.704 229.645,68.176C229.645,68.566 229.735,68.829 229.885,68.994C230.058,69.189 230.373,69.331 230.958,69.331C231.685,69.331 232.135,69.144 232.263,69.054C232.3,69.024 232.405,68.881 232.465,68.799L232.503,68.799L232.608,69.256L232.923,69.256ZM232.495,68.671C232.27,68.784 231.738,68.964 231.1,68.964C230.643,68.964 230.373,68.859 230.245,68.724C230.14,68.604 230.073,68.409 230.073,68.139C230.073,67.824 230.148,67.636 230.26,67.539C230.433,67.351 231.52,67.194 232.495,67.134L232.495,68.671Z" style="fill:white;fill-rule:nonzero;"/>
            </g>
            <g transform="matrix(1,0,0,1,17.964,-13.047)">
                <path d="M236.748,65.049L235.173,65.049L235.173,64.059L234.738,64.171L234.738,65.049L233.928,65.049L233.868,65.416L234.738,65.416L234.738,68.304C234.738,69.031 235.045,69.301 235.795,69.301C236.118,69.301 236.47,69.249 236.695,69.204L236.733,68.836C236.568,68.859 236.253,68.911 235.908,68.911C235.435,68.911 235.173,68.791 235.173,68.221L235.173,65.416L236.665,65.416L236.748,65.049L236.748,65.049Z" style="fill:white;fill-rule:nonzero;"/>
            </g>
            <g transform="matrix(1,0,0,1,17.964,-13.047)">
                <path d="M237.513,67.186C237.513,68.619 238.015,69.339 239.418,69.339C239.995,69.339 240.535,69.234 240.835,69.159L240.865,68.799C240.573,68.844 240.078,68.941 239.47,68.941C238.293,68.941 237.963,68.319 237.963,67.171L241.03,67.171L241.03,66.654C241.03,65.574 240.633,64.966 239.433,64.966C238.113,64.966 237.513,65.716 237.513,67.186ZM239.388,65.326C240.295,65.326 240.603,65.754 240.603,66.684L240.603,66.834L237.978,66.834C238.038,65.836 238.42,65.326 239.388,65.326L239.388,65.326Z" style="fill:white;fill-rule:nonzero;"/>
            </g>
            <g transform="matrix(1,0,0,1,17.964,-13.047)">
                <path d="M214.169,76.756L212.069,71.131L211.266,71.131L209.016,76.756L209.474,76.756L210.231,74.836L212.976,74.836L213.681,76.756L214.169,76.756ZM212.841,74.446L210.374,74.446L211.529,71.544L211.769,71.544L212.841,74.446Z" style="fill:white;fill-rule:nonzero;"/>
            </g>
            <g transform="matrix(1,0,0,1,17.964,-13.047)">
                <path d="M218.571,72.549L218.099,72.549L216.621,76.351L216.441,76.351L215.016,72.549L214.544,72.549L216.141,76.756L216.891,76.756L218.571,72.549L218.571,72.549Z" style="fill:white;fill-rule:nonzero;"/>
            </g>
            <g transform="matrix(1,0,0,1,17.964,-13.047)">
                <path d="M222.539,76.756L222.539,74.146C222.539,73.321 222.419,73.006 222.231,72.804C222.029,72.571 221.661,72.474 221.084,72.474C220.484,72.474 219.861,72.601 219.546,72.684L219.546,73.036C219.831,72.984 220.484,72.864 220.994,72.864C221.466,72.864 221.744,72.939 221.879,73.096C222.021,73.269 222.111,73.569 222.111,74.296C220.769,74.416 219.914,74.574 219.591,74.814C219.426,74.919 219.261,75.204 219.261,75.676C219.261,76.066 219.351,76.329 219.501,76.494C219.674,76.689 219.989,76.831 220.574,76.831C221.301,76.831 221.751,76.644 221.879,76.554C221.916,76.524 222.021,76.381 222.081,76.299L222.119,76.299L222.224,76.756L222.539,76.756ZM222.111,76.171C221.886,76.284 221.354,76.464 220.716,76.464C220.259,76.464 219.989,76.359 219.861,76.224C219.756,76.104 219.689,75.909 219.689,75.639C219.689,75.324 219.764,75.136 219.876,75.039C220.049,74.851 221.136,74.694 222.111,74.634L222.111,76.171Z" style="fill:white;fill-rule:nonzero;"/>
            </g>
            <g transform="matrix(1,0,0,1,17.964,-13.047)">
                <path d="M226.364,72.549L224.789,72.549L224.789,71.559L224.354,71.671L224.354,72.549L223.544,72.549L223.484,72.916L224.354,72.916L224.354,75.804C224.354,76.531 224.661,76.801 225.411,76.801C225.734,76.801 226.086,76.749 226.311,76.704L226.349,76.336C226.184,76.359 225.869,76.411 225.524,76.411C225.051,76.411 224.789,76.291 224.789,75.721L224.789,72.916L226.281,72.916L226.364,72.549L226.364,72.549Z" style="fill:white;fill-rule:nonzero;"/>
            </g>
            <g transform="matrix(1,0,0,1,17.964,-13.047)">
                <path d="M230.414,76.756L230.414,74.146C230.414,73.321 230.294,73.006 230.106,72.804C229.904,72.571 229.536,72.474 228.959,72.474C228.359,72.474 227.736,72.601 227.421,72.684L227.421,73.036C227.706,72.984 228.359,72.864 228.869,72.864C229.341,72.864 229.619,72.939 229.754,73.096C229.896,73.269 229.986,73.569 229.986,74.296C228.644,74.416 227.789,74.574 227.466,74.814C227.301,74.919 227.136,75.204 227.136,75.676C227.136,76.066 227.226,76.329 227.376,76.494C227.549,76.689 227.864,76.831 228.449,76.831C229.176,76.831 229.626,76.644 229.754,76.554C229.791,76.524 229.896,76.381 229.956,76.299L229.994,76.299L230.099,76.756L230.414,76.756ZM229.986,76.171C229.761,76.284 229.229,76.464 228.591,76.464C228.134,76.464 227.864,76.359 227.736,76.224C227.631,76.104 227.564,75.909 227.564,75.639C227.564,75.324 227.639,75.136 227.751,75.039C227.924,74.851 229.011,74.694 229.986,74.634L229.986,76.171Z" style="fill:white;fill-rule:nonzero;"/>
            </g>
            <g transform="matrix(1,0,0,1,17.964,-13.047)">
                <path d="M231.996,72.549L231.996,76.756L232.431,76.756L232.431,73.216C232.686,73.051 233.166,72.879 233.676,72.886C233.931,72.886 234.149,72.916 234.276,72.939L234.276,72.519C234.164,72.504 234.006,72.489 233.796,72.489C233.271,72.489 232.889,72.631 232.686,72.751C232.671,72.766 232.491,72.984 232.469,73.014L232.424,73.014L232.319,72.549L231.996,72.549L231.996,72.549Z" style="fill:white;fill-rule:nonzero;"/>
            </g>
        </g>
    </g>
    <g id="Text">
        <g>
            <g>
                <path d="M89.475,35.38L89.475,34.666L92.571,34.666L92.571,25.449L89.475,26.009L89.475,25.295L93.369,24.608L93.369,34.666L96.171,34.666L96.171,35.38L89.475,35.38L89.475,35.38Z" style="fill:white;fill-rule:nonzero;"/>
                <path d="M112.116,35.38L104.902,35.38L104.902,34.54C105.028,32.999 105.868,32.004 108.334,30.8C109.903,30.016 110.589,29.61 110.954,29.133C111.262,28.699 111.346,28.139 111.346,27.592C111.346,26.149 110.814,25.491 108.531,25.491C107.284,25.491 105.94,25.799 105.323,25.939L105.323,25.21C106.149,24.986 107.438,24.733 108.698,24.733C111.373,24.733 112.214,25.602 112.214,27.493C112.214,28.446 112.004,29.104 111.682,29.51C111.136,30.224 110.057,30.771 108.684,31.443C106.121,32.69 105.715,33.572 105.686,34.623L112.326,34.623L112.116,35.38L112.116,35.38Z" style="fill:white;fill-rule:nonzero;"/>
                <path d="M126.914,29.427L125.779,29.959L125.779,30.015L126.969,30.435C127.446,30.828 127.823,31.724 127.823,32.634C127.823,34.651 126.675,35.52 123.831,35.52C122.655,35.52 121.618,35.366 121.001,35.226L121.001,34.512C121.646,34.624 122.78,34.792 123.831,34.792C126.436,34.792 126.983,33.938 126.983,32.635C126.983,30.772 125.736,30.422 124.153,30.422L122.15,30.422L122.15,29.693L123.971,29.693C125.344,29.693 126.786,29.343 126.786,27.522C126.786,26.177 126.282,25.477 124.153,25.477C123.032,25.477 121.954,25.701 121.225,25.855L121.225,25.154C121.982,24.958 123.144,24.734 124.293,24.734C126.814,24.734 127.613,25.617 127.613,27.41C127.614,28.39 127.18,29.174 126.914,29.427L126.914,29.427Z" style="fill:white;fill-rule:nonzero;"/>
            </g>
            <g>
                <path d="M164.898,35.38L164.127,35.38L164.127,32.397L158.733,32.397L158.733,31.584L163.371,24.874L164.897,24.874L164.897,31.696L167.251,31.696L167.04,32.397L164.896,32.397L164.898,35.38ZM164.128,31.696L164.128,25.561L163.749,25.561L159.645,31.514L159.645,31.696L164.128,31.696Z" style="fill:white;fill-rule:nonzero;"/>
                <path d="M178.083,35.52C177.118,35.52 176.096,35.38 175.366,35.268L175.366,34.525C176.038,34.623 177.075,34.763 178.126,34.763C180.55,34.763 181.391,34.076 181.391,32.34C181.391,30.491 180.803,30.015 178.645,30.015C177.651,30.015 176.306,30.225 175.69,30.309L175.69,24.874L181.91,24.874L181.91,25.588L176.42,25.588L176.42,29.538C177.008,29.44 177.819,29.286 178.899,29.286C181.337,29.286 182.233,29.931 182.233,32.227C182.23,34.441 181.208,35.52 178.083,35.52L178.083,35.52Z" style="fill:white;fill-rule:nonzero;"/>
                <path d="M191.846,30.253L191.915,30.253L192.362,29.791C192.966,29.567 194.057,29.259 195.333,29.259C197.812,29.259 198.639,30.295 198.639,32.242C198.639,34.273 197.587,35.52 194.885,35.52C191.944,35.52 191.032,33.657 191.032,30.561C191.032,28.614 191.579,27.213 192.405,26.331C193.372,25.322 194.913,24.692 197.616,24.664L197.895,25.407C195.262,25.421 193.832,25.967 192.993,26.864C192.335,27.563 191.901,28.754 191.846,30.253L191.846,30.253ZM195.066,29.987C193.82,29.987 192.671,30.295 191.845,30.617C191.872,33.517 192.783,34.791 194.925,34.791C196.929,34.791 197.825,34.007 197.825,32.312C197.826,30.688 197.167,29.987 195.066,29.987L195.066,29.987Z" style="fill:white;fill-rule:nonzero;"/>
            </g>
            <g>
                <path d="M227.708,25.813L227.708,25.617L221.393,25.617L221.617,24.874L228.606,24.874L228.606,25.799L223.591,35.38L222.681,35.38L227.708,25.813L227.708,25.813Z" style="fill:white;fill-rule:nonzero;"/>
                <path d="M238.347,30.505L239.298,29.986L239.298,29.916L238.458,29.482C238.094,29.118 237.743,28.599 237.743,27.633C237.743,25.938 238.807,24.719 241.272,24.719C243.724,24.719 244.634,25.811 244.634,27.38C244.634,28.375 244.213,28.977 243.821,29.397L242.954,29.916L242.954,29.986L244.017,30.379C244.579,30.827 244.9,31.542 244.9,32.494C244.9,34.231 243.821,35.52 241.062,35.52C238.458,35.52 237.377,34.483 237.377,32.705C237.38,31.808 237.744,31.065 238.347,30.505ZM238.207,32.606C238.207,34.007 239.02,34.805 241.148,34.805C243.319,34.805 244.076,33.783 244.076,32.578C244.076,30.659 242.857,30.505 239.733,30.168C238.962,30.673 238.207,31.36 238.207,32.606ZM238.57,27.563C238.57,29.286 239.664,29.524 242.408,29.776C243.291,29.23 243.795,28.515 243.795,27.479C243.795,26.134 243.039,25.434 241.191,25.434C239.257,25.435 238.57,26.387 238.57,27.563L238.57,27.563Z" style="fill:white;fill-rule:nonzero;"/>
                <path d="M260.063,30.015L259.994,30.015L259.558,30.477C258.984,30.715 257.906,30.996 256.701,30.996C254.194,30.996 253.311,29.987 253.311,28.054C253.311,25.841 254.699,24.734 257.05,24.734C259.796,24.734 260.874,26.261 260.874,29.595C260.874,31.598 260.329,33.069 259.501,33.937C258.577,34.946 256.995,35.548 254.276,35.604L254.009,34.833C256.601,34.819 258.113,34.301 258.926,33.418C259.559,32.705 260.021,31.528 260.063,30.015ZM256.884,30.267C258.145,30.267 259.28,29.973 260.064,29.679C260.037,26.709 259.182,25.463 256.998,25.463C255.037,25.463 254.125,26.401 254.125,27.999C254.125,29.567 254.824,30.267 256.884,30.267L256.884,30.267Z" style="fill:white;fill-rule:nonzero;"/>
            </g>
        </g>
        <g>
            <path d="M92.045,52.843C91.758,53.088 91.232,53.2 90.483,53.2C89.832,53.2 89.306,53.116 88.956,53.032L88.956,52.668C89.369,52.738 89.831,52.822 90.49,52.822C91.211,52.822 91.596,52.71 91.744,52.57C91.87,52.443 91.982,52.213 91.982,51.861C91.982,51.575 91.926,51.351 91.821,51.232C91.429,50.804 89.552,50.544 89.153,50.034C88.992,49.838 88.943,49.467 88.943,49.18C88.943,48.795 89.055,48.416 89.293,48.186C89.517,47.969 89.965,47.793 90.827,47.793C91.401,47.793 91.877,47.842 92.235,47.904L92.235,48.26C91.794,48.211 91.422,48.162 90.771,48.162C90.12,48.162 89.734,48.274 89.58,48.457C89.468,48.576 89.356,48.819 89.356,49.144C89.356,49.411 89.405,49.633 89.51,49.767C89.818,50.16 91.828,50.509 92.185,50.964C92.36,51.174 92.409,51.538 92.409,51.84C92.41,52.262 92.263,52.654 92.045,52.843Z" style="fill:white;fill-rule:nonzero;"/>
            <path d="M94.011,55.035L93.605,55.035L93.605,49.193L93.913,49.193L94.011,49.544L94.039,49.544C94.095,49.467 94.242,49.32 94.284,49.299C94.403,49.223 94.859,49.11 95.335,49.11C95.874,49.11 96.204,49.203 96.456,49.426C96.729,49.656 96.953,50.141 96.953,51.03C96.953,51.864 96.736,52.453 96.407,52.78C96.148,53.034 95.756,53.186 95.16,53.186C94.691,53.186 94.327,53.123 94.012,53.053L94.011,55.035ZM96.141,49.705C95.945,49.544 95.637,49.467 95.188,49.467C94.782,49.467 94.361,49.537 94.011,49.698L94.011,52.73C94.284,52.773 94.662,52.834 95.09,52.834C95.58,52.834 95.896,52.75 96.112,52.533C96.35,52.307 96.532,51.817 96.532,51.061C96.533,50.322 96.365,49.908 96.141,49.705L96.141,49.705Z" style="fill:white;fill-rule:nonzero;"/>
            <path d="M99.829,49.117C100.95,49.117 101.321,49.683 101.321,50.693L101.321,51.174L98.456,51.174C98.456,52.246 98.765,52.827 99.864,52.827C100.431,52.827 100.893,52.735 101.166,52.692L101.138,53.03C100.858,53.098 100.354,53.198 99.814,53.198C98.504,53.198 98.035,52.524 98.035,51.186C98.036,49.816 98.596,49.117 99.829,49.117L99.829,49.117ZM98.47,50.861L100.921,50.861L100.921,50.72C100.921,49.851 100.634,49.451 99.787,49.451C98.883,49.453 98.526,49.93 98.47,50.861Z" style="fill:white;fill-rule:nonzero;"/>
            <path d="M103.188,49.768C102.901,50.036 102.754,50.533 102.754,51.206C102.754,51.851 102.887,52.285 103.16,52.537C103.391,52.754 103.734,52.838 104.161,52.838C104.659,52.838 105.057,52.761 105.331,52.719L105.331,53.034C105.058,53.11 104.651,53.209 104.098,53.209C103.545,53.209 103.124,53.083 102.851,52.824C102.487,52.487 102.326,51.94 102.326,51.255C102.326,50.472 102.515,49.868 102.887,49.526C103.188,49.231 103.629,49.09 104.218,49.09C104.687,49.09 105.072,49.153 105.332,49.202L105.332,49.552C105.087,49.518 104.723,49.461 104.26,49.461C103.784,49.46 103.412,49.551 103.188,49.768L103.188,49.768Z" style="fill:white;fill-rule:nonzero;"/>
            <path d="M106.877,48.066C106.835,48.101 106.758,48.115 106.681,48.115C106.583,48.115 106.52,48.101 106.485,48.058C106.45,48.023 106.429,47.954 106.429,47.863C106.429,47.758 106.457,47.681 106.513,47.652C106.534,47.625 106.604,47.603 106.695,47.603C106.779,47.603 106.842,47.618 106.877,47.652C106.926,47.695 106.94,47.765 106.94,47.855C106.94,47.947 106.926,48.031 106.877,48.066L106.877,48.066ZM106.471,53.123L106.471,49.193L106.877,49.193L106.877,53.123L106.471,53.123Z" style="fill:white;fill-rule:nonzero;"/>
            <path d="M110.861,53.123L110.763,52.695L110.728,52.695C110.672,52.773 110.574,52.906 110.539,52.933C110.42,53.017 109.999,53.193 109.32,53.193C108.774,53.193 108.48,53.06 108.319,52.878C108.179,52.725 108.095,52.479 108.095,52.115C108.095,51.674 108.249,51.407 108.403,51.308C108.704,51.083 109.503,50.937 110.756,50.826C110.756,50.146 110.672,49.866 110.539,49.705C110.413,49.559 110.154,49.488 109.712,49.488C109.236,49.488 108.627,49.599 108.36,49.648L108.36,49.32C108.654,49.243 109.235,49.124 109.796,49.124C110.336,49.124 110.679,49.215 110.868,49.432C111.043,49.621 111.155,49.916 111.155,50.686L111.155,53.124L110.861,53.123L110.861,53.123ZM110.756,51.141C109.846,51.199 108.83,51.344 108.669,51.52C108.564,51.612 108.494,51.787 108.494,52.082C108.494,52.334 108.557,52.517 108.655,52.628C108.774,52.754 109.026,52.853 109.453,52.853C110.049,52.853 110.546,52.685 110.756,52.58L110.756,51.141L110.756,51.141Z" style="fill:white;fill-rule:nonzero;"/>
            <path d="M113.016,47.45L113.016,52.191C113.016,52.695 113.226,52.814 113.556,52.814C113.787,52.814 113.976,52.787 114.116,52.765L114.116,53.086C113.948,53.121 113.703,53.163 113.437,53.163C112.87,53.163 112.61,52.892 112.61,52.231L112.61,47.45L113.016,47.45Z" style="fill:white;fill-rule:nonzero;"/>
            <path d="M116.972,49.537L115.578,49.537L115.578,52.156C115.578,52.689 115.824,52.801 116.265,52.801C116.587,52.801 116.881,52.752 117.036,52.731L117,53.074C116.79,53.116 116.461,53.165 116.16,53.165C115.46,53.165 115.173,52.913 115.173,52.232L115.173,49.537L114.36,49.537L114.416,49.193L115.173,49.193L115.173,48.375L115.579,48.27L115.579,49.194L117.05,49.194L116.972,49.537L116.972,49.537Z" style="fill:white;fill-rule:nonzero;"/>
            <path d="M118.959,55.042L118.532,55.042L119.303,53.123L118.981,53.123L117.51,49.193L117.951,49.193L119.261,52.765L119.443,52.765L120.83,49.193L121.271,49.193L118.959,55.042Z" style="fill:white;fill-rule:nonzero;"/>
            <path d="M123.845,53.123L123.845,52.766L125.393,52.766L125.393,48.159L123.845,48.438L123.845,48.08L125.792,47.736L125.792,52.765L127.192,52.765L127.192,53.121L123.845,53.123L123.845,53.123Z" style="fill:white;fill-rule:nonzero;"/>
        </g>
        <g>
            <path d="M140.058,13.438L139.4,11.645L136.837,11.645L136.129,13.438L135.702,13.438L137.803,8.185L138.553,8.185L140.514,13.438L140.058,13.438L140.058,13.438ZM138.272,8.57L138.048,8.57L136.969,11.28L139.273,11.28L138.272,8.57Z" style="fill:white;fill-rule:nonzero;"/>
            <path d="M144.397,13.438L144.293,13.018L144.25,13.018C144.236,13.046 144.068,13.263 144.056,13.27C143.859,13.368 143.398,13.487 142.907,13.487C142.341,13.487 142.046,13.368 141.829,13.144C141.626,12.927 141.507,12.598 141.507,12.058L141.507,9.509L141.913,9.509L141.913,11.905C141.913,12.437 142.011,12.71 142.172,12.879C142.34,13.054 142.633,13.124 143.062,13.124C143.517,13.124 143.973,13.005 144.288,12.865L144.288,9.509L144.694,9.509L144.694,13.438L144.397,13.438L144.397,13.438Z" style="fill:white;fill-rule:nonzero;"/>
            <path d="M147.259,11.638L146.124,13.438L145.661,13.438L146.943,11.456L145.745,9.509L146.208,9.509L147.266,11.267L147.587,11.267L148.736,9.509L149.191,9.509L147.903,11.456L149.149,13.438L148.68,13.438L147.573,11.638L147.259,11.638L147.259,11.638Z" style="fill:white;fill-rule:nonzero;"/>
            <path d="M150.458,13.417C150.423,13.459 150.331,13.473 150.247,13.473C150.143,13.473 150.071,13.452 150.03,13.41C149.987,13.368 149.973,13.298 149.973,13.193C149.973,13.088 150.016,13.004 150.057,12.969C150.1,12.948 150.162,12.927 150.26,12.927C150.344,12.927 150.428,12.941 150.463,12.976C150.512,13.011 150.533,13.095 150.533,13.193C150.535,13.284 150.514,13.368 150.458,13.417L150.458,13.417Z" style="fill:white;fill-rule:nonzero;"/>
            <path d="M156.97,13.438L153.95,8.577L153.823,8.577L153.823,13.438L153.438,13.438L153.438,8.185L154.167,8.185L157.157,13.004L157.292,13.004L157.292,8.185L157.677,8.185L157.677,13.438L156.97,13.438L156.97,13.438Z" style="fill:white;fill-rule:nonzero;"/>
            <path d="M162.156,13.053C161.883,13.333 161.484,13.522 160.791,13.522C160.14,13.522 159.727,13.34 159.467,13.046C159.242,12.787 159.039,12.324 159.039,11.568C159.039,10.805 159.242,10.189 159.601,9.852C159.881,9.586 160.316,9.404 160.939,9.404C161.536,9.404 161.947,9.572 162.193,9.817C162.48,10.118 162.655,10.573 162.655,11.386C162.653,12.156 162.457,12.738 162.156,13.053L162.156,13.053ZM161.82,12.843C162.064,12.591 162.24,12.156 162.24,11.456C162.24,10.65 162.086,10.314 161.877,10.097C161.681,9.894 161.379,9.768 160.89,9.768C160.407,9.768 160.084,9.922 159.902,10.09C159.665,10.307 159.447,10.804 159.447,11.519C159.447,12.107 159.581,12.556 159.777,12.78C159.965,12.997 160.267,13.172 160.835,13.172C161.267,13.172 161.617,13.046 161.82,12.843L161.82,12.843Z" style="fill:white;fill-rule:nonzero;"/>
            <path d="M166.664,7.73L167.078,7.73L167.078,13.438L166.763,13.438L166.664,13.067L166.643,13.067C166.574,13.144 166.441,13.298 166.399,13.326C166.28,13.403 165.921,13.522 165.382,13.522C164.829,13.522 164.473,13.41 164.227,13.207C163.955,12.976 163.73,12.485 163.73,11.589C163.73,10.797 163.925,10.174 164.27,9.852C164.548,9.579 164.949,9.439 165.544,9.439C166.014,9.439 166.335,9.502 166.663,9.586L166.663,7.73L166.664,7.73ZM164.548,12.913C164.732,13.074 165.081,13.165 165.493,13.165C165.887,13.165 166.313,13.095 166.663,12.927L166.663,9.894C166.397,9.859 166.034,9.789 165.6,9.789C165.11,9.789 164.787,9.887 164.563,10.097C164.326,10.321 164.151,10.805 164.151,11.561C164.15,12.332 164.332,12.724 164.548,12.913L164.548,12.913Z" style="fill:white;fill-rule:nonzero;"/>
            <path d="M170.149,9.432C171.269,9.432 171.64,9.999 171.64,11.008L171.64,11.491L168.776,11.491C168.776,12.563 169.086,13.144 170.184,13.144C170.751,13.144 171.212,13.053 171.486,13.011L171.459,13.347C171.18,13.417 170.676,13.515 170.136,13.515C168.826,13.515 168.358,12.843 168.358,11.505C168.356,10.132 168.916,9.432 170.149,9.432L170.149,9.432ZM168.791,11.176L171.242,11.176L171.242,11.036C171.242,10.167 170.955,9.768 170.107,9.768C169.203,9.768 168.847,10.244 168.791,11.176L168.791,11.176Z" style="fill:white;fill-rule:nonzero;"/>
        </g>
        <g>
            <path d="M207.625,13.438L206.967,11.645L204.404,11.645L203.696,13.438L203.269,13.438L205.371,8.185L206.121,8.185L208.082,13.438L207.625,13.438L207.625,13.438ZM205.839,8.57L205.614,8.57L204.536,11.28L206.841,11.28L205.839,8.57Z" style="fill:white;fill-rule:nonzero;"/>
            <path d="M211.964,13.438L211.86,13.018L211.817,13.018C211.803,13.046 211.634,13.263 211.623,13.27C211.426,13.368 210.965,13.487 210.475,13.487C209.909,13.487 209.614,13.368 209.397,13.144C209.194,12.927 209.075,12.598 209.075,12.058L209.075,9.509L209.481,9.509L209.481,11.905C209.481,12.437 209.579,12.71 209.739,12.879C209.909,13.054 210.202,13.124 210.63,13.124C211.085,13.124 211.54,13.005 211.856,12.865L211.856,9.509L212.262,9.509L212.262,13.438L211.964,13.438Z" style="fill:white;fill-rule:nonzero;"/>
            <path d="M214.826,11.638L213.691,13.438L213.229,13.438L214.511,11.456L213.313,9.509L213.775,9.509L214.834,11.267L215.155,11.267L216.304,9.509L216.759,9.509L215.47,11.456L216.716,13.438L216.247,13.438L215.141,11.638L214.826,11.638L214.826,11.638Z" style="fill:white;fill-rule:nonzero;"/>
            <path d="M218.025,13.417C217.99,13.459 217.898,13.473 217.814,13.473C217.71,13.473 217.639,13.452 217.597,13.41C217.555,13.368 217.54,13.298 217.54,13.193C217.54,13.088 217.583,13.004 217.624,12.969C217.667,12.948 217.728,12.927 217.827,12.927C217.911,12.927 217.995,12.941 218.03,12.976C218.079,13.011 218.099,13.095 218.099,13.193C218.102,13.284 218.082,13.368 218.025,13.417L218.025,13.417Z" style="fill:white;fill-rule:nonzero;"/>
            <path d="M224.537,13.438L221.517,8.577L221.391,8.577L221.391,13.438L221.005,13.438L221.005,8.185L221.734,8.185L224.725,13.004L224.859,13.004L224.859,8.185L225.244,8.185L225.244,13.438L224.537,13.438L224.537,13.438Z" style="fill:white;fill-rule:nonzero;"/>
            <path d="M229.723,13.053C229.451,13.333 229.05,13.522 228.358,13.522C227.707,13.522 227.295,13.34 227.035,13.046C226.81,12.787 226.607,12.324 226.607,11.568C226.607,10.805 226.81,10.189 227.168,9.852C227.448,9.586 227.883,9.404 228.506,9.404C229.102,9.404 229.515,9.572 229.76,9.817C230.047,10.118 230.223,10.573 230.223,11.386C230.221,12.156 230.024,12.738 229.723,13.053L229.723,13.053ZM229.387,12.843C229.632,12.591 229.807,12.156 229.807,11.456C229.807,10.65 229.653,10.314 229.444,10.097C229.248,9.894 228.946,9.768 228.457,9.768C227.975,9.768 227.651,9.922 227.469,10.09C227.232,10.307 227.015,10.804 227.015,11.519C227.015,12.107 227.148,12.556 227.344,12.78C227.532,12.997 227.834,13.172 228.402,13.172C228.833,13.172 229.184,13.046 229.387,12.843L229.387,12.843Z" style="fill:white;fill-rule:nonzero;"/>
            <path d="M234.23,7.73L234.644,7.73L234.644,13.438L234.33,13.438L234.23,13.067L234.209,13.067C234.141,13.144 234.008,13.298 233.965,13.326C233.846,13.403 233.487,13.522 232.948,13.522C232.395,13.522 232.039,13.41 231.793,13.207C231.521,12.976 231.297,12.485 231.297,11.589C231.297,10.797 231.492,10.174 231.836,9.852C232.115,9.579 232.516,9.439 233.11,9.439C233.58,9.439 233.901,9.502 234.229,9.586L234.23,7.73ZM232.117,12.913C232.299,13.074 232.648,13.165 233.061,13.165C233.453,13.165 233.88,13.095 234.23,12.927L234.23,9.894C233.964,9.859 233.601,9.789 233.166,9.789C232.676,9.789 232.353,9.887 232.131,10.097C231.894,10.321 231.717,10.805 231.717,11.561C231.716,12.332 231.898,12.724 232.117,12.913L232.117,12.913Z" style="fill:white;fill-rule:nonzero;"/>
            <path d="M237.716,9.432C238.837,9.432 239.208,9.999 239.208,11.008L239.208,11.491L236.344,11.491C236.344,12.563 236.653,13.144 237.751,13.144C238.317,13.144 238.78,13.053 239.054,13.011L239.026,13.347C238.748,13.417 238.244,13.515 237.703,13.515C236.393,13.515 235.926,12.843 235.926,11.505C235.923,10.132 236.483,9.432 237.716,9.432L237.716,9.432ZM236.357,11.176L238.808,11.176L238.808,11.036C238.808,10.167 238.521,9.768 237.673,9.768C236.771,9.768 236.414,10.244 236.357,11.176L236.357,11.176Z" style="fill:white;fill-rule:nonzero;"/>
        </g>
        <g>
            <path d="M72.489,13.438L71.831,11.645L69.268,11.645L68.56,13.438L68.133,13.438L70.234,8.185L70.984,8.185L72.945,13.438L72.489,13.438L72.489,13.438ZM70.703,8.57L70.479,8.57L69.4,11.28L71.704,11.28L70.703,8.57Z" style="fill:white;fill-rule:nonzero;"/>
            <path d="M76.828,13.438L76.723,13.018L76.681,13.018C76.667,13.046 76.499,13.263 76.485,13.27C76.289,13.368 75.827,13.487 75.336,13.487C74.769,13.487 74.475,13.368 74.258,13.144C74.055,12.927 73.936,12.598 73.936,12.058L73.936,9.509L74.342,9.509L74.342,11.905C74.342,12.437 74.44,12.71 74.601,12.879C74.769,13.054 75.063,13.124 75.491,13.124C75.946,13.124 76.402,13.005 76.717,12.865L76.717,9.509L77.123,9.509L77.123,13.438L76.828,13.438Z" style="fill:white;fill-rule:nonzero;"/>
            <path d="M79.69,11.638L78.555,13.438L78.093,13.438L79.375,11.456L78.177,9.509L78.639,9.509L79.696,11.267L80.018,11.267L81.167,9.509L81.622,9.509L80.333,11.456L81.58,13.438L81.111,13.438L80.005,11.638L79.69,11.638L79.69,11.638Z" style="fill:white;fill-rule:nonzero;"/>
            <path d="M82.889,13.417C82.854,13.459 82.763,13.473 82.679,13.473C82.574,13.473 82.504,13.452 82.462,13.41C82.42,13.368 82.406,13.298 82.406,13.193C82.406,13.088 82.448,13.004 82.49,12.969C82.532,12.948 82.595,12.927 82.693,12.927C82.777,12.927 82.861,12.941 82.896,12.976C82.945,13.011 82.966,13.095 82.966,13.193C82.966,13.284 82.945,13.368 82.889,13.417L82.889,13.417Z" style="fill:white;fill-rule:nonzero;"/>
            <path d="M89.4,13.438L86.381,8.577L86.255,8.577L86.255,13.438L85.87,13.438L85.87,8.185L86.598,8.185L89.589,13.004L89.722,13.004L89.722,8.185L90.107,8.185L90.107,13.438L89.4,13.438L89.4,13.438Z" style="fill:white;fill-rule:nonzero;"/>
            <path d="M94.587,13.053C94.314,13.333 93.915,13.522 93.221,13.522C92.57,13.522 92.156,13.34 91.897,13.046C91.673,12.787 91.47,12.324 91.47,11.568C91.47,10.805 91.673,10.189 92.03,9.852C92.31,9.586 92.744,9.404 93.368,9.404C93.963,9.404 94.376,9.572 94.622,9.817C94.909,10.118 95.084,10.573 95.084,11.386C95.084,12.156 94.888,12.738 94.587,13.053L94.587,13.053ZM94.25,12.843C94.495,12.591 94.67,12.156 94.67,11.456C94.67,10.65 94.516,10.314 94.306,10.097C94.11,9.894 93.809,9.768 93.319,9.768C92.836,9.768 92.513,9.922 92.331,10.09C92.093,10.307 91.876,10.804 91.876,11.519C91.876,12.107 92.009,12.556 92.205,12.78C92.394,12.997 92.695,13.172 93.263,13.172C93.697,13.172 94.047,13.046 94.25,12.843L94.25,12.843Z" style="fill:white;fill-rule:nonzero;"/>
            <path d="M99.095,7.73L99.509,7.73L99.509,13.438L99.194,13.438L99.096,13.067L99.075,13.067C99.005,13.144 98.872,13.298 98.83,13.326C98.711,13.403 98.354,13.522 97.815,13.522C97.261,13.522 96.904,13.41 96.659,13.207C96.386,12.976 96.161,12.485 96.161,11.589C96.161,10.797 96.357,10.174 96.701,9.852C96.981,9.579 97.38,9.439 97.976,9.439C98.445,9.439 98.767,9.502 99.096,9.586L99.095,7.73ZM96.98,12.913C97.162,13.074 97.512,13.165 97.925,13.165C98.317,13.165 98.744,13.095 99.094,12.927L99.094,9.894C98.828,9.859 98.464,9.789 98.03,9.789C97.54,9.789 97.217,9.887 96.993,10.097C96.755,10.321 96.58,10.805 96.58,11.561C96.581,12.332 96.763,12.724 96.98,12.913L96.98,12.913Z" style="fill:white;fill-rule:nonzero;"/>
            <path d="M102.58,9.432C103.701,9.432 104.072,9.999 104.072,11.008L104.072,11.491L101.207,11.491C101.207,12.563 101.516,13.144 102.615,13.144C103.182,13.144 103.644,13.053 103.917,13.011L103.889,13.347C103.609,13.417 103.105,13.515 102.565,13.515C101.255,13.515 100.786,12.843 100.786,11.505C100.787,10.132 101.347,9.432 102.58,9.432L102.58,9.432ZM101.221,11.176L103.672,11.176L103.672,11.036C103.672,10.167 103.385,9.768 102.538,9.768C101.634,9.768 101.277,10.244 101.221,11.176L101.221,11.176Z" style="fill:white;fill-rule:nonzero;"/>
        </g>
        <g>
            <rect x="24.028" y="31.718" width="1.416" height="18.002" style="fill:white;"/>
            <path d="M43.037,49.72L32.692,33.063L32.26,33.063L32.26,49.72L30.94,49.72L30.94,31.718L33.436,31.718L43.685,48.231L44.141,48.231L44.141,31.718L45.461,31.718L45.461,49.72L43.037,49.72L43.037,49.72Z" style="fill:white;fill-rule:nonzero;"/>
            <path d="M62.981,32.99L56.62,32.99L56.62,49.72L55.228,49.72L55.228,32.99L48.724,32.99L49.06,31.718L63.269,31.718L62.981,32.99L62.981,32.99Z" style="fill:white;fill-rule:nonzero;"/>
        </g>
    </g>
</svg>
