<?xml version="1.0" standalone="no"?>
<!DOCTYPE svg PUBLIC "-//W3C//DTD SVG 1.1//EN" "http://www.w3.org/Graphics/SVG/1.1/DTD/svg11.dtd">
<svg width="100%" height="100%" viewBox="0 0 284 100" version="1.1" xmlns="http://www.w3.org/2000/svg" xmlns:xlink="http://www.w3.org/1999/xlink" xml:space="preserve" style="fill-rule:evenodd;clip-rule:evenodd;stroke-linejoin:round;stroke-miterlimit:1.41421;">
    <g id="tint">
        <path d="M120.274,16.297L110.354,6.377L54.152,6.376L64.072,16.296L64.081,16.296L78.464,30.679L84.47,27.672L73.094,16.296L120.274,16.297Z" style="fill:rgb(115,80,196);fill-rule:nonzero;"/>
        <path d="M187.843,16.297L177.923,6.377L121.721,6.376L131.642,16.296L131.652,16.296L145.904,30.549L151.912,27.542L140.666,16.296L187.843,16.297Z" style="fill:rgb(115,80,196);fill-rule:nonzero;"/>
        <path d="M254.416,16.298L244.492,6.376L188.285,6.376L198.207,16.298L198.219,16.298L210.573,28.653L216.58,25.646L207.232,16.298L254.416,16.298Z" style="fill:rgb(115,80,196);fill-rule:nonzero;"/>
        <path d="M95.075,46.064L105.487,35.652L99.48,32.646L86.062,46.064L86.037,46.064L76.117,55.984L132.319,55.982L142.239,46.063L95.075,46.064Z" style="fill:rgb(115,80,196);fill-rule:nonzero;"/>
        <rect x="61.527" y="25.511" width="170.057" height="11.339" style="fill:rgb(115,80,196);"/>
    </g>
    <g id="primary">
        <rect x="61.527" y="25.511" width="164.989" height="11.339" style="fill:rgb(45,17,130);"/>
        <path d="M2.837,42.52L42.521,82.204L82.205,42.521L42.52,2.836L2.837,42.52Z" style="fill:rgb(45,17,130);"/>
        <path d="M229.903,46.063L240.862,35.104L234.855,32.097L220.89,46.063L220.875,46.063L198.148,68.789L254.355,68.789L277.083,46.063L229.903,46.063Z" style="fill:rgb(45,17,130);fill-rule:nonzero;"/>
        <g transform="matrix(1,0,0,1,-66.549,0)">
            <path d="M229.903,46.063L240.862,35.104L234.855,32.097L220.89,46.063L220.875,46.063L198.148,68.789L254.355,68.789L277.083,46.063L229.903,46.063Z" style="fill:rgb(45,17,130);fill-rule:nonzero;"/>
        </g>
        <g transform="matrix(1,0,0,1,-14.521,14.521)">
            <path d="M222.35,59.527L263.623,59.527L240.944,82.205L49.897,82.205L72.574,59.527L140.861,59.527L152.148,48.24L162.055,53.2L155.729,59.527L207.482,59.527L218.77,48.24L228.677,53.2L222.35,59.527Z" style="fill:rgb(45,17,130);"/>
        </g>
        <path d="M2.837,42.52L42.521,82.204L82.205,42.521L42.52,2.836L2.837,42.52Z" style="fill:rgb(45,17,130);"/>
        <path d="M133.204,19.842L61.527,19.842L84.205,42.519L155.88,42.519L133.204,19.842Z" style="fill:rgb(45,17,130);fill-rule:nonzero;"/>
        <path d="M199.762,19.842L163.537,19.842L162.573,19.842L162.425,19.842L161.573,19.842L135.198,19.842L157.875,42.519L222.438,42.519L199.762,19.842Z" style="fill:rgb(45,17,130);fill-rule:nonzero;"/>
        <path d="M257.953,19.842L201.757,19.842L224.434,42.519L280.63,42.519L257.953,19.842Z" style="fill:rgb(45,17,130);fill-rule:nonzero;"/>
        <g id="v1" transform="matrix(1,0,0,1,14.1412,-13.212)">
            <path d="M146.695,67.75C146.695,67.427 146.643,67.037 146.455,66.812C146.073,66.325 143.92,65.95 143.59,65.53C143.478,65.387 143.425,65.147 143.425,64.862C143.425,64.517 143.545,64.255 143.665,64.127C143.83,63.932 144.243,63.812 144.94,63.812C145.638,63.812 146.035,63.865 146.508,63.917L146.508,63.535C146.125,63.467 145.615,63.415 145,63.415C144.078,63.415 143.598,63.602 143.358,63.835C143.103,64.082 142.983,64.487 142.983,64.9C142.983,65.207 143.035,65.605 143.208,65.815C143.635,66.362 145.645,66.64 146.065,67.097C146.178,67.225 146.238,67.465 146.238,67.772C146.238,68.147 146.118,68.395 145.983,68.53C145.825,68.68 145.413,68.8 144.64,68.8C143.935,68.8 143.44,68.71 142.998,68.635L142.998,69.025C143.373,69.115 143.935,69.205 144.633,69.205C145.435,69.205 145.998,69.085 146.305,68.822C146.538,68.62 146.695,68.2 146.695,67.75Z" style="fill:white;fill-rule:nonzero;"/>
            <path d="M151.383,69.122L151.383,64.915L150.948,64.915L150.948,68.507C150.61,68.657 150.123,68.785 149.635,68.785C149.178,68.785 148.863,68.71 148.683,68.522C148.51,68.342 148.405,68.05 148.405,67.48L148.405,64.915L147.97,64.915L147.97,67.645C147.97,68.222 148.098,68.575 148.315,68.807C148.548,69.047 148.863,69.175 149.47,69.175C149.995,69.175 150.49,69.047 150.7,68.942C150.715,68.935 150.895,68.702 150.91,68.672L150.955,68.672L151.068,69.122L151.383,69.122Z" style="fill:white;fill-rule:nonzero;"/>
            <path d="M155.5,67.967C155.5,67.682 155.433,67.442 155.283,67.27C155.125,67.09 154.803,66.962 154.188,66.82C153.618,66.692 153.355,66.587 153.228,66.437C153.13,66.325 153.1,66.167 153.1,66.01C153.1,65.477 153.355,65.177 154.24,65.177C154.683,65.177 155.035,65.222 155.358,65.275L155.358,64.915C155.103,64.862 154.698,64.802 154.233,64.802C153.115,64.802 152.673,65.26 152.673,66.032C152.673,66.272 152.725,66.52 152.86,66.677C153.07,66.94 153.423,67.052 154.015,67.195C154.525,67.315 154.81,67.412 154.945,67.562C155.035,67.682 155.073,67.84 155.073,67.997C155.073,68.53 154.833,68.8 153.888,68.8C153.43,68.8 152.965,68.732 152.658,68.672L152.658,69.04C152.958,69.115 153.468,69.175 153.888,69.175C155.163,69.175 155.5,68.71 155.5,67.967Z" style="fill:white;fill-rule:nonzero;"/>
            <path d="M158.943,64.915L157.368,64.915L157.368,63.925L156.933,64.037L156.933,64.915L156.123,64.915L156.063,65.282L156.933,65.282L156.933,68.17C156.933,68.897 157.24,69.167 157.99,69.167C158.313,69.167 158.665,69.115 158.89,69.07L158.928,68.702C158.763,68.725 158.448,68.777 158.103,68.777C157.63,68.777 157.368,68.657 157.368,68.087L157.368,65.282L158.86,65.282L158.943,64.915Z" style="fill:white;fill-rule:nonzero;"/>
            <path d="M162.993,69.122L162.993,66.512C162.993,65.687 162.873,65.372 162.685,65.17C162.483,64.937 162.115,64.84 161.538,64.84C160.938,64.84 160.315,64.967 160,65.05L160,65.402C160.285,65.35 160.938,65.23 161.448,65.23C161.92,65.23 162.198,65.305 162.333,65.462C162.475,65.635 162.565,65.935 162.565,66.662C161.223,66.782 160.368,66.94 160.045,67.18C159.88,67.285 159.715,67.57 159.715,68.042C159.715,68.432 159.805,68.695 159.955,68.86C160.128,69.055 160.443,69.197 161.028,69.197C161.755,69.197 162.205,69.01 162.333,68.92C162.37,68.89 162.475,68.747 162.535,68.665L162.573,68.665L162.678,69.122L162.993,69.122ZM162.565,68.537C162.34,68.65 161.808,68.83 161.17,68.83C160.713,68.83 160.443,68.725 160.315,68.59C160.21,68.47 160.143,68.275 160.143,68.005C160.143,67.69 160.218,67.502 160.33,67.405C160.503,67.217 161.59,67.06 162.565,67L162.565,68.537Z" style="fill:white;fill-rule:nonzero;"/>
            <path d="M165.01,69.122L165.01,64.915L164.575,64.915L164.575,69.122L165.01,69.122ZM165.078,63.482C165.078,63.385 165.063,63.31 165.01,63.265C164.973,63.227 164.905,63.212 164.815,63.212C164.718,63.212 164.643,63.235 164.62,63.265C164.56,63.295 164.53,63.377 164.53,63.49C164.53,63.587 164.553,63.662 164.59,63.7C164.628,63.745 164.695,63.76 164.8,63.76C164.883,63.76 164.965,63.745 165.01,63.707C165.063,63.67 165.078,63.58 165.078,63.482Z" style="fill:white;fill-rule:nonzero;"/>
            <path d="M170.005,69.122L170.005,66.37C170.005,65.8 169.885,65.417 169.653,65.2C169.428,64.975 169.105,64.855 168.558,64.855C168.025,64.855 167.485,65.005 167.283,65.117C167.26,65.132 167.088,65.327 167.065,65.357L167.028,65.357L166.908,64.915L166.593,64.915L166.593,69.122L167.028,69.122L167.028,65.522C167.358,65.387 167.83,65.245 168.37,65.245C168.76,65.245 169.09,65.32 169.278,65.5C169.465,65.68 169.57,65.987 169.57,66.52L169.57,69.122L170.005,69.122Z" style="fill:white;fill-rule:nonzero;"/>
            <path d="M146.084,76.225L142.942,76.225L142.942,73.945L145.394,73.945L145.492,73.555L142.942,73.555L142.942,71.395L145.837,71.395L145.942,70.997L142.507,70.997L142.507,76.622L145.957,76.622L146.084,76.225Z" style="fill:white;fill-rule:nonzero;"/>
            <path d="M148.724,74.695L149.909,76.622L150.412,76.622L149.077,74.5L150.457,72.415L149.969,72.415L148.739,74.297L148.394,74.297L147.262,72.415L146.767,72.415L148.049,74.5L146.677,76.622L147.172,76.622L148.387,74.695L148.724,74.695Z" style="fill:white;fill-rule:nonzero;"/>
            <path d="M153.832,72.415L152.257,72.415L152.257,71.425L151.822,71.537L151.822,72.415L151.012,72.415L150.952,72.782L151.822,72.782L151.822,75.67C151.822,76.397 152.129,76.667 152.879,76.667C153.202,76.667 153.554,76.615 153.779,76.57L153.817,76.202C153.652,76.225 153.337,76.277 152.992,76.277C152.519,76.277 152.257,76.157 152.257,75.587L152.257,72.782L153.749,72.782L153.832,72.415Z" style="fill:white;fill-rule:nonzero;"/>
            <path d="M154.957,72.415L154.957,76.622L155.392,76.622L155.392,73.082C155.647,72.917 156.127,72.745 156.637,72.752C156.892,72.752 157.109,72.782 157.237,72.805L157.237,72.385C157.124,72.37 156.967,72.355 156.757,72.355C156.232,72.355 155.849,72.497 155.647,72.617C155.632,72.632 155.452,72.85 155.429,72.88L155.384,72.88L155.279,72.415L154.957,72.415Z" style="fill:white;fill-rule:nonzero;"/>
            <path d="M161.624,74.425C161.624,73.555 161.437,73.067 161.129,72.745C160.867,72.482 160.424,72.302 159.787,72.302C159.119,72.302 158.654,72.497 158.354,72.782C157.972,73.142 157.754,73.802 157.754,74.62C157.754,75.43 157.972,75.925 158.212,76.202C158.489,76.517 158.932,76.712 159.629,76.712C160.372,76.712 160.799,76.51 161.092,76.21C161.414,75.872 161.624,75.25 161.624,74.425ZM159.674,76.337C159.067,76.337 158.744,76.15 158.542,75.917C158.332,75.677 158.189,75.197 158.189,74.567C158.189,73.802 158.422,73.27 158.677,73.037C158.872,72.857 159.217,72.692 159.734,72.692C160.259,72.692 160.582,72.827 160.792,73.045C161.017,73.277 161.182,73.637 161.182,74.5C161.182,75.25 160.994,75.715 160.732,75.985C160.514,76.202 160.139,76.337 159.674,76.337Z" style="fill:white;fill-rule:nonzero;"/>
            <path d="M163.424,76.547C163.762,76.622 164.152,76.69 164.654,76.69C165.292,76.69 165.712,76.525 165.989,76.255C166.342,75.902 166.574,75.272 166.574,74.38C166.574,73.427 166.334,72.91 166.042,72.662C165.772,72.422 165.419,72.325 164.842,72.325C164.332,72.325 163.844,72.445 163.717,72.527C163.672,72.55 163.514,72.707 163.454,72.79L163.424,72.79L163.319,72.415L162.989,72.415L162.989,78.67L163.424,78.67L163.424,76.547ZM166.124,74.417C166.124,75.227 165.929,75.752 165.674,75.992C165.442,76.225 165.104,76.315 164.579,76.315C164.122,76.315 163.717,76.247 163.424,76.202L163.424,72.955C163.799,72.782 164.249,72.707 164.684,72.707C165.164,72.707 165.494,72.79 165.704,72.962C165.944,73.18 166.124,73.622 166.124,74.417Z" style="fill:white;fill-rule:nonzero;"/>
            <path d="M171.344,72.415L170.872,72.415L169.387,76.24L169.192,76.24L167.789,72.415L167.317,72.415L168.892,76.622L169.237,76.622L168.412,78.677L168.869,78.677L171.344,72.415Z" style="fill:white;fill-rule:nonzero;"/>
        </g>
        <g id="v2" transform="matrix(1,0,0,1,16.0817,-13.04)">
            <path d="M208.551,63.557C208.161,63.49 207.726,63.415 207.051,63.415C206.076,63.415 205.544,63.64 205.176,63.955C204.831,64.232 204.344,64.952 204.344,66.392C204.344,67.6 204.644,68.29 204.989,68.627C205.379,68.995 205.859,69.19 206.819,69.19C207.464,69.19 208.094,69.085 208.551,68.965L208.551,68.59C208.154,68.665 207.546,68.777 206.901,68.777C206.114,68.777 205.634,68.62 205.341,68.327C204.989,67.975 204.801,67.27 204.801,66.325C204.801,65.26 205.146,64.517 205.491,64.24C205.799,64 206.249,63.827 207.059,63.827C207.771,63.827 208.161,63.895 208.551,63.94L208.551,63.557Z" style="fill:white;fill-rule:nonzero;"/>
            <path d="M213.486,66.917C213.486,66.047 213.299,65.56 212.991,65.237C212.729,64.975 212.286,64.795 211.649,64.795C210.981,64.795 210.516,64.99 210.216,65.275C209.834,65.635 209.616,66.295 209.616,67.112C209.616,67.922 209.834,68.417 210.074,68.695C210.351,69.01 210.794,69.205 211.491,69.205C212.234,69.205 212.661,69.002 212.954,68.702C213.276,68.365 213.486,67.742 213.486,66.917ZM211.536,68.83C210.929,68.83 210.606,68.642 210.404,68.41C210.194,68.17 210.051,67.69 210.051,67.06C210.051,66.295 210.284,65.762 210.539,65.53C210.734,65.35 211.079,65.185 211.596,65.185C212.121,65.185 212.444,65.32 212.654,65.537C212.879,65.77 213.044,66.13 213.044,66.992C213.044,67.742 212.856,68.207 212.594,68.477C212.376,68.695 212.001,68.83 211.536,68.83Z" style="fill:white;fill-rule:nonzero;"/>
            <path d="M218.264,69.115L218.264,66.37C218.264,65.792 218.151,65.41 217.919,65.177C217.686,64.96 217.371,64.847 216.764,64.847C216.239,64.847 215.744,64.975 215.549,65.095C215.519,65.11 215.339,65.312 215.316,65.35L215.286,65.35L215.286,63.04L214.851,63.04L214.851,69.115L215.286,69.115L215.286,65.522C215.594,65.372 216.104,65.23 216.621,65.23C217.071,65.23 217.349,65.32 217.536,65.485C217.724,65.657 217.821,65.98 217.821,66.52L217.821,69.115L218.264,69.115Z" style="fill:white;fill-rule:nonzero;"/>
            <path d="M219.629,67.045C219.629,68.477 220.131,69.197 221.534,69.197C222.111,69.197 222.651,69.092 222.951,69.017L222.981,68.657C222.689,68.702 222.194,68.8 221.586,68.8C220.409,68.8 220.079,68.177 220.079,67.03L223.146,67.03L223.146,66.512C223.146,65.432 222.749,64.825 221.549,64.825C220.229,64.825 219.629,65.575 219.629,67.045ZM221.504,65.185C222.411,65.185 222.719,65.612 222.719,66.542L222.719,66.692L220.094,66.692C220.154,65.695 220.536,65.185 221.504,65.185Z" style="fill:white;fill-rule:nonzero;"/>
            <path d="M226.986,67.96C226.986,67.675 226.919,67.435 226.769,67.262C226.611,67.082 226.289,66.955 225.674,66.812C225.104,66.685 224.841,66.58 224.714,66.43C224.616,66.317 224.586,66.16 224.586,66.002C224.586,65.47 224.841,65.17 225.726,65.17C226.169,65.17 226.521,65.215 226.844,65.267L226.844,64.907C226.589,64.855 226.184,64.795 225.719,64.795C224.601,64.795 224.159,65.252 224.159,66.025C224.159,66.265 224.211,66.512 224.346,66.67C224.556,66.932 224.909,67.045 225.501,67.187C226.011,67.307 226.296,67.405 226.431,67.555C226.521,67.675 226.559,67.832 226.559,67.99C226.559,68.522 226.319,68.792 225.374,68.792C224.916,68.792 224.451,68.725 224.144,68.665L224.144,69.032C224.444,69.107 224.954,69.167 225.374,69.167C226.649,69.167 226.986,68.702 226.986,67.96Z" style="fill:white;fill-rule:nonzero;"/>
            <path d="M228.696,69.115L228.696,64.907L228.261,64.907L228.261,69.115L228.696,69.115ZM228.764,63.475C228.764,63.377 228.749,63.302 228.696,63.257C228.659,63.22 228.591,63.205 228.501,63.205C228.404,63.205 228.329,63.227 228.306,63.257C228.246,63.287 228.216,63.37 228.216,63.482C228.216,63.58 228.239,63.655 228.276,63.692C228.314,63.737 228.381,63.752 228.486,63.752C228.569,63.752 228.651,63.737 228.696,63.7C228.749,63.662 228.764,63.572 228.764,63.475Z" style="fill:white;fill-rule:nonzero;"/>
            <path d="M233.939,66.917C233.939,66.047 233.751,65.56 233.444,65.237C233.181,64.975 232.739,64.795 232.101,64.795C231.434,64.795 230.969,64.99 230.669,65.275C230.286,65.635 230.069,66.295 230.069,67.112C230.069,67.922 230.286,68.417 230.526,68.695C230.804,69.01 231.246,69.205 231.944,69.205C232.686,69.205 233.114,69.002 233.406,68.702C233.729,68.365 233.939,67.742 233.939,66.917ZM231.989,68.83C231.381,68.83 231.059,68.642 230.856,68.41C230.646,68.17 230.504,67.69 230.504,67.06C230.504,66.295 230.736,65.762 230.991,65.53C231.186,65.35 231.531,65.185 232.049,65.185C232.574,65.185 232.896,65.32 233.106,65.537C233.331,65.77 233.496,66.13 233.496,66.992C233.496,67.742 233.309,68.207 233.046,68.477C232.829,68.695 232.454,68.83 231.989,68.83Z" style="fill:white;fill-rule:nonzero;"/>
            <path d="M238.724,69.115L238.724,66.362C238.724,65.792 238.604,65.41 238.371,65.192C238.146,64.967 237.824,64.847 237.276,64.847C236.744,64.847 236.204,64.997 236.001,65.11C235.979,65.125 235.806,65.32 235.784,65.35L235.746,65.35L235.626,64.907L235.311,64.907L235.311,69.115L235.746,69.115L235.746,65.515C236.076,65.38 236.549,65.237 237.089,65.237C237.479,65.237 237.809,65.312 237.996,65.492C238.184,65.672 238.289,65.98 238.289,66.512L238.289,69.115L238.724,69.115Z" style="fill:white;fill-rule:nonzero;"/>
            <path d="M211.056,76.217L207.914,76.217L207.914,73.937L210.366,73.937L210.464,73.547L207.914,73.547L207.914,71.387L210.809,71.387L210.914,70.99L207.479,70.99L207.479,76.615L210.929,76.615L211.056,76.217Z" style="fill:white;fill-rule:nonzero;"/>
            <path d="M213.696,74.687L214.881,76.615L215.384,76.615L214.049,74.492L215.429,72.407L214.941,72.407L213.711,74.29L213.366,74.29L212.234,72.407L211.739,72.407L213.021,74.492L211.649,76.615L212.144,76.615L213.359,74.687L213.696,74.687Z" style="fill:white;fill-rule:nonzero;"/>
            <path d="M218.804,72.407L217.229,72.407L217.229,71.417L216.794,71.53L216.794,72.407L215.984,72.407L215.924,72.775L216.794,72.775L216.794,75.662C216.794,76.39 217.101,76.66 217.851,76.66C218.174,76.66 218.526,76.607 218.751,76.562L218.789,76.195C218.624,76.217 218.309,76.27 217.964,76.27C217.491,76.27 217.229,76.15 217.229,75.58L217.229,72.775L218.721,72.775L218.804,72.407Z" style="fill:white;fill-rule:nonzero;"/>
            <path d="M219.929,72.407L219.929,76.615L220.364,76.615L220.364,73.075C220.619,72.91 221.099,72.737 221.609,72.745C221.864,72.745 222.081,72.775 222.209,72.797L222.209,72.377C222.096,72.362 221.939,72.347 221.729,72.347C221.204,72.347 220.821,72.49 220.619,72.61C220.604,72.625 220.424,72.842 220.401,72.872L220.356,72.872L220.251,72.407L219.929,72.407Z" style="fill:white;fill-rule:nonzero;"/>
            <path d="M226.596,74.417C226.596,73.547 226.409,73.06 226.101,72.737C225.839,72.475 225.396,72.295 224.759,72.295C224.091,72.295 223.626,72.49 223.326,72.775C222.944,73.135 222.726,73.795 222.726,74.612C222.726,75.422 222.944,75.917 223.184,76.195C223.461,76.51 223.904,76.705 224.601,76.705C225.344,76.705 225.771,76.502 226.064,76.202C226.386,75.865 226.596,75.242 226.596,74.417ZM224.646,76.33C224.039,76.33 223.716,76.142 223.514,75.91C223.304,75.67 223.161,75.19 223.161,74.56C223.161,73.795 223.394,73.262 223.649,73.03C223.844,72.85 224.189,72.685 224.706,72.685C225.231,72.685 225.554,72.82 225.764,73.037C225.989,73.27 226.154,73.63 226.154,74.492C226.154,75.242 225.966,75.707 225.704,75.977C225.486,76.195 225.111,76.33 224.646,76.33Z" style="fill:white;fill-rule:nonzero;"/>
            <path d="M228.396,76.54C228.734,76.615 229.124,76.682 229.626,76.682C230.264,76.682 230.684,76.517 230.961,76.247C231.314,75.895 231.546,75.265 231.546,74.372C231.546,73.42 231.306,72.902 231.014,72.655C230.744,72.415 230.391,72.317 229.814,72.317C229.304,72.317 228.816,72.437 228.689,72.52C228.644,72.542 228.486,72.7 228.426,72.782L228.396,72.782L228.291,72.407L227.961,72.407L227.961,78.662L228.396,78.662L228.396,76.54ZM231.096,74.41C231.096,75.22 230.901,75.745 230.646,75.985C230.414,76.217 230.076,76.307 229.551,76.307C229.094,76.307 228.689,76.24 228.396,76.195L228.396,72.947C228.771,72.775 229.221,72.7 229.656,72.7C230.136,72.7 230.466,72.782 230.676,72.955C230.916,73.172 231.096,73.615 231.096,74.41Z" style="fill:white;fill-rule:nonzero;"/>
            <path d="M236.316,72.407L235.844,72.407L234.359,76.232L234.164,76.232L232.761,72.407L232.289,72.407L233.864,76.615L234.209,76.615L233.384,78.67L233.841,78.67L236.316,72.407Z" style="fill:white;fill-rule:nonzero;"/>
        </g>
    </g>
    <g id="Text">
        <g>
            <g>
                <path d="M89.475,35.38L89.475,34.666L92.571,34.666L92.571,25.449L89.475,26.009L89.475,25.295L93.369,24.608L93.369,34.666L96.171,34.666L96.171,35.38L89.475,35.38Z" style="fill:white;fill-rule:nonzero;"/>
                <path d="M112.116,35.38L104.902,35.38L104.902,34.54C105.028,32.999 105.868,32.004 108.334,30.8C109.903,30.016 110.589,29.61 110.954,29.133C111.262,28.699 111.346,28.139 111.346,27.592C111.346,26.149 110.814,25.491 108.531,25.491C107.284,25.491 105.94,25.799 105.323,25.939L105.323,25.21C106.149,24.986 107.438,24.733 108.698,24.733C111.373,24.733 112.214,25.602 112.214,27.493C112.214,28.446 112.004,29.104 111.682,29.51C111.136,30.224 110.057,30.771 108.684,31.443C106.121,32.69 105.715,33.572 105.686,34.623L112.326,34.623L112.116,35.38Z" style="fill:white;fill-rule:nonzero;"/>
                <path d="M126.914,29.427L125.779,29.959L125.779,30.015L126.969,30.435C127.446,30.828 127.823,31.724 127.823,32.634C127.823,34.651 126.675,35.52 123.831,35.52C122.655,35.52 121.618,35.366 121.001,35.226L121.001,34.512C121.646,34.624 122.78,34.792 123.831,34.792C126.436,34.792 126.983,33.938 126.983,32.635C126.983,30.772 125.736,30.422 124.153,30.422L122.15,30.422L122.15,29.693L123.971,29.693C125.344,29.693 126.786,29.343 126.786,27.522C126.786,26.177 126.282,25.477 124.153,25.477C123.032,25.477 121.954,25.701 121.225,25.855L121.225,25.154C121.982,24.958 123.144,24.734 124.293,24.734C126.814,24.734 127.613,25.617 127.613,27.41C127.614,28.39 127.18,29.174 126.914,29.427Z" style="fill:white;fill-rule:nonzero;"/>
            </g>
            <g>
                <path d="M164.898,35.38L164.127,35.38L164.127,32.397L158.733,32.397L158.733,31.584L163.371,24.874L164.897,24.874L164.897,31.696L167.251,31.696L167.04,32.397L164.896,32.397L164.898,35.38ZM164.128,31.696L164.128,25.561L163.749,25.561L159.645,31.514L159.645,31.696L164.128,31.696Z" style="fill:white;fill-rule:nonzero;"/>
                <path d="M178.083,35.52C177.118,35.52 176.096,35.38 175.366,35.268L175.366,34.525C176.038,34.623 177.075,34.763 178.126,34.763C180.55,34.763 181.391,34.076 181.391,32.34C181.391,30.491 180.803,30.015 178.645,30.015C177.651,30.015 176.306,30.225 175.69,30.309L175.69,24.874L181.91,24.874L181.91,25.588L176.42,25.588L176.42,29.538C177.008,29.44 177.819,29.286 178.899,29.286C181.337,29.286 182.233,29.931 182.233,32.227C182.23,34.441 181.208,35.52 178.083,35.52Z" style="fill:white;fill-rule:nonzero;"/>
                <path d="M191.846,30.253L191.915,30.253L192.362,29.791C192.966,29.567 194.057,29.259 195.333,29.259C197.812,29.259 198.639,30.295 198.639,32.242C198.639,34.273 197.587,35.52 194.885,35.52C191.944,35.52 191.032,33.657 191.032,30.561C191.032,28.614 191.579,27.213 192.405,26.331C193.372,25.322 194.913,24.692 197.616,24.664L197.895,25.407C195.262,25.421 193.832,25.967 192.993,26.864C192.335,27.563 191.901,28.754 191.846,30.253ZM195.066,29.987C193.82,29.987 192.671,30.295 191.845,30.617C191.872,33.517 192.783,34.791 194.925,34.791C196.929,34.791 197.825,34.007 197.825,32.312C197.826,30.688 197.167,29.987 195.066,29.987Z" style="fill:white;fill-rule:nonzero;"/>
            </g>
            <g>
                <path d="M227.708,25.813L227.708,25.617L221.393,25.617L221.617,24.874L228.606,24.874L228.606,25.799L223.591,35.38L222.681,35.38L227.708,25.813Z" style="fill:white;fill-rule:nonzero;"/>
                <path d="M238.347,30.505L239.298,29.986L239.298,29.916L238.458,29.482C238.094,29.118 237.743,28.599 237.743,27.633C237.743,25.938 238.807,24.719 241.272,24.719C243.724,24.719 244.634,25.811 244.634,27.38C244.634,28.375 244.213,28.977 243.821,29.397L242.954,29.916L242.954,29.986L244.017,30.379C244.579,30.827 244.9,31.542 244.9,32.494C244.9,34.231 243.821,35.52 241.062,35.52C238.458,35.52 237.377,34.483 237.377,32.705C237.38,31.808 237.744,31.065 238.347,30.505ZM238.207,32.606C238.207,34.007 239.02,34.805 241.148,34.805C243.319,34.805 244.076,33.783 244.076,32.578C244.076,30.659 242.857,30.505 239.733,30.168C238.962,30.673 238.207,31.36 238.207,32.606ZM238.57,27.563C238.57,29.286 239.664,29.524 242.408,29.776C243.291,29.23 243.795,28.515 243.795,27.479C243.795,26.134 243.039,25.434 241.191,25.434C239.257,25.435 238.57,26.387 238.57,27.563Z" style="fill:white;fill-rule:nonzero;"/>
                <path d="M260.063,30.015L259.994,30.015L259.558,30.477C258.984,30.715 257.906,30.996 256.701,30.996C254.194,30.996 253.311,29.987 253.311,28.054C253.311,25.841 254.699,24.734 257.05,24.734C259.796,24.734 260.874,26.261 260.874,29.595C260.874,31.598 260.329,33.069 259.501,33.937C258.577,34.946 256.995,35.548 254.276,35.604L254.009,34.833C256.601,34.819 258.113,34.301 258.926,33.418C259.559,32.705 260.021,31.528 260.063,30.015ZM256.884,30.267C258.145,30.267 259.28,29.973 260.064,29.679C260.037,26.709 259.182,25.463 256.998,25.463C255.037,25.463 254.125,26.401 254.125,27.999C254.125,29.567 254.824,30.267 256.884,30.267Z" style="fill:white;fill-rule:nonzero;"/>
            </g>
        </g>
        <g>
            <path d="M92.045,52.843C91.758,53.088 91.232,53.2 90.483,53.2C89.832,53.2 89.306,53.116 88.956,53.032L88.956,52.668C89.369,52.738 89.831,52.822 90.49,52.822C91.211,52.822 91.596,52.71 91.744,52.57C91.87,52.443 91.982,52.213 91.982,51.861C91.982,51.575 91.926,51.351 91.821,51.232C91.429,50.804 89.552,50.544 89.153,50.034C88.992,49.838 88.943,49.467 88.943,49.18C88.943,48.795 89.055,48.416 89.293,48.186C89.517,47.969 89.965,47.793 90.827,47.793C91.401,47.793 91.877,47.842 92.235,47.904L92.235,48.26C91.794,48.211 91.422,48.162 90.771,48.162C90.12,48.162 89.734,48.274 89.58,48.457C89.468,48.576 89.356,48.819 89.356,49.144C89.356,49.411 89.405,49.633 89.51,49.767C89.818,50.16 91.828,50.509 92.185,50.964C92.36,51.174 92.409,51.538 92.409,51.84C92.41,52.262 92.263,52.654 92.045,52.843Z" style="fill:white;fill-rule:nonzero;"/>
            <path d="M94.011,55.035L93.605,55.035L93.605,49.193L93.913,49.193L94.011,49.544L94.039,49.544C94.095,49.467 94.242,49.32 94.284,49.299C94.403,49.223 94.859,49.11 95.335,49.11C95.874,49.11 96.204,49.203 96.456,49.426C96.729,49.656 96.953,50.141 96.953,51.03C96.953,51.864 96.736,52.453 96.407,52.78C96.148,53.034 95.756,53.186 95.16,53.186C94.691,53.186 94.327,53.123 94.012,53.053L94.011,55.035ZM96.141,49.705C95.945,49.544 95.637,49.467 95.188,49.467C94.782,49.467 94.361,49.537 94.011,49.698L94.011,52.73C94.284,52.773 94.662,52.834 95.09,52.834C95.58,52.834 95.896,52.75 96.112,52.533C96.35,52.307 96.532,51.817 96.532,51.061C96.533,50.322 96.365,49.908 96.141,49.705Z" style="fill:white;fill-rule:nonzero;"/>
            <path d="M99.829,49.117C100.95,49.117 101.321,49.683 101.321,50.693L101.321,51.174L98.456,51.174C98.456,52.246 98.765,52.827 99.864,52.827C100.431,52.827 100.893,52.735 101.166,52.692L101.138,53.03C100.858,53.098 100.354,53.198 99.814,53.198C98.504,53.198 98.035,52.524 98.035,51.186C98.036,49.816 98.596,49.117 99.829,49.117ZM98.47,50.861L100.921,50.861L100.921,50.72C100.921,49.851 100.634,49.451 99.787,49.451C98.883,49.453 98.526,49.93 98.47,50.861Z" style="fill:white;fill-rule:nonzero;"/>
            <path d="M103.188,49.768C102.901,50.036 102.754,50.533 102.754,51.206C102.754,51.851 102.887,52.285 103.16,52.537C103.391,52.754 103.734,52.838 104.161,52.838C104.659,52.838 105.057,52.761 105.331,52.719L105.331,53.034C105.058,53.11 104.651,53.209 104.098,53.209C103.545,53.209 103.124,53.083 102.851,52.824C102.487,52.487 102.326,51.94 102.326,51.255C102.326,50.472 102.515,49.868 102.887,49.526C103.188,49.231 103.629,49.09 104.218,49.09C104.687,49.09 105.072,49.153 105.332,49.202L105.332,49.552C105.087,49.518 104.723,49.461 104.26,49.461C103.784,49.46 103.412,49.551 103.188,49.768Z" style="fill:white;fill-rule:nonzero;"/>
            <path d="M106.877,48.066C106.835,48.101 106.758,48.115 106.681,48.115C106.583,48.115 106.52,48.101 106.485,48.058C106.45,48.023 106.429,47.954 106.429,47.863C106.429,47.758 106.457,47.681 106.513,47.652C106.534,47.625 106.604,47.603 106.695,47.603C106.779,47.603 106.842,47.618 106.877,47.652C106.926,47.695 106.94,47.765 106.94,47.855C106.94,47.947 106.926,48.031 106.877,48.066ZM106.471,53.123L106.471,49.193L106.877,49.193L106.877,53.123L106.471,53.123Z" style="fill:white;fill-rule:nonzero;"/>
            <path d="M110.861,53.123L110.763,52.695L110.728,52.695C110.672,52.773 110.574,52.906 110.539,52.933C110.42,53.017 109.999,53.193 109.32,53.193C108.774,53.193 108.48,53.06 108.319,52.878C108.179,52.725 108.095,52.479 108.095,52.115C108.095,51.674 108.249,51.407 108.403,51.308C108.704,51.083 109.503,50.937 110.756,50.826C110.756,50.146 110.672,49.866 110.539,49.705C110.413,49.559 110.154,49.488 109.712,49.488C109.236,49.488 108.627,49.599 108.36,49.648L108.36,49.32C108.654,49.243 109.235,49.124 109.796,49.124C110.336,49.124 110.679,49.215 110.868,49.432C111.043,49.621 111.155,49.916 111.155,50.686L111.155,53.124L110.861,53.123ZM110.756,51.141C109.846,51.199 108.83,51.344 108.669,51.52C108.564,51.612 108.494,51.787 108.494,52.082C108.494,52.334 108.557,52.517 108.655,52.628C108.774,52.754 109.026,52.853 109.453,52.853C110.049,52.853 110.546,52.685 110.756,52.58L110.756,51.141Z" style="fill:white;fill-rule:nonzero;"/>
            <path d="M113.016,47.45L113.016,52.191C113.016,52.695 113.226,52.814 113.556,52.814C113.787,52.814 113.976,52.787 114.116,52.765L114.116,53.086C113.948,53.121 113.703,53.163 113.437,53.163C112.87,53.163 112.61,52.892 112.61,52.231L112.61,47.45L113.016,47.45Z" style="fill:white;fill-rule:nonzero;"/>
            <path d="M116.972,49.537L115.578,49.537L115.578,52.156C115.578,52.689 115.824,52.801 116.265,52.801C116.587,52.801 116.881,52.752 117.036,52.731L117,53.074C116.79,53.116 116.461,53.165 116.16,53.165C115.46,53.165 115.173,52.913 115.173,52.232L115.173,49.537L114.36,49.537L114.416,49.193L115.173,49.193L115.173,48.375L115.579,48.27L115.579,49.194L117.05,49.194L116.972,49.537Z" style="fill:white;fill-rule:nonzero;"/>
            <path d="M118.959,55.042L118.532,55.042L119.303,53.123L118.981,53.123L117.51,49.193L117.951,49.193L119.261,52.765L119.443,52.765L120.83,49.193L121.271,49.193L118.959,55.042Z" style="fill:white;fill-rule:nonzero;"/>
            <path d="M123.845,53.123L123.845,52.766L125.393,52.766L125.393,48.159L123.845,48.438L123.845,48.08L125.792,47.736L125.792,52.765L127.192,52.765L127.192,53.121L123.845,53.123Z" style="fill:white;fill-rule:nonzero;"/>
        </g>
        <g>
            <path d="M140.058,13.438L139.4,11.645L136.837,11.645L136.129,13.438L135.702,13.438L137.803,8.185L138.553,8.185L140.514,13.438L140.058,13.438ZM138.272,8.57L138.048,8.57L136.969,11.28L139.273,11.28L138.272,8.57Z" style="fill:white;fill-rule:nonzero;"/>
            <path d="M144.397,13.438L144.293,13.018L144.25,13.018C144.236,13.046 144.068,13.263 144.056,13.27C143.859,13.368 143.398,13.487 142.907,13.487C142.341,13.487 142.046,13.368 141.829,13.144C141.626,12.927 141.507,12.598 141.507,12.058L141.507,9.509L141.913,9.509L141.913,11.905C141.913,12.437 142.011,12.71 142.172,12.879C142.34,13.054 142.633,13.124 143.062,13.124C143.517,13.124 143.973,13.005 144.288,12.865L144.288,9.509L144.694,9.509L144.694,13.438L144.397,13.438Z" style="fill:white;fill-rule:nonzero;"/>
            <path d="M147.259,11.638L146.124,13.438L145.661,13.438L146.943,11.456L145.745,9.509L146.208,9.509L147.266,11.267L147.587,11.267L148.736,9.509L149.191,9.509L147.903,11.456L149.149,13.438L148.68,13.438L147.573,11.638L147.259,11.638Z" style="fill:white;fill-rule:nonzero;"/>
            <path d="M150.458,13.417C150.423,13.459 150.331,13.473 150.247,13.473C150.143,13.473 150.071,13.452 150.03,13.41C149.987,13.368 149.973,13.298 149.973,13.193C149.973,13.088 150.016,13.004 150.057,12.969C150.1,12.948 150.162,12.927 150.26,12.927C150.344,12.927 150.428,12.941 150.463,12.976C150.512,13.011 150.533,13.095 150.533,13.193C150.535,13.284 150.514,13.368 150.458,13.417Z" style="fill:white;fill-rule:nonzero;"/>
            <path d="M156.97,13.438L153.95,8.577L153.823,8.577L153.823,13.438L153.438,13.438L153.438,8.185L154.167,8.185L157.157,13.004L157.292,13.004L157.292,8.185L157.677,8.185L157.677,13.438L156.97,13.438Z" style="fill:white;fill-rule:nonzero;"/>
            <path d="M162.156,13.053C161.883,13.333 161.484,13.522 160.791,13.522C160.14,13.522 159.727,13.34 159.467,13.046C159.242,12.787 159.039,12.324 159.039,11.568C159.039,10.805 159.242,10.189 159.601,9.852C159.881,9.586 160.316,9.404 160.939,9.404C161.536,9.404 161.947,9.572 162.193,9.817C162.48,10.118 162.655,10.573 162.655,11.386C162.653,12.156 162.457,12.738 162.156,13.053ZM161.82,12.843C162.064,12.591 162.24,12.156 162.24,11.456C162.24,10.65 162.086,10.314 161.877,10.097C161.681,9.894 161.379,9.768 160.89,9.768C160.407,9.768 160.084,9.922 159.902,10.09C159.665,10.307 159.447,10.804 159.447,11.519C159.447,12.107 159.581,12.556 159.777,12.78C159.965,12.997 160.267,13.172 160.835,13.172C161.267,13.172 161.617,13.046 161.82,12.843Z" style="fill:white;fill-rule:nonzero;"/>
            <path d="M166.664,7.73L167.078,7.73L167.078,13.438L166.763,13.438L166.664,13.067L166.643,13.067C166.574,13.144 166.441,13.298 166.399,13.326C166.28,13.403 165.921,13.522 165.382,13.522C164.829,13.522 164.473,13.41 164.227,13.207C163.955,12.976 163.73,12.485 163.73,11.589C163.73,10.797 163.925,10.174 164.27,9.852C164.548,9.579 164.949,9.439 165.544,9.439C166.014,9.439 166.335,9.502 166.663,9.586L166.663,7.73L166.664,7.73ZM164.548,12.913C164.732,13.074 165.081,13.165 165.493,13.165C165.887,13.165 166.313,13.095 166.663,12.927L166.663,9.894C166.397,9.859 166.034,9.789 165.6,9.789C165.11,9.789 164.787,9.887 164.563,10.097C164.326,10.321 164.151,10.805 164.151,11.561C164.15,12.332 164.332,12.724 164.548,12.913Z" style="fill:white;fill-rule:nonzero;"/>
            <path d="M170.149,9.432C171.269,9.432 171.64,9.999 171.64,11.008L171.64,11.491L168.776,11.491C168.776,12.563 169.086,13.144 170.184,13.144C170.751,13.144 171.212,13.053 171.486,13.011L171.459,13.347C171.18,13.417 170.676,13.515 170.136,13.515C168.826,13.515 168.358,12.843 168.358,11.505C168.356,10.132 168.916,9.432 170.149,9.432ZM168.791,11.176L171.242,11.176L171.242,11.036C171.242,10.167 170.955,9.768 170.107,9.768C169.203,9.768 168.847,10.244 168.791,11.176Z" style="fill:white;fill-rule:nonzero;"/>
        </g>
        <g>
            <path d="M207.625,13.438L206.967,11.645L204.404,11.645L203.696,13.438L203.269,13.438L205.371,8.185L206.121,8.185L208.082,13.438L207.625,13.438ZM205.839,8.57L205.614,8.57L204.536,11.28L206.841,11.28L205.839,8.57Z" style="fill:white;fill-rule:nonzero;"/>
            <path d="M211.964,13.438L211.86,13.018L211.817,13.018C211.803,13.046 211.634,13.263 211.623,13.27C211.426,13.368 210.965,13.487 210.475,13.487C209.909,13.487 209.614,13.368 209.397,13.144C209.194,12.927 209.075,12.598 209.075,12.058L209.075,9.509L209.481,9.509L209.481,11.905C209.481,12.437 209.579,12.71 209.739,12.879C209.909,13.054 210.202,13.124 210.63,13.124C211.085,13.124 211.54,13.005 211.856,12.865L211.856,9.509L212.262,9.509L212.262,13.438L211.964,13.438Z" style="fill:white;fill-rule:nonzero;"/>
            <path d="M214.826,11.638L213.691,13.438L213.229,13.438L214.511,11.456L213.313,9.509L213.775,9.509L214.834,11.267L215.155,11.267L216.304,9.509L216.759,9.509L215.47,11.456L216.716,13.438L216.247,13.438L215.141,11.638L214.826,11.638Z" style="fill:white;fill-rule:nonzero;"/>
            <path d="M218.025,13.417C217.99,13.459 217.898,13.473 217.814,13.473C217.71,13.473 217.639,13.452 217.597,13.41C217.555,13.368 217.54,13.298 217.54,13.193C217.54,13.088 217.583,13.004 217.624,12.969C217.667,12.948 217.728,12.927 217.827,12.927C217.911,12.927 217.995,12.941 218.03,12.976C218.079,13.011 218.099,13.095 218.099,13.193C218.102,13.284 218.082,13.368 218.025,13.417Z" style="fill:white;fill-rule:nonzero;"/>
            <path d="M224.537,13.438L221.517,8.577L221.391,8.577L221.391,13.438L221.005,13.438L221.005,8.185L221.734,8.185L224.725,13.004L224.859,13.004L224.859,8.185L225.244,8.185L225.244,13.438L224.537,13.438Z" style="fill:white;fill-rule:nonzero;"/>
            <path d="M229.723,13.053C229.451,13.333 229.05,13.522 228.358,13.522C227.707,13.522 227.295,13.34 227.035,13.046C226.81,12.787 226.607,12.324 226.607,11.568C226.607,10.805 226.81,10.189 227.168,9.852C227.448,9.586 227.883,9.404 228.506,9.404C229.102,9.404 229.515,9.572 229.76,9.817C230.047,10.118 230.223,10.573 230.223,11.386C230.221,12.156 230.024,12.738 229.723,13.053ZM229.387,12.843C229.632,12.591 229.807,12.156 229.807,11.456C229.807,10.65 229.653,10.314 229.444,10.097C229.248,9.894 228.946,9.768 228.457,9.768C227.975,9.768 227.651,9.922 227.469,10.09C227.232,10.307 227.015,10.804 227.015,11.519C227.015,12.107 227.148,12.556 227.344,12.78C227.532,12.997 227.834,13.172 228.402,13.172C228.833,13.172 229.184,13.046 229.387,12.843Z" style="fill:white;fill-rule:nonzero;"/>
            <path d="M234.23,7.73L234.644,7.73L234.644,13.438L234.33,13.438L234.23,13.067L234.209,13.067C234.141,13.144 234.008,13.298 233.965,13.326C233.846,13.403 233.487,13.522 232.948,13.522C232.395,13.522 232.039,13.41 231.793,13.207C231.521,12.976 231.297,12.485 231.297,11.589C231.297,10.797 231.492,10.174 231.836,9.852C232.115,9.579 232.516,9.439 233.11,9.439C233.58,9.439 233.901,9.502 234.229,9.586L234.23,7.73ZM232.117,12.913C232.299,13.074 232.648,13.165 233.061,13.165C233.453,13.165 233.88,13.095 234.23,12.927L234.23,9.894C233.964,9.859 233.601,9.789 233.166,9.789C232.676,9.789 232.353,9.887 232.131,10.097C231.894,10.321 231.717,10.805 231.717,11.561C231.716,12.332 231.898,12.724 232.117,12.913Z" style="fill:white;fill-rule:nonzero;"/>
            <path d="M237.716,9.432C238.837,9.432 239.208,9.999 239.208,11.008L239.208,11.491L236.344,11.491C236.344,12.563 236.653,13.144 237.751,13.144C238.317,13.144 238.78,13.053 239.054,13.011L239.026,13.347C238.748,13.417 238.244,13.515 237.703,13.515C236.393,13.515 235.926,12.843 235.926,11.505C235.923,10.132 236.483,9.432 237.716,9.432ZM236.357,11.176L238.808,11.176L238.808,11.036C238.808,10.167 238.521,9.768 237.673,9.768C236.771,9.768 236.414,10.244 236.357,11.176Z" style="fill:white;fill-rule:nonzero;"/>
        </g>
        <g>
            <path d="M72.489,13.438L71.831,11.645L69.268,11.645L68.56,13.438L68.133,13.438L70.234,8.185L70.984,8.185L72.945,13.438L72.489,13.438ZM70.703,8.57L70.479,8.57L69.4,11.28L71.704,11.28L70.703,8.57Z" style="fill:white;fill-rule:nonzero;"/>
            <path d="M76.828,13.438L76.723,13.018L76.681,13.018C76.667,13.046 76.499,13.263 76.485,13.27C76.289,13.368 75.827,13.487 75.336,13.487C74.769,13.487 74.475,13.368 74.258,13.144C74.055,12.927 73.936,12.598 73.936,12.058L73.936,9.509L74.342,9.509L74.342,11.905C74.342,12.437 74.44,12.71 74.601,12.879C74.769,13.054 75.063,13.124 75.491,13.124C75.946,13.124 76.402,13.005 76.717,12.865L76.717,9.509L77.123,9.509L77.123,13.438L76.828,13.438Z" style="fill:white;fill-rule:nonzero;"/>
            <path d="M79.69,11.638L78.555,13.438L78.093,13.438L79.375,11.456L78.177,9.509L78.639,9.509L79.696,11.267L80.018,11.267L81.167,9.509L81.622,9.509L80.333,11.456L81.58,13.438L81.111,13.438L80.005,11.638L79.69,11.638Z" style="fill:white;fill-rule:nonzero;"/>
            <path d="M82.889,13.417C82.854,13.459 82.763,13.473 82.679,13.473C82.574,13.473 82.504,13.452 82.462,13.41C82.42,13.368 82.406,13.298 82.406,13.193C82.406,13.088 82.448,13.004 82.49,12.969C82.532,12.948 82.595,12.927 82.693,12.927C82.777,12.927 82.861,12.941 82.896,12.976C82.945,13.011 82.966,13.095 82.966,13.193C82.966,13.284 82.945,13.368 82.889,13.417Z" style="fill:white;fill-rule:nonzero;"/>
            <path d="M89.4,13.438L86.381,8.577L86.255,8.577L86.255,13.438L85.87,13.438L85.87,8.185L86.598,8.185L89.589,13.004L89.722,13.004L89.722,8.185L90.107,8.185L90.107,13.438L89.4,13.438Z" style="fill:white;fill-rule:nonzero;"/>
            <path d="M94.587,13.053C94.314,13.333 93.915,13.522 93.221,13.522C92.57,13.522 92.156,13.34 91.897,13.046C91.673,12.787 91.47,12.324 91.47,11.568C91.47,10.805 91.673,10.189 92.03,9.852C92.31,9.586 92.744,9.404 93.368,9.404C93.963,9.404 94.376,9.572 94.622,9.817C94.909,10.118 95.084,10.573 95.084,11.386C95.084,12.156 94.888,12.738 94.587,13.053ZM94.25,12.843C94.495,12.591 94.67,12.156 94.67,11.456C94.67,10.65 94.516,10.314 94.306,10.097C94.11,9.894 93.809,9.768 93.319,9.768C92.836,9.768 92.513,9.922 92.331,10.09C92.093,10.307 91.876,10.804 91.876,11.519C91.876,12.107 92.009,12.556 92.205,12.78C92.394,12.997 92.695,13.172 93.263,13.172C93.697,13.172 94.047,13.046 94.25,12.843Z" style="fill:white;fill-rule:nonzero;"/>
            <path d="M99.095,7.73L99.509,7.73L99.509,13.438L99.194,13.438L99.096,13.067L99.075,13.067C99.005,13.144 98.872,13.298 98.83,13.326C98.711,13.403 98.354,13.522 97.815,13.522C97.261,13.522 96.904,13.41 96.659,13.207C96.386,12.976 96.161,12.485 96.161,11.589C96.161,10.797 96.357,10.174 96.701,9.852C96.981,9.579 97.38,9.439 97.976,9.439C98.445,9.439 98.767,9.502 99.096,9.586L99.095,7.73ZM96.98,12.913C97.162,13.074 97.512,13.165 97.925,13.165C98.317,13.165 98.744,13.095 99.094,12.927L99.094,9.894C98.828,9.859 98.464,9.789 98.03,9.789C97.54,9.789 97.217,9.887 96.993,10.097C96.755,10.321 96.58,10.805 96.58,11.561C96.581,12.332 96.763,12.724 96.98,12.913Z" style="fill:white;fill-rule:nonzero;"/>
            <path d="M102.58,9.432C103.701,9.432 104.072,9.999 104.072,11.008L104.072,11.491L101.207,11.491C101.207,12.563 101.516,13.144 102.615,13.144C103.182,13.144 103.644,13.053 103.917,13.011L103.889,13.347C103.609,13.417 103.105,13.515 102.565,13.515C101.255,13.515 100.786,12.843 100.786,11.505C100.787,10.132 101.347,9.432 102.58,9.432ZM101.221,11.176L103.672,11.176L103.672,11.036C103.672,10.167 103.385,9.768 102.538,9.768C101.634,9.768 101.277,10.244 101.221,11.176Z" style="fill:white;fill-rule:nonzero;"/>
        </g>
        <g>
            <path d="M39.33,49.72L36.786,49.72L32.153,33.11L31.745,33.11L26.44,49.72L23.92,49.72L19.671,31.719L21.135,31.719L25.047,48.329L25.551,48.329L30.855,31.719L33.159,31.719L37.815,48.329L38.367,48.329L42.735,31.719L44.223,31.719L39.33,49.72Z" style="fill:white;fill-rule:nonzero;"/>
            <rect x="48.208" y="31.718" width="1.416" height="18.002" style="fill:white;"/>
            <path d="M56.512,48.447L66.185,48.447L65.777,49.719L55.12,49.719L55.12,31.718L56.512,31.718L56.512,48.447Z" style="fill:white;fill-rule:nonzero;"/>
        </g>
        <g transform="matrix(1,0,0,1,68.9973,4.60261)">
            <path d="M45.718,83.9L39.852,83.9L39.852,79.644L44.43,79.644L44.612,78.916L39.852,78.916L39.852,74.884L45.256,74.884L45.452,74.142L39.04,74.142L39.04,84.642L45.48,84.642L45.718,83.9Z" style="fill:white;fill-rule:nonzero;"/>
            <path d="M54.174,76.788L53.292,76.788L50.534,83.886L50.198,83.886L47.538,76.788L46.656,76.788L49.638,84.642L51.038,84.642L54.174,76.788Z" style="fill:white;fill-rule:nonzero;"/>
            <path d="M62.812,80.54C62.812,78.916 62.462,78.006 61.888,77.404C61.398,76.914 60.572,76.578 59.382,76.578C58.136,76.578 57.268,76.942 56.708,77.474C55.994,78.146 55.588,79.378 55.588,80.904C55.588,82.416 55.994,83.34 56.442,83.858C56.96,84.446 57.786,84.81 59.088,84.81C60.474,84.81 61.272,84.432 61.818,83.872C62.42,83.242 62.812,82.08 62.812,80.54ZM59.172,84.11C58.038,84.11 57.436,83.76 57.058,83.326C56.666,82.878 56.4,81.982 56.4,80.806C56.4,79.378 56.834,78.384 57.31,77.95C57.674,77.614 58.318,77.306 59.284,77.306C60.264,77.306 60.866,77.558 61.258,77.964C61.678,78.398 61.986,79.07 61.986,80.68C61.986,82.08 61.636,82.948 61.146,83.452C60.74,83.858 60.04,84.11 59.172,84.11Z" style="fill:white;fill-rule:nonzero;"/>
            <path d="M68.818,77.32C69.742,77.32 70.47,77.432 70.96,77.502L70.96,76.802C70.442,76.704 69.672,76.578 68.734,76.578C67.558,76.578 66.676,76.858 66.074,77.446C65.332,78.132 64.954,79.336 64.954,80.904C64.954,82.276 65.276,83.368 66.004,84.04C66.55,84.558 67.39,84.81 68.496,84.81C69.602,84.81 70.414,84.614 70.96,84.46L70.96,83.83C70.414,83.914 69.616,84.068 68.622,84.068C67.768,84.068 67.082,83.9 66.62,83.466C66.074,82.962 65.808,82.094 65.808,80.806C65.808,79.462 66.102,78.468 66.676,77.936C67.124,77.502 67.866,77.32 68.818,77.32Z" style="fill:white;fill-rule:nonzero;"/>
            <path d="M78.842,84.642L78.842,79.77C78.842,78.23 78.618,77.642 78.268,77.264C77.89,76.83 77.204,76.648 76.126,76.648C75.006,76.648 73.844,76.886 73.256,77.04L73.256,77.698C73.788,77.6 75.006,77.376 75.958,77.376C76.84,77.376 77.358,77.516 77.61,77.81C77.876,78.132 78.044,78.692 78.044,80.05C75.538,80.274 73.942,80.568 73.34,81.016C73.032,81.212 72.724,81.744 72.724,82.626C72.724,83.354 72.892,83.844 73.172,84.152C73.494,84.516 74.082,84.782 75.174,84.782C76.532,84.782 77.372,84.432 77.61,84.264C77.68,84.208 77.876,83.942 77.988,83.788L78.058,83.788L78.254,84.642L78.842,84.642ZM78.044,83.55C77.624,83.76 76.63,84.096 75.44,84.096C74.586,84.096 74.082,83.9 73.844,83.648C73.648,83.424 73.522,83.06 73.522,82.556C73.522,81.968 73.662,81.618 73.872,81.436C74.194,81.086 76.224,80.792 78.044,80.68L78.044,83.55Z" style="fill:white;fill-rule:nonzero;"/>
            <path d="M85.982,76.788L83.042,76.788L83.042,74.94L82.23,75.15L82.23,76.788L80.718,76.788L80.606,77.474L82.23,77.474L82.23,82.864C82.23,84.222 82.804,84.726 84.204,84.726C84.806,84.726 85.464,84.628 85.884,84.544L85.954,83.858C85.646,83.9 85.058,83.998 84.414,83.998C83.532,83.998 83.042,83.774 83.042,82.71L83.042,77.474L85.828,77.474L85.982,76.788Z" style="fill:white;fill-rule:nonzero;"/>
            <path d="M88.894,84.642L88.894,76.788L88.082,76.788L88.082,84.642L88.894,84.642ZM89.02,74.114C89.02,73.932 88.992,73.792 88.894,73.708C88.824,73.638 88.698,73.61 88.53,73.61C88.348,73.61 88.208,73.652 88.166,73.708C88.054,73.764 87.998,73.918 87.998,74.128C87.998,74.31 88.04,74.45 88.11,74.52C88.18,74.604 88.306,74.632 88.502,74.632C88.656,74.632 88.81,74.604 88.894,74.534C88.992,74.464 89.02,74.296 89.02,74.114Z" style="fill:white;fill-rule:nonzero;"/>
            <path d="M98.68,80.54C98.68,78.916 98.33,78.006 97.756,77.404C97.266,76.914 96.44,76.578 95.25,76.578C94.004,76.578 93.136,76.942 92.576,77.474C91.862,78.146 91.456,79.378 91.456,80.904C91.456,82.416 91.862,83.34 92.31,83.858C92.828,84.446 93.654,84.81 94.956,84.81C96.342,84.81 97.14,84.432 97.686,83.872C98.288,83.242 98.68,82.08 98.68,80.54ZM95.04,84.11C93.906,84.11 93.304,83.76 92.926,83.326C92.534,82.878 92.268,81.982 92.268,80.806C92.268,79.378 92.702,78.384 93.178,77.95C93.542,77.614 94.186,77.306 95.152,77.306C96.132,77.306 96.734,77.558 97.126,77.964C97.546,78.398 97.854,79.07 97.854,80.68C97.854,82.08 97.504,82.948 97.014,83.452C96.608,83.858 95.908,84.11 95.04,84.11Z" style="fill:white;fill-rule:nonzero;"/>
            <path d="M107.612,84.642L107.612,79.504C107.612,78.44 107.388,77.726 106.954,77.32C106.534,76.9 105.932,76.676 104.91,76.676C103.916,76.676 102.908,76.956 102.53,77.166C102.488,77.194 102.166,77.558 102.124,77.614L102.054,77.614L101.83,76.788L101.242,76.788L101.242,84.642L102.054,84.642L102.054,77.922C102.67,77.67 103.552,77.404 104.56,77.404C105.288,77.404 105.904,77.544 106.254,77.88C106.604,78.216 106.8,78.79 106.8,79.784L106.8,84.642L107.612,84.642Z" style="fill:white;fill-rule:nonzero;"/>
        </g>
    </g>
</svg>
