<?xml version="1.0" standalone="no"?>
<!DOCTYPE svg PUBLIC "-//W3C//DTD SVG 1.1//EN" "http://www.w3.org/Graphics/SVG/1.1/DTD/svg11.dtd">
<svg width="100%" height="100%" viewBox="0 0 284 100" version="1.1" xmlns="http://www.w3.org/2000/svg" xmlns:xlink="http://www.w3.org/1999/xlink" xml:space="preserve" style="fill-rule:evenodd;clip-rule:evenodd;stroke-linejoin:round;stroke-miterlimit:1.41421;">
    <g id="tint">
        <path d="M120.274,16.297L110.354,6.377L54.152,6.376L64.072,16.296L64.081,16.296L78.464,30.679L84.47,27.672L73.094,16.296L120.274,16.297Z" style="fill:rgb(78,144,201);fill-rule:nonzero;"/>
        <path d="M187.843,16.297L177.923,6.377L121.721,6.376L131.642,16.296L131.652,16.296L145.904,30.549L151.912,27.542L140.666,16.296L187.843,16.297Z" style="fill:rgb(78,144,201);fill-rule:nonzero;"/>
        <path d="M254.416,16.298L244.492,6.376L188.285,6.376L198.207,16.298L198.219,16.298L210.573,28.653L216.58,25.646L207.232,16.298L254.416,16.298Z" style="fill:rgb(78,144,201);fill-rule:nonzero;"/>
        <path d="M95.075,46.064L105.487,35.652L99.48,32.646L86.062,46.064L86.037,46.064L76.117,55.984L132.319,55.982L142.239,46.063L95.075,46.064Z" style="fill:rgb(78,144,201);fill-rule:nonzero;"/>
        <rect x="61.527" y="25.511" width="170.057" height="11.339" style="fill:rgb(78,144,201);"/>
    </g>
    <g id="primary">
        <rect x="61.527" y="25.511" width="164.989" height="11.339" style="fill:rgb(2,94,178);"/>
        <path d="M2.837,42.52L42.521,82.204L82.205,42.521L42.52,2.836L2.837,42.52L2.837,42.52Z" style="fill:rgb(2,94,178);"/>
        <path d="M2.837,42.52L42.521,82.204L82.205,42.521L42.52,2.836L2.837,42.52L2.837,42.52Z" style="fill:rgb(2,94,178);"/>
        <path d="M133.204,19.842L61.527,19.842L84.205,42.519L155.88,42.519L133.204,19.842Z" style="fill:rgb(2,94,178);fill-rule:nonzero;"/>
        <path d="M233.447,42.519L229.903,46.063L277.083,46.063L254.355,68.789L213.088,68.789L207.829,74.048L249.102,74.048L226.423,96.726L35.376,96.726L58.053,74.048L126.34,74.048L131.6,68.789L131.599,68.789L154.326,46.063L154.341,46.063L157.885,42.519L157.875,42.519L135.198,19.842L199.762,19.842L222.438,42.519L166.898,42.519L163.354,46.063L210.534,46.063L187.806,68.789L146.467,68.789L141.208,74.048L192.961,74.048L198.221,68.789L198.148,68.789L220.875,46.063L220.89,46.063L224.434,42.519L201.757,19.842L257.953,19.842L280.63,42.519L233.447,42.519Z" style="fill:rgb(2,94,178);"/>
    </g>
    <g id="Text">
        <g>
            <path d="M30.726,33.157C29.478,33.013 28.23,32.797 25.95,32.797C23.358,32.797 21.918,33.349 20.934,34.117C19.83,35.005 18.726,37.382 18.726,40.79C18.726,43.814 19.326,46.07 20.455,47.198C21.391,48.135 22.927,48.638 25.447,48.638C27.511,48.638 29.455,48.277 30.727,48.037L30.727,49.235C29.263,49.621 27.247,49.957 25.183,49.957C22.111,49.957 20.575,49.333 19.327,48.156C18.223,47.076 17.263,44.868 17.263,41.004C17.263,36.396 18.823,34.091 19.927,33.203C21.103,32.195 22.807,31.475 25.927,31.475C28.087,31.475 29.479,31.715 30.727,31.931L30.726,33.157Z" style="fill:white;fill-rule:nonzero;"/>
            <path d="M47.478,49.719L47.478,41.246L36.389,41.246L36.389,49.719L34.973,49.719L34.973,31.717L36.389,31.717L36.389,39.949L47.478,39.949L47.478,31.717L48.87,31.717L48.87,49.718L47.478,49.719Z" style="fill:white;fill-rule:nonzero;"/>
            <path d="M67.421,49.719L65.165,43.574L56.38,43.574L53.956,49.719L52.492,49.719L59.692,31.718L62.26,31.718L68.981,49.719L67.421,49.719L67.421,49.719ZM61.3,33.037L60.532,33.037L56.836,42.326L64.732,42.326L61.3,33.037Z" style="fill:white;fill-rule:nonzero;"/>
        </g>
        <g>
            <g>
                <path d="M89.475,35.38L89.475,34.666L92.571,34.666L92.571,25.449L89.475,26.009L89.475,25.295L93.369,24.608L93.369,34.666L96.171,34.666L96.171,35.38L89.475,35.38L89.475,35.38Z" style="fill:white;fill-rule:nonzero;"/>
                <path d="M112.116,35.38L104.902,35.38L104.902,34.54C105.028,32.999 105.868,32.004 108.334,30.8C109.903,30.016 110.589,29.61 110.954,29.133C111.262,28.699 111.346,28.139 111.346,27.592C111.346,26.149 110.814,25.491 108.531,25.491C107.284,25.491 105.94,25.799 105.323,25.939L105.323,25.21C106.149,24.986 107.438,24.733 108.698,24.733C111.373,24.733 112.214,25.602 112.214,27.493C112.214,28.446 112.004,29.104 111.682,29.51C111.136,30.224 110.057,30.771 108.684,31.443C106.121,32.69 105.715,33.572 105.686,34.623L112.326,34.623L112.116,35.38L112.116,35.38Z" style="fill:white;fill-rule:nonzero;"/>
                <path d="M126.914,29.427L125.779,29.959L125.779,30.015L126.969,30.435C127.446,30.828 127.823,31.724 127.823,32.634C127.823,34.651 126.675,35.52 123.831,35.52C122.655,35.52 121.618,35.366 121.001,35.226L121.001,34.512C121.646,34.624 122.78,34.792 123.831,34.792C126.436,34.792 126.983,33.938 126.983,32.635C126.983,30.772 125.736,30.422 124.153,30.422L122.15,30.422L122.15,29.693L123.971,29.693C125.344,29.693 126.786,29.343 126.786,27.522C126.786,26.177 126.282,25.477 124.153,25.477C123.032,25.477 121.954,25.701 121.225,25.855L121.225,25.154C121.982,24.958 123.144,24.734 124.293,24.734C126.814,24.734 127.613,25.617 127.613,27.41C127.614,28.39 127.18,29.174 126.914,29.427L126.914,29.427Z" style="fill:white;fill-rule:nonzero;"/>
            </g>
            <g>
                <path d="M164.898,35.38L164.127,35.38L164.127,32.397L158.733,32.397L158.733,31.584L163.371,24.874L164.897,24.874L164.897,31.696L167.251,31.696L167.04,32.397L164.896,32.397L164.898,35.38ZM164.128,31.696L164.128,25.561L163.749,25.561L159.645,31.514L159.645,31.696L164.128,31.696Z" style="fill:white;fill-rule:nonzero;"/>
                <path d="M178.083,35.52C177.118,35.52 176.096,35.38 175.366,35.268L175.366,34.525C176.038,34.623 177.075,34.763 178.126,34.763C180.55,34.763 181.391,34.076 181.391,32.34C181.391,30.491 180.803,30.015 178.645,30.015C177.651,30.015 176.306,30.225 175.69,30.309L175.69,24.874L181.91,24.874L181.91,25.588L176.42,25.588L176.42,29.538C177.008,29.44 177.819,29.286 178.899,29.286C181.337,29.286 182.233,29.931 182.233,32.227C182.23,34.441 181.208,35.52 178.083,35.52L178.083,35.52Z" style="fill:white;fill-rule:nonzero;"/>
                <path d="M191.846,30.253L191.915,30.253L192.362,29.791C192.966,29.567 194.057,29.259 195.333,29.259C197.812,29.259 198.639,30.295 198.639,32.242C198.639,34.273 197.587,35.52 194.885,35.52C191.944,35.52 191.032,33.657 191.032,30.561C191.032,28.614 191.579,27.213 192.405,26.331C193.372,25.322 194.913,24.692 197.616,24.664L197.895,25.407C195.262,25.421 193.832,25.967 192.993,26.864C192.335,27.563 191.901,28.754 191.846,30.253L191.846,30.253ZM195.066,29.987C193.82,29.987 192.671,30.295 191.845,30.617C191.872,33.517 192.783,34.791 194.925,34.791C196.929,34.791 197.825,34.007 197.825,32.312C197.826,30.688 197.167,29.987 195.066,29.987L195.066,29.987Z" style="fill:white;fill-rule:nonzero;"/>
            </g>
            <g>
                <path d="M227.708,25.813L227.708,25.617L221.393,25.617L221.617,24.874L228.606,24.874L228.606,25.799L223.591,35.38L222.681,35.38L227.708,25.813L227.708,25.813Z" style="fill:white;fill-rule:nonzero;"/>
                <path d="M238.347,30.505L239.298,29.986L239.298,29.916L238.458,29.482C238.094,29.118 237.743,28.599 237.743,27.633C237.743,25.938 238.807,24.719 241.272,24.719C243.724,24.719 244.634,25.811 244.634,27.38C244.634,28.375 244.213,28.977 243.821,29.397L242.954,29.916L242.954,29.986L244.017,30.379C244.579,30.827 244.9,31.542 244.9,32.494C244.9,34.231 243.821,35.52 241.062,35.52C238.458,35.52 237.377,34.483 237.377,32.705C237.38,31.808 237.744,31.065 238.347,30.505ZM238.207,32.606C238.207,34.007 239.02,34.805 241.148,34.805C243.319,34.805 244.076,33.783 244.076,32.578C244.076,30.659 242.857,30.505 239.733,30.168C238.962,30.673 238.207,31.36 238.207,32.606ZM238.57,27.563C238.57,29.286 239.664,29.524 242.408,29.776C243.291,29.23 243.795,28.515 243.795,27.479C243.795,26.134 243.039,25.434 241.191,25.434C239.257,25.435 238.57,26.387 238.57,27.563L238.57,27.563Z" style="fill:white;fill-rule:nonzero;"/>
                <path d="M260.063,30.015L259.994,30.015L259.558,30.477C258.984,30.715 257.906,30.996 256.701,30.996C254.194,30.996 253.311,29.987 253.311,28.054C253.311,25.841 254.699,24.734 257.05,24.734C259.796,24.734 260.874,26.261 260.874,29.595C260.874,31.598 260.329,33.069 259.501,33.937C258.577,34.946 256.995,35.548 254.276,35.604L254.009,34.833C256.601,34.819 258.113,34.301 258.926,33.418C259.559,32.705 260.021,31.528 260.063,30.015ZM256.884,30.267C258.145,30.267 259.28,29.973 260.064,29.679C260.037,26.709 259.182,25.463 256.998,25.463C255.037,25.463 254.125,26.401 254.125,27.999C254.125,29.567 254.824,30.267 256.884,30.267L256.884,30.267Z" style="fill:white;fill-rule:nonzero;"/>
            </g>
        </g>
        <g>
            <path d="M92.045,52.843C91.758,53.088 91.232,53.2 90.483,53.2C89.832,53.2 89.306,53.116 88.956,53.032L88.956,52.668C89.369,52.738 89.831,52.822 90.49,52.822C91.211,52.822 91.596,52.71 91.744,52.57C91.87,52.443 91.982,52.213 91.982,51.861C91.982,51.575 91.926,51.351 91.821,51.232C91.429,50.804 89.552,50.544 89.153,50.034C88.992,49.838 88.943,49.467 88.943,49.18C88.943,48.795 89.055,48.416 89.293,48.186C89.517,47.969 89.965,47.793 90.827,47.793C91.401,47.793 91.877,47.842 92.235,47.904L92.235,48.26C91.794,48.211 91.422,48.162 90.771,48.162C90.12,48.162 89.734,48.274 89.58,48.457C89.468,48.576 89.356,48.819 89.356,49.144C89.356,49.411 89.405,49.633 89.51,49.767C89.818,50.16 91.828,50.509 92.185,50.964C92.36,51.174 92.409,51.538 92.409,51.84C92.41,52.262 92.263,52.654 92.045,52.843Z" style="fill:white;fill-rule:nonzero;"/>
            <path d="M94.011,55.035L93.605,55.035L93.605,49.193L93.913,49.193L94.011,49.544L94.039,49.544C94.095,49.467 94.242,49.32 94.284,49.299C94.403,49.223 94.859,49.11 95.335,49.11C95.874,49.11 96.204,49.203 96.456,49.426C96.729,49.656 96.953,50.141 96.953,51.03C96.953,51.864 96.736,52.453 96.407,52.78C96.148,53.034 95.756,53.186 95.16,53.186C94.691,53.186 94.327,53.123 94.012,53.053L94.011,55.035ZM96.141,49.705C95.945,49.544 95.637,49.467 95.188,49.467C94.782,49.467 94.361,49.537 94.011,49.698L94.011,52.73C94.284,52.773 94.662,52.834 95.09,52.834C95.58,52.834 95.896,52.75 96.112,52.533C96.35,52.307 96.532,51.817 96.532,51.061C96.533,50.322 96.365,49.908 96.141,49.705L96.141,49.705Z" style="fill:white;fill-rule:nonzero;"/>
            <path d="M99.829,49.117C100.95,49.117 101.321,49.683 101.321,50.693L101.321,51.174L98.456,51.174C98.456,52.246 98.765,52.827 99.864,52.827C100.431,52.827 100.893,52.735 101.166,52.692L101.138,53.03C100.858,53.098 100.354,53.198 99.814,53.198C98.504,53.198 98.035,52.524 98.035,51.186C98.036,49.816 98.596,49.117 99.829,49.117L99.829,49.117ZM98.47,50.861L100.921,50.861L100.921,50.72C100.921,49.851 100.634,49.451 99.787,49.451C98.883,49.453 98.526,49.93 98.47,50.861Z" style="fill:white;fill-rule:nonzero;"/>
            <path d="M103.188,49.768C102.901,50.036 102.754,50.533 102.754,51.206C102.754,51.851 102.887,52.285 103.16,52.537C103.391,52.754 103.734,52.838 104.161,52.838C104.659,52.838 105.057,52.761 105.331,52.719L105.331,53.034C105.058,53.11 104.651,53.209 104.098,53.209C103.545,53.209 103.124,53.083 102.851,52.824C102.487,52.487 102.326,51.94 102.326,51.255C102.326,50.472 102.515,49.868 102.887,49.526C103.188,49.231 103.629,49.09 104.218,49.09C104.687,49.09 105.072,49.153 105.332,49.202L105.332,49.552C105.087,49.518 104.723,49.461 104.26,49.461C103.784,49.46 103.412,49.551 103.188,49.768L103.188,49.768Z" style="fill:white;fill-rule:nonzero;"/>
            <path d="M106.877,48.066C106.835,48.101 106.758,48.115 106.681,48.115C106.583,48.115 106.52,48.101 106.485,48.058C106.45,48.023 106.429,47.954 106.429,47.863C106.429,47.758 106.457,47.681 106.513,47.652C106.534,47.625 106.604,47.603 106.695,47.603C106.779,47.603 106.842,47.618 106.877,47.652C106.926,47.695 106.94,47.765 106.94,47.855C106.94,47.947 106.926,48.031 106.877,48.066L106.877,48.066ZM106.471,53.123L106.471,49.193L106.877,49.193L106.877,53.123L106.471,53.123Z" style="fill:white;fill-rule:nonzero;"/>
            <path d="M110.861,53.123L110.763,52.695L110.728,52.695C110.672,52.773 110.574,52.906 110.539,52.933C110.42,53.017 109.999,53.193 109.32,53.193C108.774,53.193 108.48,53.06 108.319,52.878C108.179,52.725 108.095,52.479 108.095,52.115C108.095,51.674 108.249,51.407 108.403,51.308C108.704,51.083 109.503,50.937 110.756,50.826C110.756,50.146 110.672,49.866 110.539,49.705C110.413,49.559 110.154,49.488 109.712,49.488C109.236,49.488 108.627,49.599 108.36,49.648L108.36,49.32C108.654,49.243 109.235,49.124 109.796,49.124C110.336,49.124 110.679,49.215 110.868,49.432C111.043,49.621 111.155,49.916 111.155,50.686L111.155,53.124L110.861,53.123L110.861,53.123ZM110.756,51.141C109.846,51.199 108.83,51.344 108.669,51.52C108.564,51.612 108.494,51.787 108.494,52.082C108.494,52.334 108.557,52.517 108.655,52.628C108.774,52.754 109.026,52.853 109.453,52.853C110.049,52.853 110.546,52.685 110.756,52.58L110.756,51.141L110.756,51.141Z" style="fill:white;fill-rule:nonzero;"/>
            <path d="M113.016,47.45L113.016,52.191C113.016,52.695 113.226,52.814 113.556,52.814C113.787,52.814 113.976,52.787 114.116,52.765L114.116,53.086C113.948,53.121 113.703,53.163 113.437,53.163C112.87,53.163 112.61,52.892 112.61,52.231L112.61,47.45L113.016,47.45Z" style="fill:white;fill-rule:nonzero;"/>
            <path d="M116.972,49.537L115.578,49.537L115.578,52.156C115.578,52.689 115.824,52.801 116.265,52.801C116.587,52.801 116.881,52.752 117.036,52.731L117,53.074C116.79,53.116 116.461,53.165 116.16,53.165C115.46,53.165 115.173,52.913 115.173,52.232L115.173,49.537L114.36,49.537L114.416,49.193L115.173,49.193L115.173,48.375L115.579,48.27L115.579,49.194L117.05,49.194L116.972,49.537L116.972,49.537Z" style="fill:white;fill-rule:nonzero;"/>
            <path d="M118.959,55.042L118.532,55.042L119.303,53.123L118.981,53.123L117.51,49.193L117.951,49.193L119.261,52.765L119.443,52.765L120.83,49.193L121.271,49.193L118.959,55.042Z" style="fill:white;fill-rule:nonzero;"/>
            <path d="M123.845,53.123L123.845,52.766L125.393,52.766L125.393,48.159L123.845,48.438L123.845,48.08L125.792,47.736L125.792,52.765L127.192,52.765L127.192,53.121L123.845,53.123L123.845,53.123Z" style="fill:white;fill-rule:nonzero;"/>
        </g>
        <g>
            <path d="M140.058,13.438L139.4,11.645L136.837,11.645L136.129,13.438L135.702,13.438L137.803,8.185L138.553,8.185L140.514,13.438L140.058,13.438L140.058,13.438ZM138.272,8.57L138.048,8.57L136.969,11.28L139.273,11.28L138.272,8.57Z" style="fill:white;fill-rule:nonzero;"/>
            <path d="M144.397,13.438L144.293,13.018L144.25,13.018C144.236,13.046 144.068,13.263 144.056,13.27C143.859,13.368 143.398,13.487 142.907,13.487C142.341,13.487 142.046,13.368 141.829,13.144C141.626,12.927 141.507,12.598 141.507,12.058L141.507,9.509L141.913,9.509L141.913,11.905C141.913,12.437 142.011,12.71 142.172,12.879C142.34,13.054 142.633,13.124 143.062,13.124C143.517,13.124 143.973,13.005 144.288,12.865L144.288,9.509L144.694,9.509L144.694,13.438L144.397,13.438L144.397,13.438Z" style="fill:white;fill-rule:nonzero;"/>
            <path d="M147.259,11.638L146.124,13.438L145.661,13.438L146.943,11.456L145.745,9.509L146.208,9.509L147.266,11.267L147.587,11.267L148.736,9.509L149.191,9.509L147.903,11.456L149.149,13.438L148.68,13.438L147.573,11.638L147.259,11.638L147.259,11.638Z" style="fill:white;fill-rule:nonzero;"/>
            <path d="M150.458,13.417C150.423,13.459 150.331,13.473 150.247,13.473C150.143,13.473 150.071,13.452 150.03,13.41C149.987,13.368 149.973,13.298 149.973,13.193C149.973,13.088 150.016,13.004 150.057,12.969C150.1,12.948 150.162,12.927 150.26,12.927C150.344,12.927 150.428,12.941 150.463,12.976C150.512,13.011 150.533,13.095 150.533,13.193C150.535,13.284 150.514,13.368 150.458,13.417L150.458,13.417Z" style="fill:white;fill-rule:nonzero;"/>
            <path d="M156.97,13.438L153.95,8.577L153.823,8.577L153.823,13.438L153.438,13.438L153.438,8.185L154.167,8.185L157.157,13.004L157.292,13.004L157.292,8.185L157.677,8.185L157.677,13.438L156.97,13.438L156.97,13.438Z" style="fill:white;fill-rule:nonzero;"/>
            <path d="M162.156,13.053C161.883,13.333 161.484,13.522 160.791,13.522C160.14,13.522 159.727,13.34 159.467,13.046C159.242,12.787 159.039,12.324 159.039,11.568C159.039,10.805 159.242,10.189 159.601,9.852C159.881,9.586 160.316,9.404 160.939,9.404C161.536,9.404 161.947,9.572 162.193,9.817C162.48,10.118 162.655,10.573 162.655,11.386C162.653,12.156 162.457,12.738 162.156,13.053L162.156,13.053ZM161.82,12.843C162.064,12.591 162.24,12.156 162.24,11.456C162.24,10.65 162.086,10.314 161.877,10.097C161.681,9.894 161.379,9.768 160.89,9.768C160.407,9.768 160.084,9.922 159.902,10.09C159.665,10.307 159.447,10.804 159.447,11.519C159.447,12.107 159.581,12.556 159.777,12.78C159.965,12.997 160.267,13.172 160.835,13.172C161.267,13.172 161.617,13.046 161.82,12.843L161.82,12.843Z" style="fill:white;fill-rule:nonzero;"/>
            <path d="M166.664,7.73L167.078,7.73L167.078,13.438L166.763,13.438L166.664,13.067L166.643,13.067C166.574,13.144 166.441,13.298 166.399,13.326C166.28,13.403 165.921,13.522 165.382,13.522C164.829,13.522 164.473,13.41 164.227,13.207C163.955,12.976 163.73,12.485 163.73,11.589C163.73,10.797 163.925,10.174 164.27,9.852C164.548,9.579 164.949,9.439 165.544,9.439C166.014,9.439 166.335,9.502 166.663,9.586L166.663,7.73L166.664,7.73ZM164.548,12.913C164.732,13.074 165.081,13.165 165.493,13.165C165.887,13.165 166.313,13.095 166.663,12.927L166.663,9.894C166.397,9.859 166.034,9.789 165.6,9.789C165.11,9.789 164.787,9.887 164.563,10.097C164.326,10.321 164.151,10.805 164.151,11.561C164.15,12.332 164.332,12.724 164.548,12.913L164.548,12.913Z" style="fill:white;fill-rule:nonzero;"/>
            <path d="M170.149,9.432C171.269,9.432 171.64,9.999 171.64,11.008L171.64,11.491L168.776,11.491C168.776,12.563 169.086,13.144 170.184,13.144C170.751,13.144 171.212,13.053 171.486,13.011L171.459,13.347C171.18,13.417 170.676,13.515 170.136,13.515C168.826,13.515 168.358,12.843 168.358,11.505C168.356,10.132 168.916,9.432 170.149,9.432L170.149,9.432ZM168.791,11.176L171.242,11.176L171.242,11.036C171.242,10.167 170.955,9.768 170.107,9.768C169.203,9.768 168.847,10.244 168.791,11.176L168.791,11.176Z" style="fill:white;fill-rule:nonzero;"/>
        </g>
        <g>
            <path d="M207.625,13.438L206.967,11.645L204.404,11.645L203.696,13.438L203.269,13.438L205.371,8.185L206.121,8.185L208.082,13.438L207.625,13.438L207.625,13.438ZM205.839,8.57L205.614,8.57L204.536,11.28L206.841,11.28L205.839,8.57Z" style="fill:white;fill-rule:nonzero;"/>
            <path d="M211.964,13.438L211.86,13.018L211.817,13.018C211.803,13.046 211.634,13.263 211.623,13.27C211.426,13.368 210.965,13.487 210.475,13.487C209.909,13.487 209.614,13.368 209.397,13.144C209.194,12.927 209.075,12.598 209.075,12.058L209.075,9.509L209.481,9.509L209.481,11.905C209.481,12.437 209.579,12.71 209.739,12.879C209.909,13.054 210.202,13.124 210.63,13.124C211.085,13.124 211.54,13.005 211.856,12.865L211.856,9.509L212.262,9.509L212.262,13.438L211.964,13.438Z" style="fill:white;fill-rule:nonzero;"/>
            <path d="M214.826,11.638L213.691,13.438L213.229,13.438L214.511,11.456L213.313,9.509L213.775,9.509L214.834,11.267L215.155,11.267L216.304,9.509L216.759,9.509L215.47,11.456L216.716,13.438L216.247,13.438L215.141,11.638L214.826,11.638L214.826,11.638Z" style="fill:white;fill-rule:nonzero;"/>
            <path d="M218.025,13.417C217.99,13.459 217.898,13.473 217.814,13.473C217.71,13.473 217.639,13.452 217.597,13.41C217.555,13.368 217.54,13.298 217.54,13.193C217.54,13.088 217.583,13.004 217.624,12.969C217.667,12.948 217.728,12.927 217.827,12.927C217.911,12.927 217.995,12.941 218.03,12.976C218.079,13.011 218.099,13.095 218.099,13.193C218.102,13.284 218.082,13.368 218.025,13.417L218.025,13.417Z" style="fill:white;fill-rule:nonzero;"/>
            <path d="M224.537,13.438L221.517,8.577L221.391,8.577L221.391,13.438L221.005,13.438L221.005,8.185L221.734,8.185L224.725,13.004L224.859,13.004L224.859,8.185L225.244,8.185L225.244,13.438L224.537,13.438L224.537,13.438Z" style="fill:white;fill-rule:nonzero;"/>
            <path d="M229.723,13.053C229.451,13.333 229.05,13.522 228.358,13.522C227.707,13.522 227.295,13.34 227.035,13.046C226.81,12.787 226.607,12.324 226.607,11.568C226.607,10.805 226.81,10.189 227.168,9.852C227.448,9.586 227.883,9.404 228.506,9.404C229.102,9.404 229.515,9.572 229.76,9.817C230.047,10.118 230.223,10.573 230.223,11.386C230.221,12.156 230.024,12.738 229.723,13.053L229.723,13.053ZM229.387,12.843C229.632,12.591 229.807,12.156 229.807,11.456C229.807,10.65 229.653,10.314 229.444,10.097C229.248,9.894 228.946,9.768 228.457,9.768C227.975,9.768 227.651,9.922 227.469,10.09C227.232,10.307 227.015,10.804 227.015,11.519C227.015,12.107 227.148,12.556 227.344,12.78C227.532,12.997 227.834,13.172 228.402,13.172C228.833,13.172 229.184,13.046 229.387,12.843L229.387,12.843Z" style="fill:white;fill-rule:nonzero;"/>
            <path d="M234.23,7.73L234.644,7.73L234.644,13.438L234.33,13.438L234.23,13.067L234.209,13.067C234.141,13.144 234.008,13.298 233.965,13.326C233.846,13.403 233.487,13.522 232.948,13.522C232.395,13.522 232.039,13.41 231.793,13.207C231.521,12.976 231.297,12.485 231.297,11.589C231.297,10.797 231.492,10.174 231.836,9.852C232.115,9.579 232.516,9.439 233.11,9.439C233.58,9.439 233.901,9.502 234.229,9.586L234.23,7.73ZM232.117,12.913C232.299,13.074 232.648,13.165 233.061,13.165C233.453,13.165 233.88,13.095 234.23,12.927L234.23,9.894C233.964,9.859 233.601,9.789 233.166,9.789C232.676,9.789 232.353,9.887 232.131,10.097C231.894,10.321 231.717,10.805 231.717,11.561C231.716,12.332 231.898,12.724 232.117,12.913L232.117,12.913Z" style="fill:white;fill-rule:nonzero;"/>
            <path d="M237.716,9.432C238.837,9.432 239.208,9.999 239.208,11.008L239.208,11.491L236.344,11.491C236.344,12.563 236.653,13.144 237.751,13.144C238.317,13.144 238.78,13.053 239.054,13.011L239.026,13.347C238.748,13.417 238.244,13.515 237.703,13.515C236.393,13.515 235.926,12.843 235.926,11.505C235.923,10.132 236.483,9.432 237.716,9.432L237.716,9.432ZM236.357,11.176L238.808,11.176L238.808,11.036C238.808,10.167 238.521,9.768 237.673,9.768C236.771,9.768 236.414,10.244 236.357,11.176L236.357,11.176Z" style="fill:white;fill-rule:nonzero;"/>
        </g>
        <g>
            <path d="M72.489,13.438L71.831,11.645L69.268,11.645L68.56,13.438L68.133,13.438L70.234,8.185L70.984,8.185L72.945,13.438L72.489,13.438L72.489,13.438ZM70.703,8.57L70.479,8.57L69.4,11.28L71.704,11.28L70.703,8.57Z" style="fill:white;fill-rule:nonzero;"/>
            <path d="M76.828,13.438L76.723,13.018L76.681,13.018C76.667,13.046 76.499,13.263 76.485,13.27C76.289,13.368 75.827,13.487 75.336,13.487C74.769,13.487 74.475,13.368 74.258,13.144C74.055,12.927 73.936,12.598 73.936,12.058L73.936,9.509L74.342,9.509L74.342,11.905C74.342,12.437 74.44,12.71 74.601,12.879C74.769,13.054 75.063,13.124 75.491,13.124C75.946,13.124 76.402,13.005 76.717,12.865L76.717,9.509L77.123,9.509L77.123,13.438L76.828,13.438Z" style="fill:white;fill-rule:nonzero;"/>
            <path d="M79.69,11.638L78.555,13.438L78.093,13.438L79.375,11.456L78.177,9.509L78.639,9.509L79.696,11.267L80.018,11.267L81.167,9.509L81.622,9.509L80.333,11.456L81.58,13.438L81.111,13.438L80.005,11.638L79.69,11.638L79.69,11.638Z" style="fill:white;fill-rule:nonzero;"/>
            <path d="M82.889,13.417C82.854,13.459 82.763,13.473 82.679,13.473C82.574,13.473 82.504,13.452 82.462,13.41C82.42,13.368 82.406,13.298 82.406,13.193C82.406,13.088 82.448,13.004 82.49,12.969C82.532,12.948 82.595,12.927 82.693,12.927C82.777,12.927 82.861,12.941 82.896,12.976C82.945,13.011 82.966,13.095 82.966,13.193C82.966,13.284 82.945,13.368 82.889,13.417L82.889,13.417Z" style="fill:white;fill-rule:nonzero;"/>
            <path d="M89.4,13.438L86.381,8.577L86.255,8.577L86.255,13.438L85.87,13.438L85.87,8.185L86.598,8.185L89.589,13.004L89.722,13.004L89.722,8.185L90.107,8.185L90.107,13.438L89.4,13.438L89.4,13.438Z" style="fill:white;fill-rule:nonzero;"/>
            <path d="M94.587,13.053C94.314,13.333 93.915,13.522 93.221,13.522C92.57,13.522 92.156,13.34 91.897,13.046C91.673,12.787 91.47,12.324 91.47,11.568C91.47,10.805 91.673,10.189 92.03,9.852C92.31,9.586 92.744,9.404 93.368,9.404C93.963,9.404 94.376,9.572 94.622,9.817C94.909,10.118 95.084,10.573 95.084,11.386C95.084,12.156 94.888,12.738 94.587,13.053L94.587,13.053ZM94.25,12.843C94.495,12.591 94.67,12.156 94.67,11.456C94.67,10.65 94.516,10.314 94.306,10.097C94.11,9.894 93.809,9.768 93.319,9.768C92.836,9.768 92.513,9.922 92.331,10.09C92.093,10.307 91.876,10.804 91.876,11.519C91.876,12.107 92.009,12.556 92.205,12.78C92.394,12.997 92.695,13.172 93.263,13.172C93.697,13.172 94.047,13.046 94.25,12.843L94.25,12.843Z" style="fill:white;fill-rule:nonzero;"/>
            <path d="M99.095,7.73L99.509,7.73L99.509,13.438L99.194,13.438L99.096,13.067L99.075,13.067C99.005,13.144 98.872,13.298 98.83,13.326C98.711,13.403 98.354,13.522 97.815,13.522C97.261,13.522 96.904,13.41 96.659,13.207C96.386,12.976 96.161,12.485 96.161,11.589C96.161,10.797 96.357,10.174 96.701,9.852C96.981,9.579 97.38,9.439 97.976,9.439C98.445,9.439 98.767,9.502 99.096,9.586L99.095,7.73ZM96.98,12.913C97.162,13.074 97.512,13.165 97.925,13.165C98.317,13.165 98.744,13.095 99.094,12.927L99.094,9.894C98.828,9.859 98.464,9.789 98.03,9.789C97.54,9.789 97.217,9.887 96.993,10.097C96.755,10.321 96.58,10.805 96.58,11.561C96.581,12.332 96.763,12.724 96.98,12.913L96.98,12.913Z" style="fill:white;fill-rule:nonzero;"/>
            <path d="M102.58,9.432C103.701,9.432 104.072,9.999 104.072,11.008L104.072,11.491L101.207,11.491C101.207,12.563 101.516,13.144 102.615,13.144C103.182,13.144 103.644,13.053 103.917,13.011L103.889,13.347C103.609,13.417 103.105,13.515 102.565,13.515C101.255,13.515 100.786,12.843 100.786,11.505C100.787,10.132 101.347,9.432 102.58,9.432L102.58,9.432ZM101.221,11.176L103.672,11.176L103.672,11.036C103.672,10.167 103.385,9.768 102.538,9.768C101.634,9.768 101.277,10.244 101.221,11.176L101.221,11.176Z" style="fill:white;fill-rule:nonzero;"/>
        </g>
        <g id="v1" transform="matrix(1,0,0,1,15.2453,-13.181)">
            <path d="M141.67,67.884C141.67,67.561 141.618,67.171 141.43,66.946C141.048,66.459 138.895,66.084 138.565,65.664C138.453,65.521 138.4,65.281 138.4,64.996C138.4,64.651 138.52,64.389 138.64,64.261C138.805,64.066 139.218,63.946 139.915,63.946C140.613,63.946 141.01,63.999 141.483,64.051L141.483,63.669C141.1,63.601 140.59,63.549 139.975,63.549C139.053,63.549 138.573,63.736 138.333,63.969C138.078,64.216 137.958,64.621 137.958,65.034C137.958,65.341 138.01,65.739 138.183,65.949C138.61,66.496 140.62,66.774 141.04,67.231C141.153,67.359 141.213,67.599 141.213,67.906C141.213,68.281 141.093,68.529 140.958,68.664C140.8,68.814 140.388,68.934 139.615,68.934C138.91,68.934 138.415,68.844 137.973,68.769L137.973,69.159C138.348,69.249 138.91,69.339 139.608,69.339C140.41,69.339 140.973,69.219 141.28,68.956C141.513,68.754 141.67,68.334 141.67,67.884Z" style="fill:white;fill-rule:nonzero;"/>
            <path d="M146.358,69.256L146.358,65.049L145.923,65.049L145.923,68.641C145.585,68.791 145.098,68.919 144.61,68.919C144.153,68.919 143.838,68.844 143.658,68.656C143.485,68.476 143.38,68.184 143.38,67.614L143.38,65.049L142.945,65.049L142.945,67.779C142.945,68.356 143.073,68.709 143.29,68.941C143.523,69.181 143.838,69.309 144.445,69.309C144.97,69.309 145.465,69.181 145.675,69.076C145.69,69.069 145.87,68.836 145.885,68.806L145.93,68.806L146.043,69.256L146.358,69.256Z" style="fill:white;fill-rule:nonzero;"/>
            <path d="M147.94,65.049L147.94,69.256L148.375,69.256L148.375,65.716C148.63,65.551 149.11,65.379 149.62,65.386C149.875,65.386 150.093,65.416 150.22,65.439L150.22,65.019C150.108,65.004 149.95,64.989 149.74,64.989C149.215,64.989 148.833,65.131 148.63,65.251C148.615,65.266 148.435,65.484 148.413,65.514L148.368,65.514L148.263,65.049L147.94,65.049L147.94,65.049Z" style="fill:white;fill-rule:nonzero;"/>
            <path d="M151.173,65.049L151.173,69.256L151.608,69.256L151.608,65.716C151.863,65.551 152.343,65.379 152.853,65.386C153.108,65.386 153.325,65.416 153.453,65.439L153.453,65.019C153.34,65.004 153.183,64.989 152.973,64.989C152.448,64.989 152.065,65.131 151.863,65.251C151.848,65.266 151.668,65.484 151.645,65.514L151.6,65.514L151.495,65.049L151.173,65.049L151.173,65.049Z" style="fill:white;fill-rule:nonzero;"/>
            <path d="M157.84,67.059C157.84,66.189 157.653,65.701 157.345,65.379C157.083,65.116 156.64,64.936 156.003,64.936C155.335,64.936 154.87,65.131 154.57,65.416C154.188,65.776 153.97,66.436 153.97,67.254C153.97,68.064 154.188,68.559 154.428,68.836C154.705,69.151 155.148,69.346 155.845,69.346C156.588,69.346 157.015,69.144 157.308,68.844C157.63,68.506 157.84,67.884 157.84,67.059ZM155.89,68.971C155.283,68.971 154.96,68.784 154.758,68.551C154.548,68.311 154.405,67.831 154.405,67.201C154.405,66.436 154.638,65.904 154.893,65.671C155.088,65.491 155.433,65.326 155.95,65.326C156.475,65.326 156.798,65.461 157.008,65.679C157.233,65.911 157.398,66.271 157.398,67.134C157.398,67.884 157.21,68.349 156.948,68.619C156.73,68.836 156.355,68.971 155.89,68.971L155.89,68.971Z" style="fill:white;fill-rule:nonzero;"/>
            <path d="M162.603,65.049L162.528,65.049L162.325,65.184C161.95,65.094 161.53,65.004 160.998,65.004C160.285,65.004 159.835,65.184 159.573,65.439C159.213,65.799 158.995,66.451 158.995,67.329C158.995,68.191 159.205,68.724 159.55,68.994C159.79,69.189 160.15,69.316 160.743,69.316C161.29,69.316 161.748,69.211 161.875,69.129C161.92,69.106 162.07,68.926 162.138,68.844L162.168,68.844L162.168,69.069C162.168,70.014 162.025,70.404 161.815,70.614C161.62,70.786 161.29,70.914 160.675,70.914C160.053,70.914 159.505,70.824 159.213,70.771L159.213,71.154C159.498,71.206 160.03,71.311 160.698,71.311C161.44,71.311 161.845,71.139 162.1,70.906C162.393,70.629 162.603,70.171 162.603,69.031L162.603,65.049L162.603,65.049ZM159.445,67.254C159.445,66.481 159.618,65.979 159.873,65.716C160.105,65.491 160.465,65.379 161.028,65.379C161.47,65.379 161.86,65.439 162.168,65.476L162.168,68.686C161.793,68.859 161.313,68.934 160.878,68.934C160.458,68.934 160.075,68.844 159.858,68.671C159.603,68.469 159.445,68.034 159.445,67.254L159.445,67.254Z" style="fill:white;fill-rule:nonzero;"/>
            <path d="M167.185,69.256L167.185,66.646C167.185,65.821 167.065,65.506 166.878,65.304C166.675,65.071 166.308,64.974 165.73,64.974C165.13,64.974 164.508,65.101 164.193,65.184L164.193,65.536C164.478,65.484 165.13,65.364 165.64,65.364C166.113,65.364 166.39,65.439 166.525,65.596C166.668,65.769 166.758,66.069 166.758,66.796C165.415,66.916 164.56,67.074 164.238,67.314C164.073,67.419 163.908,67.704 163.908,68.176C163.908,68.566 163.998,68.829 164.148,68.994C164.32,69.189 164.635,69.331 165.22,69.331C165.948,69.331 166.398,69.144 166.525,69.054C166.563,69.024 166.668,68.881 166.728,68.799L166.765,68.799L166.87,69.256L167.185,69.256ZM166.758,68.671C166.533,68.784 166,68.964 165.363,68.964C164.905,68.964 164.635,68.859 164.508,68.724C164.403,68.604 164.335,68.409 164.335,68.139C164.335,67.824 164.41,67.636 164.523,67.539C164.695,67.351 165.783,67.194 166.758,67.134L166.758,68.671Z" style="fill:white;fill-rule:nonzero;"/>
            <path d="M171.01,65.049L169.435,65.049L169.435,64.059L169,64.171L169,65.049L168.19,65.049L168.13,65.416L169,65.416L169,68.304C169,69.031 169.308,69.301 170.058,69.301C170.38,69.301 170.733,69.249 170.958,69.204L170.995,68.836C170.83,68.859 170.515,68.911 170.17,68.911C169.698,68.911 169.435,68.791 169.435,68.221L169.435,65.416L170.928,65.416L171.01,65.049L171.01,65.049Z" style="fill:white;fill-rule:nonzero;"/>
            <path d="M171.775,67.186C171.775,68.619 172.278,69.339 173.68,69.339C174.258,69.339 174.798,69.234 175.098,69.159L175.128,68.799C174.835,68.844 174.34,68.941 173.733,68.941C172.555,68.941 172.225,68.319 172.225,67.171L175.293,67.171L175.293,66.654C175.293,65.574 174.895,64.966 173.695,64.966C172.375,64.966 171.775,65.716 171.775,67.186ZM173.65,65.326C174.558,65.326 174.865,65.754 174.865,66.684L174.865,66.834L172.24,66.834C172.3,65.836 172.683,65.326 173.65,65.326L173.65,65.326Z" style="fill:white;fill-rule:nonzero;"/>
            <path d="M148.158,74.461C148.975,74.461 149.403,74.379 149.74,74.139C150.085,73.891 150.325,73.344 150.325,72.684C150.325,72.009 150.145,71.589 149.86,71.371C149.65,71.206 149.29,71.131 148.803,71.131L146.658,71.131L146.658,76.756L147.093,76.756L147.093,74.461L148.158,74.461ZM149.875,72.699C149.875,73.306 149.673,73.689 149.418,73.869C149.215,74.019 148.818,74.064 148.15,74.064L147.093,74.064L147.093,71.514L148.63,71.514C149.043,71.514 149.35,71.559 149.538,71.701C149.74,71.851 149.875,72.174 149.875,72.699Z" style="fill:white;fill-rule:nonzero;"/>
            <path d="M151.533,72.549L151.533,76.756L151.968,76.756L151.968,73.216C152.223,73.051 152.703,72.879 153.213,72.886C153.468,72.886 153.685,72.916 153.813,72.939L153.813,72.519C153.7,72.504 153.543,72.489 153.333,72.489C152.808,72.489 152.425,72.631 152.223,72.751C152.208,72.766 152.028,72.984 152.005,73.014L151.96,73.014L151.855,72.549L151.533,72.549L151.533,72.549Z" style="fill:white;fill-rule:nonzero;"/>
            <path d="M158.2,74.559C158.2,73.689 158.013,73.201 157.705,72.879C157.443,72.616 157,72.436 156.363,72.436C155.695,72.436 155.23,72.631 154.93,72.916C154.548,73.276 154.33,73.936 154.33,74.754C154.33,75.564 154.548,76.059 154.788,76.336C155.065,76.651 155.508,76.846 156.205,76.846C156.948,76.846 157.375,76.644 157.668,76.344C157.99,76.006 158.2,75.384 158.2,74.559ZM156.25,76.471C155.643,76.471 155.32,76.284 155.118,76.051C154.908,75.811 154.765,75.331 154.765,74.701C154.765,73.936 154.998,73.404 155.253,73.171C155.448,72.991 155.793,72.826 156.31,72.826C156.835,72.826 157.158,72.961 157.368,73.179C157.593,73.411 157.758,73.771 157.758,74.634C157.758,75.384 157.57,75.849 157.308,76.119C157.09,76.336 156.715,76.471 156.25,76.471L156.25,76.471Z" style="fill:white;fill-rule:nonzero;"/>
            <path d="M160.93,74.829L162.115,76.756L162.618,76.756L161.283,74.634L162.663,72.549L162.175,72.549L160.945,74.431L160.6,74.431L159.468,72.549L158.973,72.549L160.255,74.634L158.883,76.756L159.378,76.756L160.593,74.829L160.93,74.829Z" style="fill:white;fill-rule:nonzero;"/>
            <path d="M167.193,72.549L166.72,72.549L165.235,76.374L165.04,76.374L163.638,72.549L163.165,72.549L164.74,76.756L165.085,76.756L164.26,78.811L164.718,78.811L167.193,72.549L167.193,72.549Z" style="fill:white;fill-rule:nonzero;"/>
        </g>
        <g id="v2" transform="matrix(1,0,0,1,17.627,-13.181)">
            <path d="M204.921,63.631L204.921,69.256L206.579,69.256C207.696,69.256 208.281,69.061 208.656,68.739C209.099,68.349 209.414,67.509 209.414,66.354C209.414,65.169 209.174,64.449 208.814,64.104C208.476,63.781 207.884,63.631 206.841,63.631L204.921,63.631ZM206.781,64.036C207.479,64.036 208.154,64.096 208.461,64.419C208.814,64.779 208.964,65.491 208.964,66.361C208.964,67.411 208.709,68.146 208.341,68.454C208.034,68.701 207.516,68.851 206.519,68.851L205.364,68.851L205.364,64.036L206.781,64.036Z" style="fill:white;fill-rule:nonzero;"/>
            <path d="M210.666,67.186C210.666,68.619 211.169,69.339 212.571,69.339C213.149,69.339 213.689,69.234 213.989,69.159L214.019,68.799C213.726,68.844 213.231,68.941 212.624,68.941C211.446,68.941 211.116,68.319 211.116,67.171L214.184,67.171L214.184,66.654C214.184,65.574 213.786,64.966 212.586,64.966C211.266,64.966 210.666,65.716 210.666,67.186ZM212.541,65.326C213.449,65.326 213.756,65.754 213.756,66.684L213.756,66.834L211.131,66.834C211.191,65.836 211.574,65.326 212.541,65.326L212.541,65.326Z" style="fill:white;fill-rule:nonzero;"/>
            <path d="M215.466,63.181L215.466,68.304C215.466,69.009 215.744,69.301 216.351,69.301C216.636,69.301 216.899,69.256 217.079,69.219L217.079,68.874C216.929,68.896 216.726,68.926 216.479,68.926C216.126,68.926 215.901,68.799 215.901,68.259L215.901,63.181L215.466,63.181L215.466,63.181Z" style="fill:white;fill-rule:nonzero;"/>
            <path d="M217.694,67.186C217.694,68.619 218.196,69.339 219.599,69.339C220.176,69.339 220.716,69.234 221.016,69.159L221.046,68.799C220.754,68.844 220.259,68.941 219.651,68.941C218.474,68.941 218.144,68.319 218.144,67.171L221.211,67.171L221.211,66.654C221.211,65.574 220.814,64.966 219.614,64.966C218.294,64.966 217.694,65.716 217.694,67.186ZM219.569,65.326C220.476,65.326 220.784,65.754 220.784,66.684L220.784,66.834L218.159,66.834C218.219,65.836 218.601,65.326 219.569,65.326L219.569,65.326Z" style="fill:white;fill-rule:nonzero;"/>
            <path d="M225.906,65.049L225.831,65.049L225.629,65.184C225.254,65.094 224.834,65.004 224.301,65.004C223.589,65.004 223.139,65.184 222.876,65.439C222.516,65.799 222.299,66.451 222.299,67.329C222.299,68.191 222.509,68.724 222.854,68.994C223.094,69.189 223.454,69.316 224.046,69.316C224.594,69.316 225.051,69.211 225.179,69.129C225.224,69.106 225.374,68.926 225.441,68.844L225.471,68.844L225.471,69.069C225.471,70.014 225.329,70.404 225.119,70.614C224.924,70.786 224.594,70.914 223.979,70.914C223.356,70.914 222.809,70.824 222.516,70.771L222.516,71.154C222.801,71.206 223.334,71.311 224.001,71.311C224.744,71.311 225.149,71.139 225.404,70.906C225.696,70.629 225.906,70.171 225.906,69.031L225.906,65.049L225.906,65.049ZM222.749,67.254C222.749,66.481 222.921,65.979 223.176,65.716C223.409,65.491 223.769,65.379 224.331,65.379C224.774,65.379 225.164,65.439 225.471,65.476L225.471,68.686C225.096,68.859 224.616,68.934 224.181,68.934C223.761,68.934 223.379,68.844 223.161,68.671C222.906,68.469 222.749,68.034 222.749,67.254L222.749,67.254Z" style="fill:white;fill-rule:nonzero;"/>
            <path d="M230.489,69.256L230.489,66.646C230.489,65.821 230.369,65.506 230.181,65.304C229.979,65.071 229.611,64.974 229.034,64.974C228.434,64.974 227.811,65.101 227.496,65.184L227.496,65.536C227.781,65.484 228.434,65.364 228.944,65.364C229.416,65.364 229.694,65.439 229.829,65.596C229.971,65.769 230.061,66.069 230.061,66.796C228.719,66.916 227.864,67.074 227.541,67.314C227.376,67.419 227.211,67.704 227.211,68.176C227.211,68.566 227.301,68.829 227.451,68.994C227.624,69.189 227.939,69.331 228.524,69.331C229.251,69.331 229.701,69.144 229.829,69.054C229.866,69.024 229.971,68.881 230.031,68.799L230.069,68.799L230.174,69.256L230.489,69.256ZM230.061,68.671C229.836,68.784 229.304,68.964 228.666,68.964C228.209,68.964 227.939,68.859 227.811,68.724C227.706,68.604 227.639,68.409 227.639,68.139C227.639,67.824 227.714,67.636 227.826,67.539C227.999,67.351 229.086,67.194 230.061,67.134L230.061,68.671Z" style="fill:white;fill-rule:nonzero;"/>
            <path d="M234.314,65.049L232.739,65.049L232.739,64.059L232.304,64.171L232.304,65.049L231.494,65.049L231.434,65.416L232.304,65.416L232.304,68.304C232.304,69.031 232.611,69.301 233.361,69.301C233.684,69.301 234.036,69.249 234.261,69.204L234.299,68.836C234.134,68.859 233.819,68.911 233.474,68.911C233.001,68.911 232.739,68.791 232.739,68.221L232.739,65.416L234.231,65.416L234.314,65.049L234.314,65.049Z" style="fill:white;fill-rule:nonzero;"/>
            <path d="M235.079,67.186C235.079,68.619 235.581,69.339 236.984,69.339C237.561,69.339 238.101,69.234 238.401,69.159L238.431,68.799C238.139,68.844 237.644,68.941 237.036,68.941C235.859,68.941 235.529,68.319 235.529,67.171L238.596,67.171L238.596,66.654C238.596,65.574 238.199,64.966 236.999,64.966C235.679,64.966 235.079,65.716 235.079,67.186ZM236.954,65.326C237.861,65.326 238.169,65.754 238.169,66.684L238.169,66.834L235.544,66.834C235.604,65.836 235.986,65.326 236.954,65.326L236.954,65.326Z" style="fill:white;fill-rule:nonzero;"/>
            <path d="M213.13,74.461C213.948,74.461 214.375,74.379 214.713,74.139C215.058,73.891 215.298,73.344 215.298,72.684C215.298,72.009 215.118,71.589 214.833,71.371C214.623,71.206 214.263,71.131 213.775,71.131L211.63,71.131L211.63,76.756L212.065,76.756L212.065,74.461L213.13,74.461ZM214.848,72.699C214.848,73.306 214.645,73.689 214.39,73.869C214.188,74.019 213.79,74.064 213.123,74.064L212.065,74.064L212.065,71.514L213.603,71.514C214.015,71.514 214.323,71.559 214.51,71.701C214.713,71.851 214.848,72.174 214.848,72.699L214.848,72.699Z" style="fill:white;fill-rule:nonzero;"/>
            <path d="M216.505,72.549L216.505,76.756L216.94,76.756L216.94,73.216C217.195,73.051 217.675,72.879 218.185,72.886C218.44,72.886 218.658,72.916 218.785,72.939L218.785,72.519C218.673,72.504 218.515,72.489 218.305,72.489C217.78,72.489 217.398,72.631 217.195,72.751C217.18,72.766 217,72.984 216.978,73.014L216.933,73.014L216.828,72.549L216.505,72.549L216.505,72.549Z" style="fill:white;fill-rule:nonzero;"/>
            <path d="M223.173,74.559C223.173,73.689 222.985,73.201 222.678,72.879C222.415,72.616 221.973,72.436 221.335,72.436C220.668,72.436 220.203,72.631 219.903,72.916C219.52,73.276 219.303,73.936 219.303,74.754C219.303,75.564 219.52,76.059 219.76,76.336C220.038,76.651 220.48,76.846 221.178,76.846C221.92,76.846 222.348,76.644 222.64,76.344C222.963,76.006 223.173,75.384 223.173,74.559ZM221.223,76.471C220.615,76.471 220.293,76.284 220.09,76.051C219.88,75.811 219.738,75.331 219.738,74.701C219.738,73.936 219.97,73.404 220.225,73.171C220.42,72.991 220.765,72.826 221.283,72.826C221.808,72.826 222.13,72.961 222.34,73.179C222.565,73.411 222.73,73.771 222.73,74.634C222.73,75.384 222.543,75.849 222.28,76.119C222.063,76.336 221.688,76.471 221.223,76.471L221.223,76.471Z" style="fill:white;fill-rule:nonzero;"/>
            <path d="M225.903,74.829L227.088,76.756L227.59,76.756L226.255,74.634L227.635,72.549L227.148,72.549L225.918,74.431L225.573,74.431L224.44,72.549L223.945,72.549L225.228,74.634L223.855,76.756L224.35,76.756L225.565,74.829L225.903,74.829Z" style="fill:white;fill-rule:nonzero;"/>
            <path d="M232.165,72.549L231.693,72.549L230.208,76.374L230.013,76.374L228.61,72.549L228.138,72.549L229.713,76.756L230.058,76.756L229.233,78.811L229.69,78.811L232.165,72.549L232.165,72.549Z" style="fill:white;fill-rule:nonzero;"/>
        </g>
        <g transform="matrix(1,0,0,1,68.9973,4.60261)">
            <path d="M43.289,80.358C44.815,80.358 45.613,80.204 46.243,79.756C46.887,79.294 47.335,78.272 47.335,77.04C47.335,75.78 46.999,74.996 46.467,74.59C46.075,74.282 45.403,74.142 44.493,74.142L40.489,74.142L40.489,84.642L41.301,84.642L41.301,80.358L43.289,80.358ZM46.495,77.068C46.495,78.202 46.117,78.916 45.641,79.252C45.263,79.532 44.521,79.616 43.275,79.616L41.301,79.616L41.301,74.856L44.171,74.856C44.941,74.856 45.515,74.94 45.865,75.206C46.243,75.486 46.495,76.088 46.495,77.068Z" style="fill:white;fill-rule:nonzero;"/>
            <path d="M55.049,84.642L55.049,79.77C55.049,78.23 54.825,77.642 54.475,77.264C54.097,76.83 53.411,76.648 52.333,76.648C51.213,76.648 50.051,76.886 49.463,77.04L49.463,77.698C49.995,77.6 51.213,77.376 52.165,77.376C53.047,77.376 53.565,77.516 53.817,77.81C54.083,78.132 54.251,78.692 54.251,80.05C51.745,80.274 50.149,80.568 49.547,81.016C49.239,81.212 48.931,81.744 48.931,82.626C48.931,83.354 49.099,83.844 49.379,84.152C49.701,84.516 50.289,84.782 51.381,84.782C52.739,84.782 53.579,84.432 53.817,84.264C53.887,84.208 54.083,83.942 54.195,83.788L54.265,83.788L54.461,84.642L55.049,84.642ZM54.251,83.55C53.831,83.76 52.837,84.096 51.647,84.096C50.793,84.096 50.289,83.9 50.051,83.648C49.855,83.424 49.729,83.06 49.729,82.556C49.729,81.968 49.869,81.618 50.079,81.436C50.401,81.086 52.431,80.792 54.251,80.68L54.251,83.55Z" style="fill:white;fill-rule:nonzero;"/>
            <path d="M58.003,76.788L58.003,84.642L58.815,84.642L58.815,78.034C59.291,77.726 60.187,77.404 61.139,77.418C61.615,77.418 62.021,77.474 62.259,77.516L62.259,76.732C62.049,76.704 61.755,76.676 61.363,76.676C60.383,76.676 59.669,76.942 59.291,77.166C59.263,77.194 58.927,77.6 58.885,77.656L58.801,77.656L58.605,76.788L58.003,76.788Z" style="fill:white;fill-rule:nonzero;"/>
            <path d="M69.497,84.642L69.497,79.77C69.497,78.23 69.273,77.642 68.923,77.264C68.545,76.83 67.859,76.648 66.781,76.648C65.661,76.648 64.499,76.886 63.911,77.04L63.911,77.698C64.443,77.6 65.661,77.376 66.613,77.376C67.495,77.376 68.013,77.516 68.265,77.81C68.531,78.132 68.699,78.692 68.699,80.05C66.193,80.274 64.597,80.568 63.995,81.016C63.687,81.212 63.379,81.744 63.379,82.626C63.379,83.354 63.547,83.844 63.827,84.152C64.149,84.516 64.737,84.782 65.829,84.782C67.187,84.782 68.027,84.432 68.265,84.264C68.335,84.208 68.531,83.942 68.643,83.788L68.713,83.788L68.909,84.642L69.497,84.642ZM68.699,83.55C68.279,83.76 67.285,84.096 66.095,84.096C65.241,84.096 64.737,83.9 64.499,83.648C64.303,83.424 64.177,83.06 64.177,82.556C64.177,81.968 64.317,81.618 64.527,81.436C64.849,81.086 66.879,80.792 68.699,80.68L68.699,83.55Z" style="fill:white;fill-rule:nonzero;"/>
            <path d="M77.911,76.942C77.253,76.774 76.609,76.648 75.671,76.648C74.481,76.648 73.683,76.928 73.123,77.474C72.437,78.118 72.045,79.364 72.045,80.946C72.045,82.738 72.493,83.718 73.039,84.18C73.529,84.586 74.243,84.81 75.349,84.81C76.427,84.81 77.141,84.572 77.379,84.418C77.463,84.362 77.729,84.054 77.869,83.9L77.911,83.9L78.107,84.642L78.737,84.642L78.737,73.232L77.911,73.232L77.911,76.942ZM72.885,80.89C72.885,79.378 73.235,78.412 73.711,77.964C74.159,77.544 74.803,77.348 75.783,77.348C76.651,77.348 77.379,77.488 77.911,77.558L77.911,83.62C77.211,83.956 76.357,84.096 75.573,84.096C74.747,84.096 74.047,83.914 73.683,83.592C73.249,83.214 72.885,82.43 72.885,80.89Z" style="fill:white;fill-rule:nonzero;"/>
            <path d="M82.503,84.642L82.503,76.788L81.691,76.788L81.691,84.642L82.503,84.642ZM82.629,74.114C82.629,73.932 82.601,73.792 82.503,73.708C82.433,73.638 82.307,73.61 82.139,73.61C81.957,73.61 81.817,73.652 81.775,73.708C81.663,73.764 81.607,73.918 81.607,74.128C81.607,74.31 81.649,74.45 81.719,74.52C81.789,74.604 81.915,74.632 82.111,74.632C82.265,74.632 82.419,74.604 82.503,74.534C82.601,74.464 82.629,74.296 82.629,74.114Z" style="fill:white;fill-rule:nonzero;"/>
            <path d="M91.785,76.788L91.645,76.788L91.267,77.04C90.567,76.872 89.783,76.704 88.789,76.704C87.459,76.704 86.619,77.04 86.129,77.516C85.457,78.188 85.051,79.406 85.051,81.044C85.051,82.654 85.443,83.648 86.087,84.152C86.535,84.516 87.207,84.754 88.313,84.754C89.335,84.754 90.189,84.558 90.427,84.404C90.511,84.362 90.791,84.026 90.917,83.872L90.973,83.872L90.973,84.292C90.973,86.056 90.707,86.784 90.315,87.176C89.951,87.498 89.335,87.736 88.187,87.736C87.025,87.736 86.003,87.568 85.457,87.47L85.457,88.184C85.989,88.282 86.983,88.478 88.229,88.478C89.615,88.478 90.371,88.156 90.847,87.722C91.393,87.204 91.785,86.35 91.785,84.222L91.785,76.788ZM85.891,80.904C85.891,79.462 86.213,78.524 86.689,78.034C87.123,77.614 87.795,77.404 88.845,77.404C89.671,77.404 90.399,77.516 90.973,77.586L90.973,83.578C90.273,83.9 89.377,84.04 88.565,84.04C87.781,84.04 87.067,83.872 86.661,83.55C86.185,83.172 85.891,82.36 85.891,80.904Z" style="fill:white;fill-rule:nonzero;"/>
            <path d="M106.149,84.642L106.149,79.504C106.149,78.426 105.967,77.712 105.519,77.292C105.099,76.886 104.511,76.676 103.587,76.676C102.565,76.676 101.669,76.984 101.221,77.236L100.787,77.782L100.717,77.782C100.647,77.656 100.549,77.488 100.367,77.32C99.933,76.9 99.289,76.676 98.281,76.676C97.259,76.676 96.391,76.956 96.027,77.152L95.607,77.614L95.537,77.614L95.327,76.788L94.725,76.788L94.725,84.642L95.537,84.642L95.537,77.936C96.125,77.698 96.937,77.404 97.959,77.404C98.603,77.404 99.261,77.53 99.597,77.852C99.919,78.16 100.031,78.58 100.031,79.266L100.031,84.642L100.843,84.642L100.843,78.034C101.403,77.74 102.229,77.404 103.237,77.404C103.895,77.404 104.483,77.558 104.819,77.88C105.155,78.202 105.337,78.748 105.337,79.784L105.337,84.642L106.149,84.642Z" style="fill:white;fill-rule:nonzero;"/>
        </g>
    </g>
</svg>
