<svg xmlns="http://www.w3.org/2000/svg" width="612" height="792">
  <path fill="#00AEEF" fill-opacity=".6471" d="M365.347 507.369l-44.893-44.893L561.04 221.892l44.892 44.892-240.585 240.585z"/>
  <path fill="#0F0" fill-opacity=".502" d="M114.088 158.815l302.61 302.611-44.893 44.892-302.61-302.61 44.893-44.893z"/>
  <path fill="red" fill-opacity=".502" d="M177.165 95.738l302.614 302.61-44.896 44.893-302.61-302.61 44.892-44.893z"/>
  <path fill="#00F" fill-opacity=".502" d="M51.011 221.892l302.61 302.61-44.893 44.893L6.119 266.784l44.892-44.892z"/>
  <path fill="#EC008C" fill-opacity=".549" d="M239.192 381.215L194.3 336.323 434.885 95.738l44.893 44.893-240.586 240.584z"/>
  <path fill="#FFF200" fill-opacity=".8" d="M302.27 444.292L257.377 399.4l240.584-240.585 44.894 44.893L302.27 444.292z"/>
  <g>
    <path fill="#B59718" d="M306.024 350.752l44.893 44.893-44.893 44.893-44.892-44.893 44.892-44.893z"/>
    <path fill="#CE6700" d="M369.102 287.675l44.893 44.893-44.893 44.893-44.892-44.893 44.892-44.893z"/>
    <path fill="#377C21" d="M242.948 413.829l44.892 44.893-44.892 44.892-44.893-44.892 44.893-44.893z"/>
    <path fill="#1E9062" d="M369.102 413.829l44.893 44.893-44.893 44.892-44.892-44.892 44.892-44.893z"/>
    <path fill="#601D62" d="M432.179 350.754l44.895 44.891-44.895 44.891-44.891-44.891 44.891-44.891z"/>
    <path fill="#025EB2" d="M306.024 476.906l44.893 44.892-44.893 44.893-44.892-44.893 44.892-44.892z"/>
    <path fill="#30394C" d="M242.948 287.675l44.892 44.893-44.892 44.893-44.893-44.893 44.893-44.893z"/>
    <path fill="#A3042A" d="M306.024 224.598l44.893 44.893-44.893 44.893-44.892-44.893 44.892-44.893z"/>
    <path fill="#3705AA" d="M179.871 350.752l44.892 44.893-44.892 44.893-44.893-44.893 44.893-44.893z"/>
  </g>
  <g>
    <path fill="#FFF" d="M301.055 403.395l-7.712-20.657h-2.947l-8.263 20.657h1.68l2.782-7.052h10.081l2.589 7.052h1.79zm-4.875-8.484h-9.062l4.242-10.659h.881l3.939 10.659zM319.949 383.013c-1.542-.275-3.525-.523-6.031-.523-3.663 0-5.592.827-6.969 1.983-1.322 1.102-3.002 3.663-3.002 8.923 0 4.544 1.157 7.051 2.396 8.263 1.432 1.35 3.277 2.011 6.747 2.011 2.699 0 5.288-.552 7.051-1.047v-9.833h-7.408l-.331 1.377h6.143v7.436c-1.24.221-2.947.551-5.261.551-2.864 0-4.6-.578-5.646-1.598-1.35-1.321-2.038-3.828-2.038-7.408 0-3.884 1.239-6.583 2.534-7.602 1.102-.909 2.781-1.543 5.784-1.543 2.671 0 4.517.249 6.031.441v-1.431zM326.146 382.737h1.625v20.656h-1.625zM227.758 334.707c0-1.184-.193-2.616-.881-3.443-1.405-1.79-9.31-3.167-10.521-4.709-.413-.523-.606-1.405-.606-2.452 0-1.267.44-2.23.881-2.699.606-.716 2.121-1.157 4.683-1.157s4.021.193 5.756.386v-1.405c-1.405-.248-3.278-.44-5.536-.44-3.388 0-5.15.688-6.032 1.542-.937.909-1.377 2.396-1.377 3.911 0 1.129.193 2.589.826 3.36 1.57 2.011 8.952 3.03 10.494 4.71.414.468.634 1.35.634 2.479 0 1.377-.441 2.286-.936 2.782-.579.551-2.094.991-4.93.991-2.589 0-4.407-.331-6.032-.605v1.432c1.377.331 3.443.661 6.004.661 2.947 0 5.013-.44 6.142-1.405.853-.745 1.431-2.287 1.431-3.939zM245.688 319.09h-16.305l-.385 1.459h7.463v19.197h1.598V320.55h7.298l.331-1.46zM270.477 339.747V319.09h-2.865l-7.546 16.58h-.468l-7.244-16.58h-2.975v20.656h1.515v-19.142h.44l7.327 16.636h2.23l7.602-16.636h.413v19.142h1.571zM350.252 339.734v-9.199h8.979l.331-1.432h-9.31v-8.566h10.604l.358-1.459h-12.587v20.657h1.625zM364.904 319.078h1.625v20.657h-1.625zM389.499 339.734v-20.657h-1.515v18.949h-.523L375.7 319.078h-2.863v20.657h1.515V320.62h.496l11.87 19.114h2.781zM221.72689 445.17436h1.62491v20.65637h-1.62491zM246.32188 465.82969v-20.65533h-1.5143v18.94901h-.52285l-11.76055-18.949h-2.86474v20.65636h1.5143V446.7158h.49571l11.87014 19.1139h2.78229zM266.75909 445.17436h-16.30552l-.3851 1.45898h7.46293v19.1974h1.59778v-19.1974h7.29908l.33083-1.45898zM370.398 445.16h-1.707l-5.013 19.06h-.634l-5.343-19.06h-2.645l-6.087 19.06h-.578l-4.489-19.06h-1.681l4.875 20.657h2.893l6.087-19.06h.468l5.316 19.06h2.919l5.619-20.657zM374.971 445.16h1.625v20.657h-1.625zM396.949 445.16h-16.305l-.386 1.46h7.464v19.197h1.598V446.62h7.299l.33-1.46zM292.489 508.456c-1.432-.248-3.029-.523-5.508-.523-3.581 0-5.536.826-6.885 1.983-1.267 1.019-3.058 3.663-3.058 8.951 0 4.434 1.102 6.968 2.369 8.208 1.432 1.349 3.195 2.065 6.721 2.065 2.369 0 4.682-.386 6.362-.826v-1.378c-1.459.276-3.69.689-6.059.689-2.892 0-4.655-.579-5.729-1.653-1.294-1.294-1.983-3.883-1.983-7.354 0-3.911 1.267-6.638 2.534-7.657 1.129-.881 2.782-1.515 5.757-1.515 2.616 0 4.049.248 5.48.413v-1.403zM313.312 528.865v-20.657h-1.598v9.447H298.99v-9.447h-1.625v20.657h1.625v-9.723h12.724v9.723h1.598zM336.393 528.865l-7.712-20.657h-2.947l-8.263 20.657h1.68l2.782-7.051h10.08l2.589 7.051h1.791zm-4.876-8.483h-9.061l4.241-10.658h.881l3.939 10.658zM413.922 394.966c3.002 0 4.571-.303 5.812-1.185 1.267-.909 2.148-2.919 2.148-5.343 0-2.479-.661-4.021-1.708-4.82-.771-.606-2.094-.881-3.884-.881h-7.877v20.657h1.598v-8.428h3.911zm6.307-6.472c0 2.231-.743 3.636-1.68 4.296-.743.551-2.203.716-4.655.716h-3.883v-9.364h5.646c1.515 0 2.644.165 3.332.688.744.551 1.24 1.735 1.24 3.664zM439.701 401.935h-11.54v-8.373h9.007l.357-1.432h-9.364v-7.933h10.632l.385-1.459h-12.614v20.657h12.67l.467-1.46zM444.053 382.737v20.657h1.625v-9.062h2.865c2.093 0 3.553.11 4.104.468 1.074.661 2.258 3.195 4.627 8.594h1.763c-1.763-4.049-3.25-7.492-4.076-8.511-.303-.33-1.102-.798-1.681-1.074v-.056c1.13-.385 2.259-1.019 2.562-1.267.827-.771 1.598-2.424 1.598-4.517 0-2.313-.633-3.581-1.57-4.241-.881-.661-2.368-.992-5.591-.992h-6.226zm1.625 1.405h4.49c2.781 0 3.883.303 4.544.826.661.496 1.074 1.542 1.074 3.222 0 2.231-.991 3.801-2.23 4.297-.662.248-1.764.413-3.525.413h-4.353v-8.758zM181.826 382.737h-1.708l-5.013 19.06h-.633l-5.344-19.06h-2.644l-6.087 19.06h-.578l-4.489-19.06h-1.681l4.875 20.657h2.893l6.086-19.06h.468l5.315 19.06h2.92l5.62-20.657zM186.398 382.737h1.625v20.656h-1.625zM195.928 382.737h-1.598v20.657h12.229l.468-1.46h-11.099v-19.197zM295.175 271.659c0-1.184-.193-2.616-.881-3.443-1.405-1.79-9.31-3.167-10.522-4.709-.413-.523-.605-1.405-.605-2.451 0-1.267.441-2.231.881-2.699.606-.716 2.121-1.157 4.682-1.157s4.021.193 5.756.386v-1.405c-1.405-.248-3.277-.44-5.536-.44-3.388 0-5.15.688-6.032 1.542-.936.909-1.377 2.396-1.377 3.911 0 1.129.193 2.589.827 3.361 1.57 2.01 8.951 3.029 10.494 4.709.413.468.633 1.35.633 2.479 0 1.377-.44 2.286-.937 2.782-.578.551-2.093.991-4.93.991-2.589 0-4.407-.331-6.031-.605v1.432c1.377.33 3.442.661 6.004.661 2.947 0 5.013-.44 6.142-1.404.853-.746 1.432-2.288 1.432-3.941zM313.105 256.042H296.8l-.386 1.46h7.464v19.197h1.597v-19.197h7.299l.331-1.46zM316.741 256.042v20.657h1.624v-9.062h2.865c2.093 0 3.553.11 4.104.468 1.074.661 2.258 3.195 4.627 8.593h1.763c-1.763-4.049-3.25-7.492-4.076-8.511-.303-.331-1.102-.799-1.68-1.074v-.055c1.129-.385 2.258-1.019 2.562-1.267.826-.771 1.597-2.423 1.597-4.517 0-2.313-.633-3.581-1.569-4.241-.882-.661-2.369-.992-5.592-.992h-6.225zm1.624 1.405h4.49c2.781 0 3.883.303 4.544.826.661.496 1.074 1.543 1.074 3.223 0 2.231-.991 3.801-2.231 4.296-.66.249-1.762.414-3.524.414h-4.353v-8.759z"/>
    <path d="M109.343 181.934l-14.931 14.932 4.4 4.399c2.966 2.966 5.037 4.002 6.888 4.141 2.21.14 5.276-1.254 8.342-4.32 3.146-3.146 4.419-5.693 4.38-7.565-.04-1.751-1.215-3.723-3.982-6.49l-5.097-5.097zm3.862 6.012c1.852 1.852 3.484 3.803 3.444 5.475-.02 1.891-1.513 4.181-3.823 6.49-2.787 2.788-5.415 4.062-7.207 3.902-1.473-.159-3.245-1.135-5.893-3.783l-3.066-3.065 12.781-12.782 3.764 3.763zM115.156 206.621c-3.802 3.802-4.38 7.047-.657 10.77 1.533 1.533 3.245 2.688 4.24 3.285l1.036-.876c-.896-.657-2.469-1.712-4.081-3.325-3.126-3.125-2.35-5.654.697-8.7l8.142 8.143 1.374-1.374c2.867-2.867 3.424-5.535.239-8.72-3.504-3.504-7.088-3.106-10.99.797zm9.914.039c2.409 2.409 2.09 4.36-.378 6.829l-.398.398-6.968-6.968c2.807-2.488 5.176-2.827 7.744-.259zM139.404 219.521l-4.141-4.141 1.036-1.036c2.09-2.09 3.404-2.608 5.554-.458.876.876 1.454 1.652 1.852 2.09l.916-.916c-.298-.378-1.115-1.434-1.931-2.25-2.429-2.429-4.5-2.667-7.366.199l-1.214 1.215-2.19-2.19-1.115.836 2.329 2.33-10.192 10.193 1.155 1.155 10.193-10.193 3.922 3.922 1.192-.756zM134.626 226.091c-3.803 3.802-4.38 7.047-.657 10.77 1.533 1.533 3.245 2.688 4.241 3.285l1.035-.875c-.896-.657-2.469-1.712-4.081-3.325-3.126-3.125-2.349-5.654.697-8.7l8.142 8.143 1.374-1.374c2.867-2.867 3.424-5.534.239-8.72-3.504-3.504-7.087-3.106-10.99.796zm9.915.039c2.408 2.409 2.09 4.36-.378 6.829l-.398.398-6.968-6.968c2.807-2.488 5.176-2.826 7.744-.259zM150.991 253.444l7.306-7.306c1.513-1.513 2.21-2.847 2.17-4.042 0-1.194-.537-2.369-1.991-3.822-1.414-1.414-3.245-2.448-4.082-2.688-.1-.02-1.075.04-1.214.06l-.099-.099.856-1.493-.836-.836-11.168 11.168 1.155 1.155 9.556-9.556c1.234.518 2.867 1.393 4.3 2.827 1.036 1.035 1.712 2.11 1.732 3.086.021.976-.518 2.071-1.931 3.484l-6.908 6.908 1.154 1.154zM164.947 261.269c.756-.756 1.214-1.573 1.273-2.429.061-.896-.458-2.09-1.711-4.101-1.175-1.852-1.593-2.827-1.533-3.563.04-.558.378-1.055.796-1.473 1.414-1.414 2.887-1.533 5.236.816 1.175 1.175 1.991 2.23 2.708 3.225l.956-.955c-.537-.817-1.454-2.051-2.688-3.285-2.966-2.967-5.355-2.927-7.405-.876-.637.637-1.155 1.433-1.214 2.21-.139 1.254.498 2.488 1.692 4.439 1.036 1.672 1.533 2.688 1.493 3.444-.08.558-.398 1.075-.816 1.493-1.413 1.414-2.767 1.493-5.275-1.015-1.214-1.214-2.27-2.628-2.927-3.604l-.975.976c.597.995 1.792 2.509 2.907 3.623 3.382 3.384 5.512 3.045 7.483 1.075zM166.42 268.874l11.168-11.168-1.155-1.154-11.169 11.168 1.156 1.154zm15.15-14.792c.259-.259.418-.498.398-.757 0-.199-.14-.418-.378-.657-.259-.258-.518-.398-.657-.378-.239-.08-.537.06-.835.358-.259.259-.399.518-.399.717-.02.219.12.438.399.717.218.219.478.398.696.417.238.041.517-.159.776-.417zM191.006 271.123l-1.254-1.254-14.015 6.171-.478-.478 6.311-13.876-1.254-1.254-6.928 15.409 1.991 1.991 15.627-6.709zM187.344 278.808c-3.803 3.802-4.38 7.047-.657 10.77 1.533 1.533 3.245 2.688 4.24 3.285l1.035-.876c-.896-.657-2.468-1.712-4.081-3.325-3.126-3.125-2.349-5.653.696-8.7l8.143 8.142 1.374-1.373c2.867-2.867 3.424-5.535.239-8.72-3.504-3.504-7.088-3.105-10.989.797zm9.914.039c2.409 2.409 2.09 4.36-.378 6.829l-.398.398-6.968-6.968c2.806-2.488 5.175-2.827 7.744-.259zM46.617 275.24l14.931-14.931-2.07-2.071-17.439 6.53-.339-.338 6.749-17.22-2.15-2.15-14.932 14.93 1.095 1.095 13.836-13.836.318.318-6.729 17.321L41.5 266.5l17.519-6.53.299.298-13.836 13.836 1.135 1.136zM55.994 273.627c-3.803 3.803-4.38 7.047-.657 10.771 1.533 1.533 3.245 2.688 4.241 3.285l1.035-.875c-.896-.657-2.469-1.712-4.082-3.325-3.125-3.125-2.349-5.654.697-8.7l8.143 8.143 1.373-1.374c2.867-2.867 3.424-5.535.239-8.72-3.504-3.505-7.087-3.107-10.989.795zm9.914.04c2.409 2.409 2.091 4.359-.378 6.828l-.398.398-6.969-6.968c2.807-2.488 5.177-2.826 7.745-.258zM72.358 300.981l7.306-7.306c1.513-1.513 2.21-2.847 2.17-4.042 0-1.194-.538-2.369-1.991-3.822-1.414-1.414-3.245-2.449-4.081-2.688-.1-.02-1.075.04-1.215.06l-.1-.1.856-1.493-.836-.836L63.3 291.923l1.154 1.154 9.557-9.556c1.234.518 2.867 1.394 4.3 2.827 1.036 1.036 1.712 2.11 1.732 3.086.02.976-.518 2.07-1.931 3.484l-6.908 6.908 1.154 1.155zM93.64 299.926l-4.181-4.181 2.627-2.628-1.454-.856-2.329 2.329-2.15-2.15-1.135.816 2.309 2.309-7.665 7.665c-1.931 1.931-1.831 3.464.16 5.455.856.856 1.931 1.652 2.647 2.13l1.075-.876c-.498-.378-1.473-1.075-2.389-1.991-1.255-1.254-1.633-2.269-.12-3.782l7.445-7.446 3.962 3.962 1.198-.756zM93.222 321.845l6.928-6.928c2.19-2.19 2.708-3.345 2.748-4.38.079-1.155-.638-2.389-2.17-3.922-1.592-1.592-3.583-2.907-4.638-3.524l-.936.936c.896.617 2.946 2.03 4.3 3.384 1.255 1.254 1.792 2.19 1.732 2.966-.08.836-.637 1.872-2.568 3.803-3.882-3.245-6.57-5.097-8.063-5.316-.717-.159-1.911.16-3.166 1.414-1.035 1.036-1.493 1.971-1.533 2.807-.06.976.399 2.19 1.951 3.743 1.932 1.931 3.624 2.628 4.201 2.728.179.02.836-.08 1.215-.14l.099.1-.936 1.493.836.836zm.418-2.688c-.896-.299-2.788-1.234-4.479-2.927-1.214-1.214-1.652-2.21-1.633-2.906.04-.598.378-1.294 1.095-2.011.836-.836 1.533-1.135 2.09-1.095.956-.04 4.261 2.429 7.008 4.858l-4.081 4.081zM113.488 309.86l-13.597 13.597c-1.872 1.872-1.911 3.384-.299 4.997.756.756 1.573 1.334 2.15 1.712l.916-.916c-.458-.338-1.076-.796-1.732-1.454-.936-.935-1.195-1.871.239-3.305l13.478-13.478-1.155-1.153zM472.238 241.498l-14.932-14.931-2.07 2.07 6.53 17.439-.339.338-17.221-6.749-2.149 2.15 14.931 14.931 1.095-1.095-13.836-13.836.318-.319 17.32 6.729 1.612-1.613-6.53-17.519.3-.299 13.836 13.836 1.135-1.132zM470.625 232.121c3.803 3.803 7.048 4.38 10.771.657 1.533-1.533 2.688-3.245 3.285-4.24l-.876-1.036c-.657.896-1.712 2.469-3.324 4.082-3.126 3.126-5.654 2.349-8.7-.697l8.143-8.142-1.374-1.374c-2.867-2.867-5.534-3.424-8.72-.239-3.505 3.504-3.106 7.087.795 10.989zm.04-9.914c2.409-2.409 4.36-2.09 6.829.378l.397.398-6.968 6.968c-2.487-2.806-2.826-5.176-.258-7.744zM472.735 208.749l13.598 13.598c1.871 1.871 3.384 1.911 4.997.299.756-.757 1.334-1.573 1.712-2.15l-.916-.916c-.338.458-.796 1.075-1.453 1.732-.936.936-1.871 1.194-3.305-.239l-13.479-13.478-1.154 1.154zM489.279 213.468c3.803 3.802 7.048 4.379 10.771.657 1.532-1.533 2.688-3.245 3.285-4.24l-.876-1.036c-.657.896-1.712 2.469-3.325 4.082-3.126 3.125-5.654 2.349-8.699-.697l8.142-8.143-1.374-1.374c-2.866-2.867-5.534-3.424-8.719-.239-3.505 3.504-3.107 7.087.795 10.99zm.04-9.915c2.409-2.409 4.36-2.09 6.828.378l.398.398-6.968 6.968c-2.488-2.806-2.826-5.175-.258-7.744zM501.522 201.224c3.803 3.803 7.048 4.38 10.771.657 1.533-1.533 2.688-3.245 3.285-4.24l-.876-1.036c-.657.896-1.712 2.469-3.324 4.082-3.126 3.125-5.654 2.349-8.7-.697l8.143-8.143-1.374-1.373c-2.867-2.867-5.534-3.424-8.72-.239-3.504 3.503-3.106 7.087.795 10.989zm.041-9.914c2.409-2.409 4.36-2.09 6.829.378l.398.398-6.969 6.968c-2.488-2.807-2.827-5.176-.258-7.744zM492.312 317.92l14.932 14.931 1.175-1.174-6.55-6.55 2.07-2.07c1.513-1.513 2.647-2.489 3.305-2.628 1.254-.299 3.941.677 9.556 2.867l1.274-1.274c-4.201-1.652-7.765-3.065-9.098-3.205-.458-.02-1.374.219-1.991.438l-.04-.04c.537-1.095.896-2.369.936-2.767.04-1.154-.597-2.907-2.11-4.419-1.672-1.672-3.046-2.13-4.2-1.931-1.115.159-2.429.996-4.758 3.325l-4.501 4.497zm2.19-.159l3.245-3.245c2.011-2.011 3.026-2.589 3.882-2.688.836-.119 1.891.338 3.105 1.553 1.613 1.613 2.03 3.464 1.493 4.718-.299.657-.976 1.573-2.249 2.847l-3.146 3.146-6.33-6.331zM528.864 311.231l-6.929-6.928c-2.191-2.189-3.348-2.707-4.38-2.747-1.155-.08-2.389.637-3.923 2.169-1.592 1.593-2.906 3.584-3.522 4.639l.935.936c.617-.896 2.031-2.946 3.385-4.3 1.254-1.254 2.19-1.792 2.967-1.732.834.08 1.871.637 3.804 2.568-3.247 3.882-5.099 6.569-5.316 8.063-.16.716.159 1.911 1.413 3.165 1.037 1.035 1.971 1.493 2.805 1.533.979.06 2.192-.398 3.747-1.951 1.927-1.931 2.627-3.624 2.726-4.201.021-.179-.078-.836-.141-1.214l.099-.1 1.493.936.837-.836zm-2.689-.418c-.295.896-1.233 2.787-2.928 4.479-1.213 1.214-2.208 1.652-2.902 1.632-.601-.04-1.295-.378-2.011-1.095-.839-.836-1.137-1.533-1.097-2.09-.04-.956 2.429-4.26 4.859-7.008l4.079 4.082zM542.12 297.973l-7.307-7.307c-1.508-1.513-2.845-2.209-4.037-2.17-1.197 0-2.373.538-3.824 1.991-1.415 1.413-2.451 3.245-2.689 4.081-.016.099.042 1.075.063 1.214l-.099.1-1.492-.856-.84.836 11.167 11.168 1.156-1.155-9.556-9.556c.518-1.234 1.394-2.867 2.829-4.3 1.031-1.035 2.109-1.712 3.083-1.732.975-.02 2.073.518 3.482 1.932l6.913 6.908 1.151-1.154zM544.115 273.645l-.202.2-.176.895c-1.239.757-2.592 1.633-4.006 3.046-1.892 1.891-2.606 3.563-2.628 4.938 0 1.911 1.156 4.22 3.488 6.549 2.285 2.29 4.26 3.146 5.892 2.947 1.155-.12 2.446-.736 4.021-2.309 1.451-1.454 2.389-2.947 2.508-3.504.057-.179-.021-1.055-.063-1.453l.083-.08.596.597c2.509 2.508 3.167 3.922 3.167 5.037-.063.976-.597 2.19-2.229 3.822-1.653 1.653-3.348 2.867-4.265 3.504l1.016 1.015c.896-.617 2.591-1.752 4.363-3.524 1.969-1.971 2.586-3.503 2.648-4.797.036-1.513-.617-3.285-3.644-6.312l-10.569-10.571zm-2.529 14.234c-2.052-2.05-2.928-3.842-2.948-5.215.021-1.215.679-2.469 2.171-3.962 1.177-1.174 2.368-2.05 3.286-2.767l8.519 8.521c-.538 1.453-1.611 2.927-2.767 4.081-1.114 1.115-2.368 1.891-3.405 2.011-1.213.139-2.788-.599-4.856-2.669zM553.433 275.675c3.798 3.803 7.048 4.38 10.769.657 1.533-1.533 2.689-3.245 3.285-4.241l-.876-1.035c-.658.896-1.715 2.469-3.327 4.082-3.124 3.125-5.653 2.349-8.7-.697l8.146-8.143-1.374-1.374c-2.87-2.867-5.534-3.424-8.721-.239-3.503 3.505-3.105 7.088.798 10.99zm.036-9.914c2.41-2.409 4.363-2.09 6.83.378l.398.397-6.97 6.968c-2.487-2.805-2.824-5.175-.258-7.743zM568.538 249.655c-1.171.697-2.27 1.434-3.602 2.767-1.689 1.693-2.431 3.226-2.446 4.798-.062 1.892 1.151 4.22 3.4 6.47 2.549 2.548 4.58 3.305 6.016 3.185 1.275-.119 2.606-.816 4.177-2.389 1.534-1.533 2.213-2.886 2.332-3.444.042-.199-.021-1.015-.041-1.434l.062-.06 1.332.776.896-.896-16.225-16.225-1.177 1.174 5.276 5.278zm-1.528 12.762c-2.15-2.15-3.026-4.021-2.99-5.335.041-1.234.679-2.429 2.072-3.822 1.233-1.234 2.467-2.071 3.322-2.727l8.623 8.62c-.519 1.473-1.534 2.887-2.648 4.001-1.176 1.175-2.43 1.911-3.404 1.971-1.156.079-2.789-.519-4.975-2.708zM359.292 197.525l9.058 9.058c2.29 2.29 3.066 3.743 3.105 5.017.021 1.214-.656 2.647-2.667 4.659-2.03 2.03-3.584 2.508-4.818 2.389-1.154-.12-2.368-.856-4.777-3.265l-8.879-8.879-1.155 1.154 9.237 9.238c2.668 2.667 4.082 3.325 5.455 3.504 1.354.159 3.364-.418 5.833-2.887 2.768-2.767 3.385-4.46 3.365-5.953-.021-1.692-.937-3.564-3.584-6.211l-8.998-8.999-1.175 1.175zM388.736 197.942l-7.307-7.306c-1.513-1.513-2.847-2.209-4.041-2.169-1.194 0-2.369.537-3.822 1.99-1.414 1.414-2.449 3.246-2.688 4.082-.02.1.04 1.075.061 1.214l-.101.1-1.492-.856-.836.836 11.168 11.168 1.154-1.155-9.556-9.556c.518-1.234 1.394-2.867 2.827-4.3 1.035-1.035 2.11-1.712 3.086-1.732s2.07.518 3.484 1.931l6.908 6.908 1.155-1.155zM400.86 185.819l-6.929-6.928c-2.189-2.19-3.344-2.708-4.379-2.748-1.155-.079-2.39.638-3.922 2.17-1.594 1.592-2.907 3.583-3.524 4.639l.936.936c.617-.896 2.031-2.946 3.385-4.3 1.254-1.254 2.189-1.792 2.967-1.732.836.08 1.871.637 3.802 2.568-3.245 3.882-5.096 6.57-5.315 8.063-.159.717.159 1.911 1.414 3.165 1.034 1.036 1.971 1.494 2.807 1.534.976.06 2.189-.398 3.743-1.951 1.931-1.931 2.627-3.623 2.727-4.201.021-.179-.079-.836-.139-1.214l.099-.1 1.494.936.834-.837zm-2.687-.419c-.299.896-1.234 2.788-2.927 4.479-1.215 1.215-2.21 1.652-2.907 1.633-.597-.04-1.294-.378-2.011-1.095-.836-.836-1.135-1.534-1.095-2.091-.04-.956 2.429-4.261 4.857-7.007l4.083 4.081zM393.893 170.45l11.168 11.168 1.155-1.155-9.397-9.396c.239-1.115 1.056-2.847 2.429-4.181.678-.677 1.334-1.175 1.732-1.454l-1.115-1.115c-.338.259-.796.637-1.354 1.194-1.394 1.394-2.03 2.788-2.249 3.644 0 .08.1 1.134.119 1.274l-.119.12-1.514-.956-.855.857zM429.866 156.813l-7.307-7.307c-1.532-1.533-2.807-2.289-4.041-2.25-1.175.021-2.31.558-3.623 1.872-1.453 1.453-2.289 3.166-2.568 4.161l.159 1.394-.1.099c-.278-.08-.657-.179-1.154-.159-1.215.02-2.449.617-3.883 2.051-1.453 1.453-2.289 3.085-2.528 3.882l.061 1.254-.1.1-1.474-.876-.855.856 11.168 11.168 1.154-1.155-9.535-9.536c.498-1.174 1.234-2.747 2.688-4.201.916-.916 2.03-1.672 2.967-1.692.895-.02 1.651.418 2.627 1.394l7.645 7.645 1.155-1.154-9.396-9.397c.378-1.214 1.075-2.867 2.508-4.3.937-.936 1.991-1.553 2.927-1.573.936-.02 1.971.498 3.444 1.971l6.908 6.908 1.153-1.155zM427.995 147.694c3.802 3.803 7.047 4.38 10.771.657 1.533-1.533 2.688-3.245 3.284-4.241l-.876-1.035c-.656.896-1.712 2.468-3.324 4.081-3.125 3.125-5.653 2.349-8.7-.697l8.143-8.143-1.373-1.374c-2.867-2.867-5.535-3.424-8.72-.239-3.506 3.506-3.107 7.09.795 10.991zm.04-9.914c2.408-2.409 4.359-2.09 6.828.378l.398.398-6.968 6.968c-2.488-2.806-2.826-5.175-.258-7.744zM443.105 121.675c-1.175.696-2.27 1.433-3.604 2.767-1.692 1.692-2.429 3.225-2.449 4.798-.06 1.891 1.155 4.22 3.405 6.47 2.548 2.548 4.578 3.305 6.012 3.185 1.274-.119 2.608-.816 4.181-2.389 1.533-1.533 2.21-2.887 2.33-3.444.039-.199-.021-1.015-.04-1.433l.06-.06 1.334.776.896-.896-16.226-16.225-1.174 1.175 5.275 5.276zm-1.533 12.761c-2.15-2.15-3.025-4.021-2.986-5.335.04-1.234.677-2.429 2.07-3.823 1.234-1.234 2.469-2.07 3.325-2.727l8.62 8.62c-.518 1.473-1.533 2.887-2.647 4.001-1.175 1.174-2.429 1.911-3.404 1.971-1.155.08-2.788-.518-4.978-2.707zM164.937 138.166c-1.613-1.613-2.628-3.544-2.528-5.156.12-1.792 1.095-3.803 3.763-6.47 2.687-2.688 5.534-3.981 7.227-3.922 1.493.06 3.265.796 5.196 2.728 1.672 1.672 2.727 3.484 2.688 5.116-.04 1.792-1.513 4.181-4.101 6.769-2.628 2.628-5.416 3.862-7.107 3.763-1.435-.081-3.187-.877-5.138-2.828zm14.732-13.896c-2.19-2.19-4.34-3.106-6.251-3.225-2.21-.14-5.435 1.294-8.561 4.419-3.245 3.245-4.061 5.694-4.121 7.386-.06 1.931.717 4.021 3.065 6.371 2.35 2.349 4.4 3.285 6.331 3.384 2.17.1 5.236-1.175 8.361-4.3 3.285-3.285 4.44-5.873 4.459-7.724.042-1.792-.675-3.703-3.283-6.311zM191.713 144.357l-4.141-4.141 1.035-1.035c2.09-2.09 3.404-2.608 5.554-.458.875.875 1.454 1.652 1.852 2.09l.916-.916c-.298-.378-1.115-1.434-1.931-2.25-2.429-2.429-4.5-2.668-7.366.199l-1.214 1.214-2.19-2.19-1.115.836 2.33 2.329-10.193 10.193 1.155 1.154 10.192-10.193 3.922 3.922 1.194-.754zm7.825 7.825l-4.141-4.141 1.035-1.036c2.091-2.09 3.404-2.608 5.554-.458.876.876 1.454 1.653 1.852 2.091l.916-.916c-.298-.378-1.114-1.433-1.931-2.25-2.429-2.429-4.5-2.667-7.366.199l-1.214 1.214-2.19-2.189-1.115.835 2.33 2.33-10.192 10.193 1.154 1.155 10.193-10.193 3.921 3.922 1.194-.756zM195.377 159.368c-3.803 3.802-4.38 7.047-.657 10.77 1.533 1.534 3.245 2.688 4.24 3.285l1.035-.876c-.896-.657-2.468-1.712-4.081-3.325-3.126-3.125-2.349-5.654.696-8.7l8.143 8.142 1.374-1.373c2.867-2.867 3.424-5.535.239-8.72-3.504-3.503-7.088-3.105-10.989.797zm9.914.04c2.409 2.409 2.09 4.36-.378 6.829l-.398.398-6.968-6.968c2.807-2.489 5.176-2.827 7.744-.259zM211.741 186.722l7.306-7.306c1.513-1.514 2.209-2.847 2.17-4.042 0-1.194-.538-2.369-1.991-3.822-1.414-1.414-3.245-2.448-4.082-2.687-.099-.021-1.075.039-1.214.06l-.1-.1.856-1.494-.836-.836-11.168 11.168 1.154 1.155 9.556-9.556c1.234.518 2.867 1.394 4.3 2.827 1.035 1.036 1.712 2.111 1.732 3.086.02.975-.518 2.07-1.931 3.484l-6.908 6.908 1.156 1.155zM225.697 194.546c.756-.757 1.214-1.573 1.274-2.429.06-.896-.458-2.09-1.712-4.102-1.174-1.851-1.592-2.827-1.533-3.563.04-.558.378-1.056.796-1.473 1.414-1.414 2.887-1.533 5.236.816 1.174 1.174 1.991 2.23 2.708 3.225l.956-.956c-.538-.816-1.454-2.051-2.688-3.285-2.966-2.967-5.355-2.927-7.406-.876-.637.637-1.154 1.433-1.215 2.21-.139 1.254.498 2.488 1.693 4.439 1.035 1.672 1.533 2.688 1.493 3.444-.079.558-.398 1.075-.816 1.493-1.414 1.414-2.768 1.494-5.276-1.015-1.214-1.215-2.27-2.628-2.926-3.604l-.976.976c.597.996 1.792 2.508 2.907 3.624 3.384 3.385 5.514 3.047 7.485 1.076zM227.17 202.151l11.168-11.168-1.154-1.155-11.169 11.169 1.155 1.154zm15.15-14.792c.259-.259.418-.498.398-.757 0-.199-.139-.418-.378-.657-.259-.259-.518-.398-.657-.378-.239-.08-.538.06-.836.358-.259.259-.398.518-.398.717-.02.219.12.438.398.717.219.219.478.398.697.417.239.041.518-.158.776-.417zM251.756 204.4l-1.254-1.254-14.016 6.171-.478-.478 6.311-13.876-1.254-1.254-6.928 15.409 1.99 1.991 15.629-6.709zM248.093 212.085c-3.802 3.803-4.379 7.047-.657 10.771 1.533 1.533 3.245 2.688 4.241 3.285l1.035-.875c-.896-.657-2.468-1.712-4.081-3.325-3.125-3.125-2.349-5.654.697-8.7l8.143 8.143 1.374-1.374c2.867-2.867 3.424-5.535.239-8.719-3.505-3.506-7.089-3.108-10.991.794zm9.914.04c2.409 2.409 2.091 4.36-.378 6.828l-.398.398-6.968-6.968c2.807-2.488 5.177-2.826 7.744-.258z"/>
  </g>
</svg>
