<?xml version="1.0" standalone="no"?>
<!DOCTYPE svg PUBLIC "-//W3C//DTD SVG 1.1//EN" "http://www.w3.org/Graphics/SVG/1.1/DTD/svg11.dtd">
<svg width="100%" height="100%" viewBox="0 0 1181 1181" version="1.1" xmlns="http://www.w3.org/2000/svg" xmlns:xlink="http://www.w3.org/1999/xlink" xml:space="preserve" style="fill-rule:evenodd;clip-rule:evenodd;stroke-linejoin:round;stroke-miterlimit:1.41421;">
    <g id="shades">
        <path d="M683.967,826.469L341.882,1168.55L255.252,1081.92L597.337,739.838L683.967,826.469ZM705.023,805.413L618.393,718.783L1082.66,254.517L1169.29,341.147L705.023,805.413Z" style="fill:rgb(0,174,239);fill-opacity:0.647059;"/>
        <path d="M220.16,132.795L804.118,716.754L717.488,803.384L133.53,219.426L220.16,132.795Z" style="fill:rgb(0,255,0);fill-opacity:0.501961;"/>
        <path d="M341.882,11.0732L925.848,595.032L839.21,681.663L255.252,97.7042L341.882,11.0732Z" style="fill:rgb(255,0,0);fill-opacity:0.501961;"/>
        <path d="M98.4379,254.517L682.396,838.476L595.766,925.106L11.8077,341.147L98.4379,254.517Z" style="fill:rgb(0,0,255);fill-opacity:0.501961;"/>
        <path d="M440.523,583.025L98.4379,925.111L11.8077,838.48L353.893,496.395L440.523,583.025ZM461.579,561.969L374.949,475.339L839.214,11.0732L925.844,97.7042L461.579,561.969Z" style="fill:rgb(236,0,140);fill-opacity:0.54902;"/>
        <path d="M562.245,704.747L220.16,1046.83L133.53,960.202L475.615,618.117L562.245,704.747ZM583.301,683.691L496.671,597.061L960.936,132.795L1047.57,219.426L583.301,683.691Z" style="fill:rgb(255,242,0);fill-opacity:0.8;"/>
    </g>
    <g id="nodes">
        <path d="M590.548,503.183L677.178,589.814L590.548,676.445L503.918,589.814L590.548,503.183Z" style="fill:rgb(181,151,24);"/>
        <path d="M712.27,381.461L798.9,468.092L712.27,554.723L625.64,468.092L712.27,381.461Z" style="fill:rgb(206,103,0);"/>
        <path d="M468.826,624.905L555.456,711.536L468.826,798.166L382.195,711.536L468.826,624.905Z" style="fill:rgb(55,124,33);"/>
        <path d="M712.27,624.905L798.9,711.536L712.27,798.166L625.64,711.536L712.27,624.905Z" style="fill:rgb(30,144,98);"/>
        <path d="M833.992,503.187L920.626,589.814L833.992,676.442L747.365,589.814L833.992,503.187Z" style="fill:rgb(96,29,98);"/>
        <path d="M590.548,746.627L677.178,833.257L590.548,919.888L503.918,833.257L590.548,746.627Z" style="fill:rgb(2,94,178);"/>
        <path d="M468.826,381.461L555.456,468.092L468.826,554.723L382.195,468.092L468.826,381.461Z" style="fill:rgb(48,57,76);"/>
        <path d="M590.548,259.739L677.178,346.37L590.548,433.001L503.918,346.37L590.548,259.739Z" style="fill:rgb(163,4,42);"/>
        <path d="M347.104,503.183L433.734,589.814L347.104,676.445L260.473,589.814L347.104,503.183Z" style="fill:rgb(55,5,170);"/>
    </g>
    <g id="small text">
        <path d="M580.958,604.769L566.076,564.906L560.389,564.906L544.444,604.769L547.686,604.769L553.054,591.162L572.507,591.162L577.503,604.769L580.958,604.769ZM571.55,588.399L554.064,588.399L562.249,567.83L563.95,567.83L571.55,588.399Z" style="fill:white;fill-rule:nonzero;"/>
        <path d="M617.418,565.438C614.442,564.906 610.615,564.428 605.779,564.428C598.71,564.428 594.989,566.023 592.332,568.255C589.781,570.381 586.539,575.324 586.539,585.475C586.539,594.245 588.771,599.082 591.163,601.42C593.926,604.025 597.487,605.3 604.184,605.3C609.393,605.3 614.389,604.237 617.79,603.281L617.79,584.306L603.493,584.306L602.855,586.964L614.708,586.964L614.708,601.314C612.316,601.739 609.021,602.377 604.556,602.377C599.029,602.377 595.68,601.261 593.661,599.294C591.056,596.743 589.728,591.906 589.728,584.997C589.728,577.503 592.119,572.294 594.617,570.328C596.743,568.574 599.985,567.351 605.779,567.351C610.934,567.351 614.495,567.83 617.418,568.202L617.418,565.438Z" style="fill:white;fill-rule:nonzero;"/>
        <rect x="629.377" y="564.906" width="3.13583" height="39.8622" style="fill:white;fill-rule:nonzero;"/>
        <path d="M439.514,472.22C439.514,469.935 439.142,467.171 437.813,465.576C435.102,462.122 419.848,459.464 417.51,456.488C416.713,455.478 416.341,453.777 416.341,451.757C416.341,449.313 417.191,447.452 418.041,446.549C419.211,445.167 422.134,444.316 427.077,444.316C432.02,444.316 434.837,444.689 438.185,445.061L438.185,442.35C435.474,441.872 431.86,441.5 427.502,441.5C420.965,441.5 417.563,442.828 415.862,444.476C414.055,446.23 413.205,449.1 413.205,452.023C413.205,454.202 413.577,457.019 414.799,458.507C417.829,462.387 432.073,464.354 435.049,467.596C435.847,468.5 436.272,470.2 436.272,472.379C436.272,475.037 435.421,476.791 434.465,477.748C433.348,478.811 430.425,479.661 424.951,479.661C419.955,479.661 416.447,479.023 413.311,478.492L413.311,481.255C415.969,481.893 419.955,482.531 424.898,482.531C430.585,482.531 434.571,481.681 436.75,479.82C438.398,478.385 439.514,475.409 439.514,472.22Z" style="fill:white;fill-rule:nonzero;"/>
        <path d="M474.114,442.084L442.65,442.084L441.906,444.901L456.309,444.901L456.309,481.946L459.392,481.946L459.392,444.901L473.476,444.901L474.114,442.084Z" style="fill:white;fill-rule:nonzero;"/>
        <path d="M521.949,481.946L521.949,442.084L516.421,442.084L501.858,474.08L500.955,474.08L486.976,442.084L481.236,442.084L481.236,481.946L484.16,481.946L484.16,445.007L485.01,445.007L499.148,477.11L503.453,477.11L518.122,445.007L518.919,445.007L518.919,481.946L521.949,481.946Z" style="fill:white;fill-rule:nonzero;"/>
        <path d="M675.894,481.922L675.894,464.17L693.221,464.17L693.859,461.406L675.894,461.406L675.894,444.876L696.357,444.876L697.048,442.06L672.758,442.06L672.758,481.922L675.894,481.922Z" style="fill:white;fill-rule:nonzero;"/>
        <rect x="704.17" y="442.06" width="3.13583" height="39.8622" style="fill:white;fill-rule:nonzero;"/>
        <path d="M751.632,481.922L751.632,442.06L748.709,442.06L748.709,478.626L747.699,478.626L725.004,442.06L719.477,442.06L719.477,481.922L722.4,481.922L722.4,445.036L723.357,445.036L746.264,481.922L751.632,481.922Z" style="fill:white;fill-rule:nonzero;"/>
        <g transform="matrix(1.04362,-4.93038e-32,-4.93038e-32,1.04362,-167.032,356.714)">
            <rect x="570.042" y="314.94" width="3.00476" height="38.1962" style="fill:white;fill-rule:nonzero;"/>
            <path d="M615.52,353.136L615.52,314.94L612.719,314.94L612.719,349.979L611.752,349.979L590.005,314.94L584.709,314.94L584.709,353.136L587.51,353.136L587.51,317.792L588.427,317.792L610.377,353.136L615.52,353.136Z" style="fill:white;fill-rule:nonzero;"/>
            <path d="M653.309,314.94L623.16,314.94L622.447,317.639L636.248,317.639L636.248,353.136L639.202,353.136L639.202,317.639L652.698,317.639L653.309,314.94Z" style="fill:white;fill-rule:nonzero;"/>
            <g transform="matrix(0.95,0,0,1,32.7138,0)">
            </g>
        </g>
        <path d="M714.773,685.367L711.478,685.367L701.804,722.146L700.582,722.146L690.271,685.367L685.169,685.367L673.423,722.146L672.306,722.146L663.643,685.367L660.401,685.367L669.808,725.229L675.389,725.229L687.135,688.449L688.039,688.449L698.297,725.229L703.93,725.229L714.773,685.367Z" style="fill:white;fill-rule:nonzero;"/>
        <rect x="723.596" y="685.367" width="3.13583" height="39.8622" style="fill:white;fill-rule:nonzero;"/>
        <path d="M766.009,685.367L734.545,685.367L733.8,688.184L748.204,688.184L748.204,725.229L751.287,725.229L751.287,688.184L765.371,688.184L766.009,685.367Z" style="fill:white;fill-rule:nonzero;"/>
        <path d="M564.428,807.511C561.665,807.032 558.582,806.501 553.798,806.501C546.889,806.501 543.115,808.095 540.511,810.328C538.066,812.294 534.611,817.397 534.611,827.601C534.611,836.158 536.737,841.048 539.182,843.44C541.946,846.044 545.348,847.426 552.151,847.426C556.722,847.426 561.186,846.682 564.428,845.832L564.428,843.174C561.611,843.706 557.306,844.503 552.735,844.503C547.155,844.503 543.753,843.387 541.68,841.314C539.182,838.816 537.853,833.82 537.853,827.123C537.853,819.576 540.298,814.314 542.743,812.347C544.922,810.647 548.111,809.424 553.852,809.424C558.901,809.424 561.665,809.903 564.428,810.221L564.428,807.511Z" style="fill:white;fill-rule:nonzero;"/>
        <path d="M604.609,846.895L604.609,807.032L601.527,807.032L601.527,825.263L576.972,825.263L576.972,807.032L573.836,807.032L573.836,846.895L576.972,846.895L576.972,828.133L601.527,828.133L601.527,846.895L604.609,846.895Z" style="fill:white;fill-rule:nonzero;"/>
        <path d="M649.149,846.895L634.267,807.032L628.58,807.032L612.635,846.895L615.877,846.895L621.245,833.288L640.698,833.288L645.694,846.895L649.149,846.895ZM639.741,830.525L622.255,830.525L630.44,809.956L632.141,809.956L639.741,830.525Z" style="fill:white;fill-rule:nonzero;"/>
        <path d="M798.761,588.505C804.554,588.505 807.583,587.92 809.975,586.219C812.42,584.466 814.121,580.586 814.121,575.908C814.121,571.125 812.845,568.149 810.826,566.607C809.337,565.438 806.786,564.906 803.331,564.906L788.131,564.906L788.131,604.769L791.213,604.769L791.213,588.505L798.761,588.505ZM810.932,576.015C810.932,580.32 809.497,583.031 807.69,584.306C806.255,585.369 803.438,585.688 798.707,585.688L791.213,585.688L791.213,567.617L802.109,567.617C805.032,567.617 807.211,567.936 808.54,568.946C809.975,570.009 810.932,572.294 810.932,576.015Z" style="fill:white;fill-rule:nonzero;"/>
        <path d="M848.509,601.952L826.239,601.952L826.239,585.794L843.619,585.794L844.31,583.031L826.239,583.031L826.239,567.723L846.755,567.723L847.499,564.906L823.156,564.906L823.156,604.769L847.605,604.769L848.509,601.952Z" style="fill:white;fill-rule:nonzero;"/>
        <path d="M856.906,564.906L856.906,604.769L860.042,604.769L860.042,587.282L865.57,587.282C869.609,587.282 872.426,587.495 873.489,588.186C875.562,589.462 877.847,594.351 882.418,604.769L885.82,604.769C882.418,596.956 879.548,590.312 877.954,588.345C877.369,587.708 875.828,586.804 874.711,586.273L874.711,586.166C876.891,585.422 879.07,584.2 879.654,583.721C881.249,582.233 882.737,579.044 882.737,575.005C882.737,570.54 881.515,568.095 879.707,566.82C878.007,565.544 875.137,564.906 868.918,564.906L856.906,564.906ZM860.042,567.617L868.706,567.617C874.074,567.617 876.2,568.202 877.475,569.212C878.751,570.168 879.548,572.188 879.548,575.43C879.548,579.735 877.635,582.765 875.243,583.721C873.967,584.2 871.841,584.519 868.44,584.519L860.042,584.519L860.042,567.617Z" style="fill:white;fill-rule:nonzero;"/>
        <path d="M350.877,564.906L347.582,564.906L337.909,601.686L336.687,601.686L326.375,564.906L321.273,564.906L309.527,601.686L308.411,601.686L299.748,564.906L296.505,564.906L305.913,604.769L311.494,604.769L323.24,567.989L324.143,567.989L334.401,604.769L340.035,604.769L350.877,564.906Z" style="fill:white;fill-rule:nonzero;"/>
        <rect x="359.7" y="564.906" width="3.13583" height="39.8622" style="fill:white;fill-rule:nonzero;"/>
        <path d="M378.09,564.906L375.007,564.906L375.007,604.769L398.606,604.769L399.509,601.952L378.09,601.952L378.09,564.906Z" style="fill:white;fill-rule:nonzero;"/>
        <path d="M569.61,350.554C569.61,348.269 569.238,345.505 567.91,343.91C565.199,340.456 549.945,337.798 547.606,334.822C546.809,333.812 546.437,332.111 546.437,330.092C546.437,327.647 547.288,325.786 548.138,324.883C549.307,323.501 552.23,322.651 557.173,322.651C562.116,322.651 564.933,323.023 568.282,323.395L568.282,320.684C565.571,320.206 561.957,319.834 557.599,319.834C551.061,319.834 547.66,321.162 545.959,322.81C544.152,324.564 543.301,327.434 543.301,330.357C543.301,332.536 543.673,335.353 544.896,336.842C547.925,340.721 562.169,342.688 565.146,345.93C565.943,346.834 566.368,348.534 566.368,350.714C566.368,353.371 565.518,355.125 564.561,356.082C563.445,357.145 560.522,357.995 555.047,357.995C550.051,357.995 546.543,357.357 543.408,356.826L543.408,359.59C546.065,360.227 550.051,360.865 554.994,360.865C560.681,360.865 564.667,360.015 566.847,358.155C568.494,356.719 569.61,353.743 569.61,350.554Z" style="fill:white;fill-rule:nonzero;"/>
        <path d="M604.211,320.418L572.746,320.418L572.002,323.235L586.406,323.235L586.406,360.281L589.488,360.281L589.488,323.235L603.573,323.235L604.211,320.418Z" style="fill:white;fill-rule:nonzero;"/>
        <path d="M611.227,320.418L611.227,360.281L614.362,360.281L614.362,342.794L619.89,342.794C623.929,342.794 626.746,343.007 627.809,343.698C629.882,344.973 632.167,349.863 636.738,360.281L640.14,360.281C636.738,352.468 633.868,345.824 632.274,343.857C631.689,343.219 630.148,342.316 629.032,341.784L629.032,341.678C631.211,340.934 633.39,339.712 633.975,339.233C635.569,337.745 637.057,334.556 637.057,330.517C637.057,326.052 635.835,323.607 634.028,322.332C632.327,321.056 629.457,320.418 623.238,320.418L611.227,320.418ZM614.362,323.129L623.026,323.129C628.394,323.129 630.52,323.714 631.795,324.723C633.071,325.68 633.868,327.7 633.868,330.942C633.868,335.247 631.955,338.277 629.563,339.233C628.288,339.712 626.162,340.031 622.76,340.031L614.362,340.031L614.362,323.129Z" style="fill:white;fill-rule:nonzero;"/>
        <path d="M211.003,177.409L182.19,206.223L190.68,214.713C196.405,220.437 200.4,222.435 203.973,222.704C208.237,222.973 214.154,220.283 220.07,214.367C226.14,208.297 228.599,203.38 228.522,199.768C228.445,196.388 226.178,192.584 220.838,187.244L211.003,177.409ZM218.456,189.011C222.029,192.584 225.179,196.349 225.103,199.576C225.064,203.226 222.183,207.644 217.726,212.1C212.348,217.479 207.277,219.938 203.819,219.63C200.976,219.323 197.557,217.44 192.448,212.331L186.531,206.415L211.195,181.75L218.456,189.011Z" style="fill:black;fill-rule:nonzero;"/>
        <path d="M222.221,225.047C214.884,232.385 213.769,238.647 220.954,245.831C223.912,248.789 227.216,251.017 229.136,252.17L231.134,250.48C229.405,249.212 226.37,247.176 223.259,244.064C217.227,238.032 218.725,233.153 224.603,227.275L240.316,242.988L242.967,240.337C248.499,234.805 249.575,229.657 243.428,223.51C236.666,216.749 229.751,217.517 222.221,225.047ZM241.353,225.124C246.002,229.773 245.387,233.537 240.623,238.301L239.855,239.07L226.409,225.623C231.826,220.821 236.397,220.168 241.353,225.124Z" style="fill:black;fill-rule:nonzero;"/>
        <path d="M269.014,249.942L261.023,241.951L263.021,239.953C267.055,235.919 269.59,234.92 273.739,239.07C275.43,240.76 276.544,242.258 277.312,243.103L279.079,241.336C278.503,240.606 276.928,238.57 275.353,236.995C270.666,232.308 266.67,231.847 261.138,237.379L258.795,239.723L254.569,235.497L252.418,237.11L256.912,241.605L237.243,261.275L239.471,263.503L259.141,243.833L266.709,251.402L269.014,249.942Z" style="fill:black;fill-rule:nonzero;"/>
        <path d="M259.794,262.62C252.456,269.957 251.342,276.219 258.526,283.403C261.484,286.362 264.788,288.59 266.709,289.742L268.707,288.052C266.978,286.784 263.943,284.748 260.831,281.636C254.799,275.605 256.298,270.726 262.176,264.848L277.888,280.561L280.539,277.91C286.071,272.378 287.147,267.23 281,261.083C274.239,254.321 267.324,255.09 259.794,262.62ZM278.926,262.696C283.574,267.345 282.96,271.11 278.196,275.874L277.427,276.642L263.981,263.196C269.398,258.394 273.97,257.741 278.926,262.696Z" style="fill:black;fill-rule:nonzero;"/>
        <path d="M291.373,315.405L305.472,301.306C308.392,298.386 309.737,295.812 309.66,293.507C309.66,291.202 308.623,288.936 305.818,286.131C303.09,283.403 299.556,281.406 297.942,280.945C297.75,280.906 295.868,281.022 295.599,281.06L295.407,280.868L297.059,277.987L295.445,276.373L273.893,297.925L276.121,300.154L294.562,281.713C296.944,282.712 300.094,284.402 302.86,287.168C304.858,289.166 306.164,291.241 306.202,293.123C306.241,295.006 305.203,297.119 302.476,299.846L289.145,313.177L291.373,315.405Z" style="fill:black;fill-rule:nonzero;"/>
        <path d="M318.304,330.503C319.764,329.044 320.647,327.468 320.762,325.817C320.878,324.088 319.879,321.783 317.459,317.903C315.192,314.33 314.385,312.447 314.5,311.026C314.577,309.95 315.23,308.99 316.037,308.183C318.765,305.455 321.608,305.225 326.141,309.758C328.408,312.025 329.983,314.061 331.366,315.982L333.21,314.138C332.173,312.562 330.405,310.181 328.023,307.799C322.299,302.074 317.689,302.151 313.732,306.108C312.503,307.338 311.504,308.874 311.389,310.373C311.12,312.793 312.349,315.175 314.654,318.94C316.652,322.167 317.612,324.126 317.535,325.586C317.382,326.662 316.767,327.661 315.96,328.467C313.233,331.195 310.62,331.349 305.78,326.508C303.436,324.165 301.4,321.437 300.132,319.554L298.25,321.437C299.402,323.358 301.707,326.278 303.859,328.429C310.39,334.96 314.5,334.307 318.304,330.503Z" style="fill:black;fill-rule:nonzero;"/>
        <path d="M321.147,345.179L342.699,323.627L340.471,321.399L318.918,342.951L321.147,345.179ZM350.382,316.635C350.882,316.135 351.189,315.674 351.151,315.175C351.151,314.791 350.882,314.368 350.421,313.907C349.921,313.408 349.422,313.139 349.153,313.177C348.692,313.023 348.116,313.292 347.54,313.869C347.04,314.368 346.771,314.868 346.771,315.252C346.733,315.674 347.002,316.097 347.54,316.635C347.962,317.057 348.462,317.403 348.884,317.441C349.345,317.518 349.883,317.134 350.382,316.635Z" style="fill:black;fill-rule:nonzero;"/>
        <path d="M368.592,349.52L366.172,347.1L339.126,359.009L338.204,358.087L350.382,331.31L347.962,328.89L334.593,358.625L338.435,362.467L368.592,349.52Z" style="fill:black;fill-rule:nonzero;"/>
        <path d="M361.524,364.349C354.186,371.687 353.072,377.949 360.256,385.133C363.214,388.091 366.518,390.32 368.439,391.472L370.436,389.782C368.708,388.514 365.673,386.478 362.561,383.366C356.529,377.335 358.028,372.456 363.905,366.578L379.618,382.29L382.269,379.64C387.801,374.107 388.877,368.96 382.73,362.813C375.969,356.051 369.053,356.82 361.524,364.349ZM380.656,364.426C385.304,369.075 384.689,372.84 379.926,377.603L379.157,378.372L365.711,364.926C371.128,360.123 375.7,359.47 380.656,364.426Z" style="fill:black;fill-rule:nonzero;"/>
        <path d="M89.9581,357.464L118.771,328.651L114.776,324.655L81.1221,337.256L80.469,336.603L93.4926,303.372L89.3435,299.223L60.5303,328.036L62.6432,330.149L89.3435,303.449L89.9581,304.063L76.973,337.487L80.0848,340.599L113.892,327.998L114.469,328.574L87.7683,355.274L89.9581,357.464Z" style="fill:black;fill-rule:nonzero;"/>
        <path d="M108.053,354.352C100.715,361.69 99.601,367.952 106.785,375.136C109.743,378.094 113.047,380.322 114.968,381.475L116.966,379.785C115.237,378.517 112.202,376.481 109.09,373.369C103.059,367.337 104.557,362.458 110.435,356.58L126.148,372.293L128.798,369.642C134.33,364.11 135.406,358.962 129.259,352.815C122.498,346.054 115.583,346.822 108.053,354.352ZM127.185,354.429C131.833,359.078 131.219,362.842 126.455,367.606L125.687,368.375L112.24,354.928C117.657,350.126 122.229,349.473 127.185,354.429Z" style="fill:black;fill-rule:nonzero;"/>
        <path d="M139.632,407.138L153.731,393.039C156.651,390.119 157.996,387.545 157.919,385.24C157.919,382.935 156.882,380.668 154.077,377.864C151.349,375.136 147.815,373.138 146.202,372.677C146.009,372.639 144.127,372.754 143.858,372.793L143.666,372.601L145.318,369.719L143.704,368.106L122.152,389.658L124.38,391.886L142.821,373.446C145.203,374.445 148.353,376.135 151.119,378.901C153.117,380.899 154.423,382.973 154.461,384.856C154.5,386.738 153.462,388.851 150.735,391.579L137.404,404.91L139.632,407.138Z" style="fill:black;fill-rule:nonzero;"/>
        <path d="M180.701,405.102L172.633,397.034L177.704,391.963L174.899,390.311L170.405,394.806L166.256,390.657L164.066,392.232L168.522,396.688L153.731,411.479C150.005,415.206 150.197,418.164 154.039,422.006C155.691,423.658 157.765,425.194 159.148,426.116L161.223,424.426C160.262,423.696 158.38,422.351 156.613,420.584C154.192,418.164 153.462,416.205 156.382,413.285L170.75,398.917L178.395,406.562L180.701,405.102Z" style="fill:black;fill-rule:nonzero;"/>
        <path d="M179.894,447.4L193.263,434.03C197.489,429.804 198.488,427.576 198.565,425.578C198.718,423.35 197.335,420.968 194.377,418.01C191.304,414.937 187.462,412.401 185.426,411.21L183.62,413.016C185.349,414.207 189.306,416.934 191.918,419.547C194.339,421.967 195.376,423.773 195.261,425.271C195.107,426.885 194.031,428.882 190.305,432.609C182.814,426.347 177.627,422.774 174.746,422.351C173.363,422.044 171.058,422.659 168.637,425.079C166.64,427.077 165.756,428.882 165.679,430.496C165.564,432.378 166.448,434.722 169.444,437.718C173.171,441.445 176.436,442.789 177.55,442.982C177.896,443.02 179.164,442.828 179.894,442.713L180.086,442.905L178.28,445.786L179.894,447.4ZM180.701,442.213C178.972,441.637 175.322,439.831 172.057,436.566C169.713,434.222 168.868,432.301 168.906,430.957C168.983,429.804 169.636,428.46 171.019,427.077C172.633,425.463 173.977,424.887 175.053,424.964C176.897,424.887 183.275,429.651 188.576,434.338L180.701,442.213Z" style="fill:black;fill-rule:nonzero;"/>
        <path d="M219.003,424.272L192.764,450.511C189.152,454.123 189.076,457.042 192.187,460.154C193.647,461.614 195.222,462.728 196.337,463.458L198.104,461.691C197.22,461.038 196.029,460.154 194.761,458.886C192.956,457.081 192.456,455.275 195.222,452.509L221.231,426.5L219.003,424.272Z" style="fill:black;fill-rule:nonzero;"/>
        <path d="M911.296,292.352L882.483,263.539L878.487,267.534L891.088,301.188L890.435,301.841L857.204,288.818L853.055,292.967L881.868,321.78L883.981,319.667L857.281,292.967L857.895,292.352L891.319,305.337L894.43,302.225L881.829,268.418L882.406,267.842L909.106,294.542L911.296,292.352Z" style="fill:black;fill-rule:nonzero;"/>
        <path d="M908.184,274.257C915.522,281.595 921.784,282.709 928.968,275.525C931.926,272.567 934.154,269.263 935.307,267.342L933.616,265.344C932.349,267.073 930.313,270.108 927.201,273.22C921.169,279.252 916.29,277.753 910.412,271.875L926.125,256.163L923.474,253.512C917.942,247.98 912.794,246.904 906.647,253.051C899.886,259.812 900.654,266.727 908.184,274.257ZM908.261,255.125C912.909,250.477 916.674,251.091 921.438,255.855L922.206,256.624L908.76,270.07C903.958,264.653 903.305,260.081 908.261,255.125Z" style="fill:black;fill-rule:nonzero;"/>
        <path d="M912.256,229.155L938.495,255.394C942.107,259.005 945.026,259.082 948.138,255.971C949.598,254.511 950.712,252.936 951.442,251.821L949.675,250.054C949.022,250.938 948.138,252.129 946.871,253.397C945.065,255.202 943.259,255.702 940.493,252.936L914.484,226.927L912.256,229.155Z" style="fill:black;fill-rule:nonzero;"/>
        <path d="M944.181,238.26C951.519,245.598 957.781,246.712 964.965,239.528C967.923,236.57 970.152,233.266 971.304,231.345L969.614,229.347C968.346,231.076 966.31,234.111 963.198,237.223C957.166,243.254 952.287,241.756 946.41,235.878L962.122,220.165L959.471,217.514C953.939,211.982 948.791,210.907 942.645,217.053C935.883,223.815 936.651,230.73 944.181,238.26ZM944.258,219.128C948.907,214.479 952.672,215.094 957.435,219.858L958.204,220.626L944.758,234.072C939.955,228.656 939.302,224.084 944.258,219.128Z" style="fill:black;fill-rule:nonzero;"/>
        <path d="M967.808,214.633C975.146,221.971 981.408,223.085 988.592,215.901C991.55,212.943 993.778,209.639 994.931,207.718L993.241,205.72C991.973,207.449 989.937,210.484 986.825,213.596C980.793,219.627 975.914,218.129 970.036,212.251L985.749,196.538L983.098,193.888C977.566,188.356 972.418,187.28 966.271,193.427C959.51,200.188 960.278,207.103 967.808,214.633ZM967.885,195.501C972.533,190.853 976.298,191.467 981.062,196.231L981.831,196.999L968.384,210.446C963.582,205.029 962.929,200.457 967.885,195.501Z" style="fill:black;fill-rule:nonzero;"/>
        <path d="M950.033,439.827L978.846,468.64L981.113,466.374L968.474,453.734L972.469,449.739C975.389,446.819 977.579,444.937 978.846,444.668C981.267,444.091 986.453,445.974 997.287,450.2L999.746,447.741C991.639,444.553 984.763,441.825 982.189,441.556C981.305,441.518 979.538,441.979 978.347,442.401L978.27,442.324C979.307,440.211 979.999,437.753 980.076,436.984C980.153,434.756 978.923,431.375 976.003,428.456C972.776,425.228 970.126,424.345 967.897,424.729C965.746,425.036 963.21,426.65 958.716,431.145L950.033,439.827ZM954.259,439.52L960.521,433.258C964.401,429.378 966.361,428.263 968.013,428.071C969.626,427.841 971.662,428.724 974.006,431.068C977.118,434.18 977.924,437.753 976.887,440.173C976.311,441.441 975.005,443.208 972.546,445.667L966.476,451.737L954.259,439.52Z" style="fill:black;fill-rule:nonzero;"/>
        <path d="M1020.57,426.919L1007.2,413.549C1002.97,409.324 1000.74,408.325 998.747,408.248C996.518,408.094 994.137,409.477 991.178,412.435C988.105,415.509 985.569,419.351 984.379,421.387L986.184,423.192C987.375,421.464 990.103,417.507 992.715,414.894C995.135,412.474 996.941,411.437 998.439,411.552C1000.05,411.705 1002.05,412.781 1005.78,416.508C999.515,423.999 995.942,429.185 995.52,432.067C995.212,433.45 995.827,435.755 998.247,438.175C1000.25,440.173 1002.05,441.056 1003.66,441.133C1005.55,441.249 1007.89,440.365 1010.89,437.368C1014.61,433.642 1015.96,430.376 1016.15,429.262C1016.19,428.917 1016,427.649 1015.88,426.919L1016.07,426.727L1018.95,428.532L1020.57,426.919ZM1015.38,426.112C1014.81,427.841 1013,431.491 1009.73,434.756C1007.39,437.099 1005.47,437.945 1004.13,437.906C1002.97,437.829 1001.63,437.176 1000.25,435.793C998.631,434.18 998.055,432.835 998.132,431.759C998.055,429.915 1002.82,423.538 1007.51,418.236L1015.38,426.112Z" style="fill:black;fill-rule:nonzero;"/>
        <path d="M1046.15,401.333L1032.05,387.233C1029.14,384.314 1026.56,382.969 1024.26,383.046C1021.95,383.046 1019.68,384.083 1016.88,386.888C1014.15,389.615 1012.15,393.15 1011.69,394.763C1011.66,394.955 1011.77,396.838 1011.81,397.107L1011.62,397.299L1008.74,395.647L1007.12,397.26L1028.67,418.813L1030.9,416.584L1012.46,398.144C1013.46,395.762 1015.15,392.612 1017.92,389.846C1019.91,387.848 1021.99,386.542 1023.87,386.503C1025.75,386.465 1027.87,387.502 1030.59,390.23L1043.93,403.561L1046.15,401.333Z" style="fill:black;fill-rule:nonzero;"/>
        <path d="M1050,354.386L1049.61,354.771L1049.27,356.499C1046.88,357.959 1044.27,359.65 1041.54,362.377C1037.89,366.027 1036.51,369.254 1036.47,371.905C1036.47,375.593 1038.7,380.049 1043.2,384.544C1047.61,388.962 1051.42,390.614 1054.57,390.23C1056.8,389.999 1059.29,388.809 1062.33,385.774C1065.13,382.969 1066.94,380.088 1067.17,379.012C1067.28,378.666 1067.13,376.976 1067.05,376.208L1067.21,376.054L1068.36,377.206C1073.2,382.047 1074.47,384.775 1074.47,386.926C1074.35,388.809 1073.32,391.152 1070.17,394.302C1066.98,397.491 1063.71,399.834 1061.94,401.064L1063.9,403.023C1065.63,401.832 1068.9,399.642 1072.32,396.223C1076.12,392.42 1077.31,389.462 1077.43,386.965C1077.5,384.045 1076.24,380.626 1070.4,374.786L1050,354.386ZM1045.12,381.855C1041.16,377.898 1039.47,374.44 1039.43,371.79C1039.47,369.446 1040.74,367.026 1043.62,364.144C1045.89,361.878 1048.19,360.187 1049.96,358.804L1066.4,375.247C1065.36,378.052 1063.29,380.895 1061.06,383.123C1058.91,385.274 1056.49,386.772 1054.49,387.003C1052.15,387.272 1049.11,385.85 1045.12,381.855Z" style="fill:black;fill-rule:nonzero;"/>
        <path d="M1067.98,358.305C1075.31,365.643 1081.58,366.757 1088.76,359.573C1091.72,356.615 1093.95,353.311 1095.1,351.39L1093.41,349.392C1092.14,351.121 1090.1,354.156 1086.99,357.268C1080.96,363.299 1076.08,361.801 1070.2,355.923L1085.92,340.21L1083.27,337.559C1077.73,332.027 1072.59,330.952 1066.44,337.098C1059.68,343.86 1060.45,350.775 1067.98,358.305ZM1068.05,339.173C1072.7,334.524 1076.47,335.139 1081.23,339.903L1082,340.671L1068.55,354.117C1063.75,348.701 1063.1,344.129 1068.05,339.173Z" style="fill:black;fill-rule:nonzero;"/>
        <path d="M1097.13,308.093C1094.87,309.438 1092.75,310.859 1090.18,313.433C1086.92,316.699 1085.49,319.657 1085.46,322.692C1085.34,326.342 1087.68,330.836 1092.02,335.178C1096.94,340.095 1100.86,341.555 1103.63,341.324C1106.09,341.094 1108.66,339.749 1111.69,336.714C1114.65,333.756 1115.96,331.144 1116.19,330.068C1116.27,329.684 1116.15,328.109 1116.11,327.302L1116.23,327.187L1118.8,328.685L1120.53,326.956L1089.22,295.646L1086.95,297.912L1097.13,308.093ZM1094.18,332.719C1090.03,328.57 1088.34,324.958 1088.41,322.423C1088.49,320.041 1089.72,317.736 1092.41,315.047C1094.79,312.665 1097.17,311.051 1098.82,309.784L1115.46,326.418C1114.46,329.261 1112.5,331.989 1110.35,334.14C1108.08,336.407 1105.66,337.828 1103.78,337.944C1101.55,338.097 1098.4,336.945 1094.18,332.719Z" style="fill:black;fill-rule:nonzero;"/>
        <path d="M693.339,207.495L710.819,224.975C715.237,229.393 716.736,232.197 716.812,234.656C716.851,236.999 715.545,239.765 711.664,243.646C707.746,247.564 704.749,248.486 702.367,248.256C700.139,248.025 697.796,246.604 693.147,241.955L676.013,224.821L673.785,227.049L691.61,244.875C696.758,250.023 699.486,251.291 702.137,251.637C704.749,251.944 708.629,250.83 713.393,246.066C718.733,240.726 719.924,237.46 719.886,234.579C719.847,231.314 718.08,227.702 712.971,222.593L695.606,205.228L693.339,207.495Z" style="fill:black;fill-rule:nonzero;"/>
        <path d="M750.159,208.301L736.06,194.202C733.14,191.282 730.566,189.938 728.261,190.015C725.956,190.015 723.689,191.052 720.885,193.856C718.157,196.584 716.159,200.119 715.698,201.732C715.66,201.924 715.775,203.807 715.814,204.076L715.621,204.268L712.74,202.616L711.127,204.229L732.679,225.781L734.907,223.553L716.467,205.113C717.465,202.731 719.156,199.581 721.922,196.815C723.92,194.817 725.994,193.511 727.877,193.472C729.759,193.434 731.872,194.471 734.6,197.199L747.931,210.53L750.159,208.301Z" style="fill:black;fill-rule:nonzero;"/>
        <path d="M773.555,184.905L760.186,171.536C755.96,167.31 753.732,166.311 751.734,166.234C749.506,166.081 747.124,167.464 744.166,170.422C741.092,173.495 738.557,177.337 737.366,179.373L739.171,181.179C740.362,179.45 743.09,175.493 745.702,172.88C748.123,170.46 749.928,169.423 751.427,169.538C753.04,169.692 755.038,170.767 758.764,174.494C752.502,181.985 748.93,187.172 748.507,190.053C748.2,191.436 748.814,193.741 751.235,196.161C753.232,198.159 755.038,199.043 756.651,199.12C758.534,199.235 760.877,198.351 763.874,195.355C767.6,191.628 768.945,188.363 769.137,187.249C769.176,186.903 768.984,185.635 768.868,184.905L769.06,184.713L771.942,186.519L773.555,184.905ZM768.369,184.098C767.793,185.827 765.987,189.477 762.721,192.742C760.378,195.086 758.457,195.931 757.112,195.893C755.96,195.816 754.615,195.163 753.232,193.78C751.619,192.166 751.042,190.821 751.119,189.746C751.042,187.902 755.806,181.524 760.493,176.223L768.369,184.098Z" style="fill:black;fill-rule:nonzero;"/>
        <path d="M760.109,155.247L781.661,176.799L783.89,174.571L765.756,156.438C766.217,154.286 767.793,150.944 770.443,148.37C771.75,147.064 773.017,146.103 773.786,145.565L771.634,143.414C770.981,143.914 770.098,144.643 769.022,145.719C766.333,148.408 765.103,151.098 764.681,152.75C764.681,152.903 764.873,154.939 764.911,155.208L764.681,155.439L761.761,153.595L760.109,155.247Z" style="fill:black;fill-rule:nonzero;"/>
        <path d="M829.53,128.931L815.43,114.831C812.472,111.873 810.014,110.413 807.632,110.49C805.365,110.529 803.175,111.566 800.64,114.101C797.835,116.906 796.222,120.21 795.684,122.131L795.991,124.82L795.799,125.012C795.261,124.858 794.531,124.666 793.571,124.705C791.227,124.743 788.845,125.896 786.079,128.662C783.275,131.466 781.661,134.616 781.2,136.153L781.316,138.573L781.123,138.766L778.281,137.075L776.629,138.727L798.181,160.279L800.409,158.051L782.007,139.649C782.968,137.383 784.389,134.348 787.193,131.543C788.961,129.776 791.112,128.316 792.918,128.278C794.646,128.239 796.106,129.084 797.989,130.967L812.741,145.719L814.969,143.491L796.836,125.358C797.566,123.014 798.911,119.826 801.677,117.06C803.483,115.254 805.519,114.063 807.324,114.025C809.13,113.986 811.128,114.985 813.971,117.828L827.301,131.159L829.53,128.931Z" style="fill:black;fill-rule:nonzero;"/>
        <path d="M825.918,111.335C833.256,118.673 839.518,119.787 846.702,112.603C849.661,109.645 851.889,106.341 853.041,104.42L851.351,102.423C850.083,104.151 848.047,107.186 844.935,110.298C838.904,116.33 834.025,114.831 828.147,108.954L843.859,93.2407L841.209,90.5899C835.676,85.0578 830.529,83.9821 824.382,90.1289C817.62,96.8904 818.389,103.806 825.918,111.335ZM825.995,92.2034C830.644,87.5549 834.409,88.1696 839.172,92.9334L839.941,93.7017L826.495,107.148C821.692,101.731 821.039,97.1593 825.995,92.2034Z" style="fill:black;fill-rule:nonzero;"/>
        <path d="M855.077,61.1236C852.811,62.4682 850.698,63.8897 848.124,66.4636C844.858,69.7291 843.437,72.6873 843.398,75.7223C843.283,79.372 845.627,83.8668 849.968,88.208C854.885,93.1255 858.804,94.5853 861.57,94.3548C864.029,94.1243 866.603,92.7797 869.638,89.7447C872.596,86.7866 873.902,84.1742 874.133,83.0985C874.209,82.7143 874.094,81.1392 874.056,80.3324L874.171,80.2171L876.745,81.7154L878.474,79.9866L847.163,48.6763L844.897,50.9429L855.077,61.1236ZM852.119,85.7493C847.97,81.6002 846.28,77.9889 846.357,75.4534C846.433,73.0715 847.663,70.7664 850.352,68.0772C852.734,65.6953 855.116,64.0817 856.768,62.814L873.403,79.4488C872.404,82.2917 870.444,85.0193 868.293,87.1707C866.026,89.4374 863.606,90.8588 861.724,90.9741C859.495,91.1277 856.345,89.9752 852.119,85.7493Z" style="fill:black;fill-rule:nonzero;"/>
        <path d="M231.87,972.798L192.3,954.742L188.19,958.853L205.477,999.191L207.821,996.848L201.866,983.133L215.927,969.072L229.373,975.296L231.87,972.798ZM213.238,967.766L200.598,980.405L191.647,959.621L192.876,958.392L213.238,967.766Z" style="fill:black;fill-rule:nonzero;"/>
        <path d="M232.869,928.695L230.449,931.115L242.358,958.161L241.436,959.083L214.659,946.905L212.239,949.325L241.974,962.695L245.816,958.853L232.869,928.695Z" style="fill:black;fill-rule:nonzero;"/>
        <path d="M274.744,929.924L261.375,916.555C257.149,912.329 254.921,911.33 252.923,911.253C250.695,911.1 248.313,912.483 245.355,915.441C242.282,918.514 239.746,922.356 238.555,924.392L240.361,926.198C241.552,924.469 244.279,920.512 246.892,917.9C249.312,915.479 251.118,914.442 252.616,914.557C254.229,914.711 256.227,915.787 259.954,919.513C253.692,927.005 250.119,932.191 249.696,935.072C249.389,936.455 250.003,938.76 252.424,941.181C254.421,943.178 256.227,944.062 257.841,944.139C259.723,944.254 262.067,943.371 265.063,940.374C268.79,936.647 270.134,933.382 270.326,932.268C270.365,931.922 270.173,930.654 270.057,929.924L270.25,929.732L273.131,931.538L274.744,929.924ZM269.558,929.118C268.982,930.846 267.176,934.496 263.911,937.762C261.567,940.105 259.646,940.95 258.302,940.912C257.149,940.835 255.805,940.182 254.421,938.799C252.808,937.185 252.232,935.841 252.309,934.765C252.232,932.921 256.995,926.544 261.682,921.242L269.558,929.118Z" style="fill:black;fill-rule:nonzero;"/>
        <path d="M272.785,888.779L264.717,896.847L259.646,891.776L257.994,894.58L262.489,899.075L258.34,903.224L259.915,905.414L264.372,900.958L279.162,915.748C282.889,919.475 285.847,919.283 289.689,915.441C291.341,913.789 292.878,911.714 293.8,910.331L292.109,908.257C291.379,909.217 290.035,911.1 288.267,912.867C285.847,915.287 283.888,916.017 280.968,913.098L266.6,898.729L274.245,891.084L272.785,888.779Z" style="fill:black;fill-rule:nonzero;"/>
        <path d="M315.083,889.586L301.714,876.217C297.488,871.991 295.259,870.992 293.262,870.915C291.033,870.761 288.652,872.144 285.693,875.102C282.62,878.176 280.084,882.018 278.893,884.054L280.699,885.859C281.89,884.131 284.618,880.174 287.23,877.561C289.65,875.141 291.456,874.104 292.954,874.219C294.568,874.373 296.566,875.448 300.292,879.175C294.03,886.666 290.457,891.853 290.035,894.734C289.727,896.117 290.342,898.422 292.762,900.842C294.76,902.84 296.566,903.724 298.179,903.8C300.062,903.916 302.405,903.032 305.402,900.036C309.128,896.309 310.473,893.044 310.665,891.929C310.703,891.584 310.511,890.316 310.396,889.586L310.588,889.394L313.469,891.199L315.083,889.586ZM309.897,888.779C309.32,890.508 307.515,894.158 304.249,897.423C301.906,899.767 299.985,900.612 298.64,900.573C297.488,900.497 296.143,899.843 294.76,898.46C293.146,896.847 292.57,895.502 292.647,894.427C292.57,892.582 297.334,886.205 302.021,880.904L309.897,888.779Z" style="fill:black;fill-rule:nonzero;"/>
        <path d="M301.637,859.928L323.189,881.48L325.417,879.252L307.284,861.118C307.745,858.967 309.32,855.625 311.971,853.051C313.277,851.745 314.545,850.784 315.313,850.246L313.162,848.095C312.509,848.594 311.625,849.324 310.55,850.4C307.86,853.089 306.631,855.778 306.208,857.43C306.208,857.584 306.401,859.62 306.439,859.889L306.208,860.12L303.289,858.276L301.637,859.928Z" style="fill:black;fill-rule:nonzero;"/>
        <path d="M103.896,854.89L87.7993,870.987L76.1203,859.308L88.6829,846.745L87.1846,844.248L74.1226,857.31L63.0584,846.246L77.8876,831.417L76.3893,828.843L58.794,846.438L87.6072,875.251L105.279,857.579L103.896,854.89Z" style="fill:black;fill-rule:nonzero;"/>
        <path d="M109.582,833.53L125.525,837.333L128.099,834.759L110.389,830.725L106.778,812.976L104.28,815.473L107.623,831.417L105.856,833.184L90.4117,829.342L87.8761,831.878L105.126,835.988L108.967,853.891L111.503,851.355L107.853,835.258L109.582,833.53Z" style="fill:black;fill-rule:nonzero;"/>
        <path d="M124.066,795.688L115.998,803.756L110.927,798.685L109.275,801.489L113.77,805.984L109.62,810.133L111.196,812.323L115.652,807.867L130.443,822.657C134.169,826.384 137.128,826.192 140.969,822.35C142.621,820.698 144.158,818.624 145.08,817.241L143.39,815.166C142.66,816.126 141.315,818.009 139.548,819.776C137.128,822.196 135.168,822.926 132.248,820.007L117.88,805.638L125.525,797.993L124.066,795.688Z" style="fill:black;fill-rule:nonzero;"/>
        <path d="M129.828,789.926L151.38,811.478L153.609,809.25L135.476,791.117C135.937,788.965 137.512,785.623 140.163,783.049C141.469,781.743 142.736,780.782 143.505,780.244L141.353,778.093C140.7,778.592 139.817,779.322 138.741,780.398C136.052,783.087 134.822,785.777 134.4,787.428C134.4,787.582 134.592,789.618 134.63,789.887L134.4,790.118L131.48,788.274L129.828,789.926Z" style="fill:black;fill-rule:nonzero;"/>
        <path d="M174.277,766.068C169.821,761.612 166.363,760.075 163.136,759.998C160.447,759.998 157.258,761.343 153.993,764.608C150.574,768.028 149.191,771.408 149.114,774.405C148.999,778.208 151.265,782.703 155.453,786.891C159.602,791.04 163.251,792.461 165.902,792.653C168.937,792.845 172.203,791.578 175.776,788.005C179.579,784.201 180.731,780.974 180.693,777.939C180.616,774.559 178.503,770.294 174.277,766.068ZM174.085,785.853C170.973,788.965 168.361,789.657 166.133,789.503C163.828,789.349 160.639,787.621 157.412,784.394C153.493,780.475 151.957,776.556 152.072,774.059C152.149,772.138 153.071,769.526 155.722,766.875C158.411,764.186 160.754,763.225 162.944,763.264C165.288,763.302 167.977,764.301 172.395,768.719C176.237,772.561 177.658,775.903 177.697,778.631C177.697,780.859 176.467,783.471 174.085,785.853Z" style="fill:black;fill-rule:nonzero;"/>
        <path d="M194.37,767.72C196.483,766.376 198.826,764.724 201.4,762.15C204.666,758.884 205.972,755.888 206.01,753.083C206.01,749.472 203.974,745.054 199.402,740.482C194.523,735.603 190.643,734.182 187.877,734.412C185.265,734.566 182.96,735.872 180.002,738.83C177.389,741.443 175.507,744.554 175.276,745.63C175.161,745.976 175.161,747.589 175.276,748.319L175.123,748.473L172.664,747.09L170.973,748.78L203.014,780.821L205.242,778.592L194.37,767.72ZM197.289,742.979C201.439,747.128 203.129,750.817 203.052,753.352C203.052,755.734 201.784,757.924 199.095,760.613C196.752,762.956 194.331,764.685 192.603,765.953L175.968,749.318C177.005,746.514 178.926,743.825 181.154,741.596C183.613,739.138 185.726,737.87 187.685,737.678C190.029,737.562 193.217,738.907 197.289,742.979Z" style="fill:black;fill-rule:nonzero;"/>
        <path d="M213.771,705.983L211.35,708.403L223.337,735.603L222.338,736.602L195.561,724.193L193.14,726.613L222.76,740.098L224.528,738.331L230.828,753.083L233.172,750.74L213.771,705.983Z" style="fill:black;fill-rule:nonzero;"/>
        <path d="M325.869,1098.15C330.056,1093.96 331.823,1091.35 332.323,1088.39C332.822,1085.35 331.247,1081.32 327.866,1077.94C324.409,1074.48 321.335,1073.25 318.761,1073.6C316.841,1073.83 314.612,1075.29 312.115,1077.78L301.128,1088.77L329.941,1117.58L332.169,1115.36L320.413,1103.6L325.869,1098.15ZM325.638,1080.32C328.75,1083.43 329.672,1086.43 329.288,1088.66C329.019,1090.46 327.213,1092.73 323.794,1096.15L318.377,1101.56L305.315,1088.5L313.191,1080.63C315.304,1078.51 317.11,1077.17 318.8,1076.94C320.606,1076.67 322.949,1077.63 325.638,1080.32Z" style="fill:black;fill-rule:nonzero;"/>
        <path d="M333.36,1071.06L354.912,1092.61L357.141,1090.39L339.008,1072.25C339.469,1070.1 341.044,1066.76 343.695,1064.18C345.001,1062.88 346.268,1061.92 347.037,1061.38L344.885,1059.23C344.232,1059.73 343.349,1060.46 342.273,1061.53C339.584,1064.22 338.354,1066.91 337.932,1068.56C337.932,1068.72 338.124,1070.75 338.162,1071.02L337.932,1071.25L335.012,1069.41L333.36,1071.06Z" style="fill:black;fill-rule:nonzero;"/>
        <path d="M377.809,1047.2C373.353,1042.75 369.895,1041.21 366.668,1041.13C363.979,1041.13 360.79,1042.48 357.525,1045.74C354.106,1049.16 352.723,1052.54 352.646,1055.54C352.531,1059.34 354.797,1063.84 358.985,1068.03C363.134,1072.18 366.783,1073.6 369.434,1073.79C372.469,1073.98 375.735,1072.71 379.308,1069.14C383.111,1065.34 384.264,1062.11 384.225,1059.07C384.148,1055.69 382.035,1051.43 377.809,1047.2ZM377.617,1066.99C374.505,1070.1 371.893,1070.79 369.665,1070.64C367.36,1070.48 364.171,1068.76 360.944,1065.53C357.025,1061.61 355.489,1057.69 355.604,1055.19C355.681,1053.27 356.603,1050.66 359.254,1048.01C361.943,1045.32 364.286,1044.36 366.476,1044.4C368.82,1044.44 371.509,1045.44 375.927,1049.85C379.769,1053.7 381.19,1057.04 381.229,1059.77C381.229,1061.99 379.999,1064.61 377.617,1066.99Z" style="fill:black;fill-rule:nonzero;"/>
        <path d="M393.176,1034.6L409.12,1038.41L411.694,1035.83L393.983,1031.8L390.372,1014.05L387.875,1016.55L391.217,1032.49L389.45,1034.26L374.006,1030.42L371.47,1032.95L388.72,1037.06L392.562,1054.96L395.097,1052.43L391.448,1036.33L393.176,1034.6Z" style="fill:black;fill-rule:nonzero;"/>
        <path d="M413.576,990.845L411.156,993.266L423.142,1020.47L422.143,1021.46L395.366,1009.06L392.946,1011.48L422.566,1024.96L424.333,1023.19L430.634,1037.95L432.977,1035.6L413.576,990.845Z" style="fill:black;fill-rule:nonzero;"/>
        <path d="M318.285,92.9477C315.173,89.8358 313.214,86.1093 313.406,82.9975C313.637,79.5399 315.519,75.6597 320.667,70.5118C325.853,65.3254 331.347,62.8283 334.613,62.9435C337.494,63.0588 340.913,64.4802 344.64,68.2067C347.867,71.4338 349.903,74.9298 349.826,78.08C349.749,81.5376 346.906,86.1477 341.912,91.142C336.841,96.2132 331.462,98.5951 328.197,98.403C325.431,98.2493 322.05,96.7126 318.285,92.9477ZM346.714,66.1322C342.488,61.9062 338.339,60.139 334.651,59.9085C330.387,59.6396 324.163,62.4057 318.131,68.4372C311.869,74.6993 310.294,79.4247 310.179,82.6902C310.064,86.4167 311.562,90.4505 316.095,94.9838C320.629,99.5171 324.586,101.323 328.312,101.515C332.5,101.707 338.416,99.2482 344.447,93.2166C350.786,86.8777 353.015,81.8834 353.053,78.3106C353.13,74.853 351.747,71.1649 346.714,66.1322Z" style="fill:black;fill-rule:nonzero;"/>
        <path d="M369.957,104.896L361.966,96.9047L363.964,94.907C367.997,90.8731 370.533,89.8743 374.682,94.0234C376.372,95.7137 377.487,97.212 378.255,98.0572L380.022,96.29C379.446,95.5601 377.871,93.5239 376.296,91.9488C371.609,87.2619 367.613,86.8008 362.081,92.333L359.738,94.6765L355.512,90.4505L353.36,92.0641L357.855,96.5589L338.185,116.229L340.414,118.457L360.083,98.7871L367.652,106.355L369.957,104.896ZM385.055,119.994L377.064,112.003L379.062,110.005C383.096,105.971 385.631,104.972 389.78,109.121C391.471,110.812 392.585,112.31 393.353,113.155L395.12,111.388C394.544,110.658 392.969,108.622 391.394,107.047C386.707,102.36 382.711,101.899 377.179,107.431L374.836,109.775L370.61,105.549L368.458,107.162L372.953,111.657L353.284,131.327L355.512,133.555L375.182,113.885L382.75,121.454L385.055,119.994Z" style="fill:black;fill-rule:nonzero;"/>
        <path d="M377.026,133.862C369.688,141.2 368.574,147.462 375.758,154.646C378.716,157.605 382.02,159.833 383.941,160.985L385.938,159.295C384.21,158.027 381.175,155.991 378.063,152.879C372.031,146.848 373.53,141.969 379.407,136.091L395.12,151.803L397.771,149.153C403.303,143.62 404.379,138.473 398.232,132.326C391.471,125.564 384.555,126.333 377.026,133.862ZM396.158,133.939C400.806,138.588 400.191,142.353 395.428,147.116L394.659,147.885L381.213,134.439C386.63,129.636 391.202,128.983 396.158,133.939Z" style="fill:black;fill-rule:nonzero;"/>
        <path d="M408.605,186.648L422.704,172.549C425.624,169.629 426.968,167.055 426.892,164.75C426.892,162.445 425.854,160.178 423.05,157.374C420.322,154.646 416.788,152.649 415.174,152.188C414.982,152.149 413.1,152.264 412.831,152.303L412.639,152.111L414.291,149.229L412.677,147.616L391.125,169.168L393.353,171.396L411.794,152.956C414.175,153.955 417.326,155.645 420.092,158.411C422.089,160.409 423.396,162.484 423.434,164.366C423.472,166.248 422.435,168.361 419.708,171.089L406.377,184.42L408.605,186.648Z" style="fill:black;fill-rule:nonzero;"/>
        <path d="M435.536,201.746C436.995,200.286 437.879,198.711 437.994,197.059C438.11,195.331 437.111,193.026 434.69,189.145C432.424,185.573 431.617,183.69 431.732,182.269C431.809,181.193 432.462,180.232 433.269,179.426C435.997,176.698 438.84,176.468 443.373,181.001C445.639,183.267 447.215,185.304 448.598,187.224L450.442,185.38C449.404,183.805 447.637,181.423 445.255,179.042C439.531,173.317 434.921,173.394 430.964,177.351C429.735,178.581 428.736,180.117 428.62,181.616C428.352,184.036 429.581,186.418 431.886,190.183C433.884,193.41 434.844,195.369 434.767,196.829C434.614,197.905 433.999,198.903 433.192,199.71C430.464,202.438 427.852,202.592 423.011,197.751C420.668,195.407 418.632,192.68 417.364,190.797L415.482,192.68C416.634,194.601 418.939,197.52 421.091,199.672C427.622,206.203 431.732,205.55 435.536,201.746Z" style="fill:black;fill-rule:nonzero;"/>
        <path d="M438.379,216.422L459.931,194.87L457.703,192.641L436.15,214.194L438.379,216.422ZM467.614,187.878C468.114,187.378 468.421,186.917 468.383,186.418C468.383,186.034 468.114,185.611 467.653,185.15C467.153,184.651 466.654,184.382 466.385,184.42C465.924,184.266 465.348,184.535 464.771,185.112C464.272,185.611 464.003,186.11 464.003,186.495C463.965,186.917 464.234,187.34 464.771,187.878C465.194,188.3 465.693,188.646 466.116,188.684C466.577,188.761 467.115,188.377 467.614,187.878Z" style="fill:black;fill-rule:nonzero;"/>
        <path d="M485.824,220.763L483.404,218.343L456.358,230.252L455.436,229.33L467.614,202.553L465.194,200.133L451.825,229.868L455.666,233.71L485.824,220.763Z" style="fill:black;fill-rule:nonzero;"/>
        <path d="M478.755,235.592C471.418,242.93 470.304,249.192 477.488,256.376C480.446,259.334 483.75,261.563 485.671,262.715L487.668,261.025C485.94,259.757 482.905,257.721 479.793,254.609C473.761,248.577 475.259,243.698 481.137,237.82L496.85,253.533L499.501,250.882C505.033,245.35 506.109,240.202 499.962,234.056C493.2,227.294 486.285,228.062 478.755,235.592ZM497.887,235.669C502.536,240.318 501.921,244.083 497.157,248.846L496.389,249.615L482.943,236.169C488.36,231.366 492.932,230.713 497.887,235.669Z" style="fill:black;fill-rule:nonzero;"/>
    </g>
</svg>
