<svg xmlns="http://www.w3.org/2000/svg" width="612" height="792">
  <path fill="#00AEEF" fill-opacity=".647" d="M359.265 513.451l-44.893-44.893L561.04 221.892l44.892 44.892-246.667 246.667z"/>
  <path fill="#0F0" fill-opacity=".502" d="M114.088 158.815l302.61 302.611-44.893 44.892-302.61-302.61 44.893-44.893z"/>
  <path fill="red" fill-opacity=".502" d="M177.165 95.738l302.614 302.61-44.896 44.893-302.61-302.61 44.892-44.893z"/>
  <path fill="#00F" fill-opacity=".502" d="M51.011 221.892l302.61 302.61-44.893 44.893L6.119 266.784l44.892-44.892z"/>
  <path fill="#EC008C" fill-opacity=".549" d="M233.11 387.297l-44.892-44.892L434.885 95.738l44.893 44.893L233.11 387.297z"/>
  <path fill="#FFF200" fill-opacity=".8" d="M296.188 450.374l-44.892-44.892 246.667-246.667 44.894 44.893-246.669 246.666z"/>
  <path fill="#B59718" d="M306.024 350.752l44.893 44.893-44.893 44.893-44.892-44.893 44.892-44.893z"/>
  <path fill="#CE6700" d="M369.102 287.675l44.893 44.893-44.893 44.893-44.892-44.893 44.892-44.893z"/>
  <path fill="#377C21" d="M242.948 413.829l44.892 44.893-44.892 44.892-44.893-44.892 44.893-44.893z"/>
  <path fill="#1E9062" d="M369.102 413.829l44.893 44.893-44.893 44.892-44.892-44.892 44.892-44.893z"/>
  <path fill="#601D62" d="M432.179 350.754l44.895 44.891-44.895 44.891-44.891-44.891 44.891-44.891z"/>
  <path fill="#025EB2" d="M306.024 476.906l44.893 44.892-44.893 44.893-44.892-44.893 44.892-44.892z"/>
  <path fill="#30394C" d="M242.948 287.675l44.892 44.893-44.892 44.893-44.893-44.893 44.893-44.893z"/>
  <path fill="#A3042A" d="M306.024 224.598l44.893 44.893-44.893 44.893-44.892-44.893 44.892-44.893z"/>
  <path fill="#3705AA" d="M179.871 350.752l44.892 44.893-44.892 44.893-44.893-44.893 44.893-44.893z"/>
  <g fill="#FFF">
    <path d="M301.992 393.71l-6.26-16.767h-2.392l-6.706 16.766h1.363l2.257-5.722h8.183l2.102 5.722h1.453zm-3.958-6.886h-7.355l3.443-8.652h.715l3.197 8.652zM317.328 377.166a27.436 27.436 0 0 0-4.897-.425c-2.972 0-4.537.671-5.655 1.61-1.074.895-2.437 2.974-2.437 7.244 0 3.688.94 5.722 1.945 6.707 1.164 1.095 2.66 1.632 5.478 1.632 2.19 0 4.293-.448 5.723-.85v-7.98h-6.014l-.267 1.117h4.985v6.037c-1.007.178-2.393.447-4.27.447-2.326 0-3.733-.47-4.583-1.296-1.095-1.074-1.654-3.108-1.654-6.014 0-3.152 1.006-5.342 2.057-6.171.894-.738 2.257-1.252 4.694-1.252 2.169 0 3.667.201 4.897.356v-1.162zM322.358 376.942h1.32v16.766h-1.32zM293.897 406.484l-3.577-9.581h-1.366l-3.833 9.581h.78l1.29-3.27h4.676l1.2 3.27h.83zm-2.261-3.934h-4.203l1.969-4.945h.409l1.825 4.945zM301.512 399.318h-.129l-.344.23c-.639-.154-1.355-.306-2.262-.306-1.213 0-1.98.306-2.427.74-.614.613-.984 1.725-.984 3.22 0 1.467.358 2.375.945 2.835.41.331 1.023.549 2.031.549.933 0 1.712-.179 1.93-.32.076-.037.332-.344.448-.485h.05v.384c0 1.61-.242 2.274-.6 2.632-.331.293-.894.51-1.94.51-1.06 0-1.994-.153-2.493-.243v.652c.487.09 1.393.268 2.53.268 1.265 0 1.955-.294 2.389-.69.498-.473.856-1.253.856-3.195v-6.781zm-5.38 3.755c0-1.316.294-2.172.73-2.62.395-.383 1.008-.574 1.967-.574.753 0 1.418.101 1.94.166v5.468c-.638.293-1.456.42-2.196.42-.715 0-1.367-.153-1.737-.447-.435-.344-.703-1.085-.703-2.413zM304.947 406.484v-7.166h-.74v7.166h.74zm.115-9.606c0-.166-.025-.296-.115-.372-.063-.063-.178-.09-.332-.09-.167 0-.294.04-.333.09-.102.051-.153.191-.153.383 0 .166.039.296.102.358.064.076.179.103.357.103.141 0 .282-.027.358-.09.091-.064.116-.216.116-.382zM307.604 396.137v8.724c0 1.202.473 1.7 1.508 1.7.486 0 .933-.077 1.24-.141v-.587c-.255.038-.6.089-1.023.089-.6 0-.983-.217-.983-1.137v-8.648h-.742zM312.626 406.484v-7.166h-.74v7.166h.74zm.114-9.606c0-.166-.025-.296-.114-.372-.064-.063-.18-.09-.333-.09-.166 0-.294.04-.332.09-.102.051-.153.191-.153.383 0 .166.039.296.102.358.064.076.179.103.358.103.141 0 .281-.027.358-.09.089-.064.114-.216.114-.382zM319.269 399.318h-2.682v-1.687l-.741.192v1.495h-1.38l-.101.626h1.48v4.917c0 1.24.526 1.7 1.802 1.7.549 0 1.15-.09 1.533-.166l.064-.627c-.282.038-.817.129-1.406.129-.805 0-1.252-.205-1.252-1.175v-4.78h2.542l.14-.624zM326.972 399.318h-.805l-2.53 6.515h-.331l-2.39-6.515h-.805l2.683 7.166h.587l-1.406 3.5h.78l4.217-10.666z"/>
  </g>
  <g fill="#FFF">
    <path d="M230.62 326.539c0-.961-.157-2.124-.716-2.795-1.14-1.453-7.557-2.57-8.54-3.823-.335-.425-.492-1.14-.492-1.99 0-1.028.357-1.81.715-2.19.492-.582 1.722-.94 3.8-.94 2.08 0 3.264.157 4.673.312v-1.14c-1.14-.2-2.66-.356-4.494-.356-2.75 0-4.18.558-4.895 1.252-.76.738-1.118 1.945-1.118 3.175 0 .916.157 2.101.67 2.727 1.274 1.632 7.266 2.458 8.518 3.822.335.38.515 1.096.515 2.012 0 1.118-.358 1.856-.761 2.259-.47.447-1.7.805-4.001.805-2.102 0-3.577-.269-4.896-.493v1.163c1.118.268 2.795.536 4.874.536 2.393 0 4.069-.357 4.985-1.14.692-.603 1.163-1.854 1.163-3.196zM245.173 313.863h-13.235l-.313 1.185h6.058v15.583h1.296v-15.583h5.925l.269-1.185zM265.294 330.63v-16.767h-2.325l-6.125 13.458h-.38l-5.88-13.458h-2.415v16.767h1.23v-15.538h.356l5.947 13.504h1.812l6.17-13.504h.335v15.538h1.275zM223.084 341.067c0-.549-.09-1.214-.41-1.597-.652-.83-4.318-1.47-4.88-2.185-.19-.242-.281-.651-.281-1.137 0-.587.204-1.034.409-1.252.282-.332.984-.536 2.172-.536 1.188 0 1.865.09 2.67.18v-.653a14.987 14.987 0 0 0-2.568-.205c-1.572 0-2.389.32-2.798.715-.434.422-.639 1.112-.639 1.814 0 .524.09 1.201.383 1.558.729.933 4.152 1.406 4.868 2.184.192.217.294.627.294 1.15 0 .638-.205 1.06-.435 1.29-.268.256-.97.46-2.287.46-1.201 0-2.043-.153-2.798-.28v.664c.639.153 1.597.306 2.785.306 1.367 0 2.325-.204 2.849-.65.396-.344.666-1.059.666-1.826zM228.972 336.238h-2.682v-1.686l-.741.192v1.494h-1.38l-.102.626h1.482v4.919c0 1.239.524 1.699 1.8 1.699.55 0 1.15-.09 1.534-.166l.064-.626c-.282.037-.818.127-1.405.127-.806 0-1.252-.204-1.252-1.175v-4.779h2.54l.142-.625zM235.871 343.405v-4.446c0-1.405-.204-1.942-.524-2.287-.344-.396-.971-.562-1.955-.562-1.021 0-2.082.218-2.618.358v.6c.485-.09 1.597-.293 2.465-.293.805 0 1.277.127 1.507.395.243.294.397.805.397 2.043-2.287.205-3.744.473-4.293.882-.282.18-.562.665-.562 1.47 0 .665.153 1.111.409 1.392.294.332.83.575 1.827.575 1.239 0 2.006-.32 2.223-.473.065-.05.243-.294.346-.434h.063l.18.779h.535zm-.728-.996c-.384.191-1.291.498-2.377.498-.78 0-1.238-.179-1.457-.41-.178-.204-.293-.536-.293-.995 0-.536.127-.857.32-1.023.294-.319 2.146-.587 3.807-.69v2.62zM248.978 343.405v-4.688c0-.984-.166-1.635-.575-2.019-.383-.37-.92-.561-1.763-.561-.933 0-1.75.28-2.16.51l-.395.5h-.063a1.586 1.586 0 0 0-.32-.423c-.395-.383-.983-.586-1.902-.586-.933 0-1.725.255-2.057.434l-.384.422h-.064l-.19-.754h-.55v7.167h.74v-6.119c.537-.217 1.278-.485 2.21-.485.587 0 1.187.113 1.494.409.294.28.397.664.397 1.29v4.906h.74v-6.03c.51-.267 1.264-.574 2.185-.574.601 0 1.136.14 1.443.434s.473.792.473 1.738v4.432h.74zM252.402 343.405v-7.167h-.741v7.167h.741zm.115-9.607c0-.166-.026-.294-.115-.37-.064-.064-.18-.09-.332-.09-.166 0-.294.038-.332.09-.102.05-.153.19-.153.383 0 .166.038.294.102.358.064.076.179.102.358.102.141 0 .28-.026.357-.09.089-.064.115-.216.115-.383zM260.91 343.405v-4.688c0-.97-.205-1.623-.6-1.994-.385-.383-.933-.586-1.865-.586-.907 0-1.828.255-2.172.447a5.774 5.774 0 0 0-.37.409h-.065l-.204-.755h-.536v7.167h.74v-6.132c.563-.23 1.368-.472 2.287-.472.664 0 1.226.127 1.546.434.32.307.498.83.498 1.737v4.433h.74zM268.69 343.405v-4.446c0-1.405-.205-1.942-.524-2.287-.346-.396-.972-.562-1.955-.562-1.022 0-2.082.218-2.62.358v.6c.486-.09 1.597-.293 2.466-.293.804 0 1.277.127 1.507.395.242.294.396.805.396 2.043-2.287.205-3.743.473-4.292.882-.282.18-.563.665-.563 1.47 0 .665.154 1.111.41 1.392.294.332.83.575 1.826.575 1.24 0 2.006-.32 2.223-.473.064-.05.242-.294.345-.434h.064l.178.779h.539zm-.728-.996c-.383.191-1.29.498-2.376.498-.78 0-1.239-.179-1.456-.41-.18-.204-.294-.536-.294-.995 0-.536.128-.857.32-1.023.294-.319 2.146-.587 3.806-.69v2.62z"/>
  </g>
  <g fill="#FFF">
    <path d="M353.805 330.618v-7.467h7.287l.269-1.163h-7.557v-6.954h8.608l.29-1.184h-10.217v16.767h1.32zM365.698 313.85h1.319v16.767h-1.32zM385.662 330.618V313.85h-1.229v15.38h-.425l-9.546-15.38h-2.325v16.767h1.23v-15.516h.402l9.636 15.516h2.257zM347.363 343.393v-4.267h4.165l.153-.665h-4.318v-3.973h4.918l.166-.677h-5.838v9.582h.754zM354.81 343.393v-7.167h-.74v7.167h.74zm.116-9.607c0-.166-.025-.294-.115-.37-.064-.064-.179-.09-.332-.09-.166 0-.294.037-.332.09-.102.05-.153.19-.153.383 0 .166.037.294.1.358.066.076.18.102.359.102.14 0 .28-.026.357-.09.09-.064.116-.217.116-.383zM363.318 343.393v-4.688c0-.97-.204-1.623-.6-1.994-.384-.383-.933-.587-1.865-.587-.906 0-1.827.255-2.171.446a6.33 6.33 0 0 0-.37.41h-.066l-.204-.754h-.538v7.167h.741v-6.132c.563-.23 1.368-.472 2.288-.472.664 0 1.225.127 1.546.434.319.307.497.83.497 1.737v4.433h.742zM365.631 339.867c0 2.44.857 3.666 3.245 3.666.983 0 1.903-.178 2.415-.306l.05-.613c-.497.076-1.341.242-2.377.242-2.004 0-2.567-1.06-2.567-3.014h5.226v-.882c0-1.84-.678-2.874-2.722-2.874-2.248 0-3.27 1.277-3.27 3.781zm3.194-3.168c1.546 0 2.07.728 2.07 2.311v.256h-4.47c.1-1.699.752-2.567 2.4-2.567zM378.163 341.425c0-.486-.114-.894-.37-1.187-.269-.307-.818-.525-1.866-.767-.97-.217-1.418-.396-1.634-.652-.166-.192-.218-.46-.218-.728 0-.907.434-1.418 1.942-1.418.753 0 1.355.076 1.904.166v-.614a9.746 9.746 0 0 0-1.916-.191c-1.905 0-2.657.78-2.657 2.095 0 .409.088.83.318 1.098.358.447.959.64 1.968.882.87.205 1.355.37 1.584.627.155.204.219.472.219.74 0 .907-.41 1.368-2.019 1.368-.78 0-1.572-.115-2.095-.217v.626c.511.128 1.38.23 2.095.23 2.17 0 2.745-.794 2.745-2.058zM384.526 341.425c0-.486-.115-.894-.37-1.187-.269-.307-.819-.525-1.866-.767-.97-.217-1.418-.396-1.635-.652-.166-.192-.217-.46-.217-.728 0-.907.434-1.418 1.941-1.418.754 0 1.355.076 1.904.166v-.614a9.736 9.736 0 0 0-1.916-.191c-1.904 0-2.657.78-2.657 2.095 0 .409.09.83.319 1.098.357.447.959.64 1.968.882.868.205 1.355.37 1.584.627.154.204.218.472.218.74 0 .907-.409 1.368-2.019 1.368-.78 0-1.57-.115-2.094-.217v.626c.51.128 1.38.23 2.094.23 2.17 0 2.746-.794 2.746-2.058zM386.212 339.867c0 2.44.856 3.666 3.245 3.666.984 0 1.905-.178 2.415-.306l.051-.613c-.498.076-1.341.242-2.376.242-2.006 0-2.569-1.06-2.569-3.014h5.226v-.882c0-1.84-.677-2.874-2.721-2.874-2.25 0-3.27 1.277-3.27 3.781zm3.193-3.168c1.545 0 2.07.728 2.07 2.311v.256h-4.472c.104-1.699.754-2.567 2.402-2.567z"/>
  </g>
  <g fill="#FFF">
    <path d="M225.723 442.872h1.319v16.766h-1.32zM245.687 459.637v-16.765h-1.23v15.38h-.425l-9.546-15.38h-2.325v16.766h1.23v-15.515h.402l9.636 15.514h2.258zM262.276 442.872H249.04l-.314 1.184h6.059v15.582h1.296v-15.582h5.924l.27-1.184zM211.197 462.673h.68v9.102h-.68zM219.371 471.775v-4.455c0-.921-.184-1.541-.542-1.892-.346-.364-.842-.558-1.684-.558-.818 0-1.648.242-1.96.425-.034.024-.3.34-.334.388h-.057l-.185-.717h-.485v6.809h.67v-5.826a5.26 5.26 0 0 1 2.064-.449c.6 0 1.106.121 1.395.413.288.292.45.789.45 1.65v4.212h.668zM224.934 464.966h-2.421v-1.602l-.67.182v1.42h-1.245l-.092.595h1.338v4.673c0 1.177.473 1.615 1.626 1.615.495 0 1.038-.085 1.384-.159l.057-.595c-.254.037-.737.121-1.268.121-.727 0-1.13-.193-1.13-1.116v-4.54h2.294l.127-.594zM225.81 468.425c0 2.317.772 3.483 2.928 3.483.888 0 1.717-.17 2.18-.291l.046-.583c-.45.073-1.21.23-2.145.23-1.81 0-2.318-1.007-2.318-2.864h4.717v-.837c0-1.749-.612-2.73-2.456-2.73-2.03 0-2.953 1.213-2.953 3.592zm2.882-3.01c1.395 0 1.867.692 1.867 2.196v.243h-4.035c.093-1.614.68-2.44 2.168-2.44zM232.9 461.945v8.29c0 1.14.427 1.614 1.36 1.614.439 0 .842-.073 1.119-.134v-.558c-.23.037-.542.084-.922.084-.542 0-.889-.205-.889-1.08v-8.215h-.668zM236.44 461.945v8.29c0 1.14.426 1.614 1.36 1.614.438 0 .842-.073 1.118-.134v-.558c-.23.037-.542.084-.922.084-.542 0-.887-.205-.887-1.08v-8.215h-.67zM240.682 471.775v-6.809h-.668v6.809h.668zm.104-9.127c0-.158-.024-.28-.104-.353-.057-.06-.162-.084-.3-.084-.15 0-.264.036-.3.084-.092.05-.138.183-.138.365 0 .158.035.28.094.34.057.072.161.097.322.097.127 0 .254-.024.323-.085.08-.061.103-.206.103-.364zM248.039 464.966h-.116l-.312.22c-.576-.146-1.221-.292-2.04-.292-1.096 0-1.788.291-2.19.704-.554.583-.888 1.638-.888 3.058 0 1.397.324 2.258.853 2.695.369.315.923.523 1.833.523.843 0 1.545-.17 1.741-.304.07-.036.3-.328.404-.461h.046v.363c0 1.529-.219 2.161-.542 2.5-.3.28-.807.487-1.753.487-.957 0-1.798-.145-2.248-.232v.619c.438.085 1.257.255 2.283.255 1.141 0 1.764-.28 2.155-.656.45-.449.774-1.19.774-3.034v-6.445zm-4.855 3.568c0-1.25.265-2.063.658-2.488.358-.363.91-.546 1.775-.546.68 0 1.28.098 1.753.159v5.194c-.577.279-1.314.4-1.983.4-.645 0-1.233-.144-1.567-.424-.394-.329-.636-1.033-.636-2.295zM249.86 468.425c0 2.317.772 3.483 2.929 3.483a8.99 8.99 0 0 0 2.179-.291l.045-.583c-.449.073-1.21.23-2.144.23-1.81 0-2.317-1.007-2.317-2.864h4.715v-.837c0-1.749-.61-2.73-2.456-2.73-2.03 0-2.951 1.213-2.951 3.592zm2.883-3.01c1.395 0 1.867.692 1.867 2.196v.243h-4.035c.092-1.614.68-2.44 2.168-2.44zM262.232 471.775v-4.455c0-.921-.185-1.541-.542-1.892-.346-.364-.842-.558-1.685-.558-.818 0-1.649.242-1.96.425-.034.024-.3.34-.334.388h-.058l-.185-.717h-.484v6.809h.669v-5.826c.507-.219 1.234-.449 2.064-.449.6 0 1.107.121 1.396.413.288.292.45.789.45 1.65v4.212h.669zM267.188 465.427c.762 0 1.36.097 1.765.158v-.606a9.26 9.26 0 0 0-1.834-.195c-.969 0-1.695.243-2.19.753-.612.594-.923 1.637-.923 2.997 0 1.19.265 2.135.865 2.719.45.449 1.141.667 2.051.667.912 0 1.58-.17 2.03-.303v-.547c-.45.073-1.107.207-1.925.207-.704 0-1.27-.146-1.65-.523-.448-.436-.668-1.19-.668-2.305 0-1.165.242-2.027.714-2.488.371-.376.982-.534 1.765-.534zM270.1 468.425c0 2.317.772 3.483 2.929 3.483a8.99 8.99 0 0 0 2.179-.291l.047-.583c-.45.073-1.211.23-2.145.23-1.81 0-2.318-1.007-2.318-2.864h4.716v-.837c0-1.749-.611-2.73-2.455-2.73-2.03 0-2.953 1.213-2.953 3.592zm2.882-3.01c1.395 0 1.868.692 1.868 2.196v.243h-4.035c.092-1.614.68-2.44 2.167-2.44z"/>
  </g>
  <g fill="#FFF">
    <path d="M370.158 442.858h-1.386l-4.069 15.472h-.513l-4.337-15.472h-2.147l-4.94 15.472h-.47l-3.645-15.472h-1.363l3.958 16.768h2.347l4.941-15.47h.38l4.315 15.47h2.37l4.56-16.768zM373.87 442.857h1.319v16.768h-1.32zM391.71 442.858h-13.235l-.312 1.186h6.058v15.582h1.297v-15.583h5.924l.268-1.185zM367.823 462.82h-.792l-2.326 8.839h-.294l-2.478-8.84h-1.226l-2.824 8.84h-.267l-2.083-8.84h-.78l2.262 9.582h1.341l2.824-8.84h.217l2.465 8.84h1.355l2.606-9.582zM370.594 472.4v-7.166h-.74v7.167h.74zm.115-9.606c0-.166-.025-.294-.114-.371-.064-.064-.179-.089-.332-.089-.166 0-.294.038-.332.089-.101.052-.154.192-.154.384 0 .166.038.294.103.357.063.076.178.102.357.102.14 0 .281-.026.357-.09.09-.062.115-.216.115-.382zM377.237 465.233h-2.682v-1.686l-.74.192v1.494h-1.38l-.102.626h1.482v4.918c0 1.24.524 1.699 1.801 1.699.55 0 1.15-.089 1.532-.166l.065-.625c-.282.037-.817.127-1.406.127-.804 0-1.252-.204-1.252-1.175v-4.779h2.542l.14-.625zM383.343 470.434c0-.487-.114-.895-.37-1.19-.268-.306-.818-.524-1.865-.766-.97-.217-1.418-.397-1.635-.651-.166-.192-.217-.46-.217-.729 0-.907.434-1.418 1.94-1.418.754 0 1.355.077 1.904.166v-.614a9.818 9.818 0 0 0-1.916-.19c-1.903 0-2.657.779-2.657 2.094 0 .409.09.83.32 1.1.356.446.959.638 1.968.88.868.206 1.354.372 1.584.627.153.204.217.472.217.74 0 .907-.408 1.368-2.018 1.368-.78 0-1.571-.115-2.095-.218v.626c.51.128 1.38.23 2.095.23 2.17.002 2.745-.792 2.745-2.055z"/>
  </g>
  <g fill="#FFF">
    <path d="M295.04 506.143c-1.163-.201-2.46-.425-4.472-.425-2.906 0-4.494.671-5.588 1.61-1.03.827-2.482 2.973-2.482 7.266 0 3.599.894 5.656 1.922 6.662 1.163 1.096 2.594 1.678 5.455 1.678 1.923 0 3.8-.313 5.164-.671v-1.118c-1.184.223-2.995.558-4.918.558-2.348 0-3.778-.47-4.65-1.34-1.052-1.052-1.61-3.153-1.61-5.97 0-3.175 1.028-5.388 2.057-6.215.916-.716 2.257-1.23 4.672-1.23 2.125 0 3.287.202 4.45.337v-1.142zM311.94 522.708v-16.766h-1.297v7.667h-10.327v-7.667h-1.32v16.766h1.32v-7.891h10.327v7.891h1.298zM330.675 522.708l-6.26-16.766h-2.392l-6.707 16.766h1.363l2.258-5.722h8.182l2.102 5.722h1.454zm-3.957-6.885h-7.355l3.443-8.652h.715l3.197 8.652zM283.454 526.018c-.665-.115-1.406-.243-2.556-.243-1.66 0-2.567.383-3.193.919-.588.473-1.419 1.699-1.419 4.153 0 2.057.512 3.23 1.1 3.807.664.626 1.481.958 3.117.958 1.097 0 2.171-.179 2.95-.384v-.639c-.676.128-1.712.32-2.81.32-1.342 0-2.159-.268-2.658-.768-.6-.6-.92-1.801-.92-3.41 0-1.815.588-3.079 1.176-3.552.524-.409 1.291-.702 2.67-.702 1.213 0 1.877.115 2.542.19v-.65zM291.425 535.483v-4.675c0-.983-.192-1.634-.587-2.03-.396-.371-.932-.562-1.968-.562-.894 0-1.737.217-2.07.42-.05.025-.357.372-.395.434h-.05v-3.934h-.742v10.347h.741v-6.118c.524-.256 1.392-.498 2.274-.498.766 0 1.239.153 1.558.433.32.295.486.843.486 1.764v4.42h.753zM299.218 535.483v-4.445c0-1.406-.205-1.943-.524-2.288-.344-.397-.972-.563-1.954-.563-1.022 0-2.083.219-2.62.358v.6c.486-.09 1.598-.294 2.466-.294.804 0 1.277.129 1.507.396.243.294.396.804.396 2.044-2.286.205-3.743.473-4.292.882-.282.178-.563.664-.563 1.468 0 .664.154 1.112.41 1.393.294.331.83.575 1.827.575 1.239 0 2.006-.32 2.223-.473.065-.051.243-.294.344-.434h.064l.18.78h.536zm-.728-.995c-.384.19-1.29.498-2.376.498-.78 0-1.239-.179-1.457-.41-.178-.204-.293-.536-.293-.995 0-.537.127-.857.32-1.023.294-.32 2.146-.587 3.806-.69v2.62zM301.913 528.317v7.166h.741v-6.029c.435-.281 1.253-.575 2.121-.562.434 0 .805.051 1.022.09v-.716a6.202 6.202 0 0 0-.818-.051c-.895 0-1.546.242-1.891.446-.027.026-.332.397-.37.448h-.078l-.179-.792h-.548zM308.162 535.483v-7.166h-.741v7.166h.74zm.113-9.606c0-.166-.025-.294-.113-.37-.065-.065-.18-.09-.333-.09-.166 0-.295.037-.332.09-.102.05-.154.19-.154.382 0 .166.039.295.103.357.063.076.178.103.357.103.14 0 .281-.027.358-.09.09-.063.114-.216.114-.382zM315.174 533.517c0-.486-.114-.894-.37-1.188-.269-.307-.818-.525-1.866-.768-.97-.217-1.418-.396-1.634-.65-.166-.193-.218-.461-.218-.73 0-.906.434-1.417 1.942-1.417.752 0 1.354.077 1.904.165v-.613a9.83 9.83 0 0 0-1.918-.191c-1.903 0-2.656.78-2.656 2.094 0 .41.09.831.319 1.1.358.447.959.639 1.968.881.87.206 1.355.372 1.584.626.154.205.218.473.218.741 0 .907-.409 1.367-2.018 1.367-.78 0-1.572-.114-2.096-.218v.626c.51.129 1.38.231 2.096.231 2.17 0 2.745-.792 2.745-2.056zM327.758 535.483v-4.689c0-.983-.166-1.634-.575-2.018-.384-.37-.92-.561-1.763-.561-.933 0-1.75.28-2.16.51l-.395.498h-.065a1.626 1.626 0 0 0-.319-.422c-.395-.383-.983-.586-1.903-.586-.933 0-1.726.254-2.057.434l-.384.42h-.064l-.191-.753h-.55v7.166h.74v-6.118c.538-.217 1.278-.486 2.211-.486.588 0 1.189.114 1.496.41.293.28.395.663.395 1.29v4.904h.741v-6.029c.51-.268 1.265-.575 2.185-.575.6 0 1.136.141 1.443.434.307.294.473.793.473 1.738v4.432h.742zM335.55 535.483v-4.445c0-1.406-.205-1.943-.525-2.288-.344-.397-.97-.563-1.953-.563-1.023 0-2.083.219-2.62.358v.6c.486-.09 1.597-.294 2.466-.294.805 0 1.278.129 1.507.396.244.294.397.804.397 2.044-2.288.205-3.744.473-4.294.882-.281.178-.561.664-.561 1.468 0 .664.153 1.112.408 1.393.294.331.83.575 1.827.575 1.24 0 2.006-.32 2.223-.473.065-.051.244-.294.345-.434h.064l.179.78h.536zm-.728-.995c-.384.19-1.29.498-2.376.498-.781 0-1.24-.179-1.457-.41-.179-.204-.295-.536-.295-.995 0-.537.129-.857.32-1.023.294-.32 2.147-.587 3.808-.69v2.62z"/>
  </g>
  <g fill="#FFF">
    <path d="M417.42 386.868c2.437 0 3.712-.246 4.718-.96 1.028-.739 1.744-2.37 1.744-4.338 0-2.012-.538-3.264-1.387-3.913-.626-.491-1.7-.714-3.153-.714h-6.393v16.766h1.297v-6.84h3.175zm5.12-5.253c0 1.81-.604 2.951-1.363 3.488-.604.447-1.79.58-3.778.58h-3.153v-7.6h4.582c1.23 0 2.147.135 2.706.56.604.445 1.006 1.406 1.006 2.972zM438.346 392.524h-9.367v-6.796h7.31l.291-1.163h-7.601v-6.439h8.63l.311-1.184h-10.239v16.766h10.284l.381-1.184zM441.878 376.942v16.766h1.319v-7.355h2.325c1.7 0 2.884.09 3.331.38.873.536 1.833 2.592 3.756 6.974h1.431c-1.43-3.286-2.637-6.08-3.308-6.907-.246-.269-.894-.649-1.363-.873v-.045c.916-.313 1.833-.827 2.078-1.029.67-.626 1.297-1.967 1.297-3.666 0-1.879-.513-2.907-1.273-3.443-.716-.536-1.924-.806-4.539-.806h-5.054zm1.319 1.14h3.643c2.259 0 3.153.245 3.69.671.536.403.872 1.253.872 2.616 0 1.81-.806 3.084-1.812 3.487-.536.202-1.43.335-2.861.335h-3.533v-7.109zM401.233 402.575c1.392 0 2.12-.141 2.696-.55.587-.42.995-1.355.995-2.478 0-1.15-.307-1.865-.792-2.236-.357-.282-.97-.408-1.801-.408h-3.654v9.581h.741v-3.91h1.815zm2.925-3.002c0 1.035-.344 1.686-.78 1.993-.344.255-1.021.332-2.159.332h-1.8v-4.343h2.62c.702 0 1.226.076 1.544.32.346.255.575.804.575 1.698zM406.369 402.958c0 2.44.855 3.667 3.244 3.667.984 0 1.905-.178 2.414-.307l.052-.613c-.497.076-1.34.242-2.376.242-2.006 0-2.568-1.06-2.568-3.015h5.225v-.881c0-1.84-.676-2.875-2.722-2.875-2.248 0-3.27 1.278-3.27 3.782zm3.193-3.167c1.546 0 2.07.728 2.07 2.312v.256h-4.472c.103-1.7.754-2.568 2.402-2.568zM414.583 399.318v7.166h.741v-6.03c.433-.282 1.252-.574 2.12-.562.434 0 .804.052 1.022.09v-.715a6.188 6.188 0 0 0-.818-.051c-.893 0-1.544.242-1.89.446-.026.026-.333.397-.371.448h-.078l-.177-.792h-.549zM422.848 399.803c.844 0 1.507.102 1.954.166v-.639a10.786 10.786 0 0 0-2.03-.204c-1.074 0-1.878.255-2.428.792-.676.626-1.022 1.725-1.022 3.155 0 1.252.294 2.248.958 2.861.499.473 1.265.704 2.274.704a7.96 7.96 0 0 0 2.248-.32v-.575c-.498.078-1.226.218-2.133.218-.78 0-1.406-.154-1.827-.55-.5-.46-.741-1.252-.741-2.427 0-1.226.268-2.133.792-2.62.41-.395 1.086-.56 1.955-.56zM426.4 402.958c0 2.44.857 3.667 3.245 3.667.983 0 1.903-.178 2.414-.307l.052-.613c-.498.076-1.342.242-2.377.242-2.006 0-2.567-1.06-2.567-3.015h5.224v-.881c0-1.84-.677-2.875-2.72-2.875-2.25 0-3.271 1.278-3.271 3.782zm3.193-3.167c1.546 0 2.07.728 2.07 2.312v.256h-4.471c.102-1.7.755-2.568 2.401-2.568zM435.343 406.357a9.211 9.211 0 0 0 2.094.243c1.087 0 1.802-.282 2.273-.74.6-.6.997-1.675.997-3.195 0-1.622-.41-2.503-.907-2.926-.46-.409-1.06-.575-2.044-.575-.87 0-1.7.205-1.917.345-.077.038-.345.307-.447.447h-.051l-.18-.638h-.561v10.654h.74v-3.615zm4.598-3.629c0 1.38-.332 2.273-.767 2.682-.396.396-.97.55-1.865.55-.78 0-1.468-.114-1.967-.192v-5.53c.638-.295 1.404-.422 2.145-.422.817 0 1.38.14 1.738.434.41.37.716 1.124.716 2.478zM446.738 399.318h-2.683v-1.687l-.74.192v1.495h-1.38l-.102.626h1.482v4.917c0 1.24.524 1.7 1.801 1.7.55 0 1.15-.09 1.533-.166l.064-.627c-.28.038-.817.129-1.406.129-.804 0-1.252-.205-1.252-1.175v-4.78h2.543l.14-.624zM449.395 406.484v-7.166h-.74v7.166h.74zm.115-9.606c0-.166-.025-.296-.115-.372-.064-.063-.178-.09-.332-.09-.166 0-.294.04-.332.09-.1.051-.153.191-.153.383 0 .166.037.296.102.358.064.076.179.103.357.103.141 0 .28-.027.357-.09.09-.064.116-.216.116-.382zM458.324 402.74c0-1.481-.32-2.312-.843-2.86-.448-.448-1.201-.754-2.287-.754-1.136 0-1.928.332-2.439.817-.65.614-1.022 1.738-1.022 3.13 0 1.38.371 2.223.78 2.695.472.538 1.226.87 2.413.87 1.266 0 1.994-.345 2.492-.857.55-.574.906-1.634.906-3.04zm-3.32 3.259c-1.035 0-1.585-.32-1.93-.716-.356-.409-.6-1.226-.6-2.3 0-1.302.396-2.21.83-2.606.332-.307.92-.588 1.802-.588.894 0 1.443.231 1.801.6.384.396.665 1.01.665 2.478 0 1.279-.32 2.07-.767 2.53-.372.371-1.01.602-1.802.602zM466.476 406.484v-4.689c0-.97-.206-1.623-.601-1.993-.383-.384-.932-.586-1.864-.586-.907 0-1.827.254-2.172.446a6.33 6.33 0 0 0-.37.41h-.065l-.205-.754h-.536v7.166h.74v-6.132c.562-.23 1.367-.473 2.287-.473.663 0 1.226.128 1.544.433.32.307.499.83.499 1.739v4.432h.743z"/>
  </g>
  <g fill="#FFF">
    <path d="M181.458 376.942h-1.386l-4.069 15.47h-.514l-4.337-15.47h-2.147l-4.94 15.47h-.47l-3.645-15.47h-1.364l3.958 16.766h2.348l4.94-15.47h.381l4.315 15.47h2.37l4.56-16.766zM185.17 376.942h1.319v16.766h-1.32zM192.905 376.942h-1.296v16.766h9.926l.38-1.185h-9.01v-15.581zM159.26 396.904h-.793l-2.325 8.84h-.293l-2.479-8.84h-1.226l-2.823 8.84h-.268l-2.082-8.84h-.78l2.262 9.581h1.342l2.823-8.84h.217l2.466 8.84h1.354l2.605-9.581zM162.031 406.484v-7.166h-.74v7.166h.74zm.115-9.606c0-.166-.025-.296-.115-.372-.064-.063-.18-.09-.333-.09-.165 0-.294.04-.331.09-.103.051-.154.191-.154.383 0 .166.039.296.102.358.064.076.179.103.357.103.141 0 .282-.027.358-.09.09-.064.116-.216.116-.382zM164.688 396.137v8.724c0 1.202.473 1.7 1.507 1.7a6.09 6.09 0 0 0 1.24-.141v-.587c-.255.038-.6.089-1.021.089-.6 0-.985-.217-.985-1.137v-8.648h-.74zM168.93 396.137v8.724c0 1.202.472 1.7 1.507 1.7.486 0 .933-.077 1.238-.141v-.587c-.255.038-.6.089-1.022.089-.6 0-.983-.217-.983-1.137v-8.648h-.74zM173.937 406.357c.575.128 1.24.243 2.096.243 1.086 0 1.8-.282 2.274-.74.6-.6.996-1.675.996-3.195 0-1.622-.409-2.503-.908-2.926-.459-.409-1.06-.575-2.043-.575-.868 0-1.7.205-1.916.345-.077.038-.346.307-.448.447h-.052l-.178-.638h-.563v10.654h.741v-3.615zm4.6-3.629c0 1.38-.333 2.273-.767 2.682-.395.396-.97.55-1.865.55-.78 0-1.468-.114-1.968-.192v-5.53c.639-.295 1.406-.422 2.147-.422.818 0 1.38.14 1.737.434.408.37.715 1.124.715 2.478zM187.875 402.74c0-1.481-.32-2.312-.844-2.86-.447-.448-1.2-.754-2.286-.754-1.138 0-1.929.332-2.44.817-.653.614-1.022 1.738-1.022 3.13 0 1.38.37 2.223.78 2.695.472.538 1.226.87 2.415.87 1.263 0 1.992-.345 2.49-.857.55-.574.907-1.634.907-3.04zM184.553 406c-1.035 0-1.584-.32-1.93-.716-.357-.409-.6-1.226-.6-2.3 0-1.302.396-2.21.83-2.606.333-.307.92-.588 1.802-.588.894 0 1.444.231 1.801.6.383.396.664 1.01.664 2.478 0 1.279-.32 2.07-.767 2.53-.368.371-1.007.602-1.8.602zM200.293 399.318h-.741l-1.891 6.476h-.281l-1.929-6.476h-1.201l-2.21 6.476h-.282l-1.597-6.476h-.753l1.826 7.166h1.265l2.197-6.477h.23l1.929 6.477h1.252l2.186-7.166zM201.863 402.958c0 2.44.857 3.667 3.245 3.667.984 0 1.903-.178 2.415-.307l.05-.613c-.497.076-1.34.242-2.375.242-2.006 0-2.569-1.06-2.569-3.015h5.226v-.881c0-1.84-.677-2.875-2.721-2.875-2.248 0-3.27 1.278-3.27 3.782zm3.195-3.167c1.545 0 2.068.728 2.068 2.312v.256h-4.47c.102-1.7.753-2.568 2.402-2.568zM210.078 399.318v7.166h.74v-6.03c.435-.282 1.253-.574 2.121-.562.434 0 .806.052 1.022.09v-.715a6.188 6.188 0 0 0-.818-.051c-.895 0-1.546.242-1.891.446-.025.026-.332.397-.37.448h-.077l-.178-.792h-.55z"/>
  </g>
  <g fill="#FFF">
    <path d="M297.218 266.31c0-.961-.156-2.124-.715-2.795-1.14-1.452-7.556-2.571-8.54-3.822-.336-.425-.492-1.14-.492-1.99 0-1.027.357-1.81.715-2.19.491-.581 1.722-.94 3.8-.94 2.08 0 3.264.157 4.673.313v-1.14c-1.14-.201-2.66-.357-4.494-.357-2.75 0-4.18.558-4.896 1.252-.76.738-1.117 1.946-1.117 3.175 0 .916.156 2.102.67 2.727 1.275 1.632 7.266 2.459 8.519 3.823.335.38.514 1.096.514 2.012 0 1.118-.358 1.856-.76 2.258-.47.447-1.7.805-4.002.805-2.102 0-3.577-.268-4.896-.493v1.163c1.117.268 2.794.536 4.873.536 2.393 0 4.07-.356 4.986-1.14.693-.603 1.162-1.856 1.162-3.197zM311.773 253.634h-13.236l-.312 1.185h6.059V270.4h1.297V254.82h5.924l.268-1.185zM314.724 253.634v16.767h1.32v-7.355h2.324c1.698 0 2.884.09 3.331.38.872.536 1.833 2.593 3.756 6.974h1.431c-1.43-3.285-2.637-6.08-3.308-6.908-.246-.268-.894-.648-1.364-.871v-.045c.917-.313 1.834-.827 2.079-1.029.67-.625 1.297-1.967 1.297-3.666 0-1.878-.514-2.907-1.274-3.443-.715-.536-1.923-.806-4.538-.806h-5.054zm1.32 1.14h3.643c2.258 0 3.152.245 3.689.67.536.402.872 1.252.872 2.616 0 1.811-.805 3.085-1.812 3.487-.536.202-1.43.335-2.861.335h-3.533v-7.108zM284.271 280.84c0-.55-.09-1.214-.408-1.597-.652-.831-4.318-1.47-4.88-2.186-.19-.242-.28-.65-.28-1.136 0-.588.204-1.034.408-1.252.281-.332.984-.537 2.172-.537 1.188 0 1.865.089 2.67.179v-.652a15.01 15.01 0 0 0-2.569-.204c-1.571 0-2.388.32-2.798.715-.434.421-.638 1.111-.638 1.814 0 .523.09 1.2.383 1.558.728.933 4.151 1.405 4.867 2.185.192.217.293.625.293 1.149 0 .639-.203 1.06-.434 1.291-.268.256-.97.46-2.286.46-1.201 0-2.045-.153-2.797-.282v.664c.639.154 1.597.307 2.784.307 1.367 0 2.325-.205 2.85-.651.395-.345.663-1.06.663-1.826zM290.16 276.01h-2.682v-1.687l-.74.192v1.495h-1.38l-.103.626h1.482v4.917c0 1.24.524 1.7 1.801 1.7.55 0 1.15-.09 1.534-.167l.063-.626c-.282.038-.818.129-1.406.129-.804 0-1.252-.205-1.252-1.176v-4.777h2.542l.141-.626zM292.077 276.01v7.166h.741v-6.03c.434-.282 1.253-.575 2.121-.562.434 0 .805.052 1.023.09v-.716a6.202 6.202 0 0 0-.818-.05c-.895 0-1.546.241-1.892.446-.026.026-.331.397-.37.448h-.076l-.18-.792h-.549zM296.843 279.65c0 2.44.855 3.667 3.244 3.667.983 0 1.904-.178 2.415-.307l.051-.612c-.499.076-1.342.242-2.376.242-2.006 0-2.568-1.06-2.568-3.015h5.225v-.882c0-1.84-.677-2.874-2.72-2.874-2.25 0-3.271 1.277-3.271 3.782zm3.193-3.168c1.546 0 2.07.729 2.07 2.312v.256h-4.472c.102-1.698.754-2.568 2.402-2.568zM310.869 283.176v-4.689c0-.97-.205-1.623-.6-1.992-.383-.384-.933-.588-1.865-.588-.907 0-1.827.256-2.172.447a6.33 6.33 0 0 0-.37.41h-.064l-.205-.754h-.536v7.166h.74v-6.132c.563-.23 1.368-.473 2.287-.473.664 0 1.227.127 1.546.434s.498.83.498 1.738v4.432h.74zM319.314 276.01h-.129l-.344.23c-.639-.153-1.355-.307-2.26-.307-1.214 0-1.981.307-2.428.741-.614.614-.983 1.726-.983 3.22 0 1.468.358 2.375.945 2.835.409.332 1.022.55 2.03.55.934 0 1.713-.179 1.93-.32.076-.037.332-.344.448-.485h.05v.383c0 1.61-.241 2.274-.6 2.632-.331.293-.893.51-1.94.51-1.06 0-1.994-.153-2.492-.243v.652c.486.089 1.393.268 2.53.268 1.265 0 1.955-.294 2.39-.69.497-.472.856-1.252.856-3.193v-6.783zm-5.38 3.756c0-1.316.295-2.172.73-2.619.396-.383 1.009-.575 1.968-.575.753 0 1.418.102 1.94.166v5.468c-.638.294-1.455.421-2.196.421-.715 0-1.367-.153-1.738-.447-.435-.345-.703-1.086-.703-2.414zM325.956 276.01h-2.682v-1.687l-.74.192v1.495h-1.38l-.102.626h1.481v4.917c0 1.24.525 1.7 1.803 1.7.549 0 1.149-.09 1.533-.167l.063-.626c-.28.038-.817.129-1.404.129-.805 0-1.253-.205-1.253-1.176v-4.777h2.543l.138-.626zM333.673 283.176v-4.675c0-.984-.192-1.636-.588-2.031-.396-.37-.933-.563-1.968-.563-.894 0-1.738.217-2.07.422-.052.025-.357.37-.396.434h-.051v-3.934h-.741v10.347h.74v-6.12c.525-.254 1.393-.497 2.275-.497.766 0 1.239.153 1.558.434.318.294.485.843.485 1.762v4.421h.756z"/>
  </g>
  <g>
    <path d="M114.662 173.615l-11.856 11.857 3.493 3.494c2.356 2.355 4 3.177 5.47 3.288 1.754.11 4.188-.996 6.623-3.43 2.497-2.498 3.509-4.522 3.477-6.008-.032-1.39-.964-2.956-3.161-5.154l-4.046-4.047zm3.067 4.775c1.47 1.47 2.767 3.019 2.735 4.348-.016 1.502-1.201 3.32-3.035 5.153-2.213 2.213-4.3 3.225-5.722 3.098-1.17-.126-2.577-.901-4.679-3.003l-2.434-2.435 10.149-10.149 2.986 2.988zM119.278 193.218c-3.02 3.02-3.478 5.596-.522 8.552 1.218 1.217 2.577 2.134 3.368 2.608l.822-.695c-.712-.522-1.961-1.36-3.241-2.64-2.482-2.482-1.866-4.49.553-6.909l6.465 6.465 1.09-1.09c2.277-2.277 2.72-4.395.19-6.925-2.78-2.78-5.627-2.464-8.725.634zm7.873.031c1.913 1.913 1.66 3.462-.3 5.422l-.316.316-5.532-5.532c2.227-1.976 4.109-2.245 6.148-.206zM138.533 203.462l-3.289-3.288.822-.823c1.66-1.66 2.704-2.07 4.411-.363.696.696 1.154 1.312 1.47 1.66l.728-.728c-.238-.3-.886-1.137-1.535-1.786-1.928-1.928-3.573-2.118-5.85.159l-.963.963-1.739-1.738-.885.664 1.85 1.85-8.095 8.093.918.917 8.093-8.094 3.114 3.114.95-.6zM134.739 208.678c-3.02 3.02-3.477 5.597-.522 8.552 1.218 1.218 2.577 2.135 3.367 2.61l.822-.696c-.711-.521-1.96-1.36-3.24-2.64-2.482-2.482-1.866-4.49.553-6.91l6.466 6.467 1.09-1.09c2.277-2.277 2.72-4.395.19-6.925-2.782-2.782-5.628-2.466-8.726.632zm7.873.032c1.913 1.913 1.66 3.462-.3 5.422l-.317.316-5.533-5.533c2.229-1.976 4.11-2.245 6.15-.205zM147.733 230.398l5.801-5.8c1.202-1.202 1.755-2.26 1.723-3.21 0-.947-.426-1.88-1.58-3.034-1.123-1.123-2.578-1.945-3.241-2.134-.079-.017-.853.031-.964.047l-.079-.08.68-1.185-.665-.664-8.868 8.868.917.918 7.588-7.588c.98.411 2.276 1.106 3.414 2.244.822.822 1.36 1.676 1.375 2.45.016.776-.41 1.645-1.533 2.767l-5.485 5.486.917.915zM158.814 236.612c.602-.601.964-1.249 1.012-1.928.047-.712-.364-1.66-1.36-3.257-.933-1.47-1.265-2.245-1.217-2.83.031-.443.3-.838.632-1.17 1.122-1.123 2.293-1.217 4.158.648.933.933 1.58 1.77 2.15 2.562l.76-.76a17.007 17.007 0 0 0-2.135-2.607c-2.355-2.356-4.252-2.324-5.88-.696-.505.506-.917 1.14-.964 1.755-.111.996.394 1.976 1.343 3.525.822 1.328 1.218 2.134 1.186 2.735-.064.442-.317.853-.65 1.185-1.122 1.123-2.197 1.186-4.188-.805-.964-.965-1.802-2.087-2.323-2.862l-.775.775c.475.79 1.424 1.991 2.309 2.876 2.686 2.688 4.378 2.418 5.942.854zM159.985 242.65l8.87-8.868-.918-.917-8.869 8.868.917.918zm12.03-11.745c.206-.206.332-.396.316-.601 0-.158-.111-.332-.3-.522-.207-.206-.412-.316-.522-.3-.19-.064-.427.047-.665.285-.205.206-.316.41-.316.569-.016.173.095.347.316.568.174.174.379.317.553.332.19.032.412-.125.618-.331zM179.508 244.437l-.996-.996-11.13 4.9-.379-.379 5.012-11.018-.996-.996-5.501 12.235 1.58 1.58 12.41-5.326zM176.599 250.539c-3.02 3.02-3.478 5.595-.522 8.552 1.218 1.217 2.577 2.134 3.367 2.608l.822-.696c-.712-.52-1.96-1.359-3.24-2.64-2.482-2.481-1.866-4.489.553-6.908l6.466 6.466 1.09-1.09c2.277-2.277 2.72-4.395.19-6.925-2.782-2.782-5.628-2.465-8.726.633zm7.873.031c1.913 1.913 1.66 3.462-.3 5.422l-.317.317-5.533-5.534c2.23-1.975 4.11-2.244 6.15-.205zM96.64 210.923l7.43-16.283-1.692-1.692-16.598 7.114.965.965 5.643-2.451 5.786 5.786-2.561 5.533 1.028 1.028zm2.072-7.667l-5.2-5.201 8.551-3.683.506.505-3.857 8.379zM112.354 208.9l-3.32-3.32 2.087-2.086-1.154-.68-1.85 1.85-1.707-1.708-.901.648 1.833 1.834-6.085 6.086c-1.534 1.533-1.455 2.75.126 4.332.68.68 1.534 1.312 2.104 1.691l.853-.696c-.394-.3-1.17-.854-1.897-1.581-.995-.996-1.296-1.802-.094-3.004l5.912-5.912 3.146 3.146.947-.6zM119.452 215.998l-3.32-3.32 2.087-2.087-1.155-.68-1.85 1.85-1.706-1.707-.902.648 1.834 1.834-6.086 6.086c-1.533 1.533-1.454 2.75.127 4.331.68.68 1.534 1.312 2.103 1.692l.853-.695c-.394-.3-1.17-.854-1.896-1.581-.996-.996-1.296-1.802-.095-3.004l5.912-5.911 3.146 3.146.948-.602zM121.823 218.37l-8.868 8.868.917.917 7.461-7.461c.885.19 2.26.837 3.32 1.928.537.537.933 1.06 1.154 1.375l.886-.885a10.637 10.637 0 0 0-.948-1.075c-1.107-1.107-2.213-1.613-2.893-1.786-.064 0-.901.079-1.013.094l-.094-.094.759-1.201-.68-.68zM120.685 234.967l8.869-8.869-.917-.916-8.868 8.869.916.916zm12.03-11.745c.205-.205.332-.395.316-.6 0-.159-.11-.333-.3-.522-.205-.206-.41-.316-.521-.3-.19-.064-.427.047-.664.285-.205.205-.317.41-.316.568-.016.174.095.348.316.568.174.174.379.316.552.332.19.033.411-.125.617-.331zM136.493 241.07c1.818-1.82 2.45-3.368 2.387-4.57-.063-.948-.537-1.96-1.77-3.193-1.202-1.2-2.53-1.96-2.956-2.04-.142-.046-.854-.062-1.154-.015l-.063-.063 4.789-4.79-.917-.916-12.804 12.804.127.126.726.19c.601.98 1.376 2.07 2.466 3.162 1.502 1.503 2.75 2.087 3.92 2.119 1.487.03 3.368-.934 5.249-2.815zm-1.138-.76c-1.644 1.645-3.147 2.356-4.253 2.324-.916-.032-1.896-.538-3.098-1.739-.902-.901-1.645-1.898-2.166-2.609l6.781-6.781c1.123.427 2.356 1.312 3.32 2.276 1.06 1.06 1.487 1.897 1.534 2.672.048.87-.458 2.198-2.118 3.858zM141.695 255.977l8.868-8.87-.916-.916-7.572 7.572a10.128 10.128 0 0 1-3.351-2.182c-.965-.964-1.471-1.786-1.455-2.561.016-.743.41-1.58 1.613-2.783l5.407-5.407-.918-.917-5.753 5.754c-1.218 1.217-1.692 2.228-1.724 3.178-.015.995.38 1.928 1.66 3.209 1.108 1.106 2.42 1.881 3.083 2.102.047.015.917-.095 1.011-.127l.095.095-.711 1.185.665.665zM158.783 255.33l-3.32-3.32 2.087-2.088-1.153-.68-1.85 1.85-1.707-1.708-.901.65 1.834 1.833-6.086 6.086c-1.534 1.533-1.455 2.75.127 4.331.68.68 1.532 1.312 2.101 1.692l.855-.695c-.396-.301-1.17-.854-1.897-1.582-.997-.996-1.298-1.802-.095-3.004l5.912-5.912 3.146 3.146.947-.6zM155.89 261.446c-3.02 3.02-3.478 5.596-.522 8.552 1.218 1.218 2.577 2.134 3.367 2.609l.823-.696c-.711-.522-1.96-1.36-3.24-2.64-2.482-2.481-1.866-4.49.553-6.908l6.466 6.466 1.091-1.091c2.277-2.277 2.72-4.395.19-6.925-2.784-2.781-5.63-2.465-8.728.633zm7.873.032c1.913 1.913 1.66 3.462-.3 5.422l-.317.316-5.533-5.533c2.23-1.975 4.11-2.245 6.15-.205zM169.469 278.883c.6-.6.964-1.25 1.012-1.928.047-.711-.363-1.66-1.36-3.256-.932-1.47-1.265-2.245-1.217-2.83.031-.443.3-.837.632-1.169 1.123-1.122 2.291-1.217 4.158.648.932.933 1.58 1.771 2.15 2.561l.758-.758a17.016 17.016 0 0 0-2.134-2.608c-2.356-2.356-4.252-2.323-5.88-.695-.506.505-.917 1.138-.965 1.754-.11.995.396 1.976 1.344 3.525.821 1.328 1.217 2.135 1.185 2.735-.062.442-.316.853-.647 1.186-1.122 1.122-2.197 1.185-4.19-.807-.963-.964-1.8-2.086-2.323-2.86l-.774.773c.474.791 1.422 1.992 2.307 2.878 2.688 2.684 4.38 2.416 5.944.851z"/>
  </g>
  <g>
    <path d="M51.862 260.697L63.72 248.84l-1.644-1.644-13.848 5.185-.269-.269 5.359-13.674-1.708-1.707-11.856 11.855.87.87 10.986-10.987.253.253-5.343 13.753 1.28 1.28 13.912-5.184.238.238-10.987 10.986.9.902zM59.308 259.417c-3.02 3.02-3.478 5.596-.521 8.552 1.217 1.218 2.577 2.135 3.367 2.61l.822-.696c-.711-.521-1.96-1.36-3.24-2.64-2.482-2.481-1.866-4.49.553-6.908l6.466 6.466 1.09-1.091c2.277-2.277 2.72-4.395.19-6.924-2.784-2.783-5.629-2.468-8.727.631zm7.873.031c1.913 1.913 1.66 3.462-.3 5.422l-.317.317-5.533-5.534c2.23-1.975 4.11-2.244 6.15-.205zM72.303 281.137l5.8-5.8c1.202-1.202 1.756-2.262 1.724-3.21 0-.948-.427-1.881-1.581-3.035-1.123-1.123-2.577-1.944-3.241-2.134-.079-.017-.854.03-.964.047l-.08-.08.68-1.185-.664-.664-8.868 8.868.917.916 7.588-7.587c.98.412 2.276 1.106 3.415 2.245.822.822 1.358 1.676 1.375 2.45.015.774-.411 1.644-1.534 2.766l-5.485 5.485.918.918zM89.202 280.3l-3.32-3.321 2.086-2.086-1.154-.68-1.85 1.849-1.707-1.708-.901.649 1.834 1.834-6.086 6.085c-1.534 1.534-1.454 2.752.127 4.332.68.68 1.533 1.312 2.102 1.692l.854-.696c-.395-.3-1.17-.853-1.896-1.58-.996-.996-1.296-1.802-.095-3.004l5.913-5.912 3.145 3.146.948-.6zM88.87 297.704l5.5-5.5c1.74-1.74 2.15-2.656 2.183-3.478.063-.917-.506-1.898-1.723-3.115-1.265-1.264-2.847-2.308-3.684-2.798l-.742.743c.711.49 2.34 1.611 3.415 2.687.995.995 1.422 1.738 1.375 2.355-.063.664-.506 1.486-2.04 3.02-3.082-2.576-5.217-4.047-6.402-4.221-.568-.127-1.517.127-2.514 1.122-.822.822-1.185 1.565-1.218 2.229-.047.775.316 1.738 1.55 2.972 1.533 1.534 2.877 2.086 3.336 2.166.142.016.664-.063.964-.11l.079.078-.743 1.185.664.665zm.331-2.133c-.711-.238-2.213-.98-3.557-2.325-.963-.963-1.312-1.754-1.296-2.307.031-.475.3-1.028.869-1.597.664-.664 1.217-.901 1.66-.87.759-.032 3.382 1.929 5.565 3.857L89.2 295.57zM104.962 288.188l-10.797 10.797c-1.487 1.486-1.518 2.687-.237 3.968.6.6 1.25 1.059 1.707 1.36l.727-.728a11.532 11.532 0 0 1-1.375-1.154c-.743-.742-.949-1.486.19-2.624l10.702-10.702-.917-.917zM33.557 274.008l7.43-16.282-1.693-1.692-16.597 7.114.964.964 5.644-2.45 5.785 5.786-2.561 5.532 1.028 1.028zm2.07-7.666l-5.2-5.2 8.55-3.685.507.507-3.857 8.378zM49.27 271.985l-3.32-3.32 2.086-2.087-1.153-.68-1.85 1.85-1.707-1.707-.902.648 1.834 1.834-6.086 6.086c-1.533 1.533-1.454 2.75.127 4.332.68.68 1.533 1.312 2.102 1.692l.854-.696c-.395-.3-1.17-.854-1.896-1.58-.996-.996-1.296-1.803-.095-3.004l5.913-5.913 3.146 3.146.946-.601zM56.368 279.082l-3.319-3.32 2.087-2.086-1.154-.68-1.85 1.85-1.707-1.707-.902.648 1.834 1.833-6.086 6.086c-1.533 1.534-1.454 2.751.127 4.332.68.68 1.534 1.312 2.102 1.692l.854-.696c-.395-.3-1.17-.853-1.896-1.58-.996-.996-1.297-1.802-.095-3.003l5.912-5.913 3.146 3.146.947-.602zM58.739 281.454l-8.868 8.868.917.917 7.461-7.461c.885.19 2.26.837 3.32 1.928a10.4 10.4 0 0 1 1.153 1.376l.886-.886c-.206-.27-.507-.633-.95-1.076-1.106-1.106-2.213-1.612-2.892-1.786-.064 0-.901.08-1.013.095l-.094-.095.759-1.201-.68-.679zM57.6 298.052l8.869-8.868-.917-.917-8.868 8.87.917.915zm12.03-11.745c.206-.205.332-.395.317-.601 0-.159-.11-.332-.3-.522-.206-.206-.412-.316-.522-.3-.19-.064-.427.047-.664.284-.206.206-.316.411-.316.57-.015.173.094.347.316.568.174.174.38.316.553.331.19.034.41-.124.617-.33zM73.41 304.155c1.817-1.819 2.45-3.368 2.386-4.569-.062-.948-.538-1.96-1.77-3.194-1.202-1.201-2.529-1.96-2.956-2.039-.143-.047-.854-.062-1.154-.015l-.063-.064 4.79-4.79-.917-.916-12.804 12.805.126.126.727.19c.6.98 1.375 2.07 2.466 3.16 1.502 1.503 2.75 2.088 3.92 2.12 1.485.03 3.367-.933 5.248-2.814zm-1.139-.759c-1.644 1.644-3.146 2.356-4.253 2.324-.915-.032-1.897-.538-3.098-1.74-.901-.9-1.644-1.896-2.166-2.608l6.782-6.782c1.122.427 2.355 1.312 3.32 2.277 1.06 1.06 1.485 1.897 1.533 2.671.048.87-.458 2.198-2.118 3.858zM78.61 319.06l8.868-8.868-.916-.917-7.573 7.572a10.123 10.123 0 0 1-3.351-2.18c-.965-.965-1.47-1.787-1.454-2.562.015-.743.41-1.58 1.612-2.782l5.407-5.407-.918-.917-5.753 5.754c-1.218 1.218-1.692 2.229-1.724 3.178-.016.996.38 1.929 1.66 3.209 1.108 1.107 2.42 1.88 3.083 2.102.047.016.917-.096 1.011-.127l.095.096-.711 1.185.663.665zM95.699 318.413l-3.32-3.32 2.087-2.087-1.154-.68-1.85 1.85-1.707-1.708-.901.65 1.833 1.833-6.085 6.086c-1.534 1.533-1.455 2.75.127 4.332.68.68 1.533 1.312 2.103 1.69l.853-.695c-.394-.3-1.17-.854-1.896-1.58-.996-.997-1.297-1.803-.095-3.003l5.912-5.913 3.146 3.146.947-.601zM92.805 324.531c-3.019 3.019-3.478 5.596-.521 8.552 1.217 1.217 2.577 2.134 3.367 2.609l.822-.697c-.711-.52-1.96-1.358-3.242-2.64-2.482-2.481-1.865-4.49.554-6.907l6.466 6.465 1.091-1.09c2.277-2.277 2.72-4.395.19-6.924-2.782-2.782-5.628-2.467-8.727.632zm7.874.032c1.912 1.912 1.66 3.461-.3 5.421l-.317.317-5.534-5.533c2.23-1.975 4.11-2.244 6.15-.205zM106.385 341.967c.6-.6.965-1.25 1.012-1.928.047-.711-.364-1.66-1.36-3.256-.932-1.47-1.264-2.245-1.217-2.83.03-.442.3-.837.632-1.17 1.122-1.122 2.292-1.217 4.157.648.933.933 1.58 1.771 2.15 2.561l.76-.759a17.097 17.097 0 0 0-2.135-2.607c-2.355-2.356-4.253-2.324-5.88-.696-.507.506-.918 1.138-.966 1.755-.11.995.396 1.976 1.344 3.525.823 1.327 1.218 2.134 1.185 2.735-.063.442-.316.854-.648 1.185-1.122 1.122-2.197 1.186-4.188-.806-.965-.965-1.803-2.087-2.324-2.861l-.774.774c.474.79 1.422 1.99 2.308 2.876 2.688 2.688 4.379 2.42 5.944.854z"/>
  </g>
  <g>
    <path d="M456.874 237.845l-11.856-11.856-1.643 1.643 5.185 13.848-.27.269-13.674-5.36-1.707 1.708 11.856 11.855.87-.869-10.988-10.986.254-.254 13.753 5.344 1.28-1.28-5.184-13.911.236-.238 10.988 10.986.9-.899zM455.594 230.4c3.02 3.019 5.597 3.476 8.553.52 1.217-1.217 2.134-2.577 2.609-3.367l-.697-.822c-.52.711-1.36 1.96-2.64 3.24-2.482 2.483-4.49 1.866-6.908-.553l6.466-6.466-1.09-1.091c-2.277-2.277-4.395-2.72-6.925-.19-2.782 2.784-2.466 5.63.632 8.728zm.032-7.874c1.912-1.914 3.462-1.66 5.422.3l.316.317-5.533 5.533c-1.975-2.23-2.245-4.11-.205-6.15zM457.27 211.84l10.796 10.797c1.487 1.486 2.688 1.517 3.968.236.601-.6 1.06-1.248 1.36-1.706l-.727-.728a11.29 11.29 0 0 1-1.154 1.376c-.743.742-1.487.948-2.625-.19l-10.701-10.703-.918.918zM470.406 215.587c3.02 3.019 5.596 3.478 8.553.522 1.217-1.218 2.134-2.578 2.608-3.368l-.695-.822c-.522.712-1.36 1.96-2.64 3.24-2.482 2.483-4.49 1.866-6.908-.553l6.464-6.466-1.09-1.09c-2.276-2.276-4.394-2.719-6.924-.19-2.783 2.784-2.466 5.628.632 8.727zm.031-7.872c1.913-1.913 3.463-1.66 5.424.3l.316.316-5.533 5.534c-1.978-2.23-2.246-4.112-.207-6.15zM480.128 205.865c3.02 3.02 5.597 3.477 8.553.521 1.217-1.217 2.134-2.577 2.609-3.367l-.695-.822c-.522.71-1.361 1.96-2.642 3.24-2.481 2.482-4.489 1.865-6.908-.553l6.466-6.466-1.091-1.09c-2.277-2.277-4.395-2.72-6.924-.19-2.782 2.783-2.466 5.63.632 8.727zm.032-7.873c1.912-1.913 3.462-1.66 5.422.3l.316.317-5.533 5.533c-1.975-2.23-2.245-4.11-.205-6.15zM457.3 245.607c-.964.68-2.038 1.438-3.46 2.861-2.056 2.056-2.704 3.652-2.815 5.09-.142 1.313.348 3.858 3.383 6.893 2.545 2.545 4.631 3.367 6.07 3.351 1.596-.047 3.019-.648 5.042-2.671a21.139 21.139 0 0 0 3.177-4.126l-.79-.79c-.68.995-1.722 2.513-3.082 3.873-1.66 1.66-3.004 2.34-4.238 2.34-1.485 0-3.365-1.09-5.358-3.083-2.245-2.245-3.083-4.537-2.94-5.848.142-1.155.725-2.466 2.435-4.174 1.5-1.502 2.466-2.181 3.382-2.909l-.806-.807zM474.785 242.287c-1.833-1.833-3.255-2.466-4.583-2.498-1.107 0-2.419.554-3.763 1.898-1.407 1.407-1.976 2.798-2.007 4.03-.048 1.566.886 3.416 2.608 5.138 1.707 1.707 3.21 2.293 4.3 2.372 1.249.079 2.592-.443 4.062-1.912 1.565-1.565 2.039-2.894 2.023-4.142-.032-1.392-.902-3.148-2.64-4.886zm-.079 8.14c-1.28 1.281-2.355 1.567-3.272 1.502-.949-.064-2.261-.774-3.589-2.102-1.612-1.612-2.244-3.224-2.198-4.252.032-.79.412-1.866 1.503-2.956 1.106-1.106 2.07-1.502 2.972-1.487.963.016 2.07.427 3.889 2.245 1.58 1.581 2.165 2.955 2.182 4.078 0 .918-.507 1.993-1.487 2.973zM495.193 231.142l-5.801-5.802c-1.217-1.216-2.229-1.818-3.21-1.786-.932.016-1.833.443-2.876 1.486-1.154 1.154-1.818 2.513-2.04 3.304l.126 1.107-.079.079a2.771 2.771 0 0 0-.917-.126c-.964.016-1.944.489-3.082 1.627-1.154 1.155-1.818 2.45-2.008 3.083l.048.995-.079.08-1.17-.697-.679.68 8.869 8.869.917-.917-7.572-7.573c.396-.932.98-2.181 2.134-3.335.728-.728 1.613-1.328 2.356-1.344.711-.015 1.312.332 2.087 1.106l6.07 6.07.917-.917-7.462-7.462c.301-.964.855-2.276 1.992-3.414.743-.743 1.58-1.233 2.324-1.249.742-.015 1.565.396 2.735 1.566l5.485 5.485.915-.915zM501.28 215.35c-1.818-1.818-3.366-2.451-4.57-2.388-.948.064-1.96.537-3.192 1.77-1.202 1.202-1.96 2.529-2.04 2.957-.048.142-.063.853-.016 1.153l-.063.064-4.789-4.79-.917.917 12.803 12.805.127-.127.19-.727c.98-.6 2.071-1.375 3.161-2.466 1.502-1.502 2.087-2.75 2.118-3.92.034-1.486-.932-3.368-2.813-5.249zm-.76 1.138c1.644 1.644 2.356 3.146 2.324 4.252-.032.917-.537 1.897-1.739 3.099-.9.9-1.896 1.644-2.609 2.166l-6.781-6.782c.426-1.122 1.313-2.355 2.276-3.32 1.059-1.058 1.896-1.486 2.67-1.533.872-.048 2.2.458 3.859 2.118zM515.349 210.987l-5.501-5.502c-1.739-1.738-2.656-2.149-3.478-2.181-.916-.064-1.897.505-3.114 1.723-1.265 1.265-2.309 2.845-2.798 3.683l.743.743c.49-.711 1.612-2.34 2.687-3.414.995-.996 1.74-1.422 2.355-1.376.665.064 1.487.506 3.02 2.039-2.578 3.082-4.047 5.217-4.222 6.402-.127.57.127 1.518 1.122 2.514.822.822 1.565 1.186 2.23 1.217.773.048 1.738-.316 2.971-1.55 1.534-1.533 2.087-2.876 2.167-3.335.015-.142-.064-.664-.112-.964l.08-.08 1.185.744.665-.663zm-2.134-.332c-.237.712-.98 2.213-2.323 3.556-.965.965-1.755 1.312-2.31 1.297-.473-.031-1.027-.3-1.596-.87-.664-.663-.9-1.217-.87-1.66-.032-.758 1.93-3.382 3.858-5.565l3.24 3.242zM514.542 194.056l-3.32 3.32-2.087-2.087-.678 1.153 1.85 1.85-1.708 1.707.649.901 1.833-1.834 6.086 6.086c1.534 1.534 2.75 1.455 4.333-.126.678-.68 1.311-1.533 1.691-2.102l-.696-.853c-.3.395-.853 1.17-1.58 1.897-.997.995-1.802 1.297-3.004.095L512 198.151l3.146-3.146-.603-.95z"/>
  </g>
  <g>
    <path d="M495.797 301.049l11.856 11.856.933-.933-5.2-5.2 1.643-1.644c1.201-1.201 2.102-1.975 2.625-2.087.996-.237 3.13.54 7.587 2.277l1.012-1.012c-3.335-1.311-6.165-2.434-7.224-2.545-.364-.015-1.092.174-1.58.348l-.032-.031c.426-.87.712-1.881.743-2.199.032-.916-.473-2.307-1.675-3.509-1.328-1.328-2.419-1.691-3.335-1.533-.886.127-1.928.79-3.778 2.64l-3.575 3.572zm1.738-.126l2.577-2.576c1.597-1.597 2.403-2.056 3.082-2.135.664-.095 1.503.269 2.467 1.234 1.28 1.28 1.612 2.75 1.185 3.745-.237.522-.775 1.25-1.787 2.261l-2.497 2.498-5.027-5.027zM524.821 295.738l-5.5-5.5c-1.74-1.74-2.656-2.15-3.478-2.182-.916-.064-1.897.505-3.115 1.723-1.265 1.264-2.308 2.845-2.797 3.683l.742.742c.49-.71 1.613-2.338 2.688-3.413.995-.996 1.738-1.423 2.355-1.376.665.064 1.487.506 3.019 2.04-2.577 3.082-4.047 5.216-4.22 6.402-.127.569.125 1.518 1.122 2.514.822.822 1.565 1.186 2.229 1.217.773.047 1.738-.317 2.972-1.55 1.533-1.533 2.086-2.877 2.165-3.335.017-.142-.064-.664-.11-.964l.078-.079 1.186.744.665-.665zm-2.133-.331c-.237.71-.981 2.213-2.325 3.556-.964.964-1.755 1.313-2.308 1.296-.475-.031-1.028-.3-1.597-.869-.664-.664-.902-1.218-.87-1.66-.032-.759 1.928-3.383 3.857-5.565l3.243 3.242zM535.35 285.21l-5.802-5.802c-1.202-1.202-2.261-1.755-3.21-1.723-.947 0-1.88.427-3.035 1.58-1.122 1.122-1.944 2.577-2.134 3.24-.016.079.031.854.047.964l-.079.08-1.185-.68-.663.664 8.868 8.869.918-.918-7.587-7.588c.41-.98 1.105-2.276 2.244-3.414.822-.823 1.676-1.36 2.45-1.376.775-.016 1.644.41 2.767 1.533l5.485 5.485.915-.914zM536.93 265.892l-.158.157-.142.713c-.98.6-2.055 1.295-3.177 2.418-1.503 1.502-2.071 2.83-2.087 3.921 0 1.518.917 3.352 2.766 5.201 1.818 1.819 3.383 2.498 4.68 2.34.916-.095 1.944-.585 3.192-1.833 1.154-1.155 1.897-2.34 1.993-2.782.046-.143-.016-.838-.047-1.155l.063-.063.474.474c1.992 1.992 2.513 3.114 2.513 4-.046.773-.474 1.738-1.77 3.035-1.311 1.312-2.655 2.277-3.383 2.782l.807.806c.711-.49 2.055-1.39 3.462-2.798 1.565-1.565 2.055-2.782 2.103-3.81.03-1.202-.49-2.608-2.894-5.012l-8.395-8.394zm-2.007 11.303c-1.63-1.627-2.324-3.051-2.34-4.142.015-.964.537-1.96 1.723-3.146.933-.932 1.88-1.627 2.607-2.196l6.766 6.766c-.426 1.154-1.28 2.324-2.196 3.24-.886.886-1.881 1.502-2.704 1.596-.963.11-2.213-.474-3.856-2.118zM544.329 267.505c3.02 3.02 5.596 3.478 8.552.521 1.217-1.216 2.134-2.576 2.608-3.366l-.695-.822c-.521.711-1.36 1.96-2.64 3.24-2.482 2.483-4.49 1.866-6.91-.553l6.467-6.465-1.091-1.091c-2.277-2.277-4.395-2.72-6.924-.19-2.782 2.782-2.466 5.627.633 8.726zm.032-7.873c1.912-1.913 3.461-1.66 5.421.3l.317.316-5.533 5.534c-1.976-2.23-2.245-4.11-.205-6.15zM556.327 246.843c-.933.553-1.801 1.139-2.86 2.197-1.345 1.344-1.93 2.561-1.945 3.81-.048 1.501.916 3.352 2.703 5.138 2.023 2.024 3.636 2.624 4.774 2.53 1.012-.095 2.07-.649 3.32-1.897 1.216-1.217 1.754-2.292 1.849-2.735.032-.157-.016-.806-.031-1.137l.046-.048 1.059.616.712-.712-12.884-12.883-.933.932 4.19 4.19zm-1.217 10.134c-1.707-1.707-2.402-3.194-2.372-4.236.032-.98.538-1.93 1.645-3.036.979-.98 1.96-1.644 2.64-2.166l6.845 6.846c-.412 1.17-1.218 2.292-2.104 3.177-.933.932-1.928 1.517-2.703 1.565-.916.063-2.212-.411-3.95-2.15zM520.22 308.527c-.964.68-2.039 1.439-3.46 2.861-2.055 2.056-2.704 3.652-2.815 5.09-.141 1.313.348 3.858 3.383 6.893 2.545 2.545 4.631 3.367 6.07 3.35 1.597-.047 3.02-.648 5.044-2.671a21.081 21.081 0 0 0 3.176-4.126l-.79-.79c-.68.995-1.722 2.513-3.082 3.873-1.66 1.66-3.003 2.339-4.235 2.339-1.487 0-3.368-1.09-5.36-3.083-2.245-2.244-3.083-4.536-2.94-5.849.142-1.153.727-2.465 2.434-4.173 1.502-1.501 2.467-2.181 3.383-2.909l-.807-.805zM537.705 305.207c-1.834-1.834-3.256-2.467-4.584-2.498-1.107 0-2.42.554-3.763 1.898-1.407 1.407-1.976 2.798-2.008 4.031-.048 1.565.886 3.414 2.609 5.137 1.707 1.707 3.21 2.293 4.3 2.372 1.248.079 2.592-.443 4.061-1.914 1.566-1.565 2.04-2.893 2.024-4.141-.03-1.391-.9-3.145-2.639-4.885zm-.079 8.141c-1.28 1.28-2.355 1.566-3.273 1.502-.947-.063-2.26-.774-3.588-2.102-1.613-1.613-2.244-3.226-2.198-4.252.032-.79.412-1.866 1.502-2.957 1.107-1.106 2.07-1.501 2.972-1.487.964.017 2.07.428 3.89 2.245 1.58 1.582 2.165 2.956 2.181 4.079 0 .918-.506 1.992-1.486 2.972zM558.113 294.063l-5.802-5.802c-1.217-1.217-2.228-1.818-3.21-1.787-.931.016-1.832.443-2.876 1.486-1.155 1.154-1.817 2.513-2.04 3.304l.126 1.107-.078.078a2.785 2.785 0 0 0-.918-.126c-.964.017-1.945.49-3.083 1.628-1.154 1.154-1.819 2.45-2.007 3.082l.047.995-.078.08-1.17-.696-.68.68 8.869 8.868.917-.917-7.572-7.572c.396-.933.98-2.182 2.133-3.337.728-.727 1.614-1.328 2.357-1.344.71-.015 1.312.333 2.085 1.107l6.07 6.07.918-.917-7.462-7.462c.3-.963.854-2.276 1.991-3.414.744-.743 1.582-1.233 2.325-1.249.742-.016 1.564.396 2.734 1.565l5.485 5.486.919-.913zM564.199 278.27c-1.818-1.818-3.366-2.45-4.569-2.387-.947.063-1.96.537-3.193 1.77-1.201 1.201-1.96 2.53-2.039 2.955-.048.143-.063.854-.015 1.154l-.064.063-4.79-4.789-.916.917 12.803 12.805.127-.127.19-.727c.98-.6 2.071-1.374 3.162-2.467 1.501-1.501 2.086-2.75 2.118-3.92.032-1.484-.933-3.366-2.814-5.247zm-.759 1.138c1.645 1.643 2.357 3.146 2.325 4.252-.033.916-.538 1.897-1.74 3.099-.9.901-1.896 1.644-2.608 2.165l-6.782-6.781c.427-1.122 1.312-2.356 2.276-3.32 1.059-1.059 1.896-1.486 2.671-1.533.871-.047 2.2.459 3.858 2.118zM578.27 273.906l-5.502-5.501c-1.739-1.739-2.655-2.149-3.477-2.181-.917-.064-1.898.505-3.115 1.723-1.265 1.265-2.308 2.845-2.798 3.683l.743.743c.49-.711 1.612-2.34 2.687-3.415.996-.996 1.739-1.422 2.356-1.375.664.063 1.486.505 3.019 2.039-2.578 3.082-4.047 5.217-4.221 6.402-.127.57.127 1.518 1.121 2.514.822.822 1.566 1.186 2.23 1.217.774.048 1.738-.317 2.971-1.55 1.534-1.533 2.087-2.876 2.167-3.335.016-.142-.063-.664-.111-.964l.079-.08 1.186.743.664-.663zm-2.136-.33c-.236.711-.98 2.212-2.323 3.556-.965.964-1.754 1.312-2.308 1.296-.474-.031-1.027-.3-1.597-.87-.664-.664-.9-1.217-.87-1.66-.032-.758 1.93-3.383 3.858-5.565l3.24 3.242zM577.463 256.976l-3.32 3.32-2.087-2.087-.68 1.154 1.85 1.85-1.707 1.707.648.9 1.834-1.833 6.086 6.086c1.533 1.533 2.75 1.454 4.332-.127.679-.679 1.311-1.533 1.691-2.102l-.696-.853c-.3.395-.854 1.17-1.58 1.897-.997.995-1.803 1.296-3.004.095l-5.912-5.912 3.145-3.146-.6-.95z"/>
  </g>
  <g>
    <path d="M366.93 177.02l7.193 7.193c1.818 1.818 2.435 2.972 2.466 3.984.016.964-.521 2.102-2.118 3.699-1.613 1.612-2.846 1.992-3.826 1.897-.916-.095-1.882-.68-3.795-2.593l-7.05-7.05-.918.917 7.336 7.335c2.117 2.118 3.24 2.64 4.331 2.782 1.075.127 2.67-.331 4.632-2.292 2.197-2.197 2.687-3.54 2.672-4.726-.016-1.344-.743-2.829-2.846-4.932l-7.146-7.146-.931.932zM390.31 177.352l-5.8-5.802c-1.203-1.202-2.262-1.755-3.21-1.723-.949 0-1.883.427-3.035 1.58-1.123 1.122-1.945 2.577-2.135 3.24-.017.08.031.854.048.965l-.08.079-1.184-.68-.665.665 8.87 8.868.916-.917-7.587-7.587c.412-.98 1.106-2.277 2.245-3.415.822-.822 1.676-1.36 2.451-1.375.775-.016 1.643.411 2.767 1.533l5.485 5.485.916-.916zM399.938 167.724l-5.5-5.5c-1.74-1.74-2.657-2.15-3.48-2.182-.916-.063-1.896.505-3.113 1.723-1.264 1.265-2.308 2.846-2.799 3.684l.743.743c.49-.712 1.614-2.34 2.687-3.415.996-.995 1.738-1.422 2.356-1.375.664.063 1.486.506 3.02 2.04-2.577 3.082-4.047 5.217-4.22 6.402-.128.569.125 1.518 1.12 2.514.823.822 1.565 1.185 2.23 1.217.774.046 1.738-.317 2.972-1.55 1.533-1.533 2.087-2.877 2.166-3.335.016-.142-.064-.665-.112-.965l.08-.079 1.184.743.666-.665zm-2.134-.332c-.238.712-.98 2.213-2.325 3.557-.963.964-1.754 1.312-2.309 1.297-.473-.032-1.026-.3-1.595-.87-.664-.664-.901-1.216-.87-1.66-.031-.758 1.929-3.382 3.857-5.564l3.242 3.24zM394.405 155.52l8.87 8.868.916-.916-7.461-7.462c.19-.885.838-2.26 1.928-3.32a10.445 10.445 0 0 1 1.375-1.154l-.884-.885a10.65 10.65 0 0 0-1.076.948c-1.107 1.107-1.612 2.214-1.786 2.893 0 .064.08.901.095 1.011l-.095.095-1.202-.759-.68.68zM422.97 144.691l-5.8-5.801c-1.218-1.218-2.23-1.818-3.21-1.786-.934.016-1.834.443-2.877 1.485-1.154 1.155-1.818 2.514-2.04 3.305l.128 1.107-.08.079a2.754 2.754 0 0 0-.916-.127c-.965.016-1.944.49-3.083 1.63-1.153 1.153-1.818 2.45-2.008 3.082l.048.995-.079.08-1.17-.697-.68.68 8.869 8.868.917-.917-7.572-7.573c.395-.932.98-2.18 2.134-3.335.727-.727 1.612-1.328 2.354-1.343.712-.016 1.312.332 2.087 1.105l6.07 6.07.918-.917-7.461-7.46c.3-.965.854-2.277 1.99-3.415.744-.744 1.582-1.234 2.325-1.25.744-.015 1.566.396 2.736 1.566l5.484 5.486.916-.916zM421.484 137.451c3.02 3.02 5.596 3.478 8.552.522 1.218-1.217 2.135-2.577 2.609-3.367l-.695-.822c-.521.711-1.36 1.96-2.64 3.24-2.482 2.483-4.489 1.865-6.909-.553l6.465-6.465-1.09-1.091c-2.277-2.277-4.395-2.72-6.924-.19-2.783 2.783-2.467 5.628.632 8.726zm.032-7.873c1.913-1.912 3.461-1.66 5.423.3l.315.317-5.532 5.533c-1.977-2.229-2.245-4.11-.206-6.15zM433.482 116.79c-.932.553-1.802 1.138-2.86 2.197-1.344 1.343-1.928 2.56-1.945 3.81-.047 1.501.916 3.351 2.703 5.138 2.023 2.023 3.636 2.623 4.774 2.53 1.012-.096 2.071-.648 3.32-1.897 1.217-1.218 1.755-2.292 1.849-2.735.033-.158-.015-.806-.03-1.138l.046-.047 1.06.616.71-.71-12.885-12.885-.932.933 4.189 4.19zm-1.217 10.134c-1.707-1.708-2.403-3.193-2.37-4.237.03-.98.537-1.929 1.643-3.035.98-.98 1.96-1.644 2.64-2.166l6.845 6.845c-.411 1.17-1.218 2.293-2.103 3.177-.933.932-1.929 1.518-2.703 1.566-.916.062-2.213-.411-3.952-2.15zM383.355 192.496c-.965.68-2.04 1.439-3.462 2.86-2.055 2.056-2.704 3.652-2.813 5.091-.143 1.312.348 3.857 3.383 6.893 2.545 2.545 4.632 3.367 6.07 3.35 1.597-.047 3.02-.648 5.043-2.671a21.132 21.132 0 0 0 3.177-4.126l-.79-.79c-.68.995-1.722 2.513-3.082 3.872-1.66 1.66-3.003 2.34-4.237 2.34-1.485 0-3.367-1.09-5.358-3.083-2.245-2.245-3.083-4.537-2.94-5.849.141-1.154.727-2.465 2.434-4.173 1.501-1.503 2.466-2.181 3.382-2.908l-.807-.806zM400.84 189.176c-1.835-1.834-3.257-2.466-4.586-2.498-1.107 0-2.417.553-3.761 1.897-1.407 1.407-1.976 2.798-2.008 4.032-.048 1.565.886 3.413 2.609 5.136 1.707 1.708 3.209 2.293 4.3 2.371 1.249.08 2.593-.442 4.062-1.913 1.565-1.565 2.039-2.892 2.024-4.141-.033-1.39-.903-3.145-2.64-4.884zm-.08 8.14c-1.28 1.281-2.356 1.567-3.273 1.503-.948-.064-2.26-.775-3.589-2.103-1.612-1.612-2.244-3.225-2.197-4.253.032-.79.412-1.865 1.503-2.956 1.107-1.106 2.071-1.502 2.971-1.487.966.016 2.072.427 3.89 2.245 1.58 1.58 2.165 2.956 2.181 4.079 0 .918-.507 1.993-1.487 2.973zM421.247 178.032l-5.802-5.802c-1.216-1.217-2.228-1.818-3.209-1.786-.932.015-1.834.442-2.877 1.485-1.154 1.154-1.819 2.514-2.04 3.304l.126 1.107-.079.079a2.771 2.771 0 0 0-.917-.126c-.964.016-1.944.49-3.082 1.628-1.154 1.154-1.819 2.45-2.008 3.082l.048.996-.08.08-1.168-.696-.68.68 8.869 8.868.917-.917-7.572-7.572c.396-.933.98-2.181 2.133-3.336.728-.728 1.614-1.329 2.356-1.343.71-.016 1.312.332 2.087 1.107l6.07 6.07.917-.917-7.462-7.462c.301-.964.853-2.276 1.992-3.415.743-.743 1.581-1.233 2.323-1.249.743-.015 1.565.395 2.736 1.566l5.485 5.485.917-.916zM427.333 162.24c-1.818-1.82-3.366-2.452-4.569-2.388-.947.063-1.96.537-3.193 1.77-1.201 1.202-1.96 2.53-2.039 2.956-.048.142-.063.853-.015 1.153l-.064.064-4.79-4.79-.917.917 12.805 12.805.127-.127.19-.727c.98-.6 2.07-1.375 3.162-2.467 1.501-1.502 2.086-2.75 2.117-3.92.032-1.485-.933-3.366-2.814-5.247zm-.759 1.137c1.645 1.644 2.356 3.145 2.325 4.252-.033.917-.538 1.897-1.74 3.099-.9.9-1.896 1.644-2.608 2.166l-6.782-6.782c.427-1.122 1.312-2.355 2.276-3.32 1.059-1.058 1.897-1.486 2.67-1.532.871-.049 2.2.457 3.86 2.117zM441.402 157.876l-5.501-5.502c-1.74-1.74-2.656-2.15-3.478-2.181-.916-.064-1.897.505-3.115 1.723-1.264 1.265-2.308 2.846-2.797 3.683l.742.743c.49-.712 1.612-2.34 2.688-3.414.996-.996 1.739-1.423 2.355-1.376.665.064 1.487.505 3.02 2.04-2.578 3.082-4.048 5.216-4.222 6.402-.127.57.127 1.517 1.122 2.513.822.822 1.565 1.186 2.23 1.217.773.048 1.737-.317 2.971-1.549 1.534-1.533 2.087-2.877 2.167-3.336.015-.142-.064-.664-.112-.964l.08-.079 1.186.742.664-.662zm-2.133-.333c-.237.712-.981 2.213-2.323 3.557-.966.964-1.755 1.312-2.309 1.296-.474-.032-1.027-.3-1.597-.87-.664-.664-.9-1.217-.869-1.66-.032-.759 1.929-3.383 3.857-5.565l3.24 3.242zM440.597 140.945l-3.32 3.32-2.087-2.087-.68 1.153 1.85 1.85-1.707 1.707.65.901 1.833-1.833 6.086 6.085c1.533 1.534 2.75 1.455 4.33-.126.68-.68 1.313-1.533 1.692-2.101l-.695-.855c-.301.396-.854 1.17-1.581 1.897-.997.997-1.802 1.297-3.005.096l-5.912-5.913 3.146-3.146-.6-.948z"/>
  </g>
  <g>
    <path d="M171.933 125.735c-1.28-1.281-2.086-2.815-2.008-4.095.095-1.423.869-3.019 2.988-5.138 2.134-2.134 4.394-3.162 5.738-3.114 1.185.047 2.592.633 4.126 2.166 1.327 1.328 2.165 2.766 2.133 4.063-.031 1.423-1.201 3.319-3.256 5.374-2.087 2.087-4.3 3.066-5.645 2.988-1.136-.063-2.527-.694-4.076-2.244zm11.698-11.034c-1.739-1.74-3.446-2.466-4.964-2.561-1.755-.111-4.315 1.027-6.797 3.509-2.577 2.576-3.226 4.521-3.272 5.865-.047 1.533.569 3.193 2.434 5.058 1.866 1.866 3.493 2.61 5.027 2.688 1.723.079 4.158-.933 6.641-3.414 2.608-2.608 3.525-4.664 3.54-6.134.031-1.424-.538-2.94-2.609-5.011zM193.195 130.651l-3.288-3.288.821-.822c1.66-1.66 2.704-2.07 4.412-.363.695.696 1.153 1.312 1.47 1.66l.727-.728c-.237-.3-.884-1.139-1.533-1.786-1.93-1.93-3.573-2.118-5.85.158l-.964.964-1.738-1.738-.886.664 1.85 1.85-8.094 8.094.917.916 8.094-8.094 3.114 3.114.948-.6zm6.213 6.213l-3.288-3.288.823-.822c1.66-1.66 2.703-2.071 4.41-.364.696.696 1.154 1.312 1.471 1.66l.728-.728c-.237-.3-.885-1.137-1.533-1.786-1.93-1.93-3.573-2.118-5.85.159l-.964.964-1.739-1.739-.886.664 1.85 1.85-8.094 8.094.917.917 8.094-8.094 3.113 3.114.948-.601zM196.104 142.57c-3.02 3.02-3.478 5.596-.52 8.553 1.216 1.217 2.576 2.134 3.366 2.608l.823-.696c-.712-.52-1.961-1.36-3.242-2.64-2.481-2.482-1.865-4.49.553-6.908l6.465 6.465 1.091-1.09c2.277-2.277 2.72-4.395.19-6.925-2.782-2.78-5.628-2.464-8.726.633zm7.872.032c1.913 1.913 1.66 3.462-.3 5.422l-.316.316-5.533-5.533c2.228-1.975 4.11-2.244 6.149-.205zM209.099 164.29l5.802-5.801c1.2-1.202 1.754-2.261 1.723-3.21 0-.949-.428-1.88-1.582-3.035-1.122-1.122-2.576-1.944-3.24-2.134-.08-.016-.854.031-.965.047l-.079-.079.68-1.186-.664-.664-8.869 8.869.918.917 7.587-7.587c.98.411 2.277 1.106 3.415 2.244.822.823 1.359 1.676 1.375 2.451.016.774-.41 1.644-1.533 2.766l-5.486 5.485.918.917zM220.18 170.504c.6-.6.964-1.249 1.01-1.929.048-.711-.363-1.66-1.359-3.257-.932-1.47-1.264-2.245-1.217-2.83.032-.442.3-.837.632-1.17 1.123-1.122 2.293-1.216 4.158.649.933.932 1.581 1.77 2.15 2.561l.759-.76a17.087 17.087 0 0 0-2.134-2.607c-2.356-2.356-4.253-2.324-5.881-.696-.505.505-.917 1.139-.964 1.754-.111.996.395 1.976 1.343 3.525.822 1.329 1.217 2.134 1.186 2.736-.063.442-.316.854-.648 1.186-1.123 1.122-2.198 1.185-4.189-.806-.965-.965-1.802-2.087-2.325-2.862l-.774.775c.474.79 1.423 1.992 2.308 2.876 2.688 2.689 4.38 2.42 5.945.855zM221.35 176.542l8.869-8.869-.917-.917-8.87 8.869.918.917zm12.03-11.745c.205-.205.332-.395.315-.6 0-.158-.11-.332-.3-.522-.206-.206-.411-.317-.522-.3-.189-.064-.426.047-.664.285-.206.205-.316.41-.316.568-.016.174.095.348.315.569.175.174.38.317.554.332.191.032.412-.126.617-.332zM240.873 178.328l-.997-.996-11.129 4.901-.379-.38 5.011-11.018-.996-.996-5.501 12.236 1.58 1.58 12.41-5.327zM237.964 184.43c-3.02 3.02-3.477 5.597-.521 8.553 1.217 1.217 2.577 2.134 3.367 2.608l.822-.695c-.712-.522-1.96-1.36-3.241-2.64-2.483-2.483-1.865-4.49.553-6.909l6.466 6.465 1.09-1.09c2.277-2.277 2.72-4.395.19-6.925-2.782-2.78-5.628-2.464-8.726.634zm7.872.032c1.913 1.913 1.66 3.463-.3 5.423l-.315.316-5.534-5.534c2.23-1.974 4.11-2.244 6.15-.205zM160.377 147.187l7.43-16.282-1.692-1.692-16.598 7.114.964.964 5.644-2.45 5.786 5.786-2.562 5.532 1.028 1.028zm2.07-7.667l-5.2-5.201 8.552-3.683.506.506-3.857 8.378zM176.09 145.163l-3.319-3.32 2.087-2.086-1.153-.68-1.85 1.85-1.707-1.708-.901.648 1.833 1.834-6.086 6.086c-1.533 1.533-1.454 2.75.127 4.332.68.68 1.534 1.312 2.103 1.692l.854-.696c-.396-.3-1.17-.854-1.897-1.58-.995-.996-1.296-1.803-.094-3.004l5.912-5.913 3.146 3.146.945-.601zM183.189 152.261l-3.32-3.32 2.087-2.086-1.154-.68-1.85 1.849-1.706-1.707-.901.649 1.834 1.833-6.086 6.086c-1.534 1.534-1.454 2.751.127 4.332.68.68 1.533 1.312 2.102 1.692l.854-.696c-.395-.3-1.17-.854-1.897-1.58-.996-.997-1.296-1.802-.094-3.004l5.912-5.912 3.146 3.146.946-.602zM185.56 154.632l-8.868 8.868.917.917 7.461-7.461c.885.19 2.26.838 3.32 1.928.538.537.932 1.06 1.155 1.376l.885-.886a10.65 10.65 0 0 0-.948-1.075c-1.107-1.107-2.214-1.612-2.893-1.786-.063 0-.9.08-1.012.095l-.095-.095.759-1.201-.681-.68zM184.421 171.23l8.868-8.867-.917-.917-8.868 8.87.916.916zm12.032-11.744c.205-.205.33-.395.315-.601 0-.158-.11-.332-.3-.522-.205-.206-.411-.316-.521-.3-.19-.064-.427.047-.664.284-.206.206-.317.411-.316.568-.016.174.095.348.316.57.174.174.38.316.553.331.19.033.41-.125.617-.33zM200.23 177.332c1.818-1.818 2.45-3.366 2.387-4.567-.064-.949-.538-1.961-1.77-3.194-1.201-1.201-2.53-1.96-2.957-2.039-.142-.047-.854-.063-1.154-.016l-.064-.063 4.79-4.79-.917-.916-12.805 12.805.126.126.727.19c.601.98 1.376 2.07 2.467 3.16 1.502 1.503 2.75 2.088 3.92 2.12 1.487.03 3.37-.934 5.25-2.816zm-1.138-.758c-1.643 1.644-3.146 2.355-4.253 2.324-.916-.032-1.896-.537-3.098-1.74-.901-.9-1.644-1.896-2.166-2.608l6.782-6.782c1.122.428 2.355 1.312 3.32 2.277 1.06 1.06 1.486 1.897 1.533 2.671.047.871-.459 2.198-2.118 3.858zM205.43 192.24l8.87-8.868-.917-.917-7.573 7.572a10.122 10.122 0 0 1-3.35-2.18c-.965-.965-1.471-1.787-1.455-2.562.015-.743.41-1.58 1.612-2.783l5.407-5.406-.918-.917-5.753 5.754c-1.218 1.217-1.692 2.228-1.724 3.178-.016.996.38 1.928 1.66 3.209 1.107 1.106 2.419 1.88 3.083 2.102.047.015.916-.095 1.011-.127l.095.095-.711 1.185.664.665zM222.52 191.592l-3.32-3.32 2.086-2.087-1.153-.68-1.85 1.85-1.708-1.708-.901.65 1.834 1.833-6.086 6.086c-1.534 1.533-1.454 2.75.127 4.332.679.678 1.532 1.31 2.101 1.69l.854-.695c-.395-.301-1.17-.854-1.897-1.581-.996-.997-1.297-1.802-.095-3.005l5.911-5.911 3.146 3.146.95-.6zM219.627 197.71c-3.019 3.019-3.478 5.596-.522 8.552 1.218 1.218 2.577 2.134 3.368 2.609l.822-.696c-.711-.521-1.96-1.36-3.24-2.64-2.482-2.482-1.865-4.49.553-6.908l6.466 6.466 1.09-1.09c2.277-2.277 2.72-4.395.19-6.925-2.783-2.783-5.629-2.466-8.727.632zm7.872.032c1.913 1.912 1.66 3.462-.3 5.421l-.317.317-5.533-5.533c2.23-1.976 4.11-2.245 6.15-.205zM233.205 215.146c.601-.6.965-1.25 1.012-1.928.047-.711-.364-1.66-1.36-3.256-.932-1.47-1.264-2.245-1.217-2.83.032-.443.3-.837.633-1.169 1.122-1.122 2.29-1.217 4.157.648.933.933 1.58 1.771 2.15 2.562l.758-.76a17.086 17.086 0 0 0-2.134-2.608c-2.355-2.355-4.252-2.324-5.88-.696-.505.506-.917 1.139-.963 1.755-.11.996.394 1.976 1.343 3.525.822 1.328 1.217 2.135 1.185 2.735-.063.443-.315.853-.647 1.186-1.122 1.123-2.197 1.185-4.189-.806-.964-.964-1.801-2.087-2.324-2.861l-.774.774c.474.79 1.422 1.991 2.308 2.877 2.687 2.685 4.378 2.417 5.942.852z"/>
  </g>
</svg>
