<?xml version="1.0" standalone="no"?>
<!DOCTYPE svg PUBLIC "-//W3C//DTD SVG 1.1//EN" "http://www.w3.org/Graphics/SVG/1.1/DTD/svg11.dtd">
<svg width="100%" height="100%" viewBox="0 0 284 86" version="1.1" xmlns="http://www.w3.org/2000/svg" xmlns:xlink="http://www.w3.org/1999/xlink" xml:space="preserve" style="fill-rule:evenodd;clip-rule:evenodd;stroke-linejoin:round;stroke-miterlimit:1.41421;">
    <g id="primary">
        <path d="M82.769,26.988L87.598,31.817L78.582,31.817L73.749,26.988L49.577,2.835L112.057,2.837L134.782,25.561L81.341,25.56L82.769,26.988Z" style="fill:rgb(128,128,128);"/>
        <path d="M147.207,26.988L152.954,32.735L143.938,32.735L138.187,26.988L114.015,2.835L176.495,2.837L199.22,25.561L145.779,25.56L147.207,26.988Z" style="fill:rgb(51,51,51);"/>
        <path d="M211.652,26.988L217.399,32.735L208.383,32.735L202.632,26.988L178.46,2.835L240.94,2.837L263.666,25.561L210.224,25.56L211.652,26.988Z" style="fill:rgb(51,51,51);"/>
        <path d="M215.845,31.181L269.29,31.181L280.63,42.521L269.293,53.858L215.845,53.858L206.829,53.858L212.498,48.189L210.516,48.189L204.847,53.858L151.4,53.858L142.384,53.858L148.053,48.189L146.071,48.189L140.402,53.858L86.962,53.858L72.849,53.858L78.518,48.189L74.6,48.189L74.6,36.85L78.516,36.85L72.847,31.181L140.4,31.181L146.069,36.85L148.05,36.85L142.381,31.181L204.845,31.181L210.514,36.85L212.496,36.85L206.827,31.181L215.845,31.181Z" style="fill:rgb(51,51,51);"/>
        <g>
            <path d="M91.295,47.794L91.295,47.08L94.391,47.08L94.391,37.863L91.295,38.423L91.295,37.709L95.189,37.022L95.189,47.08L97.991,47.08L97.991,47.794L91.295,47.794L91.295,47.794Z" style="fill:white;fill-rule:nonzero;"/>
            <path d="M113.936,47.794L106.722,47.794L106.722,46.954C106.848,45.413 107.688,44.418 110.154,43.214C111.723,42.43 112.409,42.024 112.774,41.547C113.082,41.113 113.166,40.553 113.166,40.006C113.166,38.563 112.634,37.905 110.351,37.905C109.104,37.905 107.76,38.213 107.143,38.353L107.143,37.624C107.969,37.4 109.258,37.147 110.518,37.147C113.193,37.147 114.034,38.016 114.034,39.907C114.034,40.86 113.824,41.518 113.502,41.924C112.956,42.638 111.877,43.185 110.504,43.857C107.941,45.104 107.535,45.986 107.506,47.037L114.146,47.037L113.936,47.794L113.936,47.794Z" style="fill:white;fill-rule:nonzero;"/>
            <path d="M128.734,41.841L127.599,42.373L127.599,42.429L128.789,42.849C129.266,43.242 129.643,44.138 129.643,45.048C129.643,47.065 128.495,47.934 125.651,47.934C124.475,47.934 123.438,47.78 122.821,47.64L122.821,46.926C123.466,47.038 124.6,47.206 125.651,47.206C128.256,47.206 128.803,46.352 128.803,45.049C128.803,43.186 127.556,42.836 125.973,42.836L123.97,42.836L123.97,42.107L125.791,42.107C127.164,42.107 128.606,41.757 128.606,39.936C128.606,38.591 128.102,37.891 125.973,37.891C124.852,37.891 123.774,38.115 123.045,38.269L123.045,37.568C123.802,37.372 124.964,37.148 126.113,37.148C128.634,37.148 129.433,38.031 129.433,39.824C129.434,40.804 129,41.588 128.734,41.841L128.734,41.841Z" style="fill:white;fill-rule:nonzero;"/>
        </g>
        <g>
            <path d="M166.718,47.794L165.947,47.794L165.947,44.811L160.553,44.811L160.553,43.998L165.191,37.288L166.717,37.288L166.717,44.11L169.071,44.11L168.86,44.811L166.716,44.811L166.718,47.794ZM165.948,44.11L165.948,37.975L165.569,37.975L161.465,43.928L161.465,44.11L165.948,44.11Z" style="fill:white;fill-rule:nonzero;"/>
            <path d="M179.903,47.934C178.938,47.934 177.916,47.794 177.186,47.682L177.186,46.939C177.858,47.037 178.895,47.177 179.946,47.177C182.37,47.177 183.211,46.49 183.211,44.754C183.211,42.905 182.623,42.429 180.465,42.429C179.471,42.429 178.126,42.639 177.51,42.723L177.51,37.288L183.73,37.288L183.73,38.002L178.24,38.002L178.24,41.952C178.828,41.854 179.639,41.7 180.719,41.7C183.157,41.7 184.053,42.345 184.053,44.641C184.05,46.855 183.028,47.934 179.903,47.934L179.903,47.934Z" style="fill:white;fill-rule:nonzero;"/>
            <path d="M193.666,42.667L193.735,42.667L194.182,42.205C194.786,41.981 195.877,41.673 197.153,41.673C199.632,41.673 200.459,42.709 200.459,44.656C200.459,46.687 199.407,47.934 196.705,47.934C193.764,47.934 192.852,46.071 192.852,42.975C192.852,41.028 193.399,39.627 194.225,38.745C195.192,37.736 196.733,37.106 199.436,37.078L199.715,37.821C197.082,37.835 195.652,38.381 194.813,39.278C194.155,39.977 193.721,41.168 193.666,42.667L193.666,42.667ZM196.886,42.401C195.64,42.401 194.491,42.709 193.665,43.031C193.692,45.931 194.603,47.205 196.745,47.205C198.749,47.205 199.645,46.421 199.645,44.726C199.646,43.102 198.987,42.401 196.886,42.401L196.886,42.401Z" style="fill:white;fill-rule:nonzero;"/>
        </g>
        <g>
            <path d="M229.528,38.227L229.528,38.031L223.213,38.031L223.437,37.288L230.426,37.288L230.426,38.213L225.411,47.794L224.501,47.794L229.528,38.227Z" style="fill:white;fill-rule:nonzero;"/>
            <path d="M240.167,42.919L241.118,42.4L241.118,42.33L240.278,41.896C239.914,41.532 239.563,41.013 239.563,40.047C239.563,38.352 240.627,37.133 243.092,37.133C245.544,37.133 246.454,38.225 246.454,39.794C246.454,40.789 246.033,41.391 245.641,41.811L244.774,42.33L244.774,42.4L245.837,42.793C246.399,43.241 246.72,43.956 246.72,44.908C246.72,46.645 245.641,47.934 242.882,47.934C240.278,47.934 239.197,46.897 239.197,45.119C239.2,44.222 239.564,43.479 240.167,42.919L240.167,42.919ZM240.027,45.02C240.027,46.421 240.84,47.219 242.968,47.219C245.139,47.219 245.896,46.197 245.896,44.992C245.896,43.073 244.677,42.919 241.553,42.582C240.782,43.087 240.027,43.774 240.027,45.02L240.027,45.02ZM240.39,39.977C240.39,41.7 241.484,41.938 244.228,42.19C245.111,41.644 245.615,40.929 245.615,39.893C245.615,38.548 244.859,37.848 243.011,37.848C241.077,37.849 240.39,38.801 240.39,39.977L240.39,39.977Z" style="fill:white;fill-rule:nonzero;"/>
            <path d="M261.883,42.429L261.814,42.429L261.378,42.891C260.804,43.129 259.726,43.41 258.521,43.41C256.014,43.41 255.131,42.401 255.131,40.468C255.131,38.255 256.519,37.148 258.87,37.148C261.616,37.148 262.694,38.675 262.694,42.009C262.694,44.012 262.149,45.483 261.321,46.351C260.397,47.36 258.815,47.962 256.096,48.018L255.829,47.247C258.421,47.233 259.933,46.715 260.746,45.832C261.379,45.119 261.841,43.942 261.883,42.429L261.883,42.429ZM258.704,42.681C259.965,42.681 261.1,42.387 261.884,42.093C261.857,39.123 261.002,37.877 258.818,37.877C256.857,37.877 255.945,38.815 255.945,40.413C255.945,41.981 256.644,42.681 258.704,42.681L258.704,42.681Z" style="fill:white;fill-rule:nonzero;"/>
        </g>
        <g transform="matrix(1,0,0,1,82.3963,2.16146)">
            <path d="M59.256,14.737L56.456,7.237L55.386,7.237L52.386,14.737L52.996,14.737L54.006,12.177L57.666,12.177L58.606,14.737L59.256,14.737ZM57.486,11.657L54.196,11.657L55.736,7.787L56.056,7.787L57.486,11.657Z" style="fill:white;fill-rule:nonzero;"/>
            <path d="M65.126,9.127L64.496,9.127L62.526,14.197L62.286,14.197L60.386,9.127L59.756,9.127L61.886,14.737L62.886,14.737L65.126,9.127Z" style="fill:white;fill-rule:nonzero;"/>
            <path d="M70.416,14.737L70.416,11.257C70.416,10.157 70.256,9.737 70.006,9.467C69.736,9.157 69.246,9.027 68.476,9.027C67.676,9.027 66.846,9.197 66.426,9.307L66.426,9.777C66.806,9.707 67.676,9.547 68.356,9.547C68.986,9.547 69.356,9.647 69.536,9.857C69.726,10.087 69.846,10.487 69.846,11.457C68.056,11.617 66.916,11.827 66.486,12.147C66.266,12.287 66.046,12.667 66.046,13.297C66.046,13.817 66.166,14.167 66.366,14.387C66.596,14.647 67.016,14.837 67.796,14.837C68.766,14.837 69.366,14.587 69.536,14.467C69.586,14.427 69.726,14.237 69.806,14.127L69.856,14.127L69.996,14.737L70.416,14.737ZM69.846,13.957C69.546,14.107 68.836,14.347 67.986,14.347C67.376,14.347 67.016,14.207 66.846,14.027C66.706,13.867 66.616,13.607 66.616,13.247C66.616,12.827 66.716,12.577 66.866,12.447C67.096,12.197 68.546,11.987 69.846,11.907L69.846,13.957Z" style="fill:white;fill-rule:nonzero;"/>
            <path d="M73.106,14.737L73.106,9.127L72.526,9.127L72.526,14.737L73.106,14.737ZM73.196,7.217C73.196,7.087 73.176,6.987 73.106,6.927C73.056,6.877 72.966,6.857 72.846,6.857C72.716,6.857 72.616,6.887 72.586,6.927C72.506,6.967 72.466,7.077 72.466,7.227C72.466,7.357 72.496,7.457 72.546,7.507C72.596,7.567 72.686,7.587 72.826,7.587C72.936,7.587 73.046,7.567 73.106,7.517C73.176,7.467 73.196,7.347 73.196,7.217Z" style="fill:white;fill-rule:nonzero;"/>
            <path d="M75.186,6.637L75.186,13.467C75.186,14.407 75.556,14.797 76.366,14.797C76.746,14.797 77.096,14.737 77.336,14.687L77.336,14.227C77.136,14.257 76.866,14.297 76.536,14.297C76.066,14.297 75.766,14.127 75.766,13.407L75.766,6.637L75.186,6.637Z" style="fill:white;fill-rule:nonzero;"/>
            <path d="M82.536,14.737L82.536,11.257C82.536,10.157 82.376,9.737 82.126,9.467C81.856,9.157 81.366,9.027 80.596,9.027C79.796,9.027 78.966,9.197 78.546,9.307L78.546,9.777C78.926,9.707 79.796,9.547 80.476,9.547C81.106,9.547 81.476,9.647 81.656,9.857C81.846,10.087 81.966,10.487 81.966,11.457C80.176,11.617 79.036,11.827 78.606,12.147C78.386,12.287 78.166,12.667 78.166,13.297C78.166,13.817 78.286,14.167 78.486,14.387C78.716,14.647 79.136,14.837 79.916,14.837C80.886,14.837 81.486,14.587 81.656,14.467C81.706,14.427 81.846,14.237 81.926,14.127L81.976,14.127L82.116,14.737L82.536,14.737ZM81.966,13.957C81.666,14.107 80.956,14.347 80.106,14.347C79.496,14.347 79.136,14.207 78.966,14.027C78.826,13.867 78.736,13.607 78.736,13.247C78.736,12.827 78.836,12.577 78.986,12.447C79.216,12.197 80.666,11.987 81.966,11.907L81.966,13.957Z" style="fill:white;fill-rule:nonzero;"/>
            <path d="M89.466,11.667C89.466,10.517 89.176,9.827 88.776,9.467C88.456,9.187 87.986,9.017 87.206,9.017C86.446,9.017 85.786,9.197 85.626,9.307C85.566,9.337 85.336,9.557 85.256,9.667L85.216,9.667L85.216,6.637L84.636,6.637L84.636,14.737L84.716,14.737L85.006,14.567C85.506,14.687 86.096,14.787 86.786,14.787C87.736,14.787 88.316,14.577 88.696,14.217C89.176,13.757 89.466,12.857 89.466,11.667ZM88.866,11.787C88.866,12.827 88.616,13.527 88.256,13.867C87.956,14.147 87.486,14.297 86.726,14.297C86.156,14.297 85.606,14.217 85.216,14.157L85.216,9.867C85.706,9.647 86.376,9.537 86.986,9.537C87.656,9.537 88.056,9.667 88.316,9.897C88.606,10.157 88.866,10.737 88.866,11.787Z" style="fill:white;fill-rule:nonzero;"/>
            <path d="M91.266,6.637L91.266,13.467C91.266,14.407 91.636,14.797 92.446,14.797C92.826,14.797 93.176,14.737 93.416,14.687L93.416,14.227C93.216,14.257 92.946,14.297 92.616,14.297C92.146,14.297 91.846,14.127 91.846,13.407L91.846,6.637L91.266,6.637Z" style="fill:white;fill-rule:nonzero;"/>
            <path d="M94.236,11.977C94.236,13.887 94.906,14.847 96.776,14.847C97.546,14.847 98.266,14.707 98.666,14.607L98.706,14.127C98.316,14.187 97.656,14.317 96.846,14.317C95.276,14.317 94.836,13.487 94.836,11.957L98.926,11.957L98.926,11.267C98.926,9.827 98.396,9.017 96.796,9.017C95.036,9.017 94.236,10.017 94.236,11.977ZM96.736,9.497C97.946,9.497 98.356,10.067 98.356,11.307L98.356,11.507L94.856,11.507C94.936,10.177 95.446,9.497 96.736,9.497Z" style="fill:white;fill-rule:nonzero;"/>
        </g>
        <g transform="matrix(1,0,0,1,146.834,2.16146)">
            <path d="M59.256,14.737L56.456,7.237L55.386,7.237L52.386,14.737L52.996,14.737L54.006,12.177L57.666,12.177L58.606,14.737L59.256,14.737ZM57.486,11.657L54.196,11.657L55.736,7.787L56.056,7.787L57.486,11.657Z" style="fill:white;fill-rule:nonzero;"/>
            <path d="M65.126,9.127L64.496,9.127L62.526,14.197L62.286,14.197L60.386,9.127L59.756,9.127L61.886,14.737L62.886,14.737L65.126,9.127Z" style="fill:white;fill-rule:nonzero;"/>
            <path d="M70.416,14.737L70.416,11.257C70.416,10.157 70.256,9.737 70.006,9.467C69.736,9.157 69.246,9.027 68.476,9.027C67.676,9.027 66.846,9.197 66.426,9.307L66.426,9.777C66.806,9.707 67.676,9.547 68.356,9.547C68.986,9.547 69.356,9.647 69.536,9.857C69.726,10.087 69.846,10.487 69.846,11.457C68.056,11.617 66.916,11.827 66.486,12.147C66.266,12.287 66.046,12.667 66.046,13.297C66.046,13.817 66.166,14.167 66.366,14.387C66.596,14.647 67.016,14.837 67.796,14.837C68.766,14.837 69.366,14.587 69.536,14.467C69.586,14.427 69.726,14.237 69.806,14.127L69.856,14.127L69.996,14.737L70.416,14.737ZM69.846,13.957C69.546,14.107 68.836,14.347 67.986,14.347C67.376,14.347 67.016,14.207 66.846,14.027C66.706,13.867 66.616,13.607 66.616,13.247C66.616,12.827 66.716,12.577 66.866,12.447C67.096,12.197 68.546,11.987 69.846,11.907L69.846,13.957Z" style="fill:white;fill-rule:nonzero;"/>
            <path d="M73.106,14.737L73.106,9.127L72.526,9.127L72.526,14.737L73.106,14.737ZM73.196,7.217C73.196,7.087 73.176,6.987 73.106,6.927C73.056,6.877 72.966,6.857 72.846,6.857C72.716,6.857 72.616,6.887 72.586,6.927C72.506,6.967 72.466,7.077 72.466,7.227C72.466,7.357 72.496,7.457 72.546,7.507C72.596,7.567 72.686,7.587 72.826,7.587C72.936,7.587 73.046,7.567 73.106,7.517C73.176,7.467 73.196,7.347 73.196,7.217Z" style="fill:white;fill-rule:nonzero;"/>
            <path d="M75.186,6.637L75.186,13.467C75.186,14.407 75.556,14.797 76.366,14.797C76.746,14.797 77.096,14.737 77.336,14.687L77.336,14.227C77.136,14.257 76.866,14.297 76.536,14.297C76.066,14.297 75.766,14.127 75.766,13.407L75.766,6.637L75.186,6.637Z" style="fill:white;fill-rule:nonzero;"/>
            <path d="M82.536,14.737L82.536,11.257C82.536,10.157 82.376,9.737 82.126,9.467C81.856,9.157 81.366,9.027 80.596,9.027C79.796,9.027 78.966,9.197 78.546,9.307L78.546,9.777C78.926,9.707 79.796,9.547 80.476,9.547C81.106,9.547 81.476,9.647 81.656,9.857C81.846,10.087 81.966,10.487 81.966,11.457C80.176,11.617 79.036,11.827 78.606,12.147C78.386,12.287 78.166,12.667 78.166,13.297C78.166,13.817 78.286,14.167 78.486,14.387C78.716,14.647 79.136,14.837 79.916,14.837C80.886,14.837 81.486,14.587 81.656,14.467C81.706,14.427 81.846,14.237 81.926,14.127L81.976,14.127L82.116,14.737L82.536,14.737ZM81.966,13.957C81.666,14.107 80.956,14.347 80.106,14.347C79.496,14.347 79.136,14.207 78.966,14.027C78.826,13.867 78.736,13.607 78.736,13.247C78.736,12.827 78.836,12.577 78.986,12.447C79.216,12.197 80.666,11.987 81.966,11.907L81.966,13.957Z" style="fill:white;fill-rule:nonzero;"/>
            <path d="M89.466,11.667C89.466,10.517 89.176,9.827 88.776,9.467C88.456,9.187 87.986,9.017 87.206,9.017C86.446,9.017 85.786,9.197 85.626,9.307C85.566,9.337 85.336,9.557 85.256,9.667L85.216,9.667L85.216,6.637L84.636,6.637L84.636,14.737L84.716,14.737L85.006,14.567C85.506,14.687 86.096,14.787 86.786,14.787C87.736,14.787 88.316,14.577 88.696,14.217C89.176,13.757 89.466,12.857 89.466,11.667ZM88.866,11.787C88.866,12.827 88.616,13.527 88.256,13.867C87.956,14.147 87.486,14.297 86.726,14.297C86.156,14.297 85.606,14.217 85.216,14.157L85.216,9.867C85.706,9.647 86.376,9.537 86.986,9.537C87.656,9.537 88.056,9.667 88.316,9.897C88.606,10.157 88.866,10.737 88.866,11.787Z" style="fill:white;fill-rule:nonzero;"/>
            <path d="M91.266,6.637L91.266,13.467C91.266,14.407 91.636,14.797 92.446,14.797C92.826,14.797 93.176,14.737 93.416,14.687L93.416,14.227C93.216,14.257 92.946,14.297 92.616,14.297C92.146,14.297 91.846,14.127 91.846,13.407L91.846,6.637L91.266,6.637Z" style="fill:white;fill-rule:nonzero;"/>
            <path d="M94.236,11.977C94.236,13.887 94.906,14.847 96.776,14.847C97.546,14.847 98.266,14.707 98.666,14.607L98.706,14.127C98.316,14.187 97.656,14.317 96.846,14.317C95.276,14.317 94.836,13.487 94.836,11.957L98.926,11.957L98.926,11.267C98.926,9.827 98.396,9.017 96.796,9.017C95.036,9.017 94.236,10.017 94.236,11.977ZM96.736,9.497C97.946,9.497 98.356,10.067 98.356,11.307L98.356,11.507L94.856,11.507C94.936,10.177 95.446,9.497 96.736,9.497Z" style="fill:white;fill-rule:nonzero;"/>
        </g>
        <path d="M240.94,82.202L49.577,82.204L72.321,59.478L263.666,59.478L240.94,82.202Z" style="fill:rgb(55,5,170);"/>
        <path d="M2.837,42.52L42.521,82.204L82.205,42.521L42.52,2.836L2.837,42.52L2.837,42.52Z" style="fill:rgb(55,5,170);"/>
        <path d="M39.33,49.72L36.786,49.72L32.153,33.11L31.745,33.11L26.44,49.72L23.92,49.72L19.671,31.719L21.135,31.719L25.047,48.329L25.551,48.329L30.855,31.719L33.159,31.719L37.815,48.329L38.367,48.329L42.735,31.719L44.223,31.719L39.33,49.72Z" style="fill:white;fill-rule:nonzero;"/>
        <rect x="48.208" y="31.718" width="1.416" height="18.002" style="fill:white;"/>
        <path d="M56.512,48.447L66.185,48.447L65.777,49.719L55.12,49.719L55.12,31.718L56.512,31.718L56.512,48.447Z" style="fill:white;fill-rule:nonzero;"/>
        <g transform="matrix(1,0,0,1,47.7587,0)">
            <path d="M53.306,68.432L53.306,74.432L53.778,74.432L53.778,71.8L54.61,71.8C55.218,71.8 55.642,71.832 55.802,71.936C56.114,72.128 56.458,72.864 57.146,74.432L57.658,74.432C57.146,73.256 56.714,72.256 56.474,71.96C56.386,71.864 56.154,71.728 55.986,71.648L55.986,71.632C56.314,71.52 56.642,71.336 56.73,71.264C56.97,71.04 57.194,70.56 57.194,69.952C57.194,69.28 57.01,68.912 56.738,68.72C56.482,68.528 56.05,68.432 55.114,68.432L53.306,68.432ZM53.778,68.84L55.082,68.84C55.89,68.84 56.21,68.928 56.402,69.08C56.594,69.224 56.714,69.528 56.714,70.016C56.714,70.664 56.426,71.12 56.066,71.264C55.874,71.336 55.554,71.384 55.042,71.384L53.778,71.384L53.778,68.84Z" style="fill:white;fill-rule:nonzero;"/>
            <path d="M58.49,72.224C58.49,73.752 59.026,74.52 60.522,74.52C61.138,74.52 61.714,74.408 62.034,74.328L62.066,73.944C61.754,73.992 61.226,74.096 60.578,74.096C59.322,74.096 58.97,73.432 58.97,72.208L62.242,72.208L62.242,71.656C62.242,70.504 61.818,69.856 60.538,69.856C59.13,69.856 58.49,70.656 58.49,72.224ZM60.49,70.24C61.458,70.24 61.786,70.696 61.786,71.688L61.786,71.848L58.986,71.848C59.05,70.784 59.458,70.24 60.49,70.24Z" style="fill:white;fill-rule:nonzero;"/>
            <path d="M63.402,72.336C63.402,73.256 63.65,73.84 63.978,74.128C64.234,74.352 64.642,74.488 65.258,74.488C65.874,74.488 66.354,74.36 66.498,74.272C66.546,74.248 66.714,74.08 66.778,73.984L66.81,73.984L66.81,76.552L67.274,76.552L67.274,69.896L67.21,69.896L66.97,70.032C66.578,69.936 66.138,69.848 65.602,69.848C64.81,69.848 64.314,70.032 64.026,70.312C63.634,70.696 63.402,71.384 63.402,72.336ZM63.882,72.272C63.882,71.44 64.074,70.872 64.362,70.6C64.61,70.36 64.994,70.248 65.594,70.248C66.05,70.248 66.474,70.304 66.81,70.36L66.81,73.824C66.41,74 65.85,74.072 65.418,74.072C64.874,74.072 64.53,73.976 64.33,73.784C64.098,73.568 63.882,73.08 63.882,72.272Z" style="fill:white;fill-rule:nonzero;"/>
            <path d="M72.594,74.432L72.594,69.944L72.13,69.944L72.13,73.776C71.77,73.936 71.25,74.072 70.73,74.072C70.242,74.072 69.906,73.992 69.714,73.792C69.53,73.6 69.418,73.288 69.418,72.68L69.418,69.944L68.954,69.944L68.954,72.856C68.954,73.472 69.09,73.848 69.322,74.096C69.57,74.352 69.906,74.488 70.554,74.488C71.114,74.488 71.642,74.352 71.866,74.24C71.882,74.232 72.074,73.984 72.09,73.952L72.138,73.952L72.258,74.432L72.594,74.432Z" style="fill:white;fill-rule:nonzero;"/>
            <path d="M74.746,74.432L74.746,69.944L74.282,69.944L74.282,74.432L74.746,74.432ZM74.818,68.416C74.818,68.312 74.802,68.232 74.746,68.184C74.706,68.144 74.634,68.128 74.538,68.128C74.434,68.128 74.354,68.152 74.33,68.184C74.266,68.216 74.234,68.304 74.234,68.424C74.234,68.528 74.258,68.608 74.298,68.648C74.338,68.696 74.41,68.712 74.522,68.712C74.61,68.712 74.698,68.696 74.746,68.656C74.802,68.616 74.818,68.52 74.818,68.416Z" style="fill:white;fill-rule:nonzero;"/>
            <path d="M76.434,69.944L76.434,74.432L76.898,74.432L76.898,70.656C77.17,70.48 77.682,70.296 78.226,70.304C78.498,70.304 78.73,70.336 78.866,70.36L78.866,69.912C78.746,69.896 78.578,69.88 78.354,69.88C77.794,69.88 77.386,70.032 77.17,70.16C77.154,70.176 76.962,70.408 76.938,70.44L76.89,70.44L76.778,69.944L76.434,69.944Z" style="fill:white;fill-rule:nonzero;"/>
            <path d="M79.418,72.224C79.418,73.752 79.954,74.52 81.45,74.52C82.066,74.52 82.642,74.408 82.962,74.328L82.994,73.944C82.682,73.992 82.154,74.096 81.506,74.096C80.25,74.096 79.898,73.432 79.898,72.208L83.17,72.208L83.17,71.656C83.17,70.504 82.746,69.856 81.466,69.856C80.058,69.856 79.418,70.656 79.418,72.224ZM81.418,70.24C82.386,70.24 82.714,70.696 82.714,71.688L82.714,71.848L79.914,71.848C79.978,70.784 80.386,70.24 81.418,70.24Z" style="fill:white;fill-rule:nonzero;"/>
            <path d="M87.266,73.2C87.266,72.896 87.194,72.64 87.034,72.456C86.866,72.264 86.522,72.128 85.866,71.976C85.258,71.84 84.978,71.728 84.842,71.568C84.738,71.448 84.706,71.28 84.706,71.112C84.706,70.544 84.978,70.224 85.922,70.224C86.394,70.224 86.77,70.272 87.114,70.328L87.114,69.944C86.842,69.888 86.41,69.824 85.914,69.824C84.722,69.824 84.25,70.312 84.25,71.136C84.25,71.392 84.306,71.656 84.45,71.824C84.674,72.104 85.05,72.224 85.682,72.376C86.226,72.504 86.53,72.608 86.674,72.768C86.77,72.896 86.81,73.064 86.81,73.232C86.81,73.8 86.554,74.088 85.546,74.088C85.058,74.088 84.562,74.016 84.234,73.952L84.234,74.344C84.554,74.424 85.098,74.488 85.546,74.488C86.906,74.488 87.266,73.992 87.266,73.2Z" style="fill:white;fill-rule:nonzero;"/>
            <path d="M88.93,70.144C88.93,70.032 88.914,69.944 88.858,69.896C88.818,69.864 88.73,69.84 88.626,69.84C88.514,69.84 88.434,69.872 88.394,69.896C88.322,69.928 88.298,70.024 88.298,70.144C88.298,70.264 88.322,70.344 88.362,70.392C88.41,70.44 88.49,70.456 88.618,70.456C88.706,70.456 88.81,70.44 88.858,70.4C88.914,70.352 88.93,70.248 88.93,70.144ZM88.93,74.152C88.93,74.048 88.914,73.952 88.858,73.912C88.818,73.872 88.73,73.848 88.626,73.848C88.514,73.848 88.434,73.88 88.394,73.904C88.322,73.936 88.298,74.04 88.298,74.16C88.298,74.272 88.322,74.352 88.362,74.408C88.41,74.448 88.49,74.472 88.618,74.472C88.706,74.472 88.81,74.456 88.858,74.416C88.914,74.36 88.93,74.264 88.93,74.152Z" style="fill:white;fill-rule:nonzero;"/>
            <path d="M99.324,72.602C99.324,72.172 99.254,71.652 99.004,71.352C98.494,70.702 95.624,70.202 95.184,69.642C95.034,69.452 94.964,69.132 94.964,68.752C94.964,68.292 95.124,67.942 95.284,67.772C95.504,67.512 96.054,67.352 96.984,67.352C97.914,67.352 98.444,67.422 99.074,67.492L99.074,66.982C98.564,66.892 97.884,66.822 97.064,66.822C95.834,66.822 95.194,67.072 94.874,67.382C94.534,67.712 94.374,68.252 94.374,68.802C94.374,69.212 94.444,69.742 94.674,70.022C95.244,70.752 97.924,71.122 98.484,71.732C98.634,71.902 98.714,72.222 98.714,72.632C98.714,73.132 98.554,73.462 98.374,73.642C98.164,73.842 97.614,74.002 96.584,74.002C95.644,74.002 94.984,73.882 94.394,73.782L94.394,74.302C94.894,74.422 95.644,74.542 96.574,74.542C97.644,74.542 98.394,74.382 98.804,74.032C99.114,73.762 99.324,73.202 99.324,72.602Z" style="fill:white;fill-rule:nonzero;"/>
            <path d="M105.574,74.432L105.574,68.822L104.994,68.822L104.994,73.612C104.544,73.812 103.894,73.982 103.244,73.982C102.634,73.982 102.214,73.882 101.974,73.632C101.744,73.392 101.604,73.002 101.604,72.242L101.604,68.822L101.024,68.822L101.024,72.462C101.024,73.232 101.194,73.702 101.484,74.012C101.794,74.332 102.214,74.502 103.024,74.502C103.724,74.502 104.384,74.332 104.664,74.192C104.684,74.182 104.924,73.872 104.944,73.832L105.004,73.832L105.154,74.432L105.574,74.432Z" style="fill:white;fill-rule:nonzero;"/>
            <path d="M112.504,71.362C112.504,70.212 112.214,69.522 111.814,69.162C111.494,68.882 111.024,68.712 110.244,68.712C109.484,68.712 108.824,68.892 108.664,69.002C108.604,69.032 108.374,69.252 108.294,69.362L108.254,69.362L108.254,66.332L107.674,66.332L107.674,74.432L107.754,74.432L108.044,74.262C108.544,74.382 109.134,74.482 109.824,74.482C110.774,74.482 111.354,74.272 111.734,73.912C112.214,73.452 112.504,72.552 112.504,71.362ZM111.904,71.482C111.904,72.522 111.654,73.222 111.294,73.562C110.994,73.842 110.524,73.992 109.764,73.992C109.194,73.992 108.644,73.912 108.254,73.852L108.254,69.562C108.744,69.342 109.414,69.232 110.024,69.232C110.694,69.232 111.094,69.362 111.354,69.592C111.644,69.852 111.904,70.432 111.904,71.482Z" style="fill:white;fill-rule:nonzero;"/>
            <path d="M114.304,66.332L114.304,73.162C114.304,74.102 114.674,74.492 115.484,74.492C115.864,74.492 116.214,74.432 116.454,74.382L116.454,73.922C116.254,73.952 115.984,73.992 115.654,73.992C115.184,73.992 114.884,73.822 114.884,73.102L114.884,66.332L114.304,66.332Z" style="fill:white;fill-rule:nonzero;"/>
            <path d="M118.234,74.432L118.234,68.822L117.654,68.822L117.654,74.432L118.234,74.432ZM118.324,66.912C118.324,66.782 118.304,66.682 118.234,66.622C118.184,66.572 118.094,66.552 117.974,66.552C117.844,66.552 117.744,66.582 117.714,66.622C117.634,66.662 117.594,66.772 117.594,66.922C117.594,67.052 117.624,67.152 117.674,67.202C117.724,67.262 117.814,67.282 117.954,67.282C118.064,67.282 118.174,67.262 118.234,67.212C118.304,67.162 118.324,67.042 118.324,66.912Z" style="fill:white;fill-rule:nonzero;"/>
            <path d="M128.494,74.432L128.494,70.762C128.494,69.992 128.364,69.482 128.044,69.182C127.744,68.892 127.324,68.742 126.664,68.742C125.934,68.742 125.294,68.962 124.974,69.142L124.664,69.532L124.614,69.532C124.564,69.442 124.494,69.322 124.364,69.202C124.054,68.902 123.594,68.742 122.874,68.742C122.144,68.742 121.524,68.942 121.264,69.082L120.964,69.412L120.914,69.412L120.764,68.822L120.334,68.822L120.334,74.432L120.914,74.432L120.914,69.642C121.334,69.472 121.914,69.262 122.644,69.262C123.104,69.262 123.574,69.352 123.814,69.582C124.044,69.802 124.124,70.102 124.124,70.592L124.124,74.432L124.704,74.432L124.704,69.712C125.104,69.502 125.694,69.262 126.414,69.262C126.884,69.262 127.304,69.372 127.544,69.602C127.784,69.832 127.914,70.222 127.914,70.962L127.914,74.432L128.494,74.432Z" style="fill:white;fill-rule:nonzero;"/>
            <path d="M134.594,74.432L134.594,70.952C134.594,69.852 134.434,69.432 134.184,69.162C133.914,68.852 133.424,68.722 132.654,68.722C131.854,68.722 131.024,68.892 130.604,69.002L130.604,69.472C130.984,69.402 131.854,69.242 132.534,69.242C133.164,69.242 133.534,69.342 133.714,69.552C133.904,69.782 134.024,70.182 134.024,71.152C132.234,71.312 131.094,71.522 130.664,71.842C130.444,71.982 130.224,72.362 130.224,72.992C130.224,73.512 130.344,73.862 130.544,74.082C130.774,74.342 131.194,74.532 131.974,74.532C132.944,74.532 133.544,74.282 133.714,74.162C133.764,74.122 133.904,73.932 133.984,73.822L134.034,73.822L134.174,74.432L134.594,74.432ZM134.024,73.652C133.724,73.802 133.014,74.042 132.164,74.042C131.554,74.042 131.194,73.902 131.024,73.722C130.884,73.562 130.794,73.302 130.794,72.942C130.794,72.522 130.894,72.272 131.044,72.142C131.274,71.892 132.724,71.682 134.024,71.602L134.024,73.652Z" style="fill:white;fill-rule:nonzero;"/>
            <path d="M139.694,68.822L137.594,68.822L137.594,67.502L137.014,67.652L137.014,68.822L135.934,68.822L135.854,69.312L137.014,69.312L137.014,73.162C137.014,74.132 137.424,74.492 138.424,74.492C138.854,74.492 139.324,74.422 139.624,74.362L139.674,73.872C139.454,73.902 139.034,73.972 138.574,73.972C137.944,73.972 137.594,73.812 137.594,73.052L137.594,69.312L139.584,69.312L139.694,68.822Z" style="fill:white;fill-rule:nonzero;"/>
            <path d="M141.774,74.432L141.774,68.822L141.194,68.822L141.194,74.432L141.774,74.432ZM141.864,66.912C141.864,66.782 141.844,66.682 141.774,66.622C141.724,66.572 141.634,66.552 141.514,66.552C141.384,66.552 141.284,66.582 141.254,66.622C141.174,66.662 141.134,66.772 141.134,66.922C141.134,67.052 141.164,67.152 141.214,67.202C141.264,67.262 141.354,67.282 141.494,67.282C141.604,67.282 141.714,67.262 141.774,67.212C141.844,67.162 141.864,67.042 141.864,66.912Z" style="fill:white;fill-rule:nonzero;"/>
            <path d="M148.764,71.502C148.764,70.342 148.514,69.692 148.104,69.262C147.754,68.912 147.164,68.672 146.314,68.672C145.424,68.672 144.804,68.932 144.404,69.312C143.894,69.792 143.604,70.672 143.604,71.762C143.604,72.842 143.894,73.502 144.214,73.872C144.584,74.292 145.174,74.552 146.104,74.552C147.094,74.552 147.664,74.282 148.054,73.882C148.484,73.432 148.764,72.602 148.764,71.502ZM146.164,74.052C145.354,74.052 144.924,73.802 144.654,73.492C144.374,73.172 144.184,72.532 144.184,71.692C144.184,70.672 144.494,69.962 144.834,69.652C145.094,69.412 145.554,69.192 146.244,69.192C146.944,69.192 147.374,69.372 147.654,69.662C147.954,69.972 148.174,70.452 148.174,71.602C148.174,72.602 147.924,73.222 147.574,73.582C147.284,73.872 146.784,74.052 146.164,74.052Z" style="fill:white;fill-rule:nonzero;"/>
            <path d="M155.144,74.432L155.144,70.762C155.144,70.002 154.984,69.492 154.674,69.202C154.374,68.902 153.944,68.742 153.214,68.742C152.504,68.742 151.784,68.942 151.514,69.092C151.484,69.112 151.254,69.372 151.224,69.412L151.174,69.412L151.014,68.822L150.594,68.822L150.594,74.432L151.174,74.432L151.174,69.632C151.614,69.452 152.244,69.262 152.964,69.262C153.484,69.262 153.924,69.362 154.174,69.602C154.424,69.842 154.564,70.252 154.564,70.962L154.564,74.432L155.144,74.432Z" style="fill:white;fill-rule:nonzero;"/>
            <path d="M164.304,72.182C164.304,70.542 163.664,70.082 161.924,70.082C161.154,70.082 160.574,70.192 160.154,70.262L160.154,67.442L164.074,67.442L164.074,66.932L159.634,66.932L159.634,70.812C160.074,70.752 161.034,70.602 161.744,70.602C163.284,70.602 163.704,70.942 163.704,72.262C163.704,73.502 163.104,73.992 161.374,73.992C160.624,73.992 159.884,73.892 159.404,73.822L159.404,74.352C159.924,74.432 160.654,74.532 161.344,74.532C163.574,74.532 164.304,73.762 164.304,72.182Z" style="fill:white;fill-rule:nonzero;"/>
        </g>
    </g>
</svg>
