<?xml version="1.0" standalone="no"?>
<!DOCTYPE svg PUBLIC "-//W3C//DTD SVG 1.1//EN" "http://www.w3.org/Graphics/SVG/1.1/DTD/svg11.dtd">
<svg width="100%" height="100%" viewBox="0 0 284 86" version="1.1" xmlns="http://www.w3.org/2000/svg" xmlns:xlink="http://www.w3.org/1999/xlink" xml:space="preserve" style="fill-rule:evenodd;clip-rule:evenodd;stroke-linejoin:round;stroke-miterlimit:1.41421;">
    <g id="primary">
        <path d="M82.769,26.988L87.598,31.817L78.582,31.817L73.749,26.988L49.577,2.835L112.057,2.837L134.782,25.561L81.341,25.56L82.769,26.988Z" style="fill:rgb(128,128,128);"/>
        <path d="M147.207,26.988L152.954,32.735L143.938,32.735L138.187,26.988L114.015,2.835L176.495,2.837L199.22,25.561L145.779,25.56L147.207,26.988Z" style="fill:rgb(51,51,51);"/>
        <path d="M211.652,26.988L217.399,32.735L208.383,32.735L202.632,26.988L178.46,2.835L240.94,2.837L263.666,25.561L210.224,25.56L211.652,26.988Z" style="fill:rgb(51,51,51);"/>
        <path d="M215.845,31.181L269.29,31.181L280.63,42.521L269.293,53.858L215.845,53.858L206.829,53.858L212.498,48.189L210.516,48.189L204.847,53.858L151.4,53.858L142.384,53.858L148.053,48.189L146.071,48.189L140.402,53.858L86.962,53.858L72.849,53.858L78.518,48.189L74.6,48.189L74.6,36.85L78.516,36.85L72.847,31.181L140.4,31.181L146.069,36.85L148.05,36.85L142.381,31.181L204.845,31.181L210.514,36.85L212.496,36.85L206.827,31.181L215.845,31.181Z" style="fill:rgb(51,51,51);"/>
        <g>
            <path d="M91.295,47.794L91.295,47.08L94.391,47.08L94.391,37.863L91.295,38.423L91.295,37.709L95.189,37.022L95.189,47.08L97.991,47.08L97.991,47.794L91.295,47.794L91.295,47.794Z" style="fill:white;fill-rule:nonzero;"/>
            <path d="M113.936,47.794L106.722,47.794L106.722,46.954C106.848,45.413 107.688,44.418 110.154,43.214C111.723,42.43 112.409,42.024 112.774,41.547C113.082,41.113 113.166,40.553 113.166,40.006C113.166,38.563 112.634,37.905 110.351,37.905C109.104,37.905 107.76,38.213 107.143,38.353L107.143,37.624C107.969,37.4 109.258,37.147 110.518,37.147C113.193,37.147 114.034,38.016 114.034,39.907C114.034,40.86 113.824,41.518 113.502,41.924C112.956,42.638 111.877,43.185 110.504,43.857C107.941,45.104 107.535,45.986 107.506,47.037L114.146,47.037L113.936,47.794L113.936,47.794Z" style="fill:white;fill-rule:nonzero;"/>
            <path d="M128.734,41.841L127.599,42.373L127.599,42.429L128.789,42.849C129.266,43.242 129.643,44.138 129.643,45.048C129.643,47.065 128.495,47.934 125.651,47.934C124.475,47.934 123.438,47.78 122.821,47.64L122.821,46.926C123.466,47.038 124.6,47.206 125.651,47.206C128.256,47.206 128.803,46.352 128.803,45.049C128.803,43.186 127.556,42.836 125.973,42.836L123.97,42.836L123.97,42.107L125.791,42.107C127.164,42.107 128.606,41.757 128.606,39.936C128.606,38.591 128.102,37.891 125.973,37.891C124.852,37.891 123.774,38.115 123.045,38.269L123.045,37.568C123.802,37.372 124.964,37.148 126.113,37.148C128.634,37.148 129.433,38.031 129.433,39.824C129.434,40.804 129,41.588 128.734,41.841L128.734,41.841Z" style="fill:white;fill-rule:nonzero;"/>
        </g>
        <g>
            <path d="M166.718,47.794L165.947,47.794L165.947,44.811L160.553,44.811L160.553,43.998L165.191,37.288L166.717,37.288L166.717,44.11L169.071,44.11L168.86,44.811L166.716,44.811L166.718,47.794ZM165.948,44.11L165.948,37.975L165.569,37.975L161.465,43.928L161.465,44.11L165.948,44.11Z" style="fill:white;fill-rule:nonzero;"/>
            <path d="M179.903,47.934C178.938,47.934 177.916,47.794 177.186,47.682L177.186,46.939C177.858,47.037 178.895,47.177 179.946,47.177C182.37,47.177 183.211,46.49 183.211,44.754C183.211,42.905 182.623,42.429 180.465,42.429C179.471,42.429 178.126,42.639 177.51,42.723L177.51,37.288L183.73,37.288L183.73,38.002L178.24,38.002L178.24,41.952C178.828,41.854 179.639,41.7 180.719,41.7C183.157,41.7 184.053,42.345 184.053,44.641C184.05,46.855 183.028,47.934 179.903,47.934L179.903,47.934Z" style="fill:white;fill-rule:nonzero;"/>
            <path d="M193.666,42.667L193.735,42.667L194.182,42.205C194.786,41.981 195.877,41.673 197.153,41.673C199.632,41.673 200.459,42.709 200.459,44.656C200.459,46.687 199.407,47.934 196.705,47.934C193.764,47.934 192.852,46.071 192.852,42.975C192.852,41.028 193.399,39.627 194.225,38.745C195.192,37.736 196.733,37.106 199.436,37.078L199.715,37.821C197.082,37.835 195.652,38.381 194.813,39.278C194.155,39.977 193.721,41.168 193.666,42.667L193.666,42.667ZM196.886,42.401C195.64,42.401 194.491,42.709 193.665,43.031C193.692,45.931 194.603,47.205 196.745,47.205C198.749,47.205 199.645,46.421 199.645,44.726C199.646,43.102 198.987,42.401 196.886,42.401L196.886,42.401Z" style="fill:white;fill-rule:nonzero;"/>
        </g>
        <g>
            <path d="M229.528,38.227L229.528,38.031L223.213,38.031L223.437,37.288L230.426,37.288L230.426,38.213L225.411,47.794L224.501,47.794L229.528,38.227Z" style="fill:white;fill-rule:nonzero;"/>
            <path d="M240.167,42.919L241.118,42.4L241.118,42.33L240.278,41.896C239.914,41.532 239.563,41.013 239.563,40.047C239.563,38.352 240.627,37.133 243.092,37.133C245.544,37.133 246.454,38.225 246.454,39.794C246.454,40.789 246.033,41.391 245.641,41.811L244.774,42.33L244.774,42.4L245.837,42.793C246.399,43.241 246.72,43.956 246.72,44.908C246.72,46.645 245.641,47.934 242.882,47.934C240.278,47.934 239.197,46.897 239.197,45.119C239.2,44.222 239.564,43.479 240.167,42.919L240.167,42.919ZM240.027,45.02C240.027,46.421 240.84,47.219 242.968,47.219C245.139,47.219 245.896,46.197 245.896,44.992C245.896,43.073 244.677,42.919 241.553,42.582C240.782,43.087 240.027,43.774 240.027,45.02L240.027,45.02ZM240.39,39.977C240.39,41.7 241.484,41.938 244.228,42.19C245.111,41.644 245.615,40.929 245.615,39.893C245.615,38.548 244.859,37.848 243.011,37.848C241.077,37.849 240.39,38.801 240.39,39.977L240.39,39.977Z" style="fill:white;fill-rule:nonzero;"/>
            <path d="M261.883,42.429L261.814,42.429L261.378,42.891C260.804,43.129 259.726,43.41 258.521,43.41C256.014,43.41 255.131,42.401 255.131,40.468C255.131,38.255 256.519,37.148 258.87,37.148C261.616,37.148 262.694,38.675 262.694,42.009C262.694,44.012 262.149,45.483 261.321,46.351C260.397,47.36 258.815,47.962 256.096,48.018L255.829,47.247C258.421,47.233 259.933,46.715 260.746,45.832C261.379,45.119 261.841,43.942 261.883,42.429L261.883,42.429ZM258.704,42.681C259.965,42.681 261.1,42.387 261.884,42.093C261.857,39.123 261.002,37.877 258.818,37.877C256.857,37.877 255.945,38.815 255.945,40.413C255.945,41.981 256.644,42.681 258.704,42.681L258.704,42.681Z" style="fill:white;fill-rule:nonzero;"/>
        </g>
        <g transform="matrix(1,0,0,1,82.3963,2.16146)">
            <path d="M59.256,14.737L56.456,7.237L55.386,7.237L52.386,14.737L52.996,14.737L54.006,12.177L57.666,12.177L58.606,14.737L59.256,14.737ZM57.486,11.657L54.196,11.657L55.736,7.787L56.056,7.787L57.486,11.657Z" style="fill:white;fill-rule:nonzero;"/>
            <path d="M65.126,9.127L64.496,9.127L62.526,14.197L62.286,14.197L60.386,9.127L59.756,9.127L61.886,14.737L62.886,14.737L65.126,9.127Z" style="fill:white;fill-rule:nonzero;"/>
            <path d="M70.416,14.737L70.416,11.257C70.416,10.157 70.256,9.737 70.006,9.467C69.736,9.157 69.246,9.027 68.476,9.027C67.676,9.027 66.846,9.197 66.426,9.307L66.426,9.777C66.806,9.707 67.676,9.547 68.356,9.547C68.986,9.547 69.356,9.647 69.536,9.857C69.726,10.087 69.846,10.487 69.846,11.457C68.056,11.617 66.916,11.827 66.486,12.147C66.266,12.287 66.046,12.667 66.046,13.297C66.046,13.817 66.166,14.167 66.366,14.387C66.596,14.647 67.016,14.837 67.796,14.837C68.766,14.837 69.366,14.587 69.536,14.467C69.586,14.427 69.726,14.237 69.806,14.127L69.856,14.127L69.996,14.737L70.416,14.737ZM69.846,13.957C69.546,14.107 68.836,14.347 67.986,14.347C67.376,14.347 67.016,14.207 66.846,14.027C66.706,13.867 66.616,13.607 66.616,13.247C66.616,12.827 66.716,12.577 66.866,12.447C67.096,12.197 68.546,11.987 69.846,11.907L69.846,13.957Z" style="fill:white;fill-rule:nonzero;"/>
            <path d="M73.106,14.737L73.106,9.127L72.526,9.127L72.526,14.737L73.106,14.737ZM73.196,7.217C73.196,7.087 73.176,6.987 73.106,6.927C73.056,6.877 72.966,6.857 72.846,6.857C72.716,6.857 72.616,6.887 72.586,6.927C72.506,6.967 72.466,7.077 72.466,7.227C72.466,7.357 72.496,7.457 72.546,7.507C72.596,7.567 72.686,7.587 72.826,7.587C72.936,7.587 73.046,7.567 73.106,7.517C73.176,7.467 73.196,7.347 73.196,7.217Z" style="fill:white;fill-rule:nonzero;"/>
            <path d="M75.186,6.637L75.186,13.467C75.186,14.407 75.556,14.797 76.366,14.797C76.746,14.797 77.096,14.737 77.336,14.687L77.336,14.227C77.136,14.257 76.866,14.297 76.536,14.297C76.066,14.297 75.766,14.127 75.766,13.407L75.766,6.637L75.186,6.637Z" style="fill:white;fill-rule:nonzero;"/>
            <path d="M82.536,14.737L82.536,11.257C82.536,10.157 82.376,9.737 82.126,9.467C81.856,9.157 81.366,9.027 80.596,9.027C79.796,9.027 78.966,9.197 78.546,9.307L78.546,9.777C78.926,9.707 79.796,9.547 80.476,9.547C81.106,9.547 81.476,9.647 81.656,9.857C81.846,10.087 81.966,10.487 81.966,11.457C80.176,11.617 79.036,11.827 78.606,12.147C78.386,12.287 78.166,12.667 78.166,13.297C78.166,13.817 78.286,14.167 78.486,14.387C78.716,14.647 79.136,14.837 79.916,14.837C80.886,14.837 81.486,14.587 81.656,14.467C81.706,14.427 81.846,14.237 81.926,14.127L81.976,14.127L82.116,14.737L82.536,14.737ZM81.966,13.957C81.666,14.107 80.956,14.347 80.106,14.347C79.496,14.347 79.136,14.207 78.966,14.027C78.826,13.867 78.736,13.607 78.736,13.247C78.736,12.827 78.836,12.577 78.986,12.447C79.216,12.197 80.666,11.987 81.966,11.907L81.966,13.957Z" style="fill:white;fill-rule:nonzero;"/>
            <path d="M89.466,11.667C89.466,10.517 89.176,9.827 88.776,9.467C88.456,9.187 87.986,9.017 87.206,9.017C86.446,9.017 85.786,9.197 85.626,9.307C85.566,9.337 85.336,9.557 85.256,9.667L85.216,9.667L85.216,6.637L84.636,6.637L84.636,14.737L84.716,14.737L85.006,14.567C85.506,14.687 86.096,14.787 86.786,14.787C87.736,14.787 88.316,14.577 88.696,14.217C89.176,13.757 89.466,12.857 89.466,11.667ZM88.866,11.787C88.866,12.827 88.616,13.527 88.256,13.867C87.956,14.147 87.486,14.297 86.726,14.297C86.156,14.297 85.606,14.217 85.216,14.157L85.216,9.867C85.706,9.647 86.376,9.537 86.986,9.537C87.656,9.537 88.056,9.667 88.316,9.897C88.606,10.157 88.866,10.737 88.866,11.787Z" style="fill:white;fill-rule:nonzero;"/>
            <path d="M91.266,6.637L91.266,13.467C91.266,14.407 91.636,14.797 92.446,14.797C92.826,14.797 93.176,14.737 93.416,14.687L93.416,14.227C93.216,14.257 92.946,14.297 92.616,14.297C92.146,14.297 91.846,14.127 91.846,13.407L91.846,6.637L91.266,6.637Z" style="fill:white;fill-rule:nonzero;"/>
            <path d="M94.236,11.977C94.236,13.887 94.906,14.847 96.776,14.847C97.546,14.847 98.266,14.707 98.666,14.607L98.706,14.127C98.316,14.187 97.656,14.317 96.846,14.317C95.276,14.317 94.836,13.487 94.836,11.957L98.926,11.957L98.926,11.267C98.926,9.827 98.396,9.017 96.796,9.017C95.036,9.017 94.236,10.017 94.236,11.977ZM96.736,9.497C97.946,9.497 98.356,10.067 98.356,11.307L98.356,11.507L94.856,11.507C94.936,10.177 95.446,9.497 96.736,9.497Z" style="fill:white;fill-rule:nonzero;"/>
        </g>
        <g transform="matrix(1,0,0,1,146.834,2.16146)">
            <path d="M59.256,14.737L56.456,7.237L55.386,7.237L52.386,14.737L52.996,14.737L54.006,12.177L57.666,12.177L58.606,14.737L59.256,14.737ZM57.486,11.657L54.196,11.657L55.736,7.787L56.056,7.787L57.486,11.657Z" style="fill:white;fill-rule:nonzero;"/>
            <path d="M65.126,9.127L64.496,9.127L62.526,14.197L62.286,14.197L60.386,9.127L59.756,9.127L61.886,14.737L62.886,14.737L65.126,9.127Z" style="fill:white;fill-rule:nonzero;"/>
            <path d="M70.416,14.737L70.416,11.257C70.416,10.157 70.256,9.737 70.006,9.467C69.736,9.157 69.246,9.027 68.476,9.027C67.676,9.027 66.846,9.197 66.426,9.307L66.426,9.777C66.806,9.707 67.676,9.547 68.356,9.547C68.986,9.547 69.356,9.647 69.536,9.857C69.726,10.087 69.846,10.487 69.846,11.457C68.056,11.617 66.916,11.827 66.486,12.147C66.266,12.287 66.046,12.667 66.046,13.297C66.046,13.817 66.166,14.167 66.366,14.387C66.596,14.647 67.016,14.837 67.796,14.837C68.766,14.837 69.366,14.587 69.536,14.467C69.586,14.427 69.726,14.237 69.806,14.127L69.856,14.127L69.996,14.737L70.416,14.737ZM69.846,13.957C69.546,14.107 68.836,14.347 67.986,14.347C67.376,14.347 67.016,14.207 66.846,14.027C66.706,13.867 66.616,13.607 66.616,13.247C66.616,12.827 66.716,12.577 66.866,12.447C67.096,12.197 68.546,11.987 69.846,11.907L69.846,13.957Z" style="fill:white;fill-rule:nonzero;"/>
            <path d="M73.106,14.737L73.106,9.127L72.526,9.127L72.526,14.737L73.106,14.737ZM73.196,7.217C73.196,7.087 73.176,6.987 73.106,6.927C73.056,6.877 72.966,6.857 72.846,6.857C72.716,6.857 72.616,6.887 72.586,6.927C72.506,6.967 72.466,7.077 72.466,7.227C72.466,7.357 72.496,7.457 72.546,7.507C72.596,7.567 72.686,7.587 72.826,7.587C72.936,7.587 73.046,7.567 73.106,7.517C73.176,7.467 73.196,7.347 73.196,7.217Z" style="fill:white;fill-rule:nonzero;"/>
            <path d="M75.186,6.637L75.186,13.467C75.186,14.407 75.556,14.797 76.366,14.797C76.746,14.797 77.096,14.737 77.336,14.687L77.336,14.227C77.136,14.257 76.866,14.297 76.536,14.297C76.066,14.297 75.766,14.127 75.766,13.407L75.766,6.637L75.186,6.637Z" style="fill:white;fill-rule:nonzero;"/>
            <path d="M82.536,14.737L82.536,11.257C82.536,10.157 82.376,9.737 82.126,9.467C81.856,9.157 81.366,9.027 80.596,9.027C79.796,9.027 78.966,9.197 78.546,9.307L78.546,9.777C78.926,9.707 79.796,9.547 80.476,9.547C81.106,9.547 81.476,9.647 81.656,9.857C81.846,10.087 81.966,10.487 81.966,11.457C80.176,11.617 79.036,11.827 78.606,12.147C78.386,12.287 78.166,12.667 78.166,13.297C78.166,13.817 78.286,14.167 78.486,14.387C78.716,14.647 79.136,14.837 79.916,14.837C80.886,14.837 81.486,14.587 81.656,14.467C81.706,14.427 81.846,14.237 81.926,14.127L81.976,14.127L82.116,14.737L82.536,14.737ZM81.966,13.957C81.666,14.107 80.956,14.347 80.106,14.347C79.496,14.347 79.136,14.207 78.966,14.027C78.826,13.867 78.736,13.607 78.736,13.247C78.736,12.827 78.836,12.577 78.986,12.447C79.216,12.197 80.666,11.987 81.966,11.907L81.966,13.957Z" style="fill:white;fill-rule:nonzero;"/>
            <path d="M89.466,11.667C89.466,10.517 89.176,9.827 88.776,9.467C88.456,9.187 87.986,9.017 87.206,9.017C86.446,9.017 85.786,9.197 85.626,9.307C85.566,9.337 85.336,9.557 85.256,9.667L85.216,9.667L85.216,6.637L84.636,6.637L84.636,14.737L84.716,14.737L85.006,14.567C85.506,14.687 86.096,14.787 86.786,14.787C87.736,14.787 88.316,14.577 88.696,14.217C89.176,13.757 89.466,12.857 89.466,11.667ZM88.866,11.787C88.866,12.827 88.616,13.527 88.256,13.867C87.956,14.147 87.486,14.297 86.726,14.297C86.156,14.297 85.606,14.217 85.216,14.157L85.216,9.867C85.706,9.647 86.376,9.537 86.986,9.537C87.656,9.537 88.056,9.667 88.316,9.897C88.606,10.157 88.866,10.737 88.866,11.787Z" style="fill:white;fill-rule:nonzero;"/>
            <path d="M91.266,6.637L91.266,13.467C91.266,14.407 91.636,14.797 92.446,14.797C92.826,14.797 93.176,14.737 93.416,14.687L93.416,14.227C93.216,14.257 92.946,14.297 92.616,14.297C92.146,14.297 91.846,14.127 91.846,13.407L91.846,6.637L91.266,6.637Z" style="fill:white;fill-rule:nonzero;"/>
            <path d="M94.236,11.977C94.236,13.887 94.906,14.847 96.776,14.847C97.546,14.847 98.266,14.707 98.666,14.607L98.706,14.127C98.316,14.187 97.656,14.317 96.846,14.317C95.276,14.317 94.836,13.487 94.836,11.957L98.926,11.957L98.926,11.267C98.926,9.827 98.396,9.017 96.796,9.017C95.036,9.017 94.236,10.017 94.236,11.977ZM96.736,9.497C97.946,9.497 98.356,10.067 98.356,11.307L98.356,11.507L94.856,11.507C94.936,10.177 95.446,9.497 96.736,9.497Z" style="fill:white;fill-rule:nonzero;"/>
        </g>
        <path d="M240.94,82.202L49.577,82.204L72.321,59.478L263.666,59.478L240.94,82.202Z" style="fill:rgb(51,51,51);"/>
        <g transform="matrix(1,0,0,1,47.7587,0)">
            <path d="M77.306,68.432L77.306,74.432L77.778,74.432L77.778,71.8L78.61,71.8C79.218,71.8 79.642,71.832 79.802,71.936C80.114,72.128 80.458,72.864 81.146,74.432L81.658,74.432C81.146,73.256 80.714,72.256 80.474,71.96C80.386,71.864 80.154,71.728 79.986,71.648L79.986,71.632C80.314,71.52 80.642,71.336 80.73,71.264C80.97,71.04 81.194,70.56 81.194,69.952C81.194,69.28 81.01,68.912 80.738,68.72C80.482,68.528 80.05,68.432 79.114,68.432L77.306,68.432ZM77.778,68.84L79.082,68.84C79.89,68.84 80.21,68.928 80.402,69.08C80.594,69.224 80.714,69.528 80.714,70.016C80.714,70.664 80.426,71.12 80.066,71.264C79.874,71.336 79.554,71.384 79.042,71.384L77.778,71.384L77.778,68.84Z" style="fill:white;fill-rule:nonzero;"/>
            <path d="M82.49,72.224C82.49,73.752 83.026,74.52 84.522,74.52C85.138,74.52 85.714,74.408 86.034,74.328L86.066,73.944C85.754,73.992 85.226,74.096 84.578,74.096C83.322,74.096 82.97,73.432 82.97,72.208L86.242,72.208L86.242,71.656C86.242,70.504 85.818,69.856 84.538,69.856C83.13,69.856 82.49,70.656 82.49,72.224ZM84.49,70.24C85.458,70.24 85.786,70.696 85.786,71.688L85.786,71.848L82.986,71.848C83.05,70.784 83.458,70.24 84.49,70.24Z" style="fill:white;fill-rule:nonzero;"/>
            <path d="M87.402,72.336C87.402,73.256 87.65,73.84 87.978,74.128C88.234,74.352 88.642,74.488 89.258,74.488C89.874,74.488 90.354,74.36 90.498,74.272C90.546,74.248 90.714,74.08 90.778,73.984L90.81,73.984L90.81,76.552L91.274,76.552L91.274,69.896L91.21,69.896L90.97,70.032C90.578,69.936 90.138,69.848 89.602,69.848C88.81,69.848 88.314,70.032 88.026,70.312C87.634,70.696 87.402,71.384 87.402,72.336ZM87.882,72.272C87.882,71.44 88.074,70.872 88.362,70.6C88.61,70.36 88.994,70.248 89.594,70.248C90.05,70.248 90.474,70.304 90.81,70.36L90.81,73.824C90.41,74 89.85,74.072 89.418,74.072C88.874,74.072 88.53,73.976 88.33,73.784C88.098,73.568 87.882,73.08 87.882,72.272Z" style="fill:white;fill-rule:nonzero;"/>
            <path d="M96.594,74.432L96.594,69.944L96.13,69.944L96.13,73.776C95.77,73.936 95.25,74.072 94.73,74.072C94.242,74.072 93.906,73.992 93.714,73.792C93.53,73.6 93.418,73.288 93.418,72.68L93.418,69.944L92.954,69.944L92.954,72.856C92.954,73.472 93.09,73.848 93.322,74.096C93.57,74.352 93.906,74.488 94.554,74.488C95.114,74.488 95.642,74.352 95.866,74.24C95.882,74.232 96.074,73.984 96.09,73.952L96.138,73.952L96.258,74.432L96.594,74.432Z" style="fill:white;fill-rule:nonzero;"/>
            <path d="M98.746,74.432L98.746,69.944L98.282,69.944L98.282,74.432L98.746,74.432ZM98.818,68.416C98.818,68.312 98.802,68.232 98.746,68.184C98.706,68.144 98.634,68.128 98.538,68.128C98.434,68.128 98.354,68.152 98.33,68.184C98.266,68.216 98.234,68.304 98.234,68.424C98.234,68.528 98.258,68.608 98.298,68.648C98.338,68.696 98.41,68.712 98.522,68.712C98.61,68.712 98.698,68.696 98.746,68.656C98.802,68.616 98.818,68.52 98.818,68.416Z" style="fill:white;fill-rule:nonzero;"/>
            <path d="M100.434,69.944L100.434,74.432L100.898,74.432L100.898,70.656C101.17,70.48 101.682,70.296 102.226,70.304C102.498,70.304 102.73,70.336 102.866,70.36L102.866,69.912C102.746,69.896 102.578,69.88 102.354,69.88C101.794,69.88 101.386,70.032 101.17,70.16C101.154,70.176 100.962,70.408 100.938,70.44L100.89,70.44L100.778,69.944L100.434,69.944Z" style="fill:white;fill-rule:nonzero;"/>
            <path d="M103.418,72.224C103.418,73.752 103.954,74.52 105.45,74.52C106.066,74.52 106.642,74.408 106.962,74.328L106.994,73.944C106.682,73.992 106.154,74.096 105.506,74.096C104.25,74.096 103.898,73.432 103.898,72.208L107.17,72.208L107.17,71.656C107.17,70.504 106.746,69.856 105.466,69.856C104.058,69.856 103.418,70.656 103.418,72.224ZM105.418,70.24C106.386,70.24 106.714,70.696 106.714,71.688L106.714,71.848L103.914,71.848C103.978,70.784 104.386,70.24 105.418,70.24Z" style="fill:white;fill-rule:nonzero;"/>
            <path d="M111.266,73.2C111.266,72.896 111.194,72.64 111.034,72.456C110.866,72.264 110.522,72.128 109.866,71.976C109.258,71.84 108.978,71.728 108.842,71.568C108.738,71.448 108.706,71.28 108.706,71.112C108.706,70.544 108.978,70.224 109.922,70.224C110.394,70.224 110.77,70.272 111.114,70.328L111.114,69.944C110.842,69.888 110.41,69.824 109.914,69.824C108.722,69.824 108.25,70.312 108.25,71.136C108.25,71.392 108.306,71.656 108.45,71.824C108.674,72.104 109.05,72.224 109.682,72.376C110.226,72.504 110.53,72.608 110.674,72.768C110.77,72.896 110.81,73.064 110.81,73.232C110.81,73.8 110.554,74.088 109.546,74.088C109.058,74.088 108.562,74.016 108.234,73.952L108.234,74.344C108.554,74.424 109.098,74.488 109.546,74.488C110.906,74.488 111.266,73.992 111.266,73.2Z" style="fill:white;fill-rule:nonzero;"/>
            <path d="M112.93,70.144C112.93,70.032 112.914,69.944 112.858,69.896C112.818,69.864 112.73,69.84 112.626,69.84C112.514,69.84 112.434,69.872 112.394,69.896C112.322,69.928 112.298,70.024 112.298,70.144C112.298,70.264 112.322,70.344 112.362,70.392C112.41,70.44 112.49,70.456 112.618,70.456C112.706,70.456 112.81,70.44 112.858,70.4C112.914,70.352 112.93,70.248 112.93,70.144ZM112.93,74.152C112.93,74.048 112.914,73.952 112.858,73.912C112.818,73.872 112.73,73.848 112.626,73.848C112.514,73.848 112.434,73.88 112.394,73.904C112.322,73.936 112.298,74.04 112.298,74.16C112.298,74.272 112.322,74.352 112.362,74.408C112.41,74.448 112.49,74.472 112.618,74.472C112.706,74.472 112.81,74.456 112.858,74.416C112.914,74.36 112.93,74.264 112.93,74.152Z" style="fill:white;fill-rule:nonzero;"/>
            <path d="M124.594,74.432L124.594,66.932L124.014,66.932L124.014,70.362L119.394,70.362L119.394,66.932L118.804,66.932L118.804,74.432L119.394,74.432L119.394,70.902L124.014,70.902L124.014,74.432L124.594,74.432Z" style="fill:white;fill-rule:nonzero;"/>
            <path d="M126.524,71.672C126.524,73.582 127.194,74.542 129.064,74.542C129.834,74.542 130.554,74.402 130.954,74.302L130.994,73.822C130.604,73.882 129.944,74.012 129.134,74.012C127.564,74.012 127.124,73.182 127.124,71.652L131.214,71.652L131.214,70.962C131.214,69.522 130.684,68.712 129.084,68.712C127.324,68.712 126.524,69.712 126.524,71.672ZM129.024,69.192C130.234,69.192 130.644,69.762 130.644,71.002L130.644,71.202L127.144,71.202C127.224,69.872 127.734,69.192 129.024,69.192Z" style="fill:white;fill-rule:nonzero;"/>
            <path d="M136.954,74.432L136.954,70.952C136.954,69.852 136.794,69.432 136.544,69.162C136.274,68.852 135.784,68.722 135.014,68.722C134.214,68.722 133.384,68.892 132.964,69.002L132.964,69.472C133.344,69.402 134.214,69.242 134.894,69.242C135.524,69.242 135.894,69.342 136.074,69.552C136.264,69.782 136.384,70.182 136.384,71.152C134.594,71.312 133.454,71.522 133.024,71.842C132.804,71.982 132.584,72.362 132.584,72.992C132.584,73.512 132.704,73.862 132.904,74.082C133.134,74.342 133.554,74.532 134.334,74.532C135.304,74.532 135.904,74.282 136.074,74.162C136.124,74.122 136.264,73.932 136.344,73.822L136.394,73.822L136.534,74.432L136.954,74.432ZM136.384,73.652C136.084,73.802 135.374,74.042 134.524,74.042C133.914,74.042 133.554,73.902 133.384,73.722C133.244,73.562 133.154,73.302 133.154,72.942C133.154,72.522 133.254,72.272 133.404,72.142C133.634,71.892 135.084,71.682 136.384,71.602L136.384,73.652Z" style="fill:white;fill-rule:nonzero;"/>
            <path d="M139.034,66.332L139.034,73.162C139.034,74.102 139.404,74.492 140.214,74.492C140.594,74.492 140.944,74.432 141.184,74.382L141.184,73.922C140.984,73.952 140.714,73.992 140.384,73.992C139.914,73.992 139.614,73.822 139.614,73.102L139.614,66.332L139.034,66.332Z" style="fill:white;fill-rule:nonzero;"/>
        </g>
        <g>
            <path d="M2.837,42.52L42.521,82.204L82.205,42.521L42.52,2.836L2.837,42.52L2.837,42.52Z" style="fill:black;"/>
            <g transform="matrix(0.314988,0,0,0.314988,1.94338,29.1267)">
                <path d="M2.837,42.52L42.521,82.204L82.205,42.521L42.52,2.836L2.837,42.52L2.837,42.52Z" style="fill:rgb(55,5,170);"/>
            </g>
            <g transform="matrix(0.314988,-1.61778e-32,-1.69482e-32,0.314988,29.1274,56.3107)">
                <path d="M2.837,42.52L42.521,82.204L82.205,42.521L42.52,2.836L2.837,42.52L2.837,42.52Z" style="fill:rgb(2,94,178);"/>
            </g>
            <g transform="matrix(1,0,0,1,-19.5116,15.4648)">
                <path d="M35.417,23.675L34.921,23.675L33.465,29.211L33.281,29.211L31.729,23.675L30.961,23.675L29.193,29.211L29.025,29.211L27.721,23.675L27.233,23.675L28.649,29.675L29.489,29.675L31.257,24.139L31.393,24.139L32.937,29.675L33.785,29.675L35.417,23.675Z" style="fill:white;fill-rule:nonzero;"/>
                <rect x="36.745" y="23.675" width="0.472" height="6" style="fill:white;fill-rule:nonzero;"/>
                <path d="M39.513,23.675L39.049,23.675L39.049,29.675L42.601,29.675L42.737,29.251L39.513,29.251L39.513,23.675Z" style="fill:white;fill-rule:nonzero;"/>
            </g>
            <g transform="matrix(1,0,0,1,7.67239,42.9271)">
                <path d="M30.917,23.747C30.501,23.675 30.037,23.595 29.317,23.595C28.277,23.595 27.709,23.835 27.317,24.171C26.949,24.467 26.429,25.235 26.429,26.771C26.429,28.059 26.749,28.795 27.117,29.155C27.533,29.547 28.045,29.755 29.069,29.755C29.757,29.755 30.429,29.643 30.917,29.515L30.917,29.115C30.493,29.195 29.845,29.315 29.157,29.315C28.317,29.315 27.805,29.147 27.493,28.835C27.117,28.459 26.917,27.707 26.917,26.699C26.917,25.563 27.285,24.771 27.653,24.475C27.981,24.219 28.461,24.035 29.325,24.035C30.085,24.035 30.501,24.107 30.917,24.155L30.917,23.747Z" style="fill:white;fill-rule:nonzero;"/>
                <path d="M36.965,29.675L36.965,23.675L36.501,23.675L36.501,26.419L32.805,26.419L32.805,23.675L32.333,23.675L32.333,29.675L32.805,29.675L32.805,26.851L36.501,26.851L36.501,29.675L36.965,29.675Z" style="fill:white;fill-rule:nonzero;"/>
                <path d="M43.669,29.675L41.429,23.675L40.573,23.675L38.173,29.675L38.661,29.675L39.469,27.627L42.397,27.627L43.149,29.675L43.669,29.675ZM42.253,27.211L39.621,27.211L40.853,24.115L41.109,24.115L42.253,27.211Z" style="fill:white;fill-rule:nonzero;"/>
            </g>
        </g>
    </g>
</svg>
