<?xml version="1.0" standalone="no"?>
<!DOCTYPE svg PUBLIC "-//W3C//DTD SVG 1.1//EN" "http://www.w3.org/Graphics/SVG/1.1/DTD/svg11.dtd">
<svg width="100%" height="100%" viewBox="0 0 284 86" version="1.1" xmlns="http://www.w3.org/2000/svg" xmlns:xlink="http://www.w3.org/1999/xlink" xml:space="preserve" style="fill-rule:evenodd;clip-rule:evenodd;stroke-linejoin:round;stroke-miterlimit:1.41421;">
    <g id="primary">
        <path d="M82.769,26.988L87.598,31.817L78.582,31.817L73.749,26.988L49.577,2.835L112.057,2.837L134.782,25.561L81.341,25.56L82.769,26.988Z" style="fill:rgb(55,5,170);"/>
        <path d="M147.207,26.988L152.954,32.735L143.938,32.735L138.187,26.988L114.015,2.835L176.495,2.837L199.22,25.561L145.779,25.56L147.207,26.988Z" style="fill:rgb(51,51,51);"/>
        <path d="M211.652,26.988L217.399,32.735L208.383,32.735L202.632,26.988L178.46,2.835L240.94,2.837L263.666,25.561L210.224,25.56L211.652,26.988Z" style="fill:rgb(51,51,51);"/>
        <path d="M215.845,31.181L269.29,31.181L280.63,42.521L269.293,53.858L215.845,53.858L206.829,53.858L212.498,48.189L210.516,48.189L204.847,53.858L151.4,53.858L142.384,53.858L148.053,48.189L146.071,48.189L140.402,53.858L86.962,53.858L72.849,53.858L78.518,48.189L74.6,48.189L74.6,36.85L78.516,36.85L72.847,31.181L140.4,31.181L146.069,36.85L148.05,36.85L142.381,31.181L204.845,31.181L210.514,36.85L212.496,36.85L206.827,31.181L215.845,31.181Z" style="fill:rgb(51,51,51);"/>
        <g>
            <path d="M91.295,47.794L91.295,47.08L94.391,47.08L94.391,37.863L91.295,38.423L91.295,37.709L95.189,37.022L95.189,47.08L97.991,47.08L97.991,47.794L91.295,47.794L91.295,47.794Z" style="fill:white;fill-rule:nonzero;"/>
            <path d="M113.936,47.794L106.722,47.794L106.722,46.954C106.848,45.413 107.688,44.418 110.154,43.214C111.723,42.43 112.409,42.024 112.774,41.547C113.082,41.113 113.166,40.553 113.166,40.006C113.166,38.563 112.634,37.905 110.351,37.905C109.104,37.905 107.76,38.213 107.143,38.353L107.143,37.624C107.969,37.4 109.258,37.147 110.518,37.147C113.193,37.147 114.034,38.016 114.034,39.907C114.034,40.86 113.824,41.518 113.502,41.924C112.956,42.638 111.877,43.185 110.504,43.857C107.941,45.104 107.535,45.986 107.506,47.037L114.146,47.037L113.936,47.794L113.936,47.794Z" style="fill:white;fill-rule:nonzero;"/>
            <path d="M128.734,41.841L127.599,42.373L127.599,42.429L128.789,42.849C129.266,43.242 129.643,44.138 129.643,45.048C129.643,47.065 128.495,47.934 125.651,47.934C124.475,47.934 123.438,47.78 122.821,47.64L122.821,46.926C123.466,47.038 124.6,47.206 125.651,47.206C128.256,47.206 128.803,46.352 128.803,45.049C128.803,43.186 127.556,42.836 125.973,42.836L123.97,42.836L123.97,42.107L125.791,42.107C127.164,42.107 128.606,41.757 128.606,39.936C128.606,38.591 128.102,37.891 125.973,37.891C124.852,37.891 123.774,38.115 123.045,38.269L123.045,37.568C123.802,37.372 124.964,37.148 126.113,37.148C128.634,37.148 129.433,38.031 129.433,39.824C129.434,40.804 129,41.588 128.734,41.841L128.734,41.841Z" style="fill:white;fill-rule:nonzero;"/>
        </g>
        <g>
            <path d="M166.718,47.794L165.947,47.794L165.947,44.811L160.553,44.811L160.553,43.998L165.191,37.288L166.717,37.288L166.717,44.11L169.071,44.11L168.86,44.811L166.716,44.811L166.718,47.794ZM165.948,44.11L165.948,37.975L165.569,37.975L161.465,43.928L161.465,44.11L165.948,44.11Z" style="fill:white;fill-rule:nonzero;"/>
            <path d="M179.903,47.934C178.938,47.934 177.916,47.794 177.186,47.682L177.186,46.939C177.858,47.037 178.895,47.177 179.946,47.177C182.37,47.177 183.211,46.49 183.211,44.754C183.211,42.905 182.623,42.429 180.465,42.429C179.471,42.429 178.126,42.639 177.51,42.723L177.51,37.288L183.73,37.288L183.73,38.002L178.24,38.002L178.24,41.952C178.828,41.854 179.639,41.7 180.719,41.7C183.157,41.7 184.053,42.345 184.053,44.641C184.05,46.855 183.028,47.934 179.903,47.934L179.903,47.934Z" style="fill:white;fill-rule:nonzero;"/>
            <path d="M193.666,42.667L193.735,42.667L194.182,42.205C194.786,41.981 195.877,41.673 197.153,41.673C199.632,41.673 200.459,42.709 200.459,44.656C200.459,46.687 199.407,47.934 196.705,47.934C193.764,47.934 192.852,46.071 192.852,42.975C192.852,41.028 193.399,39.627 194.225,38.745C195.192,37.736 196.733,37.106 199.436,37.078L199.715,37.821C197.082,37.835 195.652,38.381 194.813,39.278C194.155,39.977 193.721,41.168 193.666,42.667L193.666,42.667ZM196.886,42.401C195.64,42.401 194.491,42.709 193.665,43.031C193.692,45.931 194.603,47.205 196.745,47.205C198.749,47.205 199.645,46.421 199.645,44.726C199.646,43.102 198.987,42.401 196.886,42.401L196.886,42.401Z" style="fill:white;fill-rule:nonzero;"/>
        </g>
        <g>
            <path d="M229.528,38.227L229.528,38.031L223.213,38.031L223.437,37.288L230.426,37.288L230.426,38.213L225.411,47.794L224.501,47.794L229.528,38.227Z" style="fill:white;fill-rule:nonzero;"/>
            <path d="M240.167,42.919L241.118,42.4L241.118,42.33L240.278,41.896C239.914,41.532 239.563,41.013 239.563,40.047C239.563,38.352 240.627,37.133 243.092,37.133C245.544,37.133 246.454,38.225 246.454,39.794C246.454,40.789 246.033,41.391 245.641,41.811L244.774,42.33L244.774,42.4L245.837,42.793C246.399,43.241 246.72,43.956 246.72,44.908C246.72,46.645 245.641,47.934 242.882,47.934C240.278,47.934 239.197,46.897 239.197,45.119C239.2,44.222 239.564,43.479 240.167,42.919L240.167,42.919ZM240.027,45.02C240.027,46.421 240.84,47.219 242.968,47.219C245.139,47.219 245.896,46.197 245.896,44.992C245.896,43.073 244.677,42.919 241.553,42.582C240.782,43.087 240.027,43.774 240.027,45.02L240.027,45.02ZM240.39,39.977C240.39,41.7 241.484,41.938 244.228,42.19C245.111,41.644 245.615,40.929 245.615,39.893C245.615,38.548 244.859,37.848 243.011,37.848C241.077,37.849 240.39,38.801 240.39,39.977L240.39,39.977Z" style="fill:white;fill-rule:nonzero;"/>
            <path d="M261.883,42.429L261.814,42.429L261.378,42.891C260.804,43.129 259.726,43.41 258.521,43.41C256.014,43.41 255.131,42.401 255.131,40.468C255.131,38.255 256.519,37.148 258.87,37.148C261.616,37.148 262.694,38.675 262.694,42.009C262.694,44.012 262.149,45.483 261.321,46.351C260.397,47.36 258.815,47.962 256.096,48.018L255.829,47.247C258.421,47.233 259.933,46.715 260.746,45.832C261.379,45.119 261.841,43.942 261.883,42.429L261.883,42.429ZM258.704,42.681C259.965,42.681 261.1,42.387 261.884,42.093C261.857,39.123 261.002,37.877 258.818,37.877C256.857,37.877 255.945,38.815 255.945,40.413C255.945,41.981 256.644,42.681 258.704,42.681L258.704,42.681Z" style="fill:white;fill-rule:nonzero;"/>
        </g>
        <g transform="matrix(1,0,0,1,82.3963,2.16146)">
            <path d="M59.256,14.737L56.456,7.237L55.386,7.237L52.386,14.737L52.996,14.737L54.006,12.177L57.666,12.177L58.606,14.737L59.256,14.737ZM57.486,11.657L54.196,11.657L55.736,7.787L56.056,7.787L57.486,11.657Z" style="fill:white;fill-rule:nonzero;"/>
            <path d="M65.126,9.127L64.496,9.127L62.526,14.197L62.286,14.197L60.386,9.127L59.756,9.127L61.886,14.737L62.886,14.737L65.126,9.127Z" style="fill:white;fill-rule:nonzero;"/>
            <path d="M70.416,14.737L70.416,11.257C70.416,10.157 70.256,9.737 70.006,9.467C69.736,9.157 69.246,9.027 68.476,9.027C67.676,9.027 66.846,9.197 66.426,9.307L66.426,9.777C66.806,9.707 67.676,9.547 68.356,9.547C68.986,9.547 69.356,9.647 69.536,9.857C69.726,10.087 69.846,10.487 69.846,11.457C68.056,11.617 66.916,11.827 66.486,12.147C66.266,12.287 66.046,12.667 66.046,13.297C66.046,13.817 66.166,14.167 66.366,14.387C66.596,14.647 67.016,14.837 67.796,14.837C68.766,14.837 69.366,14.587 69.536,14.467C69.586,14.427 69.726,14.237 69.806,14.127L69.856,14.127L69.996,14.737L70.416,14.737ZM69.846,13.957C69.546,14.107 68.836,14.347 67.986,14.347C67.376,14.347 67.016,14.207 66.846,14.027C66.706,13.867 66.616,13.607 66.616,13.247C66.616,12.827 66.716,12.577 66.866,12.447C67.096,12.197 68.546,11.987 69.846,11.907L69.846,13.957Z" style="fill:white;fill-rule:nonzero;"/>
            <path d="M73.106,14.737L73.106,9.127L72.526,9.127L72.526,14.737L73.106,14.737ZM73.196,7.217C73.196,7.087 73.176,6.987 73.106,6.927C73.056,6.877 72.966,6.857 72.846,6.857C72.716,6.857 72.616,6.887 72.586,6.927C72.506,6.967 72.466,7.077 72.466,7.227C72.466,7.357 72.496,7.457 72.546,7.507C72.596,7.567 72.686,7.587 72.826,7.587C72.936,7.587 73.046,7.567 73.106,7.517C73.176,7.467 73.196,7.347 73.196,7.217Z" style="fill:white;fill-rule:nonzero;"/>
            <path d="M75.186,6.637L75.186,13.467C75.186,14.407 75.556,14.797 76.366,14.797C76.746,14.797 77.096,14.737 77.336,14.687L77.336,14.227C77.136,14.257 76.866,14.297 76.536,14.297C76.066,14.297 75.766,14.127 75.766,13.407L75.766,6.637L75.186,6.637Z" style="fill:white;fill-rule:nonzero;"/>
            <path d="M82.536,14.737L82.536,11.257C82.536,10.157 82.376,9.737 82.126,9.467C81.856,9.157 81.366,9.027 80.596,9.027C79.796,9.027 78.966,9.197 78.546,9.307L78.546,9.777C78.926,9.707 79.796,9.547 80.476,9.547C81.106,9.547 81.476,9.647 81.656,9.857C81.846,10.087 81.966,10.487 81.966,11.457C80.176,11.617 79.036,11.827 78.606,12.147C78.386,12.287 78.166,12.667 78.166,13.297C78.166,13.817 78.286,14.167 78.486,14.387C78.716,14.647 79.136,14.837 79.916,14.837C80.886,14.837 81.486,14.587 81.656,14.467C81.706,14.427 81.846,14.237 81.926,14.127L81.976,14.127L82.116,14.737L82.536,14.737ZM81.966,13.957C81.666,14.107 80.956,14.347 80.106,14.347C79.496,14.347 79.136,14.207 78.966,14.027C78.826,13.867 78.736,13.607 78.736,13.247C78.736,12.827 78.836,12.577 78.986,12.447C79.216,12.197 80.666,11.987 81.966,11.907L81.966,13.957Z" style="fill:white;fill-rule:nonzero;"/>
            <path d="M89.466,11.667C89.466,10.517 89.176,9.827 88.776,9.467C88.456,9.187 87.986,9.017 87.206,9.017C86.446,9.017 85.786,9.197 85.626,9.307C85.566,9.337 85.336,9.557 85.256,9.667L85.216,9.667L85.216,6.637L84.636,6.637L84.636,14.737L84.716,14.737L85.006,14.567C85.506,14.687 86.096,14.787 86.786,14.787C87.736,14.787 88.316,14.577 88.696,14.217C89.176,13.757 89.466,12.857 89.466,11.667ZM88.866,11.787C88.866,12.827 88.616,13.527 88.256,13.867C87.956,14.147 87.486,14.297 86.726,14.297C86.156,14.297 85.606,14.217 85.216,14.157L85.216,9.867C85.706,9.647 86.376,9.537 86.986,9.537C87.656,9.537 88.056,9.667 88.316,9.897C88.606,10.157 88.866,10.737 88.866,11.787Z" style="fill:white;fill-rule:nonzero;"/>
            <path d="M91.266,6.637L91.266,13.467C91.266,14.407 91.636,14.797 92.446,14.797C92.826,14.797 93.176,14.737 93.416,14.687L93.416,14.227C93.216,14.257 92.946,14.297 92.616,14.297C92.146,14.297 91.846,14.127 91.846,13.407L91.846,6.637L91.266,6.637Z" style="fill:white;fill-rule:nonzero;"/>
            <path d="M94.236,11.977C94.236,13.887 94.906,14.847 96.776,14.847C97.546,14.847 98.266,14.707 98.666,14.607L98.706,14.127C98.316,14.187 97.656,14.317 96.846,14.317C95.276,14.317 94.836,13.487 94.836,11.957L98.926,11.957L98.926,11.267C98.926,9.827 98.396,9.017 96.796,9.017C95.036,9.017 94.236,10.017 94.236,11.977ZM96.736,9.497C97.946,9.497 98.356,10.067 98.356,11.307L98.356,11.507L94.856,11.507C94.936,10.177 95.446,9.497 96.736,9.497Z" style="fill:white;fill-rule:nonzero;"/>
        </g>
        <g transform="matrix(1,0,0,1,146.834,2.16146)">
            <path d="M59.256,14.737L56.456,7.237L55.386,7.237L52.386,14.737L52.996,14.737L54.006,12.177L57.666,12.177L58.606,14.737L59.256,14.737ZM57.486,11.657L54.196,11.657L55.736,7.787L56.056,7.787L57.486,11.657Z" style="fill:white;fill-rule:nonzero;"/>
            <path d="M65.126,9.127L64.496,9.127L62.526,14.197L62.286,14.197L60.386,9.127L59.756,9.127L61.886,14.737L62.886,14.737L65.126,9.127Z" style="fill:white;fill-rule:nonzero;"/>
            <path d="M70.416,14.737L70.416,11.257C70.416,10.157 70.256,9.737 70.006,9.467C69.736,9.157 69.246,9.027 68.476,9.027C67.676,9.027 66.846,9.197 66.426,9.307L66.426,9.777C66.806,9.707 67.676,9.547 68.356,9.547C68.986,9.547 69.356,9.647 69.536,9.857C69.726,10.087 69.846,10.487 69.846,11.457C68.056,11.617 66.916,11.827 66.486,12.147C66.266,12.287 66.046,12.667 66.046,13.297C66.046,13.817 66.166,14.167 66.366,14.387C66.596,14.647 67.016,14.837 67.796,14.837C68.766,14.837 69.366,14.587 69.536,14.467C69.586,14.427 69.726,14.237 69.806,14.127L69.856,14.127L69.996,14.737L70.416,14.737ZM69.846,13.957C69.546,14.107 68.836,14.347 67.986,14.347C67.376,14.347 67.016,14.207 66.846,14.027C66.706,13.867 66.616,13.607 66.616,13.247C66.616,12.827 66.716,12.577 66.866,12.447C67.096,12.197 68.546,11.987 69.846,11.907L69.846,13.957Z" style="fill:white;fill-rule:nonzero;"/>
            <path d="M73.106,14.737L73.106,9.127L72.526,9.127L72.526,14.737L73.106,14.737ZM73.196,7.217C73.196,7.087 73.176,6.987 73.106,6.927C73.056,6.877 72.966,6.857 72.846,6.857C72.716,6.857 72.616,6.887 72.586,6.927C72.506,6.967 72.466,7.077 72.466,7.227C72.466,7.357 72.496,7.457 72.546,7.507C72.596,7.567 72.686,7.587 72.826,7.587C72.936,7.587 73.046,7.567 73.106,7.517C73.176,7.467 73.196,7.347 73.196,7.217Z" style="fill:white;fill-rule:nonzero;"/>
            <path d="M75.186,6.637L75.186,13.467C75.186,14.407 75.556,14.797 76.366,14.797C76.746,14.797 77.096,14.737 77.336,14.687L77.336,14.227C77.136,14.257 76.866,14.297 76.536,14.297C76.066,14.297 75.766,14.127 75.766,13.407L75.766,6.637L75.186,6.637Z" style="fill:white;fill-rule:nonzero;"/>
            <path d="M82.536,14.737L82.536,11.257C82.536,10.157 82.376,9.737 82.126,9.467C81.856,9.157 81.366,9.027 80.596,9.027C79.796,9.027 78.966,9.197 78.546,9.307L78.546,9.777C78.926,9.707 79.796,9.547 80.476,9.547C81.106,9.547 81.476,9.647 81.656,9.857C81.846,10.087 81.966,10.487 81.966,11.457C80.176,11.617 79.036,11.827 78.606,12.147C78.386,12.287 78.166,12.667 78.166,13.297C78.166,13.817 78.286,14.167 78.486,14.387C78.716,14.647 79.136,14.837 79.916,14.837C80.886,14.837 81.486,14.587 81.656,14.467C81.706,14.427 81.846,14.237 81.926,14.127L81.976,14.127L82.116,14.737L82.536,14.737ZM81.966,13.957C81.666,14.107 80.956,14.347 80.106,14.347C79.496,14.347 79.136,14.207 78.966,14.027C78.826,13.867 78.736,13.607 78.736,13.247C78.736,12.827 78.836,12.577 78.986,12.447C79.216,12.197 80.666,11.987 81.966,11.907L81.966,13.957Z" style="fill:white;fill-rule:nonzero;"/>
            <path d="M89.466,11.667C89.466,10.517 89.176,9.827 88.776,9.467C88.456,9.187 87.986,9.017 87.206,9.017C86.446,9.017 85.786,9.197 85.626,9.307C85.566,9.337 85.336,9.557 85.256,9.667L85.216,9.667L85.216,6.637L84.636,6.637L84.636,14.737L84.716,14.737L85.006,14.567C85.506,14.687 86.096,14.787 86.786,14.787C87.736,14.787 88.316,14.577 88.696,14.217C89.176,13.757 89.466,12.857 89.466,11.667ZM88.866,11.787C88.866,12.827 88.616,13.527 88.256,13.867C87.956,14.147 87.486,14.297 86.726,14.297C86.156,14.297 85.606,14.217 85.216,14.157L85.216,9.867C85.706,9.647 86.376,9.537 86.986,9.537C87.656,9.537 88.056,9.667 88.316,9.897C88.606,10.157 88.866,10.737 88.866,11.787Z" style="fill:white;fill-rule:nonzero;"/>
            <path d="M91.266,6.637L91.266,13.467C91.266,14.407 91.636,14.797 92.446,14.797C92.826,14.797 93.176,14.737 93.416,14.687L93.416,14.227C93.216,14.257 92.946,14.297 92.616,14.297C92.146,14.297 91.846,14.127 91.846,13.407L91.846,6.637L91.266,6.637Z" style="fill:white;fill-rule:nonzero;"/>
            <path d="M94.236,11.977C94.236,13.887 94.906,14.847 96.776,14.847C97.546,14.847 98.266,14.707 98.666,14.607L98.706,14.127C98.316,14.187 97.656,14.317 96.846,14.317C95.276,14.317 94.836,13.487 94.836,11.957L98.926,11.957L98.926,11.267C98.926,9.827 98.396,9.017 96.796,9.017C95.036,9.017 94.236,10.017 94.236,11.977ZM96.736,9.497C97.946,9.497 98.356,10.067 98.356,11.307L98.356,11.507L94.856,11.507C94.936,10.177 95.446,9.497 96.736,9.497Z" style="fill:white;fill-rule:nonzero;"/>
        </g>
        <path d="M240.94,82.202L49.577,82.204L72.321,59.478L263.666,59.478L240.94,82.202Z" style="fill:rgb(55,5,170);"/>
        <g transform="matrix(1,0,0,1,47.7587,0)">
            <path d="M63.551,68.432L63.551,74.432L64.023,74.432L64.023,71.8L64.855,71.8C65.463,71.8 65.887,71.832 66.047,71.936C66.359,72.128 66.703,72.864 67.391,74.432L67.903,74.432C67.391,73.256 66.959,72.256 66.719,71.96C66.631,71.864 66.399,71.728 66.231,71.648L66.231,71.632C66.559,71.52 66.887,71.336 66.975,71.264C67.215,71.04 67.439,70.56 67.439,69.952C67.439,69.28 67.255,68.912 66.983,68.72C66.727,68.528 66.295,68.432 65.359,68.432L63.551,68.432ZM64.023,68.84L65.327,68.84C66.135,68.84 66.455,68.928 66.647,69.08C66.839,69.224 66.959,69.528 66.959,70.016C66.959,70.664 66.671,71.12 66.311,71.264C66.119,71.336 65.799,71.384 65.287,71.384L64.023,71.384L64.023,68.84Z" style="fill:white;fill-rule:nonzero;"/>
            <path d="M68.735,72.224C68.735,73.752 69.271,74.52 70.767,74.52C71.383,74.52 71.959,74.408 72.279,74.328L72.311,73.944C71.999,73.992 71.471,74.096 70.823,74.096C69.567,74.096 69.215,73.432 69.215,72.208L72.487,72.208L72.487,71.656C72.487,70.504 72.063,69.856 70.783,69.856C69.375,69.856 68.735,70.656 68.735,72.224ZM70.735,70.24C71.703,70.24 72.031,70.696 72.031,71.688L72.031,71.848L69.231,71.848C69.295,70.784 69.703,70.24 70.735,70.24Z" style="fill:white;fill-rule:nonzero;"/>
            <path d="M73.647,72.336C73.647,73.256 73.895,73.84 74.223,74.128C74.479,74.352 74.887,74.488 75.503,74.488C76.119,74.488 76.599,74.36 76.743,74.272C76.791,74.248 76.959,74.08 77.023,73.984L77.055,73.984L77.055,76.552L77.519,76.552L77.519,69.896L77.455,69.896L77.215,70.032C76.823,69.936 76.383,69.848 75.847,69.848C75.055,69.848 74.559,70.032 74.271,70.312C73.879,70.696 73.647,71.384 73.647,72.336ZM74.127,72.272C74.127,71.44 74.319,70.872 74.607,70.6C74.855,70.36 75.239,70.248 75.839,70.248C76.295,70.248 76.719,70.304 77.055,70.36L77.055,73.824C76.655,74 76.095,74.072 75.663,74.072C75.119,74.072 74.775,73.976 74.575,73.784C74.343,73.568 74.127,73.08 74.127,72.272Z" style="fill:white;fill-rule:nonzero;"/>
            <path d="M82.839,74.432L82.839,69.944L82.375,69.944L82.375,73.776C82.015,73.936 81.495,74.072 80.975,74.072C80.487,74.072 80.151,73.992 79.959,73.792C79.775,73.6 79.663,73.288 79.663,72.68L79.663,69.944L79.199,69.944L79.199,72.856C79.199,73.472 79.335,73.848 79.567,74.096C79.815,74.352 80.151,74.488 80.799,74.488C81.359,74.488 81.887,74.352 82.111,74.24C82.127,74.232 82.319,73.984 82.335,73.952L82.383,73.952L82.503,74.432L82.839,74.432Z" style="fill:white;fill-rule:nonzero;"/>
            <path d="M84.991,74.432L84.991,69.944L84.527,69.944L84.527,74.432L84.991,74.432ZM85.063,68.416C85.063,68.312 85.047,68.232 84.991,68.184C84.951,68.144 84.879,68.128 84.783,68.128C84.679,68.128 84.599,68.152 84.575,68.184C84.511,68.216 84.479,68.304 84.479,68.424C84.479,68.528 84.503,68.608 84.543,68.648C84.583,68.696 84.655,68.712 84.767,68.712C84.855,68.712 84.943,68.696 84.991,68.656C85.047,68.616 85.063,68.52 85.063,68.416Z" style="fill:white;fill-rule:nonzero;"/>
            <path d="M86.679,69.944L86.679,74.432L87.143,74.432L87.143,70.656C87.415,70.48 87.927,70.296 88.471,70.304C88.743,70.304 88.975,70.336 89.111,70.36L89.111,69.912C88.991,69.896 88.823,69.88 88.599,69.88C88.039,69.88 87.631,70.032 87.415,70.16C87.399,70.176 87.207,70.408 87.183,70.44L87.135,70.44L87.023,69.944L86.679,69.944Z" style="fill:white;fill-rule:nonzero;"/>
            <path d="M89.663,72.224C89.663,73.752 90.199,74.52 91.695,74.52C92.311,74.52 92.887,74.408 93.207,74.328L93.239,73.944C92.927,73.992 92.399,74.096 91.751,74.096C90.495,74.096 90.143,73.432 90.143,72.208L93.415,72.208L93.415,71.656C93.415,70.504 92.991,69.856 91.711,69.856C90.303,69.856 89.663,70.656 89.663,72.224ZM91.663,70.24C92.631,70.24 92.959,70.696 92.959,71.688L92.959,71.848L90.159,71.848C90.223,70.784 90.631,70.24 91.663,70.24Z" style="fill:white;fill-rule:nonzero;"/>
            <path d="M97.511,73.2C97.511,72.896 97.439,72.64 97.279,72.456C97.111,72.264 96.767,72.128 96.111,71.976C95.503,71.84 95.223,71.728 95.087,71.568C94.983,71.448 94.951,71.28 94.951,71.112C94.951,70.544 95.223,70.224 96.167,70.224C96.639,70.224 97.015,70.272 97.359,70.328L97.359,69.944C97.087,69.888 96.655,69.824 96.159,69.824C94.967,69.824 94.495,70.312 94.495,71.136C94.495,71.392 94.551,71.656 94.695,71.824C94.919,72.104 95.295,72.224 95.927,72.376C96.471,72.504 96.775,72.608 96.919,72.768C97.015,72.896 97.055,73.064 97.055,73.232C97.055,73.8 96.799,74.088 95.791,74.088C95.303,74.088 94.807,74.016 94.479,73.952L94.479,74.344C94.799,74.424 95.343,74.488 95.791,74.488C97.151,74.488 97.511,73.992 97.511,73.2Z" style="fill:white;fill-rule:nonzero;"/>
            <path d="M99.175,70.144C99.175,70.032 99.159,69.944 99.103,69.896C99.063,69.864 98.975,69.84 98.871,69.84C98.759,69.84 98.679,69.872 98.639,69.896C98.567,69.928 98.543,70.024 98.543,70.144C98.543,70.264 98.567,70.344 98.607,70.392C98.655,70.44 98.735,70.456 98.863,70.456C98.951,70.456 99.055,70.44 99.103,70.4C99.159,70.352 99.175,70.248 99.175,70.144ZM99.175,74.152C99.175,74.048 99.159,73.952 99.103,73.912C99.063,73.872 98.975,73.848 98.871,73.848C98.759,73.848 98.679,73.88 98.639,73.904C98.567,73.936 98.543,74.04 98.543,74.16C98.543,74.272 98.567,74.352 98.607,74.408C98.655,74.448 98.735,74.472 98.863,74.472C98.951,74.472 99.055,74.456 99.103,74.416C99.159,74.36 99.175,74.264 99.175,74.152Z" style="fill:white;fill-rule:nonzero;"/>
            <path d="M109.839,73.902L105.649,73.902L105.649,70.862L108.919,70.862L109.049,70.342L105.649,70.342L105.649,67.462L109.509,67.462L109.649,66.932L105.069,66.932L105.069,74.432L109.669,74.432L109.839,73.902Z" style="fill:white;fill-rule:nonzero;"/>
            <path d="M115.879,68.822L115.249,68.822L113.279,73.892L113.039,73.892L111.139,68.822L110.509,68.822L112.639,74.432L113.639,74.432L115.879,68.822Z" style="fill:white;fill-rule:nonzero;"/>
            <path d="M122.049,71.502C122.049,70.342 121.799,69.692 121.389,69.262C121.039,68.912 120.449,68.672 119.599,68.672C118.709,68.672 118.089,68.932 117.689,69.312C117.179,69.792 116.889,70.672 116.889,71.762C116.889,72.842 117.179,73.502 117.499,73.872C117.869,74.292 118.459,74.552 119.389,74.552C120.379,74.552 120.949,74.282 121.339,73.882C121.769,73.432 122.049,72.602 122.049,71.502ZM119.449,74.052C118.639,74.052 118.209,73.802 117.939,73.492C117.659,73.172 117.469,72.532 117.469,71.692C117.469,70.672 117.779,69.962 118.119,69.652C118.379,69.412 118.839,69.192 119.529,69.192C120.229,69.192 120.659,69.372 120.939,69.662C121.239,69.972 121.459,70.452 121.459,71.602C121.459,72.602 121.209,73.222 120.859,73.582C120.569,73.872 120.069,74.052 119.449,74.052Z" style="fill:white;fill-rule:nonzero;"/>
            <path d="M126.339,69.202C126.999,69.202 127.519,69.282 127.869,69.332L127.869,68.832C127.499,68.762 126.949,68.672 126.279,68.672C125.439,68.672 124.809,68.872 124.379,69.292C123.849,69.782 123.579,70.642 123.579,71.762C123.579,72.742 123.809,73.522 124.329,74.002C124.719,74.372 125.319,74.552 126.109,74.552C126.899,74.552 127.479,74.412 127.869,74.302L127.869,73.852C127.479,73.912 126.909,74.022 126.199,74.022C125.589,74.022 125.099,73.902 124.769,73.592C124.379,73.232 124.189,72.612 124.189,71.692C124.189,70.732 124.399,70.022 124.809,69.642C125.129,69.332 125.659,69.202 126.339,69.202Z" style="fill:white;fill-rule:nonzero;"/>
            <path d="M133.499,74.432L133.499,70.952C133.499,69.852 133.339,69.432 133.089,69.162C132.819,68.852 132.329,68.722 131.559,68.722C130.759,68.722 129.929,68.892 129.509,69.002L129.509,69.472C129.889,69.402 130.759,69.242 131.439,69.242C132.069,69.242 132.439,69.342 132.619,69.552C132.809,69.782 132.929,70.182 132.929,71.152C131.139,71.312 129.999,71.522 129.569,71.842C129.349,71.982 129.129,72.362 129.129,72.992C129.129,73.512 129.249,73.862 129.449,74.082C129.679,74.342 130.099,74.532 130.879,74.532C131.849,74.532 132.449,74.282 132.619,74.162C132.669,74.122 132.809,73.932 132.889,73.822L132.939,73.822L133.079,74.432L133.499,74.432ZM132.929,73.652C132.629,73.802 131.919,74.042 131.069,74.042C130.459,74.042 130.099,73.902 129.929,73.722C129.789,73.562 129.699,73.302 129.699,72.942C129.699,72.522 129.799,72.272 129.949,72.142C130.179,71.892 131.629,71.682 132.929,71.602L132.929,73.652Z" style="fill:white;fill-rule:nonzero;"/>
            <path d="M138.599,68.822L136.499,68.822L136.499,67.502L135.919,67.652L135.919,68.822L134.839,68.822L134.759,69.312L135.919,69.312L135.919,73.162C135.919,74.132 136.329,74.492 137.329,74.492C137.759,74.492 138.229,74.422 138.529,74.362L138.579,73.872C138.359,73.902 137.939,73.972 137.479,73.972C136.849,73.972 136.499,73.812 136.499,73.052L136.499,69.312L138.489,69.312L138.599,68.822Z" style="fill:white;fill-rule:nonzero;"/>
            <path d="M140.679,74.432L140.679,68.822L140.099,68.822L140.099,74.432L140.679,74.432ZM140.769,66.912C140.769,66.782 140.749,66.682 140.679,66.622C140.629,66.572 140.539,66.552 140.419,66.552C140.289,66.552 140.189,66.582 140.159,66.622C140.079,66.662 140.039,66.772 140.039,66.922C140.039,67.052 140.069,67.152 140.119,67.202C140.169,67.262 140.259,67.282 140.399,67.282C140.509,67.282 140.619,67.262 140.679,67.212C140.749,67.162 140.769,67.042 140.769,66.912Z" style="fill:white;fill-rule:nonzero;"/>
            <path d="M147.669,71.502C147.669,70.342 147.419,69.692 147.009,69.262C146.659,68.912 146.069,68.672 145.219,68.672C144.329,68.672 143.709,68.932 143.309,69.312C142.799,69.792 142.509,70.672 142.509,71.762C142.509,72.842 142.799,73.502 143.119,73.872C143.489,74.292 144.079,74.552 145.009,74.552C145.999,74.552 146.569,74.282 146.959,73.882C147.389,73.432 147.669,72.602 147.669,71.502ZM145.069,74.052C144.259,74.052 143.829,73.802 143.559,73.492C143.279,73.172 143.089,72.532 143.089,71.692C143.089,70.672 143.399,69.962 143.739,69.652C143.999,69.412 144.459,69.192 145.149,69.192C145.849,69.192 146.279,69.372 146.559,69.662C146.859,69.972 147.079,70.452 147.079,71.602C147.079,72.602 146.829,73.222 146.479,73.582C146.189,73.872 145.689,74.052 145.069,74.052Z" style="fill:white;fill-rule:nonzero;"/>
            <path d="M154.049,74.432L154.049,70.762C154.049,70.002 153.889,69.492 153.579,69.202C153.279,68.902 152.849,68.742 152.119,68.742C151.409,68.742 150.689,68.942 150.419,69.092C150.389,69.112 150.159,69.372 150.129,69.412L150.079,69.412L149.919,68.822L149.499,68.822L149.499,74.432L150.079,74.432L150.079,69.632C150.519,69.452 151.149,69.262 151.869,69.262C152.389,69.262 152.829,69.362 153.079,69.602C153.329,69.842 153.469,70.252 153.469,70.962L153.469,74.432L154.049,74.432Z" style="fill:white;fill-rule:nonzero;"/>
        </g>
        <g transform="matrix(1,0,0,1,16.3149,-7.71215)">
            <path d="M62.617,19.785L60.377,13.785L59.521,13.785L57.121,19.785L57.609,19.785L58.417,17.737L61.345,17.737L62.097,19.785L62.617,19.785ZM61.201,17.321L58.569,17.321L59.801,14.225L60.057,14.225L61.201,17.321Z" style="fill:white;fill-rule:nonzero;"/>
            <path d="M67.313,15.297L66.809,15.297L65.233,19.353L65.041,19.353L63.521,15.297L63.017,15.297L64.721,19.785L65.521,19.785L67.313,15.297Z" style="fill:white;fill-rule:nonzero;"/>
            <path d="M71.545,19.785L71.545,17.001C71.545,16.121 71.417,15.785 71.217,15.569C71.001,15.321 70.609,15.217 69.993,15.217C69.353,15.217 68.689,15.353 68.353,15.441L68.353,15.817C68.657,15.761 69.353,15.633 69.897,15.633C70.401,15.633 70.697,15.713 70.841,15.881C70.993,16.065 71.089,16.385 71.089,17.161C69.657,17.289 68.745,17.457 68.401,17.713C68.225,17.825 68.049,18.129 68.049,18.633C68.049,19.049 68.145,19.329 68.305,19.505C68.489,19.713 68.825,19.865 69.449,19.865C70.225,19.865 70.705,19.665 70.841,19.569C70.881,19.537 70.993,19.385 71.057,19.297L71.097,19.297L71.209,19.785L71.545,19.785ZM71.089,19.161C70.849,19.281 70.281,19.473 69.601,19.473C69.113,19.473 68.825,19.361 68.689,19.217C68.577,19.089 68.505,18.881 68.505,18.593C68.505,18.257 68.585,18.057 68.705,17.953C68.889,17.753 70.049,17.585 71.089,17.521L71.089,19.161Z" style="fill:white;fill-rule:nonzero;"/>
            <path d="M73.697,19.785L73.697,15.297L73.233,15.297L73.233,19.785L73.697,19.785ZM73.769,13.769C73.769,13.665 73.753,13.585 73.697,13.537C73.657,13.497 73.585,13.481 73.489,13.481C73.385,13.481 73.305,13.505 73.281,13.537C73.217,13.569 73.185,13.657 73.185,13.777C73.185,13.881 73.209,13.961 73.249,14.001C73.289,14.049 73.361,14.065 73.473,14.065C73.561,14.065 73.649,14.049 73.697,14.009C73.753,13.969 73.769,13.873 73.769,13.769Z" style="fill:white;fill-rule:nonzero;"/>
            <path d="M75.361,13.305L75.361,18.769C75.361,19.521 75.657,19.833 76.305,19.833C76.609,19.833 76.889,19.785 77.081,19.745L77.081,19.377C76.921,19.401 76.705,19.433 76.441,19.433C76.065,19.433 75.825,19.297 75.825,18.721L75.825,13.305L75.361,13.305Z" style="fill:white;fill-rule:nonzero;"/>
            <path d="M81.241,19.785L81.241,17.001C81.241,16.121 81.113,15.785 80.913,15.569C80.697,15.321 80.305,15.217 79.689,15.217C79.049,15.217 78.385,15.353 78.049,15.441L78.049,15.817C78.353,15.761 79.049,15.633 79.593,15.633C80.097,15.633 80.393,15.713 80.537,15.881C80.689,16.065 80.785,16.385 80.785,17.161C79.353,17.289 78.441,17.457 78.097,17.713C77.921,17.825 77.745,18.129 77.745,18.633C77.745,19.049 77.841,19.329 78.001,19.505C78.185,19.713 78.521,19.865 79.145,19.865C79.921,19.865 80.401,19.665 80.537,19.569C80.577,19.537 80.689,19.385 80.753,19.297L80.793,19.297L80.905,19.785L81.241,19.785ZM80.785,19.161C80.545,19.281 79.977,19.473 79.297,19.473C78.809,19.473 78.521,19.361 78.385,19.217C78.273,19.089 78.201,18.881 78.201,18.593C78.201,18.257 78.281,18.057 78.401,17.953C78.585,17.753 79.745,17.585 80.785,17.521L80.785,19.161Z" style="fill:white;fill-rule:nonzero;"/>
            <path d="M86.785,17.329C86.785,16.409 86.553,15.857 86.233,15.569C85.977,15.345 85.601,15.209 84.977,15.209C84.369,15.209 83.841,15.353 83.713,15.441C83.665,15.465 83.481,15.641 83.417,15.729L83.385,15.729L83.385,13.305L82.921,13.305L82.921,19.785L82.985,19.785L83.217,19.649C83.617,19.745 84.089,19.825 84.641,19.825C85.401,19.825 85.865,19.657 86.169,19.369C86.553,19.001 86.785,18.281 86.785,17.329ZM86.305,17.425C86.305,18.257 86.105,18.817 85.817,19.089C85.577,19.313 85.201,19.433 84.593,19.433C84.137,19.433 83.697,19.369 83.385,19.321L83.385,15.889C83.777,15.713 84.313,15.625 84.801,15.625C85.337,15.625 85.657,15.729 85.865,15.913C86.097,16.121 86.305,16.585 86.305,17.425Z" style="fill:white;fill-rule:nonzero;"/>
            <path d="M88.225,13.305L88.225,18.769C88.225,19.521 88.521,19.833 89.169,19.833C89.473,19.833 89.753,19.785 89.945,19.745L89.945,19.377C89.785,19.401 89.569,19.433 89.305,19.433C88.929,19.433 88.689,19.297 88.689,18.721L88.689,13.305L88.225,13.305Z" style="fill:white;fill-rule:nonzero;"/>
            <path d="M90.601,17.577C90.601,19.105 91.137,19.873 92.633,19.873C93.249,19.873 93.825,19.761 94.145,19.681L94.177,19.297C93.865,19.345 93.337,19.449 92.689,19.449C91.433,19.449 91.081,18.785 91.081,17.561L94.353,17.561L94.353,17.009C94.353,15.857 93.929,15.209 92.649,15.209C91.241,15.209 90.601,16.009 90.601,17.577ZM92.601,15.593C93.569,15.593 93.897,16.049 93.897,17.041L93.897,17.201L91.097,17.201C91.161,16.137 91.569,15.593 92.601,15.593Z" style="fill:white;fill-rule:nonzero;"/>
            <path d="M55.345,24.817C55.345,25.969 55.521,26.873 55.793,27.369C56.009,27.761 56.449,28.129 56.657,28.257L57.129,28.257C56.785,27.985 56.377,27.601 56.177,27.241C55.929,26.809 55.769,26.033 55.769,24.817C55.769,23.593 55.929,22.809 56.185,22.385C56.393,22.033 56.777,21.657 57.137,21.377L56.665,21.377C56.449,21.505 56.009,21.905 55.793,22.265C55.505,22.777 55.345,23.665 55.345,24.817Z" style="fill:white;fill-rule:nonzero;"/>
            <path d="M65.897,21.785L65.401,21.785L63.945,27.321L63.761,27.321L62.209,21.785L61.441,21.785L59.673,27.321L59.505,27.321L58.201,21.785L57.713,21.785L59.129,27.785L59.969,27.785L61.737,22.249L61.873,22.249L63.417,27.785L64.265,27.785L65.897,21.785Z" style="fill:white;fill-rule:nonzero;"/>
            <rect x="67.225" y="21.785" width="0.472" height="6" style="fill:white;fill-rule:nonzero;"/>
            <path d="M69.993,21.785L69.529,21.785L69.529,27.785L73.081,27.785L73.217,27.361L69.993,27.361L69.993,21.785Z" style="fill:white;fill-rule:nonzero;"/>
            <path d="M78.441,27.433C77.793,27.433 77.201,27.249 76.897,26.905C76.561,26.521 76.353,25.921 76.353,24.849C76.353,23.769 76.665,22.937 77.017,22.609C77.329,22.321 77.833,22.113 78.609,22.113C79.281,22.113 79.857,22.265 80.177,22.601C80.529,22.969 80.713,23.745 80.713,24.785C80.713,25.841 80.401,26.649 80.041,26.969C79.737,27.241 79.225,27.433 78.441,27.433ZM78.609,21.681C77.729,21.681 77.113,21.929 76.705,22.289C76.233,22.705 75.873,23.641 75.873,24.897C75.873,26.201 76.201,26.857 76.529,27.209C76.905,27.609 77.481,27.873 78.425,27.873C79.369,27.873 79.969,27.649 80.377,27.281C80.833,26.865 81.193,25.993 81.193,24.737C81.193,23.417 80.905,22.665 80.537,22.289C80.185,21.921 79.657,21.681 78.609,21.681Z" style="fill:white;fill-rule:nonzero;"/>
            <path d="M86.385,27.785L86.385,24.849C86.385,24.241 86.257,23.833 86.009,23.601C85.769,23.361 85.425,23.233 84.841,23.233C84.273,23.233 83.697,23.393 83.481,23.513C83.457,23.529 83.273,23.737 83.249,23.769L83.209,23.769L83.081,23.297L82.745,23.297L82.745,27.785L83.209,27.785L83.209,23.945C83.561,23.801 84.065,23.649 84.641,23.649C85.057,23.649 85.409,23.729 85.609,23.921C85.809,24.113 85.921,24.441 85.921,25.009L85.921,27.785L86.385,27.785Z" style="fill:white;fill-rule:nonzero;"/>
            <path d="M88.033,21.305L88.033,26.769C88.033,27.521 88.329,27.833 88.977,27.833C89.281,27.833 89.561,27.785 89.753,27.745L89.753,27.377C89.593,27.401 89.377,27.433 89.113,27.433C88.737,27.433 88.497,27.297 88.497,26.721L88.497,21.305L88.033,21.305Z" style="fill:white;fill-rule:nonzero;"/>
            <path d="M94.337,23.297L93.833,23.297L92.249,27.377L92.041,27.377L90.545,23.297L90.041,23.297L91.721,27.785L92.089,27.785L91.209,29.977L91.697,29.977L94.337,23.297Z" style="fill:white;fill-rule:nonzero;"/>
            <path d="M96.385,24.817C96.385,23.665 96.225,22.777 95.937,22.273C95.721,21.905 95.273,21.505 95.065,21.377L94.593,21.377C94.953,21.657 95.337,22.033 95.545,22.385C95.801,22.809 95.961,23.593 95.961,24.817C95.961,26.033 95.801,26.809 95.553,27.241C95.345,27.601 94.937,27.985 94.601,28.257L95.073,28.257C95.273,28.129 95.713,27.761 95.937,27.369C96.209,26.873 96.385,25.969 96.385,24.817Z" style="fill:white;fill-rule:nonzero;"/>
        </g>
        <g>
            <path d="M2.837,42.52L42.521,82.204L82.205,42.521L42.52,2.836L2.837,42.52L2.837,42.52Z" style="fill:black;"/>
            <g transform="matrix(0.314988,0,0,0.314988,1.94338,29.1267)">
                <path d="M2.837,42.52L42.521,82.204L82.205,42.521L42.52,2.836L2.837,42.52L2.837,42.52Z" style="fill:rgb(55,5,170);"/>
            </g>
            <g transform="matrix(0.314988,-1.61778e-32,-1.69482e-32,0.314988,29.1274,56.3107)">
                <path d="M2.837,42.52L42.521,82.204L82.205,42.521L42.52,2.836L2.837,42.52L2.837,42.52Z" style="fill:rgb(2,94,178);"/>
            </g>
            <g transform="matrix(1,0,0,1,-19.5116,15.4648)">
                <path d="M35.417,23.675L34.921,23.675L33.465,29.211L33.281,29.211L31.729,23.675L30.961,23.675L29.193,29.211L29.025,29.211L27.721,23.675L27.233,23.675L28.649,29.675L29.489,29.675L31.257,24.139L31.393,24.139L32.937,29.675L33.785,29.675L35.417,23.675Z" style="fill:white;fill-rule:nonzero;"/>
                <rect x="36.745" y="23.675" width="0.472" height="6" style="fill:white;fill-rule:nonzero;"/>
                <path d="M39.513,23.675L39.049,23.675L39.049,29.675L42.601,29.675L42.737,29.251L39.513,29.251L39.513,23.675Z" style="fill:white;fill-rule:nonzero;"/>
            </g>
            <g transform="matrix(1,0,0,1,7.67239,42.9271)">
                <path d="M30.917,23.747C30.501,23.675 30.037,23.595 29.317,23.595C28.277,23.595 27.709,23.835 27.317,24.171C26.949,24.467 26.429,25.235 26.429,26.771C26.429,28.059 26.749,28.795 27.117,29.155C27.533,29.547 28.045,29.755 29.069,29.755C29.757,29.755 30.429,29.643 30.917,29.515L30.917,29.115C30.493,29.195 29.845,29.315 29.157,29.315C28.317,29.315 27.805,29.147 27.493,28.835C27.117,28.459 26.917,27.707 26.917,26.699C26.917,25.563 27.285,24.771 27.653,24.475C27.981,24.219 28.461,24.035 29.325,24.035C30.085,24.035 30.501,24.107 30.917,24.155L30.917,23.747Z" style="fill:white;fill-rule:nonzero;"/>
                <path d="M36.965,29.675L36.965,23.675L36.501,23.675L36.501,26.419L32.805,26.419L32.805,23.675L32.333,23.675L32.333,29.675L32.805,29.675L32.805,26.851L36.501,26.851L36.501,29.675L36.965,29.675Z" style="fill:white;fill-rule:nonzero;"/>
                <path d="M43.669,29.675L41.429,23.675L40.573,23.675L38.173,29.675L38.661,29.675L39.469,27.627L42.397,27.627L43.149,29.675L43.669,29.675ZM42.253,27.211L39.621,27.211L40.853,24.115L41.109,24.115L42.253,27.211Z" style="fill:white;fill-rule:nonzero;"/>
            </g>
        </g>
    </g>
</svg>
