<?xml version="1.0" standalone="no"?>
<!DOCTYPE svg PUBLIC "-//W3C//DTD SVG 1.1//EN" "http://www.w3.org/Graphics/SVG/1.1/DTD/svg11.dtd">
<svg width="100%" height="100%" viewBox="0 0 284 86" version="1.1" xmlns="http://www.w3.org/2000/svg" xmlns:xlink="http://www.w3.org/1999/xlink" xml:space="preserve" style="fill-rule:evenodd;clip-rule:evenodd;stroke-linejoin:round;stroke-miterlimit:1.41421;">
    <g id="primary">
        <path d="M82.769,26.988L87.598,31.817L78.582,31.817L73.749,26.988L49.577,2.835L112.057,2.837L134.782,25.561L81.341,25.56L82.769,26.988Z" style="fill:rgb(51,51,51);"/>
        <path d="M147.207,26.988L152.954,32.735L143.938,32.735L138.187,26.988L114.015,2.835L176.495,2.837L199.22,25.561L145.779,25.56L147.207,26.988Z" style="fill:rgb(51,51,51);"/>
        <path d="M211.652,26.988L217.399,32.735L208.383,32.735L202.632,26.988L178.46,2.835L240.94,2.837L263.666,25.561L210.224,25.56L211.652,26.988Z" style="fill:rgb(51,51,51);"/>
        <path d="M215.845,31.181L269.29,31.181L280.63,42.521L269.293,53.858L215.845,53.858L206.829,53.858L212.498,48.189L210.516,48.189L204.847,53.858L151.4,53.858L142.384,53.858L148.053,48.189L146.071,48.189L140.402,53.858L86.962,53.858L72.849,53.858L78.518,48.189L74.6,48.189L74.6,36.85L78.516,36.85L72.847,31.181L140.4,31.181L146.069,36.85L148.05,36.85L142.381,31.181L204.845,31.181L210.514,36.85L212.496,36.85L206.827,31.181L215.845,31.181Z" style="fill:rgb(51,51,51);"/>
        <g>
            <path d="M91.295,47.794L91.295,47.08L94.391,47.08L94.391,37.863L91.295,38.423L91.295,37.709L95.189,37.022L95.189,47.08L97.991,47.08L97.991,47.794L91.295,47.794L91.295,47.794Z" style="fill:white;fill-rule:nonzero;"/>
            <path d="M113.936,47.794L106.722,47.794L106.722,46.954C106.848,45.413 107.688,44.418 110.154,43.214C111.723,42.43 112.409,42.024 112.774,41.547C113.082,41.113 113.166,40.553 113.166,40.006C113.166,38.563 112.634,37.905 110.351,37.905C109.104,37.905 107.76,38.213 107.143,38.353L107.143,37.624C107.969,37.4 109.258,37.147 110.518,37.147C113.193,37.147 114.034,38.016 114.034,39.907C114.034,40.86 113.824,41.518 113.502,41.924C112.956,42.638 111.877,43.185 110.504,43.857C107.941,45.104 107.535,45.986 107.506,47.037L114.146,47.037L113.936,47.794L113.936,47.794Z" style="fill:white;fill-rule:nonzero;"/>
            <path d="M128.734,41.841L127.599,42.373L127.599,42.429L128.789,42.849C129.266,43.242 129.643,44.138 129.643,45.048C129.643,47.065 128.495,47.934 125.651,47.934C124.475,47.934 123.438,47.78 122.821,47.64L122.821,46.926C123.466,47.038 124.6,47.206 125.651,47.206C128.256,47.206 128.803,46.352 128.803,45.049C128.803,43.186 127.556,42.836 125.973,42.836L123.97,42.836L123.97,42.107L125.791,42.107C127.164,42.107 128.606,41.757 128.606,39.936C128.606,38.591 128.102,37.891 125.973,37.891C124.852,37.891 123.774,38.115 123.045,38.269L123.045,37.568C123.802,37.372 124.964,37.148 126.113,37.148C128.634,37.148 129.433,38.031 129.433,39.824C129.434,40.804 129,41.588 128.734,41.841L128.734,41.841Z" style="fill:white;fill-rule:nonzero;"/>
        </g>
        <g>
            <path d="M166.718,47.794L165.947,47.794L165.947,44.811L160.553,44.811L160.553,43.998L165.191,37.288L166.717,37.288L166.717,44.11L169.071,44.11L168.86,44.811L166.716,44.811L166.718,47.794ZM165.948,44.11L165.948,37.975L165.569,37.975L161.465,43.928L161.465,44.11L165.948,44.11Z" style="fill:white;fill-rule:nonzero;"/>
            <path d="M179.903,47.934C178.938,47.934 177.916,47.794 177.186,47.682L177.186,46.939C177.858,47.037 178.895,47.177 179.946,47.177C182.37,47.177 183.211,46.49 183.211,44.754C183.211,42.905 182.623,42.429 180.465,42.429C179.471,42.429 178.126,42.639 177.51,42.723L177.51,37.288L183.73,37.288L183.73,38.002L178.24,38.002L178.24,41.952C178.828,41.854 179.639,41.7 180.719,41.7C183.157,41.7 184.053,42.345 184.053,44.641C184.05,46.855 183.028,47.934 179.903,47.934L179.903,47.934Z" style="fill:white;fill-rule:nonzero;"/>
            <path d="M193.666,42.667L193.735,42.667L194.182,42.205C194.786,41.981 195.877,41.673 197.153,41.673C199.632,41.673 200.459,42.709 200.459,44.656C200.459,46.687 199.407,47.934 196.705,47.934C193.764,47.934 192.852,46.071 192.852,42.975C192.852,41.028 193.399,39.627 194.225,38.745C195.192,37.736 196.733,37.106 199.436,37.078L199.715,37.821C197.082,37.835 195.652,38.381 194.813,39.278C194.155,39.977 193.721,41.168 193.666,42.667L193.666,42.667ZM196.886,42.401C195.64,42.401 194.491,42.709 193.665,43.031C193.692,45.931 194.603,47.205 196.745,47.205C198.749,47.205 199.645,46.421 199.645,44.726C199.646,43.102 198.987,42.401 196.886,42.401L196.886,42.401Z" style="fill:white;fill-rule:nonzero;"/>
        </g>
        <g>
            <path d="M229.528,38.227L229.528,38.031L223.213,38.031L223.437,37.288L230.426,37.288L230.426,38.213L225.411,47.794L224.501,47.794L229.528,38.227Z" style="fill:white;fill-rule:nonzero;"/>
            <path d="M240.167,42.919L241.118,42.4L241.118,42.33L240.278,41.896C239.914,41.532 239.563,41.013 239.563,40.047C239.563,38.352 240.627,37.133 243.092,37.133C245.544,37.133 246.454,38.225 246.454,39.794C246.454,40.789 246.033,41.391 245.641,41.811L244.774,42.33L244.774,42.4L245.837,42.793C246.399,43.241 246.72,43.956 246.72,44.908C246.72,46.645 245.641,47.934 242.882,47.934C240.278,47.934 239.197,46.897 239.197,45.119C239.2,44.222 239.564,43.479 240.167,42.919L240.167,42.919ZM240.027,45.02C240.027,46.421 240.84,47.219 242.968,47.219C245.139,47.219 245.896,46.197 245.896,44.992C245.896,43.073 244.677,42.919 241.553,42.582C240.782,43.087 240.027,43.774 240.027,45.02L240.027,45.02ZM240.39,39.977C240.39,41.7 241.484,41.938 244.228,42.19C245.111,41.644 245.615,40.929 245.615,39.893C245.615,38.548 244.859,37.848 243.011,37.848C241.077,37.849 240.39,38.801 240.39,39.977L240.39,39.977Z" style="fill:white;fill-rule:nonzero;"/>
            <path d="M261.883,42.429L261.814,42.429L261.378,42.891C260.804,43.129 259.726,43.41 258.521,43.41C256.014,43.41 255.131,42.401 255.131,40.468C255.131,38.255 256.519,37.148 258.87,37.148C261.616,37.148 262.694,38.675 262.694,42.009C262.694,44.012 262.149,45.483 261.321,46.351C260.397,47.36 258.815,47.962 256.096,48.018L255.829,47.247C258.421,47.233 259.933,46.715 260.746,45.832C261.379,45.119 261.841,43.942 261.883,42.429L261.883,42.429ZM258.704,42.681C259.965,42.681 261.1,42.387 261.884,42.093C261.857,39.123 261.002,37.877 258.818,37.877C256.857,37.877 255.945,38.815 255.945,40.413C255.945,41.981 256.644,42.681 258.704,42.681L258.704,42.681Z" style="fill:white;fill-rule:nonzero;"/>
        </g>
        <g transform="matrix(1,0,0,1,16.5238,2.16146)">
            <path d="M59.256,14.737L56.456,7.237L55.386,7.237L52.386,14.737L52.996,14.737L54.006,12.177L57.666,12.177L58.606,14.737L59.256,14.737ZM57.486,11.657L54.196,11.657L55.736,7.787L56.056,7.787L57.486,11.657Z" style="fill:white;fill-rule:nonzero;"/>
            <path d="M65.126,9.127L64.496,9.127L62.526,14.197L62.286,14.197L60.386,9.127L59.756,9.127L61.886,14.737L62.886,14.737L65.126,9.127Z" style="fill:white;fill-rule:nonzero;"/>
            <path d="M70.416,14.737L70.416,11.257C70.416,10.157 70.256,9.737 70.006,9.467C69.736,9.157 69.246,9.027 68.476,9.027C67.676,9.027 66.846,9.197 66.426,9.307L66.426,9.777C66.806,9.707 67.676,9.547 68.356,9.547C68.986,9.547 69.356,9.647 69.536,9.857C69.726,10.087 69.846,10.487 69.846,11.457C68.056,11.617 66.916,11.827 66.486,12.147C66.266,12.287 66.046,12.667 66.046,13.297C66.046,13.817 66.166,14.167 66.366,14.387C66.596,14.647 67.016,14.837 67.796,14.837C68.766,14.837 69.366,14.587 69.536,14.467C69.586,14.427 69.726,14.237 69.806,14.127L69.856,14.127L69.996,14.737L70.416,14.737ZM69.846,13.957C69.546,14.107 68.836,14.347 67.986,14.347C67.376,14.347 67.016,14.207 66.846,14.027C66.706,13.867 66.616,13.607 66.616,13.247C66.616,12.827 66.716,12.577 66.866,12.447C67.096,12.197 68.546,11.987 69.846,11.907L69.846,13.957Z" style="fill:white;fill-rule:nonzero;"/>
            <path d="M73.106,14.737L73.106,9.127L72.526,9.127L72.526,14.737L73.106,14.737ZM73.196,7.217C73.196,7.087 73.176,6.987 73.106,6.927C73.056,6.877 72.966,6.857 72.846,6.857C72.716,6.857 72.616,6.887 72.586,6.927C72.506,6.967 72.466,7.077 72.466,7.227C72.466,7.357 72.496,7.457 72.546,7.507C72.596,7.567 72.686,7.587 72.826,7.587C72.936,7.587 73.046,7.567 73.106,7.517C73.176,7.467 73.196,7.347 73.196,7.217Z" style="fill:white;fill-rule:nonzero;"/>
            <path d="M75.186,6.637L75.186,13.467C75.186,14.407 75.556,14.797 76.366,14.797C76.746,14.797 77.096,14.737 77.336,14.687L77.336,14.227C77.136,14.257 76.866,14.297 76.536,14.297C76.066,14.297 75.766,14.127 75.766,13.407L75.766,6.637L75.186,6.637Z" style="fill:white;fill-rule:nonzero;"/>
            <path d="M82.536,14.737L82.536,11.257C82.536,10.157 82.376,9.737 82.126,9.467C81.856,9.157 81.366,9.027 80.596,9.027C79.796,9.027 78.966,9.197 78.546,9.307L78.546,9.777C78.926,9.707 79.796,9.547 80.476,9.547C81.106,9.547 81.476,9.647 81.656,9.857C81.846,10.087 81.966,10.487 81.966,11.457C80.176,11.617 79.036,11.827 78.606,12.147C78.386,12.287 78.166,12.667 78.166,13.297C78.166,13.817 78.286,14.167 78.486,14.387C78.716,14.647 79.136,14.837 79.916,14.837C80.886,14.837 81.486,14.587 81.656,14.467C81.706,14.427 81.846,14.237 81.926,14.127L81.976,14.127L82.116,14.737L82.536,14.737ZM81.966,13.957C81.666,14.107 80.956,14.347 80.106,14.347C79.496,14.347 79.136,14.207 78.966,14.027C78.826,13.867 78.736,13.607 78.736,13.247C78.736,12.827 78.836,12.577 78.986,12.447C79.216,12.197 80.666,11.987 81.966,11.907L81.966,13.957Z" style="fill:white;fill-rule:nonzero;"/>
            <path d="M89.466,11.667C89.466,10.517 89.176,9.827 88.776,9.467C88.456,9.187 87.986,9.017 87.206,9.017C86.446,9.017 85.786,9.197 85.626,9.307C85.566,9.337 85.336,9.557 85.256,9.667L85.216,9.667L85.216,6.637L84.636,6.637L84.636,14.737L84.716,14.737L85.006,14.567C85.506,14.687 86.096,14.787 86.786,14.787C87.736,14.787 88.316,14.577 88.696,14.217C89.176,13.757 89.466,12.857 89.466,11.667ZM88.866,11.787C88.866,12.827 88.616,13.527 88.256,13.867C87.956,14.147 87.486,14.297 86.726,14.297C86.156,14.297 85.606,14.217 85.216,14.157L85.216,9.867C85.706,9.647 86.376,9.537 86.986,9.537C87.656,9.537 88.056,9.667 88.316,9.897C88.606,10.157 88.866,10.737 88.866,11.787Z" style="fill:white;fill-rule:nonzero;"/>
            <path d="M91.266,6.637L91.266,13.467C91.266,14.407 91.636,14.797 92.446,14.797C92.826,14.797 93.176,14.737 93.416,14.687L93.416,14.227C93.216,14.257 92.946,14.297 92.616,14.297C92.146,14.297 91.846,14.127 91.846,13.407L91.846,6.637L91.266,6.637Z" style="fill:white;fill-rule:nonzero;"/>
            <path d="M94.236,11.977C94.236,13.887 94.906,14.847 96.776,14.847C97.546,14.847 98.266,14.707 98.666,14.607L98.706,14.127C98.316,14.187 97.656,14.317 96.846,14.317C95.276,14.317 94.836,13.487 94.836,11.957L98.926,11.957L98.926,11.267C98.926,9.827 98.396,9.017 96.796,9.017C95.036,9.017 94.236,10.017 94.236,11.977ZM96.736,9.497C97.946,9.497 98.356,10.067 98.356,11.307L98.356,11.507L94.856,11.507C94.936,10.177 95.446,9.497 96.736,9.497Z" style="fill:white;fill-rule:nonzero;"/>
        </g>
        <g transform="matrix(1,0,0,1,82.3963,2.16146)">
            <path d="M59.256,14.737L56.456,7.237L55.386,7.237L52.386,14.737L52.996,14.737L54.006,12.177L57.666,12.177L58.606,14.737L59.256,14.737ZM57.486,11.657L54.196,11.657L55.736,7.787L56.056,7.787L57.486,11.657Z" style="fill:white;fill-rule:nonzero;"/>
            <path d="M65.126,9.127L64.496,9.127L62.526,14.197L62.286,14.197L60.386,9.127L59.756,9.127L61.886,14.737L62.886,14.737L65.126,9.127Z" style="fill:white;fill-rule:nonzero;"/>
            <path d="M70.416,14.737L70.416,11.257C70.416,10.157 70.256,9.737 70.006,9.467C69.736,9.157 69.246,9.027 68.476,9.027C67.676,9.027 66.846,9.197 66.426,9.307L66.426,9.777C66.806,9.707 67.676,9.547 68.356,9.547C68.986,9.547 69.356,9.647 69.536,9.857C69.726,10.087 69.846,10.487 69.846,11.457C68.056,11.617 66.916,11.827 66.486,12.147C66.266,12.287 66.046,12.667 66.046,13.297C66.046,13.817 66.166,14.167 66.366,14.387C66.596,14.647 67.016,14.837 67.796,14.837C68.766,14.837 69.366,14.587 69.536,14.467C69.586,14.427 69.726,14.237 69.806,14.127L69.856,14.127L69.996,14.737L70.416,14.737ZM69.846,13.957C69.546,14.107 68.836,14.347 67.986,14.347C67.376,14.347 67.016,14.207 66.846,14.027C66.706,13.867 66.616,13.607 66.616,13.247C66.616,12.827 66.716,12.577 66.866,12.447C67.096,12.197 68.546,11.987 69.846,11.907L69.846,13.957Z" style="fill:white;fill-rule:nonzero;"/>
            <path d="M73.106,14.737L73.106,9.127L72.526,9.127L72.526,14.737L73.106,14.737ZM73.196,7.217C73.196,7.087 73.176,6.987 73.106,6.927C73.056,6.877 72.966,6.857 72.846,6.857C72.716,6.857 72.616,6.887 72.586,6.927C72.506,6.967 72.466,7.077 72.466,7.227C72.466,7.357 72.496,7.457 72.546,7.507C72.596,7.567 72.686,7.587 72.826,7.587C72.936,7.587 73.046,7.567 73.106,7.517C73.176,7.467 73.196,7.347 73.196,7.217Z" style="fill:white;fill-rule:nonzero;"/>
            <path d="M75.186,6.637L75.186,13.467C75.186,14.407 75.556,14.797 76.366,14.797C76.746,14.797 77.096,14.737 77.336,14.687L77.336,14.227C77.136,14.257 76.866,14.297 76.536,14.297C76.066,14.297 75.766,14.127 75.766,13.407L75.766,6.637L75.186,6.637Z" style="fill:white;fill-rule:nonzero;"/>
            <path d="M82.536,14.737L82.536,11.257C82.536,10.157 82.376,9.737 82.126,9.467C81.856,9.157 81.366,9.027 80.596,9.027C79.796,9.027 78.966,9.197 78.546,9.307L78.546,9.777C78.926,9.707 79.796,9.547 80.476,9.547C81.106,9.547 81.476,9.647 81.656,9.857C81.846,10.087 81.966,10.487 81.966,11.457C80.176,11.617 79.036,11.827 78.606,12.147C78.386,12.287 78.166,12.667 78.166,13.297C78.166,13.817 78.286,14.167 78.486,14.387C78.716,14.647 79.136,14.837 79.916,14.837C80.886,14.837 81.486,14.587 81.656,14.467C81.706,14.427 81.846,14.237 81.926,14.127L81.976,14.127L82.116,14.737L82.536,14.737ZM81.966,13.957C81.666,14.107 80.956,14.347 80.106,14.347C79.496,14.347 79.136,14.207 78.966,14.027C78.826,13.867 78.736,13.607 78.736,13.247C78.736,12.827 78.836,12.577 78.986,12.447C79.216,12.197 80.666,11.987 81.966,11.907L81.966,13.957Z" style="fill:white;fill-rule:nonzero;"/>
            <path d="M89.466,11.667C89.466,10.517 89.176,9.827 88.776,9.467C88.456,9.187 87.986,9.017 87.206,9.017C86.446,9.017 85.786,9.197 85.626,9.307C85.566,9.337 85.336,9.557 85.256,9.667L85.216,9.667L85.216,6.637L84.636,6.637L84.636,14.737L84.716,14.737L85.006,14.567C85.506,14.687 86.096,14.787 86.786,14.787C87.736,14.787 88.316,14.577 88.696,14.217C89.176,13.757 89.466,12.857 89.466,11.667ZM88.866,11.787C88.866,12.827 88.616,13.527 88.256,13.867C87.956,14.147 87.486,14.297 86.726,14.297C86.156,14.297 85.606,14.217 85.216,14.157L85.216,9.867C85.706,9.647 86.376,9.537 86.986,9.537C87.656,9.537 88.056,9.667 88.316,9.897C88.606,10.157 88.866,10.737 88.866,11.787Z" style="fill:white;fill-rule:nonzero;"/>
            <path d="M91.266,6.637L91.266,13.467C91.266,14.407 91.636,14.797 92.446,14.797C92.826,14.797 93.176,14.737 93.416,14.687L93.416,14.227C93.216,14.257 92.946,14.297 92.616,14.297C92.146,14.297 91.846,14.127 91.846,13.407L91.846,6.637L91.266,6.637Z" style="fill:white;fill-rule:nonzero;"/>
            <path d="M94.236,11.977C94.236,13.887 94.906,14.847 96.776,14.847C97.546,14.847 98.266,14.707 98.666,14.607L98.706,14.127C98.316,14.187 97.656,14.317 96.846,14.317C95.276,14.317 94.836,13.487 94.836,11.957L98.926,11.957L98.926,11.267C98.926,9.827 98.396,9.017 96.796,9.017C95.036,9.017 94.236,10.017 94.236,11.977ZM96.736,9.497C97.946,9.497 98.356,10.067 98.356,11.307L98.356,11.507L94.856,11.507C94.936,10.177 95.446,9.497 96.736,9.497Z" style="fill:white;fill-rule:nonzero;"/>
        </g>
        <g transform="matrix(1,0,0,1,146.834,2.16146)">
            <path d="M59.256,14.737L56.456,7.237L55.386,7.237L52.386,14.737L52.996,14.737L54.006,12.177L57.666,12.177L58.606,14.737L59.256,14.737ZM57.486,11.657L54.196,11.657L55.736,7.787L56.056,7.787L57.486,11.657Z" style="fill:white;fill-rule:nonzero;"/>
            <path d="M65.126,9.127L64.496,9.127L62.526,14.197L62.286,14.197L60.386,9.127L59.756,9.127L61.886,14.737L62.886,14.737L65.126,9.127Z" style="fill:white;fill-rule:nonzero;"/>
            <path d="M70.416,14.737L70.416,11.257C70.416,10.157 70.256,9.737 70.006,9.467C69.736,9.157 69.246,9.027 68.476,9.027C67.676,9.027 66.846,9.197 66.426,9.307L66.426,9.777C66.806,9.707 67.676,9.547 68.356,9.547C68.986,9.547 69.356,9.647 69.536,9.857C69.726,10.087 69.846,10.487 69.846,11.457C68.056,11.617 66.916,11.827 66.486,12.147C66.266,12.287 66.046,12.667 66.046,13.297C66.046,13.817 66.166,14.167 66.366,14.387C66.596,14.647 67.016,14.837 67.796,14.837C68.766,14.837 69.366,14.587 69.536,14.467C69.586,14.427 69.726,14.237 69.806,14.127L69.856,14.127L69.996,14.737L70.416,14.737ZM69.846,13.957C69.546,14.107 68.836,14.347 67.986,14.347C67.376,14.347 67.016,14.207 66.846,14.027C66.706,13.867 66.616,13.607 66.616,13.247C66.616,12.827 66.716,12.577 66.866,12.447C67.096,12.197 68.546,11.987 69.846,11.907L69.846,13.957Z" style="fill:white;fill-rule:nonzero;"/>
            <path d="M73.106,14.737L73.106,9.127L72.526,9.127L72.526,14.737L73.106,14.737ZM73.196,7.217C73.196,7.087 73.176,6.987 73.106,6.927C73.056,6.877 72.966,6.857 72.846,6.857C72.716,6.857 72.616,6.887 72.586,6.927C72.506,6.967 72.466,7.077 72.466,7.227C72.466,7.357 72.496,7.457 72.546,7.507C72.596,7.567 72.686,7.587 72.826,7.587C72.936,7.587 73.046,7.567 73.106,7.517C73.176,7.467 73.196,7.347 73.196,7.217Z" style="fill:white;fill-rule:nonzero;"/>
            <path d="M75.186,6.637L75.186,13.467C75.186,14.407 75.556,14.797 76.366,14.797C76.746,14.797 77.096,14.737 77.336,14.687L77.336,14.227C77.136,14.257 76.866,14.297 76.536,14.297C76.066,14.297 75.766,14.127 75.766,13.407L75.766,6.637L75.186,6.637Z" style="fill:white;fill-rule:nonzero;"/>
            <path d="M82.536,14.737L82.536,11.257C82.536,10.157 82.376,9.737 82.126,9.467C81.856,9.157 81.366,9.027 80.596,9.027C79.796,9.027 78.966,9.197 78.546,9.307L78.546,9.777C78.926,9.707 79.796,9.547 80.476,9.547C81.106,9.547 81.476,9.647 81.656,9.857C81.846,10.087 81.966,10.487 81.966,11.457C80.176,11.617 79.036,11.827 78.606,12.147C78.386,12.287 78.166,12.667 78.166,13.297C78.166,13.817 78.286,14.167 78.486,14.387C78.716,14.647 79.136,14.837 79.916,14.837C80.886,14.837 81.486,14.587 81.656,14.467C81.706,14.427 81.846,14.237 81.926,14.127L81.976,14.127L82.116,14.737L82.536,14.737ZM81.966,13.957C81.666,14.107 80.956,14.347 80.106,14.347C79.496,14.347 79.136,14.207 78.966,14.027C78.826,13.867 78.736,13.607 78.736,13.247C78.736,12.827 78.836,12.577 78.986,12.447C79.216,12.197 80.666,11.987 81.966,11.907L81.966,13.957Z" style="fill:white;fill-rule:nonzero;"/>
            <path d="M89.466,11.667C89.466,10.517 89.176,9.827 88.776,9.467C88.456,9.187 87.986,9.017 87.206,9.017C86.446,9.017 85.786,9.197 85.626,9.307C85.566,9.337 85.336,9.557 85.256,9.667L85.216,9.667L85.216,6.637L84.636,6.637L84.636,14.737L84.716,14.737L85.006,14.567C85.506,14.687 86.096,14.787 86.786,14.787C87.736,14.787 88.316,14.577 88.696,14.217C89.176,13.757 89.466,12.857 89.466,11.667ZM88.866,11.787C88.866,12.827 88.616,13.527 88.256,13.867C87.956,14.147 87.486,14.297 86.726,14.297C86.156,14.297 85.606,14.217 85.216,14.157L85.216,9.867C85.706,9.647 86.376,9.537 86.986,9.537C87.656,9.537 88.056,9.667 88.316,9.897C88.606,10.157 88.866,10.737 88.866,11.787Z" style="fill:white;fill-rule:nonzero;"/>
            <path d="M91.266,6.637L91.266,13.467C91.266,14.407 91.636,14.797 92.446,14.797C92.826,14.797 93.176,14.737 93.416,14.687L93.416,14.227C93.216,14.257 92.946,14.297 92.616,14.297C92.146,14.297 91.846,14.127 91.846,13.407L91.846,6.637L91.266,6.637Z" style="fill:white;fill-rule:nonzero;"/>
            <path d="M94.236,11.977C94.236,13.887 94.906,14.847 96.776,14.847C97.546,14.847 98.266,14.707 98.666,14.607L98.706,14.127C98.316,14.187 97.656,14.317 96.846,14.317C95.276,14.317 94.836,13.487 94.836,11.957L98.926,11.957L98.926,11.267C98.926,9.827 98.396,9.017 96.796,9.017C95.036,9.017 94.236,10.017 94.236,11.977ZM96.736,9.497C97.946,9.497 98.356,10.067 98.356,11.307L98.356,11.507L94.856,11.507C94.936,10.177 95.446,9.497 96.736,9.497Z" style="fill:white;fill-rule:nonzero;"/>
        </g>
        <path d="M240.94,82.202L49.577,82.204L72.321,59.478L263.666,59.478L240.94,82.202Z" style="fill:rgb(55,5,170);"/>
        <g transform="matrix(1,0,0,1,47.7587,0)">
            <path d="M61.911,68.432L61.911,74.432L62.383,74.432L62.383,71.8L63.215,71.8C63.823,71.8 64.247,71.832 64.407,71.936C64.719,72.128 65.063,72.864 65.751,74.432L66.263,74.432C65.751,73.256 65.319,72.256 65.079,71.96C64.991,71.864 64.759,71.728 64.591,71.648L64.591,71.632C64.919,71.52 65.247,71.336 65.335,71.264C65.575,71.04 65.799,70.56 65.799,69.952C65.799,69.28 65.615,68.912 65.343,68.72C65.087,68.528 64.655,68.432 63.719,68.432L61.911,68.432ZM62.383,68.84L63.687,68.84C64.495,68.84 64.815,68.928 65.007,69.08C65.199,69.224 65.319,69.528 65.319,70.016C65.319,70.664 65.031,71.12 64.671,71.264C64.479,71.336 64.159,71.384 63.647,71.384L62.383,71.384L62.383,68.84Z" style="fill:white;fill-rule:nonzero;"/>
            <path d="M67.095,72.224C67.095,73.752 67.631,74.52 69.127,74.52C69.743,74.52 70.319,74.408 70.639,74.328L70.671,73.944C70.359,73.992 69.831,74.096 69.183,74.096C67.927,74.096 67.575,73.432 67.575,72.208L70.847,72.208L70.847,71.656C70.847,70.504 70.423,69.856 69.143,69.856C67.735,69.856 67.095,70.656 67.095,72.224ZM69.095,70.24C70.063,70.24 70.391,70.696 70.391,71.688L70.391,71.848L67.591,71.848C67.655,70.784 68.063,70.24 69.095,70.24Z" style="fill:white;fill-rule:nonzero;"/>
            <path d="M72.007,72.336C72.007,73.256 72.255,73.84 72.583,74.128C72.839,74.352 73.247,74.488 73.863,74.488C74.479,74.488 74.959,74.36 75.103,74.272C75.151,74.248 75.319,74.08 75.383,73.984L75.415,73.984L75.415,76.552L75.879,76.552L75.879,69.896L75.815,69.896L75.575,70.032C75.183,69.936 74.743,69.848 74.207,69.848C73.415,69.848 72.919,70.032 72.631,70.312C72.239,70.696 72.007,71.384 72.007,72.336ZM72.487,72.272C72.487,71.44 72.679,70.872 72.967,70.6C73.215,70.36 73.599,70.248 74.199,70.248C74.655,70.248 75.079,70.304 75.415,70.36L75.415,73.824C75.015,74 74.455,74.072 74.023,74.072C73.479,74.072 73.135,73.976 72.935,73.784C72.703,73.568 72.487,73.08 72.487,72.272Z" style="fill:white;fill-rule:nonzero;"/>
            <path d="M81.199,74.432L81.199,69.944L80.735,69.944L80.735,73.776C80.375,73.936 79.855,74.072 79.335,74.072C78.847,74.072 78.511,73.992 78.319,73.792C78.135,73.6 78.023,73.288 78.023,72.68L78.023,69.944L77.559,69.944L77.559,72.856C77.559,73.472 77.695,73.848 77.927,74.096C78.175,74.352 78.511,74.488 79.159,74.488C79.719,74.488 80.247,74.352 80.471,74.24C80.487,74.232 80.679,73.984 80.695,73.952L80.743,73.952L80.863,74.432L81.199,74.432Z" style="fill:white;fill-rule:nonzero;"/>
            <path d="M83.351,74.432L83.351,69.944L82.887,69.944L82.887,74.432L83.351,74.432ZM83.423,68.416C83.423,68.312 83.407,68.232 83.351,68.184C83.311,68.144 83.239,68.128 83.143,68.128C83.039,68.128 82.959,68.152 82.935,68.184C82.871,68.216 82.839,68.304 82.839,68.424C82.839,68.528 82.863,68.608 82.903,68.648C82.943,68.696 83.015,68.712 83.127,68.712C83.215,68.712 83.303,68.696 83.351,68.656C83.407,68.616 83.423,68.52 83.423,68.416Z" style="fill:white;fill-rule:nonzero;"/>
            <path d="M85.039,69.944L85.039,74.432L85.503,74.432L85.503,70.656C85.775,70.48 86.287,70.296 86.831,70.304C87.103,70.304 87.335,70.336 87.471,70.36L87.471,69.912C87.351,69.896 87.183,69.88 86.959,69.88C86.399,69.88 85.991,70.032 85.775,70.16C85.759,70.176 85.567,70.408 85.543,70.44L85.495,70.44L85.383,69.944L85.039,69.944Z" style="fill:white;fill-rule:nonzero;"/>
            <path d="M88.023,72.224C88.023,73.752 88.559,74.52 90.055,74.52C90.671,74.52 91.247,74.408 91.567,74.328L91.599,73.944C91.287,73.992 90.759,74.096 90.111,74.096C88.855,74.096 88.503,73.432 88.503,72.208L91.775,72.208L91.775,71.656C91.775,70.504 91.351,69.856 90.071,69.856C88.663,69.856 88.023,70.656 88.023,72.224ZM90.023,70.24C90.991,70.24 91.319,70.696 91.319,71.688L91.319,71.848L88.519,71.848C88.583,70.784 88.991,70.24 90.023,70.24Z" style="fill:white;fill-rule:nonzero;"/>
            <path d="M95.871,73.2C95.871,72.896 95.799,72.64 95.639,72.456C95.471,72.264 95.127,72.128 94.471,71.976C93.863,71.84 93.583,71.728 93.447,71.568C93.343,71.448 93.311,71.28 93.311,71.112C93.311,70.544 93.583,70.224 94.527,70.224C94.999,70.224 95.375,70.272 95.719,70.328L95.719,69.944C95.447,69.888 95.015,69.824 94.519,69.824C93.327,69.824 92.855,70.312 92.855,71.136C92.855,71.392 92.911,71.656 93.055,71.824C93.279,72.104 93.655,72.224 94.287,72.376C94.831,72.504 95.135,72.608 95.279,72.768C95.375,72.896 95.415,73.064 95.415,73.232C95.415,73.8 95.159,74.088 94.151,74.088C93.663,74.088 93.167,74.016 92.839,73.952L92.839,74.344C93.159,74.424 93.703,74.488 94.151,74.488C95.511,74.488 95.871,73.992 95.871,73.2Z" style="fill:white;fill-rule:nonzero;"/>
            <path d="M97.535,70.144C97.535,70.032 97.519,69.944 97.463,69.896C97.423,69.864 97.335,69.84 97.231,69.84C97.119,69.84 97.039,69.872 96.999,69.896C96.927,69.928 96.903,70.024 96.903,70.144C96.903,70.264 96.927,70.344 96.967,70.392C97.015,70.44 97.095,70.456 97.223,70.456C97.311,70.456 97.415,70.44 97.463,70.4C97.519,70.352 97.535,70.248 97.535,70.144ZM97.535,74.152C97.535,74.048 97.519,73.952 97.463,73.912C97.423,73.872 97.335,73.848 97.231,73.848C97.119,73.848 97.039,73.88 96.999,73.904C96.927,73.936 96.903,74.04 96.903,74.16C96.903,74.272 96.927,74.352 96.967,74.408C97.015,74.448 97.095,74.472 97.223,74.472C97.311,74.472 97.415,74.456 97.463,74.416C97.519,74.36 97.535,74.264 97.535,74.152Z" style="fill:white;fill-rule:nonzero;"/>
            <path d="M109.509,74.432L106.709,66.932L105.639,66.932L102.639,74.432L103.249,74.432L104.259,71.872L107.919,71.872L108.859,74.432L109.509,74.432ZM107.739,71.352L104.449,71.352L105.989,67.482L106.309,67.482L107.739,71.352Z" style="fill:white;fill-rule:nonzero;"/>
            <path d="M115.769,71.362C115.769,70.212 115.479,69.522 115.079,69.162C114.759,68.882 114.289,68.712 113.509,68.712C112.749,68.712 112.089,68.892 111.929,69.002C111.869,69.032 111.639,69.252 111.559,69.362L111.519,69.362L111.519,66.332L110.939,66.332L110.939,74.432L111.019,74.432L111.309,74.262C111.809,74.382 112.399,74.482 113.089,74.482C114.039,74.482 114.619,74.272 114.999,73.912C115.479,73.452 115.769,72.552 115.769,71.362ZM115.169,71.482C115.169,72.522 114.919,73.222 114.559,73.562C114.259,73.842 113.789,73.992 113.029,73.992C112.459,73.992 111.909,73.912 111.519,73.852L111.519,69.562C112.009,69.342 112.679,69.232 113.289,69.232C113.959,69.232 114.359,69.362 114.619,69.592C114.909,69.852 115.169,70.432 115.169,71.482Z" style="fill:white;fill-rule:nonzero;"/>
            <path d="M118.179,68.822L117.599,68.822L117.599,75.182C117.599,76.302 117.419,76.712 116.469,76.712C116.069,76.712 115.749,76.672 115.559,76.662L115.559,77.092C115.709,77.122 116.079,77.182 116.499,77.182C117.839,77.182 118.179,76.492 118.179,75.202L118.179,68.822ZM118.269,66.912C118.269,66.782 118.249,66.682 118.179,66.622C118.129,66.572 118.039,66.552 117.919,66.552C117.789,66.552 117.689,66.582 117.659,66.622C117.579,66.662 117.539,66.772 117.539,66.922C117.539,67.052 117.569,67.152 117.619,67.202C117.669,67.262 117.759,67.282 117.899,67.282C118.009,67.282 118.119,67.262 118.179,67.212C118.249,67.162 118.269,67.042 118.269,66.912Z" style="fill:white;fill-rule:nonzero;"/>
            <path d="M124.819,74.432L124.819,68.822L124.239,68.822L124.239,73.612C123.789,73.812 123.139,73.982 122.489,73.982C121.879,73.982 121.459,73.882 121.219,73.632C120.989,73.392 120.849,73.002 120.849,72.242L120.849,68.822L120.269,68.822L120.269,72.462C120.269,73.232 120.439,73.702 120.729,74.012C121.039,74.332 121.459,74.502 122.269,74.502C122.969,74.502 123.629,74.332 123.909,74.192C123.929,74.182 124.169,73.872 124.189,73.832L124.249,73.832L124.399,74.432L124.819,74.432Z" style="fill:white;fill-rule:nonzero;"/>
            <path d="M126.929,68.822L126.929,74.432L127.509,74.432L127.509,69.712C127.849,69.492 128.489,69.262 129.169,69.272C129.509,69.272 129.799,69.312 129.969,69.342L129.969,68.782C129.819,68.762 129.609,68.742 129.329,68.742C128.629,68.742 128.119,68.932 127.849,69.092C127.829,69.112 127.589,69.402 127.559,69.442L127.499,69.442L127.359,68.822L126.929,68.822Z" style="fill:white;fill-rule:nonzero;"/>
            <path d="M135.139,74.432L135.139,70.952C135.139,69.852 134.979,69.432 134.729,69.162C134.459,68.852 133.969,68.722 133.199,68.722C132.399,68.722 131.569,68.892 131.149,69.002L131.149,69.472C131.529,69.402 132.399,69.242 133.079,69.242C133.709,69.242 134.079,69.342 134.259,69.552C134.449,69.782 134.569,70.182 134.569,71.152C132.779,71.312 131.639,71.522 131.209,71.842C130.989,71.982 130.769,72.362 130.769,72.992C130.769,73.512 130.889,73.862 131.089,74.082C131.319,74.342 131.739,74.532 132.519,74.532C133.489,74.532 134.089,74.282 134.259,74.162C134.309,74.122 134.449,73.932 134.529,73.822L134.579,73.822L134.719,74.432L135.139,74.432ZM134.569,73.652C134.269,73.802 133.559,74.042 132.709,74.042C132.099,74.042 131.739,73.902 131.569,73.722C131.429,73.562 131.339,73.302 131.339,72.942C131.339,72.522 131.439,72.272 131.589,72.142C131.819,71.892 133.269,71.682 134.569,71.602L134.569,73.652Z" style="fill:white;fill-rule:nonzero;"/>
            <path d="M140.239,68.822L138.139,68.822L138.139,67.502L137.559,67.652L137.559,68.822L136.479,68.822L136.399,69.312L137.559,69.312L137.559,73.162C137.559,74.132 137.969,74.492 138.969,74.492C139.399,74.492 139.869,74.422 140.169,74.362L140.219,73.872C139.999,73.902 139.579,73.972 139.119,73.972C138.489,73.972 138.139,73.812 138.139,73.052L138.139,69.312L140.129,69.312L140.239,68.822Z" style="fill:white;fill-rule:nonzero;"/>
            <path d="M142.319,74.432L142.319,68.822L141.739,68.822L141.739,74.432L142.319,74.432ZM142.409,66.912C142.409,66.782 142.389,66.682 142.319,66.622C142.269,66.572 142.179,66.552 142.059,66.552C141.929,66.552 141.829,66.582 141.799,66.622C141.719,66.662 141.679,66.772 141.679,66.922C141.679,67.052 141.709,67.152 141.759,67.202C141.809,67.262 141.899,67.282 142.039,67.282C142.149,67.282 142.259,67.262 142.319,67.212C142.389,67.162 142.409,67.042 142.409,66.912Z" style="fill:white;fill-rule:nonzero;"/>
            <path d="M149.309,71.502C149.309,70.342 149.059,69.692 148.649,69.262C148.299,68.912 147.709,68.672 146.859,68.672C145.969,68.672 145.349,68.932 144.949,69.312C144.439,69.792 144.149,70.672 144.149,71.762C144.149,72.842 144.439,73.502 144.759,73.872C145.129,74.292 145.719,74.552 146.649,74.552C147.639,74.552 148.209,74.282 148.599,73.882C149.029,73.432 149.309,72.602 149.309,71.502ZM146.709,74.052C145.899,74.052 145.469,73.802 145.199,73.492C144.919,73.172 144.729,72.532 144.729,71.692C144.729,70.672 145.039,69.962 145.379,69.652C145.639,69.412 146.099,69.192 146.789,69.192C147.489,69.192 147.919,69.372 148.199,69.662C148.499,69.972 148.719,70.452 148.719,71.602C148.719,72.602 148.469,73.222 148.119,73.582C147.829,73.872 147.329,74.052 146.709,74.052Z" style="fill:white;fill-rule:nonzero;"/>
            <path d="M155.689,74.432L155.689,70.762C155.689,70.002 155.529,69.492 155.219,69.202C154.919,68.902 154.489,68.742 153.759,68.742C153.049,68.742 152.329,68.942 152.059,69.092C152.029,69.112 151.799,69.372 151.769,69.412L151.719,69.412L151.559,68.822L151.139,68.822L151.139,74.432L151.719,74.432L151.719,69.632C152.159,69.452 152.789,69.262 153.509,69.262C154.029,69.262 154.469,69.362 154.719,69.602C154.969,69.842 155.109,70.252 155.109,70.962L155.109,74.432L155.689,74.432Z" style="fill:white;fill-rule:nonzero;"/>
        </g>
        <path d="M2.837,42.52L42.521,82.204L82.205,42.521L42.52,2.836L2.837,42.52L2.837,42.52Z" style="fill:rgb(55,5,170);"/>
        <path d="M39.33,49.72L36.786,49.72L32.153,33.11L31.745,33.11L26.44,49.72L23.92,49.72L19.671,31.719L21.135,31.719L25.047,48.329L25.551,48.329L30.855,31.719L33.159,31.719L37.815,48.329L38.367,48.329L42.735,31.719L44.223,31.719L39.33,49.72Z" style="fill:white;fill-rule:nonzero;"/>
        <rect x="48.208" y="31.718" width="1.416" height="18.002" style="fill:white;"/>
        <path d="M56.512,48.447L66.185,48.447L65.777,49.719L55.12,49.719L55.12,31.718L56.512,31.718L56.512,48.447Z" style="fill:white;fill-rule:nonzero;"/>
    </g>
</svg>
