<?xml version="1.0" standalone="no"?>
<!DOCTYPE svg PUBLIC "-//W3C//DTD SVG 1.1//EN" "http://www.w3.org/Graphics/SVG/1.1/DTD/svg11.dtd">
<svg width="100%" height="100%" viewBox="0 0 284 86" version="1.1" xmlns="http://www.w3.org/2000/svg" xmlns:xlink="http://www.w3.org/1999/xlink" xml:space="preserve" style="fill-rule:evenodd;clip-rule:evenodd;stroke-linejoin:round;stroke-miterlimit:1.41421;">
    <g id="primary">
        <path d="M82.769,26.988L87.598,31.817L78.582,31.817L73.749,26.988L49.577,2.835L112.057,2.837L134.782,25.561L81.341,25.56L82.769,26.988Z" style="fill:rgb(163,4,42);"/>
        <path d="M147.207,26.988L152.954,32.735L143.938,32.735L138.187,26.988L114.015,2.835L176.495,2.837L199.22,25.561L145.779,25.56L147.207,26.988Z" style="fill:rgb(51,51,51);"/>
        <path d="M211.652,26.988L217.399,32.735L208.383,32.735L202.632,26.988L178.46,2.835L240.94,2.837L263.666,25.561L210.224,25.56L211.652,26.988Z" style="fill:rgb(51,51,51);"/>
        <path d="M215.845,31.181L269.29,31.181L280.63,42.521L269.293,53.858L215.845,53.858L206.829,53.858L212.498,48.189L210.516,48.189L204.847,53.858L151.4,53.858L142.384,53.858L148.053,48.189L146.071,48.189L140.402,53.858L86.962,53.858L72.849,53.858L78.518,48.189L74.6,48.189L74.6,36.85L78.516,36.85L72.847,31.181L140.4,31.181L146.069,36.85L148.05,36.85L142.381,31.181L204.845,31.181L210.514,36.85L212.496,36.85L206.827,31.181L215.845,31.181Z" style="fill:rgb(51,51,51);"/>
        <g>
            <path d="M91.295,47.794L91.295,47.08L94.391,47.08L94.391,37.863L91.295,38.423L91.295,37.709L95.189,37.022L95.189,47.08L97.991,47.08L97.991,47.794L91.295,47.794L91.295,47.794Z" style="fill:white;fill-rule:nonzero;"/>
            <path d="M113.936,47.794L106.722,47.794L106.722,46.954C106.848,45.413 107.688,44.418 110.154,43.214C111.723,42.43 112.409,42.024 112.774,41.547C113.082,41.113 113.166,40.553 113.166,40.006C113.166,38.563 112.634,37.905 110.351,37.905C109.104,37.905 107.76,38.213 107.143,38.353L107.143,37.624C107.969,37.4 109.258,37.147 110.518,37.147C113.193,37.147 114.034,38.016 114.034,39.907C114.034,40.86 113.824,41.518 113.502,41.924C112.956,42.638 111.877,43.185 110.504,43.857C107.941,45.104 107.535,45.986 107.506,47.037L114.146,47.037L113.936,47.794L113.936,47.794Z" style="fill:white;fill-rule:nonzero;"/>
            <path d="M128.734,41.841L127.599,42.373L127.599,42.429L128.789,42.849C129.266,43.242 129.643,44.138 129.643,45.048C129.643,47.065 128.495,47.934 125.651,47.934C124.475,47.934 123.438,47.78 122.821,47.64L122.821,46.926C123.466,47.038 124.6,47.206 125.651,47.206C128.256,47.206 128.803,46.352 128.803,45.049C128.803,43.186 127.556,42.836 125.973,42.836L123.97,42.836L123.97,42.107L125.791,42.107C127.164,42.107 128.606,41.757 128.606,39.936C128.606,38.591 128.102,37.891 125.973,37.891C124.852,37.891 123.774,38.115 123.045,38.269L123.045,37.568C123.802,37.372 124.964,37.148 126.113,37.148C128.634,37.148 129.433,38.031 129.433,39.824C129.434,40.804 129,41.588 128.734,41.841L128.734,41.841Z" style="fill:white;fill-rule:nonzero;"/>
        </g>
        <g>
            <path d="M166.718,47.794L165.947,47.794L165.947,44.811L160.553,44.811L160.553,43.998L165.191,37.288L166.717,37.288L166.717,44.11L169.071,44.11L168.86,44.811L166.716,44.811L166.718,47.794ZM165.948,44.11L165.948,37.975L165.569,37.975L161.465,43.928L161.465,44.11L165.948,44.11Z" style="fill:white;fill-rule:nonzero;"/>
            <path d="M179.903,47.934C178.938,47.934 177.916,47.794 177.186,47.682L177.186,46.939C177.858,47.037 178.895,47.177 179.946,47.177C182.37,47.177 183.211,46.49 183.211,44.754C183.211,42.905 182.623,42.429 180.465,42.429C179.471,42.429 178.126,42.639 177.51,42.723L177.51,37.288L183.73,37.288L183.73,38.002L178.24,38.002L178.24,41.952C178.828,41.854 179.639,41.7 180.719,41.7C183.157,41.7 184.053,42.345 184.053,44.641C184.05,46.855 183.028,47.934 179.903,47.934L179.903,47.934Z" style="fill:white;fill-rule:nonzero;"/>
            <path d="M193.666,42.667L193.735,42.667L194.182,42.205C194.786,41.981 195.877,41.673 197.153,41.673C199.632,41.673 200.459,42.709 200.459,44.656C200.459,46.687 199.407,47.934 196.705,47.934C193.764,47.934 192.852,46.071 192.852,42.975C192.852,41.028 193.399,39.627 194.225,38.745C195.192,37.736 196.733,37.106 199.436,37.078L199.715,37.821C197.082,37.835 195.652,38.381 194.813,39.278C194.155,39.977 193.721,41.168 193.666,42.667L193.666,42.667ZM196.886,42.401C195.64,42.401 194.491,42.709 193.665,43.031C193.692,45.931 194.603,47.205 196.745,47.205C198.749,47.205 199.645,46.421 199.645,44.726C199.646,43.102 198.987,42.401 196.886,42.401L196.886,42.401Z" style="fill:white;fill-rule:nonzero;"/>
        </g>
        <g>
            <path d="M229.528,38.227L229.528,38.031L223.213,38.031L223.437,37.288L230.426,37.288L230.426,38.213L225.411,47.794L224.501,47.794L229.528,38.227Z" style="fill:white;fill-rule:nonzero;"/>
            <path d="M240.167,42.919L241.118,42.4L241.118,42.33L240.278,41.896C239.914,41.532 239.563,41.013 239.563,40.047C239.563,38.352 240.627,37.133 243.092,37.133C245.544,37.133 246.454,38.225 246.454,39.794C246.454,40.789 246.033,41.391 245.641,41.811L244.774,42.33L244.774,42.4L245.837,42.793C246.399,43.241 246.72,43.956 246.72,44.908C246.72,46.645 245.641,47.934 242.882,47.934C240.278,47.934 239.197,46.897 239.197,45.119C239.2,44.222 239.564,43.479 240.167,42.919L240.167,42.919ZM240.027,45.02C240.027,46.421 240.84,47.219 242.968,47.219C245.139,47.219 245.896,46.197 245.896,44.992C245.896,43.073 244.677,42.919 241.553,42.582C240.782,43.087 240.027,43.774 240.027,45.02L240.027,45.02ZM240.39,39.977C240.39,41.7 241.484,41.938 244.228,42.19C245.111,41.644 245.615,40.929 245.615,39.893C245.615,38.548 244.859,37.848 243.011,37.848C241.077,37.849 240.39,38.801 240.39,39.977L240.39,39.977Z" style="fill:white;fill-rule:nonzero;"/>
            <path d="M261.883,42.429L261.814,42.429L261.378,42.891C260.804,43.129 259.726,43.41 258.521,43.41C256.014,43.41 255.131,42.401 255.131,40.468C255.131,38.255 256.519,37.148 258.87,37.148C261.616,37.148 262.694,38.675 262.694,42.009C262.694,44.012 262.149,45.483 261.321,46.351C260.397,47.36 258.815,47.962 256.096,48.018L255.829,47.247C258.421,47.233 259.933,46.715 260.746,45.832C261.379,45.119 261.841,43.942 261.883,42.429L261.883,42.429ZM258.704,42.681C259.965,42.681 261.1,42.387 261.884,42.093C261.857,39.123 261.002,37.877 258.818,37.877C256.857,37.877 255.945,38.815 255.945,40.413C255.945,41.981 256.644,42.681 258.704,42.681L258.704,42.681Z" style="fill:white;fill-rule:nonzero;"/>
        </g>
        <g transform="matrix(1,0,0,1,82.3963,2.16146)">
            <path d="M59.256,14.737L56.456,7.237L55.386,7.237L52.386,14.737L52.996,14.737L54.006,12.177L57.666,12.177L58.606,14.737L59.256,14.737ZM57.486,11.657L54.196,11.657L55.736,7.787L56.056,7.787L57.486,11.657Z" style="fill:white;fill-rule:nonzero;"/>
            <path d="M65.126,9.127L64.496,9.127L62.526,14.197L62.286,14.197L60.386,9.127L59.756,9.127L61.886,14.737L62.886,14.737L65.126,9.127Z" style="fill:white;fill-rule:nonzero;"/>
            <path d="M70.416,14.737L70.416,11.257C70.416,10.157 70.256,9.737 70.006,9.467C69.736,9.157 69.246,9.027 68.476,9.027C67.676,9.027 66.846,9.197 66.426,9.307L66.426,9.777C66.806,9.707 67.676,9.547 68.356,9.547C68.986,9.547 69.356,9.647 69.536,9.857C69.726,10.087 69.846,10.487 69.846,11.457C68.056,11.617 66.916,11.827 66.486,12.147C66.266,12.287 66.046,12.667 66.046,13.297C66.046,13.817 66.166,14.167 66.366,14.387C66.596,14.647 67.016,14.837 67.796,14.837C68.766,14.837 69.366,14.587 69.536,14.467C69.586,14.427 69.726,14.237 69.806,14.127L69.856,14.127L69.996,14.737L70.416,14.737ZM69.846,13.957C69.546,14.107 68.836,14.347 67.986,14.347C67.376,14.347 67.016,14.207 66.846,14.027C66.706,13.867 66.616,13.607 66.616,13.247C66.616,12.827 66.716,12.577 66.866,12.447C67.096,12.197 68.546,11.987 69.846,11.907L69.846,13.957Z" style="fill:white;fill-rule:nonzero;"/>
            <path d="M73.106,14.737L73.106,9.127L72.526,9.127L72.526,14.737L73.106,14.737ZM73.196,7.217C73.196,7.087 73.176,6.987 73.106,6.927C73.056,6.877 72.966,6.857 72.846,6.857C72.716,6.857 72.616,6.887 72.586,6.927C72.506,6.967 72.466,7.077 72.466,7.227C72.466,7.357 72.496,7.457 72.546,7.507C72.596,7.567 72.686,7.587 72.826,7.587C72.936,7.587 73.046,7.567 73.106,7.517C73.176,7.467 73.196,7.347 73.196,7.217Z" style="fill:white;fill-rule:nonzero;"/>
            <path d="M75.186,6.637L75.186,13.467C75.186,14.407 75.556,14.797 76.366,14.797C76.746,14.797 77.096,14.737 77.336,14.687L77.336,14.227C77.136,14.257 76.866,14.297 76.536,14.297C76.066,14.297 75.766,14.127 75.766,13.407L75.766,6.637L75.186,6.637Z" style="fill:white;fill-rule:nonzero;"/>
            <path d="M82.536,14.737L82.536,11.257C82.536,10.157 82.376,9.737 82.126,9.467C81.856,9.157 81.366,9.027 80.596,9.027C79.796,9.027 78.966,9.197 78.546,9.307L78.546,9.777C78.926,9.707 79.796,9.547 80.476,9.547C81.106,9.547 81.476,9.647 81.656,9.857C81.846,10.087 81.966,10.487 81.966,11.457C80.176,11.617 79.036,11.827 78.606,12.147C78.386,12.287 78.166,12.667 78.166,13.297C78.166,13.817 78.286,14.167 78.486,14.387C78.716,14.647 79.136,14.837 79.916,14.837C80.886,14.837 81.486,14.587 81.656,14.467C81.706,14.427 81.846,14.237 81.926,14.127L81.976,14.127L82.116,14.737L82.536,14.737ZM81.966,13.957C81.666,14.107 80.956,14.347 80.106,14.347C79.496,14.347 79.136,14.207 78.966,14.027C78.826,13.867 78.736,13.607 78.736,13.247C78.736,12.827 78.836,12.577 78.986,12.447C79.216,12.197 80.666,11.987 81.966,11.907L81.966,13.957Z" style="fill:white;fill-rule:nonzero;"/>
            <path d="M89.466,11.667C89.466,10.517 89.176,9.827 88.776,9.467C88.456,9.187 87.986,9.017 87.206,9.017C86.446,9.017 85.786,9.197 85.626,9.307C85.566,9.337 85.336,9.557 85.256,9.667L85.216,9.667L85.216,6.637L84.636,6.637L84.636,14.737L84.716,14.737L85.006,14.567C85.506,14.687 86.096,14.787 86.786,14.787C87.736,14.787 88.316,14.577 88.696,14.217C89.176,13.757 89.466,12.857 89.466,11.667ZM88.866,11.787C88.866,12.827 88.616,13.527 88.256,13.867C87.956,14.147 87.486,14.297 86.726,14.297C86.156,14.297 85.606,14.217 85.216,14.157L85.216,9.867C85.706,9.647 86.376,9.537 86.986,9.537C87.656,9.537 88.056,9.667 88.316,9.897C88.606,10.157 88.866,10.737 88.866,11.787Z" style="fill:white;fill-rule:nonzero;"/>
            <path d="M91.266,6.637L91.266,13.467C91.266,14.407 91.636,14.797 92.446,14.797C92.826,14.797 93.176,14.737 93.416,14.687L93.416,14.227C93.216,14.257 92.946,14.297 92.616,14.297C92.146,14.297 91.846,14.127 91.846,13.407L91.846,6.637L91.266,6.637Z" style="fill:white;fill-rule:nonzero;"/>
            <path d="M94.236,11.977C94.236,13.887 94.906,14.847 96.776,14.847C97.546,14.847 98.266,14.707 98.666,14.607L98.706,14.127C98.316,14.187 97.656,14.317 96.846,14.317C95.276,14.317 94.836,13.487 94.836,11.957L98.926,11.957L98.926,11.267C98.926,9.827 98.396,9.017 96.796,9.017C95.036,9.017 94.236,10.017 94.236,11.977ZM96.736,9.497C97.946,9.497 98.356,10.067 98.356,11.307L98.356,11.507L94.856,11.507C94.936,10.177 95.446,9.497 96.736,9.497Z" style="fill:white;fill-rule:nonzero;"/>
        </g>
        <g transform="matrix(1,0,0,1,146.834,2.16146)">
            <path d="M59.256,14.737L56.456,7.237L55.386,7.237L52.386,14.737L52.996,14.737L54.006,12.177L57.666,12.177L58.606,14.737L59.256,14.737ZM57.486,11.657L54.196,11.657L55.736,7.787L56.056,7.787L57.486,11.657Z" style="fill:white;fill-rule:nonzero;"/>
            <path d="M65.126,9.127L64.496,9.127L62.526,14.197L62.286,14.197L60.386,9.127L59.756,9.127L61.886,14.737L62.886,14.737L65.126,9.127Z" style="fill:white;fill-rule:nonzero;"/>
            <path d="M70.416,14.737L70.416,11.257C70.416,10.157 70.256,9.737 70.006,9.467C69.736,9.157 69.246,9.027 68.476,9.027C67.676,9.027 66.846,9.197 66.426,9.307L66.426,9.777C66.806,9.707 67.676,9.547 68.356,9.547C68.986,9.547 69.356,9.647 69.536,9.857C69.726,10.087 69.846,10.487 69.846,11.457C68.056,11.617 66.916,11.827 66.486,12.147C66.266,12.287 66.046,12.667 66.046,13.297C66.046,13.817 66.166,14.167 66.366,14.387C66.596,14.647 67.016,14.837 67.796,14.837C68.766,14.837 69.366,14.587 69.536,14.467C69.586,14.427 69.726,14.237 69.806,14.127L69.856,14.127L69.996,14.737L70.416,14.737ZM69.846,13.957C69.546,14.107 68.836,14.347 67.986,14.347C67.376,14.347 67.016,14.207 66.846,14.027C66.706,13.867 66.616,13.607 66.616,13.247C66.616,12.827 66.716,12.577 66.866,12.447C67.096,12.197 68.546,11.987 69.846,11.907L69.846,13.957Z" style="fill:white;fill-rule:nonzero;"/>
            <path d="M73.106,14.737L73.106,9.127L72.526,9.127L72.526,14.737L73.106,14.737ZM73.196,7.217C73.196,7.087 73.176,6.987 73.106,6.927C73.056,6.877 72.966,6.857 72.846,6.857C72.716,6.857 72.616,6.887 72.586,6.927C72.506,6.967 72.466,7.077 72.466,7.227C72.466,7.357 72.496,7.457 72.546,7.507C72.596,7.567 72.686,7.587 72.826,7.587C72.936,7.587 73.046,7.567 73.106,7.517C73.176,7.467 73.196,7.347 73.196,7.217Z" style="fill:white;fill-rule:nonzero;"/>
            <path d="M75.186,6.637L75.186,13.467C75.186,14.407 75.556,14.797 76.366,14.797C76.746,14.797 77.096,14.737 77.336,14.687L77.336,14.227C77.136,14.257 76.866,14.297 76.536,14.297C76.066,14.297 75.766,14.127 75.766,13.407L75.766,6.637L75.186,6.637Z" style="fill:white;fill-rule:nonzero;"/>
            <path d="M82.536,14.737L82.536,11.257C82.536,10.157 82.376,9.737 82.126,9.467C81.856,9.157 81.366,9.027 80.596,9.027C79.796,9.027 78.966,9.197 78.546,9.307L78.546,9.777C78.926,9.707 79.796,9.547 80.476,9.547C81.106,9.547 81.476,9.647 81.656,9.857C81.846,10.087 81.966,10.487 81.966,11.457C80.176,11.617 79.036,11.827 78.606,12.147C78.386,12.287 78.166,12.667 78.166,13.297C78.166,13.817 78.286,14.167 78.486,14.387C78.716,14.647 79.136,14.837 79.916,14.837C80.886,14.837 81.486,14.587 81.656,14.467C81.706,14.427 81.846,14.237 81.926,14.127L81.976,14.127L82.116,14.737L82.536,14.737ZM81.966,13.957C81.666,14.107 80.956,14.347 80.106,14.347C79.496,14.347 79.136,14.207 78.966,14.027C78.826,13.867 78.736,13.607 78.736,13.247C78.736,12.827 78.836,12.577 78.986,12.447C79.216,12.197 80.666,11.987 81.966,11.907L81.966,13.957Z" style="fill:white;fill-rule:nonzero;"/>
            <path d="M89.466,11.667C89.466,10.517 89.176,9.827 88.776,9.467C88.456,9.187 87.986,9.017 87.206,9.017C86.446,9.017 85.786,9.197 85.626,9.307C85.566,9.337 85.336,9.557 85.256,9.667L85.216,9.667L85.216,6.637L84.636,6.637L84.636,14.737L84.716,14.737L85.006,14.567C85.506,14.687 86.096,14.787 86.786,14.787C87.736,14.787 88.316,14.577 88.696,14.217C89.176,13.757 89.466,12.857 89.466,11.667ZM88.866,11.787C88.866,12.827 88.616,13.527 88.256,13.867C87.956,14.147 87.486,14.297 86.726,14.297C86.156,14.297 85.606,14.217 85.216,14.157L85.216,9.867C85.706,9.647 86.376,9.537 86.986,9.537C87.656,9.537 88.056,9.667 88.316,9.897C88.606,10.157 88.866,10.737 88.866,11.787Z" style="fill:white;fill-rule:nonzero;"/>
            <path d="M91.266,6.637L91.266,13.467C91.266,14.407 91.636,14.797 92.446,14.797C92.826,14.797 93.176,14.737 93.416,14.687L93.416,14.227C93.216,14.257 92.946,14.297 92.616,14.297C92.146,14.297 91.846,14.127 91.846,13.407L91.846,6.637L91.266,6.637Z" style="fill:white;fill-rule:nonzero;"/>
            <path d="M94.236,11.977C94.236,13.887 94.906,14.847 96.776,14.847C97.546,14.847 98.266,14.707 98.666,14.607L98.706,14.127C98.316,14.187 97.656,14.317 96.846,14.317C95.276,14.317 94.836,13.487 94.836,11.957L98.926,11.957L98.926,11.267C98.926,9.827 98.396,9.017 96.796,9.017C95.036,9.017 94.236,10.017 94.236,11.977ZM96.736,9.497C97.946,9.497 98.356,10.067 98.356,11.307L98.356,11.507L94.856,11.507C94.936,10.177 95.446,9.497 96.736,9.497Z" style="fill:white;fill-rule:nonzero;"/>
        </g>
        <g>
            <path d="M2.837,42.52L42.521,82.204L82.205,42.521L42.52,2.836L2.837,42.52L2.837,42.52Z" style="fill:black;"/>
            <g transform="matrix(0.314988,0,0,0.314988,1.94338,29.1267)">
                <path d="M2.837,42.52L42.521,82.204L82.205,42.521L42.52,2.836L2.837,42.52L2.837,42.52Z" style="fill:rgb(55,5,170);"/>
            </g>
            <g transform="matrix(0.314988,0,0,0.314988,29.1274,1.94269)">
                <path d="M2.837,42.52L42.521,82.204L82.205,42.521L42.52,2.836L2.837,42.52L2.837,42.52Z" style="fill:rgb(163,4,42);"/>
            </g>
            <g transform="matrix(1,0,0,1,-19.5116,15.4648)">
                <path d="M35.417,23.675L34.921,23.675L33.465,29.211L33.281,29.211L31.729,23.675L30.961,23.675L29.193,29.211L29.025,29.211L27.721,23.675L27.233,23.675L28.649,29.675L29.489,29.675L31.257,24.139L31.393,24.139L32.937,29.675L33.785,29.675L35.417,23.675Z" style="fill:white;fill-rule:nonzero;"/>
                <rect x="36.745" y="23.675" width="0.472" height="6" style="fill:white;fill-rule:nonzero;"/>
                <path d="M39.513,23.675L39.049,23.675L39.049,29.675L42.601,29.675L42.737,29.251L39.513,29.251L39.513,23.675Z" style="fill:white;fill-rule:nonzero;"/>
            </g>
        </g>
        <g transform="matrix(1,0,0,1,1.38278,2.15262)">
            <path d="M37.81,14.719C37.81,14.375 37.754,13.959 37.554,13.719C37.146,13.199 34.85,12.799 34.498,12.351C34.378,12.199 34.322,11.943 34.322,11.639C34.322,11.271 34.45,10.991 34.578,10.855C34.754,10.647 35.194,10.519 35.938,10.519C36.682,10.519 37.106,10.575 37.61,10.631L37.61,10.223C37.202,10.151 36.658,10.095 36.002,10.095C35.018,10.095 34.506,10.295 34.25,10.543C33.978,10.807 33.85,11.239 33.85,11.679C33.85,12.007 33.906,12.431 34.09,12.655C34.546,13.239 36.69,13.535 37.138,14.023C37.258,14.159 37.322,14.415 37.322,14.743C37.322,15.143 37.194,15.407 37.05,15.551C36.882,15.711 36.442,15.839 35.618,15.839C34.866,15.839 34.338,15.743 33.866,15.663L33.866,16.079C34.266,16.175 34.866,16.271 35.61,16.271C36.466,16.271 37.066,16.143 37.394,15.863C37.642,15.647 37.81,15.199 37.81,14.719Z" style="fill:white;fill-rule:nonzero;"/>
            <path d="M43.018,10.183L38.282,10.183L38.17,10.607L40.338,10.607L40.338,16.183L40.802,16.183L40.802,10.607L42.922,10.607L43.018,10.183Z" style="fill:white;fill-rule:nonzero;"/>
            <path d="M44.074,10.183L44.074,16.183L44.546,16.183L44.546,13.551L45.378,13.551C45.986,13.551 46.41,13.583 46.57,13.687C46.882,13.879 47.226,14.615 47.914,16.183L48.426,16.183C47.914,15.007 47.482,14.007 47.242,13.711C47.154,13.615 46.922,13.479 46.754,13.399L46.754,13.383C47.082,13.271 47.41,13.087 47.498,13.015C47.738,12.791 47.962,12.311 47.962,11.703C47.962,11.031 47.778,10.663 47.506,10.471C47.25,10.279 46.818,10.183 45.882,10.183L44.074,10.183ZM44.546,10.591L45.85,10.591C46.658,10.591 46.978,10.679 47.17,10.831C47.362,10.975 47.482,11.279 47.482,11.767C47.482,12.415 47.194,12.871 46.834,13.015C46.642,13.087 46.322,13.135 45.81,13.135L44.546,13.135L44.546,10.591Z" style="fill:white;fill-rule:nonzero;"/>
        </g>
        <g transform="matrix(1,0,0,1,15.4052,-1.34798)">
            <path d="M63.526,13.828L61.286,7.828L60.43,7.828L58.03,13.828L58.518,13.828L59.326,11.78L62.254,11.78L63.006,13.828L63.526,13.828ZM62.11,11.364L59.478,11.364L60.71,8.268L60.966,8.268L62.11,11.364Z" style="fill:white;fill-rule:nonzero;"/>
            <path d="M68.222,9.34L67.718,9.34L66.142,13.396L65.95,13.396L64.43,9.34L63.926,9.34L65.63,13.828L66.43,13.828L68.222,9.34Z" style="fill:white;fill-rule:nonzero;"/>
            <path d="M72.454,13.828L72.454,11.044C72.454,10.164 72.326,9.828 72.126,9.612C71.91,9.364 71.518,9.26 70.902,9.26C70.262,9.26 69.598,9.396 69.262,9.484L69.262,9.86C69.566,9.804 70.262,9.676 70.806,9.676C71.31,9.676 71.606,9.756 71.75,9.924C71.902,10.108 71.998,10.428 71.998,11.204C70.566,11.332 69.654,11.5 69.31,11.756C69.134,11.868 68.958,12.172 68.958,12.676C68.958,13.092 69.054,13.372 69.214,13.548C69.398,13.756 69.734,13.908 70.358,13.908C71.134,13.908 71.614,13.708 71.75,13.612C71.79,13.58 71.902,13.428 71.966,13.34L72.006,13.34L72.118,13.828L72.454,13.828ZM71.998,13.204C71.758,13.324 71.19,13.516 70.51,13.516C70.022,13.516 69.734,13.404 69.598,13.26C69.486,13.132 69.414,12.924 69.414,12.636C69.414,12.3 69.494,12.1 69.614,11.996C69.798,11.796 70.958,11.628 71.998,11.564L71.998,13.204Z" style="fill:white;fill-rule:nonzero;"/>
            <path d="M74.606,13.828L74.606,9.34L74.142,9.34L74.142,13.828L74.606,13.828ZM74.678,7.812C74.678,7.708 74.662,7.628 74.606,7.58C74.566,7.54 74.494,7.524 74.398,7.524C74.294,7.524 74.214,7.548 74.19,7.58C74.126,7.612 74.094,7.7 74.094,7.82C74.094,7.924 74.118,8.004 74.158,8.044C74.198,8.092 74.27,8.108 74.382,8.108C74.47,8.108 74.558,8.092 74.606,8.052C74.662,8.012 74.678,7.916 74.678,7.812Z" style="fill:white;fill-rule:nonzero;"/>
            <path d="M76.27,7.348L76.27,12.812C76.27,13.564 76.566,13.876 77.214,13.876C77.518,13.876 77.798,13.828 77.99,13.788L77.99,13.42C77.83,13.444 77.614,13.476 77.35,13.476C76.974,13.476 76.734,13.34 76.734,12.764L76.734,7.348L76.27,7.348Z" style="fill:white;fill-rule:nonzero;"/>
            <path d="M82.15,13.828L82.15,11.044C82.15,10.164 82.022,9.828 81.822,9.612C81.606,9.364 81.214,9.26 80.598,9.26C79.958,9.26 79.294,9.396 78.958,9.484L78.958,9.86C79.262,9.804 79.958,9.676 80.502,9.676C81.006,9.676 81.302,9.756 81.446,9.924C81.598,10.108 81.694,10.428 81.694,11.204C80.262,11.332 79.35,11.5 79.006,11.756C78.83,11.868 78.654,12.172 78.654,12.676C78.654,13.092 78.75,13.372 78.91,13.548C79.094,13.756 79.43,13.908 80.054,13.908C80.83,13.908 81.31,13.708 81.446,13.612C81.486,13.58 81.598,13.428 81.662,13.34L81.702,13.34L81.814,13.828L82.15,13.828ZM81.694,13.204C81.454,13.324 80.886,13.516 80.206,13.516C79.718,13.516 79.43,13.404 79.294,13.26C79.182,13.132 79.11,12.924 79.11,12.636C79.11,12.3 79.19,12.1 79.31,11.996C79.494,11.796 80.654,11.628 81.694,11.564L81.694,13.204Z" style="fill:white;fill-rule:nonzero;"/>
            <path d="M87.694,11.372C87.694,10.452 87.462,9.9 87.142,9.612C86.886,9.388 86.51,9.252 85.886,9.252C85.278,9.252 84.75,9.396 84.622,9.484C84.574,9.508 84.39,9.684 84.326,9.772L84.294,9.772L84.294,7.348L83.83,7.348L83.83,13.828L83.894,13.828L84.126,13.692C84.526,13.788 84.998,13.868 85.55,13.868C86.31,13.868 86.774,13.7 87.078,13.412C87.462,13.044 87.694,12.324 87.694,11.372ZM87.214,11.468C87.214,12.3 87.014,12.86 86.726,13.132C86.486,13.356 86.11,13.476 85.502,13.476C85.046,13.476 84.606,13.412 84.294,13.364L84.294,9.932C84.686,9.756 85.222,9.668 85.71,9.668C86.246,9.668 86.566,9.772 86.774,9.956C87.006,10.164 87.214,10.628 87.214,11.468Z" style="fill:white;fill-rule:nonzero;"/>
            <path d="M89.134,7.348L89.134,12.812C89.134,13.564 89.43,13.876 90.078,13.876C90.382,13.876 90.662,13.828 90.854,13.788L90.854,13.42C90.694,13.444 90.478,13.476 90.214,13.476C89.838,13.476 89.598,13.34 89.598,12.764L89.598,7.348L89.134,7.348Z" style="fill:white;fill-rule:nonzero;"/>
            <path d="M91.51,11.62C91.51,13.148 92.046,13.916 93.542,13.916C94.158,13.916 94.734,13.804 95.054,13.724L95.086,13.34C94.774,13.388 94.246,13.492 93.598,13.492C92.342,13.492 91.99,12.828 91.99,11.604L95.262,11.604L95.262,11.052C95.262,9.9 94.838,9.252 93.558,9.252C92.15,9.252 91.51,10.052 91.51,11.62ZM93.51,9.636C94.478,9.636 94.806,10.092 94.806,11.084L94.806,11.244L92.006,11.244C92.07,10.18 92.478,9.636 93.51,9.636Z" style="fill:white;fill-rule:nonzero;"/>
            <path d="M56.622,18.86C56.622,20.012 56.798,20.916 57.07,21.412C57.286,21.804 57.726,22.172 57.934,22.3L58.406,22.3C58.062,22.028 57.654,21.644 57.454,21.284C57.206,20.852 57.046,20.076 57.046,18.86C57.046,17.636 57.206,16.852 57.462,16.428C57.67,16.076 58.054,15.7 58.414,15.42L57.942,15.42C57.726,15.548 57.286,15.948 57.07,16.308C56.782,16.82 56.622,17.708 56.622,18.86Z" style="fill:white;fill-rule:nonzero;"/>
            <path d="M63.086,20.364C63.086,20.02 63.03,19.604 62.83,19.364C62.422,18.844 60.126,18.444 59.774,17.996C59.654,17.844 59.598,17.588 59.598,17.284C59.598,16.916 59.726,16.636 59.854,16.5C60.03,16.292 60.47,16.164 61.214,16.164C61.958,16.164 62.382,16.22 62.886,16.276L62.886,15.868C62.478,15.796 61.934,15.74 61.278,15.74C60.294,15.74 59.782,15.94 59.526,16.188C59.254,16.452 59.126,16.884 59.126,17.324C59.126,17.652 59.182,18.076 59.366,18.3C59.822,18.884 61.966,19.18 62.414,19.668C62.534,19.804 62.598,20.06 62.598,20.388C62.598,20.788 62.47,21.052 62.326,21.196C62.158,21.356 61.718,21.484 60.894,21.484C60.142,21.484 59.614,21.388 59.142,21.308L59.142,21.724C59.542,21.82 60.142,21.916 60.886,21.916C61.742,21.916 62.342,21.788 62.67,21.508C62.918,21.292 63.086,20.844 63.086,20.364Z" style="fill:white;fill-rule:nonzero;"/>
            <path d="M68.294,15.828L63.558,15.828L63.446,16.252L65.614,16.252L65.614,21.828L66.078,21.828L66.078,16.252L68.198,16.252L68.294,15.828Z" style="fill:white;fill-rule:nonzero;"/>
            <path d="M69.35,15.828L69.35,21.828L69.822,21.828L69.822,19.196L70.654,19.196C71.262,19.196 71.686,19.228 71.846,19.332C72.158,19.524 72.502,20.26 73.19,21.828L73.702,21.828C73.19,20.652 72.758,19.652 72.518,19.356C72.43,19.26 72.198,19.124 72.03,19.044L72.03,19.028C72.358,18.916 72.686,18.732 72.774,18.66C73.014,18.436 73.238,17.956 73.238,17.348C73.238,16.676 73.054,16.308 72.782,16.116C72.526,15.924 72.094,15.828 71.158,15.828L69.35,15.828ZM69.822,16.236L71.126,16.236C71.934,16.236 72.254,16.324 72.446,16.476C72.638,16.62 72.758,16.924 72.758,17.412C72.758,18.06 72.47,18.516 72.11,18.66C71.918,18.732 71.598,18.78 71.086,18.78L69.822,18.78L69.822,16.236Z" style="fill:white;fill-rule:nonzero;"/>
            <path d="M78.982,21.476C78.334,21.476 77.742,21.292 77.438,20.948C77.102,20.564 76.894,19.964 76.894,18.892C76.894,17.812 77.206,16.98 77.558,16.652C77.87,16.364 78.374,16.156 79.15,16.156C79.822,16.156 80.398,16.308 80.718,16.644C81.07,17.012 81.254,17.788 81.254,18.828C81.254,19.884 80.942,20.692 80.582,21.012C80.278,21.284 79.766,21.476 78.982,21.476ZM79.15,15.724C78.27,15.724 77.654,15.972 77.246,16.332C76.774,16.748 76.414,17.684 76.414,18.94C76.414,20.244 76.742,20.9 77.07,21.252C77.446,21.652 78.022,21.916 78.966,21.916C79.91,21.916 80.51,21.692 80.918,21.324C81.374,20.908 81.734,20.036 81.734,18.78C81.734,17.46 81.446,16.708 81.078,16.332C80.726,15.964 80.198,15.724 79.15,15.724Z" style="fill:white;fill-rule:nonzero;"/>
            <path d="M86.926,21.828L86.926,18.892C86.926,18.284 86.798,17.876 86.55,17.644C86.31,17.404 85.966,17.276 85.382,17.276C84.814,17.276 84.238,17.436 84.022,17.556C83.998,17.572 83.814,17.78 83.79,17.812L83.75,17.812L83.622,17.34L83.286,17.34L83.286,21.828L83.75,21.828L83.75,17.988C84.102,17.844 84.606,17.692 85.182,17.692C85.598,17.692 85.95,17.772 86.15,17.964C86.35,18.156 86.462,18.484 86.462,19.052L86.462,21.828L86.926,21.828Z" style="fill:white;fill-rule:nonzero;"/>
            <path d="M88.574,15.348L88.574,20.812C88.574,21.564 88.87,21.876 89.518,21.876C89.822,21.876 90.102,21.828 90.294,21.788L90.294,21.42C90.134,21.444 89.918,21.476 89.654,21.476C89.278,21.476 89.038,21.34 89.038,20.764L89.038,15.348L88.574,15.348Z" style="fill:white;fill-rule:nonzero;"/>
            <path d="M94.878,17.34L94.374,17.34L92.79,21.42L92.582,21.42L91.086,17.34L90.582,17.34L92.262,21.828L92.63,21.828L91.75,24.02L92.238,24.02L94.878,17.34Z" style="fill:white;fill-rule:nonzero;"/>
            <path d="M96.926,18.86C96.926,17.708 96.766,16.82 96.478,16.316C96.262,15.948 95.814,15.548 95.606,15.42L95.134,15.42C95.494,15.7 95.878,16.076 96.086,16.428C96.342,16.852 96.502,17.636 96.502,18.86C96.502,20.076 96.342,20.852 96.094,21.284C95.886,21.644 95.478,22.028 95.142,22.3L95.614,22.3C95.814,22.172 96.254,21.804 96.478,21.412C96.75,20.916 96.926,20.012 96.926,18.86Z" style="fill:white;fill-rule:nonzero;"/>
        </g>
    </g>
</svg>
