<?xml version="1.0" standalone="no"?>
<!DOCTYPE svg PUBLIC "-//W3C//DTD SVG 1.1//EN" "http://www.w3.org/Graphics/SVG/1.1/DTD/svg11.dtd">
<svg width="100%" height="100%" viewBox="0 0 284 86" version="1.1" xmlns="http://www.w3.org/2000/svg" xmlns:xlink="http://www.w3.org/1999/xlink" xml:space="preserve" style="fill-rule:evenodd;clip-rule:evenodd;stroke-linejoin:round;stroke-miterlimit:1.41421;">
    <g id="primary">
        <path d="M82.769,26.988L87.598,31.817L78.582,31.817L73.749,26.988L49.577,2.835L112.057,2.837L134.782,25.561L81.341,25.56L82.769,26.988Z" style="fill:rgb(128,128,128);"/>
        <path d="M147.207,26.988L152.954,32.735L143.938,32.735L138.187,26.988L114.015,2.835L176.495,2.837L199.22,25.561L145.779,25.56L147.207,26.988Z" style="fill:rgb(51,51,51);"/>
        <path d="M211.652,26.988L217.399,32.735L208.383,32.735L202.632,26.988L178.46,2.835L240.94,2.837L263.666,25.561L210.224,25.56L211.652,26.988Z" style="fill:rgb(51,51,51);"/>
        <path d="M215.845,31.181L269.29,31.181L280.63,42.521L269.293,53.858L215.845,53.858L206.829,53.858L212.498,48.189L210.516,48.189L204.847,53.858L151.4,53.858L142.384,53.858L148.053,48.189L146.071,48.189L140.402,53.858L86.962,53.858L72.849,53.858L78.518,48.189L74.6,48.189L74.6,36.85L78.516,36.85L72.847,31.181L140.4,31.181L146.069,36.85L148.05,36.85L142.381,31.181L204.845,31.181L210.514,36.85L212.496,36.85L206.827,31.181L215.845,31.181Z" style="fill:rgb(51,51,51);"/>
        <g>
            <path d="M91.295,47.794L91.295,47.08L94.391,47.08L94.391,37.863L91.295,38.423L91.295,37.709L95.189,37.022L95.189,47.08L97.991,47.08L97.991,47.794L91.295,47.794Z" style="fill:white;fill-rule:nonzero;"/>
            <path d="M113.936,47.794L106.722,47.794L106.722,46.954C106.848,45.413 107.688,44.418 110.154,43.214C111.723,42.43 112.409,42.024 112.774,41.547C113.082,41.113 113.166,40.553 113.166,40.006C113.166,38.563 112.634,37.905 110.351,37.905C109.104,37.905 107.76,38.213 107.143,38.353L107.143,37.624C107.969,37.4 109.258,37.147 110.518,37.147C113.193,37.147 114.034,38.016 114.034,39.907C114.034,40.86 113.824,41.518 113.502,41.924C112.956,42.638 111.877,43.185 110.504,43.857C107.941,45.104 107.535,45.986 107.506,47.037L114.146,47.037L113.936,47.794Z" style="fill:white;fill-rule:nonzero;"/>
            <path d="M128.734,41.841L127.599,42.373L127.599,42.429L128.789,42.849C129.266,43.242 129.643,44.138 129.643,45.048C129.643,47.065 128.495,47.934 125.651,47.934C124.475,47.934 123.438,47.78 122.821,47.64L122.821,46.926C123.466,47.038 124.6,47.206 125.651,47.206C128.256,47.206 128.803,46.352 128.803,45.049C128.803,43.186 127.556,42.836 125.973,42.836L123.97,42.836L123.97,42.107L125.791,42.107C127.164,42.107 128.606,41.757 128.606,39.936C128.606,38.591 128.102,37.891 125.973,37.891C124.852,37.891 123.774,38.115 123.045,38.269L123.045,37.568C123.802,37.372 124.964,37.148 126.113,37.148C128.634,37.148 129.433,38.031 129.433,39.824C129.434,40.804 129,41.588 128.734,41.841Z" style="fill:white;fill-rule:nonzero;"/>
        </g>
        <g>
            <path d="M166.718,47.794L165.947,47.794L165.947,44.811L160.553,44.811L160.553,43.998L165.191,37.288L166.717,37.288L166.717,44.11L169.071,44.11L168.86,44.811L166.716,44.811L166.718,47.794ZM165.948,44.11L165.948,37.975L165.569,37.975L161.465,43.928L161.465,44.11L165.948,44.11Z" style="fill:white;fill-rule:nonzero;"/>
            <path d="M179.903,47.934C178.938,47.934 177.916,47.794 177.186,47.682L177.186,46.939C177.858,47.037 178.895,47.177 179.946,47.177C182.37,47.177 183.211,46.49 183.211,44.754C183.211,42.905 182.623,42.429 180.465,42.429C179.471,42.429 178.126,42.639 177.51,42.723L177.51,37.288L183.73,37.288L183.73,38.002L178.24,38.002L178.24,41.952C178.828,41.854 179.639,41.7 180.719,41.7C183.157,41.7 184.053,42.345 184.053,44.641C184.05,46.855 183.028,47.934 179.903,47.934Z" style="fill:white;fill-rule:nonzero;"/>
            <path d="M193.666,42.667L193.735,42.667L194.182,42.205C194.786,41.981 195.877,41.673 197.153,41.673C199.632,41.673 200.459,42.709 200.459,44.656C200.459,46.687 199.407,47.934 196.705,47.934C193.764,47.934 192.852,46.071 192.852,42.975C192.852,41.028 193.399,39.627 194.225,38.745C195.192,37.736 196.733,37.106 199.436,37.078L199.715,37.821C197.082,37.835 195.652,38.381 194.813,39.278C194.155,39.977 193.721,41.168 193.666,42.667ZM196.886,42.401C195.64,42.401 194.491,42.709 193.665,43.031C193.692,45.931 194.603,47.205 196.745,47.205C198.749,47.205 199.645,46.421 199.645,44.726C199.646,43.102 198.987,42.401 196.886,42.401Z" style="fill:white;fill-rule:nonzero;"/>
        </g>
        <g>
            <path d="M229.528,38.227L229.528,38.031L223.213,38.031L223.437,37.288L230.426,37.288L230.426,38.213L225.411,47.794L224.501,47.794L229.528,38.227Z" style="fill:white;fill-rule:nonzero;"/>
            <path d="M240.167,42.919L241.118,42.4L241.118,42.33L240.278,41.896C239.914,41.532 239.563,41.013 239.563,40.047C239.563,38.352 240.627,37.133 243.092,37.133C245.544,37.133 246.454,38.225 246.454,39.794C246.454,40.789 246.033,41.391 245.641,41.811L244.774,42.33L244.774,42.4L245.837,42.793C246.399,43.241 246.72,43.956 246.72,44.908C246.72,46.645 245.641,47.934 242.882,47.934C240.278,47.934 239.197,46.897 239.197,45.119C239.2,44.222 239.564,43.479 240.167,42.919ZM240.027,45.02C240.027,46.421 240.84,47.219 242.968,47.219C245.139,47.219 245.896,46.197 245.896,44.992C245.896,43.073 244.677,42.919 241.553,42.582C240.782,43.087 240.027,43.774 240.027,45.02ZM240.39,39.977C240.39,41.7 241.484,41.938 244.228,42.19C245.111,41.644 245.615,40.929 245.615,39.893C245.615,38.548 244.859,37.848 243.011,37.848C241.077,37.849 240.39,38.801 240.39,39.977Z" style="fill:white;fill-rule:nonzero;"/>
            <path d="M261.883,42.429L261.814,42.429L261.378,42.891C260.804,43.129 259.726,43.41 258.521,43.41C256.014,43.41 255.131,42.401 255.131,40.468C255.131,38.255 256.519,37.148 258.87,37.148C261.616,37.148 262.694,38.675 262.694,42.009C262.694,44.012 262.149,45.483 261.321,46.351C260.397,47.36 258.815,47.962 256.096,48.018L255.829,47.247C258.421,47.233 259.933,46.715 260.746,45.832C261.379,45.119 261.841,43.942 261.883,42.429ZM258.704,42.681C259.965,42.681 261.1,42.387 261.884,42.093C261.857,39.123 261.002,37.877 258.818,37.877C256.857,37.877 255.945,38.815 255.945,40.413C255.945,41.981 256.644,42.681 258.704,42.681Z" style="fill:white;fill-rule:nonzero;"/>
        </g>
        <g transform="matrix(1,0,0,1,82.3963,2.16146)">
            <path d="M59.256,14.737L56.456,7.237L55.386,7.237L52.386,14.737L52.996,14.737L54.006,12.177L57.666,12.177L58.606,14.737L59.256,14.737ZM57.486,11.657L54.196,11.657L55.736,7.787L56.056,7.787L57.486,11.657Z" style="fill:white;fill-rule:nonzero;"/>
            <path d="M65.126,9.127L64.496,9.127L62.526,14.197L62.286,14.197L60.386,9.127L59.756,9.127L61.886,14.737L62.886,14.737L65.126,9.127Z" style="fill:white;fill-rule:nonzero;"/>
            <path d="M70.416,14.737L70.416,11.257C70.416,10.157 70.256,9.737 70.006,9.467C69.736,9.157 69.246,9.027 68.476,9.027C67.676,9.027 66.846,9.197 66.426,9.307L66.426,9.777C66.806,9.707 67.676,9.547 68.356,9.547C68.986,9.547 69.356,9.647 69.536,9.857C69.726,10.087 69.846,10.487 69.846,11.457C68.056,11.617 66.916,11.827 66.486,12.147C66.266,12.287 66.046,12.667 66.046,13.297C66.046,13.817 66.166,14.167 66.366,14.387C66.596,14.647 67.016,14.837 67.796,14.837C68.766,14.837 69.366,14.587 69.536,14.467C69.586,14.427 69.726,14.237 69.806,14.127L69.856,14.127L69.996,14.737L70.416,14.737ZM69.846,13.957C69.546,14.107 68.836,14.347 67.986,14.347C67.376,14.347 67.016,14.207 66.846,14.027C66.706,13.867 66.616,13.607 66.616,13.247C66.616,12.827 66.716,12.577 66.866,12.447C67.096,12.197 68.546,11.987 69.846,11.907L69.846,13.957Z" style="fill:white;fill-rule:nonzero;"/>
            <path d="M73.106,14.737L73.106,9.127L72.526,9.127L72.526,14.737L73.106,14.737ZM73.196,7.217C73.196,7.087 73.176,6.987 73.106,6.927C73.056,6.877 72.966,6.857 72.846,6.857C72.716,6.857 72.616,6.887 72.586,6.927C72.506,6.967 72.466,7.077 72.466,7.227C72.466,7.357 72.496,7.457 72.546,7.507C72.596,7.567 72.686,7.587 72.826,7.587C72.936,7.587 73.046,7.567 73.106,7.517C73.176,7.467 73.196,7.347 73.196,7.217Z" style="fill:white;fill-rule:nonzero;"/>
            <path d="M75.186,6.637L75.186,13.467C75.186,14.407 75.556,14.797 76.366,14.797C76.746,14.797 77.096,14.737 77.336,14.687L77.336,14.227C77.136,14.257 76.866,14.297 76.536,14.297C76.066,14.297 75.766,14.127 75.766,13.407L75.766,6.637L75.186,6.637Z" style="fill:white;fill-rule:nonzero;"/>
            <path d="M82.536,14.737L82.536,11.257C82.536,10.157 82.376,9.737 82.126,9.467C81.856,9.157 81.366,9.027 80.596,9.027C79.796,9.027 78.966,9.197 78.546,9.307L78.546,9.777C78.926,9.707 79.796,9.547 80.476,9.547C81.106,9.547 81.476,9.647 81.656,9.857C81.846,10.087 81.966,10.487 81.966,11.457C80.176,11.617 79.036,11.827 78.606,12.147C78.386,12.287 78.166,12.667 78.166,13.297C78.166,13.817 78.286,14.167 78.486,14.387C78.716,14.647 79.136,14.837 79.916,14.837C80.886,14.837 81.486,14.587 81.656,14.467C81.706,14.427 81.846,14.237 81.926,14.127L81.976,14.127L82.116,14.737L82.536,14.737ZM81.966,13.957C81.666,14.107 80.956,14.347 80.106,14.347C79.496,14.347 79.136,14.207 78.966,14.027C78.826,13.867 78.736,13.607 78.736,13.247C78.736,12.827 78.836,12.577 78.986,12.447C79.216,12.197 80.666,11.987 81.966,11.907L81.966,13.957Z" style="fill:white;fill-rule:nonzero;"/>
            <path d="M89.466,11.667C89.466,10.517 89.176,9.827 88.776,9.467C88.456,9.187 87.986,9.017 87.206,9.017C86.446,9.017 85.786,9.197 85.626,9.307C85.566,9.337 85.336,9.557 85.256,9.667L85.216,9.667L85.216,6.637L84.636,6.637L84.636,14.737L84.716,14.737L85.006,14.567C85.506,14.687 86.096,14.787 86.786,14.787C87.736,14.787 88.316,14.577 88.696,14.217C89.176,13.757 89.466,12.857 89.466,11.667ZM88.866,11.787C88.866,12.827 88.616,13.527 88.256,13.867C87.956,14.147 87.486,14.297 86.726,14.297C86.156,14.297 85.606,14.217 85.216,14.157L85.216,9.867C85.706,9.647 86.376,9.537 86.986,9.537C87.656,9.537 88.056,9.667 88.316,9.897C88.606,10.157 88.866,10.737 88.866,11.787Z" style="fill:white;fill-rule:nonzero;"/>
            <path d="M91.266,6.637L91.266,13.467C91.266,14.407 91.636,14.797 92.446,14.797C92.826,14.797 93.176,14.737 93.416,14.687L93.416,14.227C93.216,14.257 92.946,14.297 92.616,14.297C92.146,14.297 91.846,14.127 91.846,13.407L91.846,6.637L91.266,6.637Z" style="fill:white;fill-rule:nonzero;"/>
            <path d="M94.236,11.977C94.236,13.887 94.906,14.847 96.776,14.847C97.546,14.847 98.266,14.707 98.666,14.607L98.706,14.127C98.316,14.187 97.656,14.317 96.846,14.317C95.276,14.317 94.836,13.487 94.836,11.957L98.926,11.957L98.926,11.267C98.926,9.827 98.396,9.017 96.796,9.017C95.036,9.017 94.236,10.017 94.236,11.977ZM96.736,9.497C97.946,9.497 98.356,10.067 98.356,11.307L98.356,11.507L94.856,11.507C94.936,10.177 95.446,9.497 96.736,9.497Z" style="fill:white;fill-rule:nonzero;"/>
        </g>
        <g transform="matrix(1,0,0,1,146.834,2.16146)">
            <path d="M59.256,14.737L56.456,7.237L55.386,7.237L52.386,14.737L52.996,14.737L54.006,12.177L57.666,12.177L58.606,14.737L59.256,14.737ZM57.486,11.657L54.196,11.657L55.736,7.787L56.056,7.787L57.486,11.657Z" style="fill:white;fill-rule:nonzero;"/>
            <path d="M65.126,9.127L64.496,9.127L62.526,14.197L62.286,14.197L60.386,9.127L59.756,9.127L61.886,14.737L62.886,14.737L65.126,9.127Z" style="fill:white;fill-rule:nonzero;"/>
            <path d="M70.416,14.737L70.416,11.257C70.416,10.157 70.256,9.737 70.006,9.467C69.736,9.157 69.246,9.027 68.476,9.027C67.676,9.027 66.846,9.197 66.426,9.307L66.426,9.777C66.806,9.707 67.676,9.547 68.356,9.547C68.986,9.547 69.356,9.647 69.536,9.857C69.726,10.087 69.846,10.487 69.846,11.457C68.056,11.617 66.916,11.827 66.486,12.147C66.266,12.287 66.046,12.667 66.046,13.297C66.046,13.817 66.166,14.167 66.366,14.387C66.596,14.647 67.016,14.837 67.796,14.837C68.766,14.837 69.366,14.587 69.536,14.467C69.586,14.427 69.726,14.237 69.806,14.127L69.856,14.127L69.996,14.737L70.416,14.737ZM69.846,13.957C69.546,14.107 68.836,14.347 67.986,14.347C67.376,14.347 67.016,14.207 66.846,14.027C66.706,13.867 66.616,13.607 66.616,13.247C66.616,12.827 66.716,12.577 66.866,12.447C67.096,12.197 68.546,11.987 69.846,11.907L69.846,13.957Z" style="fill:white;fill-rule:nonzero;"/>
            <path d="M73.106,14.737L73.106,9.127L72.526,9.127L72.526,14.737L73.106,14.737ZM73.196,7.217C73.196,7.087 73.176,6.987 73.106,6.927C73.056,6.877 72.966,6.857 72.846,6.857C72.716,6.857 72.616,6.887 72.586,6.927C72.506,6.967 72.466,7.077 72.466,7.227C72.466,7.357 72.496,7.457 72.546,7.507C72.596,7.567 72.686,7.587 72.826,7.587C72.936,7.587 73.046,7.567 73.106,7.517C73.176,7.467 73.196,7.347 73.196,7.217Z" style="fill:white;fill-rule:nonzero;"/>
            <path d="M75.186,6.637L75.186,13.467C75.186,14.407 75.556,14.797 76.366,14.797C76.746,14.797 77.096,14.737 77.336,14.687L77.336,14.227C77.136,14.257 76.866,14.297 76.536,14.297C76.066,14.297 75.766,14.127 75.766,13.407L75.766,6.637L75.186,6.637Z" style="fill:white;fill-rule:nonzero;"/>
            <path d="M82.536,14.737L82.536,11.257C82.536,10.157 82.376,9.737 82.126,9.467C81.856,9.157 81.366,9.027 80.596,9.027C79.796,9.027 78.966,9.197 78.546,9.307L78.546,9.777C78.926,9.707 79.796,9.547 80.476,9.547C81.106,9.547 81.476,9.647 81.656,9.857C81.846,10.087 81.966,10.487 81.966,11.457C80.176,11.617 79.036,11.827 78.606,12.147C78.386,12.287 78.166,12.667 78.166,13.297C78.166,13.817 78.286,14.167 78.486,14.387C78.716,14.647 79.136,14.837 79.916,14.837C80.886,14.837 81.486,14.587 81.656,14.467C81.706,14.427 81.846,14.237 81.926,14.127L81.976,14.127L82.116,14.737L82.536,14.737ZM81.966,13.957C81.666,14.107 80.956,14.347 80.106,14.347C79.496,14.347 79.136,14.207 78.966,14.027C78.826,13.867 78.736,13.607 78.736,13.247C78.736,12.827 78.836,12.577 78.986,12.447C79.216,12.197 80.666,11.987 81.966,11.907L81.966,13.957Z" style="fill:white;fill-rule:nonzero;"/>
            <path d="M89.466,11.667C89.466,10.517 89.176,9.827 88.776,9.467C88.456,9.187 87.986,9.017 87.206,9.017C86.446,9.017 85.786,9.197 85.626,9.307C85.566,9.337 85.336,9.557 85.256,9.667L85.216,9.667L85.216,6.637L84.636,6.637L84.636,14.737L84.716,14.737L85.006,14.567C85.506,14.687 86.096,14.787 86.786,14.787C87.736,14.787 88.316,14.577 88.696,14.217C89.176,13.757 89.466,12.857 89.466,11.667ZM88.866,11.787C88.866,12.827 88.616,13.527 88.256,13.867C87.956,14.147 87.486,14.297 86.726,14.297C86.156,14.297 85.606,14.217 85.216,14.157L85.216,9.867C85.706,9.647 86.376,9.537 86.986,9.537C87.656,9.537 88.056,9.667 88.316,9.897C88.606,10.157 88.866,10.737 88.866,11.787Z" style="fill:white;fill-rule:nonzero;"/>
            <path d="M91.266,6.637L91.266,13.467C91.266,14.407 91.636,14.797 92.446,14.797C92.826,14.797 93.176,14.737 93.416,14.687L93.416,14.227C93.216,14.257 92.946,14.297 92.616,14.297C92.146,14.297 91.846,14.127 91.846,13.407L91.846,6.637L91.266,6.637Z" style="fill:white;fill-rule:nonzero;"/>
            <path d="M94.236,11.977C94.236,13.887 94.906,14.847 96.776,14.847C97.546,14.847 98.266,14.707 98.666,14.607L98.706,14.127C98.316,14.187 97.656,14.317 96.846,14.317C95.276,14.317 94.836,13.487 94.836,11.957L98.926,11.957L98.926,11.267C98.926,9.827 98.396,9.017 96.796,9.017C95.036,9.017 94.236,10.017 94.236,11.977ZM96.736,9.497C97.946,9.497 98.356,10.067 98.356,11.307L98.356,11.507L94.856,11.507C94.936,10.177 95.446,9.497 96.736,9.497Z" style="fill:white;fill-rule:nonzero;"/>
        </g>
        <path d="M240.94,82.202L49.577,82.204L72.321,59.478L263.666,59.478L240.94,82.202Z" style="fill:rgb(55,124,33);"/>
        <g transform="matrix(1,0,0,1,47.7587,0)">
            <path d="M44.311,68.432L44.311,74.432L44.783,74.432L44.783,71.8L45.615,71.8C46.223,71.8 46.647,71.832 46.807,71.936C47.119,72.128 47.463,72.864 48.151,74.432L48.663,74.432C48.151,73.256 47.719,72.256 47.479,71.96C47.391,71.864 47.159,71.728 46.991,71.648L46.991,71.632C47.319,71.52 47.647,71.336 47.735,71.264C47.975,71.04 48.199,70.56 48.199,69.952C48.199,69.28 48.015,68.912 47.743,68.72C47.487,68.528 47.055,68.432 46.119,68.432L44.311,68.432ZM44.783,68.84L46.087,68.84C46.895,68.84 47.215,68.928 47.407,69.08C47.599,69.224 47.719,69.528 47.719,70.016C47.719,70.664 47.431,71.12 47.071,71.264C46.879,71.336 46.559,71.384 46.047,71.384L44.783,71.384L44.783,68.84Z" style="fill:white;fill-rule:nonzero;"/>
            <path d="M49.495,72.224C49.495,73.752 50.031,74.52 51.527,74.52C52.143,74.52 52.719,74.408 53.039,74.328L53.071,73.944C52.759,73.992 52.231,74.096 51.583,74.096C50.327,74.096 49.975,73.432 49.975,72.208L53.247,72.208L53.247,71.656C53.247,70.504 52.823,69.856 51.543,69.856C50.135,69.856 49.495,70.656 49.495,72.224ZM51.495,70.24C52.463,70.24 52.791,70.696 52.791,71.688L52.791,71.848L49.991,71.848C50.055,70.784 50.463,70.24 51.495,70.24Z" style="fill:white;fill-rule:nonzero;"/>
            <path d="M54.407,72.336C54.407,73.256 54.655,73.84 54.983,74.128C55.239,74.352 55.647,74.488 56.263,74.488C56.879,74.488 57.359,74.36 57.503,74.272C57.551,74.248 57.719,74.08 57.783,73.984L57.815,73.984L57.815,76.552L58.279,76.552L58.279,69.896L58.215,69.896L57.975,70.032C57.583,69.936 57.143,69.848 56.607,69.848C55.815,69.848 55.319,70.032 55.031,70.312C54.639,70.696 54.407,71.384 54.407,72.336ZM54.887,72.272C54.887,71.44 55.079,70.872 55.367,70.6C55.615,70.36 55.999,70.248 56.599,70.248C57.055,70.248 57.479,70.304 57.815,70.36L57.815,73.824C57.415,74 56.855,74.072 56.423,74.072C55.879,74.072 55.535,73.976 55.335,73.784C55.103,73.568 54.887,73.08 54.887,72.272Z" style="fill:white;fill-rule:nonzero;"/>
            <path d="M63.599,74.432L63.599,69.944L63.135,69.944L63.135,73.776C62.775,73.936 62.255,74.072 61.735,74.072C61.247,74.072 60.911,73.992 60.719,73.792C60.535,73.6 60.423,73.288 60.423,72.68L60.423,69.944L59.959,69.944L59.959,72.856C59.959,73.472 60.095,73.848 60.327,74.096C60.575,74.352 60.911,74.488 61.559,74.488C62.119,74.488 62.647,74.352 62.871,74.24C62.887,74.232 63.079,73.984 63.095,73.952L63.143,73.952L63.263,74.432L63.599,74.432Z" style="fill:white;fill-rule:nonzero;"/>
            <path d="M65.751,74.432L65.751,69.944L65.287,69.944L65.287,74.432L65.751,74.432ZM65.823,68.416C65.823,68.312 65.807,68.232 65.751,68.184C65.711,68.144 65.639,68.128 65.543,68.128C65.439,68.128 65.359,68.152 65.335,68.184C65.271,68.216 65.239,68.304 65.239,68.424C65.239,68.528 65.263,68.608 65.303,68.648C65.343,68.696 65.415,68.712 65.527,68.712C65.615,68.712 65.703,68.696 65.751,68.656C65.807,68.616 65.823,68.52 65.823,68.416Z" style="fill:white;fill-rule:nonzero;"/>
            <path d="M67.439,69.944L67.439,74.432L67.903,74.432L67.903,70.656C68.175,70.48 68.687,70.296 69.231,70.304C69.503,70.304 69.735,70.336 69.871,70.36L69.871,69.912C69.751,69.896 69.583,69.88 69.359,69.88C68.799,69.88 68.391,70.032 68.175,70.16C68.159,70.176 67.967,70.408 67.943,70.44L67.895,70.44L67.783,69.944L67.439,69.944Z" style="fill:white;fill-rule:nonzero;"/>
            <path d="M70.423,72.224C70.423,73.752 70.959,74.52 72.455,74.52C73.071,74.52 73.647,74.408 73.967,74.328L73.999,73.944C73.687,73.992 73.159,74.096 72.511,74.096C71.255,74.096 70.903,73.432 70.903,72.208L74.175,72.208L74.175,71.656C74.175,70.504 73.751,69.856 72.471,69.856C71.063,69.856 70.423,70.656 70.423,72.224ZM72.423,70.24C73.391,70.24 73.719,70.696 73.719,71.688L73.719,71.848L70.919,71.848C70.983,70.784 71.391,70.24 72.423,70.24Z" style="fill:white;fill-rule:nonzero;"/>
            <path d="M78.271,73.2C78.271,72.896 78.199,72.64 78.039,72.456C77.871,72.264 77.527,72.128 76.871,71.976C76.263,71.84 75.983,71.728 75.847,71.568C75.743,71.448 75.711,71.28 75.711,71.112C75.711,70.544 75.983,70.224 76.927,70.224C77.399,70.224 77.775,70.272 78.119,70.328L78.119,69.944C77.847,69.888 77.415,69.824 76.919,69.824C75.727,69.824 75.255,70.312 75.255,71.136C75.255,71.392 75.311,71.656 75.455,71.824C75.679,72.104 76.055,72.224 76.687,72.376C77.231,72.504 77.535,72.608 77.679,72.768C77.775,72.896 77.815,73.064 77.815,73.232C77.815,73.8 77.559,74.088 76.551,74.088C76.063,74.088 75.567,74.016 75.239,73.952L75.239,74.344C75.559,74.424 76.103,74.488 76.551,74.488C77.911,74.488 78.271,73.992 78.271,73.2Z" style="fill:white;fill-rule:nonzero;"/>
            <path d="M79.935,70.144C79.935,70.032 79.919,69.944 79.863,69.896C79.823,69.864 79.735,69.84 79.631,69.84C79.519,69.84 79.439,69.872 79.399,69.896C79.327,69.928 79.303,70.024 79.303,70.144C79.303,70.264 79.327,70.344 79.367,70.392C79.415,70.44 79.495,70.456 79.623,70.456C79.711,70.456 79.815,70.44 79.863,70.4C79.919,70.352 79.935,70.248 79.935,70.144ZM79.935,74.152C79.935,74.048 79.919,73.952 79.863,73.912C79.823,73.872 79.735,73.848 79.631,73.848C79.519,73.848 79.439,73.88 79.399,73.904C79.327,73.936 79.303,74.04 79.303,74.16C79.303,74.272 79.327,74.352 79.367,74.408C79.415,74.448 79.495,74.472 79.623,74.472C79.711,74.472 79.815,74.456 79.863,74.416C79.919,74.36 79.935,74.264 79.935,74.152Z" style="fill:white;fill-rule:nonzero;"/>
        </g>
        <path id="primary1" d="M2.837,42.52L42.521,82.204L82.205,42.521L42.52,2.836L2.837,42.52Z" style="fill:rgb(55,124,33);"/>
        <rect x="24.028" y="31.718" width="1.416" height="18.002" style="fill:white;"/>
        <path d="M43.037,49.72L32.692,33.063L32.26,33.063L32.26,49.72L30.94,49.72L30.94,31.718L33.436,31.718L43.685,48.231L44.141,48.231L44.141,31.718L45.461,31.718L45.461,49.72L43.037,49.72Z" style="fill:white;fill-rule:nonzero;"/>
        <path d="M62.981,32.99L56.62,32.99L56.62,49.72L55.228,49.72L55.228,32.99L48.724,32.99L49.06,31.718L63.269,31.718L62.981,32.99Z" style="fill:white;fill-rule:nonzero;"/>
        <g transform="matrix(1,0,0,1,-49.2319,50.8824)">
            <path d="M187.543,22.925L183.353,22.925L183.353,19.885L186.623,19.885L186.753,19.365L183.353,19.365L183.353,16.485L187.213,16.485L187.353,15.955L182.773,15.955L182.773,23.455L187.373,23.455L187.543,22.925Z" style="fill:white;fill-rule:nonzero;"/>
            <path d="M197.203,23.455L197.203,19.785C197.203,19.015 197.073,18.505 196.753,18.205C196.453,17.915 196.033,17.765 195.373,17.765C194.643,17.765 194.003,17.985 193.683,18.165L193.373,18.555L193.323,18.555C193.273,18.465 193.203,18.345 193.073,18.225C192.763,17.925 192.303,17.765 191.583,17.765C190.853,17.765 190.233,17.965 189.973,18.105L189.673,18.435L189.623,18.435L189.473,17.845L189.043,17.845L189.043,23.455L189.623,23.455L189.623,18.665C190.043,18.495 190.623,18.285 191.353,18.285C191.813,18.285 192.283,18.375 192.523,18.605C192.753,18.825 192.833,19.125 192.833,19.615L192.833,23.455L193.413,23.455L193.413,18.735C193.813,18.525 194.403,18.285 195.123,18.285C195.593,18.285 196.013,18.395 196.253,18.625C196.493,18.855 196.623,19.245 196.623,19.985L196.623,23.455L197.203,23.455Z" style="fill:white;fill-rule:nonzero;"/>
            <path d="M204.123,20.385C204.123,19.235 203.833,18.545 203.433,18.185C203.113,17.905 202.643,17.735 201.863,17.735C201.103,17.735 200.443,17.915 200.283,18.025C200.223,18.055 199.993,18.275 199.913,18.385L199.873,18.385L199.873,15.355L199.293,15.355L199.293,23.455L199.373,23.455L199.663,23.285C200.163,23.405 200.753,23.505 201.443,23.505C202.393,23.505 202.973,23.295 203.353,22.935C203.833,22.475 204.123,21.575 204.123,20.385ZM203.523,20.505C203.523,21.545 203.273,22.245 202.913,22.585C202.613,22.865 202.143,23.015 201.383,23.015C200.813,23.015 200.263,22.935 199.873,22.875L199.873,18.585C200.363,18.365 201.033,18.255 201.643,18.255C202.313,18.255 202.713,18.385 202.973,18.615C203.263,18.875 203.523,19.455 203.523,20.505Z" style="fill:white;fill-rule:nonzero;"/>
            <path d="M205.673,20.695C205.673,22.605 206.343,23.565 208.213,23.565C208.983,23.565 209.703,23.425 210.103,23.325L210.143,22.845C209.753,22.905 209.093,23.035 208.283,23.035C206.713,23.035 206.273,22.205 206.273,20.675L210.363,20.675L210.363,19.985C210.363,18.545 209.833,17.735 208.233,17.735C206.473,17.735 205.673,18.735 205.673,20.695ZM208.173,18.215C209.383,18.215 209.793,18.785 209.793,20.025L209.793,20.225L206.293,20.225C206.373,18.895 206.883,18.215 208.173,18.215Z" style="fill:white;fill-rule:nonzero;"/>
            <path d="M216.003,17.955C215.533,17.835 215.073,17.745 214.403,17.745C213.553,17.745 212.983,17.945 212.583,18.335C212.093,18.795 211.813,19.685 211.813,20.815C211.813,22.095 212.133,22.795 212.523,23.125C212.873,23.415 213.383,23.575 214.173,23.575C214.943,23.575 215.453,23.405 215.623,23.295C215.683,23.255 215.873,23.035 215.973,22.925L216.003,22.925L216.143,23.455L216.593,23.455L216.593,15.305L216.003,15.305L216.003,17.955ZM212.413,20.775C212.413,19.695 212.663,19.005 213.003,18.685C213.323,18.385 213.783,18.245 214.483,18.245C215.103,18.245 215.623,18.345 216.003,18.395L216.003,22.725C215.503,22.965 214.893,23.065 214.333,23.065C213.743,23.065 213.243,22.935 212.983,22.705C212.673,22.435 212.413,21.875 212.413,20.775Z" style="fill:white;fill-rule:nonzero;"/>
            <path d="M221.603,23.455L221.603,20.115L224.863,20.115L224.983,19.595L221.603,19.595L221.603,16.485L225.453,16.485L225.583,15.955L221.013,15.955L221.013,23.455L221.603,23.455Z" style="fill:white;fill-rule:nonzero;"/>
            <path d="M231.283,23.455L231.283,17.845L230.703,17.845L230.703,22.635C230.253,22.835 229.603,23.005 228.953,23.005C228.343,23.005 227.923,22.905 227.683,22.655C227.453,22.415 227.313,22.025 227.313,21.265L227.313,17.845L226.733,17.845L226.733,21.485C226.733,22.255 226.903,22.725 227.193,23.035C227.503,23.355 227.923,23.525 228.733,23.525C229.433,23.525 230.093,23.355 230.373,23.215C230.393,23.205 230.633,22.895 230.653,22.855L230.713,22.855L230.863,23.455L231.283,23.455Z" style="fill:white;fill-rule:nonzero;"/>
            <path d="M237.943,23.455L237.943,19.785C237.943,19.025 237.783,18.515 237.473,18.225C237.173,17.925 236.743,17.765 236.013,17.765C235.303,17.765 234.583,17.965 234.313,18.115C234.283,18.135 234.053,18.395 234.023,18.435L233.973,18.435L233.813,17.845L233.393,17.845L233.393,23.455L233.973,23.455L233.973,18.655C234.413,18.475 235.043,18.285 235.763,18.285C236.283,18.285 236.723,18.385 236.973,18.625C237.223,18.865 237.363,19.275 237.363,19.985L237.363,23.455L237.943,23.455Z" style="fill:white;fill-rule:nonzero;"/>
            <path d="M242.493,18.225C243.153,18.225 243.673,18.305 244.023,18.355L244.023,17.855C243.653,17.785 243.103,17.695 242.433,17.695C241.593,17.695 240.963,17.895 240.533,18.315C240.003,18.805 239.733,19.665 239.733,20.785C239.733,21.765 239.963,22.545 240.483,23.025C240.873,23.395 241.473,23.575 242.263,23.575C243.053,23.575 243.633,23.435 244.023,23.325L244.023,22.875C243.633,22.935 243.063,23.045 242.353,23.045C241.743,23.045 241.253,22.925 240.923,22.615C240.533,22.255 240.343,21.635 240.343,20.715C240.343,19.755 240.553,19.045 240.963,18.665C241.283,18.355 241.813,18.225 242.493,18.225Z" style="fill:white;fill-rule:nonzero;"/>
            <path d="M248.743,17.845L246.643,17.845L246.643,16.525L246.063,16.675L246.063,17.845L244.983,17.845L244.903,18.335L246.063,18.335L246.063,22.185C246.063,23.155 246.473,23.515 247.473,23.515C247.903,23.515 248.373,23.445 248.673,23.385L248.723,22.895C248.503,22.925 248.083,22.995 247.623,22.995C246.993,22.995 246.643,22.835 246.643,22.075L246.643,18.335L248.633,18.335L248.743,17.845Z" style="fill:white;fill-rule:nonzero;"/>
            <path d="M250.823,23.455L250.823,17.845L250.243,17.845L250.243,23.455L250.823,23.455ZM250.913,15.935C250.913,15.805 250.893,15.705 250.823,15.645C250.773,15.595 250.683,15.575 250.563,15.575C250.433,15.575 250.333,15.605 250.303,15.645C250.223,15.685 250.183,15.795 250.183,15.945C250.183,16.075 250.213,16.175 250.263,16.225C250.313,16.285 250.403,16.305 250.543,16.305C250.653,16.305 250.763,16.285 250.823,16.235C250.893,16.185 250.913,16.065 250.913,15.935Z" style="fill:white;fill-rule:nonzero;"/>
            <path d="M257.813,20.525C257.813,19.365 257.563,18.715 257.153,18.285C256.803,17.935 256.213,17.695 255.363,17.695C254.473,17.695 253.853,17.955 253.453,18.335C252.943,18.815 252.653,19.695 252.653,20.785C252.653,21.865 252.943,22.525 253.263,22.895C253.633,23.315 254.223,23.575 255.153,23.575C256.143,23.575 256.713,23.305 257.103,22.905C257.533,22.455 257.813,21.625 257.813,20.525ZM255.213,23.075C254.403,23.075 253.973,22.825 253.703,22.515C253.423,22.195 253.233,21.555 253.233,20.715C253.233,19.695 253.543,18.985 253.883,18.675C254.143,18.435 254.603,18.215 255.293,18.215C255.993,18.215 256.423,18.395 256.703,18.685C257.003,18.995 257.223,19.475 257.223,20.625C257.223,21.625 256.973,22.245 256.623,22.605C256.333,22.895 255.833,23.075 255.213,23.075Z" style="fill:white;fill-rule:nonzero;"/>
            <path d="M264.193,23.455L264.193,19.785C264.193,19.025 264.033,18.515 263.723,18.225C263.423,17.925 262.993,17.765 262.263,17.765C261.553,17.765 260.833,17.965 260.563,18.115C260.533,18.135 260.303,18.395 260.273,18.435L260.223,18.435L260.063,17.845L259.643,17.845L259.643,23.455L260.223,23.455L260.223,18.655C260.663,18.475 261.293,18.285 262.013,18.285C262.533,18.285 262.973,18.385 263.223,18.625C263.473,18.865 263.613,19.275 263.613,19.985L263.613,23.455L264.193,23.455Z" style="fill:white;fill-rule:nonzero;"/>
        </g>
    </g>
</svg>
