<?xml version="1.0" standalone="no"?>
<!DOCTYPE svg PUBLIC "-//W3C//DTD SVG 1.1//EN" "http://www.w3.org/Graphics/SVG/1.1/DTD/svg11.dtd">
<svg width="100%" height="100%" viewBox="0 0 260 86" version="1.1" xmlns="http://www.w3.org/2000/svg" xmlns:xlink="http://www.w3.org/1999/xlink" xml:space="preserve" style="fill-rule:evenodd;clip-rule:evenodd;stroke-linejoin:round;stroke-miterlimit:1.41421;">
    <g transform="matrix(1,0,0,1,51.0962,0.4805)">
        <path d="M91.943,53.858L87.75,58.051L86.322,59.479L152.764,59.478L186.291,59.478L163.565,82.202L54.558,82.204L82.922,53.858L73.486,53.858L81.781,45.564L77.206,45.564L77.206,39.475L81.779,39.475L73.484,31.181L82.92,31.181L80.03,28.293L54.558,2.835L163.565,2.837L186.291,25.561L152.764,25.561L86.322,25.56L91.943,31.181L191.915,31.181L203.255,42.521L191.918,53.858L91.943,53.858Z" style="fill:rgb(51,51,51);"/>
    </g>
    <g id="primary">
        <g transform="matrix(1,0,0,1,2.81204,0.482)">
            <path d="M2.837,42.52L42.521,82.2L82.205,42.521L42.52,2.836L2.837,42.52Z" style="fill:rgb(55,124,33);"/>
        </g>
        <g transform="matrix(0.425962,0,0,0.425962,33.9551,24.889)">
            <path d="M90.317,82.2L130,42.522L90.314,2.836L189.261,2.836L228.946,42.521L189.262,82.2L90.317,82.2Z" style="fill:rgb(55,124,33);"/>
        </g>
        <g transform="matrix(1,0,0,1,2.87495,0)">
            <g transform="matrix(0.251991,0,-3.85186e-34,0.251991,131.715,32.2854)">
                <path d="M2.837,42.52L42.521,82.204L82.205,42.521L42.52,2.836L2.837,42.52Z" style="fill:black;"/>
            </g>
            <g transform="matrix(0.0793742,0,-1.21329e-34,0.0793742,135.63,43.0501)">
                <path d="M2.837,42.52L42.521,82.204L82.205,42.521L42.52,2.836L2.837,42.52Z" style="fill:rgb(55,124,33);"/>
            </g>
        </g>
        <g transform="matrix(1,0,0,1,2.26402,0.713296)">
            <g transform="matrix(0.251991,0,-3.85186e-34,0.251991,116.896,3.11354)">
                <path d="M2.837,42.52L42.521,82.204L82.205,42.521L42.52,2.836L2.837,42.52Z" style="fill:black;"/>
            </g>
            <g transform="matrix(0.0793742,0,-1.21329e-34,0.0793742,120.811,13.8783)">
                <path d="M2.837,42.52L42.521,82.204L82.205,42.521L42.52,2.836L2.837,42.52Z" style="fill:rgb(55,124,33);"/>
            </g>
        </g>
        <g transform="matrix(1,0,0,1,2.26402,0.75384)">
            <g transform="matrix(0.251991,0,-3.85186e-34,0.251991,116.896,59.7854)">
                <path d="M2.837,42.52L42.521,82.204L82.205,42.521L42.52,2.836L2.837,42.52Z" style="fill:black;"/>
            </g>
            <g transform="matrix(0.0793742,0,-1.21329e-34,0.0793742,120.811,70.643)">
                <path d="M2.837,42.52L42.521,82.204L82.205,42.521L42.52,2.836L2.837,42.52Z" style="fill:rgb(55,124,33);"/>
            </g>
        </g>
        <g transform="matrix(1,0,0,1,4.31554,0)">
            <rect x="24.028" y="31.718" width="1.416" height="18.002" style="fill:white;"/>
            <path d="M43.037,49.72L32.692,33.063L32.26,33.063L32.26,49.72L30.94,49.72L30.94,31.718L33.436,31.718L43.685,48.231L44.141,48.231L44.141,31.718L45.461,31.718L45.461,49.72L43.037,49.72Z" style="fill:white;fill-rule:nonzero;"/>
            <path d="M62.981,32.99L56.62,32.99L56.62,49.72L55.228,49.72L55.228,32.99L48.724,32.99L49.06,31.718L63.269,31.718L62.981,32.99Z" style="fill:white;fill-rule:nonzero;"/>
        </g>
        <g transform="matrix(1,0,0,1,3.82271,0)">
            <g transform="matrix(1,0,0,1,11.0175,-26.8795)">
                <path d="M82.182,69.122L80.082,63.497L79.28,63.497L77.03,69.122L77.487,69.122L78.245,67.202L80.99,67.202L81.695,69.122L82.182,69.122ZM80.855,66.812L78.387,66.812L79.542,63.91L79.782,63.91L80.855,66.812Z" style="fill:white;fill-rule:nonzero;"/>
            </g>
            <g transform="matrix(1,0,0,1,11.0175,-26.8795)">
                <path d="M86.675,69.122L86.675,66.37C86.675,65.8 86.555,65.417 86.322,65.2C86.097,64.975 85.775,64.855 85.227,64.855C84.695,64.855 84.155,65.005 83.952,65.117C83.93,65.132 83.757,65.327 83.735,65.357L83.697,65.357L83.577,64.915L83.262,64.915L83.262,69.122L83.697,69.122L83.697,65.522C84.027,65.387 84.5,65.245 85.04,65.245C85.43,65.245 85.76,65.32 85.947,65.5C86.135,65.68 86.24,65.987 86.24,66.52L86.24,69.122L86.675,69.122Z" style="fill:white;fill-rule:nonzero;"/>
            </g>
            <g transform="matrix(1,0,0,1,11.0175,-26.8795)">
                <path d="M91.242,69.122L91.242,66.512C91.242,65.687 91.122,65.372 90.935,65.17C90.732,64.937 90.365,64.84 89.787,64.84C89.187,64.84 88.565,64.967 88.25,65.05L88.25,65.402C88.535,65.35 89.187,65.23 89.697,65.23C90.17,65.23 90.447,65.305 90.582,65.462C90.725,65.635 90.815,65.935 90.815,66.662C89.472,66.782 88.617,66.94 88.295,67.18C88.13,67.285 87.965,67.57 87.965,68.042C87.965,68.432 88.055,68.695 88.205,68.86C88.377,69.055 88.692,69.197 89.277,69.197C90.005,69.197 90.455,69.01 90.582,68.92C90.62,68.89 90.725,68.747 90.785,68.665L90.822,68.665L90.927,69.122L91.242,69.122ZM90.815,68.537C90.59,68.65 90.057,68.83 89.42,68.83C88.962,68.83 88.692,68.725 88.565,68.59C88.46,68.47 88.392,68.275 88.392,68.005C88.392,67.69 88.467,67.502 88.58,67.405C88.752,67.217 89.84,67.06 90.815,67L90.815,68.537Z" style="fill:white;fill-rule:nonzero;"/>
            </g>
            <g transform="matrix(1,0,0,1,11.0175,-26.8795)">
                <path d="M92.802,63.047L92.802,68.17C92.802,68.875 93.08,69.167 93.687,69.167C93.972,69.167 94.235,69.122 94.415,69.085L94.415,68.74C94.265,68.762 94.062,68.792 93.815,68.792C93.462,68.792 93.237,68.665 93.237,68.125L93.237,63.047L92.802,63.047Z" style="fill:white;fill-rule:nonzero;"/>
            </g>
            <g transform="matrix(1,0,0,1,11.0175,-26.8795)">
                <path d="M98.712,64.915L98.24,64.915L96.755,68.74L96.56,68.74L95.157,64.915L94.685,64.915L96.26,69.122L96.605,69.122L95.78,71.177L96.237,71.177L98.712,64.915Z" style="fill:white;fill-rule:nonzero;"/>
            </g>
            <g transform="matrix(1,0,0,1,11.0175,-26.8795)">
                <path d="M102.627,64.915L99.507,64.915L99.41,65.297L102.147,65.297L102.147,65.387L99.275,68.612L99.275,69.122L102.62,69.122L102.74,68.74L99.785,68.74L99.785,68.642L102.627,65.447L102.627,64.915Z" style="fill:white;fill-rule:nonzero;"/>
            </g>
            <g transform="matrix(1,0,0,1,11.0175,-26.8795)">
                <path d="M103.572,67.052C103.572,68.485 104.075,69.205 105.477,69.205C106.055,69.205 106.595,69.1 106.895,69.025L106.925,68.665C106.632,68.71 106.137,68.807 105.53,68.807C104.352,68.807 104.022,68.185 104.022,67.037L107.09,67.037L107.09,66.52C107.09,65.44 106.692,64.832 105.492,64.832C104.172,64.832 103.572,65.582 103.572,67.052ZM105.447,65.192C106.355,65.192 106.662,65.62 106.662,66.55L106.662,66.7L104.037,66.7C104.097,65.702 104.48,65.192 105.447,65.192Z" style="fill:white;fill-rule:nonzero;"/>
            </g>
            <g transform="matrix(1,0,0,1,11.0175,-26.8795)">
                <path d="M81.035,71.065C80.645,70.997 80.21,70.922 79.535,70.922C78.56,70.922 78.027,71.147 77.66,71.462C77.315,71.74 76.827,72.46 76.827,73.9C76.827,75.107 77.127,75.797 77.472,76.135C77.862,76.502 78.342,76.697 79.302,76.697C79.947,76.697 80.577,76.592 81.035,76.472L81.035,76.097C80.637,76.172 80.03,76.285 79.385,76.285C78.597,76.285 78.117,76.127 77.825,75.835C77.472,75.482 77.285,74.777 77.285,73.832C77.285,72.767 77.63,72.025 77.975,71.747C78.282,71.507 78.732,71.335 79.542,71.335C80.255,71.335 80.645,71.402 81.035,71.447L81.035,71.065Z" style="fill:white;fill-rule:nonzero;"/>
            </g>
            <g transform="matrix(1,0,0,1,11.0175,-26.8795)">
                <path d="M85.31,76.622L85.31,74.012C85.31,73.187 85.19,72.872 85.002,72.67C84.8,72.437 84.432,72.34 83.855,72.34C83.255,72.34 82.632,72.467 82.317,72.55L82.317,72.902C82.602,72.85 83.255,72.73 83.765,72.73C84.237,72.73 84.515,72.805 84.65,72.962C84.792,73.135 84.882,73.435 84.882,74.162C83.54,74.282 82.685,74.44 82.362,74.68C82.197,74.785 82.032,75.07 82.032,75.542C82.032,75.932 82.122,76.195 82.272,76.36C82.445,76.555 82.76,76.697 83.345,76.697C84.072,76.697 84.522,76.51 84.65,76.42C84.687,76.39 84.792,76.247 84.852,76.165L84.89,76.165L84.995,76.622L85.31,76.622ZM84.882,76.037C84.657,76.15 84.125,76.33 83.487,76.33C83.03,76.33 82.76,76.225 82.632,76.09C82.527,75.97 82.46,75.775 82.46,75.505C82.46,75.19 82.535,75.002 82.647,74.905C82.82,74.717 83.907,74.56 84.882,74.5L84.882,76.037Z" style="fill:white;fill-rule:nonzero;"/>
            </g>
            <g transform="matrix(1,0,0,1,11.0175,-26.8795)">
                <path d="M89.427,75.467C89.427,75.182 89.36,74.942 89.21,74.77C89.052,74.59 88.73,74.462 88.115,74.32C87.545,74.192 87.282,74.087 87.155,73.937C87.057,73.825 87.027,73.667 87.027,73.51C87.027,72.977 87.282,72.677 88.167,72.677C88.61,72.677 88.962,72.722 89.285,72.775L89.285,72.415C89.03,72.362 88.625,72.302 88.16,72.302C87.042,72.302 86.6,72.76 86.6,73.532C86.6,73.772 86.652,74.02 86.787,74.177C86.997,74.44 87.35,74.552 87.942,74.695C88.452,74.815 88.737,74.912 88.872,75.062C88.962,75.182 89,75.34 89,75.497C89,76.03 88.76,76.3 87.815,76.3C87.357,76.3 86.892,76.232 86.585,76.172L86.585,76.54C86.885,76.615 87.395,76.675 87.815,76.675C89.09,76.675 89.427,76.21 89.427,75.467Z" style="fill:white;fill-rule:nonzero;"/>
            </g>
            <g transform="matrix(1,0,0,1,11.0175,-26.8795)">
                <path d="M92.472,72.7C92.967,72.7 93.357,72.76 93.62,72.797L93.62,72.422C93.342,72.37 92.93,72.302 92.427,72.302C91.797,72.302 91.325,72.452 91.002,72.767C90.605,73.135 90.402,73.78 90.402,74.62C90.402,75.355 90.575,75.94 90.965,76.3C91.257,76.577 91.707,76.712 92.3,76.712C92.892,76.712 93.327,76.607 93.62,76.525L93.62,76.187C93.327,76.232 92.9,76.315 92.367,76.315C91.91,76.315 91.542,76.225 91.295,75.992C91.002,75.722 90.86,75.257 90.86,74.567C90.86,73.847 91.017,73.315 91.325,73.03C91.565,72.797 91.962,72.7 92.472,72.7Z" style="fill:white;fill-rule:nonzero;"/>
            </g>
            <g transform="matrix(1,0,0,1,11.0175,-26.8795)">
                <path d="M97.842,76.622L97.842,74.012C97.842,73.187 97.722,72.872 97.535,72.67C97.332,72.437 96.965,72.34 96.387,72.34C95.787,72.34 95.165,72.467 94.85,72.55L94.85,72.902C95.135,72.85 95.787,72.73 96.297,72.73C96.77,72.73 97.047,72.805 97.182,72.962C97.325,73.135 97.415,73.435 97.415,74.162C96.072,74.282 95.217,74.44 94.895,74.68C94.73,74.785 94.565,75.07 94.565,75.542C94.565,75.932 94.655,76.195 94.805,76.36C94.977,76.555 95.292,76.697 95.877,76.697C96.605,76.697 97.055,76.51 97.182,76.42C97.22,76.39 97.325,76.247 97.385,76.165L97.422,76.165L97.527,76.622L97.842,76.622ZM97.415,76.037C97.19,76.15 96.657,76.33 96.02,76.33C95.562,76.33 95.292,76.225 95.165,76.09C95.06,75.97 94.992,75.775 94.992,75.505C94.992,75.19 95.067,75.002 95.18,74.905C95.352,74.717 96.44,74.56 97.415,74.5L97.415,76.037Z" style="fill:white;fill-rule:nonzero;"/>
            </g>
            <g transform="matrix(1,0,0,1,11.0175,-26.8795)">
                <path d="M102.35,72.497C101.997,72.407 101.652,72.34 101.15,72.34C100.512,72.34 100.085,72.49 99.785,72.782C99.417,73.127 99.207,73.795 99.207,74.642C99.207,75.602 99.447,76.127 99.74,76.375C100.002,76.592 100.385,76.712 100.977,76.712C101.555,76.712 101.937,76.585 102.065,76.502C102.11,76.472 102.252,76.307 102.327,76.225L102.35,76.225L102.455,76.622L102.792,76.622L102.792,70.51L102.35,70.51L102.35,72.497ZM99.657,74.612C99.657,73.802 99.845,73.285 100.1,73.045C100.34,72.82 100.685,72.715 101.21,72.715C101.675,72.715 102.065,72.79 102.35,72.827L102.35,76.075C101.975,76.255 101.517,76.33 101.097,76.33C100.655,76.33 100.28,76.232 100.085,76.06C99.852,75.857 99.657,75.437 99.657,74.612Z" style="fill:white;fill-rule:nonzero;"/>
            </g>
            <g transform="matrix(1,0,0,1,11.0175,-26.8795)">
                <path d="M104.165,74.552C104.165,75.985 104.667,76.705 106.07,76.705C106.647,76.705 107.187,76.6 107.487,76.525L107.517,76.165C107.225,76.21 106.73,76.307 106.122,76.307C104.945,76.307 104.615,75.685 104.615,74.537L107.682,74.537L107.682,74.02C107.682,72.94 107.285,72.332 106.085,72.332C104.765,72.332 104.165,73.082 104.165,74.552ZM106.04,72.692C106.947,72.692 107.255,73.12 107.255,74.05L107.255,74.2L104.63,74.2C104.69,73.202 105.072,72.692 106.04,72.692Z" style="fill:white;fill-rule:nonzero;"/>
            </g>
        </g>
    </g>
    <g transform="matrix(1,0,0,1,-38.6843,-6.84436)">
        <path d="M186.063,23.057L182.921,23.057L182.921,20.777L185.373,20.777L185.471,20.387L182.921,20.387L182.921,18.227L185.816,18.227L185.921,17.83L182.486,17.83L182.486,23.455L185.936,23.455L186.063,23.057Z" style="fill:white;fill-rule:nonzero;"/>
        <path d="M193.308,23.455L193.308,20.702C193.308,20.125 193.211,19.742 192.971,19.517C192.746,19.3 192.431,19.187 191.936,19.187C191.388,19.187 190.908,19.352 190.668,19.487L190.436,19.78L190.398,19.78C190.361,19.712 190.308,19.622 190.211,19.532C189.978,19.307 189.633,19.187 189.093,19.187C188.546,19.187 188.081,19.337 187.886,19.442L187.661,19.69L187.623,19.69L187.511,19.247L187.188,19.247L187.188,23.455L187.623,23.455L187.623,19.862C187.938,19.735 188.373,19.577 188.921,19.577C189.266,19.577 189.618,19.645 189.798,19.817C189.971,19.982 190.031,20.207 190.031,20.575L190.031,23.455L190.466,23.455L190.466,19.915C190.766,19.757 191.208,19.577 191.748,19.577C192.101,19.577 192.416,19.66 192.596,19.832C192.776,20.005 192.873,20.297 192.873,20.852L192.873,23.455L193.308,23.455Z" style="fill:white;fill-rule:nonzero;"/>
        <path d="M198.498,21.152C198.498,20.29 198.281,19.772 197.981,19.502C197.741,19.292 197.388,19.165 196.803,19.165C196.233,19.165 195.738,19.3 195.618,19.382C195.573,19.405 195.401,19.57 195.341,19.652L195.311,19.652L195.311,17.38L194.876,17.38L194.876,23.455L194.936,23.455L195.153,23.327C195.528,23.417 195.971,23.492 196.488,23.492C197.201,23.492 197.636,23.335 197.921,23.065C198.281,22.72 198.498,22.045 198.498,21.152ZM198.048,21.242C198.048,22.022 197.861,22.547 197.591,22.802C197.366,23.012 197.013,23.125 196.443,23.125C196.016,23.125 195.603,23.065 195.311,23.02L195.311,19.802C195.678,19.637 196.181,19.555 196.638,19.555C197.141,19.555 197.441,19.652 197.636,19.825C197.853,20.02 198.048,20.455 198.048,21.242Z" style="fill:white;fill-rule:nonzero;"/>
        <path d="M199.661,21.385C199.661,22.817 200.163,23.537 201.566,23.537C202.143,23.537 202.683,23.432 202.983,23.357L203.013,22.997C202.721,23.042 202.226,23.14 201.618,23.14C200.441,23.14 200.111,22.517 200.111,21.37L203.178,21.37L203.178,20.852C203.178,19.772 202.781,19.165 201.581,19.165C200.261,19.165 199.661,19.915 199.661,21.385ZM201.536,19.525C202.443,19.525 202.751,19.952 202.751,20.882L202.751,21.032L200.126,21.032C200.186,20.035 200.568,19.525 201.536,19.525Z" style="fill:white;fill-rule:nonzero;"/>
        <path d="M207.408,19.33C207.056,19.24 206.711,19.172 206.208,19.172C205.571,19.172 205.143,19.322 204.843,19.615C204.476,19.96 204.266,20.627 204.266,21.475C204.266,22.435 204.506,22.96 204.798,23.207C205.061,23.425 205.443,23.545 206.036,23.545C206.613,23.545 206.996,23.417 207.123,23.335C207.168,23.305 207.311,23.14 207.386,23.057L207.408,23.057L207.513,23.455L207.851,23.455L207.851,17.342L207.408,17.342L207.408,19.33ZM204.716,21.445C204.716,20.635 204.903,20.117 205.158,19.877C205.398,19.652 205.743,19.547 206.268,19.547C206.733,19.547 207.123,19.622 207.408,19.66L207.408,22.907C207.033,23.087 206.576,23.162 206.156,23.162C205.713,23.162 205.338,23.065 205.143,22.892C204.911,22.69 204.716,22.27 204.716,21.445Z" style="fill:white;fill-rule:nonzero;"/>
        <path d="M215.186,17.897C214.796,17.83 214.361,17.755 213.686,17.755C212.711,17.755 212.178,17.98 211.811,18.295C211.466,18.572 210.978,19.292 210.978,20.732C210.978,21.94 211.278,22.63 211.623,22.967C212.013,23.335 212.493,23.53 213.453,23.53C214.098,23.53 214.728,23.425 215.186,23.305L215.186,22.93C214.788,23.005 214.181,23.117 213.536,23.117C212.748,23.117 212.268,22.96 211.976,22.667C211.623,22.315 211.436,21.61 211.436,20.665C211.436,19.6 211.781,18.857 212.126,18.58C212.433,18.34 212.883,18.167 213.693,18.167C214.406,18.167 214.796,18.235 215.186,18.28L215.186,17.897Z" style="fill:white;fill-rule:nonzero;"/>
        <path d="M219.461,23.455L219.461,20.845C219.461,20.02 219.341,19.705 219.153,19.502C218.951,19.27 218.583,19.172 218.006,19.172C217.406,19.172 216.783,19.3 216.468,19.382L216.468,19.735C216.753,19.682 217.406,19.562 217.916,19.562C218.388,19.562 218.666,19.637 218.801,19.795C218.943,19.967 219.033,20.267 219.033,20.995C217.691,21.115 216.836,21.272 216.513,21.512C216.348,21.617 216.183,21.902 216.183,22.375C216.183,22.765 216.273,23.027 216.423,23.192C216.596,23.387 216.911,23.53 217.496,23.53C218.223,23.53 218.673,23.342 218.801,23.252C218.838,23.222 218.943,23.08 219.003,22.997L219.041,22.997L219.146,23.455L219.461,23.455ZM219.033,22.87C218.808,22.982 218.276,23.162 217.638,23.162C217.181,23.162 216.911,23.057 216.783,22.922C216.678,22.802 216.611,22.607 216.611,22.337C216.611,22.022 216.686,21.835 216.798,21.737C216.971,21.55 218.058,21.392 219.033,21.332L219.033,22.87Z" style="fill:white;fill-rule:nonzero;"/>
        <path d="M223.578,22.3C223.578,22.015 223.511,21.775 223.361,21.602C223.203,21.422 222.881,21.295 222.266,21.152C221.696,21.025 221.433,20.92 221.306,20.77C221.208,20.657 221.178,20.5 221.178,20.342C221.178,19.81 221.433,19.51 222.318,19.51C222.761,19.51 223.113,19.555 223.436,19.607L223.436,19.247C223.181,19.195 222.776,19.135 222.311,19.135C221.193,19.135 220.751,19.592 220.751,20.365C220.751,20.605 220.803,20.852 220.938,21.01C221.148,21.272 221.501,21.385 222.093,21.527C222.603,21.647 222.888,21.745 223.023,21.895C223.113,22.015 223.151,22.172 223.151,22.33C223.151,22.862 222.911,23.132 221.966,23.132C221.508,23.132 221.043,23.065 220.736,23.005L220.736,23.372C221.036,23.447 221.546,23.507 221.966,23.507C223.241,23.507 223.578,23.042 223.578,22.3Z" style="fill:white;fill-rule:nonzero;"/>
        <path d="M227.021,19.247L225.446,19.247L225.446,18.257L225.011,18.37L225.011,19.247L224.201,19.247L224.141,19.615L225.011,19.615L225.011,22.502C225.011,23.23 225.318,23.5 226.068,23.5C226.391,23.5 226.743,23.447 226.968,23.402L227.006,23.035C226.841,23.057 226.526,23.11 226.181,23.11C225.708,23.11 225.446,22.99 225.446,22.42L225.446,19.615L226.938,19.615L227.021,19.247Z" style="fill:white;fill-rule:nonzero;"/>
    </g>
    <g transform="matrix(1,0,0,1,-39.5274,50.198)">
        <path d="M186.063,23.057L182.921,23.057L182.921,20.777L185.373,20.777L185.471,20.387L182.921,20.387L182.921,18.227L185.816,18.227L185.921,17.83L182.486,17.83L182.486,23.455L185.936,23.455L186.063,23.057Z" style="fill:white;fill-rule:nonzero;"/>
        <path d="M193.308,23.455L193.308,20.702C193.308,20.125 193.211,19.742 192.971,19.517C192.746,19.3 192.431,19.187 191.936,19.187C191.388,19.187 190.908,19.352 190.668,19.487L190.436,19.78L190.398,19.78C190.361,19.712 190.308,19.622 190.211,19.532C189.978,19.307 189.633,19.187 189.093,19.187C188.546,19.187 188.081,19.337 187.886,19.442L187.661,19.69L187.623,19.69L187.511,19.247L187.188,19.247L187.188,23.455L187.623,23.455L187.623,19.862C187.938,19.735 188.373,19.577 188.921,19.577C189.266,19.577 189.618,19.645 189.798,19.817C189.971,19.982 190.031,20.207 190.031,20.575L190.031,23.455L190.466,23.455L190.466,19.915C190.766,19.757 191.208,19.577 191.748,19.577C192.101,19.577 192.416,19.66 192.596,19.832C192.776,20.005 192.873,20.297 192.873,20.852L192.873,23.455L193.308,23.455Z" style="fill:white;fill-rule:nonzero;"/>
        <path d="M198.498,21.152C198.498,20.29 198.281,19.772 197.981,19.502C197.741,19.292 197.388,19.165 196.803,19.165C196.233,19.165 195.738,19.3 195.618,19.382C195.573,19.405 195.401,19.57 195.341,19.652L195.311,19.652L195.311,17.38L194.876,17.38L194.876,23.455L194.936,23.455L195.153,23.327C195.528,23.417 195.971,23.492 196.488,23.492C197.201,23.492 197.636,23.335 197.921,23.065C198.281,22.72 198.498,22.045 198.498,21.152ZM198.048,21.242C198.048,22.022 197.861,22.547 197.591,22.802C197.366,23.012 197.013,23.125 196.443,23.125C196.016,23.125 195.603,23.065 195.311,23.02L195.311,19.802C195.678,19.637 196.181,19.555 196.638,19.555C197.141,19.555 197.441,19.652 197.636,19.825C197.853,20.02 198.048,20.455 198.048,21.242Z" style="fill:white;fill-rule:nonzero;"/>
        <path d="M199.661,21.385C199.661,22.817 200.163,23.537 201.566,23.537C202.143,23.537 202.683,23.432 202.983,23.357L203.013,22.997C202.721,23.042 202.226,23.14 201.618,23.14C200.441,23.14 200.111,22.517 200.111,21.37L203.178,21.37L203.178,20.852C203.178,19.772 202.781,19.165 201.581,19.165C200.261,19.165 199.661,19.915 199.661,21.385ZM201.536,19.525C202.443,19.525 202.751,19.952 202.751,20.882L202.751,21.032L200.126,21.032C200.186,20.035 200.568,19.525 201.536,19.525Z" style="fill:white;fill-rule:nonzero;"/>
        <path d="M207.408,19.33C207.056,19.24 206.711,19.172 206.208,19.172C205.571,19.172 205.143,19.322 204.843,19.615C204.476,19.96 204.266,20.627 204.266,21.475C204.266,22.435 204.506,22.96 204.798,23.207C205.061,23.425 205.443,23.545 206.036,23.545C206.613,23.545 206.996,23.417 207.123,23.335C207.168,23.305 207.311,23.14 207.386,23.057L207.408,23.057L207.513,23.455L207.851,23.455L207.851,17.342L207.408,17.342L207.408,19.33ZM204.716,21.445C204.716,20.635 204.903,20.117 205.158,19.877C205.398,19.652 205.743,19.547 206.268,19.547C206.733,19.547 207.123,19.622 207.408,19.66L207.408,22.907C207.033,23.087 206.576,23.162 206.156,23.162C205.713,23.162 205.338,23.065 205.143,22.892C204.911,22.69 204.716,22.27 204.716,21.445Z" style="fill:white;fill-rule:nonzero;"/>
        <path d="M212.681,21.16C213.498,21.16 213.926,21.077 214.263,20.837C214.608,20.59 214.848,20.042 214.848,19.382C214.848,18.707 214.668,18.287 214.383,18.07C214.173,17.905 213.813,17.83 213.326,17.83L211.181,17.83L211.181,23.455L211.616,23.455L211.616,21.16L212.681,21.16ZM214.398,19.397C214.398,20.005 214.196,20.387 213.941,20.567C213.738,20.717 213.341,20.762 212.673,20.762L211.616,20.762L211.616,18.212L213.153,18.212C213.566,18.212 213.873,18.257 214.061,18.4C214.263,18.55 214.398,18.872 214.398,19.397Z" style="fill:white;fill-rule:nonzero;"/>
        <path d="M218.981,23.455L218.981,20.845C218.981,20.02 218.861,19.705 218.673,19.502C218.471,19.27 218.103,19.172 217.526,19.172C216.926,19.172 216.303,19.3 215.988,19.382L215.988,19.735C216.273,19.682 216.926,19.562 217.436,19.562C217.908,19.562 218.186,19.637 218.321,19.795C218.463,19.967 218.553,20.267 218.553,20.995C217.211,21.115 216.356,21.272 216.033,21.512C215.868,21.617 215.703,21.902 215.703,22.375C215.703,22.765 215.793,23.027 215.943,23.192C216.116,23.387 216.431,23.53 217.016,23.53C217.743,23.53 218.193,23.342 218.321,23.252C218.358,23.222 218.463,23.08 218.523,22.997L218.561,22.997L218.666,23.455L218.981,23.455ZM218.553,22.87C218.328,22.982 217.796,23.162 217.158,23.162C216.701,23.162 216.431,23.057 216.303,22.922C216.198,22.802 216.131,22.607 216.131,22.337C216.131,22.022 216.206,21.835 216.318,21.737C216.491,21.55 217.578,21.392 218.553,21.332L218.553,22.87Z" style="fill:white;fill-rule:nonzero;"/>
        <path d="M220.563,19.247L220.563,23.455L220.998,23.455L220.998,19.915C221.253,19.75 221.733,19.577 222.243,19.585C222.498,19.585 222.716,19.615 222.843,19.637L222.843,19.217C222.731,19.202 222.573,19.187 222.363,19.187C221.838,19.187 221.456,19.33 221.253,19.45C221.238,19.465 221.058,19.682 221.036,19.712L220.991,19.712L220.886,19.247L220.563,19.247Z" style="fill:white;fill-rule:nonzero;"/>
        <path d="M226.721,23.455L226.721,20.845C226.721,20.02 226.601,19.705 226.413,19.502C226.211,19.27 225.843,19.172 225.266,19.172C224.666,19.172 224.043,19.3 223.728,19.382L223.728,19.735C224.013,19.682 224.666,19.562 225.176,19.562C225.648,19.562 225.926,19.637 226.061,19.795C226.203,19.967 226.293,20.267 226.293,20.995C224.951,21.115 224.096,21.272 223.773,21.512C223.608,21.617 223.443,21.902 223.443,22.375C223.443,22.765 223.533,23.027 223.683,23.192C223.856,23.387 224.171,23.53 224.756,23.53C225.483,23.53 225.933,23.342 226.061,23.252C226.098,23.222 226.203,23.08 226.263,22.997L226.301,22.997L226.406,23.455L226.721,23.455ZM226.293,22.87C226.068,22.982 225.536,23.162 224.898,23.162C224.441,23.162 224.171,23.057 224.043,22.922C223.938,22.802 223.871,22.607 223.871,22.337C223.871,22.022 223.946,21.835 224.058,21.737C224.231,21.55 225.318,21.392 226.293,21.332L226.293,22.87Z" style="fill:white;fill-rule:nonzero;"/>
        <path d="M234.416,23.455L234.416,20.702C234.416,20.125 234.318,19.742 234.078,19.517C233.853,19.3 233.538,19.187 233.043,19.187C232.496,19.187 232.016,19.352 231.776,19.487L231.543,19.78L231.506,19.78C231.468,19.712 231.416,19.622 231.318,19.532C231.086,19.307 230.741,19.187 230.201,19.187C229.653,19.187 229.188,19.337 228.993,19.442L228.768,19.69L228.731,19.69L228.618,19.247L228.296,19.247L228.296,23.455L228.731,23.455L228.731,19.862C229.046,19.735 229.481,19.577 230.028,19.577C230.373,19.577 230.726,19.645 230.906,19.817C231.078,19.982 231.138,20.207 231.138,20.575L231.138,23.455L231.573,23.455L231.573,19.915C231.873,19.757 232.316,19.577 232.856,19.577C233.208,19.577 233.523,19.66 233.703,19.832C233.883,20.005 233.981,20.297 233.981,20.852L233.981,23.455L234.416,23.455Z" style="fill:white;fill-rule:nonzero;"/>
        <path d="M235.781,21.385C235.781,22.817 236.283,23.537 237.686,23.537C238.263,23.537 238.803,23.432 239.103,23.357L239.133,22.997C238.841,23.042 238.346,23.14 237.738,23.14C236.561,23.14 236.231,22.517 236.231,21.37L239.298,21.37L239.298,20.852C239.298,19.772 238.901,19.165 237.701,19.165C236.381,19.165 235.781,19.915 235.781,21.385ZM237.656,19.525C238.563,19.525 238.871,19.952 238.871,20.882L238.871,21.032L236.246,21.032C236.306,20.035 236.688,19.525 237.656,19.525Z" style="fill:white;fill-rule:nonzero;"/>
        <path d="M242.921,19.247L241.346,19.247L241.346,18.257L240.911,18.37L240.911,19.247L240.101,19.247L240.041,19.615L240.911,19.615L240.911,22.502C240.911,23.23 241.218,23.5 241.968,23.5C242.291,23.5 242.643,23.447 242.868,23.402L242.906,23.035C242.741,23.057 242.426,23.11 242.081,23.11C241.608,23.11 241.346,22.99 241.346,22.42L241.346,19.615L242.838,19.615L242.921,19.247Z" style="fill:white;fill-rule:nonzero;"/>
        <path d="M243.686,21.385C243.686,22.817 244.188,23.537 245.591,23.537C246.168,23.537 246.708,23.432 247.008,23.357L247.038,22.997C246.746,23.042 246.251,23.14 245.643,23.14C244.466,23.14 244.136,22.517 244.136,21.37L247.203,21.37L247.203,20.852C247.203,19.772 246.806,19.165 245.606,19.165C244.286,19.165 243.686,19.915 243.686,21.385ZM245.561,19.525C246.468,19.525 246.776,19.952 246.776,20.882L246.776,21.032L244.151,21.032C244.211,20.035 244.593,19.525 245.561,19.525Z" style="fill:white;fill-rule:nonzero;"/>
        <path d="M248.508,19.247L248.508,23.455L248.943,23.455L248.943,19.915C249.198,19.75 249.678,19.577 250.188,19.585C250.443,19.585 250.661,19.615 250.788,19.637L250.788,19.217C250.676,19.202 250.518,19.187 250.308,19.187C249.783,19.187 249.401,19.33 249.198,19.45C249.183,19.465 249.003,19.682 248.981,19.712L248.936,19.712L248.831,19.247L248.508,19.247Z" style="fill:white;fill-rule:nonzero;"/>
    </g>
    <g transform="matrix(1,0,0,1,-23.3816,21.5762)">
        <path d="M186.063,23.057L182.921,23.057L182.921,20.777L185.373,20.777L185.471,20.387L182.921,20.387L182.921,18.227L185.816,18.227L185.921,17.83L182.486,17.83L182.486,23.455L185.936,23.455L186.063,23.057Z" style="fill:white;fill-rule:nonzero;"/>
        <path d="M193.308,23.455L193.308,20.702C193.308,20.125 193.211,19.742 192.971,19.517C192.746,19.3 192.431,19.187 191.936,19.187C191.388,19.187 190.908,19.352 190.668,19.487L190.436,19.78L190.398,19.78C190.361,19.712 190.308,19.622 190.211,19.532C189.978,19.307 189.633,19.187 189.093,19.187C188.546,19.187 188.081,19.337 187.886,19.442L187.661,19.69L187.623,19.69L187.511,19.247L187.188,19.247L187.188,23.455L187.623,23.455L187.623,19.862C187.938,19.735 188.373,19.577 188.921,19.577C189.266,19.577 189.618,19.645 189.798,19.817C189.971,19.982 190.031,20.207 190.031,20.575L190.031,23.455L190.466,23.455L190.466,19.915C190.766,19.757 191.208,19.577 191.748,19.577C192.101,19.577 192.416,19.66 192.596,19.832C192.776,20.005 192.873,20.297 192.873,20.852L192.873,23.455L193.308,23.455Z" style="fill:white;fill-rule:nonzero;"/>
        <path d="M198.498,21.152C198.498,20.29 198.281,19.772 197.981,19.502C197.741,19.292 197.388,19.165 196.803,19.165C196.233,19.165 195.738,19.3 195.618,19.382C195.573,19.405 195.401,19.57 195.341,19.652L195.311,19.652L195.311,17.38L194.876,17.38L194.876,23.455L194.936,23.455L195.153,23.327C195.528,23.417 195.971,23.492 196.488,23.492C197.201,23.492 197.636,23.335 197.921,23.065C198.281,22.72 198.498,22.045 198.498,21.152ZM198.048,21.242C198.048,22.022 197.861,22.547 197.591,22.802C197.366,23.012 197.013,23.125 196.443,23.125C196.016,23.125 195.603,23.065 195.311,23.02L195.311,19.802C195.678,19.637 196.181,19.555 196.638,19.555C197.141,19.555 197.441,19.652 197.636,19.825C197.853,20.02 198.048,20.455 198.048,21.242Z" style="fill:white;fill-rule:nonzero;"/>
        <path d="M199.661,21.385C199.661,22.817 200.163,23.537 201.566,23.537C202.143,23.537 202.683,23.432 202.983,23.357L203.013,22.997C202.721,23.042 202.226,23.14 201.618,23.14C200.441,23.14 200.111,22.517 200.111,21.37L203.178,21.37L203.178,20.852C203.178,19.772 202.781,19.165 201.581,19.165C200.261,19.165 199.661,19.915 199.661,21.385ZM201.536,19.525C202.443,19.525 202.751,19.952 202.751,20.882L202.751,21.032L200.126,21.032C200.186,20.035 200.568,19.525 201.536,19.525Z" style="fill:white;fill-rule:nonzero;"/>
        <path d="M207.408,19.33C207.056,19.24 206.711,19.172 206.208,19.172C205.571,19.172 205.143,19.322 204.843,19.615C204.476,19.96 204.266,20.627 204.266,21.475C204.266,22.435 204.506,22.96 204.798,23.207C205.061,23.425 205.443,23.545 206.036,23.545C206.613,23.545 206.996,23.417 207.123,23.335C207.168,23.305 207.311,23.14 207.386,23.057L207.408,23.057L207.513,23.455L207.851,23.455L207.851,17.342L207.408,17.342L207.408,19.33ZM204.716,21.445C204.716,20.635 204.903,20.117 205.158,19.877C205.398,19.652 205.743,19.547 206.268,19.547C206.733,19.547 207.123,19.622 207.408,19.66L207.408,22.907C207.033,23.087 206.576,23.162 206.156,23.162C205.713,23.162 205.338,23.065 205.143,22.892C204.911,22.69 204.716,22.27 204.716,21.445Z" style="fill:white;fill-rule:nonzero;"/>
        <path d="M211.608,23.455L211.608,20.95L214.053,20.95L214.143,20.56L211.608,20.56L211.608,18.227L214.496,18.227L214.593,17.83L211.166,17.83L211.166,23.455L211.608,23.455Z" style="fill:white;fill-rule:nonzero;"/>
        <path d="M218.868,23.455L218.868,19.247L218.433,19.247L218.433,22.84C218.096,22.99 217.608,23.117 217.121,23.117C216.663,23.117 216.348,23.042 216.168,22.855C215.996,22.675 215.891,22.382 215.891,21.812L215.891,19.247L215.456,19.247L215.456,21.977C215.456,22.555 215.583,22.907 215.801,23.14C216.033,23.38 216.348,23.507 216.956,23.507C217.481,23.507 217.976,23.38 218.186,23.275C218.201,23.267 218.381,23.035 218.396,23.005L218.441,23.005L218.553,23.455L218.868,23.455Z" style="fill:white;fill-rule:nonzero;"/>
        <path d="M223.863,23.455L223.863,20.702C223.863,20.132 223.743,19.75 223.511,19.532C223.286,19.307 222.963,19.187 222.416,19.187C221.883,19.187 221.343,19.337 221.141,19.45C221.118,19.465 220.946,19.66 220.923,19.69L220.886,19.69L220.766,19.247L220.451,19.247L220.451,23.455L220.886,23.455L220.886,19.855C221.216,19.72 221.688,19.577 222.228,19.577C222.618,19.577 222.948,19.652 223.136,19.832C223.323,20.012 223.428,20.32 223.428,20.852L223.428,23.455L223.863,23.455Z" style="fill:white;fill-rule:nonzero;"/>
        <path d="M227.276,19.532C227.771,19.532 228.161,19.592 228.423,19.63L228.423,19.255C228.146,19.202 227.733,19.135 227.231,19.135C226.601,19.135 226.128,19.285 225.806,19.6C225.408,19.967 225.206,20.612 225.206,21.452C225.206,22.187 225.378,22.772 225.768,23.132C226.061,23.41 226.511,23.545 227.103,23.545C227.696,23.545 228.131,23.44 228.423,23.357L228.423,23.02C228.131,23.065 227.703,23.147 227.171,23.147C226.713,23.147 226.346,23.057 226.098,22.825C225.806,22.555 225.663,22.09 225.663,21.4C225.663,20.68 225.821,20.147 226.128,19.862C226.368,19.63 226.766,19.532 227.276,19.532Z" style="fill:white;fill-rule:nonzero;"/>
        <path d="M231.963,19.247L230.388,19.247L230.388,18.257L229.953,18.37L229.953,19.247L229.143,19.247L229.083,19.615L229.953,19.615L229.953,22.502C229.953,23.23 230.261,23.5 231.011,23.5C231.333,23.5 231.686,23.447 231.911,23.402L231.948,23.035C231.783,23.057 231.468,23.11 231.123,23.11C230.651,23.11 230.388,22.99 230.388,22.42L230.388,19.615L231.881,19.615L231.963,19.247Z" style="fill:white;fill-rule:nonzero;"/>
        <path d="M233.523,23.455L233.523,19.247L233.088,19.247L233.088,23.455L233.523,23.455ZM233.591,17.815C233.591,17.717 233.576,17.642 233.523,17.597C233.486,17.56 233.418,17.545 233.328,17.545C233.231,17.545 233.156,17.567 233.133,17.597C233.073,17.627 233.043,17.71 233.043,17.822C233.043,17.92 233.066,17.995 233.103,18.032C233.141,18.077 233.208,18.092 233.313,18.092C233.396,18.092 233.478,18.077 233.523,18.04C233.576,18.002 233.591,17.912 233.591,17.815Z" style="fill:white;fill-rule:nonzero;"/>
        <path d="M238.766,21.257C238.766,20.387 238.578,19.9 238.271,19.577C238.008,19.315 237.566,19.135 236.928,19.135C236.261,19.135 235.796,19.33 235.496,19.615C235.113,19.975 234.896,20.635 234.896,21.452C234.896,22.262 235.113,22.757 235.353,23.035C235.631,23.35 236.073,23.545 236.771,23.545C237.513,23.545 237.941,23.342 238.233,23.042C238.556,22.705 238.766,22.082 238.766,21.257ZM236.816,23.17C236.208,23.17 235.886,22.982 235.683,22.75C235.473,22.51 235.331,22.03 235.331,21.4C235.331,20.635 235.563,20.102 235.818,19.87C236.013,19.69 236.358,19.525 236.876,19.525C237.401,19.525 237.723,19.66 237.933,19.877C238.158,20.11 238.323,20.47 238.323,21.332C238.323,22.082 238.136,22.547 237.873,22.817C237.656,23.035 237.281,23.17 236.816,23.17Z" style="fill:white;fill-rule:nonzero;"/>
        <path d="M243.551,23.455L243.551,20.702C243.551,20.132 243.431,19.75 243.198,19.532C242.973,19.307 242.651,19.187 242.103,19.187C241.571,19.187 241.031,19.337 240.828,19.45C240.806,19.465 240.633,19.66 240.611,19.69L240.573,19.69L240.453,19.247L240.138,19.247L240.138,23.455L240.573,23.455L240.573,19.855C240.903,19.72 241.376,19.577 241.916,19.577C242.306,19.577 242.636,19.652 242.823,19.832C243.011,20.012 243.116,20.32 243.116,20.852L243.116,23.455L243.551,23.455Z" style="fill:white;fill-rule:nonzero;"/>
    </g>
</svg>
