<?xml version="1.0" standalone="no"?>
<!DOCTYPE svg PUBLIC "-//W3C//DTD SVG 1.1//EN" "http://www.w3.org/Graphics/SVG/1.1/DTD/svg11.dtd">
<svg width="100%" height="100%" viewBox="0 0 284 86" version="1.1" xmlns="http://www.w3.org/2000/svg" xmlns:xlink="http://www.w3.org/1999/xlink" xml:space="preserve" style="fill-rule:evenodd;clip-rule:evenodd;stroke-linejoin:round;stroke-miterlimit:1.41421;">
    <g id="primary">
        <path d="M82.769,26.988L87.598,31.817L78.582,31.817L73.749,26.988L49.577,2.835L112.057,2.837L134.782,25.561L81.341,25.56L82.769,26.988Z" style="fill:rgb(51,51,51);"/>
        <path d="M147.207,26.988L152.954,32.735L143.938,32.735L138.187,26.988L114.015,2.835L176.495,2.837L199.22,25.561L145.779,25.56L147.207,26.988Z" style="fill:rgb(51,51,51);"/>
        <path d="M211.652,26.988L217.399,32.735L208.383,32.735L202.632,26.988L178.46,2.835L240.94,2.837L263.666,25.561L210.224,25.56L211.652,26.988Z" style="fill:rgb(51,51,51);"/>
        <path d="M215.845,31.181L269.29,31.181L280.63,42.521L269.293,53.858L215.845,53.858L206.829,53.858L212.498,48.189L210.516,48.189L204.847,53.858L151.4,53.858L142.384,53.858L148.053,48.189L146.071,48.189L140.402,53.858L86.962,53.858L72.849,53.858L78.518,48.189L74.6,48.189L74.6,36.85L78.516,36.85L72.847,31.181L140.4,31.181L146.069,36.85L148.05,36.85L142.381,31.181L204.845,31.181L210.514,36.85L212.496,36.85L206.827,31.181L215.845,31.181Z" style="fill:rgb(51,51,51);"/>
        <g>
            <path d="M91.295,47.794L91.295,47.08L94.391,47.08L94.391,37.863L91.295,38.423L91.295,37.709L95.189,37.022L95.189,47.08L97.991,47.08L97.991,47.794L91.295,47.794L91.295,47.794Z" style="fill:white;fill-rule:nonzero;"/>
            <path d="M113.936,47.794L106.722,47.794L106.722,46.954C106.848,45.413 107.688,44.418 110.154,43.214C111.723,42.43 112.409,42.024 112.774,41.547C113.082,41.113 113.166,40.553 113.166,40.006C113.166,38.563 112.634,37.905 110.351,37.905C109.104,37.905 107.76,38.213 107.143,38.353L107.143,37.624C107.969,37.4 109.258,37.147 110.518,37.147C113.193,37.147 114.034,38.016 114.034,39.907C114.034,40.86 113.824,41.518 113.502,41.924C112.956,42.638 111.877,43.185 110.504,43.857C107.941,45.104 107.535,45.986 107.506,47.037L114.146,47.037L113.936,47.794L113.936,47.794Z" style="fill:white;fill-rule:nonzero;"/>
            <path d="M128.734,41.841L127.599,42.373L127.599,42.429L128.789,42.849C129.266,43.242 129.643,44.138 129.643,45.048C129.643,47.065 128.495,47.934 125.651,47.934C124.475,47.934 123.438,47.78 122.821,47.64L122.821,46.926C123.466,47.038 124.6,47.206 125.651,47.206C128.256,47.206 128.803,46.352 128.803,45.049C128.803,43.186 127.556,42.836 125.973,42.836L123.97,42.836L123.97,42.107L125.791,42.107C127.164,42.107 128.606,41.757 128.606,39.936C128.606,38.591 128.102,37.891 125.973,37.891C124.852,37.891 123.774,38.115 123.045,38.269L123.045,37.568C123.802,37.372 124.964,37.148 126.113,37.148C128.634,37.148 129.433,38.031 129.433,39.824C129.434,40.804 129,41.588 128.734,41.841L128.734,41.841Z" style="fill:white;fill-rule:nonzero;"/>
        </g>
        <g>
            <path d="M166.718,47.794L165.947,47.794L165.947,44.811L160.553,44.811L160.553,43.998L165.191,37.288L166.717,37.288L166.717,44.11L169.071,44.11L168.86,44.811L166.716,44.811L166.718,47.794ZM165.948,44.11L165.948,37.975L165.569,37.975L161.465,43.928L161.465,44.11L165.948,44.11Z" style="fill:white;fill-rule:nonzero;"/>
            <path d="M179.903,47.934C178.938,47.934 177.916,47.794 177.186,47.682L177.186,46.939C177.858,47.037 178.895,47.177 179.946,47.177C182.37,47.177 183.211,46.49 183.211,44.754C183.211,42.905 182.623,42.429 180.465,42.429C179.471,42.429 178.126,42.639 177.51,42.723L177.51,37.288L183.73,37.288L183.73,38.002L178.24,38.002L178.24,41.952C178.828,41.854 179.639,41.7 180.719,41.7C183.157,41.7 184.053,42.345 184.053,44.641C184.05,46.855 183.028,47.934 179.903,47.934L179.903,47.934Z" style="fill:white;fill-rule:nonzero;"/>
            <path d="M193.666,42.667L193.735,42.667L194.182,42.205C194.786,41.981 195.877,41.673 197.153,41.673C199.632,41.673 200.459,42.709 200.459,44.656C200.459,46.687 199.407,47.934 196.705,47.934C193.764,47.934 192.852,46.071 192.852,42.975C192.852,41.028 193.399,39.627 194.225,38.745C195.192,37.736 196.733,37.106 199.436,37.078L199.715,37.821C197.082,37.835 195.652,38.381 194.813,39.278C194.155,39.977 193.721,41.168 193.666,42.667L193.666,42.667ZM196.886,42.401C195.64,42.401 194.491,42.709 193.665,43.031C193.692,45.931 194.603,47.205 196.745,47.205C198.749,47.205 199.645,46.421 199.645,44.726C199.646,43.102 198.987,42.401 196.886,42.401L196.886,42.401Z" style="fill:white;fill-rule:nonzero;"/>
        </g>
        <g>
            <path d="M229.528,38.227L229.528,38.031L223.213,38.031L223.437,37.288L230.426,37.288L230.426,38.213L225.411,47.794L224.501,47.794L229.528,38.227Z" style="fill:white;fill-rule:nonzero;"/>
            <path d="M240.167,42.919L241.118,42.4L241.118,42.33L240.278,41.896C239.914,41.532 239.563,41.013 239.563,40.047C239.563,38.352 240.627,37.133 243.092,37.133C245.544,37.133 246.454,38.225 246.454,39.794C246.454,40.789 246.033,41.391 245.641,41.811L244.774,42.33L244.774,42.4L245.837,42.793C246.399,43.241 246.72,43.956 246.72,44.908C246.72,46.645 245.641,47.934 242.882,47.934C240.278,47.934 239.197,46.897 239.197,45.119C239.2,44.222 239.564,43.479 240.167,42.919L240.167,42.919ZM240.027,45.02C240.027,46.421 240.84,47.219 242.968,47.219C245.139,47.219 245.896,46.197 245.896,44.992C245.896,43.073 244.677,42.919 241.553,42.582C240.782,43.087 240.027,43.774 240.027,45.02L240.027,45.02ZM240.39,39.977C240.39,41.7 241.484,41.938 244.228,42.19C245.111,41.644 245.615,40.929 245.615,39.893C245.615,38.548 244.859,37.848 243.011,37.848C241.077,37.849 240.39,38.801 240.39,39.977L240.39,39.977Z" style="fill:white;fill-rule:nonzero;"/>
            <path d="M261.883,42.429L261.814,42.429L261.378,42.891C260.804,43.129 259.726,43.41 258.521,43.41C256.014,43.41 255.131,42.401 255.131,40.468C255.131,38.255 256.519,37.148 258.87,37.148C261.616,37.148 262.694,38.675 262.694,42.009C262.694,44.012 262.149,45.483 261.321,46.351C260.397,47.36 258.815,47.962 256.096,48.018L255.829,47.247C258.421,47.233 259.933,46.715 260.746,45.832C261.379,45.119 261.841,43.942 261.883,42.429L261.883,42.429ZM258.704,42.681C259.965,42.681 261.1,42.387 261.884,42.093C261.857,39.123 261.002,37.877 258.818,37.877C256.857,37.877 255.945,38.815 255.945,40.413C255.945,41.981 256.644,42.681 258.704,42.681L258.704,42.681Z" style="fill:white;fill-rule:nonzero;"/>
        </g>
        <g transform="matrix(1,0,0,1,16.5238,2.16146)">
            <path d="M59.256,14.737L56.456,7.237L55.386,7.237L52.386,14.737L52.996,14.737L54.006,12.177L57.666,12.177L58.606,14.737L59.256,14.737ZM57.486,11.657L54.196,11.657L55.736,7.787L56.056,7.787L57.486,11.657Z" style="fill:white;fill-rule:nonzero;"/>
            <path d="M65.126,9.127L64.496,9.127L62.526,14.197L62.286,14.197L60.386,9.127L59.756,9.127L61.886,14.737L62.886,14.737L65.126,9.127Z" style="fill:white;fill-rule:nonzero;"/>
            <path d="M70.416,14.737L70.416,11.257C70.416,10.157 70.256,9.737 70.006,9.467C69.736,9.157 69.246,9.027 68.476,9.027C67.676,9.027 66.846,9.197 66.426,9.307L66.426,9.777C66.806,9.707 67.676,9.547 68.356,9.547C68.986,9.547 69.356,9.647 69.536,9.857C69.726,10.087 69.846,10.487 69.846,11.457C68.056,11.617 66.916,11.827 66.486,12.147C66.266,12.287 66.046,12.667 66.046,13.297C66.046,13.817 66.166,14.167 66.366,14.387C66.596,14.647 67.016,14.837 67.796,14.837C68.766,14.837 69.366,14.587 69.536,14.467C69.586,14.427 69.726,14.237 69.806,14.127L69.856,14.127L69.996,14.737L70.416,14.737ZM69.846,13.957C69.546,14.107 68.836,14.347 67.986,14.347C67.376,14.347 67.016,14.207 66.846,14.027C66.706,13.867 66.616,13.607 66.616,13.247C66.616,12.827 66.716,12.577 66.866,12.447C67.096,12.197 68.546,11.987 69.846,11.907L69.846,13.957Z" style="fill:white;fill-rule:nonzero;"/>
            <path d="M73.106,14.737L73.106,9.127L72.526,9.127L72.526,14.737L73.106,14.737ZM73.196,7.217C73.196,7.087 73.176,6.987 73.106,6.927C73.056,6.877 72.966,6.857 72.846,6.857C72.716,6.857 72.616,6.887 72.586,6.927C72.506,6.967 72.466,7.077 72.466,7.227C72.466,7.357 72.496,7.457 72.546,7.507C72.596,7.567 72.686,7.587 72.826,7.587C72.936,7.587 73.046,7.567 73.106,7.517C73.176,7.467 73.196,7.347 73.196,7.217Z" style="fill:white;fill-rule:nonzero;"/>
            <path d="M75.186,6.637L75.186,13.467C75.186,14.407 75.556,14.797 76.366,14.797C76.746,14.797 77.096,14.737 77.336,14.687L77.336,14.227C77.136,14.257 76.866,14.297 76.536,14.297C76.066,14.297 75.766,14.127 75.766,13.407L75.766,6.637L75.186,6.637Z" style="fill:white;fill-rule:nonzero;"/>
            <path d="M82.536,14.737L82.536,11.257C82.536,10.157 82.376,9.737 82.126,9.467C81.856,9.157 81.366,9.027 80.596,9.027C79.796,9.027 78.966,9.197 78.546,9.307L78.546,9.777C78.926,9.707 79.796,9.547 80.476,9.547C81.106,9.547 81.476,9.647 81.656,9.857C81.846,10.087 81.966,10.487 81.966,11.457C80.176,11.617 79.036,11.827 78.606,12.147C78.386,12.287 78.166,12.667 78.166,13.297C78.166,13.817 78.286,14.167 78.486,14.387C78.716,14.647 79.136,14.837 79.916,14.837C80.886,14.837 81.486,14.587 81.656,14.467C81.706,14.427 81.846,14.237 81.926,14.127L81.976,14.127L82.116,14.737L82.536,14.737ZM81.966,13.957C81.666,14.107 80.956,14.347 80.106,14.347C79.496,14.347 79.136,14.207 78.966,14.027C78.826,13.867 78.736,13.607 78.736,13.247C78.736,12.827 78.836,12.577 78.986,12.447C79.216,12.197 80.666,11.987 81.966,11.907L81.966,13.957Z" style="fill:white;fill-rule:nonzero;"/>
            <path d="M89.466,11.667C89.466,10.517 89.176,9.827 88.776,9.467C88.456,9.187 87.986,9.017 87.206,9.017C86.446,9.017 85.786,9.197 85.626,9.307C85.566,9.337 85.336,9.557 85.256,9.667L85.216,9.667L85.216,6.637L84.636,6.637L84.636,14.737L84.716,14.737L85.006,14.567C85.506,14.687 86.096,14.787 86.786,14.787C87.736,14.787 88.316,14.577 88.696,14.217C89.176,13.757 89.466,12.857 89.466,11.667ZM88.866,11.787C88.866,12.827 88.616,13.527 88.256,13.867C87.956,14.147 87.486,14.297 86.726,14.297C86.156,14.297 85.606,14.217 85.216,14.157L85.216,9.867C85.706,9.647 86.376,9.537 86.986,9.537C87.656,9.537 88.056,9.667 88.316,9.897C88.606,10.157 88.866,10.737 88.866,11.787Z" style="fill:white;fill-rule:nonzero;"/>
            <path d="M91.266,6.637L91.266,13.467C91.266,14.407 91.636,14.797 92.446,14.797C92.826,14.797 93.176,14.737 93.416,14.687L93.416,14.227C93.216,14.257 92.946,14.297 92.616,14.297C92.146,14.297 91.846,14.127 91.846,13.407L91.846,6.637L91.266,6.637Z" style="fill:white;fill-rule:nonzero;"/>
            <path d="M94.236,11.977C94.236,13.887 94.906,14.847 96.776,14.847C97.546,14.847 98.266,14.707 98.666,14.607L98.706,14.127C98.316,14.187 97.656,14.317 96.846,14.317C95.276,14.317 94.836,13.487 94.836,11.957L98.926,11.957L98.926,11.267C98.926,9.827 98.396,9.017 96.796,9.017C95.036,9.017 94.236,10.017 94.236,11.977ZM96.736,9.497C97.946,9.497 98.356,10.067 98.356,11.307L98.356,11.507L94.856,11.507C94.936,10.177 95.446,9.497 96.736,9.497Z" style="fill:white;fill-rule:nonzero;"/>
        </g>
        <g transform="matrix(1,0,0,1,82.3963,2.16146)">
            <path d="M59.256,14.737L56.456,7.237L55.386,7.237L52.386,14.737L52.996,14.737L54.006,12.177L57.666,12.177L58.606,14.737L59.256,14.737ZM57.486,11.657L54.196,11.657L55.736,7.787L56.056,7.787L57.486,11.657Z" style="fill:white;fill-rule:nonzero;"/>
            <path d="M65.126,9.127L64.496,9.127L62.526,14.197L62.286,14.197L60.386,9.127L59.756,9.127L61.886,14.737L62.886,14.737L65.126,9.127Z" style="fill:white;fill-rule:nonzero;"/>
            <path d="M70.416,14.737L70.416,11.257C70.416,10.157 70.256,9.737 70.006,9.467C69.736,9.157 69.246,9.027 68.476,9.027C67.676,9.027 66.846,9.197 66.426,9.307L66.426,9.777C66.806,9.707 67.676,9.547 68.356,9.547C68.986,9.547 69.356,9.647 69.536,9.857C69.726,10.087 69.846,10.487 69.846,11.457C68.056,11.617 66.916,11.827 66.486,12.147C66.266,12.287 66.046,12.667 66.046,13.297C66.046,13.817 66.166,14.167 66.366,14.387C66.596,14.647 67.016,14.837 67.796,14.837C68.766,14.837 69.366,14.587 69.536,14.467C69.586,14.427 69.726,14.237 69.806,14.127L69.856,14.127L69.996,14.737L70.416,14.737ZM69.846,13.957C69.546,14.107 68.836,14.347 67.986,14.347C67.376,14.347 67.016,14.207 66.846,14.027C66.706,13.867 66.616,13.607 66.616,13.247C66.616,12.827 66.716,12.577 66.866,12.447C67.096,12.197 68.546,11.987 69.846,11.907L69.846,13.957Z" style="fill:white;fill-rule:nonzero;"/>
            <path d="M73.106,14.737L73.106,9.127L72.526,9.127L72.526,14.737L73.106,14.737ZM73.196,7.217C73.196,7.087 73.176,6.987 73.106,6.927C73.056,6.877 72.966,6.857 72.846,6.857C72.716,6.857 72.616,6.887 72.586,6.927C72.506,6.967 72.466,7.077 72.466,7.227C72.466,7.357 72.496,7.457 72.546,7.507C72.596,7.567 72.686,7.587 72.826,7.587C72.936,7.587 73.046,7.567 73.106,7.517C73.176,7.467 73.196,7.347 73.196,7.217Z" style="fill:white;fill-rule:nonzero;"/>
            <path d="M75.186,6.637L75.186,13.467C75.186,14.407 75.556,14.797 76.366,14.797C76.746,14.797 77.096,14.737 77.336,14.687L77.336,14.227C77.136,14.257 76.866,14.297 76.536,14.297C76.066,14.297 75.766,14.127 75.766,13.407L75.766,6.637L75.186,6.637Z" style="fill:white;fill-rule:nonzero;"/>
            <path d="M82.536,14.737L82.536,11.257C82.536,10.157 82.376,9.737 82.126,9.467C81.856,9.157 81.366,9.027 80.596,9.027C79.796,9.027 78.966,9.197 78.546,9.307L78.546,9.777C78.926,9.707 79.796,9.547 80.476,9.547C81.106,9.547 81.476,9.647 81.656,9.857C81.846,10.087 81.966,10.487 81.966,11.457C80.176,11.617 79.036,11.827 78.606,12.147C78.386,12.287 78.166,12.667 78.166,13.297C78.166,13.817 78.286,14.167 78.486,14.387C78.716,14.647 79.136,14.837 79.916,14.837C80.886,14.837 81.486,14.587 81.656,14.467C81.706,14.427 81.846,14.237 81.926,14.127L81.976,14.127L82.116,14.737L82.536,14.737ZM81.966,13.957C81.666,14.107 80.956,14.347 80.106,14.347C79.496,14.347 79.136,14.207 78.966,14.027C78.826,13.867 78.736,13.607 78.736,13.247C78.736,12.827 78.836,12.577 78.986,12.447C79.216,12.197 80.666,11.987 81.966,11.907L81.966,13.957Z" style="fill:white;fill-rule:nonzero;"/>
            <path d="M89.466,11.667C89.466,10.517 89.176,9.827 88.776,9.467C88.456,9.187 87.986,9.017 87.206,9.017C86.446,9.017 85.786,9.197 85.626,9.307C85.566,9.337 85.336,9.557 85.256,9.667L85.216,9.667L85.216,6.637L84.636,6.637L84.636,14.737L84.716,14.737L85.006,14.567C85.506,14.687 86.096,14.787 86.786,14.787C87.736,14.787 88.316,14.577 88.696,14.217C89.176,13.757 89.466,12.857 89.466,11.667ZM88.866,11.787C88.866,12.827 88.616,13.527 88.256,13.867C87.956,14.147 87.486,14.297 86.726,14.297C86.156,14.297 85.606,14.217 85.216,14.157L85.216,9.867C85.706,9.647 86.376,9.537 86.986,9.537C87.656,9.537 88.056,9.667 88.316,9.897C88.606,10.157 88.866,10.737 88.866,11.787Z" style="fill:white;fill-rule:nonzero;"/>
            <path d="M91.266,6.637L91.266,13.467C91.266,14.407 91.636,14.797 92.446,14.797C92.826,14.797 93.176,14.737 93.416,14.687L93.416,14.227C93.216,14.257 92.946,14.297 92.616,14.297C92.146,14.297 91.846,14.127 91.846,13.407L91.846,6.637L91.266,6.637Z" style="fill:white;fill-rule:nonzero;"/>
            <path d="M94.236,11.977C94.236,13.887 94.906,14.847 96.776,14.847C97.546,14.847 98.266,14.707 98.666,14.607L98.706,14.127C98.316,14.187 97.656,14.317 96.846,14.317C95.276,14.317 94.836,13.487 94.836,11.957L98.926,11.957L98.926,11.267C98.926,9.827 98.396,9.017 96.796,9.017C95.036,9.017 94.236,10.017 94.236,11.977ZM96.736,9.497C97.946,9.497 98.356,10.067 98.356,11.307L98.356,11.507L94.856,11.507C94.936,10.177 95.446,9.497 96.736,9.497Z" style="fill:white;fill-rule:nonzero;"/>
        </g>
        <g transform="matrix(1,0,0,1,146.834,2.16146)">
            <path d="M59.256,14.737L56.456,7.237L55.386,7.237L52.386,14.737L52.996,14.737L54.006,12.177L57.666,12.177L58.606,14.737L59.256,14.737ZM57.486,11.657L54.196,11.657L55.736,7.787L56.056,7.787L57.486,11.657Z" style="fill:white;fill-rule:nonzero;"/>
            <path d="M65.126,9.127L64.496,9.127L62.526,14.197L62.286,14.197L60.386,9.127L59.756,9.127L61.886,14.737L62.886,14.737L65.126,9.127Z" style="fill:white;fill-rule:nonzero;"/>
            <path d="M70.416,14.737L70.416,11.257C70.416,10.157 70.256,9.737 70.006,9.467C69.736,9.157 69.246,9.027 68.476,9.027C67.676,9.027 66.846,9.197 66.426,9.307L66.426,9.777C66.806,9.707 67.676,9.547 68.356,9.547C68.986,9.547 69.356,9.647 69.536,9.857C69.726,10.087 69.846,10.487 69.846,11.457C68.056,11.617 66.916,11.827 66.486,12.147C66.266,12.287 66.046,12.667 66.046,13.297C66.046,13.817 66.166,14.167 66.366,14.387C66.596,14.647 67.016,14.837 67.796,14.837C68.766,14.837 69.366,14.587 69.536,14.467C69.586,14.427 69.726,14.237 69.806,14.127L69.856,14.127L69.996,14.737L70.416,14.737ZM69.846,13.957C69.546,14.107 68.836,14.347 67.986,14.347C67.376,14.347 67.016,14.207 66.846,14.027C66.706,13.867 66.616,13.607 66.616,13.247C66.616,12.827 66.716,12.577 66.866,12.447C67.096,12.197 68.546,11.987 69.846,11.907L69.846,13.957Z" style="fill:white;fill-rule:nonzero;"/>
            <path d="M73.106,14.737L73.106,9.127L72.526,9.127L72.526,14.737L73.106,14.737ZM73.196,7.217C73.196,7.087 73.176,6.987 73.106,6.927C73.056,6.877 72.966,6.857 72.846,6.857C72.716,6.857 72.616,6.887 72.586,6.927C72.506,6.967 72.466,7.077 72.466,7.227C72.466,7.357 72.496,7.457 72.546,7.507C72.596,7.567 72.686,7.587 72.826,7.587C72.936,7.587 73.046,7.567 73.106,7.517C73.176,7.467 73.196,7.347 73.196,7.217Z" style="fill:white;fill-rule:nonzero;"/>
            <path d="M75.186,6.637L75.186,13.467C75.186,14.407 75.556,14.797 76.366,14.797C76.746,14.797 77.096,14.737 77.336,14.687L77.336,14.227C77.136,14.257 76.866,14.297 76.536,14.297C76.066,14.297 75.766,14.127 75.766,13.407L75.766,6.637L75.186,6.637Z" style="fill:white;fill-rule:nonzero;"/>
            <path d="M82.536,14.737L82.536,11.257C82.536,10.157 82.376,9.737 82.126,9.467C81.856,9.157 81.366,9.027 80.596,9.027C79.796,9.027 78.966,9.197 78.546,9.307L78.546,9.777C78.926,9.707 79.796,9.547 80.476,9.547C81.106,9.547 81.476,9.647 81.656,9.857C81.846,10.087 81.966,10.487 81.966,11.457C80.176,11.617 79.036,11.827 78.606,12.147C78.386,12.287 78.166,12.667 78.166,13.297C78.166,13.817 78.286,14.167 78.486,14.387C78.716,14.647 79.136,14.837 79.916,14.837C80.886,14.837 81.486,14.587 81.656,14.467C81.706,14.427 81.846,14.237 81.926,14.127L81.976,14.127L82.116,14.737L82.536,14.737ZM81.966,13.957C81.666,14.107 80.956,14.347 80.106,14.347C79.496,14.347 79.136,14.207 78.966,14.027C78.826,13.867 78.736,13.607 78.736,13.247C78.736,12.827 78.836,12.577 78.986,12.447C79.216,12.197 80.666,11.987 81.966,11.907L81.966,13.957Z" style="fill:white;fill-rule:nonzero;"/>
            <path d="M89.466,11.667C89.466,10.517 89.176,9.827 88.776,9.467C88.456,9.187 87.986,9.017 87.206,9.017C86.446,9.017 85.786,9.197 85.626,9.307C85.566,9.337 85.336,9.557 85.256,9.667L85.216,9.667L85.216,6.637L84.636,6.637L84.636,14.737L84.716,14.737L85.006,14.567C85.506,14.687 86.096,14.787 86.786,14.787C87.736,14.787 88.316,14.577 88.696,14.217C89.176,13.757 89.466,12.857 89.466,11.667ZM88.866,11.787C88.866,12.827 88.616,13.527 88.256,13.867C87.956,14.147 87.486,14.297 86.726,14.297C86.156,14.297 85.606,14.217 85.216,14.157L85.216,9.867C85.706,9.647 86.376,9.537 86.986,9.537C87.656,9.537 88.056,9.667 88.316,9.897C88.606,10.157 88.866,10.737 88.866,11.787Z" style="fill:white;fill-rule:nonzero;"/>
            <path d="M91.266,6.637L91.266,13.467C91.266,14.407 91.636,14.797 92.446,14.797C92.826,14.797 93.176,14.737 93.416,14.687L93.416,14.227C93.216,14.257 92.946,14.297 92.616,14.297C92.146,14.297 91.846,14.127 91.846,13.407L91.846,6.637L91.266,6.637Z" style="fill:white;fill-rule:nonzero;"/>
            <path d="M94.236,11.977C94.236,13.887 94.906,14.847 96.776,14.847C97.546,14.847 98.266,14.707 98.666,14.607L98.706,14.127C98.316,14.187 97.656,14.317 96.846,14.317C95.276,14.317 94.836,13.487 94.836,11.957L98.926,11.957L98.926,11.267C98.926,9.827 98.396,9.017 96.796,9.017C95.036,9.017 94.236,10.017 94.236,11.977ZM96.736,9.497C97.946,9.497 98.356,10.067 98.356,11.307L98.356,11.507L94.856,11.507C94.936,10.177 95.446,9.497 96.736,9.497Z" style="fill:white;fill-rule:nonzero;"/>
        </g>
        <path d="M240.94,82.202L49.577,82.204L72.321,59.478L263.666,59.478L240.94,82.202Z" style="fill:rgb(55,124,33);"/>
        <g transform="matrix(1,0,0,1,47.7587,0)">
            <path d="M46.101,68.432L46.101,74.432L46.573,74.432L46.573,71.8L47.405,71.8C48.013,71.8 48.437,71.832 48.597,71.936C48.909,72.128 49.253,72.864 49.941,74.432L50.453,74.432C49.941,73.256 49.509,72.256 49.269,71.96C49.181,71.864 48.949,71.728 48.781,71.648L48.781,71.632C49.109,71.52 49.437,71.336 49.525,71.264C49.765,71.04 49.989,70.56 49.989,69.952C49.989,69.28 49.805,68.912 49.533,68.72C49.277,68.528 48.845,68.432 47.909,68.432L46.101,68.432ZM46.573,68.84L47.877,68.84C48.685,68.84 49.005,68.928 49.197,69.08C49.389,69.224 49.509,69.528 49.509,70.016C49.509,70.664 49.221,71.12 48.861,71.264C48.669,71.336 48.349,71.384 47.837,71.384L46.573,71.384L46.573,68.84Z" style="fill:white;fill-rule:nonzero;"/>
            <path d="M51.285,72.224C51.285,73.752 51.821,74.52 53.317,74.52C53.933,74.52 54.509,74.408 54.829,74.328L54.861,73.944C54.549,73.992 54.021,74.096 53.373,74.096C52.117,74.096 51.765,73.432 51.765,72.208L55.037,72.208L55.037,71.656C55.037,70.504 54.613,69.856 53.333,69.856C51.925,69.856 51.285,70.656 51.285,72.224ZM53.285,70.24C54.253,70.24 54.581,70.696 54.581,71.688L54.581,71.848L51.781,71.848C51.845,70.784 52.253,70.24 53.285,70.24Z" style="fill:white;fill-rule:nonzero;"/>
            <path d="M56.197,72.336C56.197,73.256 56.445,73.84 56.773,74.128C57.029,74.352 57.437,74.488 58.053,74.488C58.669,74.488 59.149,74.36 59.293,74.272C59.341,74.248 59.509,74.08 59.573,73.984L59.605,73.984L59.605,76.552L60.069,76.552L60.069,69.896L60.005,69.896L59.765,70.032C59.373,69.936 58.933,69.848 58.397,69.848C57.605,69.848 57.109,70.032 56.821,70.312C56.429,70.696 56.197,71.384 56.197,72.336ZM56.677,72.272C56.677,71.44 56.869,70.872 57.157,70.6C57.405,70.36 57.789,70.248 58.389,70.248C58.845,70.248 59.269,70.304 59.605,70.36L59.605,73.824C59.205,74 58.645,74.072 58.213,74.072C57.669,74.072 57.325,73.976 57.125,73.784C56.893,73.568 56.677,73.08 56.677,72.272Z" style="fill:white;fill-rule:nonzero;"/>
            <path d="M65.389,74.432L65.389,69.944L64.925,69.944L64.925,73.776C64.565,73.936 64.045,74.072 63.525,74.072C63.037,74.072 62.701,73.992 62.509,73.792C62.325,73.6 62.213,73.288 62.213,72.68L62.213,69.944L61.749,69.944L61.749,72.856C61.749,73.472 61.885,73.848 62.117,74.096C62.365,74.352 62.701,74.488 63.349,74.488C63.909,74.488 64.437,74.352 64.661,74.24C64.677,74.232 64.869,73.984 64.885,73.952L64.933,73.952L65.053,74.432L65.389,74.432Z" style="fill:white;fill-rule:nonzero;"/>
            <path d="M67.541,74.432L67.541,69.944L67.077,69.944L67.077,74.432L67.541,74.432ZM67.613,68.416C67.613,68.312 67.597,68.232 67.541,68.184C67.501,68.144 67.429,68.128 67.333,68.128C67.229,68.128 67.149,68.152 67.125,68.184C67.061,68.216 67.029,68.304 67.029,68.424C67.029,68.528 67.053,68.608 67.093,68.648C67.133,68.696 67.205,68.712 67.317,68.712C67.405,68.712 67.493,68.696 67.541,68.656C67.597,68.616 67.613,68.52 67.613,68.416Z" style="fill:white;fill-rule:nonzero;"/>
            <path d="M69.229,69.944L69.229,74.432L69.693,74.432L69.693,70.656C69.965,70.48 70.477,70.296 71.021,70.304C71.293,70.304 71.525,70.336 71.661,70.36L71.661,69.912C71.541,69.896 71.373,69.88 71.149,69.88C70.589,69.88 70.181,70.032 69.965,70.16C69.949,70.176 69.757,70.408 69.733,70.44L69.685,70.44L69.573,69.944L69.229,69.944Z" style="fill:white;fill-rule:nonzero;"/>
            <path d="M72.213,72.224C72.213,73.752 72.749,74.52 74.245,74.52C74.861,74.52 75.437,74.408 75.757,74.328L75.789,73.944C75.477,73.992 74.949,74.096 74.301,74.096C73.045,74.096 72.693,73.432 72.693,72.208L75.965,72.208L75.965,71.656C75.965,70.504 75.541,69.856 74.261,69.856C72.853,69.856 72.213,70.656 72.213,72.224ZM74.213,70.24C75.181,70.24 75.509,70.696 75.509,71.688L75.509,71.848L72.709,71.848C72.773,70.784 73.181,70.24 74.213,70.24Z" style="fill:white;fill-rule:nonzero;"/>
            <path d="M80.061,73.2C80.061,72.896 79.989,72.64 79.829,72.456C79.661,72.264 79.317,72.128 78.661,71.976C78.053,71.84 77.773,71.728 77.637,71.568C77.533,71.448 77.501,71.28 77.501,71.112C77.501,70.544 77.773,70.224 78.717,70.224C79.189,70.224 79.565,70.272 79.909,70.328L79.909,69.944C79.637,69.888 79.205,69.824 78.709,69.824C77.517,69.824 77.045,70.312 77.045,71.136C77.045,71.392 77.101,71.656 77.245,71.824C77.469,72.104 77.845,72.224 78.477,72.376C79.021,72.504 79.325,72.608 79.469,72.768C79.565,72.896 79.605,73.064 79.605,73.232C79.605,73.8 79.349,74.088 78.341,74.088C77.853,74.088 77.357,74.016 77.029,73.952L77.029,74.344C77.349,74.424 77.893,74.488 78.341,74.488C79.701,74.488 80.061,73.992 80.061,73.2Z" style="fill:white;fill-rule:nonzero;"/>
            <path d="M81.725,70.144C81.725,70.032 81.709,69.944 81.653,69.896C81.613,69.864 81.525,69.84 81.421,69.84C81.309,69.84 81.229,69.872 81.189,69.896C81.117,69.928 81.093,70.024 81.093,70.144C81.093,70.264 81.117,70.344 81.157,70.392C81.205,70.44 81.285,70.456 81.413,70.456C81.501,70.456 81.605,70.44 81.653,70.4C81.709,70.352 81.725,70.248 81.725,70.144ZM81.725,74.152C81.725,74.048 81.709,73.952 81.653,73.912C81.613,73.872 81.525,73.848 81.421,73.848C81.309,73.848 81.229,73.88 81.189,73.904C81.117,73.936 81.093,74.04 81.093,74.16C81.093,74.272 81.117,74.352 81.157,74.408C81.205,74.448 81.285,74.472 81.413,74.472C81.501,74.472 81.605,74.456 81.653,74.416C81.709,74.36 81.725,74.264 81.725,74.152Z" style="fill:white;fill-rule:nonzero;"/>
            <path d="M93.699,74.432L90.899,66.932L89.829,66.932L86.829,74.432L87.439,74.432L88.449,71.872L92.109,71.872L93.049,74.432L93.699,74.432ZM91.929,71.352L88.639,71.352L90.179,67.482L90.499,67.482L91.929,71.352Z" style="fill:white;fill-rule:nonzero;"/>
            <path d="M99.689,74.432L99.689,70.762C99.689,70.002 99.529,69.492 99.219,69.202C98.919,68.902 98.489,68.742 97.759,68.742C97.049,68.742 96.329,68.942 96.059,69.092C96.029,69.112 95.799,69.372 95.769,69.412L95.719,69.412L95.559,68.822L95.139,68.822L95.139,74.432L95.719,74.432L95.719,69.632C96.159,69.452 96.789,69.262 97.509,69.262C98.029,69.262 98.469,69.362 98.719,69.602C98.969,69.842 99.109,70.252 99.109,70.962L99.109,74.432L99.689,74.432Z" style="fill:white;fill-rule:nonzero;"/>
            <path d="M105.779,74.432L105.779,70.952C105.779,69.852 105.619,69.432 105.369,69.162C105.099,68.852 104.609,68.722 103.839,68.722C103.039,68.722 102.209,68.892 101.789,69.002L101.789,69.472C102.169,69.402 103.039,69.242 103.719,69.242C104.349,69.242 104.719,69.342 104.899,69.552C105.089,69.782 105.209,70.182 105.209,71.152C103.419,71.312 102.279,71.522 101.849,71.842C101.629,71.982 101.409,72.362 101.409,72.992C101.409,73.512 101.529,73.862 101.729,74.082C101.959,74.342 102.379,74.532 103.159,74.532C104.129,74.532 104.729,74.282 104.899,74.162C104.949,74.122 105.089,73.932 105.169,73.822L105.219,73.822L105.359,74.432L105.779,74.432ZM105.209,73.652C104.909,73.802 104.199,74.042 103.349,74.042C102.739,74.042 102.379,73.902 102.209,73.722C102.069,73.562 101.979,73.302 101.979,72.942C101.979,72.522 102.079,72.272 102.229,72.142C102.459,71.892 103.909,71.682 105.209,71.602L105.209,73.652Z" style="fill:white;fill-rule:nonzero;"/>
            <path d="M107.859,66.332L107.859,73.162C107.859,74.102 108.229,74.492 109.039,74.492C109.419,74.492 109.769,74.432 110.009,74.382L110.009,73.922C109.809,73.952 109.539,73.992 109.209,73.992C108.739,73.992 108.439,73.822 108.439,73.102L108.439,66.332L107.859,66.332Z" style="fill:white;fill-rule:nonzero;"/>
            <path d="M115.739,68.822L115.109,68.822L113.129,73.922L112.869,73.922L110.999,68.822L110.369,68.822L112.469,74.432L112.929,74.432L111.829,77.172L112.439,77.172L115.739,68.822Z" style="fill:white;fill-rule:nonzero;"/>
            <path d="M120.959,68.822L116.799,68.822L116.669,69.332L120.319,69.332L120.319,69.452L116.489,73.752L116.489,74.432L120.949,74.432L121.109,73.922L117.169,73.922L117.169,73.792L120.959,69.532L120.959,68.822Z" style="fill:white;fill-rule:nonzero;"/>
            <path d="M122.219,71.672C122.219,73.582 122.889,74.542 124.759,74.542C125.529,74.542 126.249,74.402 126.649,74.302L126.689,73.822C126.299,73.882 125.639,74.012 124.829,74.012C123.259,74.012 122.819,73.182 122.819,71.652L126.909,71.652L126.909,70.962C126.909,69.522 126.379,68.712 124.779,68.712C123.019,68.712 122.219,69.712 122.219,71.672ZM124.719,69.192C125.929,69.192 126.339,69.762 126.339,71.002L126.339,71.202L122.839,71.202C122.919,69.872 123.429,69.192 124.719,69.192Z" style="fill:white;fill-rule:nonzero;"/>
            <path d="M136.319,67.022C135.799,66.932 135.219,66.832 134.319,66.832C133.019,66.832 132.309,67.132 131.819,67.552C131.359,67.922 130.709,68.882 130.709,70.802C130.709,72.412 131.109,73.332 131.569,73.782C132.089,74.272 132.729,74.532 134.009,74.532C134.869,74.532 135.709,74.392 136.319,74.232L136.319,73.732C135.789,73.832 134.979,73.982 134.119,73.982C133.069,73.982 132.429,73.772 132.039,73.382C131.569,72.912 131.319,71.972 131.319,70.712C131.319,69.292 131.779,68.302 132.239,67.932C132.649,67.612 133.249,67.382 134.329,67.382C135.279,67.382 135.799,67.472 136.319,67.532L136.319,67.022Z" style="fill:white;fill-rule:nonzero;"/>
            <path d="M142.019,74.432L142.019,70.952C142.019,69.852 141.859,69.432 141.609,69.162C141.339,68.852 140.849,68.722 140.079,68.722C139.279,68.722 138.449,68.892 138.029,69.002L138.029,69.472C138.409,69.402 139.279,69.242 139.959,69.242C140.589,69.242 140.959,69.342 141.139,69.552C141.329,69.782 141.449,70.182 141.449,71.152C139.659,71.312 138.519,71.522 138.089,71.842C137.869,71.982 137.649,72.362 137.649,72.992C137.649,73.512 137.769,73.862 137.969,74.082C138.199,74.342 138.619,74.532 139.399,74.532C140.369,74.532 140.969,74.282 141.139,74.162C141.189,74.122 141.329,73.932 141.409,73.822L141.459,73.822L141.599,74.432L142.019,74.432ZM141.449,73.652C141.149,73.802 140.439,74.042 139.589,74.042C138.979,74.042 138.619,73.902 138.449,73.722C138.309,73.562 138.219,73.302 138.219,72.942C138.219,72.522 138.319,72.272 138.469,72.142C138.699,71.892 140.149,71.682 141.449,71.602L141.449,73.652Z" style="fill:white;fill-rule:nonzero;"/>
            <path d="M147.509,72.892C147.509,72.512 147.419,72.192 147.219,71.962C147.009,71.722 146.579,71.552 145.759,71.362C144.999,71.192 144.649,71.052 144.479,70.852C144.349,70.702 144.309,70.492 144.309,70.282C144.309,69.572 144.649,69.172 145.829,69.172C146.419,69.172 146.889,69.232 147.319,69.302L147.319,68.822C146.979,68.752 146.439,68.672 145.819,68.672C144.329,68.672 143.739,69.282 143.739,70.312C143.739,70.632 143.809,70.962 143.989,71.172C144.269,71.522 144.739,71.672 145.529,71.862C146.209,72.022 146.589,72.152 146.769,72.352C146.889,72.512 146.939,72.722 146.939,72.932C146.939,73.642 146.619,74.002 145.359,74.002C144.749,74.002 144.129,73.912 143.719,73.832L143.719,74.322C144.119,74.422 144.799,74.502 145.359,74.502C147.059,74.502 147.509,73.882 147.509,72.892Z" style="fill:white;fill-rule:nonzero;"/>
            <path d="M151.569,69.202C152.229,69.202 152.749,69.282 153.099,69.332L153.099,68.832C152.729,68.762 152.179,68.672 151.509,68.672C150.669,68.672 150.039,68.872 149.609,69.292C149.079,69.782 148.809,70.642 148.809,71.762C148.809,72.742 149.039,73.522 149.559,74.002C149.949,74.372 150.549,74.552 151.339,74.552C152.129,74.552 152.709,74.412 153.099,74.302L153.099,73.852C152.709,73.912 152.139,74.022 151.429,74.022C150.819,74.022 150.329,73.902 149.999,73.592C149.609,73.232 149.419,72.612 149.419,71.692C149.419,70.732 149.629,70.022 150.039,69.642C150.359,69.332 150.889,69.202 151.569,69.202Z" style="fill:white;fill-rule:nonzero;"/>
            <path d="M158.729,74.432L158.729,70.952C158.729,69.852 158.569,69.432 158.319,69.162C158.049,68.852 157.559,68.722 156.789,68.722C155.989,68.722 155.159,68.892 154.739,69.002L154.739,69.472C155.119,69.402 155.989,69.242 156.669,69.242C157.299,69.242 157.669,69.342 157.849,69.552C158.039,69.782 158.159,70.182 158.159,71.152C156.369,71.312 155.229,71.522 154.799,71.842C154.579,71.982 154.359,72.362 154.359,72.992C154.359,73.512 154.479,73.862 154.679,74.082C154.909,74.342 155.329,74.532 156.109,74.532C157.079,74.532 157.679,74.282 157.849,74.162C157.899,74.122 158.039,73.932 158.119,73.822L158.169,73.822L158.309,74.432L158.729,74.432ZM158.159,73.652C157.859,73.802 157.149,74.042 156.299,74.042C155.689,74.042 155.329,73.902 155.159,73.722C155.019,73.562 154.929,73.302 154.929,72.942C154.929,72.522 155.029,72.272 155.179,72.142C155.409,71.892 156.859,71.682 158.159,71.602L158.159,73.652Z" style="fill:white;fill-rule:nonzero;"/>
            <path d="M164.739,68.932C164.269,68.812 163.809,68.722 163.139,68.722C162.289,68.722 161.719,68.922 161.319,69.312C160.829,69.772 160.549,70.662 160.549,71.792C160.549,73.072 160.869,73.772 161.259,74.102C161.609,74.392 162.119,74.552 162.909,74.552C163.679,74.552 164.189,74.382 164.359,74.272C164.419,74.232 164.609,74.012 164.709,73.902L164.739,73.902L164.879,74.432L165.329,74.432L165.329,66.282L164.739,66.282L164.739,68.932ZM161.149,71.752C161.149,70.672 161.399,69.982 161.739,69.662C162.059,69.362 162.519,69.222 163.219,69.222C163.839,69.222 164.359,69.322 164.739,69.372L164.739,73.702C164.239,73.942 163.629,74.042 163.069,74.042C162.479,74.042 161.979,73.912 161.719,73.682C161.409,73.412 161.149,72.852 161.149,71.752Z" style="fill:white;fill-rule:nonzero;"/>
            <path d="M167.159,71.672C167.159,73.582 167.829,74.542 169.699,74.542C170.469,74.542 171.189,74.402 171.589,74.302L171.629,73.822C171.239,73.882 170.579,74.012 169.769,74.012C168.199,74.012 167.759,73.182 167.759,71.652L171.849,71.652L171.849,70.962C171.849,69.522 171.319,68.712 169.719,68.712C167.959,68.712 167.159,69.712 167.159,71.672ZM169.659,69.192C170.869,69.192 171.279,69.762 171.279,71.002L171.279,71.202L167.779,71.202C167.859,69.872 168.369,69.192 169.659,69.192Z" style="fill:white;fill-rule:nonzero;"/>
        </g>
        <path id="primary1" d="M2.837,42.52L42.521,82.204L82.205,42.521L42.52,2.836L2.837,42.52L2.837,42.52Z" style="fill:rgb(55,124,33);"/>
        <rect x="24.028" y="31.718" width="1.416" height="18.002" style="fill:white;"/>
        <path d="M43.037,49.72L32.692,33.063L32.26,33.063L32.26,49.72L30.94,49.72L30.94,31.718L33.436,31.718L43.685,48.231L44.141,48.231L44.141,31.718L45.461,31.718L45.461,49.72L43.037,49.72L43.037,49.72Z" style="fill:white;fill-rule:nonzero;"/>
        <path d="M62.981,32.99L56.62,32.99L56.62,49.72L55.228,49.72L55.228,32.99L48.724,32.99L49.06,31.718L63.269,31.718L62.981,32.99L62.981,32.99Z" style="fill:white;fill-rule:nonzero;"/>
    </g>
</svg>
