<?xml version="1.0" standalone="no"?>
<!DOCTYPE svg PUBLIC "-//W3C//DTD SVG 1.1//EN" "http://www.w3.org/Graphics/SVG/1.1/DTD/svg11.dtd">
<svg width="100%" height="100%" viewBox="0 0 260 86" version="1.1" xmlns="http://www.w3.org/2000/svg" xmlns:xlink="http://www.w3.org/1999/xlink" xml:space="preserve" style="fill-rule:evenodd;clip-rule:evenodd;stroke-linejoin:round;stroke-miterlimit:1.41421;">
    <g transform="matrix(1,0,0,1,51.0962,0.4805)">
        <path d="M91.943,53.858L87.75,58.051L86.322,59.479L152.764,59.478L152.764,59.478L186.291,59.478L163.565,82.202L54.558,82.204L82.922,53.858L73.486,53.858L81.781,45.564L77.206,45.564L77.206,39.475L81.779,39.475L73.484,31.181L82.92,31.181L80.03,28.293L54.558,2.835C54.558,2.835 163.565,2.837 163.565,2.837L186.291,25.561L152.764,25.561L152.764,25.561L86.322,25.56C86.322,25.56 91.943,31.181 91.943,31.181L191.915,31.181L203.255,42.521L191.918,53.858L91.943,53.858Z" style="fill:rgb(51,51,51);"/>
    </g>
    <g id="primary">
        <g transform="matrix(1,0,0,1,2.81204,0.482)">
            <path d="M2.837,42.52L42.521,82.2L82.205,42.521L42.52,2.836L2.837,42.52L2.837,42.52Z" style="fill:rgb(55,124,33);"/>
        </g>
        <g transform="matrix(0.425962,0,0,0.425962,33.9551,24.889)">
            <path d="M90.317,82.2L130,42.522L90.314,2.836L189.261,2.836L228.946,42.521L189.262,82.2L90.317,82.2Z" style="fill:rgb(55,124,33);"/>
        </g>
        <g transform="matrix(1,0,0,1,2.87495,0)">
            <g transform="matrix(0.251991,0,-3.85186e-34,0.251991,131.715,32.2854)">
                <path d="M2.837,42.52L42.521,82.204L82.205,42.521L42.52,2.836L2.837,42.52L2.837,42.52Z" style="fill:black;"/>
            </g>
            <g transform="matrix(0.0793742,0,-1.21329e-34,0.0793742,135.63,43.0501)">
                <path d="M2.837,42.52L42.521,82.204L82.205,42.521L42.52,2.836L2.837,42.52L2.837,42.52Z" style="fill:rgb(55,124,33);"/>
            </g>
        </g>
        <g transform="matrix(1,0,0,1,2.26402,0.713296)">
            <g transform="matrix(0.251991,0,-3.85186e-34,0.251991,116.896,3.11354)">
                <path d="M2.837,42.52L42.521,82.204L82.205,42.521L42.52,2.836L2.837,42.52L2.837,42.52Z" style="fill:black;"/>
            </g>
            <g transform="matrix(0.0793742,0,-1.21329e-34,0.0793742,120.811,13.8783)">
                <path d="M2.837,42.52L42.521,82.204L82.205,42.521L42.52,2.836L2.837,42.52L2.837,42.52Z" style="fill:rgb(55,124,33);"/>
            </g>
        </g>
        <g transform="matrix(1,0,0,1,2.26402,0.75384)">
            <g transform="matrix(0.251991,0,-3.85186e-34,0.251991,116.896,59.7854)">
                <path d="M2.837,42.52L42.521,82.204L82.205,42.521L42.52,2.836L2.837,42.52L2.837,42.52Z" style="fill:black;"/>
            </g>
            <g transform="matrix(0.0793742,0,-1.21329e-34,0.0793742,120.811,70.643)">
                <path d="M2.837,42.52L42.521,82.204L82.205,42.521L42.52,2.836L2.837,42.52L2.837,42.52Z" style="fill:rgb(55,124,33);"/>
            </g>
        </g>
        <g transform="matrix(1,0,0,1,4.31554,0)">
            <rect x="24.028" y="31.718" width="1.416" height="18.002" style="fill:white;"/>
            <path d="M43.037,49.72L32.692,33.063L32.26,33.063L32.26,49.72L30.94,49.72L30.94,31.718L33.436,31.718L43.685,48.231L44.141,48.231L44.141,31.718L45.461,31.718L45.461,49.72L43.037,49.72L43.037,49.72Z" style="fill:white;fill-rule:nonzero;"/>
            <path d="M62.981,32.99L56.62,32.99L56.62,49.72L55.228,49.72L55.228,32.99L48.724,32.99L49.06,31.718L63.269,31.718L62.981,32.99L62.981,32.99Z" style="fill:white;fill-rule:nonzero;"/>
        </g>
        <g transform="matrix(1,0,0,1,3.82271,0)">
            <g transform="matrix(1,0,0,1,11.0175,-26.8795)">
                <path d="M82.182,69.122L80.082,63.497L79.28,63.497L77.03,69.122L77.487,69.122L78.245,67.202L80.99,67.202L81.695,69.122L82.182,69.122ZM80.855,66.812L78.387,66.812L79.542,63.91L79.782,63.91L80.855,66.812Z" style="fill:white;fill-rule:nonzero;"/>
            </g>
            <g transform="matrix(1,0,0,1,11.0175,-26.8795)">
                <path d="M86.675,69.122L86.675,66.37C86.675,65.8 86.555,65.417 86.322,65.2C86.097,64.975 85.775,64.855 85.227,64.855C84.695,64.855 84.155,65.005 83.952,65.117C83.93,65.132 83.757,65.327 83.735,65.357L83.697,65.357L83.577,64.915L83.262,64.915L83.262,69.122L83.697,69.122L83.697,65.522C84.027,65.387 84.5,65.245 85.04,65.245C85.43,65.245 85.76,65.32 85.947,65.5C86.135,65.68 86.24,65.987 86.24,66.52L86.24,69.122L86.675,69.122Z" style="fill:white;fill-rule:nonzero;"/>
            </g>
            <g transform="matrix(1,0,0,1,11.0175,-26.8795)">
                <path d="M91.242,69.122L91.242,66.512C91.242,65.687 91.122,65.372 90.935,65.17C90.732,64.937 90.365,64.84 89.787,64.84C89.187,64.84 88.565,64.967 88.25,65.05L88.25,65.402C88.535,65.35 89.187,65.23 89.697,65.23C90.17,65.23 90.447,65.305 90.582,65.462C90.725,65.635 90.815,65.935 90.815,66.662C89.472,66.782 88.617,66.94 88.295,67.18C88.13,67.285 87.965,67.57 87.965,68.042C87.965,68.432 88.055,68.695 88.205,68.86C88.377,69.055 88.692,69.197 89.277,69.197C90.005,69.197 90.455,69.01 90.582,68.92C90.62,68.89 90.725,68.747 90.785,68.665L90.822,68.665L90.927,69.122L91.242,69.122ZM90.815,68.537C90.59,68.65 90.057,68.83 89.42,68.83C88.962,68.83 88.692,68.725 88.565,68.59C88.46,68.47 88.392,68.275 88.392,68.005C88.392,67.69 88.467,67.502 88.58,67.405C88.752,67.217 89.84,67.06 90.815,67L90.815,68.537Z" style="fill:white;fill-rule:nonzero;"/>
            </g>
            <g transform="matrix(1,0,0,1,11.0175,-26.8795)">
                <path d="M92.802,63.047L92.802,68.17C92.802,68.875 93.08,69.167 93.687,69.167C93.972,69.167 94.235,69.122 94.415,69.085L94.415,68.74C94.265,68.762 94.062,68.792 93.815,68.792C93.462,68.792 93.237,68.665 93.237,68.125L93.237,63.047L92.802,63.047L92.802,63.047Z" style="fill:white;fill-rule:nonzero;"/>
            </g>
            <g transform="matrix(1,0,0,1,11.0175,-26.8795)">
                <path d="M98.712,64.915L98.24,64.915L96.755,68.74L96.56,68.74L95.157,64.915L94.685,64.915L96.26,69.122L96.605,69.122L95.78,71.177L96.237,71.177L98.712,64.915Z" style="fill:white;fill-rule:nonzero;"/>
            </g>
            <g transform="matrix(1,0,0,1,11.0175,-26.8795)">
                <path d="M102.627,64.915L99.507,64.915L99.41,65.297L102.147,65.297L102.147,65.387L99.275,68.612L99.275,69.122L102.62,69.122L102.74,68.74L99.785,68.74L99.785,68.642L102.627,65.447L102.627,64.915L102.627,64.915Z" style="fill:white;fill-rule:nonzero;"/>
            </g>
            <g transform="matrix(1,0,0,1,11.0175,-26.8795)">
                <path d="M103.572,67.052C103.572,68.485 104.075,69.205 105.477,69.205C106.055,69.205 106.595,69.1 106.895,69.025L106.925,68.665C106.632,68.71 106.137,68.807 105.53,68.807C104.352,68.807 104.022,68.185 104.022,67.037L107.09,67.037L107.09,66.52C107.09,65.44 106.692,64.832 105.492,64.832C104.172,64.832 103.572,65.582 103.572,67.052L103.572,67.052ZM105.447,65.192C106.355,65.192 106.662,65.62 106.662,66.55L106.662,66.7L104.037,66.7C104.097,65.702 104.48,65.192 105.447,65.192L105.447,65.192Z" style="fill:white;fill-rule:nonzero;"/>
            </g>
            <g transform="matrix(1,0,0,1,11.0175,-26.8795)">
                <path d="M81.035,71.065C80.645,70.997 80.21,70.922 79.535,70.922C78.56,70.922 78.027,71.147 77.66,71.462C77.315,71.74 76.827,72.46 76.827,73.9C76.827,75.107 77.127,75.797 77.472,76.135C77.862,76.502 78.342,76.697 79.302,76.697C79.947,76.697 80.577,76.592 81.035,76.472L81.035,76.097C80.637,76.172 80.03,76.285 79.385,76.285C78.597,76.285 78.117,76.127 77.825,75.835C77.472,75.482 77.285,74.777 77.285,73.832C77.285,72.767 77.63,72.025 77.975,71.747C78.282,71.507 78.732,71.335 79.542,71.335C80.255,71.335 80.645,71.402 81.035,71.447L81.035,71.065L81.035,71.065Z" style="fill:white;fill-rule:nonzero;"/>
            </g>
            <g transform="matrix(1,0,0,1,11.0175,-26.8795)">
                <path d="M85.31,76.622L85.31,74.012C85.31,73.187 85.19,72.872 85.002,72.67C84.8,72.437 84.432,72.34 83.855,72.34C83.255,72.34 82.632,72.467 82.317,72.55L82.317,72.902C82.602,72.85 83.255,72.73 83.765,72.73C84.237,72.73 84.515,72.805 84.65,72.962C84.792,73.135 84.882,73.435 84.882,74.162C83.54,74.282 82.685,74.44 82.362,74.68C82.197,74.785 82.032,75.07 82.032,75.542C82.032,75.932 82.122,76.195 82.272,76.36C82.445,76.555 82.76,76.697 83.345,76.697C84.072,76.697 84.522,76.51 84.65,76.42C84.687,76.39 84.792,76.247 84.852,76.165L84.89,76.165L84.995,76.622L85.31,76.622ZM84.882,76.037C84.657,76.15 84.125,76.33 83.487,76.33C83.03,76.33 82.76,76.225 82.632,76.09C82.527,75.97 82.46,75.775 82.46,75.505C82.46,75.19 82.535,75.002 82.647,74.905C82.82,74.717 83.907,74.56 84.882,74.5L84.882,76.037Z" style="fill:white;fill-rule:nonzero;"/>
            </g>
            <g transform="matrix(1,0,0,1,11.0175,-26.8795)">
                <path d="M89.427,75.467C89.427,75.182 89.36,74.942 89.21,74.77C89.052,74.59 88.73,74.462 88.115,74.32C87.545,74.192 87.282,74.087 87.155,73.937C87.057,73.825 87.027,73.667 87.027,73.51C87.027,72.977 87.282,72.677 88.167,72.677C88.61,72.677 88.962,72.722 89.285,72.775L89.285,72.415C89.03,72.362 88.625,72.302 88.16,72.302C87.042,72.302 86.6,72.76 86.6,73.532C86.6,73.772 86.652,74.02 86.787,74.177C86.997,74.44 87.35,74.552 87.942,74.695C88.452,74.815 88.737,74.912 88.872,75.062C88.962,75.182 89,75.34 89,75.497C89,76.03 88.76,76.3 87.815,76.3C87.357,76.3 86.892,76.232 86.585,76.172L86.585,76.54C86.885,76.615 87.395,76.675 87.815,76.675C89.09,76.675 89.427,76.21 89.427,75.467Z" style="fill:white;fill-rule:nonzero;"/>
            </g>
            <g transform="matrix(1,0,0,1,11.0175,-26.8795)">
                <path d="M92.472,72.7C92.967,72.7 93.357,72.76 93.62,72.797L93.62,72.422C93.342,72.37 92.93,72.302 92.427,72.302C91.797,72.302 91.325,72.452 91.002,72.767C90.605,73.135 90.402,73.78 90.402,74.62C90.402,75.355 90.575,75.94 90.965,76.3C91.257,76.577 91.707,76.712 92.3,76.712C92.892,76.712 93.327,76.607 93.62,76.525L93.62,76.187C93.327,76.232 92.9,76.315 92.367,76.315C91.91,76.315 91.542,76.225 91.295,75.992C91.002,75.722 90.86,75.257 90.86,74.567C90.86,73.847 91.017,73.315 91.325,73.03C91.565,72.797 91.962,72.7 92.472,72.7L92.472,72.7Z" style="fill:white;fill-rule:nonzero;"/>
            </g>
            <g transform="matrix(1,0,0,1,11.0175,-26.8795)">
                <path d="M97.842,76.622L97.842,74.012C97.842,73.187 97.722,72.872 97.535,72.67C97.332,72.437 96.965,72.34 96.387,72.34C95.787,72.34 95.165,72.467 94.85,72.55L94.85,72.902C95.135,72.85 95.787,72.73 96.297,72.73C96.77,72.73 97.047,72.805 97.182,72.962C97.325,73.135 97.415,73.435 97.415,74.162C96.072,74.282 95.217,74.44 94.895,74.68C94.73,74.785 94.565,75.07 94.565,75.542C94.565,75.932 94.655,76.195 94.805,76.36C94.977,76.555 95.292,76.697 95.877,76.697C96.605,76.697 97.055,76.51 97.182,76.42C97.22,76.39 97.325,76.247 97.385,76.165L97.422,76.165L97.527,76.622L97.842,76.622ZM97.415,76.037C97.19,76.15 96.657,76.33 96.02,76.33C95.562,76.33 95.292,76.225 95.165,76.09C95.06,75.97 94.992,75.775 94.992,75.505C94.992,75.19 95.067,75.002 95.18,74.905C95.352,74.717 96.44,74.56 97.415,74.5L97.415,76.037Z" style="fill:white;fill-rule:nonzero;"/>
            </g>
            <g transform="matrix(1,0,0,1,11.0175,-26.8795)">
                <path d="M102.35,72.497C101.997,72.407 101.652,72.34 101.15,72.34C100.512,72.34 100.085,72.49 99.785,72.782C99.417,73.127 99.207,73.795 99.207,74.642C99.207,75.602 99.447,76.127 99.74,76.375C100.002,76.592 100.385,76.712 100.977,76.712C101.555,76.712 101.937,76.585 102.065,76.502C102.11,76.472 102.252,76.307 102.327,76.225L102.35,76.225L102.455,76.622L102.792,76.622L102.792,70.51L102.35,70.51L102.35,72.497ZM99.657,74.612C99.657,73.802 99.845,73.285 100.1,73.045C100.34,72.82 100.685,72.715 101.21,72.715C101.675,72.715 102.065,72.79 102.35,72.827L102.35,76.075C101.975,76.255 101.517,76.33 101.097,76.33C100.655,76.33 100.28,76.232 100.085,76.06C99.852,75.857 99.657,75.437 99.657,74.612L99.657,74.612Z" style="fill:white;fill-rule:nonzero;"/>
            </g>
            <g transform="matrix(1,0,0,1,11.0175,-26.8795)">
                <path d="M104.165,74.552C104.165,75.985 104.667,76.705 106.07,76.705C106.647,76.705 107.187,76.6 107.487,76.525L107.517,76.165C107.225,76.21 106.73,76.307 106.122,76.307C104.945,76.307 104.615,75.685 104.615,74.537L107.682,74.537L107.682,74.02C107.682,72.94 107.285,72.332 106.085,72.332C104.765,72.332 104.165,73.082 104.165,74.552L104.165,74.552ZM106.04,72.692C106.947,72.692 107.255,73.12 107.255,74.05L107.255,74.2L104.63,74.2C104.69,73.202 105.072,72.692 106.04,72.692L106.04,72.692Z" style="fill:white;fill-rule:nonzero;"/>
            </g>
        </g>
        <g transform="matrix(1,0,0,1,37.8617,2.57152)">
            <path d="M123.413,38.361L121.853,38.361L121.853,37.971C121.853,37.183 122.003,36.838 122.813,36.838C123.143,36.838 123.398,36.876 123.556,36.883L123.556,36.538C123.428,36.523 123.076,36.478 122.768,36.478C121.853,36.478 121.418,36.823 121.418,37.903L121.418,38.361L120.593,38.361L120.541,38.728L121.418,38.728L121.418,42.568L121.853,42.568L121.853,38.728L123.331,38.728L123.413,38.361Z" style="fill:white;fill-rule:nonzero;"/>
            <path d="M127.583,42.568L127.583,38.361L127.148,38.361L127.148,41.953C126.811,42.103 126.323,42.231 125.836,42.231C125.378,42.231 125.063,42.156 124.883,41.968C124.711,41.788 124.606,41.496 124.606,40.926L124.606,38.361L124.171,38.361L124.171,41.091C124.171,41.668 124.298,42.021 124.516,42.253C124.748,42.493 125.063,42.621 125.671,42.621C126.196,42.621 126.691,42.493 126.901,42.388C126.916,42.381 127.096,42.148 127.111,42.118L127.156,42.118L127.268,42.568L127.583,42.568Z" style="fill:white;fill-rule:nonzero;"/>
            <path d="M132.578,42.568L132.578,39.816C132.578,39.246 132.458,38.863 132.226,38.646C132.001,38.421 131.678,38.301 131.131,38.301C130.598,38.301 130.058,38.451 129.856,38.563C129.833,38.578 129.661,38.773 129.638,38.803L129.601,38.803L129.481,38.361L129.166,38.361L129.166,42.568L129.601,42.568L129.601,38.968C129.931,38.833 130.403,38.691 130.943,38.691C131.333,38.691 131.663,38.766 131.851,38.946C132.038,39.126 132.143,39.433 132.143,39.966L132.143,42.568L132.578,42.568Z" style="fill:white;fill-rule:nonzero;"/>
            <path d="M135.991,38.646C136.486,38.646 136.876,38.706 137.138,38.743L137.138,38.368C136.861,38.316 136.448,38.248 135.946,38.248C135.316,38.248 134.843,38.398 134.521,38.713C134.123,39.081 133.921,39.726 133.921,40.566C133.921,41.301 134.093,41.886 134.483,42.246C134.776,42.523 135.226,42.658 135.818,42.658C136.411,42.658 136.846,42.553 137.138,42.471L137.138,42.133C136.846,42.178 136.418,42.261 135.886,42.261C135.428,42.261 135.061,42.171 134.813,41.938C134.521,41.668 134.378,41.203 134.378,40.513C134.378,39.793 134.536,39.261 134.843,38.976C135.083,38.743 135.481,38.646 135.991,38.646Z" style="fill:white;fill-rule:nonzero;"/>
            <path d="M140.678,38.361L139.103,38.361L139.103,37.371L138.668,37.483L138.668,38.361L137.858,38.361L137.798,38.728L138.668,38.728L138.668,41.616C138.668,42.343 138.976,42.613 139.726,42.613C140.048,42.613 140.401,42.561 140.626,42.516L140.663,42.148C140.498,42.171 140.183,42.223 139.838,42.223C139.366,42.223 139.103,42.103 139.103,41.533L139.103,38.728L140.596,38.728L140.678,38.361Z" style="fill:white;fill-rule:nonzero;"/>
            <path d="M142.238,42.568L142.238,38.361L141.803,38.361L141.803,42.568L142.238,42.568ZM142.306,36.928C142.306,36.831 142.291,36.756 142.238,36.711C142.201,36.673 142.133,36.658 142.043,36.658C141.946,36.658 141.871,36.681 141.848,36.711C141.788,36.741 141.758,36.823 141.758,36.936C141.758,37.033 141.781,37.108 141.818,37.146C141.856,37.191 141.923,37.206 142.028,37.206C142.111,37.206 142.193,37.191 142.238,37.153C142.291,37.116 142.306,37.026 142.306,36.928Z" style="fill:white;fill-rule:nonzero;"/>
            <path d="M147.481,40.371C147.481,39.501 147.293,39.013 146.986,38.691C146.723,38.428 146.281,38.248 145.643,38.248C144.976,38.248 144.511,38.443 144.211,38.728C143.828,39.088 143.611,39.748 143.611,40.566C143.611,41.376 143.828,41.871 144.068,42.148C144.346,42.463 144.788,42.658 145.486,42.658C146.228,42.658 146.656,42.456 146.948,42.156C147.271,41.818 147.481,41.196 147.481,40.371ZM145.531,42.283C144.923,42.283 144.601,42.096 144.398,41.863C144.188,41.623 144.046,41.143 144.046,40.513C144.046,39.748 144.278,39.216 144.533,38.983C144.728,38.803 145.073,38.638 145.591,38.638C146.116,38.638 146.438,38.773 146.648,38.991C146.873,39.223 147.038,39.583 147.038,40.446C147.038,41.196 146.851,41.661 146.588,41.931C146.371,42.148 145.996,42.283 145.531,42.283Z" style="fill:white;fill-rule:nonzero;"/>
            <path d="M152.266,42.568L152.266,39.816C152.266,39.246 152.146,38.863 151.913,38.646C151.688,38.421 151.366,38.301 150.818,38.301C150.286,38.301 149.746,38.451 149.543,38.563C149.521,38.578 149.348,38.773 149.326,38.803L149.288,38.803L149.168,38.361L148.853,38.361L148.853,42.568L149.288,42.568L149.288,38.968C149.618,38.833 150.091,38.691 150.631,38.691C151.021,38.691 151.351,38.766 151.538,38.946C151.726,39.126 151.831,39.433 151.831,39.966L151.831,42.568L152.266,42.568Z" style="fill:white;fill-rule:nonzero;"/>
            <path d="M153.503,39.786C153.503,40.866 153.668,41.713 153.923,42.178C154.126,42.546 154.538,42.891 154.733,43.011L155.176,43.011C154.853,42.756 154.471,42.396 154.283,42.058C154.051,41.653 153.901,40.926 153.901,39.786C153.901,38.638 154.051,37.903 154.291,37.506C154.486,37.176 154.846,36.823 155.183,36.561L154.741,36.561C154.538,36.681 154.126,37.056 153.923,37.393C153.653,37.873 153.503,38.706 153.503,39.786Z" style="fill:white;fill-rule:nonzero;"/>
            <path d="M157.688,40.273C158.506,40.273 158.933,40.191 159.271,39.951C159.616,39.703 159.856,39.156 159.856,38.496C159.856,37.821 159.676,37.401 159.391,37.183C159.181,37.018 158.821,36.943 158.333,36.943L156.188,36.943L156.188,42.568L156.623,42.568L156.623,40.273L157.688,40.273ZM159.406,38.511C159.406,39.118 159.203,39.501 158.948,39.681C158.746,39.831 158.348,39.876 157.681,39.876L156.623,39.876L156.623,37.326L158.161,37.326C158.573,37.326 158.881,37.371 159.068,37.513C159.271,37.663 159.406,37.986 159.406,38.511Z" style="fill:white;fill-rule:nonzero;"/>
            <path d="M161.063,38.361L161.063,42.568L161.498,42.568L161.498,39.028C161.753,38.863 162.233,38.691 162.743,38.698C162.998,38.698 163.216,38.728 163.343,38.751L163.343,38.331C163.231,38.316 163.073,38.301 162.863,38.301C162.338,38.301 161.956,38.443 161.753,38.563C161.738,38.578 161.558,38.796 161.536,38.826L161.491,38.826L161.386,38.361L161.063,38.361Z" style="fill:white;fill-rule:nonzero;"/>
            <path d="M164.731,42.568L164.731,38.361L164.296,38.361L164.296,42.568L164.731,42.568ZM164.798,36.928C164.798,36.831 164.783,36.756 164.731,36.711C164.693,36.673 164.626,36.658 164.536,36.658C164.438,36.658 164.363,36.681 164.341,36.711C164.281,36.741 164.251,36.823 164.251,36.936C164.251,37.033 164.273,37.108 164.311,37.146C164.348,37.191 164.416,37.206 164.521,37.206C164.603,37.206 164.686,37.191 164.731,37.153C164.783,37.116 164.798,37.026 164.798,36.928Z" style="fill:white;fill-rule:nonzero;"/>
            <path d="M172.426,42.568L172.426,39.816C172.426,39.238 172.328,38.856 172.088,38.631C171.863,38.413 171.548,38.301 171.053,38.301C170.506,38.301 170.026,38.466 169.786,38.601L169.553,38.893L169.516,38.893C169.478,38.826 169.426,38.736 169.328,38.646C169.096,38.421 168.751,38.301 168.211,38.301C167.663,38.301 167.198,38.451 167.003,38.556L166.778,38.803L166.741,38.803L166.628,38.361L166.306,38.361L166.306,42.568L166.741,42.568L166.741,38.976C167.056,38.848 167.491,38.691 168.038,38.691C168.383,38.691 168.736,38.758 168.916,38.931C169.088,39.096 169.148,39.321 169.148,39.688L169.148,42.568L169.583,42.568L169.583,39.028C169.883,38.871 170.326,38.691 170.866,38.691C171.218,38.691 171.533,38.773 171.713,38.946C171.893,39.118 171.991,39.411 171.991,39.966L171.991,42.568L172.426,42.568Z" style="fill:white;fill-rule:nonzero;"/>
            <path d="M177.001,42.568L177.001,39.958C177.001,39.133 176.881,38.818 176.693,38.616C176.491,38.383 176.123,38.286 175.546,38.286C174.946,38.286 174.323,38.413 174.008,38.496L174.008,38.848C174.293,38.796 174.946,38.676 175.456,38.676C175.928,38.676 176.206,38.751 176.341,38.908C176.483,39.081 176.573,39.381 176.573,40.108C175.231,40.228 174.376,40.386 174.053,40.626C173.888,40.731 173.723,41.016 173.723,41.488C173.723,41.878 173.813,42.141 173.963,42.306C174.136,42.501 174.451,42.643 175.036,42.643C175.763,42.643 176.213,42.456 176.341,42.366C176.378,42.336 176.483,42.193 176.543,42.111L176.581,42.111L176.686,42.568L177.001,42.568ZM176.573,41.983C176.348,42.096 175.816,42.276 175.178,42.276C174.721,42.276 174.451,42.171 174.323,42.036C174.218,41.916 174.151,41.721 174.151,41.451C174.151,41.136 174.226,40.948 174.338,40.851C174.511,40.663 175.598,40.506 176.573,40.446L176.573,41.983Z" style="fill:white;fill-rule:nonzero;"/>
            <path d="M178.583,38.361L178.583,42.568L179.018,42.568L179.018,39.028C179.273,38.863 179.753,38.691 180.263,38.698C180.518,38.698 180.736,38.728 180.863,38.751L180.863,38.331C180.751,38.316 180.593,38.301 180.383,38.301C179.858,38.301 179.476,38.443 179.273,38.563C179.258,38.578 179.078,38.796 179.056,38.826L179.011,38.826L178.906,38.361L178.583,38.361Z" style="fill:white;fill-rule:nonzero;"/>
            <path d="M185.288,38.361L184.816,38.361L183.331,42.186L183.136,42.186L181.733,38.361L181.261,38.361L182.836,42.568L183.181,42.568L182.356,44.623L182.813,44.623L185.288,38.361Z" style="fill:white;fill-rule:nonzero;"/>
            <path d="M187.208,39.786C187.208,38.706 187.058,37.873 186.788,37.401C186.586,37.056 186.166,36.681 185.971,36.561L185.528,36.561C185.866,36.823 186.226,37.176 186.421,37.506C186.661,37.903 186.811,38.638 186.811,39.786C186.811,40.926 186.661,41.653 186.428,42.058C186.233,42.396 185.851,42.756 185.536,43.011L185.978,43.011C186.166,42.891 186.578,42.546 186.788,42.178C187.043,41.713 187.208,40.866 187.208,39.786Z" style="fill:white;fill-rule:nonzero;"/>
        </g>
        <g transform="matrix(1,0,0,1,27.0677,31.1934)">
            <path d="M117.777,38.361L116.217,38.361L116.217,37.971C116.217,37.183 116.367,36.838 117.177,36.838C117.507,36.838 117.762,36.876 117.92,36.883L117.92,36.538C117.792,36.523 117.44,36.478 117.132,36.478C116.217,36.478 115.782,36.823 115.782,37.903L115.782,38.361L114.957,38.361L114.905,38.728L115.782,38.728L115.782,42.568L116.217,42.568L116.217,38.728L117.695,38.728L117.777,38.361Z" style="fill:white;fill-rule:nonzero;"/>
            <path d="M121.947,42.568L121.947,38.361L121.512,38.361L121.512,41.953C121.175,42.103 120.687,42.231 120.2,42.231C119.742,42.231 119.427,42.156 119.247,41.968C119.075,41.788 118.97,41.496 118.97,40.926L118.97,38.361L118.535,38.361L118.535,41.091C118.535,41.668 118.662,42.021 118.88,42.253C119.112,42.493 119.427,42.621 120.035,42.621C120.56,42.621 121.055,42.493 121.265,42.388C121.28,42.381 121.46,42.148 121.475,42.118L121.52,42.118L121.632,42.568L121.947,42.568Z" style="fill:white;fill-rule:nonzero;"/>
            <path d="M126.942,42.568L126.942,39.816C126.942,39.246 126.822,38.863 126.59,38.646C126.365,38.421 126.042,38.301 125.495,38.301C124.962,38.301 124.422,38.451 124.22,38.563C124.197,38.578 124.025,38.773 124.002,38.803L123.965,38.803L123.845,38.361L123.53,38.361L123.53,42.568L123.965,42.568L123.965,38.968C124.295,38.833 124.767,38.691 125.307,38.691C125.697,38.691 126.027,38.766 126.215,38.946C126.402,39.126 126.507,39.433 126.507,39.966L126.507,42.568L126.942,42.568Z" style="fill:white;fill-rule:nonzero;"/>
            <path d="M130.355,38.646C130.85,38.646 131.24,38.706 131.502,38.743L131.502,38.368C131.225,38.316 130.812,38.248 130.31,38.248C129.68,38.248 129.207,38.398 128.885,38.713C128.487,39.081 128.285,39.726 128.285,40.566C128.285,41.301 128.457,41.886 128.847,42.246C129.14,42.523 129.59,42.658 130.182,42.658C130.775,42.658 131.21,42.553 131.502,42.471L131.502,42.133C131.21,42.178 130.782,42.261 130.25,42.261C129.792,42.261 129.425,42.171 129.177,41.938C128.885,41.668 128.742,41.203 128.742,40.513C128.742,39.793 128.9,39.261 129.207,38.976C129.447,38.743 129.845,38.646 130.355,38.646Z" style="fill:white;fill-rule:nonzero;"/>
            <path d="M135.042,38.361L133.467,38.361L133.467,37.371L133.032,37.483L133.032,38.361L132.222,38.361L132.162,38.728L133.032,38.728L133.032,41.616C133.032,42.343 133.34,42.613 134.09,42.613C134.412,42.613 134.765,42.561 134.99,42.516L135.027,42.148C134.862,42.171 134.547,42.223 134.202,42.223C133.73,42.223 133.467,42.103 133.467,41.533L133.467,38.728L134.96,38.728L135.042,38.361Z" style="fill:white;fill-rule:nonzero;"/>
            <path d="M136.602,42.568L136.602,38.361L136.167,38.361L136.167,42.568L136.602,42.568ZM136.67,36.928C136.67,36.831 136.655,36.756 136.602,36.711C136.565,36.673 136.497,36.658 136.407,36.658C136.31,36.658 136.235,36.681 136.212,36.711C136.152,36.741 136.122,36.823 136.122,36.936C136.122,37.033 136.145,37.108 136.182,37.146C136.22,37.191 136.287,37.206 136.392,37.206C136.475,37.206 136.557,37.191 136.602,37.153C136.655,37.116 136.67,37.026 136.67,36.928Z" style="fill:white;fill-rule:nonzero;"/>
            <path d="M141.845,40.371C141.845,39.501 141.657,39.013 141.35,38.691C141.087,38.428 140.645,38.248 140.007,38.248C139.34,38.248 138.875,38.443 138.575,38.728C138.192,39.088 137.975,39.748 137.975,40.566C137.975,41.376 138.192,41.871 138.432,42.148C138.71,42.463 139.152,42.658 139.85,42.658C140.592,42.658 141.02,42.456 141.312,42.156C141.635,41.818 141.845,41.196 141.845,40.371ZM139.895,42.283C139.287,42.283 138.965,42.096 138.762,41.863C138.552,41.623 138.41,41.143 138.41,40.513C138.41,39.748 138.642,39.216 138.897,38.983C139.092,38.803 139.437,38.638 139.955,38.638C140.48,38.638 140.802,38.773 141.012,38.991C141.237,39.223 141.402,39.583 141.402,40.446C141.402,41.196 141.215,41.661 140.952,41.931C140.735,42.148 140.36,42.283 139.895,42.283Z" style="fill:white;fill-rule:nonzero;"/>
            <path d="M146.63,42.568L146.63,39.816C146.63,39.246 146.51,38.863 146.277,38.646C146.052,38.421 145.73,38.301 145.182,38.301C144.65,38.301 144.11,38.451 143.907,38.563C143.885,38.578 143.712,38.773 143.69,38.803L143.652,38.803L143.532,38.361L143.217,38.361L143.217,42.568L143.652,42.568L143.652,38.968C143.982,38.833 144.455,38.691 144.995,38.691C145.385,38.691 145.715,38.766 145.902,38.946C146.09,39.126 146.195,39.433 146.195,39.966L146.195,42.568L146.63,42.568Z" style="fill:white;fill-rule:nonzero;"/>
            <path d="M147.867,39.786C147.867,40.866 148.032,41.713 148.287,42.178C148.49,42.546 148.902,42.891 149.097,43.011L149.54,43.011C149.217,42.756 148.835,42.396 148.647,42.058C148.415,41.653 148.265,40.926 148.265,39.786C148.265,38.638 148.415,37.903 148.655,37.506C148.85,37.176 149.21,36.823 149.547,36.561L149.105,36.561C148.902,36.681 148.49,37.056 148.287,37.393C148.017,37.873 147.867,38.706 147.867,39.786Z" style="fill:white;fill-rule:nonzero;"/>
            <path d="M153.927,41.196C153.927,40.873 153.875,40.483 153.687,40.258C153.305,39.771 151.152,39.396 150.822,38.976C150.71,38.833 150.657,38.593 150.657,38.308C150.657,37.963 150.777,37.701 150.897,37.573C151.062,37.378 151.475,37.258 152.172,37.258C152.87,37.258 153.267,37.311 153.74,37.363L153.74,36.981C153.357,36.913 152.847,36.861 152.232,36.861C151.31,36.861 150.83,37.048 150.59,37.281C150.335,37.528 150.215,37.933 150.215,38.346C150.215,38.653 150.267,39.051 150.44,39.261C150.867,39.808 152.877,40.086 153.297,40.543C153.41,40.671 153.47,40.911 153.47,41.218C153.47,41.593 153.35,41.841 153.215,41.976C153.057,42.126 152.645,42.246 151.872,42.246C151.167,42.246 150.672,42.156 150.23,42.081L150.23,42.471C150.605,42.561 151.167,42.651 151.865,42.651C152.667,42.651 153.23,42.531 153.537,42.268C153.77,42.066 153.927,41.646 153.927,41.196Z" style="fill:white;fill-rule:nonzero;"/>
            <path d="M155.007,40.498C155.007,41.931 155.51,42.651 156.912,42.651C157.49,42.651 158.03,42.546 158.33,42.471L158.36,42.111C158.067,42.156 157.572,42.253 156.965,42.253C155.787,42.253 155.457,41.631 155.457,40.483L158.525,40.483L158.525,39.966C158.525,38.886 158.127,38.278 156.927,38.278C155.607,38.278 155.007,39.028 155.007,40.498ZM156.882,38.638C157.79,38.638 158.097,39.066 158.097,39.996L158.097,40.146L155.472,40.146C155.532,39.148 155.915,38.638 156.882,38.638Z" style="fill:white;fill-rule:nonzero;"/>
            <path d="M161.675,38.646C162.17,38.646 162.56,38.706 162.822,38.743L162.822,38.368C162.545,38.316 162.132,38.248 161.63,38.248C161,38.248 160.527,38.398 160.205,38.713C159.807,39.081 159.605,39.726 159.605,40.566C159.605,41.301 159.777,41.886 160.167,42.246C160.46,42.523 160.91,42.658 161.502,42.658C162.095,42.658 162.53,42.553 162.822,42.471L162.822,42.133C162.53,42.178 162.102,42.261 161.57,42.261C161.112,42.261 160.745,42.171 160.497,41.938C160.205,41.668 160.062,41.203 160.062,40.513C160.062,39.793 160.22,39.261 160.527,38.976C160.767,38.743 161.165,38.646 161.675,38.646Z" style="fill:white;fill-rule:nonzero;"/>
            <path d="M167.63,40.371C167.63,39.501 167.442,39.013 167.135,38.691C166.872,38.428 166.43,38.248 165.792,38.248C165.125,38.248 164.66,38.443 164.36,38.728C163.977,39.088 163.76,39.748 163.76,40.566C163.76,41.376 163.977,41.871 164.217,42.148C164.495,42.463 164.937,42.658 165.635,42.658C166.377,42.658 166.805,42.456 167.097,42.156C167.42,41.818 167.63,41.196 167.63,40.371ZM165.68,42.283C165.072,42.283 164.75,42.096 164.547,41.863C164.337,41.623 164.195,41.143 164.195,40.513C164.195,39.748 164.427,39.216 164.682,38.983C164.877,38.803 165.222,38.638 165.74,38.638C166.265,38.638 166.587,38.773 166.797,38.991C167.022,39.223 167.187,39.583 167.187,40.446C167.187,41.196 167,41.661 166.737,41.931C166.52,42.148 166.145,42.283 165.68,42.283Z" style="fill:white;fill-rule:nonzero;"/>
            <path d="M172.415,42.568L172.415,39.816C172.415,39.246 172.295,38.863 172.062,38.646C171.837,38.421 171.515,38.301 170.967,38.301C170.435,38.301 169.895,38.451 169.692,38.563C169.67,38.578 169.497,38.773 169.475,38.803L169.437,38.803L169.317,38.361L169.002,38.361L169.002,42.568L169.437,42.568L169.437,38.968C169.767,38.833 170.24,38.691 170.78,38.691C171.17,38.691 171.5,38.766 171.687,38.946C171.875,39.126 171.98,39.433 171.98,39.966L171.98,42.568L172.415,42.568Z" style="fill:white;fill-rule:nonzero;"/>
            <path d="M176.907,38.443C176.555,38.353 176.21,38.286 175.707,38.286C175.07,38.286 174.642,38.436 174.342,38.728C173.975,39.073 173.765,39.741 173.765,40.588C173.765,41.548 174.005,42.073 174.297,42.321C174.56,42.538 174.942,42.658 175.535,42.658C176.112,42.658 176.495,42.531 176.622,42.448C176.667,42.418 176.81,42.253 176.885,42.171L176.907,42.171L177.012,42.568L177.35,42.568L177.35,36.456L176.907,36.456L176.907,38.443ZM174.215,40.558C174.215,39.748 174.402,39.231 174.657,38.991C174.897,38.766 175.242,38.661 175.767,38.661C176.232,38.661 176.622,38.736 176.907,38.773L176.907,42.021C176.532,42.201 176.075,42.276 175.655,42.276C175.212,42.276 174.837,42.178 174.642,42.006C174.41,41.803 174.215,41.383 174.215,40.558Z" style="fill:white;fill-rule:nonzero;"/>
            <path d="M181.932,42.568L181.932,39.958C181.932,39.133 181.812,38.818 181.625,38.616C181.422,38.383 181.055,38.286 180.477,38.286C179.877,38.286 179.255,38.413 178.94,38.496L178.94,38.848C179.225,38.796 179.877,38.676 180.387,38.676C180.86,38.676 181.137,38.751 181.272,38.908C181.415,39.081 181.505,39.381 181.505,40.108C180.162,40.228 179.307,40.386 178.985,40.626C178.82,40.731 178.655,41.016 178.655,41.488C178.655,41.878 178.745,42.141 178.895,42.306C179.067,42.501 179.382,42.643 179.967,42.643C180.695,42.643 181.145,42.456 181.272,42.366C181.31,42.336 181.415,42.193 181.475,42.111L181.512,42.111L181.617,42.568L181.932,42.568ZM181.505,41.983C181.28,42.096 180.747,42.276 180.11,42.276C179.652,42.276 179.382,42.171 179.255,42.036C179.15,41.916 179.082,41.721 179.082,41.451C179.082,41.136 179.157,40.948 179.27,40.851C179.442,40.663 180.53,40.506 181.505,40.446L181.505,41.983Z" style="fill:white;fill-rule:nonzero;"/>
            <path d="M183.515,38.361L183.515,42.568L183.95,42.568L183.95,39.028C184.205,38.863 184.685,38.691 185.195,38.698C185.45,38.698 185.667,38.728 185.795,38.751L185.795,38.331C185.682,38.316 185.525,38.301 185.315,38.301C184.79,38.301 184.407,38.443 184.205,38.563C184.19,38.578 184.01,38.796 183.987,38.826L183.942,38.826L183.837,38.361L183.515,38.361Z" style="fill:white;fill-rule:nonzero;"/>
            <path d="M190.22,38.361L189.747,38.361L188.262,42.186L188.067,42.186L186.665,38.361L186.192,38.361L187.767,42.568L188.112,42.568L187.287,44.623L187.745,44.623L190.22,38.361Z" style="fill:white;fill-rule:nonzero;"/>
            <path d="M192.14,39.786C192.14,38.706 191.99,37.873 191.72,37.401C191.517,37.056 191.097,36.681 190.902,36.561L190.46,36.561C190.797,36.823 191.157,37.176 191.352,37.506C191.592,37.903 191.742,38.638 191.742,39.786C191.742,40.926 191.592,41.653 191.36,42.058C191.165,42.396 190.782,42.756 190.467,43.011L190.91,43.011C191.097,42.891 191.51,42.546 191.72,42.178C191.975,41.713 192.14,40.866 192.14,39.786Z" style="fill:white;fill-rule:nonzero;"/>
        </g>
        <g transform="matrix(1,0,0,1,28.0677,-25.887)">
            <path d="M117.777,38.361L116.217,38.361L116.217,37.971C116.217,37.183 116.367,36.838 117.177,36.838C117.507,36.838 117.762,36.876 117.92,36.883L117.92,36.538C117.792,36.523 117.44,36.478 117.132,36.478C116.217,36.478 115.782,36.823 115.782,37.903L115.782,38.361L114.957,38.361L114.905,38.728L115.782,38.728L115.782,42.568L116.217,42.568L116.217,38.728L117.695,38.728L117.777,38.361Z" style="fill:white;fill-rule:nonzero;"/>
            <path d="M121.947,42.568L121.947,38.361L121.512,38.361L121.512,41.953C121.175,42.103 120.687,42.231 120.2,42.231C119.742,42.231 119.427,42.156 119.247,41.968C119.075,41.788 118.97,41.496 118.97,40.926L118.97,38.361L118.535,38.361L118.535,41.091C118.535,41.668 118.662,42.021 118.88,42.253C119.112,42.493 119.427,42.621 120.035,42.621C120.56,42.621 121.055,42.493 121.265,42.388C121.28,42.381 121.46,42.148 121.475,42.118L121.52,42.118L121.632,42.568L121.947,42.568Z" style="fill:white;fill-rule:nonzero;"/>
            <path d="M126.942,42.568L126.942,39.816C126.942,39.246 126.822,38.863 126.59,38.646C126.365,38.421 126.042,38.301 125.495,38.301C124.962,38.301 124.422,38.451 124.22,38.563C124.197,38.578 124.025,38.773 124.002,38.803L123.965,38.803L123.845,38.361L123.53,38.361L123.53,42.568L123.965,42.568L123.965,38.968C124.295,38.833 124.767,38.691 125.307,38.691C125.697,38.691 126.027,38.766 126.215,38.946C126.402,39.126 126.507,39.433 126.507,39.966L126.507,42.568L126.942,42.568Z" style="fill:white;fill-rule:nonzero;"/>
            <path d="M130.355,38.646C130.85,38.646 131.24,38.706 131.502,38.743L131.502,38.368C131.225,38.316 130.812,38.248 130.31,38.248C129.68,38.248 129.207,38.398 128.885,38.713C128.487,39.081 128.285,39.726 128.285,40.566C128.285,41.301 128.457,41.886 128.847,42.246C129.14,42.523 129.59,42.658 130.182,42.658C130.775,42.658 131.21,42.553 131.502,42.471L131.502,42.133C131.21,42.178 130.782,42.261 130.25,42.261C129.792,42.261 129.425,42.171 129.177,41.938C128.885,41.668 128.742,41.203 128.742,40.513C128.742,39.793 128.9,39.261 129.207,38.976C129.447,38.743 129.845,38.646 130.355,38.646Z" style="fill:white;fill-rule:nonzero;"/>
            <path d="M135.042,38.361L133.467,38.361L133.467,37.371L133.032,37.483L133.032,38.361L132.222,38.361L132.162,38.728L133.032,38.728L133.032,41.616C133.032,42.343 133.34,42.613 134.09,42.613C134.412,42.613 134.765,42.561 134.99,42.516L135.027,42.148C134.862,42.171 134.547,42.223 134.202,42.223C133.73,42.223 133.467,42.103 133.467,41.533L133.467,38.728L134.96,38.728L135.042,38.361Z" style="fill:white;fill-rule:nonzero;"/>
            <path d="M136.602,42.568L136.602,38.361L136.167,38.361L136.167,42.568L136.602,42.568ZM136.67,36.928C136.67,36.831 136.655,36.756 136.602,36.711C136.565,36.673 136.497,36.658 136.407,36.658C136.31,36.658 136.235,36.681 136.212,36.711C136.152,36.741 136.122,36.823 136.122,36.936C136.122,37.033 136.145,37.108 136.182,37.146C136.22,37.191 136.287,37.206 136.392,37.206C136.475,37.206 136.557,37.191 136.602,37.153C136.655,37.116 136.67,37.026 136.67,36.928Z" style="fill:white;fill-rule:nonzero;"/>
            <path d="M141.845,40.371C141.845,39.501 141.657,39.013 141.35,38.691C141.087,38.428 140.645,38.248 140.007,38.248C139.34,38.248 138.875,38.443 138.575,38.728C138.192,39.088 137.975,39.748 137.975,40.566C137.975,41.376 138.192,41.871 138.432,42.148C138.71,42.463 139.152,42.658 139.85,42.658C140.592,42.658 141.02,42.456 141.312,42.156C141.635,41.818 141.845,41.196 141.845,40.371ZM139.895,42.283C139.287,42.283 138.965,42.096 138.762,41.863C138.552,41.623 138.41,41.143 138.41,40.513C138.41,39.748 138.642,39.216 138.897,38.983C139.092,38.803 139.437,38.638 139.955,38.638C140.48,38.638 140.802,38.773 141.012,38.991C141.237,39.223 141.402,39.583 141.402,40.446C141.402,41.196 141.215,41.661 140.952,41.931C140.735,42.148 140.36,42.283 139.895,42.283Z" style="fill:white;fill-rule:nonzero;"/>
            <path d="M146.63,42.568L146.63,39.816C146.63,39.246 146.51,38.863 146.277,38.646C146.052,38.421 145.73,38.301 145.182,38.301C144.65,38.301 144.11,38.451 143.907,38.563C143.885,38.578 143.712,38.773 143.69,38.803L143.652,38.803L143.532,38.361L143.217,38.361L143.217,42.568L143.652,42.568L143.652,38.968C143.982,38.833 144.455,38.691 144.995,38.691C145.385,38.691 145.715,38.766 145.902,38.946C146.09,39.126 146.195,39.433 146.195,39.966L146.195,42.568L146.63,42.568Z" style="fill:white;fill-rule:nonzero;"/>
            <path d="M147.867,39.786C147.867,40.866 148.032,41.713 148.287,42.178C148.49,42.546 148.902,42.891 149.097,43.011L149.54,43.011C149.217,42.756 148.835,42.396 148.647,42.058C148.415,41.653 148.265,40.926 148.265,39.786C148.265,38.638 148.415,37.903 148.655,37.506C148.85,37.176 149.21,36.823 149.547,36.561L149.105,36.561C148.902,36.681 148.49,37.056 148.287,37.393C148.017,37.873 147.867,38.706 147.867,39.786Z" style="fill:white;fill-rule:nonzero;"/>
            <path d="M154.407,37.011C154.017,36.943 153.582,36.868 152.907,36.868C151.932,36.868 151.4,37.093 151.032,37.408C150.687,37.686 150.2,38.406 150.2,39.846C150.2,41.053 150.5,41.743 150.845,42.081C151.235,42.448 151.715,42.643 152.675,42.643C153.32,42.643 153.95,42.538 154.407,42.418L154.407,42.043C154.01,42.118 153.402,42.231 152.757,42.231C151.97,42.231 151.49,42.073 151.197,41.781C150.845,41.428 150.657,40.723 150.657,39.778C150.657,38.713 151.002,37.971 151.347,37.693C151.655,37.453 152.105,37.281 152.915,37.281C153.627,37.281 154.017,37.348 154.407,37.393L154.407,37.011Z" style="fill:white;fill-rule:nonzero;"/>
            <path d="M158.682,42.568L158.682,39.958C158.682,39.133 158.562,38.818 158.375,38.616C158.172,38.383 157.805,38.286 157.227,38.286C156.627,38.286 156.005,38.413 155.69,38.496L155.69,38.848C155.975,38.796 156.627,38.676 157.137,38.676C157.61,38.676 157.887,38.751 158.022,38.908C158.165,39.081 158.255,39.381 158.255,40.108C156.912,40.228 156.057,40.386 155.735,40.626C155.57,40.731 155.405,41.016 155.405,41.488C155.405,41.878 155.495,42.141 155.645,42.306C155.817,42.501 156.132,42.643 156.717,42.643C157.445,42.643 157.895,42.456 158.022,42.366C158.06,42.336 158.165,42.193 158.225,42.111L158.262,42.111L158.367,42.568L158.682,42.568ZM158.255,41.983C158.03,42.096 157.497,42.276 156.86,42.276C156.402,42.276 156.132,42.171 156.005,42.036C155.9,41.916 155.832,41.721 155.832,41.451C155.832,41.136 155.907,40.948 156.02,40.851C156.192,40.663 157.28,40.506 158.255,40.446L158.255,41.983Z" style="fill:white;fill-rule:nonzero;"/>
            <path d="M162.8,41.413C162.8,41.128 162.732,40.888 162.582,40.716C162.425,40.536 162.102,40.408 161.487,40.266C160.917,40.138 160.655,40.033 160.527,39.883C160.43,39.771 160.4,39.613 160.4,39.456C160.4,38.923 160.655,38.623 161.54,38.623C161.982,38.623 162.335,38.668 162.657,38.721L162.657,38.361C162.402,38.308 161.997,38.248 161.532,38.248C160.415,38.248 159.972,38.706 159.972,39.478C159.972,39.718 160.025,39.966 160.16,40.123C160.37,40.386 160.722,40.498 161.315,40.641C161.825,40.761 162.11,40.858 162.245,41.008C162.335,41.128 162.372,41.286 162.372,41.443C162.372,41.976 162.132,42.246 161.187,42.246C160.73,42.246 160.265,42.178 159.957,42.118L159.957,42.486C160.257,42.561 160.767,42.621 161.187,42.621C162.462,42.621 162.8,42.156 162.8,41.413Z" style="fill:white;fill-rule:nonzero;"/>
            <path d="M166.242,38.361L164.667,38.361L164.667,37.371L164.232,37.483L164.232,38.361L163.422,38.361L163.362,38.728L164.232,38.728L164.232,41.616C164.232,42.343 164.54,42.613 165.29,42.613C165.612,42.613 165.965,42.561 166.19,42.516L166.227,42.148C166.062,42.171 165.747,42.223 165.402,42.223C164.93,42.223 164.667,42.103 164.667,41.533L164.667,38.728L166.16,38.728L166.242,38.361Z" style="fill:white;fill-rule:nonzero;"/>
            <path d="M168.395,39.786C168.395,38.706 168.245,37.873 167.975,37.401C167.772,37.056 167.352,36.681 167.157,36.561L166.715,36.561C167.052,36.823 167.412,37.176 167.607,37.506C167.847,37.903 167.997,38.638 167.997,39.786C167.997,40.926 167.847,41.653 167.615,42.058C167.42,42.396 167.037,42.756 166.722,43.011L167.165,43.011C167.352,42.891 167.765,42.546 167.975,42.178C168.23,41.713 168.395,40.866 168.395,39.786Z" style="fill:white;fill-rule:nonzero;"/>
        </g>
    </g>
</svg>
