<?xml version="1.0" encoding="UTF-8" standalone="no"?>
<!DOCTYPE svg PUBLIC "-//W3C//DTD SVG 1.1//EN" "http://www.w3.org/Graphics/SVG/1.1/DTD/svg11.dtd">
<svg width="100%" height="100%" viewBox="0 0 260 86" version="1.1" xmlns="http://www.w3.org/2000/svg" xmlns:xlink="http://www.w3.org/1999/xlink" xml:space="preserve" style="fill-rule:evenodd;clip-rule:evenodd;stroke-linejoin:round;stroke-miterlimit:1.41421;">
    <g id="primary">
        <g transform="matrix(1,0,0,1,-1.5035,0)">
            <path d="M159.886,53.858L76.333,53.858L84.628,45.564L78.71,45.564L78.71,39.475L84.626,39.475L76.331,31.181L84.43,31.181L56.061,2.835L131.541,2.837L154.266,25.561L87.825,25.56L93.446,31.181L159.884,31.181L168.179,39.475L181.661,39.475L145,2.835L220.48,2.837L243.206,25.561L176.764,25.56L182.385,31.181L248.83,31.181L260.17,42.521L248.833,53.858L182.385,53.858L176.764,59.479L243.206,59.478L220.48,82.202L145,82.204L181.663,45.564L168.181,45.564L159.886,53.858Z" style="fill:rgb(51,51,51);"/>
        </g>
        <g transform="matrix(1,0,0,1,-1.5035,0)">
            <path d="M2.837,42.52L42.521,82.204L82.205,42.521L42.52,2.836L2.837,42.52Z"/>
            <g transform="matrix(0.314988,0,0,0.314988,1.94338,29.1267)">
                <path d="M2.837,42.52L42.521,82.204L82.205,42.521L42.52,2.836L2.837,42.52Z" style="fill:rgb(55,5,170);"/>
            </g>
            <g transform="matrix(0.314988,0,0,0.314988,15.503,15.567)">
                <path d="M2.837,42.52L42.521,82.204L82.205,42.521L42.52,2.836L2.837,42.52Z" style="fill:rgb(48,57,76);"/>
            </g>
            <g transform="matrix(0.314988,-1.61778e-32,-1.69482e-32,0.314988,29.1274,56.3107)">
                <path d="M2.837,42.52L42.521,82.204L82.205,42.521L42.52,2.836L2.837,42.52Z" style="fill:rgb(2,94,178);"/>
            </g>
            <g transform="matrix(0.314988,-1.61778e-32,-1.69482e-32,0.314988,42.6674,42.7707)">
                <path d="M2.837,42.52L42.521,82.204L82.205,42.521L42.52,2.836L2.837,42.52Z" style="fill:rgb(30,144,98);"/>
            </g>
            <g transform="matrix(1,0,0,1,-5.95196,2.48475)">
                <path d="M30.437,28.211C30.437,27.867 30.381,27.451 30.181,27.211C29.773,26.691 27.477,26.291 27.125,25.843C27.005,25.691 26.949,25.435 26.949,25.131C26.949,24.763 27.077,24.483 27.205,24.347C27.381,24.139 27.821,24.011 28.565,24.011C29.309,24.011 29.733,24.067 30.237,24.123L30.237,23.715C29.829,23.643 29.285,23.587 28.629,23.587C27.645,23.587 27.133,23.787 26.877,24.035C26.605,24.299 26.477,24.731 26.477,25.171C26.477,25.499 26.533,25.923 26.717,26.147C27.173,26.731 29.317,27.027 29.765,27.515C29.885,27.651 29.949,27.907 29.949,28.235C29.949,28.635 29.821,28.899 29.677,29.043C29.509,29.203 29.069,29.331 28.245,29.331C27.493,29.331 26.965,29.235 26.493,29.155L26.493,29.571C26.893,29.667 27.493,29.763 28.237,29.763C29.093,29.763 29.693,29.635 30.021,29.355C30.269,29.139 30.437,28.691 30.437,28.211Z" style="fill:white;fill-rule:nonzero;"/>
                <path d="M35.645,23.675L30.909,23.675L30.797,24.099L32.965,24.099L32.965,29.675L33.429,29.675L33.429,24.099L35.549,24.099L35.645,23.675Z" style="fill:white;fill-rule:nonzero;"/>
                <path d="M42.845,29.675L42.845,23.675L42.013,23.675L39.821,28.491L39.685,28.491L37.581,23.675L36.717,23.675L36.717,29.675L37.157,29.675L37.157,24.115L37.285,24.115L39.413,28.947L40.061,28.947L42.269,24.115L42.389,24.115L42.389,29.675L42.845,29.675Z" style="fill:white;fill-rule:nonzero;"/>
            </g>
            <g transform="matrix(1,0,0,1,-19.5116,15.4648)">
                <path d="M35.417,23.675L34.921,23.675L33.465,29.211L33.281,29.211L31.729,23.675L30.961,23.675L29.193,29.211L29.025,29.211L27.721,23.675L27.233,23.675L28.649,29.675L29.489,29.675L31.257,24.139L31.393,24.139L32.937,29.675L33.785,29.675L35.417,23.675Z" style="fill:white;fill-rule:nonzero;"/>
                <rect x="36.745" y="23.675" width="0.472" height="6" style="fill:white;"/>
                <path d="M39.513,23.675L39.049,23.675L39.049,29.675L42.601,29.675L42.737,29.251L39.513,29.251L39.513,23.675Z" style="fill:white;fill-rule:nonzero;"/>
            </g>
            <g transform="matrix(1,0,0,1,7.67239,42.9271)">
                <path d="M30.917,23.747C30.501,23.675 30.037,23.595 29.317,23.595C28.277,23.595 27.709,23.835 27.317,24.171C26.949,24.467 26.429,25.235 26.429,26.771C26.429,28.059 26.749,28.795 27.117,29.155C27.533,29.547 28.045,29.755 29.069,29.755C29.757,29.755 30.429,29.643 30.917,29.515L30.917,29.115C30.493,29.195 29.845,29.315 29.157,29.315C28.317,29.315 27.805,29.147 27.493,28.835C27.117,28.459 26.917,27.707 26.917,26.699C26.917,25.563 27.285,24.771 27.653,24.475C27.981,24.219 28.461,24.035 29.325,24.035C30.085,24.035 30.501,24.107 30.917,24.155L30.917,23.747Z" style="fill:white;fill-rule:nonzero;"/>
                <path d="M36.965,29.675L36.965,23.675L36.501,23.675L36.501,26.419L32.805,26.419L32.805,23.675L32.333,23.675L32.333,29.675L32.805,29.675L32.805,26.851L36.501,26.851L36.501,29.675L36.965,29.675Z" style="fill:white;fill-rule:nonzero;"/>
                <path d="M43.669,29.675L41.429,23.675L40.573,23.675L38.173,29.675L38.661,29.675L39.469,27.627L42.397,27.627L43.149,29.675L43.669,29.675ZM42.253,27.211L39.621,27.211L40.853,24.115L41.109,24.115L42.253,27.211Z" style="fill:white;fill-rule:nonzero;"/>
            </g>
        </g>
        <g transform="matrix(0.251991,0,-3.85186e-34,0.251991,82.7617,32.2854)">
            <path d="M2.837,42.52L42.521,82.204L82.205,42.521L42.52,2.836L2.837,42.52Z"/>
            <g transform="matrix(0.314988,0,0,0.314988,1.94338,29.1267)">
                <path d="M2.837,42.52L42.521,82.204L82.205,42.521L42.52,2.836L2.837,42.52Z" style="fill:rgb(55,5,170);"/>
            </g>
            <g transform="matrix(0.314988,0,0,0.314988,15.503,15.567)">
                <path d="M2.837,42.52L42.521,82.204L82.205,42.521L42.52,2.836L2.837,42.52Z" style="fill:rgb(48,57,76);"/>
            </g>
            <g transform="matrix(0.314988,-1.61778e-32,-1.69482e-32,0.314988,29.1274,56.3107)">
                <path d="M2.837,42.52L42.521,82.204L82.205,42.521L42.52,2.836L2.837,42.52Z" style="fill:rgb(2,94,178);"/>
            </g>
        </g>
        <g transform="matrix(0.251991,0,-3.85186e-34,0.251991,67.5201,3.46329)">
            <path d="M2.837,42.52L42.521,82.204L82.205,42.521L42.52,2.836L2.837,42.52Z"/>
            <g transform="matrix(0.314988,0,0,0.314988,15.503,15.567)">
                <path d="M2.837,42.52L42.521,82.204L82.205,42.521L42.52,2.836L2.837,42.52Z" style="fill:rgb(48,57,76);"/>
            </g>
        </g>
        <g transform="matrix(0.251991,0,-3.85186e-34,0.251991,156.897,3.46329)">
            <path d="M2.837,42.52L42.521,82.204L82.205,42.521L42.52,2.836L2.837,42.52Z"/>
            <g transform="matrix(0.314988,0,0,0.314988,1.94338,29.1267)">
                <path d="M2.837,42.52L42.521,82.204L82.205,42.521L42.52,2.836L2.837,42.52Z" style="fill:rgb(55,5,170);"/>
            </g>
            <g transform="matrix(0.314988,-1.61778e-32,-1.69482e-32,0.314988,29.1274,56.3107)">
                <path d="M2.837,42.52L42.521,82.204L82.205,42.521L42.52,2.836L2.837,42.52Z" style="fill:rgb(2,94,178);"/>
            </g>
            <g transform="matrix(0.314988,-1.61778e-32,-1.69482e-32,0.314988,42.6615,42.7766)">
                <path d="M2.837,42.52L42.521,82.204L82.205,42.521L42.52,2.836L2.837,42.52Z" style="fill:rgb(30,144,98);"/>
            </g>
        </g>
        <g transform="matrix(0.251991,0,-3.85186e-34,0.251991,156.897,60.1292)">
            <path d="M2.837,42.52L42.521,82.204L82.205,42.521L42.52,2.836L2.837,42.52Z"/>
            <g transform="matrix(0.314988,0,0,0.314988,1.94338,29.1267)">
                <path d="M2.837,42.52L42.521,82.204L82.205,42.521L42.52,2.836L2.837,42.52Z" style="fill:rgb(55,5,170);"/>
            </g>
            <g transform="matrix(0.314988,-1.61778e-32,-1.69482e-32,0.314988,29.1274,56.3107)">
                <path d="M2.837,42.52L42.521,82.204L82.205,42.521L42.52,2.836L2.837,42.52Z" style="fill:rgb(2,94,178);"/>
            </g>
        </g>
        <g transform="matrix(0.251991,0,-3.85186e-34,0.251991,182.145,32.2854)">
            <path d="M2.837,42.52L42.521,82.204L82.205,42.521L42.52,2.836L2.837,42.52Z"/>
            <g transform="matrix(0.314988,0,0,0.314988,1.94338,29.1267)">
                <path d="M2.837,42.52L42.521,82.204L82.205,42.521L42.52,2.836L2.837,42.52Z" style="fill:rgb(55,5,170);"/>
            </g>
            <g transform="matrix(0.314988,-1.61778e-32,-1.69482e-32,0.314988,29.1274,56.3107)">
                <path d="M2.837,42.52L42.521,82.204L82.205,42.521L42.52,2.836L2.837,42.52Z" style="fill:rgb(2,94,178);"/>
            </g>
        </g>
        <g transform="matrix(1,0,0,1,19.9225,2.20558)">
            <path d="M85.716,36.454L85.716,42.454L86.188,42.454L86.188,39.822L87.02,39.822C87.628,39.822 88.052,39.854 88.212,39.958C88.524,40.15 88.868,40.886 89.556,42.454L90.068,42.454C89.556,41.278 89.124,40.278 88.884,39.982C88.796,39.886 88.564,39.75 88.396,39.67L88.396,39.654C88.724,39.542 89.052,39.358 89.14,39.286C89.38,39.062 89.604,38.582 89.604,37.974C89.604,37.302 89.42,36.934 89.148,36.742C88.892,36.55 88.46,36.454 87.524,36.454L85.716,36.454ZM86.188,36.862L87.492,36.862C88.3,36.862 88.62,36.95 88.812,37.102C89.004,37.246 89.124,37.55 89.124,38.038C89.124,38.686 88.836,39.142 88.476,39.286C88.284,39.358 87.964,39.406 87.452,39.406L86.188,39.406L86.188,36.862Z" style="fill:white;fill-rule:nonzero;"/>
            <path d="M90.9,40.246C90.9,41.774 91.436,42.542 92.932,42.542C93.548,42.542 94.124,42.43 94.444,42.35L94.476,41.966C94.164,42.014 93.636,42.118 92.988,42.118C91.732,42.118 91.38,41.454 91.38,40.23L94.652,40.23L94.652,39.678C94.652,38.526 94.228,37.878 92.948,37.878C91.54,37.878 90.9,38.678 90.9,40.246ZM92.9,38.262C93.868,38.262 94.196,38.718 94.196,39.71L94.196,39.87L91.396,39.87C91.46,38.806 91.868,38.262 92.9,38.262Z" style="fill:white;fill-rule:nonzero;"/>
            <path d="M99.66,37.966L99.58,37.966L99.364,38.11C98.964,38.014 98.516,37.918 97.948,37.918C97.188,37.918 96.708,38.11 96.428,38.382C96.044,38.766 95.812,39.462 95.812,40.398C95.812,41.318 96.036,41.886 96.404,42.174C96.66,42.382 97.044,42.518 97.676,42.518C98.26,42.518 98.748,42.406 98.884,42.318C98.932,42.294 99.092,42.102 99.164,42.014L99.196,42.014L99.196,42.254C99.196,43.262 99.044,43.678 98.82,43.902C98.612,44.086 98.26,44.222 97.604,44.222C96.94,44.222 96.356,44.126 96.044,44.07L96.044,44.478C96.348,44.534 96.916,44.646 97.628,44.646C98.42,44.646 98.852,44.462 99.124,44.214C99.436,43.918 99.66,43.43 99.66,42.214L99.66,37.966ZM96.292,40.318C96.292,39.494 96.476,38.958 96.748,38.678C96.996,38.438 97.38,38.318 97.98,38.318C98.452,38.318 98.868,38.382 99.196,38.422L99.196,41.846C98.796,42.03 98.284,42.11 97.82,42.11C97.372,42.11 96.964,42.014 96.732,41.83C96.46,41.614 96.292,41.15 96.292,40.318Z" style="fill:white;fill-rule:nonzero;"/>
            <path d="M101.124,40.246C101.124,41.774 101.66,42.542 103.156,42.542C103.772,42.542 104.348,42.43 104.668,42.35L104.7,41.966C104.388,42.014 103.86,42.118 103.212,42.118C101.956,42.118 101.604,41.454 101.604,40.23L104.876,40.23L104.876,39.678C104.876,38.526 104.452,37.878 103.172,37.878C101.764,37.878 101.124,38.678 101.124,40.246ZM103.124,38.262C104.092,38.262 104.42,38.718 104.42,39.71L104.42,39.87L101.62,39.87C101.684,38.806 102.092,38.262 103.124,38.262Z" style="fill:white;fill-rule:nonzero;"/>
            <path d="M109.908,42.454L109.908,39.518C109.908,38.91 109.78,38.502 109.532,38.27C109.292,38.03 108.948,37.902 108.364,37.902C107.796,37.902 107.22,38.062 107.004,38.182C106.98,38.198 106.796,38.406 106.772,38.438L106.732,38.438L106.604,37.966L106.268,37.966L106.268,42.454L106.732,42.454L106.732,38.614C107.084,38.47 107.588,38.318 108.164,38.318C108.58,38.318 108.932,38.398 109.132,38.59C109.332,38.782 109.444,39.11 109.444,39.678L109.444,42.454L109.908,42.454Z" style="fill:white;fill-rule:nonzero;"/>
            <path d="M111.356,40.246C111.356,41.774 111.892,42.542 113.388,42.542C114.004,42.542 114.58,42.43 114.9,42.35L114.932,41.966C114.62,42.014 114.092,42.118 113.444,42.118C112.188,42.118 111.836,41.454 111.836,40.23L115.108,40.23L115.108,39.678C115.108,38.526 114.684,37.878 113.404,37.878C111.996,37.878 111.356,38.678 111.356,40.246ZM113.356,38.262C114.324,38.262 114.652,38.718 114.652,39.71L114.652,39.87L111.852,39.87C111.916,38.806 112.324,38.262 113.356,38.262Z" style="fill:white;fill-rule:nonzero;"/>
            <path d="M116.5,37.966L116.5,42.454L116.964,42.454L116.964,38.678C117.236,38.502 117.748,38.318 118.292,38.326C118.564,38.326 118.796,38.358 118.932,38.382L118.932,37.934C118.812,37.918 118.644,37.902 118.42,37.902C117.86,37.902 117.452,38.054 117.236,38.182C117.22,38.198 117.028,38.43 117.004,38.462L116.956,38.462L116.844,37.966L116.5,37.966Z" style="fill:white;fill-rule:nonzero;"/>
            <path d="M123.068,42.454L123.068,39.67C123.068,38.79 122.94,38.454 122.74,38.238C122.524,37.99 122.132,37.886 121.516,37.886C120.876,37.886 120.212,38.022 119.876,38.11L119.876,38.486C120.18,38.43 120.876,38.302 121.42,38.302C121.924,38.302 122.22,38.382 122.364,38.55C122.516,38.734 122.612,39.054 122.612,39.83C121.18,39.958 120.268,40.126 119.924,40.382C119.748,40.494 119.572,40.798 119.572,41.302C119.572,41.718 119.668,41.998 119.828,42.174C120.012,42.382 120.348,42.534 120.972,42.534C121.748,42.534 122.228,42.334 122.364,42.238C122.404,42.206 122.516,42.054 122.58,41.966L122.62,41.966L122.732,42.454L123.068,42.454ZM122.612,41.83C122.372,41.95 121.804,42.142 121.124,42.142C120.636,42.142 120.348,42.03 120.212,41.886C120.1,41.758 120.028,41.55 120.028,41.262C120.028,40.926 120.108,40.726 120.228,40.622C120.412,40.422 121.572,40.254 122.612,40.19L122.612,41.83Z" style="fill:white;fill-rule:nonzero;"/>
            <path d="M127.148,37.966L125.468,37.966L125.468,36.91L125.004,37.03L125.004,37.966L124.14,37.966L124.076,38.358L125.004,38.358L125.004,41.438C125.004,42.214 125.332,42.502 126.132,42.502C126.476,42.502 126.852,42.446 127.092,42.398L127.132,42.006C126.956,42.03 126.62,42.086 126.252,42.086C125.748,42.086 125.468,41.958 125.468,41.35L125.468,38.358L127.06,38.358L127.148,37.966Z" style="fill:white;fill-rule:nonzero;"/>
            <path d="M128.812,42.454L128.812,37.966L128.348,37.966L128.348,42.454L128.812,42.454ZM128.884,36.438C128.884,36.334 128.868,36.254 128.812,36.206C128.772,36.166 128.7,36.15 128.604,36.15C128.5,36.15 128.42,36.174 128.396,36.206C128.332,36.238 128.3,36.326 128.3,36.446C128.3,36.55 128.324,36.63 128.364,36.67C128.404,36.718 128.476,36.734 128.588,36.734C128.676,36.734 128.764,36.718 128.812,36.678C128.868,36.638 128.884,36.542 128.884,36.438Z" style="fill:white;fill-rule:nonzero;"/>
            <path d="M134.404,40.11C134.404,39.182 134.204,38.662 133.876,38.318C133.596,38.038 133.124,37.846 132.444,37.846C131.732,37.846 131.236,38.054 130.916,38.358C130.508,38.742 130.276,39.446 130.276,40.318C130.276,41.182 130.508,41.71 130.764,42.006C131.06,42.342 131.532,42.55 132.276,42.55C133.068,42.55 133.524,42.334 133.836,42.014C134.18,41.654 134.404,40.99 134.404,40.11ZM132.324,42.15C131.676,42.15 131.332,41.95 131.116,41.702C130.892,41.446 130.74,40.934 130.74,40.262C130.74,39.446 130.988,38.878 131.26,38.63C131.468,38.438 131.836,38.262 132.388,38.262C132.948,38.262 133.292,38.406 133.516,38.638C133.756,38.886 133.932,39.27 133.932,40.19C133.932,40.99 133.732,41.486 133.452,41.774C133.22,42.006 132.82,42.15 132.324,42.15Z" style="fill:white;fill-rule:nonzero;"/>
            <path d="M139.508,42.454L139.508,39.518C139.508,38.91 139.38,38.502 139.132,38.27C138.892,38.03 138.548,37.902 137.964,37.902C137.396,37.902 136.82,38.062 136.604,38.182C136.58,38.198 136.396,38.406 136.372,38.438L136.332,38.438L136.204,37.966L135.868,37.966L135.868,42.454L136.332,42.454L136.332,38.614C136.684,38.47 137.188,38.318 137.764,38.318C138.18,38.318 138.532,38.398 138.732,38.59C138.932,38.782 139.044,39.11 139.044,39.678L139.044,42.454L139.508,42.454Z" style="fill:white;fill-rule:nonzero;"/>
        </g>
        <g transform="matrix(1,0,0,1,103.365,2.38158)">
            <path d="M108.648,42.454L108.648,36.454L108.184,36.454L108.184,39.198L104.488,39.198L104.488,36.454L104.016,36.454L104.016,42.454L104.488,42.454L104.488,39.63L108.184,39.63L108.184,42.454L108.648,42.454Z" style="fill:white;fill-rule:nonzero;"/>
            <path d="M110.192,40.246C110.192,41.774 110.728,42.542 112.224,42.542C112.84,42.542 113.416,42.43 113.736,42.35L113.768,41.966C113.456,42.014 112.928,42.118 112.28,42.118C111.024,42.118 110.672,41.454 110.672,40.23L113.944,40.23L113.944,39.678C113.944,38.526 113.52,37.878 112.24,37.878C110.832,37.878 110.192,38.678 110.192,40.246ZM112.192,38.262C113.16,38.262 113.488,38.718 113.488,39.71L113.488,39.87L110.688,39.87C110.752,38.806 111.16,38.262 112.192,38.262Z" style="fill:white;fill-rule:nonzero;"/>
            <path d="M118.536,42.454L118.536,39.67C118.536,38.79 118.408,38.454 118.208,38.238C117.992,37.99 117.6,37.886 116.984,37.886C116.344,37.886 115.68,38.022 115.344,38.11L115.344,38.486C115.648,38.43 116.344,38.302 116.888,38.302C117.392,38.302 117.688,38.382 117.832,38.55C117.984,38.734 118.08,39.054 118.08,39.83C116.648,39.958 115.736,40.126 115.392,40.382C115.216,40.494 115.04,40.798 115.04,41.302C115.04,41.718 115.136,41.998 115.296,42.174C115.48,42.382 115.816,42.534 116.44,42.534C117.216,42.534 117.696,42.334 117.832,42.238C117.872,42.206 117.984,42.054 118.048,41.966L118.088,41.966L118.2,42.454L118.536,42.454ZM118.08,41.83C117.84,41.95 117.272,42.142 116.592,42.142C116.104,42.142 115.816,42.03 115.68,41.886C115.568,41.758 115.496,41.55 115.496,41.262C115.496,40.926 115.576,40.726 115.696,40.622C115.88,40.422 117.04,40.254 118.08,40.19L118.08,41.83Z" style="fill:white;fill-rule:nonzero;"/>
            <path d="M120.2,35.974L120.2,41.438C120.2,42.19 120.496,42.502 121.144,42.502C121.448,42.502 121.728,42.454 121.92,42.414L121.92,42.046C121.76,42.07 121.544,42.102 121.28,42.102C120.904,42.102 120.664,41.966 120.664,41.39L120.664,35.974L120.2,35.974Z" style="fill:white;fill-rule:nonzero;"/>
        </g>
        <g transform="matrix(1,0,0,1,84.4459,26.4758)">
            <path d="M102.264,42.454L102.264,36.454L101.8,36.454L101.8,39.198L98.104,39.198L98.104,36.454L97.632,36.454L97.632,42.454L98.104,42.454L98.104,39.63L101.8,39.63L101.8,42.454L102.264,42.454Z" style="fill:white;fill-rule:nonzero;"/>
            <path d="M103.808,40.246C103.808,41.774 104.344,42.542 105.84,42.542C106.456,42.542 107.032,42.43 107.352,42.35L107.384,41.966C107.072,42.014 106.544,42.118 105.896,42.118C104.64,42.118 104.288,41.454 104.288,40.23L107.56,40.23L107.56,39.678C107.56,38.526 107.136,37.878 105.856,37.878C104.448,37.878 103.808,38.678 103.808,40.246ZM105.808,38.262C106.776,38.262 107.104,38.718 107.104,39.71L107.104,39.87L104.304,39.87C104.368,38.806 104.776,38.262 105.808,38.262Z" style="fill:white;fill-rule:nonzero;"/>
            <path d="M112.152,42.454L112.152,39.67C112.152,38.79 112.024,38.454 111.824,38.238C111.608,37.99 111.216,37.886 110.6,37.886C109.96,37.886 109.296,38.022 108.96,38.11L108.96,38.486C109.264,38.43 109.96,38.302 110.504,38.302C111.008,38.302 111.304,38.382 111.448,38.55C111.6,38.734 111.696,39.054 111.696,39.83C110.264,39.958 109.352,40.126 109.008,40.382C108.832,40.494 108.656,40.798 108.656,41.302C108.656,41.718 108.752,41.998 108.912,42.174C109.096,42.382 109.432,42.534 110.056,42.534C110.832,42.534 111.312,42.334 111.448,42.238C111.488,42.206 111.6,42.054 111.664,41.966L111.704,41.966L111.816,42.454L112.152,42.454ZM111.696,41.83C111.456,41.95 110.888,42.142 110.208,42.142C109.72,42.142 109.432,42.03 109.296,41.886C109.184,41.758 109.112,41.55 109.112,41.262C109.112,40.926 109.192,40.726 109.312,40.622C109.496,40.422 110.656,40.254 111.696,40.19L111.696,41.83Z" style="fill:white;fill-rule:nonzero;"/>
            <path d="M113.816,35.974L113.816,41.438C113.816,42.19 114.112,42.502 114.76,42.502C115.064,42.502 115.344,42.454 115.536,42.414L115.536,42.046C115.376,42.07 115.16,42.102 114.896,42.102C114.52,42.102 114.28,41.966 114.28,41.39L114.28,35.974L113.816,35.974Z" style="fill:white;fill-rule:nonzero;"/>
            <path d="M116.96,42.454L116.96,37.966L116.496,37.966L116.496,42.454L116.96,42.454ZM117.032,36.438C117.032,36.334 117.016,36.254 116.96,36.206C116.92,36.166 116.848,36.15 116.752,36.15C116.648,36.15 116.568,36.174 116.544,36.206C116.48,36.238 116.448,36.326 116.448,36.446C116.448,36.55 116.472,36.63 116.512,36.67C116.552,36.718 116.624,36.734 116.736,36.734C116.824,36.734 116.912,36.718 116.96,36.678C117.016,36.638 117.032,36.542 117.032,36.438Z" style="fill:white;fill-rule:nonzero;"/>
            <path d="M122.288,42.454L122.288,39.518C122.288,38.91 122.16,38.502 121.912,38.27C121.672,38.03 121.328,37.902 120.744,37.902C120.176,37.902 119.6,38.062 119.384,38.182C119.36,38.198 119.176,38.406 119.152,38.438L119.112,38.438L118.984,37.966L118.648,37.966L118.648,42.454L119.112,42.454L119.112,38.614C119.464,38.47 119.968,38.318 120.544,38.318C120.96,38.318 121.312,38.398 121.512,38.59C121.712,38.782 121.824,39.11 121.824,39.678L121.824,42.454L122.288,42.454Z" style="fill:white;fill-rule:nonzero;"/>
            <path d="M127.576,37.966L127.496,37.966L127.28,38.11C126.88,38.014 126.432,37.918 125.864,37.918C125.104,37.918 124.624,38.11 124.344,38.382C123.96,38.766 123.728,39.462 123.728,40.398C123.728,41.318 123.952,41.886 124.32,42.174C124.576,42.382 124.96,42.518 125.592,42.518C126.176,42.518 126.664,42.406 126.8,42.318C126.848,42.294 127.008,42.102 127.08,42.014L127.112,42.014L127.112,42.254C127.112,43.262 126.96,43.678 126.736,43.902C126.528,44.086 126.176,44.222 125.52,44.222C124.856,44.222 124.272,44.126 123.96,44.07L123.96,44.478C124.264,44.534 124.832,44.646 125.544,44.646C126.336,44.646 126.768,44.462 127.04,44.214C127.352,43.918 127.576,43.43 127.576,42.214L127.576,37.966ZM124.208,40.318C124.208,39.494 124.392,38.958 124.664,38.678C124.912,38.438 125.296,38.318 125.896,38.318C126.368,38.318 126.784,38.382 127.112,38.422L127.112,41.846C126.712,42.03 126.2,42.11 125.736,42.11C125.288,42.11 124.88,42.014 124.648,41.83C124.376,41.614 124.208,41.15 124.208,40.318Z" style="fill:white;fill-rule:nonzero;"/>
            <path d="M104.12,50.454L104.12,47.782L106.728,47.782L106.824,47.366L104.12,47.366L104.12,44.878L107.2,44.878L107.304,44.454L103.648,44.454L103.648,50.454L104.12,50.454Z" style="fill:white;fill-rule:nonzero;"/>
            <path d="M108.784,50.454L108.784,45.966L108.32,45.966L108.32,50.454L108.784,50.454ZM108.856,44.438C108.856,44.334 108.84,44.254 108.784,44.206C108.744,44.166 108.672,44.15 108.576,44.15C108.472,44.15 108.392,44.174 108.368,44.206C108.304,44.238 108.272,44.326 108.272,44.446C108.272,44.55 108.296,44.63 108.336,44.67C108.376,44.718 108.448,44.734 108.56,44.734C108.648,44.734 108.736,44.718 108.784,44.678C108.84,44.638 108.856,44.542 108.856,44.438Z" style="fill:white;fill-rule:nonzero;"/>
            <path d="M110.248,48.246C110.248,49.774 110.784,50.542 112.28,50.542C112.896,50.542 113.472,50.43 113.792,50.35L113.824,49.966C113.512,50.014 112.984,50.118 112.336,50.118C111.08,50.118 110.728,49.454 110.728,48.23L114,48.23L114,47.678C114,46.526 113.576,45.878 112.296,45.878C110.888,45.878 110.248,46.678 110.248,48.246ZM112.248,46.262C113.216,46.262 113.544,46.718 113.544,47.71L113.544,47.87L110.744,47.87C110.808,46.806 111.216,46.262 112.248,46.262Z" style="fill:white;fill-rule:nonzero;"/>
            <path d="M115.368,43.974L115.368,49.438C115.368,50.19 115.664,50.502 116.312,50.502C116.616,50.502 116.896,50.454 117.088,50.414L117.088,50.046C116.928,50.07 116.712,50.102 116.448,50.102C116.072,50.102 115.832,49.966 115.832,49.39L115.832,43.974L115.368,43.974Z" style="fill:white;fill-rule:nonzero;"/>
            <path d="M121.088,46.054C120.712,45.958 120.344,45.886 119.808,45.886C119.128,45.886 118.672,46.046 118.352,46.358C117.96,46.726 117.736,47.438 117.736,48.342C117.736,49.366 117.992,49.926 118.304,50.19C118.584,50.422 118.992,50.55 119.624,50.55C120.24,50.55 120.648,50.414 120.784,50.326C120.832,50.294 120.984,50.118 121.064,50.03L121.088,50.03L121.2,50.454L121.56,50.454L121.56,43.934L121.088,43.934L121.088,46.054ZM118.216,48.31C118.216,47.446 118.416,46.894 118.688,46.638C118.944,46.398 119.312,46.286 119.872,46.286C120.368,46.286 120.784,46.366 121.088,46.406L121.088,49.87C120.688,50.062 120.2,50.142 119.752,50.142C119.28,50.142 118.88,50.038 118.672,49.854C118.424,49.638 118.216,49.19 118.216,48.31Z" style="fill:white;fill-rule:nonzero;"/>
        </g>
        <g transform="matrix(1,0,0,1,84.2699,-30.1698)">
            <path d="M101.228,36.526C100.812,36.454 100.348,36.374 99.628,36.374C98.588,36.374 98.02,36.614 97.628,36.95C97.26,37.246 96.74,38.014 96.74,39.55C96.74,40.838 97.06,41.574 97.428,41.934C97.844,42.326 98.356,42.534 99.38,42.534C100.068,42.534 100.74,42.422 101.228,42.294L101.228,41.894C100.804,41.974 100.156,42.094 99.468,42.094C98.628,42.094 98.116,41.926 97.804,41.614C97.428,41.238 97.228,40.486 97.228,39.478C97.228,38.342 97.596,37.55 97.964,37.254C98.292,36.998 98.772,36.814 99.636,36.814C100.396,36.814 100.812,36.886 101.228,36.934L101.228,36.526Z" style="fill:white;fill-rule:nonzero;"/>
            <path d="M106.492,40.11C106.492,39.182 106.292,38.662 105.964,38.318C105.684,38.038 105.212,37.846 104.532,37.846C103.82,37.846 103.324,38.054 103.004,38.358C102.596,38.742 102.364,39.446 102.364,40.318C102.364,41.182 102.596,41.71 102.852,42.006C103.148,42.342 103.62,42.55 104.364,42.55C105.156,42.55 105.612,42.334 105.924,42.014C106.268,41.654 106.492,40.99 106.492,40.11ZM104.412,42.15C103.764,42.15 103.42,41.95 103.204,41.702C102.98,41.446 102.828,40.934 102.828,40.262C102.828,39.446 103.076,38.878 103.348,38.63C103.556,38.438 103.924,38.262 104.476,38.262C105.036,38.262 105.38,38.406 105.604,38.638C105.844,38.886 106.02,39.27 106.02,40.19C106.02,40.99 105.82,41.486 105.54,41.774C105.308,42.006 104.908,42.15 104.412,42.15Z" style="fill:white;fill-rule:nonzero;"/>
            <path d="M114.476,42.454L114.476,39.518C114.476,38.902 114.372,38.494 114.116,38.254C113.876,38.022 113.54,37.902 113.012,37.902C112.428,37.902 111.916,38.078 111.66,38.222L111.412,38.534L111.372,38.534C111.332,38.462 111.276,38.366 111.172,38.27C110.924,38.03 110.556,37.902 109.98,37.902C109.396,37.902 108.9,38.062 108.692,38.174L108.452,38.438L108.412,38.438L108.292,37.966L107.948,37.966L107.948,42.454L108.412,42.454L108.412,38.622C108.748,38.486 109.212,38.318 109.796,38.318C110.164,38.318 110.54,38.39 110.732,38.574C110.916,38.75 110.98,38.99 110.98,39.382L110.98,42.454L111.444,42.454L111.444,38.678C111.764,38.51 112.236,38.318 112.812,38.318C113.188,38.318 113.524,38.406 113.716,38.59C113.908,38.774 114.012,39.086 114.012,39.678L114.012,42.454L114.476,42.454Z" style="fill:white;fill-rule:nonzero;"/>
            <path d="M120.012,39.998C120.012,39.078 119.78,38.526 119.46,38.238C119.204,38.014 118.828,37.878 118.204,37.878C117.596,37.878 117.068,38.022 116.94,38.11C116.892,38.134 116.708,38.31 116.644,38.398L116.612,38.398L116.612,35.974L116.148,35.974L116.148,42.454L116.212,42.454L116.444,42.318C116.844,42.414 117.316,42.494 117.868,42.494C118.628,42.494 119.092,42.326 119.396,42.038C119.78,41.67 120.012,40.95 120.012,39.998ZM119.532,40.094C119.532,40.926 119.332,41.486 119.044,41.758C118.804,41.982 118.428,42.102 117.82,42.102C117.364,42.102 116.924,42.038 116.612,41.99L116.612,38.558C117.004,38.382 117.54,38.294 118.028,38.294C118.564,38.294 118.884,38.398 119.092,38.582C119.324,38.79 119.532,39.254 119.532,40.094Z" style="fill:white;fill-rule:nonzero;"/>
            <path d="M124.676,42.454L124.676,39.67C124.676,38.79 124.548,38.454 124.348,38.238C124.132,37.99 123.74,37.886 123.124,37.886C122.484,37.886 121.82,38.022 121.484,38.11L121.484,38.486C121.788,38.43 122.484,38.302 123.028,38.302C123.532,38.302 123.828,38.382 123.972,38.55C124.124,38.734 124.22,39.054 124.22,39.83C122.788,39.958 121.876,40.126 121.532,40.382C121.356,40.494 121.18,40.798 121.18,41.302C121.18,41.718 121.276,41.998 121.436,42.174C121.62,42.382 121.956,42.534 122.58,42.534C123.356,42.534 123.836,42.334 123.972,42.238C124.012,42.206 124.124,42.054 124.188,41.966L124.228,41.966L124.34,42.454L124.676,42.454ZM124.22,41.83C123.98,41.95 123.412,42.142 122.732,42.142C122.244,42.142 121.956,42.03 121.82,41.886C121.708,41.758 121.636,41.55 121.636,41.262C121.636,40.926 121.716,40.726 121.836,40.622C122.02,40.422 123.18,40.254 124.22,40.19L124.22,41.83Z" style="fill:white;fill-rule:nonzero;"/>
            <path d="M128.756,37.966L127.076,37.966L127.076,36.91L126.612,37.03L126.612,37.966L125.748,37.966L125.684,38.358L126.612,38.358L126.612,41.438C126.612,42.214 126.94,42.502 127.74,42.502C128.084,42.502 128.46,42.446 128.7,42.398L128.74,42.006C128.564,42.03 128.228,42.086 127.86,42.086C127.356,42.086 127.076,41.958 127.076,41.35L127.076,38.358L128.668,38.358L128.756,37.966Z" style="fill:white;fill-rule:nonzero;"/>
            <path d="M102.264,50.454L102.264,44.454L101.8,44.454L101.8,47.198L98.104,47.198L98.104,44.454L97.632,44.454L97.632,50.454L98.104,50.454L98.104,47.63L101.8,47.63L101.8,50.454L102.264,50.454Z" style="fill:white;fill-rule:nonzero;"/>
            <path d="M103.808,48.246C103.808,49.774 104.344,50.542 105.84,50.542C106.456,50.542 107.032,50.43 107.352,50.35L107.384,49.966C107.072,50.014 106.544,50.118 105.896,50.118C104.64,50.118 104.288,49.454 104.288,48.23L107.56,48.23L107.56,47.678C107.56,46.526 107.136,45.878 105.856,45.878C104.448,45.878 103.808,46.678 103.808,48.246ZM105.808,46.262C106.776,46.262 107.104,46.718 107.104,47.71L107.104,47.87L104.304,47.87C104.368,46.806 104.776,46.262 105.808,46.262Z" style="fill:white;fill-rule:nonzero;"/>
            <path d="M112.152,50.454L112.152,47.67C112.152,46.79 112.024,46.454 111.824,46.238C111.608,45.99 111.216,45.886 110.6,45.886C109.96,45.886 109.296,46.022 108.96,46.11L108.96,46.486C109.264,46.43 109.96,46.302 110.504,46.302C111.008,46.302 111.304,46.382 111.448,46.55C111.6,46.734 111.696,47.054 111.696,47.83C110.264,47.958 109.352,48.126 109.008,48.382C108.832,48.494 108.656,48.798 108.656,49.302C108.656,49.718 108.752,49.998 108.912,50.174C109.096,50.382 109.432,50.534 110.056,50.534C110.832,50.534 111.312,50.334 111.448,50.238C111.488,50.206 111.6,50.054 111.664,49.966L111.704,49.966L111.816,50.454L112.152,50.454ZM111.696,49.83C111.456,49.95 110.888,50.142 110.208,50.142C109.72,50.142 109.432,50.03 109.296,49.886C109.184,49.758 109.112,49.55 109.112,49.262C109.112,48.926 109.192,48.726 109.312,48.622C109.496,48.422 110.656,48.254 111.696,48.19L111.696,49.83Z" style="fill:white;fill-rule:nonzero;"/>
            <path d="M113.816,43.974L113.816,49.438C113.816,50.19 114.112,50.502 114.76,50.502C115.064,50.502 115.344,50.454 115.536,50.414L115.536,50.046C115.376,50.07 115.16,50.102 114.896,50.102C114.52,50.102 114.28,49.966 114.28,49.39L114.28,43.974L113.816,43.974Z" style="fill:white;fill-rule:nonzero;"/>
            <path d="M116.96,50.454L116.96,45.966L116.496,45.966L116.496,50.454L116.96,50.454ZM117.032,44.438C117.032,44.334 117.016,44.254 116.96,44.206C116.92,44.166 116.848,44.15 116.752,44.15C116.648,44.15 116.568,44.174 116.544,44.206C116.48,44.238 116.448,44.326 116.448,44.446C116.448,44.55 116.472,44.63 116.512,44.67C116.552,44.718 116.624,44.734 116.736,44.734C116.824,44.734 116.912,44.718 116.96,44.678C117.016,44.638 117.032,44.542 117.032,44.438Z" style="fill:white;fill-rule:nonzero;"/>
            <path d="M122.288,50.454L122.288,47.518C122.288,46.91 122.16,46.502 121.912,46.27C121.672,46.03 121.328,45.902 120.744,45.902C120.176,45.902 119.6,46.062 119.384,46.182C119.36,46.198 119.176,46.406 119.152,46.438L119.112,46.438L118.984,45.966L118.648,45.966L118.648,50.454L119.112,50.454L119.112,46.614C119.464,46.47 119.968,46.318 120.544,46.318C120.96,46.318 121.312,46.398 121.512,46.59C121.712,46.782 121.824,47.11 121.824,47.678L121.824,50.454L122.288,50.454Z" style="fill:white;fill-rule:nonzero;"/>
            <path d="M127.576,45.966L127.496,45.966L127.28,46.11C126.88,46.014 126.432,45.918 125.864,45.918C125.104,45.918 124.624,46.11 124.344,46.382C123.96,46.766 123.728,47.462 123.728,48.398C123.728,49.318 123.952,49.886 124.32,50.174C124.576,50.382 124.96,50.518 125.592,50.518C126.176,50.518 126.664,50.406 126.8,50.318C126.848,50.294 127.008,50.102 127.08,50.014L127.112,50.014L127.112,50.254C127.112,51.262 126.96,51.678 126.736,51.902C126.528,52.086 126.176,52.222 125.52,52.222C124.856,52.222 124.272,52.126 123.96,52.07L123.96,52.478C124.264,52.534 124.832,52.646 125.544,52.646C126.336,52.646 126.768,52.462 127.04,52.214C127.352,51.918 127.576,51.43 127.576,50.214L127.576,45.966ZM124.208,48.318C124.208,47.494 124.392,46.958 124.664,46.678C124.912,46.438 125.296,46.318 125.896,46.318C126.368,46.318 126.784,46.382 127.112,46.422L127.112,49.846C126.712,50.03 126.2,50.11 125.736,50.11C125.288,50.11 124.88,50.014 124.648,49.83C124.376,49.614 124.208,49.15 124.208,48.318Z" style="fill:white;fill-rule:nonzero;"/>
        </g>
        <g transform="matrix(1,0,0,1,2.01044,-28.476)">
            <path d="M98.94,36.454L98.94,42.454L100.708,42.454C101.9,42.454 102.524,42.246 102.924,41.902C103.396,41.486 103.732,40.59 103.732,39.358C103.732,38.094 103.476,37.326 103.092,36.958C102.732,36.614 102.1,36.454 100.988,36.454L98.94,36.454ZM100.924,36.886C101.668,36.886 102.388,36.95 102.716,37.294C103.092,37.678 103.252,38.438 103.252,39.366C103.252,40.486 102.98,41.27 102.588,41.598C102.26,41.862 101.708,42.022 100.644,42.022L99.412,42.022L99.412,36.886L100.924,36.886Z" style="fill:white;fill-rule:nonzero;"/>
            <path d="M105.756,42.454L105.756,37.966L105.292,37.966L105.292,42.454L105.756,42.454ZM105.828,36.438C105.828,36.334 105.812,36.254 105.756,36.206C105.716,36.166 105.644,36.15 105.548,36.15C105.444,36.15 105.364,36.174 105.34,36.206C105.276,36.238 105.244,36.326 105.244,36.446C105.244,36.55 105.268,36.63 105.308,36.67C105.348,36.718 105.42,36.734 105.532,36.734C105.62,36.734 105.708,36.718 105.756,36.678C105.812,36.638 105.828,36.542 105.828,36.438Z" style="fill:white;fill-rule:nonzero;"/>
            <path d="M109.764,37.966L108.1,37.966L108.1,37.55C108.1,36.71 108.26,36.342 109.124,36.342C109.476,36.342 109.748,36.382 109.916,36.39L109.916,36.022C109.78,36.006 109.404,35.958 109.076,35.958C108.1,35.958 107.636,36.326 107.636,37.478L107.636,37.966L106.756,37.966L106.7,38.358L107.636,38.358L107.636,42.454L108.1,42.454L108.1,38.358L109.676,38.358L109.764,37.966ZM112.908,37.966L111.244,37.966L111.244,37.55C111.244,36.71 111.404,36.342 112.268,36.342C112.62,36.342 112.892,36.382 113.06,36.39L113.06,36.022C112.924,36.006 112.548,35.958 112.22,35.958C111.244,35.958 110.78,36.326 110.78,37.478L110.78,37.966L109.9,37.966L109.844,38.358L110.78,38.358L110.78,42.454L111.244,42.454L111.244,38.358L112.82,38.358L112.908,37.966Z" style="fill:white;fill-rule:nonzero;"/>
            <path d="M117.364,42.454L117.364,37.966L116.9,37.966L116.9,41.798C116.54,41.958 116.02,42.094 115.5,42.094C115.012,42.094 114.676,42.014 114.484,41.814C114.3,41.622 114.188,41.31 114.188,40.702L114.188,37.966L113.724,37.966L113.724,40.878C113.724,41.494 113.86,41.87 114.092,42.118C114.34,42.374 114.676,42.51 115.324,42.51C115.884,42.51 116.412,42.374 116.636,42.262C116.652,42.254 116.844,42.006 116.86,41.974L116.908,41.974L117.028,42.454L117.364,42.454Z" style="fill:white;fill-rule:nonzero;"/>
            <path d="M121.756,41.222C121.756,40.918 121.684,40.662 121.524,40.478C121.356,40.286 121.012,40.15 120.356,39.998C119.748,39.862 119.468,39.75 119.332,39.59C119.228,39.47 119.196,39.302 119.196,39.134C119.196,38.566 119.468,38.246 120.412,38.246C120.884,38.246 121.26,38.294 121.604,38.35L121.604,37.966C121.332,37.91 120.9,37.846 120.404,37.846C119.212,37.846 118.74,38.334 118.74,39.158C118.74,39.414 118.796,39.678 118.94,39.846C119.164,40.126 119.54,40.246 120.172,40.398C120.716,40.526 121.02,40.63 121.164,40.79C121.26,40.918 121.3,41.086 121.3,41.254C121.3,41.822 121.044,42.11 120.036,42.11C119.548,42.11 119.052,42.038 118.724,41.974L118.724,42.366C119.044,42.446 119.588,42.51 120.036,42.51C121.396,42.51 121.756,42.014 121.756,41.222Z" style="fill:white;fill-rule:nonzero;"/>
            <path d="M122.812,40.246C122.812,41.774 123.348,42.542 124.844,42.542C125.46,42.542 126.036,42.43 126.356,42.35L126.388,41.966C126.076,42.014 125.548,42.118 124.9,42.118C123.644,42.118 123.292,41.454 123.292,40.23L126.564,40.23L126.564,39.678C126.564,38.526 126.14,37.878 124.86,37.878C123.452,37.878 122.812,38.678 122.812,40.246ZM124.812,38.262C125.78,38.262 126.108,38.718 126.108,39.71L126.108,39.87L123.308,39.87C123.372,38.806 123.78,38.262 124.812,38.262Z" style="fill:white;fill-rule:nonzero;"/>
            <path d="M85.716,44.454L85.716,50.454L86.188,50.454L86.188,47.822L87.02,47.822C87.628,47.822 88.052,47.854 88.212,47.958C88.524,48.15 88.868,48.886 89.556,50.454L90.068,50.454C89.556,49.278 89.124,48.278 88.884,47.982C88.796,47.886 88.564,47.75 88.396,47.67L88.396,47.654C88.724,47.542 89.052,47.358 89.14,47.286C89.38,47.062 89.604,46.582 89.604,45.974C89.604,45.302 89.42,44.934 89.148,44.742C88.892,44.55 88.46,44.454 87.524,44.454L85.716,44.454ZM86.188,44.862L87.492,44.862C88.3,44.862 88.62,44.95 88.812,45.102C89.004,45.246 89.124,45.55 89.124,46.038C89.124,46.686 88.836,47.142 88.476,47.286C88.284,47.358 87.964,47.406 87.452,47.406L86.188,47.406L86.188,44.862Z" style="fill:white;fill-rule:nonzero;"/>
            <path d="M90.9,48.246C90.9,49.774 91.436,50.542 92.932,50.542C93.548,50.542 94.124,50.43 94.444,50.35L94.476,49.966C94.164,50.014 93.636,50.118 92.988,50.118C91.732,50.118 91.38,49.454 91.38,48.23L94.652,48.23L94.652,47.678C94.652,46.526 94.228,45.878 92.948,45.878C91.54,45.878 90.9,46.678 90.9,48.246ZM92.9,46.262C93.868,46.262 94.196,46.718 94.196,47.71L94.196,47.87L91.396,47.87C91.46,46.806 91.868,46.262 92.9,46.262Z" style="fill:white;fill-rule:nonzero;"/>
            <path d="M99.66,45.966L99.58,45.966L99.364,46.11C98.964,46.014 98.516,45.918 97.948,45.918C97.188,45.918 96.708,46.11 96.428,46.382C96.044,46.766 95.812,47.462 95.812,48.398C95.812,49.318 96.036,49.886 96.404,50.174C96.66,50.382 97.044,50.518 97.676,50.518C98.26,50.518 98.748,50.406 98.884,50.318C98.932,50.294 99.092,50.102 99.164,50.014L99.196,50.014L99.196,50.254C99.196,51.262 99.044,51.678 98.82,51.902C98.612,52.086 98.26,52.222 97.604,52.222C96.94,52.222 96.356,52.126 96.044,52.07L96.044,52.478C96.348,52.534 96.916,52.646 97.628,52.646C98.42,52.646 98.852,52.462 99.124,52.214C99.436,51.918 99.66,51.43 99.66,50.214L99.66,45.966ZM96.292,48.318C96.292,47.494 96.476,46.958 96.748,46.678C96.996,46.438 97.38,46.318 97.98,46.318C98.452,46.318 98.868,46.382 99.196,46.422L99.196,49.846C98.796,50.03 98.284,50.11 97.82,50.11C97.372,50.11 96.964,50.014 96.732,49.83C96.46,49.614 96.292,49.15 96.292,48.318Z" style="fill:white;fill-rule:nonzero;"/>
            <path d="M101.124,48.246C101.124,49.774 101.66,50.542 103.156,50.542C103.772,50.542 104.348,50.43 104.668,50.35L104.7,49.966C104.388,50.014 103.86,50.118 103.212,50.118C101.956,50.118 101.604,49.454 101.604,48.23L104.876,48.23L104.876,47.678C104.876,46.526 104.452,45.878 103.172,45.878C101.764,45.878 101.124,46.678 101.124,48.246ZM103.124,46.262C104.092,46.262 104.42,46.718 104.42,47.71L104.42,47.87L101.62,47.87C101.684,46.806 102.092,46.262 103.124,46.262Z" style="fill:white;fill-rule:nonzero;"/>
            <path d="M109.908,50.454L109.908,47.518C109.908,46.91 109.78,46.502 109.532,46.27C109.292,46.03 108.948,45.902 108.364,45.902C107.796,45.902 107.22,46.062 107.004,46.182C106.98,46.198 106.796,46.406 106.772,46.438L106.732,46.438L106.604,45.966L106.268,45.966L106.268,50.454L106.732,50.454L106.732,46.614C107.084,46.47 107.588,46.318 108.164,46.318C108.58,46.318 108.932,46.398 109.132,46.59C109.332,46.782 109.444,47.11 109.444,47.678L109.444,50.454L109.908,50.454Z" style="fill:white;fill-rule:nonzero;"/>
            <path d="M111.356,48.246C111.356,49.774 111.892,50.542 113.388,50.542C114.004,50.542 114.58,50.43 114.9,50.35L114.932,49.966C114.62,50.014 114.092,50.118 113.444,50.118C112.188,50.118 111.836,49.454 111.836,48.23L115.108,48.23L115.108,47.678C115.108,46.526 114.684,45.878 113.404,45.878C111.996,45.878 111.356,46.678 111.356,48.246ZM113.356,46.262C114.324,46.262 114.652,46.718 114.652,47.71L114.652,47.87L111.852,47.87C111.916,46.806 112.324,46.262 113.356,46.262Z" style="fill:white;fill-rule:nonzero;"/>
            <path d="M116.5,45.966L116.5,50.454L116.964,50.454L116.964,46.678C117.236,46.502 117.748,46.318 118.292,46.326C118.564,46.326 118.796,46.358 118.932,46.382L118.932,45.934C118.812,45.918 118.644,45.902 118.42,45.902C117.86,45.902 117.452,46.054 117.236,46.182C117.22,46.198 117.028,46.43 117.004,46.462L116.956,46.462L116.844,45.966L116.5,45.966Z" style="fill:white;fill-rule:nonzero;"/>
            <path d="M123.068,50.454L123.068,47.67C123.068,46.79 122.94,46.454 122.74,46.238C122.524,45.99 122.132,45.886 121.516,45.886C120.876,45.886 120.212,46.022 119.876,46.11L119.876,46.486C120.18,46.43 120.876,46.302 121.42,46.302C121.924,46.302 122.22,46.382 122.364,46.55C122.516,46.734 122.612,47.054 122.612,47.83C121.18,47.958 120.268,48.126 119.924,48.382C119.748,48.494 119.572,48.798 119.572,49.302C119.572,49.718 119.668,49.998 119.828,50.174C120.012,50.382 120.348,50.534 120.972,50.534C121.748,50.534 122.228,50.334 122.364,50.238C122.404,50.206 122.516,50.054 122.58,49.966L122.62,49.966L122.732,50.454L123.068,50.454ZM122.612,49.83C122.372,49.95 121.804,50.142 121.124,50.142C120.636,50.142 120.348,50.03 120.212,49.886C120.1,49.758 120.028,49.55 120.028,49.262C120.028,48.926 120.108,48.726 120.228,48.622C120.412,48.422 121.572,48.254 122.612,48.19L122.612,49.83Z" style="fill:white;fill-rule:nonzero;"/>
            <path d="M127.148,45.966L125.468,45.966L125.468,44.91L125.004,45.03L125.004,45.966L124.14,45.966L124.076,46.358L125.004,46.358L125.004,49.438C125.004,50.214 125.332,50.502 126.132,50.502C126.476,50.502 126.852,50.446 127.092,50.398L127.132,50.006C126.956,50.03 126.62,50.086 126.252,50.086C125.748,50.086 125.468,49.958 125.468,49.35L125.468,46.358L127.06,46.358L127.148,45.966Z" style="fill:white;fill-rule:nonzero;"/>
            <path d="M128.812,50.454L128.812,45.966L128.348,45.966L128.348,50.454L128.812,50.454ZM128.884,44.438C128.884,44.334 128.868,44.254 128.812,44.206C128.772,44.166 128.7,44.15 128.604,44.15C128.5,44.15 128.42,44.174 128.396,44.206C128.332,44.238 128.3,44.326 128.3,44.446C128.3,44.55 128.324,44.63 128.364,44.67C128.404,44.718 128.476,44.734 128.588,44.734C128.676,44.734 128.764,44.718 128.812,44.678C128.868,44.638 128.884,44.542 128.884,44.438Z" style="fill:white;fill-rule:nonzero;"/>
            <path d="M134.404,48.11C134.404,47.182 134.204,46.662 133.876,46.318C133.596,46.038 133.124,45.846 132.444,45.846C131.732,45.846 131.236,46.054 130.916,46.358C130.508,46.742 130.276,47.446 130.276,48.318C130.276,49.182 130.508,49.71 130.764,50.006C131.06,50.342 131.532,50.55 132.276,50.55C133.068,50.55 133.524,50.334 133.836,50.014C134.18,49.654 134.404,48.99 134.404,48.11ZM132.324,50.15C131.676,50.15 131.332,49.95 131.116,49.702C130.892,49.446 130.74,48.934 130.74,48.262C130.74,47.446 130.988,46.878 131.26,46.63C131.468,46.438 131.836,46.262 132.388,46.262C132.948,46.262 133.292,46.406 133.516,46.638C133.756,46.886 133.932,47.27 133.932,48.19C133.932,48.99 133.732,49.486 133.452,49.774C133.22,50.006 132.82,50.15 132.324,50.15Z" style="fill:white;fill-rule:nonzero;"/>
            <path d="M139.508,50.454L139.508,47.518C139.508,46.91 139.38,46.502 139.132,46.27C138.892,46.03 138.548,45.902 137.964,45.902C137.396,45.902 136.82,46.062 136.604,46.182C136.58,46.198 136.396,46.406 136.372,46.438L136.332,46.438L136.204,45.966L135.868,45.966L135.868,50.454L136.332,50.454L136.332,46.614C136.684,46.47 137.188,46.318 137.764,46.318C138.18,46.318 138.532,46.398 138.732,46.59C138.932,46.782 139.044,47.11 139.044,47.678L139.044,50.454L139.508,50.454Z" style="fill:white;fill-rule:nonzero;"/>
        </g>
        <g transform="matrix(1,0,0,1,-9.37228,1.94865)">
            <path d="M65.71,51.174L65.214,51.174L63.758,56.71L63.574,56.71L62.022,51.174L61.254,51.174L59.486,56.71L59.318,56.71L58.014,51.174L57.526,51.174L58.942,57.174L59.782,57.174L61.55,51.638L61.686,51.638L63.23,57.174L64.078,57.174L65.71,51.174Z" style="fill:white;fill-rule:nonzero;"/>
            <rect x="67.038" y="51.174" width="0.472" height="6" style="fill:white;"/>
            <path d="M73.422,51.174L68.686,51.174L68.574,51.598L70.742,51.598L70.742,57.174L71.206,57.174L71.206,51.598L73.326,51.598L73.422,51.174Z" style="fill:white;fill-rule:nonzero;"/>
        </g>
    </g>
</svg>
