<?xml version="1.0" standalone="no"?>
<!DOCTYPE svg PUBLIC "-//W3C//DTD SVG 1.1//EN" "http://www.w3.org/Graphics/SVG/1.1/DTD/svg11.dtd">
<svg width="100%" height="100%" viewBox="0 0 284 86" version="1.1" xmlns="http://www.w3.org/2000/svg" xmlns:xlink="http://www.w3.org/1999/xlink" xml:space="preserve" style="fill-rule:evenodd;clip-rule:evenodd;stroke-linejoin:round;stroke-miterlimit:1.41421;">
    <g id="primary">
        <path d="M82.769,26.988L87.598,31.817L78.582,31.817L73.749,26.988L49.577,2.835L112.057,2.837L134.782,25.561L81.341,25.56L82.769,26.988Z" style="fill:rgb(51,51,51);"/>
        <path d="M147.207,26.988L152.954,32.735L143.938,32.735L138.187,26.988L114.015,2.835L176.495,2.837L199.22,25.561L145.779,25.56L147.207,26.988Z" style="fill:rgb(51,51,51);"/>
        <path d="M211.652,26.988L217.399,32.735L208.383,32.735L202.632,26.988L178.46,2.835L240.94,2.837L263.666,25.561L210.224,25.56L211.652,26.988Z" style="fill:rgb(51,51,51);"/>
        <path d="M215.845,31.181L269.29,31.181L280.63,42.521L269.293,53.858L215.845,53.858L206.829,53.858L212.498,48.189L210.516,48.189L204.847,53.858L151.4,53.858L142.384,53.858L148.053,48.189L146.071,48.189L140.402,53.858L86.962,53.858L72.849,53.858L78.518,48.189L74.6,48.189L74.6,36.85L78.516,36.85L72.847,31.181L140.4,31.181L146.069,36.85L148.05,36.85L142.381,31.181L204.845,31.181L210.514,36.85L212.496,36.85L206.827,31.181L215.845,31.181Z" style="fill:rgb(51,51,51);"/>
        <g>
            <path d="M91.295,47.794L91.295,47.08L94.391,47.08L94.391,37.863L91.295,38.423L91.295,37.709L95.189,37.022L95.189,47.08L97.991,47.08L97.991,47.794L91.295,47.794L91.295,47.794Z" style="fill:white;fill-rule:nonzero;"/>
            <path d="M113.936,47.794L106.722,47.794L106.722,46.954C106.848,45.413 107.688,44.418 110.154,43.214C111.723,42.43 112.409,42.024 112.774,41.547C113.082,41.113 113.166,40.553 113.166,40.006C113.166,38.563 112.634,37.905 110.351,37.905C109.104,37.905 107.76,38.213 107.143,38.353L107.143,37.624C107.969,37.4 109.258,37.147 110.518,37.147C113.193,37.147 114.034,38.016 114.034,39.907C114.034,40.86 113.824,41.518 113.502,41.924C112.956,42.638 111.877,43.185 110.504,43.857C107.941,45.104 107.535,45.986 107.506,47.037L114.146,47.037L113.936,47.794L113.936,47.794Z" style="fill:white;fill-rule:nonzero;"/>
            <path d="M128.734,41.841L127.599,42.373L127.599,42.429L128.789,42.849C129.266,43.242 129.643,44.138 129.643,45.048C129.643,47.065 128.495,47.934 125.651,47.934C124.475,47.934 123.438,47.78 122.821,47.64L122.821,46.926C123.466,47.038 124.6,47.206 125.651,47.206C128.256,47.206 128.803,46.352 128.803,45.049C128.803,43.186 127.556,42.836 125.973,42.836L123.97,42.836L123.97,42.107L125.791,42.107C127.164,42.107 128.606,41.757 128.606,39.936C128.606,38.591 128.102,37.891 125.973,37.891C124.852,37.891 123.774,38.115 123.045,38.269L123.045,37.568C123.802,37.372 124.964,37.148 126.113,37.148C128.634,37.148 129.433,38.031 129.433,39.824C129.434,40.804 129,41.588 128.734,41.841L128.734,41.841Z" style="fill:white;fill-rule:nonzero;"/>
        </g>
        <g>
            <path d="M166.718,47.794L165.947,47.794L165.947,44.811L160.553,44.811L160.553,43.998L165.191,37.288L166.717,37.288L166.717,44.11L169.071,44.11L168.86,44.811L166.716,44.811L166.718,47.794ZM165.948,44.11L165.948,37.975L165.569,37.975L161.465,43.928L161.465,44.11L165.948,44.11Z" style="fill:white;fill-rule:nonzero;"/>
            <path d="M179.903,47.934C178.938,47.934 177.916,47.794 177.186,47.682L177.186,46.939C177.858,47.037 178.895,47.177 179.946,47.177C182.37,47.177 183.211,46.49 183.211,44.754C183.211,42.905 182.623,42.429 180.465,42.429C179.471,42.429 178.126,42.639 177.51,42.723L177.51,37.288L183.73,37.288L183.73,38.002L178.24,38.002L178.24,41.952C178.828,41.854 179.639,41.7 180.719,41.7C183.157,41.7 184.053,42.345 184.053,44.641C184.05,46.855 183.028,47.934 179.903,47.934L179.903,47.934Z" style="fill:white;fill-rule:nonzero;"/>
            <path d="M193.666,42.667L193.735,42.667L194.182,42.205C194.786,41.981 195.877,41.673 197.153,41.673C199.632,41.673 200.459,42.709 200.459,44.656C200.459,46.687 199.407,47.934 196.705,47.934C193.764,47.934 192.852,46.071 192.852,42.975C192.852,41.028 193.399,39.627 194.225,38.745C195.192,37.736 196.733,37.106 199.436,37.078L199.715,37.821C197.082,37.835 195.652,38.381 194.813,39.278C194.155,39.977 193.721,41.168 193.666,42.667L193.666,42.667ZM196.886,42.401C195.64,42.401 194.491,42.709 193.665,43.031C193.692,45.931 194.603,47.205 196.745,47.205C198.749,47.205 199.645,46.421 199.645,44.726C199.646,43.102 198.987,42.401 196.886,42.401L196.886,42.401Z" style="fill:white;fill-rule:nonzero;"/>
        </g>
        <g>
            <path d="M229.528,38.227L229.528,38.031L223.213,38.031L223.437,37.288L230.426,37.288L230.426,38.213L225.411,47.794L224.501,47.794L229.528,38.227Z" style="fill:white;fill-rule:nonzero;"/>
            <path d="M240.167,42.919L241.118,42.4L241.118,42.33L240.278,41.896C239.914,41.532 239.563,41.013 239.563,40.047C239.563,38.352 240.627,37.133 243.092,37.133C245.544,37.133 246.454,38.225 246.454,39.794C246.454,40.789 246.033,41.391 245.641,41.811L244.774,42.33L244.774,42.4L245.837,42.793C246.399,43.241 246.72,43.956 246.72,44.908C246.72,46.645 245.641,47.934 242.882,47.934C240.278,47.934 239.197,46.897 239.197,45.119C239.2,44.222 239.564,43.479 240.167,42.919L240.167,42.919ZM240.027,45.02C240.027,46.421 240.84,47.219 242.968,47.219C245.139,47.219 245.896,46.197 245.896,44.992C245.896,43.073 244.677,42.919 241.553,42.582C240.782,43.087 240.027,43.774 240.027,45.02L240.027,45.02ZM240.39,39.977C240.39,41.7 241.484,41.938 244.228,42.19C245.111,41.644 245.615,40.929 245.615,39.893C245.615,38.548 244.859,37.848 243.011,37.848C241.077,37.849 240.39,38.801 240.39,39.977L240.39,39.977Z" style="fill:white;fill-rule:nonzero;"/>
            <path d="M261.883,42.429L261.814,42.429L261.378,42.891C260.804,43.129 259.726,43.41 258.521,43.41C256.014,43.41 255.131,42.401 255.131,40.468C255.131,38.255 256.519,37.148 258.87,37.148C261.616,37.148 262.694,38.675 262.694,42.009C262.694,44.012 262.149,45.483 261.321,46.351C260.397,47.36 258.815,47.962 256.096,48.018L255.829,47.247C258.421,47.233 259.933,46.715 260.746,45.832C261.379,45.119 261.841,43.942 261.883,42.429L261.883,42.429ZM258.704,42.681C259.965,42.681 261.1,42.387 261.884,42.093C261.857,39.123 261.002,37.877 258.818,37.877C256.857,37.877 255.945,38.815 255.945,40.413C255.945,41.981 256.644,42.681 258.704,42.681L258.704,42.681Z" style="fill:white;fill-rule:nonzero;"/>
        </g>
        <g transform="matrix(1,0,0,1,16.5238,2.16146)">
            <path d="M59.256,14.737L56.456,7.237L55.386,7.237L52.386,14.737L52.996,14.737L54.006,12.177L57.666,12.177L58.606,14.737L59.256,14.737ZM57.486,11.657L54.196,11.657L55.736,7.787L56.056,7.787L57.486,11.657Z" style="fill:white;fill-rule:nonzero;"/>
            <path d="M65.126,9.127L64.496,9.127L62.526,14.197L62.286,14.197L60.386,9.127L59.756,9.127L61.886,14.737L62.886,14.737L65.126,9.127Z" style="fill:white;fill-rule:nonzero;"/>
            <path d="M70.416,14.737L70.416,11.257C70.416,10.157 70.256,9.737 70.006,9.467C69.736,9.157 69.246,9.027 68.476,9.027C67.676,9.027 66.846,9.197 66.426,9.307L66.426,9.777C66.806,9.707 67.676,9.547 68.356,9.547C68.986,9.547 69.356,9.647 69.536,9.857C69.726,10.087 69.846,10.487 69.846,11.457C68.056,11.617 66.916,11.827 66.486,12.147C66.266,12.287 66.046,12.667 66.046,13.297C66.046,13.817 66.166,14.167 66.366,14.387C66.596,14.647 67.016,14.837 67.796,14.837C68.766,14.837 69.366,14.587 69.536,14.467C69.586,14.427 69.726,14.237 69.806,14.127L69.856,14.127L69.996,14.737L70.416,14.737ZM69.846,13.957C69.546,14.107 68.836,14.347 67.986,14.347C67.376,14.347 67.016,14.207 66.846,14.027C66.706,13.867 66.616,13.607 66.616,13.247C66.616,12.827 66.716,12.577 66.866,12.447C67.096,12.197 68.546,11.987 69.846,11.907L69.846,13.957Z" style="fill:white;fill-rule:nonzero;"/>
            <path d="M73.106,14.737L73.106,9.127L72.526,9.127L72.526,14.737L73.106,14.737ZM73.196,7.217C73.196,7.087 73.176,6.987 73.106,6.927C73.056,6.877 72.966,6.857 72.846,6.857C72.716,6.857 72.616,6.887 72.586,6.927C72.506,6.967 72.466,7.077 72.466,7.227C72.466,7.357 72.496,7.457 72.546,7.507C72.596,7.567 72.686,7.587 72.826,7.587C72.936,7.587 73.046,7.567 73.106,7.517C73.176,7.467 73.196,7.347 73.196,7.217Z" style="fill:white;fill-rule:nonzero;"/>
            <path d="M75.186,6.637L75.186,13.467C75.186,14.407 75.556,14.797 76.366,14.797C76.746,14.797 77.096,14.737 77.336,14.687L77.336,14.227C77.136,14.257 76.866,14.297 76.536,14.297C76.066,14.297 75.766,14.127 75.766,13.407L75.766,6.637L75.186,6.637Z" style="fill:white;fill-rule:nonzero;"/>
            <path d="M82.536,14.737L82.536,11.257C82.536,10.157 82.376,9.737 82.126,9.467C81.856,9.157 81.366,9.027 80.596,9.027C79.796,9.027 78.966,9.197 78.546,9.307L78.546,9.777C78.926,9.707 79.796,9.547 80.476,9.547C81.106,9.547 81.476,9.647 81.656,9.857C81.846,10.087 81.966,10.487 81.966,11.457C80.176,11.617 79.036,11.827 78.606,12.147C78.386,12.287 78.166,12.667 78.166,13.297C78.166,13.817 78.286,14.167 78.486,14.387C78.716,14.647 79.136,14.837 79.916,14.837C80.886,14.837 81.486,14.587 81.656,14.467C81.706,14.427 81.846,14.237 81.926,14.127L81.976,14.127L82.116,14.737L82.536,14.737ZM81.966,13.957C81.666,14.107 80.956,14.347 80.106,14.347C79.496,14.347 79.136,14.207 78.966,14.027C78.826,13.867 78.736,13.607 78.736,13.247C78.736,12.827 78.836,12.577 78.986,12.447C79.216,12.197 80.666,11.987 81.966,11.907L81.966,13.957Z" style="fill:white;fill-rule:nonzero;"/>
            <path d="M89.466,11.667C89.466,10.517 89.176,9.827 88.776,9.467C88.456,9.187 87.986,9.017 87.206,9.017C86.446,9.017 85.786,9.197 85.626,9.307C85.566,9.337 85.336,9.557 85.256,9.667L85.216,9.667L85.216,6.637L84.636,6.637L84.636,14.737L84.716,14.737L85.006,14.567C85.506,14.687 86.096,14.787 86.786,14.787C87.736,14.787 88.316,14.577 88.696,14.217C89.176,13.757 89.466,12.857 89.466,11.667ZM88.866,11.787C88.866,12.827 88.616,13.527 88.256,13.867C87.956,14.147 87.486,14.297 86.726,14.297C86.156,14.297 85.606,14.217 85.216,14.157L85.216,9.867C85.706,9.647 86.376,9.537 86.986,9.537C87.656,9.537 88.056,9.667 88.316,9.897C88.606,10.157 88.866,10.737 88.866,11.787Z" style="fill:white;fill-rule:nonzero;"/>
            <path d="M91.266,6.637L91.266,13.467C91.266,14.407 91.636,14.797 92.446,14.797C92.826,14.797 93.176,14.737 93.416,14.687L93.416,14.227C93.216,14.257 92.946,14.297 92.616,14.297C92.146,14.297 91.846,14.127 91.846,13.407L91.846,6.637L91.266,6.637Z" style="fill:white;fill-rule:nonzero;"/>
            <path d="M94.236,11.977C94.236,13.887 94.906,14.847 96.776,14.847C97.546,14.847 98.266,14.707 98.666,14.607L98.706,14.127C98.316,14.187 97.656,14.317 96.846,14.317C95.276,14.317 94.836,13.487 94.836,11.957L98.926,11.957L98.926,11.267C98.926,9.827 98.396,9.017 96.796,9.017C95.036,9.017 94.236,10.017 94.236,11.977ZM96.736,9.497C97.946,9.497 98.356,10.067 98.356,11.307L98.356,11.507L94.856,11.507C94.936,10.177 95.446,9.497 96.736,9.497Z" style="fill:white;fill-rule:nonzero;"/>
        </g>
        <g transform="matrix(1,0,0,1,82.3963,2.16146)">
            <path d="M59.256,14.737L56.456,7.237L55.386,7.237L52.386,14.737L52.996,14.737L54.006,12.177L57.666,12.177L58.606,14.737L59.256,14.737ZM57.486,11.657L54.196,11.657L55.736,7.787L56.056,7.787L57.486,11.657Z" style="fill:white;fill-rule:nonzero;"/>
            <path d="M65.126,9.127L64.496,9.127L62.526,14.197L62.286,14.197L60.386,9.127L59.756,9.127L61.886,14.737L62.886,14.737L65.126,9.127Z" style="fill:white;fill-rule:nonzero;"/>
            <path d="M70.416,14.737L70.416,11.257C70.416,10.157 70.256,9.737 70.006,9.467C69.736,9.157 69.246,9.027 68.476,9.027C67.676,9.027 66.846,9.197 66.426,9.307L66.426,9.777C66.806,9.707 67.676,9.547 68.356,9.547C68.986,9.547 69.356,9.647 69.536,9.857C69.726,10.087 69.846,10.487 69.846,11.457C68.056,11.617 66.916,11.827 66.486,12.147C66.266,12.287 66.046,12.667 66.046,13.297C66.046,13.817 66.166,14.167 66.366,14.387C66.596,14.647 67.016,14.837 67.796,14.837C68.766,14.837 69.366,14.587 69.536,14.467C69.586,14.427 69.726,14.237 69.806,14.127L69.856,14.127L69.996,14.737L70.416,14.737ZM69.846,13.957C69.546,14.107 68.836,14.347 67.986,14.347C67.376,14.347 67.016,14.207 66.846,14.027C66.706,13.867 66.616,13.607 66.616,13.247C66.616,12.827 66.716,12.577 66.866,12.447C67.096,12.197 68.546,11.987 69.846,11.907L69.846,13.957Z" style="fill:white;fill-rule:nonzero;"/>
            <path d="M73.106,14.737L73.106,9.127L72.526,9.127L72.526,14.737L73.106,14.737ZM73.196,7.217C73.196,7.087 73.176,6.987 73.106,6.927C73.056,6.877 72.966,6.857 72.846,6.857C72.716,6.857 72.616,6.887 72.586,6.927C72.506,6.967 72.466,7.077 72.466,7.227C72.466,7.357 72.496,7.457 72.546,7.507C72.596,7.567 72.686,7.587 72.826,7.587C72.936,7.587 73.046,7.567 73.106,7.517C73.176,7.467 73.196,7.347 73.196,7.217Z" style="fill:white;fill-rule:nonzero;"/>
            <path d="M75.186,6.637L75.186,13.467C75.186,14.407 75.556,14.797 76.366,14.797C76.746,14.797 77.096,14.737 77.336,14.687L77.336,14.227C77.136,14.257 76.866,14.297 76.536,14.297C76.066,14.297 75.766,14.127 75.766,13.407L75.766,6.637L75.186,6.637Z" style="fill:white;fill-rule:nonzero;"/>
            <path d="M82.536,14.737L82.536,11.257C82.536,10.157 82.376,9.737 82.126,9.467C81.856,9.157 81.366,9.027 80.596,9.027C79.796,9.027 78.966,9.197 78.546,9.307L78.546,9.777C78.926,9.707 79.796,9.547 80.476,9.547C81.106,9.547 81.476,9.647 81.656,9.857C81.846,10.087 81.966,10.487 81.966,11.457C80.176,11.617 79.036,11.827 78.606,12.147C78.386,12.287 78.166,12.667 78.166,13.297C78.166,13.817 78.286,14.167 78.486,14.387C78.716,14.647 79.136,14.837 79.916,14.837C80.886,14.837 81.486,14.587 81.656,14.467C81.706,14.427 81.846,14.237 81.926,14.127L81.976,14.127L82.116,14.737L82.536,14.737ZM81.966,13.957C81.666,14.107 80.956,14.347 80.106,14.347C79.496,14.347 79.136,14.207 78.966,14.027C78.826,13.867 78.736,13.607 78.736,13.247C78.736,12.827 78.836,12.577 78.986,12.447C79.216,12.197 80.666,11.987 81.966,11.907L81.966,13.957Z" style="fill:white;fill-rule:nonzero;"/>
            <path d="M89.466,11.667C89.466,10.517 89.176,9.827 88.776,9.467C88.456,9.187 87.986,9.017 87.206,9.017C86.446,9.017 85.786,9.197 85.626,9.307C85.566,9.337 85.336,9.557 85.256,9.667L85.216,9.667L85.216,6.637L84.636,6.637L84.636,14.737L84.716,14.737L85.006,14.567C85.506,14.687 86.096,14.787 86.786,14.787C87.736,14.787 88.316,14.577 88.696,14.217C89.176,13.757 89.466,12.857 89.466,11.667ZM88.866,11.787C88.866,12.827 88.616,13.527 88.256,13.867C87.956,14.147 87.486,14.297 86.726,14.297C86.156,14.297 85.606,14.217 85.216,14.157L85.216,9.867C85.706,9.647 86.376,9.537 86.986,9.537C87.656,9.537 88.056,9.667 88.316,9.897C88.606,10.157 88.866,10.737 88.866,11.787Z" style="fill:white;fill-rule:nonzero;"/>
            <path d="M91.266,6.637L91.266,13.467C91.266,14.407 91.636,14.797 92.446,14.797C92.826,14.797 93.176,14.737 93.416,14.687L93.416,14.227C93.216,14.257 92.946,14.297 92.616,14.297C92.146,14.297 91.846,14.127 91.846,13.407L91.846,6.637L91.266,6.637Z" style="fill:white;fill-rule:nonzero;"/>
            <path d="M94.236,11.977C94.236,13.887 94.906,14.847 96.776,14.847C97.546,14.847 98.266,14.707 98.666,14.607L98.706,14.127C98.316,14.187 97.656,14.317 96.846,14.317C95.276,14.317 94.836,13.487 94.836,11.957L98.926,11.957L98.926,11.267C98.926,9.827 98.396,9.017 96.796,9.017C95.036,9.017 94.236,10.017 94.236,11.977ZM96.736,9.497C97.946,9.497 98.356,10.067 98.356,11.307L98.356,11.507L94.856,11.507C94.936,10.177 95.446,9.497 96.736,9.497Z" style="fill:white;fill-rule:nonzero;"/>
        </g>
        <g transform="matrix(1,0,0,1,146.834,2.16146)">
            <path d="M59.256,14.737L56.456,7.237L55.386,7.237L52.386,14.737L52.996,14.737L54.006,12.177L57.666,12.177L58.606,14.737L59.256,14.737ZM57.486,11.657L54.196,11.657L55.736,7.787L56.056,7.787L57.486,11.657Z" style="fill:white;fill-rule:nonzero;"/>
            <path d="M65.126,9.127L64.496,9.127L62.526,14.197L62.286,14.197L60.386,9.127L59.756,9.127L61.886,14.737L62.886,14.737L65.126,9.127Z" style="fill:white;fill-rule:nonzero;"/>
            <path d="M70.416,14.737L70.416,11.257C70.416,10.157 70.256,9.737 70.006,9.467C69.736,9.157 69.246,9.027 68.476,9.027C67.676,9.027 66.846,9.197 66.426,9.307L66.426,9.777C66.806,9.707 67.676,9.547 68.356,9.547C68.986,9.547 69.356,9.647 69.536,9.857C69.726,10.087 69.846,10.487 69.846,11.457C68.056,11.617 66.916,11.827 66.486,12.147C66.266,12.287 66.046,12.667 66.046,13.297C66.046,13.817 66.166,14.167 66.366,14.387C66.596,14.647 67.016,14.837 67.796,14.837C68.766,14.837 69.366,14.587 69.536,14.467C69.586,14.427 69.726,14.237 69.806,14.127L69.856,14.127L69.996,14.737L70.416,14.737ZM69.846,13.957C69.546,14.107 68.836,14.347 67.986,14.347C67.376,14.347 67.016,14.207 66.846,14.027C66.706,13.867 66.616,13.607 66.616,13.247C66.616,12.827 66.716,12.577 66.866,12.447C67.096,12.197 68.546,11.987 69.846,11.907L69.846,13.957Z" style="fill:white;fill-rule:nonzero;"/>
            <path d="M73.106,14.737L73.106,9.127L72.526,9.127L72.526,14.737L73.106,14.737ZM73.196,7.217C73.196,7.087 73.176,6.987 73.106,6.927C73.056,6.877 72.966,6.857 72.846,6.857C72.716,6.857 72.616,6.887 72.586,6.927C72.506,6.967 72.466,7.077 72.466,7.227C72.466,7.357 72.496,7.457 72.546,7.507C72.596,7.567 72.686,7.587 72.826,7.587C72.936,7.587 73.046,7.567 73.106,7.517C73.176,7.467 73.196,7.347 73.196,7.217Z" style="fill:white;fill-rule:nonzero;"/>
            <path d="M75.186,6.637L75.186,13.467C75.186,14.407 75.556,14.797 76.366,14.797C76.746,14.797 77.096,14.737 77.336,14.687L77.336,14.227C77.136,14.257 76.866,14.297 76.536,14.297C76.066,14.297 75.766,14.127 75.766,13.407L75.766,6.637L75.186,6.637Z" style="fill:white;fill-rule:nonzero;"/>
            <path d="M82.536,14.737L82.536,11.257C82.536,10.157 82.376,9.737 82.126,9.467C81.856,9.157 81.366,9.027 80.596,9.027C79.796,9.027 78.966,9.197 78.546,9.307L78.546,9.777C78.926,9.707 79.796,9.547 80.476,9.547C81.106,9.547 81.476,9.647 81.656,9.857C81.846,10.087 81.966,10.487 81.966,11.457C80.176,11.617 79.036,11.827 78.606,12.147C78.386,12.287 78.166,12.667 78.166,13.297C78.166,13.817 78.286,14.167 78.486,14.387C78.716,14.647 79.136,14.837 79.916,14.837C80.886,14.837 81.486,14.587 81.656,14.467C81.706,14.427 81.846,14.237 81.926,14.127L81.976,14.127L82.116,14.737L82.536,14.737ZM81.966,13.957C81.666,14.107 80.956,14.347 80.106,14.347C79.496,14.347 79.136,14.207 78.966,14.027C78.826,13.867 78.736,13.607 78.736,13.247C78.736,12.827 78.836,12.577 78.986,12.447C79.216,12.197 80.666,11.987 81.966,11.907L81.966,13.957Z" style="fill:white;fill-rule:nonzero;"/>
            <path d="M89.466,11.667C89.466,10.517 89.176,9.827 88.776,9.467C88.456,9.187 87.986,9.017 87.206,9.017C86.446,9.017 85.786,9.197 85.626,9.307C85.566,9.337 85.336,9.557 85.256,9.667L85.216,9.667L85.216,6.637L84.636,6.637L84.636,14.737L84.716,14.737L85.006,14.567C85.506,14.687 86.096,14.787 86.786,14.787C87.736,14.787 88.316,14.577 88.696,14.217C89.176,13.757 89.466,12.857 89.466,11.667ZM88.866,11.787C88.866,12.827 88.616,13.527 88.256,13.867C87.956,14.147 87.486,14.297 86.726,14.297C86.156,14.297 85.606,14.217 85.216,14.157L85.216,9.867C85.706,9.647 86.376,9.537 86.986,9.537C87.656,9.537 88.056,9.667 88.316,9.897C88.606,10.157 88.866,10.737 88.866,11.787Z" style="fill:white;fill-rule:nonzero;"/>
            <path d="M91.266,6.637L91.266,13.467C91.266,14.407 91.636,14.797 92.446,14.797C92.826,14.797 93.176,14.737 93.416,14.687L93.416,14.227C93.216,14.257 92.946,14.297 92.616,14.297C92.146,14.297 91.846,14.127 91.846,13.407L91.846,6.637L91.266,6.637Z" style="fill:white;fill-rule:nonzero;"/>
            <path d="M94.236,11.977C94.236,13.887 94.906,14.847 96.776,14.847C97.546,14.847 98.266,14.707 98.666,14.607L98.706,14.127C98.316,14.187 97.656,14.317 96.846,14.317C95.276,14.317 94.836,13.487 94.836,11.957L98.926,11.957L98.926,11.267C98.926,9.827 98.396,9.017 96.796,9.017C95.036,9.017 94.236,10.017 94.236,11.977ZM96.736,9.497C97.946,9.497 98.356,10.067 98.356,11.307L98.356,11.507L94.856,11.507C94.936,10.177 95.446,9.497 96.736,9.497Z" style="fill:white;fill-rule:nonzero;"/>
        </g>
        <path d="M240.94,82.202L49.577,82.204L72.321,59.478L263.666,59.478L240.94,82.202Z" style="fill:rgb(51,51,51);"/>
        <g transform="matrix(1,0,0,1,47.7587,0)">
            <path d="M54.431,68.432L54.431,74.432L54.903,74.432L54.903,71.8L55.735,71.8C56.343,71.8 56.767,71.832 56.927,71.936C57.239,72.128 57.583,72.864 58.271,74.432L58.783,74.432C58.271,73.256 57.839,72.256 57.599,71.96C57.511,71.864 57.279,71.728 57.111,71.648L57.111,71.632C57.439,71.52 57.767,71.336 57.855,71.264C58.095,71.04 58.319,70.56 58.319,69.952C58.319,69.28 58.135,68.912 57.863,68.72C57.607,68.528 57.175,68.432 56.239,68.432L54.431,68.432ZM54.903,68.84L56.207,68.84C57.015,68.84 57.335,68.928 57.527,69.08C57.719,69.224 57.839,69.528 57.839,70.016C57.839,70.664 57.551,71.12 57.191,71.264C56.999,71.336 56.679,71.384 56.167,71.384L54.903,71.384L54.903,68.84Z" style="fill:white;fill-rule:nonzero;"/>
            <path d="M59.615,72.224C59.615,73.752 60.151,74.52 61.647,74.52C62.263,74.52 62.839,74.408 63.159,74.328L63.191,73.944C62.879,73.992 62.351,74.096 61.703,74.096C60.447,74.096 60.095,73.432 60.095,72.208L63.367,72.208L63.367,71.656C63.367,70.504 62.943,69.856 61.663,69.856C60.255,69.856 59.615,70.656 59.615,72.224ZM61.615,70.24C62.583,70.24 62.911,70.696 62.911,71.688L62.911,71.848L60.111,71.848C60.175,70.784 60.583,70.24 61.615,70.24Z" style="fill:white;fill-rule:nonzero;"/>
            <path d="M64.527,72.336C64.527,73.256 64.775,73.84 65.103,74.128C65.359,74.352 65.767,74.488 66.383,74.488C66.999,74.488 67.479,74.36 67.623,74.272C67.671,74.248 67.839,74.08 67.903,73.984L67.935,73.984L67.935,76.552L68.399,76.552L68.399,69.896L68.335,69.896L68.095,70.032C67.703,69.936 67.263,69.848 66.727,69.848C65.935,69.848 65.439,70.032 65.151,70.312C64.759,70.696 64.527,71.384 64.527,72.336ZM65.007,72.272C65.007,71.44 65.199,70.872 65.487,70.6C65.735,70.36 66.119,70.248 66.719,70.248C67.175,70.248 67.599,70.304 67.935,70.36L67.935,73.824C67.535,74 66.975,74.072 66.543,74.072C65.999,74.072 65.655,73.976 65.455,73.784C65.223,73.568 65.007,73.08 65.007,72.272Z" style="fill:white;fill-rule:nonzero;"/>
            <path d="M73.719,74.432L73.719,69.944L73.255,69.944L73.255,73.776C72.895,73.936 72.375,74.072 71.855,74.072C71.367,74.072 71.031,73.992 70.839,73.792C70.655,73.6 70.543,73.288 70.543,72.68L70.543,69.944L70.079,69.944L70.079,72.856C70.079,73.472 70.215,73.848 70.447,74.096C70.695,74.352 71.031,74.488 71.679,74.488C72.239,74.488 72.767,74.352 72.991,74.24C73.007,74.232 73.199,73.984 73.215,73.952L73.263,73.952L73.383,74.432L73.719,74.432Z" style="fill:white;fill-rule:nonzero;"/>
            <path d="M75.871,74.432L75.871,69.944L75.407,69.944L75.407,74.432L75.871,74.432ZM75.943,68.416C75.943,68.312 75.927,68.232 75.871,68.184C75.831,68.144 75.759,68.128 75.663,68.128C75.559,68.128 75.479,68.152 75.455,68.184C75.391,68.216 75.359,68.304 75.359,68.424C75.359,68.528 75.383,68.608 75.423,68.648C75.463,68.696 75.535,68.712 75.647,68.712C75.735,68.712 75.823,68.696 75.871,68.656C75.927,68.616 75.943,68.52 75.943,68.416Z" style="fill:white;fill-rule:nonzero;"/>
            <path d="M77.559,69.944L77.559,74.432L78.023,74.432L78.023,70.656C78.295,70.48 78.807,70.296 79.351,70.304C79.623,70.304 79.855,70.336 79.991,70.36L79.991,69.912C79.871,69.896 79.703,69.88 79.479,69.88C78.919,69.88 78.511,70.032 78.295,70.16C78.279,70.176 78.087,70.408 78.063,70.44L78.015,70.44L77.903,69.944L77.559,69.944Z" style="fill:white;fill-rule:nonzero;"/>
            <path d="M80.543,72.224C80.543,73.752 81.079,74.52 82.575,74.52C83.191,74.52 83.767,74.408 84.087,74.328L84.119,73.944C83.807,73.992 83.279,74.096 82.631,74.096C81.375,74.096 81.023,73.432 81.023,72.208L84.295,72.208L84.295,71.656C84.295,70.504 83.871,69.856 82.591,69.856C81.183,69.856 80.543,70.656 80.543,72.224ZM82.543,70.24C83.511,70.24 83.839,70.696 83.839,71.688L83.839,71.848L81.039,71.848C81.103,70.784 81.511,70.24 82.543,70.24Z" style="fill:white;fill-rule:nonzero;"/>
            <path d="M88.391,73.2C88.391,72.896 88.319,72.64 88.159,72.456C87.991,72.264 87.647,72.128 86.991,71.976C86.383,71.84 86.103,71.728 85.967,71.568C85.863,71.448 85.831,71.28 85.831,71.112C85.831,70.544 86.103,70.224 87.047,70.224C87.519,70.224 87.895,70.272 88.239,70.328L88.239,69.944C87.967,69.888 87.535,69.824 87.039,69.824C85.847,69.824 85.375,70.312 85.375,71.136C85.375,71.392 85.431,71.656 85.575,71.824C85.799,72.104 86.175,72.224 86.807,72.376C87.351,72.504 87.655,72.608 87.799,72.768C87.895,72.896 87.935,73.064 87.935,73.232C87.935,73.8 87.679,74.088 86.671,74.088C86.183,74.088 85.687,74.016 85.359,73.952L85.359,74.344C85.679,74.424 86.223,74.488 86.671,74.488C88.031,74.488 88.391,73.992 88.391,73.2Z" style="fill:white;fill-rule:nonzero;"/>
            <path d="M90.055,70.144C90.055,70.032 90.039,69.944 89.983,69.896C89.943,69.864 89.855,69.84 89.751,69.84C89.639,69.84 89.559,69.872 89.519,69.896C89.447,69.928 89.423,70.024 89.423,70.144C89.423,70.264 89.447,70.344 89.487,70.392C89.535,70.44 89.615,70.456 89.743,70.456C89.831,70.456 89.935,70.44 89.983,70.4C90.039,70.352 90.055,70.248 90.055,70.144ZM90.055,74.152C90.055,74.048 90.039,73.952 89.983,73.912C89.943,73.872 89.855,73.848 89.751,73.848C89.639,73.848 89.559,73.88 89.519,73.904C89.447,73.936 89.423,74.04 89.423,74.16C89.423,74.272 89.447,74.352 89.487,74.408C89.535,74.448 89.615,74.472 89.743,74.472C89.831,74.472 89.935,74.456 89.983,74.416C90.039,74.36 90.055,74.264 90.055,74.152Z" style="fill:white;fill-rule:nonzero;"/>
            <path d="M95.929,66.932L95.929,74.432L96.519,74.432L96.519,71.142L97.559,71.142C98.319,71.142 98.849,71.182 99.049,71.312C99.439,71.552 99.869,72.472 100.729,74.432L101.369,74.432C100.729,72.962 100.189,71.712 99.889,71.342C99.779,71.222 99.489,71.052 99.279,70.952L99.279,70.932C99.689,70.792 100.099,70.562 100.209,70.472C100.509,70.192 100.789,69.592 100.789,68.832C100.789,67.992 100.559,67.532 100.219,67.292C99.899,67.052 99.359,66.932 98.189,66.932L95.929,66.932ZM96.519,67.442L98.149,67.442C99.159,67.442 99.559,67.552 99.799,67.742C100.039,67.922 100.189,68.302 100.189,68.912C100.189,69.722 99.829,70.292 99.379,70.472C99.139,70.562 98.739,70.622 98.099,70.622L96.519,70.622L96.519,67.442Z" style="fill:white;fill-rule:nonzero;"/>
            <path d="M102.409,71.672C102.409,73.582 103.079,74.542 104.949,74.542C105.719,74.542 106.439,74.402 106.839,74.302L106.879,73.822C106.489,73.882 105.829,74.012 105.019,74.012C103.449,74.012 103.009,73.182 103.009,71.652L107.099,71.652L107.099,70.962C107.099,69.522 106.569,68.712 104.969,68.712C103.209,68.712 102.409,69.712 102.409,71.672ZM104.909,69.192C106.119,69.192 106.529,69.762 106.529,71.002L106.529,71.202L103.029,71.202C103.109,69.872 103.619,69.192 104.909,69.192Z" style="fill:white;fill-rule:nonzero;"/>
            <path d="M113.359,68.822L113.259,68.822L112.989,69.002C112.489,68.882 111.929,68.762 111.219,68.762C110.269,68.762 109.669,69.002 109.319,69.342C108.839,69.822 108.549,70.692 108.549,71.862C108.549,73.012 108.829,73.722 109.289,74.082C109.609,74.342 110.089,74.512 110.879,74.512C111.609,74.512 112.219,74.372 112.389,74.262C112.449,74.232 112.649,73.992 112.739,73.882L112.779,73.882L112.779,74.182C112.779,75.442 112.589,75.962 112.309,76.242C112.049,76.472 111.609,76.642 110.789,76.642C109.959,76.642 109.229,76.522 108.839,76.452L108.839,76.962C109.219,77.032 109.929,77.172 110.819,77.172C111.809,77.172 112.349,76.942 112.689,76.632C113.079,76.262 113.359,75.652 113.359,74.132L113.359,68.822ZM109.149,71.762C109.149,70.732 109.379,70.062 109.719,69.712C110.029,69.412 110.509,69.262 111.259,69.262C111.849,69.262 112.369,69.342 112.779,69.392L112.779,73.672C112.279,73.902 111.639,74.002 111.059,74.002C110.499,74.002 109.989,73.882 109.699,73.652C109.359,73.382 109.149,72.802 109.149,71.762Z" style="fill:white;fill-rule:nonzero;"/>
            <path d="M115.189,71.672C115.189,73.582 115.859,74.542 117.729,74.542C118.499,74.542 119.219,74.402 119.619,74.302L119.659,73.822C119.269,73.882 118.609,74.012 117.799,74.012C116.229,74.012 115.789,73.182 115.789,71.652L119.879,71.652L119.879,70.962C119.879,69.522 119.349,68.712 117.749,68.712C115.989,68.712 115.189,69.712 115.189,71.672ZM117.689,69.192C118.899,69.192 119.309,69.762 119.309,71.002L119.309,71.202L115.809,71.202C115.889,69.872 116.399,69.192 117.689,69.192Z" style="fill:white;fill-rule:nonzero;"/>
            <path d="M126.169,74.432L126.169,70.762C126.169,70.002 126.009,69.492 125.699,69.202C125.399,68.902 124.969,68.742 124.239,68.742C123.529,68.742 122.809,68.942 122.539,69.092C122.509,69.112 122.279,69.372 122.249,69.412L122.199,69.412L122.039,68.822L121.619,68.822L121.619,74.432L122.199,74.432L122.199,69.632C122.639,69.452 123.269,69.262 123.989,69.262C124.509,69.262 124.949,69.362 125.199,69.602C125.449,69.842 125.589,70.252 125.589,70.962L125.589,74.432L126.169,74.432Z" style="fill:white;fill-rule:nonzero;"/>
            <path d="M127.979,71.672C127.979,73.582 128.649,74.542 130.519,74.542C131.289,74.542 132.009,74.402 132.409,74.302L132.449,73.822C132.059,73.882 131.399,74.012 130.589,74.012C129.019,74.012 128.579,73.182 128.579,71.652L132.669,71.652L132.669,70.962C132.669,69.522 132.139,68.712 130.539,68.712C128.779,68.712 127.979,69.712 127.979,71.672ZM130.479,69.192C131.689,69.192 132.099,69.762 132.099,71.002L132.099,71.202L128.599,71.202C128.679,69.872 129.189,69.192 130.479,69.192Z" style="fill:white;fill-rule:nonzero;"/>
            <path d="M134.409,68.822L134.409,74.432L134.989,74.432L134.989,69.712C135.329,69.492 135.969,69.262 136.649,69.272C136.989,69.272 137.279,69.312 137.449,69.342L137.449,68.782C137.299,68.762 137.089,68.742 136.809,68.742C136.109,68.742 135.599,68.932 135.329,69.092C135.309,69.112 135.069,69.402 135.039,69.442L134.979,69.442L134.839,68.822L134.409,68.822Z" style="fill:white;fill-rule:nonzero;"/>
            <path d="M142.619,74.432L142.619,70.952C142.619,69.852 142.459,69.432 142.209,69.162C141.939,68.852 141.449,68.722 140.679,68.722C139.879,68.722 139.049,68.892 138.629,69.002L138.629,69.472C139.009,69.402 139.879,69.242 140.559,69.242C141.189,69.242 141.559,69.342 141.739,69.552C141.929,69.782 142.049,70.182 142.049,71.152C140.259,71.312 139.119,71.522 138.689,71.842C138.469,71.982 138.249,72.362 138.249,72.992C138.249,73.512 138.369,73.862 138.569,74.082C138.799,74.342 139.219,74.532 139.999,74.532C140.969,74.532 141.569,74.282 141.739,74.162C141.789,74.122 141.929,73.932 142.009,73.822L142.059,73.822L142.199,74.432L142.619,74.432ZM142.049,73.652C141.749,73.802 141.039,74.042 140.189,74.042C139.579,74.042 139.219,73.902 139.049,73.722C138.909,73.562 138.819,73.302 138.819,72.942C138.819,72.522 138.919,72.272 139.069,72.142C139.299,71.892 140.749,71.682 142.049,71.602L142.049,73.652Z" style="fill:white;fill-rule:nonzero;"/>
            <path d="M147.719,68.822L145.619,68.822L145.619,67.502L145.039,67.652L145.039,68.822L143.959,68.822L143.879,69.312L145.039,69.312L145.039,73.162C145.039,74.132 145.449,74.492 146.449,74.492C146.879,74.492 147.349,74.422 147.649,74.362L147.699,73.872C147.479,73.902 147.059,73.972 146.599,73.972C145.969,73.972 145.619,73.812 145.619,73.052L145.619,69.312L147.609,69.312L147.719,68.822Z" style="fill:white;fill-rule:nonzero;"/>
            <path d="M149.799,74.432L149.799,68.822L149.219,68.822L149.219,74.432L149.799,74.432ZM149.889,66.912C149.889,66.782 149.869,66.682 149.799,66.622C149.749,66.572 149.659,66.552 149.539,66.552C149.409,66.552 149.309,66.582 149.279,66.622C149.199,66.662 149.159,66.772 149.159,66.922C149.159,67.052 149.189,67.152 149.239,67.202C149.289,67.262 149.379,67.282 149.519,67.282C149.629,67.282 149.739,67.262 149.799,67.212C149.869,67.162 149.889,67.042 149.889,66.912Z" style="fill:white;fill-rule:nonzero;"/>
            <path d="M156.789,71.502C156.789,70.342 156.539,69.692 156.129,69.262C155.779,68.912 155.189,68.672 154.339,68.672C153.449,68.672 152.829,68.932 152.429,69.312C151.919,69.792 151.629,70.672 151.629,71.762C151.629,72.842 151.919,73.502 152.239,73.872C152.609,74.292 153.199,74.552 154.129,74.552C155.119,74.552 155.689,74.282 156.079,73.882C156.509,73.432 156.789,72.602 156.789,71.502ZM154.189,74.052C153.379,74.052 152.949,73.802 152.679,73.492C152.399,73.172 152.209,72.532 152.209,71.692C152.209,70.672 152.519,69.962 152.859,69.652C153.119,69.412 153.579,69.192 154.269,69.192C154.969,69.192 155.399,69.372 155.679,69.662C155.979,69.972 156.199,70.452 156.199,71.602C156.199,72.602 155.949,73.222 155.599,73.582C155.309,73.872 154.809,74.052 154.189,74.052Z" style="fill:white;fill-rule:nonzero;"/>
            <path d="M163.169,74.432L163.169,70.762C163.169,70.002 163.009,69.492 162.699,69.202C162.399,68.902 161.969,68.742 161.239,68.742C160.529,68.742 159.809,68.942 159.539,69.092C159.509,69.112 159.279,69.372 159.249,69.412L159.199,69.412L159.039,68.822L158.619,68.822L158.619,74.432L159.199,74.432L159.199,69.632C159.639,69.452 160.269,69.262 160.989,69.262C161.509,69.262 161.949,69.362 162.199,69.602C162.449,69.842 162.589,70.252 162.589,70.962L162.589,74.432L163.169,74.432Z" style="fill:white;fill-rule:nonzero;"/>
        </g>
        <g>
            <path d="M2.837,42.52L42.521,82.204L82.205,42.521L42.52,2.836L2.837,42.52L2.837,42.52Z" style="fill:black;"/>
            <g transform="matrix(0.314988,0,0,0.314988,1.94338,29.1267)">
                <path d="M2.837,42.52L42.521,82.204L82.205,42.521L42.52,2.836L2.837,42.52L2.837,42.52Z" style="fill:rgb(55,5,170);"/>
            </g>
            <g transform="matrix(0.314988,-1.61778e-32,-1.69482e-32,0.314988,29.1274,56.3107)">
                <path d="M2.837,42.52L42.521,82.204L82.205,42.521L42.52,2.836L2.837,42.52L2.837,42.52Z" style="fill:rgb(2,94,178);"/>
            </g>
            <g transform="matrix(1,0,0,1,-19.5116,15.4648)">
                <path d="M35.417,23.675L34.921,23.675L33.465,29.211L33.281,29.211L31.729,23.675L30.961,23.675L29.193,29.211L29.025,29.211L27.721,23.675L27.233,23.675L28.649,29.675L29.489,29.675L31.257,24.139L31.393,24.139L32.937,29.675L33.785,29.675L35.417,23.675Z" style="fill:white;fill-rule:nonzero;"/>
                <rect x="36.745" y="23.675" width="0.472" height="6" style="fill:white;fill-rule:nonzero;"/>
                <path d="M39.513,23.675L39.049,23.675L39.049,29.675L42.601,29.675L42.737,29.251L39.513,29.251L39.513,23.675Z" style="fill:white;fill-rule:nonzero;"/>
            </g>
            <g transform="matrix(1,0,0,1,7.67239,42.9271)">
                <path d="M30.917,23.747C30.501,23.675 30.037,23.595 29.317,23.595C28.277,23.595 27.709,23.835 27.317,24.171C26.949,24.467 26.429,25.235 26.429,26.771C26.429,28.059 26.749,28.795 27.117,29.155C27.533,29.547 28.045,29.755 29.069,29.755C29.757,29.755 30.429,29.643 30.917,29.515L30.917,29.115C30.493,29.195 29.845,29.315 29.157,29.315C28.317,29.315 27.805,29.147 27.493,28.835C27.117,28.459 26.917,27.707 26.917,26.699C26.917,25.563 27.285,24.771 27.653,24.475C27.981,24.219 28.461,24.035 29.325,24.035C30.085,24.035 30.501,24.107 30.917,24.155L30.917,23.747Z" style="fill:white;fill-rule:nonzero;"/>
                <path d="M36.965,29.675L36.965,23.675L36.501,23.675L36.501,26.419L32.805,26.419L32.805,23.675L32.333,23.675L32.333,29.675L32.805,29.675L32.805,26.851L36.501,26.851L36.501,29.675L36.965,29.675Z" style="fill:white;fill-rule:nonzero;"/>
                <path d="M43.669,29.675L41.429,23.675L40.573,23.675L38.173,29.675L38.661,29.675L39.469,27.627L42.397,27.627L43.149,29.675L43.669,29.675ZM42.253,27.211L39.621,27.211L40.853,24.115L41.109,24.115L42.253,27.211Z" style="fill:white;fill-rule:nonzero;"/>
            </g>
        </g>
    </g>
</svg>
