<?xml version="1.0" standalone="no"?>
<!DOCTYPE svg PUBLIC "-//W3C//DTD SVG 1.1//EN" "http://www.w3.org/Graphics/SVG/1.1/DTD/svg11.dtd">
<svg width="100%" height="100%" viewBox="0 0 284 86" version="1.1" xmlns="http://www.w3.org/2000/svg" xmlns:xlink="http://www.w3.org/1999/xlink" xml:space="preserve" style="fill-rule:evenodd;clip-rule:evenodd;stroke-linejoin:round;stroke-miterlimit:1.41421;">
    <g id="primary">
        <path d="M82.769,26.988L87.598,31.817L78.582,31.817L73.749,26.988L49.577,2.835L112.057,2.837L134.782,25.561L81.341,25.56L82.769,26.988Z" style="fill:rgb(55,5,170);"/>
        <path d="M147.207,26.988L152.954,32.735L143.938,32.735L138.187,26.988L114.015,2.835L176.495,2.837L199.22,25.561L145.779,25.56L147.207,26.988Z" style="fill:rgb(51,51,51);"/>
        <path d="M211.652,26.988L217.399,32.735L208.383,32.735L202.632,26.988L178.46,2.835L240.94,2.837L263.666,25.561L210.224,25.56L211.652,26.988Z" style="fill:rgb(51,51,51);"/>
        <path d="M215.845,31.181L269.29,31.181L280.63,42.521L269.293,53.858L215.845,53.858L206.829,53.858L212.498,48.189L210.516,48.189L204.847,53.858L151.4,53.858L142.384,53.858L148.053,48.189L146.071,48.189L140.402,53.858L86.962,53.858L72.849,53.858L78.518,48.189L74.6,48.189L74.6,36.85L78.516,36.85L72.847,31.181L140.4,31.181L146.069,36.85L148.05,36.85L142.381,31.181L204.845,31.181L210.514,36.85L212.496,36.85L206.827,31.181L215.845,31.181Z" style="fill:rgb(51,51,51);"/>
        <g>
            <path d="M91.295,47.794L91.295,47.08L94.391,47.08L94.391,37.863L91.295,38.423L91.295,37.709L95.189,37.022L95.189,47.08L97.991,47.08L97.991,47.794L91.295,47.794Z" style="fill:white;fill-rule:nonzero;"/>
            <path d="M113.936,47.794L106.722,47.794L106.722,46.954C106.848,45.413 107.688,44.418 110.154,43.214C111.723,42.43 112.409,42.024 112.774,41.547C113.082,41.113 113.166,40.553 113.166,40.006C113.166,38.563 112.634,37.905 110.351,37.905C109.104,37.905 107.76,38.213 107.143,38.353L107.143,37.624C107.969,37.4 109.258,37.147 110.518,37.147C113.193,37.147 114.034,38.016 114.034,39.907C114.034,40.86 113.824,41.518 113.502,41.924C112.956,42.638 111.877,43.185 110.504,43.857C107.941,45.104 107.535,45.986 107.506,47.037L114.146,47.037L113.936,47.794Z" style="fill:white;fill-rule:nonzero;"/>
            <path d="M128.734,41.841L127.599,42.373L127.599,42.429L128.789,42.849C129.266,43.242 129.643,44.138 129.643,45.048C129.643,47.065 128.495,47.934 125.651,47.934C124.475,47.934 123.438,47.78 122.821,47.64L122.821,46.926C123.466,47.038 124.6,47.206 125.651,47.206C128.256,47.206 128.803,46.352 128.803,45.049C128.803,43.186 127.556,42.836 125.973,42.836L123.97,42.836L123.97,42.107L125.791,42.107C127.164,42.107 128.606,41.757 128.606,39.936C128.606,38.591 128.102,37.891 125.973,37.891C124.852,37.891 123.774,38.115 123.045,38.269L123.045,37.568C123.802,37.372 124.964,37.148 126.113,37.148C128.634,37.148 129.433,38.031 129.433,39.824C129.434,40.804 129,41.588 128.734,41.841Z" style="fill:white;fill-rule:nonzero;"/>
        </g>
        <g>
            <path d="M166.718,47.794L165.947,47.794L165.947,44.811L160.553,44.811L160.553,43.998L165.191,37.288L166.717,37.288L166.717,44.11L169.071,44.11L168.86,44.811L166.716,44.811L166.718,47.794ZM165.948,44.11L165.948,37.975L165.569,37.975L161.465,43.928L161.465,44.11L165.948,44.11Z" style="fill:white;fill-rule:nonzero;"/>
            <path d="M179.903,47.934C178.938,47.934 177.916,47.794 177.186,47.682L177.186,46.939C177.858,47.037 178.895,47.177 179.946,47.177C182.37,47.177 183.211,46.49 183.211,44.754C183.211,42.905 182.623,42.429 180.465,42.429C179.471,42.429 178.126,42.639 177.51,42.723L177.51,37.288L183.73,37.288L183.73,38.002L178.24,38.002L178.24,41.952C178.828,41.854 179.639,41.7 180.719,41.7C183.157,41.7 184.053,42.345 184.053,44.641C184.05,46.855 183.028,47.934 179.903,47.934Z" style="fill:white;fill-rule:nonzero;"/>
            <path d="M193.666,42.667L193.735,42.667L194.182,42.205C194.786,41.981 195.877,41.673 197.153,41.673C199.632,41.673 200.459,42.709 200.459,44.656C200.459,46.687 199.407,47.934 196.705,47.934C193.764,47.934 192.852,46.071 192.852,42.975C192.852,41.028 193.399,39.627 194.225,38.745C195.192,37.736 196.733,37.106 199.436,37.078L199.715,37.821C197.082,37.835 195.652,38.381 194.813,39.278C194.155,39.977 193.721,41.168 193.666,42.667ZM196.886,42.401C195.64,42.401 194.491,42.709 193.665,43.031C193.692,45.931 194.603,47.205 196.745,47.205C198.749,47.205 199.645,46.421 199.645,44.726C199.646,43.102 198.987,42.401 196.886,42.401Z" style="fill:white;fill-rule:nonzero;"/>
        </g>
        <g>
            <path d="M229.528,38.227L229.528,38.031L223.213,38.031L223.437,37.288L230.426,37.288L230.426,38.213L225.411,47.794L224.501,47.794L229.528,38.227Z" style="fill:white;fill-rule:nonzero;"/>
            <path d="M240.167,42.919L241.118,42.4L241.118,42.33L240.278,41.896C239.914,41.532 239.563,41.013 239.563,40.047C239.563,38.352 240.627,37.133 243.092,37.133C245.544,37.133 246.454,38.225 246.454,39.794C246.454,40.789 246.033,41.391 245.641,41.811L244.774,42.33L244.774,42.4L245.837,42.793C246.399,43.241 246.72,43.956 246.72,44.908C246.72,46.645 245.641,47.934 242.882,47.934C240.278,47.934 239.197,46.897 239.197,45.119C239.2,44.222 239.564,43.479 240.167,42.919ZM240.027,45.02C240.027,46.421 240.84,47.219 242.968,47.219C245.139,47.219 245.896,46.197 245.896,44.992C245.896,43.073 244.677,42.919 241.553,42.582C240.782,43.087 240.027,43.774 240.027,45.02ZM240.39,39.977C240.39,41.7 241.484,41.938 244.228,42.19C245.111,41.644 245.615,40.929 245.615,39.893C245.615,38.548 244.859,37.848 243.011,37.848C241.077,37.849 240.39,38.801 240.39,39.977Z" style="fill:white;fill-rule:nonzero;"/>
            <path d="M261.883,42.429L261.814,42.429L261.378,42.891C260.804,43.129 259.726,43.41 258.521,43.41C256.014,43.41 255.131,42.401 255.131,40.468C255.131,38.255 256.519,37.148 258.87,37.148C261.616,37.148 262.694,38.675 262.694,42.009C262.694,44.012 262.149,45.483 261.321,46.351C260.397,47.36 258.815,47.962 256.096,48.018L255.829,47.247C258.421,47.233 259.933,46.715 260.746,45.832C261.379,45.119 261.841,43.942 261.883,42.429ZM258.704,42.681C259.965,42.681 261.1,42.387 261.884,42.093C261.857,39.123 261.002,37.877 258.818,37.877C256.857,37.877 255.945,38.815 255.945,40.413C255.945,41.981 256.644,42.681 258.704,42.681Z" style="fill:white;fill-rule:nonzero;"/>
        </g>
        <g transform="matrix(1,0,0,1,82.3963,2.16146)">
            <path d="M59.256,14.737L56.456,7.237L55.386,7.237L52.386,14.737L52.996,14.737L54.006,12.177L57.666,12.177L58.606,14.737L59.256,14.737ZM57.486,11.657L54.196,11.657L55.736,7.787L56.056,7.787L57.486,11.657Z" style="fill:white;fill-rule:nonzero;"/>
            <path d="M65.126,9.127L64.496,9.127L62.526,14.197L62.286,14.197L60.386,9.127L59.756,9.127L61.886,14.737L62.886,14.737L65.126,9.127Z" style="fill:white;fill-rule:nonzero;"/>
            <path d="M70.416,14.737L70.416,11.257C70.416,10.157 70.256,9.737 70.006,9.467C69.736,9.157 69.246,9.027 68.476,9.027C67.676,9.027 66.846,9.197 66.426,9.307L66.426,9.777C66.806,9.707 67.676,9.547 68.356,9.547C68.986,9.547 69.356,9.647 69.536,9.857C69.726,10.087 69.846,10.487 69.846,11.457C68.056,11.617 66.916,11.827 66.486,12.147C66.266,12.287 66.046,12.667 66.046,13.297C66.046,13.817 66.166,14.167 66.366,14.387C66.596,14.647 67.016,14.837 67.796,14.837C68.766,14.837 69.366,14.587 69.536,14.467C69.586,14.427 69.726,14.237 69.806,14.127L69.856,14.127L69.996,14.737L70.416,14.737ZM69.846,13.957C69.546,14.107 68.836,14.347 67.986,14.347C67.376,14.347 67.016,14.207 66.846,14.027C66.706,13.867 66.616,13.607 66.616,13.247C66.616,12.827 66.716,12.577 66.866,12.447C67.096,12.197 68.546,11.987 69.846,11.907L69.846,13.957Z" style="fill:white;fill-rule:nonzero;"/>
            <path d="M73.106,14.737L73.106,9.127L72.526,9.127L72.526,14.737L73.106,14.737ZM73.196,7.217C73.196,7.087 73.176,6.987 73.106,6.927C73.056,6.877 72.966,6.857 72.846,6.857C72.716,6.857 72.616,6.887 72.586,6.927C72.506,6.967 72.466,7.077 72.466,7.227C72.466,7.357 72.496,7.457 72.546,7.507C72.596,7.567 72.686,7.587 72.826,7.587C72.936,7.587 73.046,7.567 73.106,7.517C73.176,7.467 73.196,7.347 73.196,7.217Z" style="fill:white;fill-rule:nonzero;"/>
            <path d="M75.186,6.637L75.186,13.467C75.186,14.407 75.556,14.797 76.366,14.797C76.746,14.797 77.096,14.737 77.336,14.687L77.336,14.227C77.136,14.257 76.866,14.297 76.536,14.297C76.066,14.297 75.766,14.127 75.766,13.407L75.766,6.637L75.186,6.637Z" style="fill:white;fill-rule:nonzero;"/>
            <path d="M82.536,14.737L82.536,11.257C82.536,10.157 82.376,9.737 82.126,9.467C81.856,9.157 81.366,9.027 80.596,9.027C79.796,9.027 78.966,9.197 78.546,9.307L78.546,9.777C78.926,9.707 79.796,9.547 80.476,9.547C81.106,9.547 81.476,9.647 81.656,9.857C81.846,10.087 81.966,10.487 81.966,11.457C80.176,11.617 79.036,11.827 78.606,12.147C78.386,12.287 78.166,12.667 78.166,13.297C78.166,13.817 78.286,14.167 78.486,14.387C78.716,14.647 79.136,14.837 79.916,14.837C80.886,14.837 81.486,14.587 81.656,14.467C81.706,14.427 81.846,14.237 81.926,14.127L81.976,14.127L82.116,14.737L82.536,14.737ZM81.966,13.957C81.666,14.107 80.956,14.347 80.106,14.347C79.496,14.347 79.136,14.207 78.966,14.027C78.826,13.867 78.736,13.607 78.736,13.247C78.736,12.827 78.836,12.577 78.986,12.447C79.216,12.197 80.666,11.987 81.966,11.907L81.966,13.957Z" style="fill:white;fill-rule:nonzero;"/>
            <path d="M89.466,11.667C89.466,10.517 89.176,9.827 88.776,9.467C88.456,9.187 87.986,9.017 87.206,9.017C86.446,9.017 85.786,9.197 85.626,9.307C85.566,9.337 85.336,9.557 85.256,9.667L85.216,9.667L85.216,6.637L84.636,6.637L84.636,14.737L84.716,14.737L85.006,14.567C85.506,14.687 86.096,14.787 86.786,14.787C87.736,14.787 88.316,14.577 88.696,14.217C89.176,13.757 89.466,12.857 89.466,11.667ZM88.866,11.787C88.866,12.827 88.616,13.527 88.256,13.867C87.956,14.147 87.486,14.297 86.726,14.297C86.156,14.297 85.606,14.217 85.216,14.157L85.216,9.867C85.706,9.647 86.376,9.537 86.986,9.537C87.656,9.537 88.056,9.667 88.316,9.897C88.606,10.157 88.866,10.737 88.866,11.787Z" style="fill:white;fill-rule:nonzero;"/>
            <path d="M91.266,6.637L91.266,13.467C91.266,14.407 91.636,14.797 92.446,14.797C92.826,14.797 93.176,14.737 93.416,14.687L93.416,14.227C93.216,14.257 92.946,14.297 92.616,14.297C92.146,14.297 91.846,14.127 91.846,13.407L91.846,6.637L91.266,6.637Z" style="fill:white;fill-rule:nonzero;"/>
            <path d="M94.236,11.977C94.236,13.887 94.906,14.847 96.776,14.847C97.546,14.847 98.266,14.707 98.666,14.607L98.706,14.127C98.316,14.187 97.656,14.317 96.846,14.317C95.276,14.317 94.836,13.487 94.836,11.957L98.926,11.957L98.926,11.267C98.926,9.827 98.396,9.017 96.796,9.017C95.036,9.017 94.236,10.017 94.236,11.977ZM96.736,9.497C97.946,9.497 98.356,10.067 98.356,11.307L98.356,11.507L94.856,11.507C94.936,10.177 95.446,9.497 96.736,9.497Z" style="fill:white;fill-rule:nonzero;"/>
        </g>
        <g transform="matrix(1,0,0,1,146.834,2.16146)">
            <path d="M59.256,14.737L56.456,7.237L55.386,7.237L52.386,14.737L52.996,14.737L54.006,12.177L57.666,12.177L58.606,14.737L59.256,14.737ZM57.486,11.657L54.196,11.657L55.736,7.787L56.056,7.787L57.486,11.657Z" style="fill:white;fill-rule:nonzero;"/>
            <path d="M65.126,9.127L64.496,9.127L62.526,14.197L62.286,14.197L60.386,9.127L59.756,9.127L61.886,14.737L62.886,14.737L65.126,9.127Z" style="fill:white;fill-rule:nonzero;"/>
            <path d="M70.416,14.737L70.416,11.257C70.416,10.157 70.256,9.737 70.006,9.467C69.736,9.157 69.246,9.027 68.476,9.027C67.676,9.027 66.846,9.197 66.426,9.307L66.426,9.777C66.806,9.707 67.676,9.547 68.356,9.547C68.986,9.547 69.356,9.647 69.536,9.857C69.726,10.087 69.846,10.487 69.846,11.457C68.056,11.617 66.916,11.827 66.486,12.147C66.266,12.287 66.046,12.667 66.046,13.297C66.046,13.817 66.166,14.167 66.366,14.387C66.596,14.647 67.016,14.837 67.796,14.837C68.766,14.837 69.366,14.587 69.536,14.467C69.586,14.427 69.726,14.237 69.806,14.127L69.856,14.127L69.996,14.737L70.416,14.737ZM69.846,13.957C69.546,14.107 68.836,14.347 67.986,14.347C67.376,14.347 67.016,14.207 66.846,14.027C66.706,13.867 66.616,13.607 66.616,13.247C66.616,12.827 66.716,12.577 66.866,12.447C67.096,12.197 68.546,11.987 69.846,11.907L69.846,13.957Z" style="fill:white;fill-rule:nonzero;"/>
            <path d="M73.106,14.737L73.106,9.127L72.526,9.127L72.526,14.737L73.106,14.737ZM73.196,7.217C73.196,7.087 73.176,6.987 73.106,6.927C73.056,6.877 72.966,6.857 72.846,6.857C72.716,6.857 72.616,6.887 72.586,6.927C72.506,6.967 72.466,7.077 72.466,7.227C72.466,7.357 72.496,7.457 72.546,7.507C72.596,7.567 72.686,7.587 72.826,7.587C72.936,7.587 73.046,7.567 73.106,7.517C73.176,7.467 73.196,7.347 73.196,7.217Z" style="fill:white;fill-rule:nonzero;"/>
            <path d="M75.186,6.637L75.186,13.467C75.186,14.407 75.556,14.797 76.366,14.797C76.746,14.797 77.096,14.737 77.336,14.687L77.336,14.227C77.136,14.257 76.866,14.297 76.536,14.297C76.066,14.297 75.766,14.127 75.766,13.407L75.766,6.637L75.186,6.637Z" style="fill:white;fill-rule:nonzero;"/>
            <path d="M82.536,14.737L82.536,11.257C82.536,10.157 82.376,9.737 82.126,9.467C81.856,9.157 81.366,9.027 80.596,9.027C79.796,9.027 78.966,9.197 78.546,9.307L78.546,9.777C78.926,9.707 79.796,9.547 80.476,9.547C81.106,9.547 81.476,9.647 81.656,9.857C81.846,10.087 81.966,10.487 81.966,11.457C80.176,11.617 79.036,11.827 78.606,12.147C78.386,12.287 78.166,12.667 78.166,13.297C78.166,13.817 78.286,14.167 78.486,14.387C78.716,14.647 79.136,14.837 79.916,14.837C80.886,14.837 81.486,14.587 81.656,14.467C81.706,14.427 81.846,14.237 81.926,14.127L81.976,14.127L82.116,14.737L82.536,14.737ZM81.966,13.957C81.666,14.107 80.956,14.347 80.106,14.347C79.496,14.347 79.136,14.207 78.966,14.027C78.826,13.867 78.736,13.607 78.736,13.247C78.736,12.827 78.836,12.577 78.986,12.447C79.216,12.197 80.666,11.987 81.966,11.907L81.966,13.957Z" style="fill:white;fill-rule:nonzero;"/>
            <path d="M89.466,11.667C89.466,10.517 89.176,9.827 88.776,9.467C88.456,9.187 87.986,9.017 87.206,9.017C86.446,9.017 85.786,9.197 85.626,9.307C85.566,9.337 85.336,9.557 85.256,9.667L85.216,9.667L85.216,6.637L84.636,6.637L84.636,14.737L84.716,14.737L85.006,14.567C85.506,14.687 86.096,14.787 86.786,14.787C87.736,14.787 88.316,14.577 88.696,14.217C89.176,13.757 89.466,12.857 89.466,11.667ZM88.866,11.787C88.866,12.827 88.616,13.527 88.256,13.867C87.956,14.147 87.486,14.297 86.726,14.297C86.156,14.297 85.606,14.217 85.216,14.157L85.216,9.867C85.706,9.647 86.376,9.537 86.986,9.537C87.656,9.537 88.056,9.667 88.316,9.897C88.606,10.157 88.866,10.737 88.866,11.787Z" style="fill:white;fill-rule:nonzero;"/>
            <path d="M91.266,6.637L91.266,13.467C91.266,14.407 91.636,14.797 92.446,14.797C92.826,14.797 93.176,14.737 93.416,14.687L93.416,14.227C93.216,14.257 92.946,14.297 92.616,14.297C92.146,14.297 91.846,14.127 91.846,13.407L91.846,6.637L91.266,6.637Z" style="fill:white;fill-rule:nonzero;"/>
            <path d="M94.236,11.977C94.236,13.887 94.906,14.847 96.776,14.847C97.546,14.847 98.266,14.707 98.666,14.607L98.706,14.127C98.316,14.187 97.656,14.317 96.846,14.317C95.276,14.317 94.836,13.487 94.836,11.957L98.926,11.957L98.926,11.267C98.926,9.827 98.396,9.017 96.796,9.017C95.036,9.017 94.236,10.017 94.236,11.977ZM96.736,9.497C97.946,9.497 98.356,10.067 98.356,11.307L98.356,11.507L94.856,11.507C94.936,10.177 95.446,9.497 96.736,9.497Z" style="fill:white;fill-rule:nonzero;"/>
        </g>
        <path d="M240.94,82.202L49.577,82.204L72.321,59.478L263.666,59.478L240.94,82.202Z" style="fill:rgb(55,5,170);"/>
        <g transform="matrix(1,0,0,1,47.7587,0)">
            <path d="M57.881,68.432L57.881,74.432L58.353,74.432L58.353,71.8L59.185,71.8C59.793,71.8 60.217,71.832 60.377,71.936C60.689,72.128 61.033,72.864 61.721,74.432L62.233,74.432C61.721,73.256 61.289,72.256 61.049,71.96C60.961,71.864 60.729,71.728 60.561,71.648L60.561,71.632C60.889,71.52 61.217,71.336 61.305,71.264C61.545,71.04 61.769,70.56 61.769,69.952C61.769,69.28 61.585,68.912 61.313,68.72C61.057,68.528 60.625,68.432 59.689,68.432L57.881,68.432ZM58.353,68.84L59.657,68.84C60.465,68.84 60.785,68.928 60.977,69.08C61.169,69.224 61.289,69.528 61.289,70.016C61.289,70.664 61.001,71.12 60.641,71.264C60.449,71.336 60.129,71.384 59.617,71.384L58.353,71.384L58.353,68.84Z" style="fill:white;fill-rule:nonzero;"/>
            <path d="M63.065,72.224C63.065,73.752 63.601,74.52 65.097,74.52C65.713,74.52 66.289,74.408 66.609,74.328L66.641,73.944C66.329,73.992 65.801,74.096 65.153,74.096C63.897,74.096 63.545,73.432 63.545,72.208L66.817,72.208L66.817,71.656C66.817,70.504 66.393,69.856 65.113,69.856C63.705,69.856 63.065,70.656 63.065,72.224ZM65.065,70.24C66.033,70.24 66.361,70.696 66.361,71.688L66.361,71.848L63.561,71.848C63.625,70.784 64.033,70.24 65.065,70.24Z" style="fill:white;fill-rule:nonzero;"/>
            <path d="M67.977,72.336C67.977,73.256 68.225,73.84 68.553,74.128C68.809,74.352 69.217,74.488 69.833,74.488C70.449,74.488 70.929,74.36 71.073,74.272C71.121,74.248 71.289,74.08 71.353,73.984L71.385,73.984L71.385,76.552L71.849,76.552L71.849,69.896L71.785,69.896L71.545,70.032C71.153,69.936 70.713,69.848 70.177,69.848C69.385,69.848 68.889,70.032 68.601,70.312C68.209,70.696 67.977,71.384 67.977,72.336ZM68.457,72.272C68.457,71.44 68.649,70.872 68.937,70.6C69.185,70.36 69.569,70.248 70.169,70.248C70.625,70.248 71.049,70.304 71.385,70.36L71.385,73.824C70.985,74 70.425,74.072 69.993,74.072C69.449,74.072 69.105,73.976 68.905,73.784C68.673,73.568 68.457,73.08 68.457,72.272Z" style="fill:white;fill-rule:nonzero;"/>
            <path d="M77.169,74.432L77.169,69.944L76.705,69.944L76.705,73.776C76.345,73.936 75.825,74.072 75.305,74.072C74.817,74.072 74.481,73.992 74.289,73.792C74.105,73.6 73.993,73.288 73.993,72.68L73.993,69.944L73.529,69.944L73.529,72.856C73.529,73.472 73.665,73.848 73.897,74.096C74.145,74.352 74.481,74.488 75.129,74.488C75.689,74.488 76.217,74.352 76.441,74.24C76.457,74.232 76.649,73.984 76.665,73.952L76.713,73.952L76.833,74.432L77.169,74.432Z" style="fill:white;fill-rule:nonzero;"/>
            <path d="M79.321,74.432L79.321,69.944L78.857,69.944L78.857,74.432L79.321,74.432ZM79.393,68.416C79.393,68.312 79.377,68.232 79.321,68.184C79.281,68.144 79.209,68.128 79.113,68.128C79.009,68.128 78.929,68.152 78.905,68.184C78.841,68.216 78.809,68.304 78.809,68.424C78.809,68.528 78.833,68.608 78.873,68.648C78.913,68.696 78.985,68.712 79.097,68.712C79.185,68.712 79.273,68.696 79.321,68.656C79.377,68.616 79.393,68.52 79.393,68.416Z" style="fill:white;fill-rule:nonzero;"/>
            <path d="M81.009,69.944L81.009,74.432L81.473,74.432L81.473,70.656C81.745,70.48 82.257,70.296 82.801,70.304C83.073,70.304 83.305,70.336 83.441,70.36L83.441,69.912C83.321,69.896 83.153,69.88 82.929,69.88C82.369,69.88 81.961,70.032 81.745,70.16C81.729,70.176 81.537,70.408 81.513,70.44L81.465,70.44L81.353,69.944L81.009,69.944Z" style="fill:white;fill-rule:nonzero;"/>
            <path d="M83.993,72.224C83.993,73.752 84.529,74.52 86.025,74.52C86.641,74.52 87.217,74.408 87.537,74.328L87.569,73.944C87.257,73.992 86.729,74.096 86.081,74.096C84.825,74.096 84.473,73.432 84.473,72.208L87.745,72.208L87.745,71.656C87.745,70.504 87.321,69.856 86.041,69.856C84.633,69.856 83.993,70.656 83.993,72.224ZM85.993,70.24C86.961,70.24 87.289,70.696 87.289,71.688L87.289,71.848L84.489,71.848C84.553,70.784 84.961,70.24 85.993,70.24Z" style="fill:white;fill-rule:nonzero;"/>
            <path d="M91.841,73.2C91.841,72.896 91.769,72.64 91.609,72.456C91.441,72.264 91.097,72.128 90.441,71.976C89.833,71.84 89.553,71.728 89.417,71.568C89.313,71.448 89.281,71.28 89.281,71.112C89.281,70.544 89.553,70.224 90.497,70.224C90.969,70.224 91.345,70.272 91.689,70.328L91.689,69.944C91.417,69.888 90.985,69.824 90.489,69.824C89.297,69.824 88.825,70.312 88.825,71.136C88.825,71.392 88.881,71.656 89.025,71.824C89.249,72.104 89.625,72.224 90.257,72.376C90.801,72.504 91.105,72.608 91.249,72.768C91.345,72.896 91.385,73.064 91.385,73.232C91.385,73.8 91.129,74.088 90.121,74.088C89.633,74.088 89.137,74.016 88.809,73.952L88.809,74.344C89.129,74.424 89.673,74.488 90.121,74.488C91.481,74.488 91.841,73.992 91.841,73.2Z" style="fill:white;fill-rule:nonzero;"/>
            <path d="M93.505,70.144C93.505,70.032 93.489,69.944 93.433,69.896C93.393,69.864 93.305,69.84 93.201,69.84C93.089,69.84 93.009,69.872 92.969,69.896C92.897,69.928 92.873,70.024 92.873,70.144C92.873,70.264 92.897,70.344 92.937,70.392C92.985,70.44 93.065,70.456 93.193,70.456C93.281,70.456 93.385,70.44 93.433,70.4C93.489,70.352 93.505,70.248 93.505,70.144ZM93.505,74.152C93.505,74.048 93.489,73.952 93.433,73.912C93.393,73.872 93.305,73.848 93.201,73.848C93.089,73.848 93.009,73.88 92.969,73.904C92.897,73.936 92.873,74.04 92.873,74.16C92.873,74.272 92.897,74.352 92.937,74.408C92.985,74.448 93.065,74.472 93.193,74.472C93.281,74.472 93.385,74.456 93.433,74.416C93.489,74.36 93.505,74.264 93.505,74.152Z" style="fill:white;fill-rule:nonzero;"/>
            <path d="M103.899,72.602C103.899,72.172 103.829,71.652 103.579,71.352C103.069,70.702 100.199,70.202 99.759,69.642C99.609,69.452 99.539,69.132 99.539,68.752C99.539,68.292 99.699,67.942 99.859,67.772C100.079,67.512 100.629,67.352 101.559,67.352C102.489,67.352 103.019,67.422 103.649,67.492L103.649,66.982C103.139,66.892 102.459,66.822 101.639,66.822C100.409,66.822 99.769,67.072 99.449,67.382C99.109,67.712 98.949,68.252 98.949,68.802C98.949,69.212 99.019,69.742 99.249,70.022C99.819,70.752 102.499,71.122 103.059,71.732C103.209,71.902 103.289,72.222 103.289,72.632C103.289,73.132 103.129,73.462 102.949,73.642C102.739,73.842 102.189,74.002 101.159,74.002C100.219,74.002 99.559,73.882 98.969,73.782L98.969,74.302C99.469,74.422 100.219,74.542 101.149,74.542C102.219,74.542 102.969,74.382 103.379,74.032C103.689,73.762 103.899,73.202 103.899,72.602Z" style="fill:white;fill-rule:nonzero;"/>
            <path d="M110.149,74.432L110.149,68.822L109.569,68.822L109.569,73.612C109.119,73.812 108.469,73.982 107.819,73.982C107.209,73.982 106.789,73.882 106.549,73.632C106.319,73.392 106.179,73.002 106.179,72.242L106.179,68.822L105.599,68.822L105.599,72.462C105.599,73.232 105.769,73.702 106.059,74.012C106.369,74.332 106.789,74.502 107.599,74.502C108.299,74.502 108.959,74.332 109.239,74.192C109.259,74.182 109.499,73.872 109.519,73.832L109.579,73.832L109.729,74.432L110.149,74.432Z" style="fill:white;fill-rule:nonzero;"/>
            <path d="M117.079,71.362C117.079,70.212 116.789,69.522 116.389,69.162C116.069,68.882 115.599,68.712 114.819,68.712C114.059,68.712 113.399,68.892 113.239,69.002C113.179,69.032 112.949,69.252 112.869,69.362L112.829,69.362L112.829,66.332L112.249,66.332L112.249,74.432L112.329,74.432L112.619,74.262C113.119,74.382 113.709,74.482 114.399,74.482C115.349,74.482 115.929,74.272 116.309,73.912C116.789,73.452 117.079,72.552 117.079,71.362ZM116.479,71.482C116.479,72.522 116.229,73.222 115.869,73.562C115.569,73.842 115.099,73.992 114.339,73.992C113.769,73.992 113.219,73.912 112.829,73.852L112.829,69.562C113.319,69.342 113.989,69.232 114.599,69.232C115.269,69.232 115.669,69.362 115.929,69.592C116.219,69.852 116.479,70.432 116.479,71.482Z" style="fill:white;fill-rule:nonzero;"/>
            <path d="M118.879,66.332L118.879,73.162C118.879,74.102 119.249,74.492 120.059,74.492C120.439,74.492 120.789,74.432 121.029,74.382L121.029,73.922C120.829,73.952 120.559,73.992 120.229,73.992C119.759,73.992 119.459,73.822 119.459,73.102L119.459,66.332L118.879,66.332Z" style="fill:white;fill-rule:nonzero;"/>
            <path d="M122.809,74.432L122.809,68.822L122.229,68.822L122.229,74.432L122.809,74.432ZM122.899,66.912C122.899,66.782 122.879,66.682 122.809,66.622C122.759,66.572 122.669,66.552 122.549,66.552C122.419,66.552 122.319,66.582 122.289,66.622C122.209,66.662 122.169,66.772 122.169,66.922C122.169,67.052 122.199,67.152 122.249,67.202C122.299,67.262 122.389,67.282 122.529,67.282C122.639,67.282 122.749,67.262 122.809,67.212C122.879,67.162 122.899,67.042 122.899,66.912Z" style="fill:white;fill-rule:nonzero;"/>
            <path d="M133.069,74.432L133.069,70.762C133.069,69.992 132.939,69.482 132.619,69.182C132.319,68.892 131.899,68.742 131.239,68.742C130.509,68.742 129.869,68.962 129.549,69.142L129.239,69.532L129.189,69.532C129.139,69.442 129.069,69.322 128.939,69.202C128.629,68.902 128.169,68.742 127.449,68.742C126.719,68.742 126.099,68.942 125.839,69.082L125.539,69.412L125.489,69.412L125.339,68.822L124.909,68.822L124.909,74.432L125.489,74.432L125.489,69.642C125.909,69.472 126.489,69.262 127.219,69.262C127.679,69.262 128.149,69.352 128.389,69.582C128.619,69.802 128.699,70.102 128.699,70.592L128.699,74.432L129.279,74.432L129.279,69.712C129.679,69.502 130.269,69.262 130.989,69.262C131.459,69.262 131.879,69.372 132.119,69.602C132.359,69.832 132.489,70.222 132.489,70.962L132.489,74.432L133.069,74.432Z" style="fill:white;fill-rule:nonzero;"/>
            <path d="M139.169,74.432L139.169,70.952C139.169,69.852 139.009,69.432 138.759,69.162C138.489,68.852 137.999,68.722 137.229,68.722C136.429,68.722 135.599,68.892 135.179,69.002L135.179,69.472C135.559,69.402 136.429,69.242 137.109,69.242C137.739,69.242 138.109,69.342 138.289,69.552C138.479,69.782 138.599,70.182 138.599,71.152C136.809,71.312 135.669,71.522 135.239,71.842C135.019,71.982 134.799,72.362 134.799,72.992C134.799,73.512 134.919,73.862 135.119,74.082C135.349,74.342 135.769,74.532 136.549,74.532C137.519,74.532 138.119,74.282 138.289,74.162C138.339,74.122 138.479,73.932 138.559,73.822L138.609,73.822L138.749,74.432L139.169,74.432ZM138.599,73.652C138.299,73.802 137.589,74.042 136.739,74.042C136.129,74.042 135.769,73.902 135.599,73.722C135.459,73.562 135.369,73.302 135.369,72.942C135.369,72.522 135.469,72.272 135.619,72.142C135.849,71.892 137.299,71.682 138.599,71.602L138.599,73.652Z" style="fill:white;fill-rule:nonzero;"/>
            <path d="M144.269,68.822L142.169,68.822L142.169,67.502L141.589,67.652L141.589,68.822L140.509,68.822L140.429,69.312L141.589,69.312L141.589,73.162C141.589,74.132 141.999,74.492 142.999,74.492C143.429,74.492 143.899,74.422 144.199,74.362L144.249,73.872C144.029,73.902 143.609,73.972 143.149,73.972C142.519,73.972 142.169,73.812 142.169,73.052L142.169,69.312L144.159,69.312L144.269,68.822Z" style="fill:white;fill-rule:nonzero;"/>
            <path d="M146.349,74.432L146.349,68.822L145.769,68.822L145.769,74.432L146.349,74.432ZM146.439,66.912C146.439,66.782 146.419,66.682 146.349,66.622C146.299,66.572 146.209,66.552 146.089,66.552C145.959,66.552 145.859,66.582 145.829,66.622C145.749,66.662 145.709,66.772 145.709,66.922C145.709,67.052 145.739,67.152 145.789,67.202C145.839,67.262 145.929,67.282 146.069,67.282C146.179,67.282 146.289,67.262 146.349,67.212C146.419,67.162 146.439,67.042 146.439,66.912Z" style="fill:white;fill-rule:nonzero;"/>
            <path d="M153.339,71.502C153.339,70.342 153.089,69.692 152.679,69.262C152.329,68.912 151.739,68.672 150.889,68.672C149.999,68.672 149.379,68.932 148.979,69.312C148.469,69.792 148.179,70.672 148.179,71.762C148.179,72.842 148.469,73.502 148.789,73.872C149.159,74.292 149.749,74.552 150.679,74.552C151.669,74.552 152.239,74.282 152.629,73.882C153.059,73.432 153.339,72.602 153.339,71.502ZM150.739,74.052C149.929,74.052 149.499,73.802 149.229,73.492C148.949,73.172 148.759,72.532 148.759,71.692C148.759,70.672 149.069,69.962 149.409,69.652C149.669,69.412 150.129,69.192 150.819,69.192C151.519,69.192 151.949,69.372 152.229,69.662C152.529,69.972 152.749,70.452 152.749,71.602C152.749,72.602 152.499,73.222 152.149,73.582C151.859,73.872 151.359,74.052 150.739,74.052Z" style="fill:white;fill-rule:nonzero;"/>
            <path d="M159.719,74.432L159.719,70.762C159.719,70.002 159.559,69.492 159.249,69.202C158.949,68.902 158.519,68.742 157.789,68.742C157.079,68.742 156.359,68.942 156.089,69.092C156.059,69.112 155.829,69.372 155.799,69.412L155.749,69.412L155.589,68.822L155.169,68.822L155.169,74.432L155.749,74.432L155.749,69.632C156.189,69.452 156.819,69.262 157.539,69.262C158.059,69.262 158.499,69.362 158.749,69.602C158.999,69.842 159.139,70.252 159.139,70.962L159.139,74.432L159.719,74.432Z" style="fill:white;fill-rule:nonzero;"/>
        </g>
        <g>
            <path d="M2.837,42.52L42.521,82.204L82.205,42.521L42.52,2.836L2.837,42.52Z" style="fill:black;"/>
            <g transform="matrix(0.314988,0,0,0.314988,1.94338,29.1267)">
                <path d="M2.837,42.52L42.521,82.204L82.205,42.521L42.52,2.836L2.837,42.52Z" style="fill:rgb(55,5,170);"/>
            </g>
            <g transform="matrix(0.314988,-1.61778e-32,-1.69482e-32,0.314988,15.541,42.7243)">
                <path d="M2.837,42.52L42.521,82.204L82.205,42.521L42.52,2.836L2.837,42.52Z" style="fill:rgb(55,124,33);"/>
            </g>
            <g transform="matrix(1,0,0,1,-0.12693,3.08823)">
                <rect x="22.522" y="50.029" width="0.472" height="6" style="fill:white;"/>
                <path d="M29.666,56.029L29.666,50.029L29.226,50.029L29.226,55.533L29.074,55.533L25.658,50.029L24.826,50.029L24.826,56.029L25.266,56.029L25.266,50.477L25.41,50.477L28.858,56.029L29.666,56.029Z" style="fill:white;fill-rule:nonzero;"/>
                <path d="M35.602,50.029L30.866,50.029L30.754,50.453L32.922,50.453L32.922,56.029L33.386,56.029L33.386,50.453L35.506,50.453L35.602,50.029Z" style="fill:white;fill-rule:nonzero;"/>
            </g>
            <g transform="matrix(1,0,0,1,-19.5116,15.4648)">
                <path d="M35.417,23.675L34.921,23.675L33.465,29.211L33.281,29.211L31.729,23.675L30.961,23.675L29.193,29.211L29.025,29.211L27.721,23.675L27.233,23.675L28.649,29.675L29.489,29.675L31.257,24.139L31.393,24.139L32.937,29.675L33.785,29.675L35.417,23.675Z" style="fill:white;fill-rule:nonzero;"/>
                <rect x="36.745" y="23.675" width="0.472" height="6" style="fill:white;"/>
                <path d="M39.513,23.675L39.049,23.675L39.049,29.675L42.601,29.675L42.737,29.251L39.513,29.251L39.513,23.675Z" style="fill:white;fill-rule:nonzero;"/>
            </g>
        </g>
        <g transform="matrix(1,0,0,1,4.30759,0.258946)">
            <path d="M74.752,12.088L72.512,6.088L71.656,6.088L69.256,12.088L69.744,12.088L70.552,10.04L73.48,10.04L74.232,12.088L74.752,12.088ZM73.336,9.624L70.704,9.624L71.936,6.528L72.192,6.528L73.336,9.624Z" style="fill:white;fill-rule:nonzero;"/>
            <path d="M79.448,7.6L78.944,7.6L77.368,11.656L77.176,11.656L75.656,7.6L75.152,7.6L76.856,12.088L77.656,12.088L79.448,7.6Z" style="fill:white;fill-rule:nonzero;"/>
            <path d="M83.68,12.088L83.68,9.304C83.68,8.424 83.552,8.088 83.352,7.872C83.136,7.624 82.744,7.52 82.128,7.52C81.488,7.52 80.824,7.656 80.488,7.744L80.488,8.12C80.792,8.064 81.488,7.936 82.032,7.936C82.536,7.936 82.832,8.016 82.976,8.184C83.128,8.368 83.224,8.688 83.224,9.464C81.792,9.592 80.88,9.76 80.536,10.016C80.36,10.128 80.184,10.432 80.184,10.936C80.184,11.352 80.28,11.632 80.44,11.808C80.624,12.016 80.96,12.168 81.584,12.168C82.36,12.168 82.84,11.968 82.976,11.872C83.016,11.84 83.128,11.688 83.192,11.6L83.232,11.6L83.344,12.088L83.68,12.088ZM83.224,11.464C82.984,11.584 82.416,11.776 81.736,11.776C81.248,11.776 80.96,11.664 80.824,11.52C80.712,11.392 80.64,11.184 80.64,10.896C80.64,10.56 80.72,10.36 80.84,10.256C81.024,10.056 82.184,9.888 83.224,9.824L83.224,11.464Z" style="fill:white;fill-rule:nonzero;"/>
            <path d="M85.832,12.088L85.832,7.6L85.368,7.6L85.368,12.088L85.832,12.088ZM85.904,6.072C85.904,5.968 85.888,5.888 85.832,5.84C85.792,5.8 85.72,5.784 85.624,5.784C85.52,5.784 85.44,5.808 85.416,5.84C85.352,5.872 85.32,5.96 85.32,6.08C85.32,6.184 85.344,6.264 85.384,6.304C85.424,6.352 85.496,6.368 85.608,6.368C85.696,6.368 85.784,6.352 85.832,6.312C85.888,6.272 85.904,6.176 85.904,6.072Z" style="fill:white;fill-rule:nonzero;"/>
            <path d="M87.496,5.608L87.496,11.072C87.496,11.824 87.792,12.136 88.44,12.136C88.744,12.136 89.024,12.088 89.216,12.048L89.216,11.68C89.056,11.704 88.84,11.736 88.576,11.736C88.2,11.736 87.96,11.6 87.96,11.024L87.96,5.608L87.496,5.608Z" style="fill:white;fill-rule:nonzero;"/>
            <path d="M93.376,12.088L93.376,9.304C93.376,8.424 93.248,8.088 93.048,7.872C92.832,7.624 92.44,7.52 91.824,7.52C91.184,7.52 90.52,7.656 90.184,7.744L90.184,8.12C90.488,8.064 91.184,7.936 91.728,7.936C92.232,7.936 92.528,8.016 92.672,8.184C92.824,8.368 92.92,8.688 92.92,9.464C91.488,9.592 90.576,9.76 90.232,10.016C90.056,10.128 89.88,10.432 89.88,10.936C89.88,11.352 89.976,11.632 90.136,11.808C90.32,12.016 90.656,12.168 91.28,12.168C92.056,12.168 92.536,11.968 92.672,11.872C92.712,11.84 92.824,11.688 92.888,11.6L92.928,11.6L93.04,12.088L93.376,12.088ZM92.92,11.464C92.68,11.584 92.112,11.776 91.432,11.776C90.944,11.776 90.656,11.664 90.52,11.52C90.408,11.392 90.336,11.184 90.336,10.896C90.336,10.56 90.416,10.36 90.536,10.256C90.72,10.056 91.88,9.888 92.92,9.824L92.92,11.464Z" style="fill:white;fill-rule:nonzero;"/>
            <path d="M98.92,9.632C98.92,8.712 98.688,8.16 98.368,7.872C98.112,7.648 97.736,7.512 97.112,7.512C96.504,7.512 95.976,7.656 95.848,7.744C95.8,7.768 95.616,7.944 95.552,8.032L95.52,8.032L95.52,5.608L95.056,5.608L95.056,12.088L95.12,12.088L95.352,11.952C95.752,12.048 96.224,12.128 96.776,12.128C97.536,12.128 98,11.96 98.304,11.672C98.688,11.304 98.92,10.584 98.92,9.632ZM98.44,9.728C98.44,10.56 98.24,11.12 97.952,11.392C97.712,11.616 97.336,11.736 96.728,11.736C96.272,11.736 95.832,11.672 95.52,11.624L95.52,8.192C95.912,8.016 96.448,7.928 96.936,7.928C97.472,7.928 97.792,8.032 98,8.216C98.232,8.424 98.44,8.888 98.44,9.728Z" style="fill:white;fill-rule:nonzero;"/>
            <path d="M100.36,5.608L100.36,11.072C100.36,11.824 100.656,12.136 101.304,12.136C101.608,12.136 101.888,12.088 102.08,12.048L102.08,11.68C101.92,11.704 101.704,11.736 101.44,11.736C101.064,11.736 100.824,11.6 100.824,11.024L100.824,5.608L100.36,5.608Z" style="fill:white;fill-rule:nonzero;"/>
            <path d="M102.736,9.88C102.736,11.408 103.272,12.176 104.768,12.176C105.384,12.176 105.96,12.064 106.28,11.984L106.312,11.6C106,11.648 105.472,11.752 104.824,11.752C103.568,11.752 103.216,11.088 103.216,9.864L106.488,9.864L106.488,9.312C106.488,8.16 106.064,7.512 104.784,7.512C103.376,7.512 102.736,8.312 102.736,9.88ZM104.736,7.896C105.704,7.896 106.032,8.352 106.032,9.344L106.032,9.504L103.232,9.504C103.296,8.44 103.704,7.896 104.736,7.896Z" style="fill:white;fill-rule:nonzero;"/>
            <path d="M77.952,14.088L77.456,14.088L76,19.624L75.816,19.624L74.264,14.088L73.496,14.088L71.728,19.624L71.56,19.624L70.256,14.088L69.768,14.088L71.184,20.088L72.024,20.088L73.792,14.552L73.928,14.552L75.472,20.088L76.32,20.088L77.952,14.088Z" style="fill:white;fill-rule:nonzero;"/>
            <rect x="79.28" y="14.088" width="0.472" height="6" style="fill:white;"/>
            <path d="M82.048,14.088L81.584,14.088L81.584,20.088L85.136,20.088L85.272,19.664L82.048,19.664L82.048,14.088Z" style="fill:white;fill-rule:nonzero;"/>
            <path d="M90.496,19.736C89.848,19.736 89.256,19.552 88.952,19.208C88.616,18.824 88.408,18.224 88.408,17.152C88.408,16.072 88.72,15.24 89.072,14.912C89.384,14.624 89.888,14.416 90.664,14.416C91.336,14.416 91.912,14.568 92.232,14.904C92.584,15.272 92.768,16.048 92.768,17.088C92.768,18.144 92.456,18.952 92.096,19.272C91.792,19.544 91.28,19.736 90.496,19.736ZM90.664,13.984C89.784,13.984 89.168,14.232 88.76,14.592C88.288,15.008 87.928,15.944 87.928,17.2C87.928,18.504 88.256,19.16 88.584,19.512C88.96,19.912 89.536,20.176 90.48,20.176C91.424,20.176 92.024,19.952 92.432,19.584C92.888,19.168 93.248,18.296 93.248,17.04C93.248,15.72 92.96,14.968 92.592,14.592C92.24,14.224 91.712,13.984 90.664,13.984Z" style="fill:white;fill-rule:nonzero;"/>
            <path d="M98.44,20.088L98.44,17.152C98.44,16.544 98.312,16.136 98.064,15.904C97.824,15.664 97.48,15.536 96.896,15.536C96.328,15.536 95.752,15.696 95.536,15.816C95.512,15.832 95.328,16.04 95.304,16.072L95.264,16.072L95.136,15.6L94.8,15.6L94.8,20.088L95.264,20.088L95.264,16.248C95.616,16.104 96.12,15.952 96.696,15.952C97.112,15.952 97.464,16.032 97.664,16.224C97.864,16.416 97.976,16.744 97.976,17.312L97.976,20.088L98.44,20.088Z" style="fill:white;fill-rule:nonzero;"/>
            <path d="M100.088,13.608L100.088,19.072C100.088,19.824 100.384,20.136 101.032,20.136C101.336,20.136 101.616,20.088 101.808,20.048L101.808,19.68C101.648,19.704 101.432,19.736 101.168,19.736C100.792,19.736 100.552,19.6 100.552,19.024L100.552,13.608L100.088,13.608Z" style="fill:white;fill-rule:nonzero;"/>
            <path d="M106.392,15.6L105.888,15.6L104.304,19.68L104.096,19.68L102.6,15.6L102.096,15.6L103.776,20.088L104.144,20.088L103.264,22.28L103.752,22.28L106.392,15.6Z" style="fill:white;fill-rule:nonzero;"/>
        </g>
    </g>
</svg>
