<?xml version="1.0" standalone="no"?>
<!DOCTYPE svg PUBLIC "-//W3C//DTD SVG 1.1//EN" "http://www.w3.org/Graphics/SVG/1.1/DTD/svg11.dtd">
<svg width="1181px" height="1181px" version="1.1" xmlns="http://www.w3.org/2000/svg" xmlns:xlink="http://www.w3.org/1999/xlink" xml:space="preserve" style="fill-rule:evenodd;clip-rule:evenodd;stroke-linejoin:round;stroke-miterlimit:1.41421;">
    <g>
        <g id="Layer1">
            <path d="M1033.46,236.22L944.882,147.638L236.22,147.638L147.638,236.22L147.638,944.882L236.22,1033.46L944.882,1033.46L1033.46,944.882L1033.46,236.22ZM812.008,723.425C860.931,723.425 900.591,763.085 900.591,812.008C900.591,860.931 860.931,900.591 812.008,900.591C763.085,900.591 723.425,860.931 723.425,812.008C723.425,763.085 763.085,723.425 812.008,723.425ZM369.094,723.425C418.017,723.425 457.677,763.085 457.677,812.008C457.677,860.931 418.017,900.591 369.094,900.591C320.172,900.591 280.512,860.931 280.512,812.008C280.512,763.085 320.172,723.425 369.094,723.425ZM369.685,501.969C418.608,501.969 458.268,541.628 458.268,590.551C458.268,639.474 418.608,679.134 369.685,679.134C320.762,679.134 281.102,639.474 281.102,590.551C281.102,541.628 320.762,501.969 369.685,501.969ZM812.008,501.969C860.931,501.969 900.591,541.628 900.591,590.551C900.591,639.474 860.931,679.134 812.008,679.134C763.085,679.134 723.425,639.474 723.425,590.551C723.425,541.628 763.085,501.969 812.008,501.969ZM369.094,281.102C418.017,281.102 457.677,320.762 457.677,369.685C457.677,418.608 418.017,458.268 369.094,458.268C320.172,458.268 280.512,418.608 280.512,369.685C280.512,320.762 320.172,281.102 369.094,281.102ZM812.008,280.512C860.931,280.512 900.591,320.172 900.591,369.094C900.591,418.017 860.931,457.677 812.008,457.677C763.085,457.677 723.425,418.017 723.425,369.094C723.425,320.172 763.085,280.512 812.008,280.512Z" style="fill:rgb(170,170,170);"/>
        </g>
    </g>
</svg>
