<?xml version="1.0" encoding="utf-8"?>
<!-- Generator: Adobe Illustrator 16.0.2, SVG Export Plug-In . SVG Version: 6.00 Build 0)  -->
<!DOCTYPE svg PUBLIC "-//W3C//DTD SVG 1.1//EN" "http://www.w3.org/Graphics/SVG/1.1/DTD/svg11.dtd">
<svg version="1.1" id="Layer_1" xmlns="http://www.w3.org/2000/svg" xmlns:xlink="http://www.w3.org/1999/xlink" x="0px" y="0px"
	 width="1181px" height="1181px" viewBox="0 0 1181 1181" enable-background="new 0 0 1181 1181" xml:space="preserve">
<g id="Layer1">
	<path fill="#CCCCCC" d="M1087.26,121.771l-99.338-99.341H193.181l-99.342,99.341v794.741l99.342,99.338h794.741l99.338-99.338
		V121.771z M342.194,668.155c54.865,0,99.343,44.478,99.343,99.343s-44.478,99.343-99.343,99.343
		c-54.865,0-99.342-44.478-99.342-99.343S287.33,668.155,342.194,668.155z M590.551,419.799c54.865,0,99.343,44.477,99.343,99.342
		c0,54.866-44.478,99.343-99.343,99.343s-99.342-44.478-99.342-99.343C491.209,464.276,535.686,419.799,590.551,419.799z
		 M838.908,171.443c54.865,0,99.343,44.477,99.343,99.341c0,54.865-44.478,99.343-99.343,99.343s-99.344-44.478-99.344-99.343
		C739.564,215.92,784.043,171.443,838.908,171.443z"/>
</g>
<g id="Layer21">
	<path fill="#A3042A" d="M427.939,1178.46v-71.854l90.748-90.758l-90.748-90.742v-71.866h71.143l91.469,90.748l91.241-90.748h71.371
		v71.866l-90.746,90.742l90.746,90.758v71.854H681.3l-90.749-90.744l-90.747,90.744H427.939z"/>
</g>
</svg>
