<?xml version="1.0" encoding="utf-8"?>
<!-- Generator: Adobe Illustrator 16.0.2, SVG Export Plug-In . SVG Version: 6.00 Build 0)  -->
<!DOCTYPE svg PUBLIC "-//W3C//DTD SVG 1.1//EN" "http://www.w3.org/Graphics/SVG/1.1/DTD/svg11.dtd">
<svg version="1.1" id="Layer_1" xmlns="http://www.w3.org/2000/svg" xmlns:xlink="http://www.w3.org/1999/xlink" x="0px" y="0px"
	 width="1181px" height="1181px" viewBox="0 0 1181 1181" enable-background="new 0 0 1181 1181" xml:space="preserve">
<path id="Layer1" fill="#999999" d="M1087.258,121.771l-99.337-99.341H193.182L93.84,121.771v794.74l99.342,99.337h794.739
	l99.337-99.337V121.771z M838.907,668.154c54.865,0,99.343,44.478,99.343,99.343s-44.478,99.343-99.343,99.343
	s-99.343-44.478-99.343-99.343S784.042,668.154,838.907,668.154z M342.195,668.154c54.865,0,99.343,44.478,99.343,99.343
	s-44.478,99.343-99.343,99.343c-54.864,0-99.341-44.478-99.341-99.343S287.331,668.154,342.195,668.154z M342.195,172.104
	c54.865,0,99.343,44.478,99.343,99.343c0,54.866-44.478,99.342-99.343,99.342c-54.864,0-99.341-44.477-99.341-99.342
	C242.854,216.582,287.331,172.104,342.195,172.104z M838.907,171.443c54.865,0,99.343,44.477,99.343,99.341
	c0,54.865-44.478,99.343-99.343,99.343s-99.343-44.478-99.343-99.343C739.564,215.92,784.042,171.443,838.907,171.443z"/>
<path fill="#377C21" d="M495.743,1010.888c13.828,38.874,51.066,66.714,94.808,66.714c43.57,0,80.69-27.617,94.646-66.255
	l0.163-0.459c3.976-10.712,6.059-22.188,6.059-34.161c0-11.767-2.022-23.073-5.88-33.663l-0.183-0.499
	c-13.823-38.855-51.063-66.697-94.806-66.697c-43.57,0-80.689,27.628-94.643,66.24l-0.162,0.457
	c-3.979,10.73-6.062,22.205-6.062,34.162c0,11.786,2.018,23.093,5.872,33.665L495.743,1010.888z M789.349,1010.888
	c-16.353,95.305-99.133,167.573-198.798,167.573c-99.466,0-182.121-71.977-198.7-167.01l-0.095-0.563
	c-1.934-10.898-2.938-22.41-2.938-34.161c0-11.564,0.974-22.907,2.849-33.649l0.091-0.513C408.105,847.273,490.89,775,590.551,775
	c99.469,0,182.123,71.99,198.696,167.001l0.101,0.563c1.933,10.901,2.936,22.41,2.936,34.162c0,11.565-0.971,22.906-2.846,33.647
	L789.349,1010.888z"/>
<path fill="#333333" d="M997.213,0H183.891L71.411,112.48v813.321l112.48,112.475h164.392c-1.545-6.088-2.882-12.26-3.974-18.518
	l-0.118-0.698c-1.472-8.296-2.505-16.881-3.086-25.643H202.472c-28.734-28.733-57.469-57.466-86.202-86.199V131.061l86.202-86.203
	h776.157l86.2,86.203V907.22l-86.198,86.198H839.995c-0.565,8.539-1.558,16.911-2.971,25.005l-0.11,0.638
	c-1.115,6.497-2.493,12.901-4.096,19.216h164.393l112.477-112.476V112.48L997.213,0z"/>
</svg>
