<?xml version="1.0" encoding="utf-8"?>
<!-- Generator: Adobe Illustrator 16.0.2, SVG Export Plug-In . SVG Version: 6.00 Build 0)  -->
<!DOCTYPE svg PUBLIC "-//W3C//DTD SVG 1.1//EN" "http://www.w3.org/Graphics/SVG/1.1/DTD/svg11.dtd">
<svg version="1.1" id="Layer_1" xmlns="http://www.w3.org/2000/svg" xmlns:xlink="http://www.w3.org/1999/xlink" x="0px" y="0px"
	 width="1300px" height="250px" viewBox="-20 0 1300 250" enable-background="new -20 0 1300 250" xml:space="preserve">
<g>
	<g id="Layer1">
		<g>
			<path d="M69.873,38.313c-6.013-1.041-12.72-2.197-23.127-2.197c-15.033,0-23.243,3.469-28.909,8.326
				C12.517,48.72,5,59.821,5,82.023c0,18.618,4.625,29.257,9.945,34.461c6.013,5.666,13.414,8.673,28.215,8.673
				c9.945,0,19.659-1.619,26.712-3.47v-5.781c-6.128,1.156-15.496,2.89-25.44,2.89c-12.142,0-19.543-2.428-24.053-6.938
				c-5.435-5.435-8.326-16.305-8.326-30.875c0-16.42,5.319-27.868,10.639-32.146c4.741-3.701,11.68-6.36,24.168-6.36
				c10.985,0,16.999,1.041,23.012,1.735V38.313z"/>
		</g>
		<g>
			<path d="M160.879,124l-32.378-86.728h-12.373L81.436,124h7.054l11.68-29.604h42.323L153.363,124H160.879z M140.412,88.384
				h-38.045l17.808-44.752h3.7L140.412,88.384z"/>
		</g>
		<g>
			<path d="M230.609,102.838c0-4.972-0.81-10.984-3.701-14.454c-5.897-7.517-39.085-13.298-44.173-19.774
				c-1.735-2.197-2.544-5.897-2.544-10.292c0-5.32,1.85-9.367,3.7-11.333c2.544-3.006,8.904-4.856,19.659-4.856
				c10.754,0,16.883,0.81,24.168,1.619V37.85C221.82,36.81,213.957,36,204.475,36c-14.224,0-21.624,2.891-25.325,6.476
				c-3.931,3.816-5.782,10.061-5.782,16.42c0,4.741,0.81,10.87,3.469,14.108c6.592,8.441,37.583,12.721,44.058,19.773
				c1.735,1.967,2.66,5.667,2.66,10.408c0,5.781-1.85,9.598-3.932,11.68c-2.428,2.313-8.788,4.162-20.699,4.162
				c-10.87,0-18.502-1.387-25.324-2.543v6.013c5.781,1.388,14.454,2.774,25.209,2.774c12.373,0,21.046-1.85,25.787-5.896
				C228.181,116.252,230.609,109.777,230.609,102.838z"/>
		</g>
		<g>
			<path d="M313.29,38.313c-6.013-1.041-12.72-2.197-23.128-2.197c-15.033,0-23.243,3.469-28.909,8.326
				c-5.319,4.279-12.836,15.38-12.836,37.582c0,18.618,4.626,29.257,9.945,34.461c6.013,5.666,13.414,8.673,28.215,8.673
				c9.945,0,19.659-1.619,26.713-3.47v-5.781c-6.129,1.156-15.496,2.89-25.441,2.89c-12.141,0-19.542-2.428-24.052-6.938
				c-5.435-5.435-8.326-16.305-8.326-30.875c0-16.42,5.319-27.868,10.639-32.146c4.741-3.701,11.679-6.36,24.168-6.36
				c10.984,0,16.999,1.041,23.012,1.735V38.313z"/>
		</g>
		<g>
			<path d="M404.297,124l-32.379-86.728h-12.373L324.854,124h7.054l11.68-29.604h42.323L396.78,124H404.297z M383.829,88.384
				h-38.045l17.808-44.752h3.701L383.829,88.384z"/>
		</g>
		<g>
			<path d="M421.758,37.272V124h25.557c17.229,0,26.248-3.006,32.03-7.979c6.823-6.014,11.681-18.965,11.681-36.773
				c0-18.271-3.701-29.372-9.251-34.691c-5.204-4.972-14.34-7.285-30.413-7.285H421.758z M450.436,43.517
				c10.755,0,21.162,0.925,25.903,5.897c5.436,5.551,7.747,16.536,7.747,29.95c0,16.188-3.931,27.521-9.597,32.263
				c-4.742,3.816-12.722,6.129-28.101,6.129H428.58V43.517H450.436z"/>
		</g>
		<g>
			<path d="M569.774,43.398V37.28h-55.151l6.118,6.118H569.774z"/>
		</g>
		<g>
			<path d="M569.774,124v-6.118h-55.151l6.118,6.118H569.774z"/>
		</g>
		<g>
			<path d="M569.766,85.47v-6.118h-55.15l6.118,6.118H569.766z"/>
		</g>
	</g>
</g>
<g>
	<g>
		<path fill="#B59718" d="M703.036,99.211l24.695,24.697l-24.695,24.697l-24.696-24.697L703.036,99.211z"/>
	</g>
	<g>
		<path fill="#CE6700" d="M734.006,68.242l24.695,24.696l-24.695,24.697l-24.698-24.697L734.006,68.242z"/>
	</g>
	<g>
		<path fill="#377C21" d="M672.066,130.183l24.695,24.695l-24.695,24.696l-24.696-24.696L672.066,130.183z"/>
	</g>
	<g>
		<path fill="#1E9062" d="M734.006,130.183l24.695,24.695l-24.695,24.696l-24.698-24.696L734.006,130.183z"/>
	</g>
	<g>
		<path fill="#601D62" d="M764.976,99.211l24.697,24.697l-24.697,24.697l-24.698-24.697L764.976,99.211z"/>
	</g>
	<g>
		<path fill="#025EB2" d="M703.036,161.149l24.695,24.699l-24.695,24.695l-24.696-24.695L703.036,161.149z"/>
	</g>
	<g>
		<path fill="#30394C" d="M672.066,68.242l24.695,24.696l-24.695,24.697L647.37,92.938L672.066,68.242z"/>
	</g>
	<g>
		<path fill="#A3042A" d="M703.036,37.272l24.695,24.697l-24.695,24.696L678.34,61.969L703.036,37.272z"/>
	</g>
	<g>
		<path fill="#3605AA" d="M641.096,99.211l24.695,24.697l-24.695,24.697L616.4,123.908L641.096,99.211z"/>
	</g>
</g>
<g>
	<g>
		<path d="M1011.225,171.981h-33.061v38.623h-6.823v-86.729h52.839l-6.129,6.129h-39.887v35.964h39.074L1011.225,171.981z"/>
	</g>
	<g>
		<path d="M942.883,171.981h-33.061v38.623h-6.823v-86.729h52.839l-6.129,6.129h-39.887v35.964h39.074L942.883,171.981z"/>
	</g>
	<g>
		<path d="M1175.33,124.917c-6.02-1.041-12.72-2.197-23.13-2.197c-15.03,0-23.24,3.47-28.91,8.326
			c-5.32,4.279-12.84,15.38-12.84,37.582c0,18.618,4.63,29.257,9.95,34.461c6.01,5.666,13.41,8.673,28.21,8.673
			c9.95,0,19.659-1.619,26.72-3.47v-5.781c-6.13,1.156-15.5,2.89-25.44,2.89c-12.149,0-19.55-2.428-24.06-6.938
			c-5.43-5.435-8.32-16.305-8.32-30.875c0-16.42,5.32-27.868,10.641-32.146c4.739-3.701,11.67-6.36,24.16-6.36
			c10.989,0,17,1.041,23.02,1.735V124.917z"/>
	</g>
	<g>
		<path d="M1039.91,130.003v-6.118h55.15l-6.11,6.118H1039.91z"/>
	</g>
	<g>
		<path d="M1039.91,130.003v-6.118h55.15l-6.11,6.118H1039.91z"/>
	</g>
	<g>
		<path d="M1039.91,210.604v-6.118h55.15l-6.11,6.118H1039.91z"/>
	</g>
	<g>
		<path d="M1039.92,172.074v-6.118h55.15l-6.11,6.118H1039.92z"/>
	</g>
	<g>
		<rect x="829.569" y="123.885" width="55.725" height="6.118"/>
	</g>
	<g>
		<rect x="829.579" y="165.956" width="55.715" height="6.118"/>
	</g>
	<g>
		<rect x="829.569" y="204.486" width="55.725" height="6.118"/>
	</g>
	<g>
		<path d="M1191.08,123.876h63.91l-6.13,6.129h-25.891v80.6h-6.71v-80.6h-31.31L1191.08,123.876z"/>
	</g>
</g>
</svg>
