<?xml version="1.0" standalone="no"?>
<!DOCTYPE svg PUBLIC "-//W3C//DTD SVG 1.1//EN" "http://www.w3.org/Graphics/SVG/1.1/DTD/svg11.dtd">
<svg width="1260px" height="150px" version="1.1" xmlns="http://www.w3.org/2000/svg" xmlns:xlink="http://www.w3.org/1999/xlink" xml:space="preserve" style="fill-rule:evenodd;clip-rule:evenodd;stroke-linejoin:round;stroke-miterlimit:1.41421;">
    <g>
        <g id="Layer1">
            <g>
                <path d="M94.8727,32.3128C88.8595,31.272 82.1525,30.1156 71.7452,30.1156C56.7123,30.1156 48.502,33.5848 42.8358,38.4415C37.5164,42.7201 30,53.8213 30,76.0238C30,94.6414 34.6255,105.28 39.9448,110.484C45.958,116.15 53.3588,119.157 68.1604,119.157C78.1052,119.157 87.8188,117.538 94.8727,115.687L94.8727,109.906C88.7439,111.062 79.3772,112.796 69.4324,112.796C57.2905,112.796 49.8897,110.368 45.3798,105.858C39.9448,100.423 37.0539,89.5533 37.0539,74.983C37.0539,58.5625 42.3732,47.1144 47.6925,42.8358C52.4337,39.1354 59.3719,36.4757 71.8608,36.4757C82.8464,36.4757 88.8595,37.5164 94.8727,38.2103L94.8727,32.3128Z" style="fill:black;"/>
            </g>
            <g>
                <path d="M185.879,118L153.501,31.272L141.128,31.272L106.436,118L113.49,118L125.17,88.397L167.493,88.397L178.363,118L185.879,118ZM165.412,82.3838L127.367,82.3838L145.175,37.6321L148.875,37.6321L165.412,82.3838Z" style="fill:black;"/>
            </g>
            <g>
                <path d="M255.609,96.8385C255.609,91.8661 254.799,85.8529 251.908,82.3838C246.011,74.8674 212.823,69.0855 207.735,62.6098C206,60.4127 205.191,56.7123 205.191,52.3181C205.191,46.9987 207.041,42.9514 208.891,40.9856C211.435,37.979 217.795,36.1288 228.55,36.1288C239.304,36.1288 245.433,36.9383 252.718,37.7477L252.718,31.8502C246.82,30.8095 238.957,30 229.475,30C215.251,30 207.851,32.8909 204.15,36.4757C200.219,40.2917 198.368,46.5362 198.368,52.8962C198.368,57.6374 199.178,63.7662 201.837,67.004C208.429,75.4456 239.42,79.7242 245.895,86.778C247.63,88.7439 248.555,92.4443 248.555,97.1854C248.555,102.967 246.705,106.783 244.623,108.865C242.195,111.178 235.835,113.028 223.924,113.028C213.054,113.028 205.422,111.64 198.6,110.484L198.6,116.497C204.381,117.885 213.054,119.272 223.809,119.272C236.182,119.272 244.855,117.422 249.596,113.375C253.181,110.252 255.609,103.777 255.609,96.8385Z" style="fill:black;"/>
            </g>
            <g>
                <path d="M338.29,32.3128C332.277,31.272 325.57,30.1156 315.162,30.1156C300.129,30.1156 291.919,33.5848 286.253,38.4415C280.934,42.7201 273.417,53.8213 273.417,76.0238C273.417,94.6414 278.043,105.28 283.362,110.484C289.375,116.15 296.776,119.157 311.577,119.157C321.522,119.157 331.236,117.538 338.29,115.687L338.29,109.906C332.161,111.062 322.794,112.796 312.849,112.796C300.708,112.796 293.307,110.368 288.797,105.858C283.362,100.423 280.471,89.5533 280.471,74.983C280.471,58.5625 285.79,47.1144 291.11,42.8358C295.851,39.1354 302.789,36.4757 315.278,36.4757C326.263,36.4757 332.277,37.5164 338.29,38.2103L338.29,32.3128Z" style="fill:black;"/>
            </g>
            <g>
                <path d="M429.297,118L396.918,31.272L384.545,31.272L349.854,118L356.907,118L368.587,88.397L410.91,88.397L421.78,118L429.297,118ZM408.829,82.3838L370.784,82.3838L388.592,37.6321L392.293,37.6321L408.829,82.3838Z" style="fill:black;"/>
            </g>
            <g>
                <path d="M446.758,31.272L446.758,118L472.314,118C489.544,118 498.563,114.994 504.345,110.021C511.168,104.008 516.025,91.0566 516.025,73.2485C516.025,54.9777 512.324,43.8765 506.774,38.5572C501.57,33.5848 492.435,31.272 476.361,31.272L446.758,31.272ZM475.436,37.5164C486.19,37.5164 496.598,38.4415 501.339,43.414C506.774,48.9646 509.086,59.9501 509.086,73.3641C509.086,89.5533 505.155,100.886 499.489,105.627C494.747,109.443 486.768,111.756 471.389,111.756L453.58,111.756L453.58,37.5164L475.436,37.5164Z" style="fill:black;"/>
            </g>
            <g>
                <path d="M986.225,79.3772L953.164,79.3772L953.164,118L946.341,118L946.341,31.272L999.18,31.272L993.051,37.4008L953.164,37.4008L953.164,73.3641L992.238,73.3641L986.225,79.3772Z" style="fill:black;"/>
            </g>
            <g>
                <path d="M917.883,79.3772L884.822,79.3772L884.822,118L877.999,118L877.999,31.272L930.838,31.272L924.709,37.4008L884.822,37.4008L884.822,73.3641L923.897,73.3641L917.883,79.3772Z" style="fill:black;"/>
            </g>
            <g>
                <path d="M1150.33,32.3128C1144.31,31.272 1137.61,30.1156 1127.2,30.1156C1112.17,30.1156 1103.96,33.5848 1098.29,38.4415C1092.97,42.7201 1085.45,53.8213 1085.45,76.0238C1085.45,94.6414 1090.08,105.28 1095.4,110.484C1101.41,116.15 1108.81,119.157 1123.61,119.157C1133.56,119.157 1143.27,117.538 1150.33,115.687L1150.33,109.906C1144.2,111.062 1134.83,112.796 1124.89,112.796C1112.74,112.796 1105.34,110.368 1100.83,105.858C1095.4,100.423 1092.51,89.5533 1092.51,74.983C1092.51,58.5625 1097.83,47.1144 1103.15,42.8358C1107.89,39.1354 1114.82,36.4757 1127.31,36.4757C1138.3,36.4757 1144.31,37.5164 1150.33,38.2103L1150.33,32.3128Z" style="fill:black;"/>
            </g>
            <g>
                <path d="M1014.91,37.3983L1014.91,31.2803L1070.06,31.2803L1063.95,37.3983L1014.91,37.3983Z" style="fill:black;"/>
            </g>
            <g>
                <path d="M1014.91,37.3983L1014.91,31.2803L1070.06,31.2803L1063.95,37.3983L1014.91,37.3983Z" style="fill:black;"/>
            </g>
            <g>
                <path d="M1014.91,118L1014.91,111.882L1070.06,111.882L1063.95,118L1014.91,118Z" style="fill:black;"/>
            </g>
            <g>
                <path d="M1014.92,79.4696L1014.92,73.3516L1070.07,73.3516L1063.96,79.4696L1014.92,79.4696Z" style="fill:black;"/>
            </g>
            <g>
                <g>
                    <path d="M696.036,63.184L708.76,75.9081L696.036,88.6322L683.312,75.9081L696.036,63.184Z" style="fill:rgb(181,151,24);"/>
                </g>
                <g>
                    <path d="M711.992,47.228L724.716,59.9521L711.992,72.6762L699.268,59.9521L711.992,47.228Z" style="fill:rgb(206,103,0);"/>
                </g>
                <g>
                    <path d="M680.08,79.14L692.804,91.8641L680.08,104.588L667.356,91.8641L680.08,79.14Z" style="fill:rgb(55,124,33);"/>
                </g>
                <g>
                    <path d="M711.992,79.14L724.716,91.8641L711.992,104.588L699.268,91.8641L711.992,79.14Z" style="fill:rgb(30,144,98);"/>
                </g>
                <g>
                    <path d="M727.948,63.184L740.673,75.9081L727.948,88.6322L715.224,75.9081L727.948,63.184Z" style="fill:rgb(96,29,98);"/>
                </g>
                <g>
                    <path d="M696.036,95.096L708.76,107.82L696.036,120.544L683.312,107.82L696.036,95.096Z" style="fill:rgb(2,94,178);"/>
                </g>
                <g>
                    <path d="M680.08,47.228L692.804,59.9521L680.08,72.6762L667.356,59.9521L680.08,47.228Z" style="fill:rgb(48,57,76);"/>
                </g>
                <g>
                    <path d="M696.036,31.272L708.76,43.9961L696.036,56.7202L683.312,43.9961L696.036,31.272Z" style="fill:rgb(163,4,42);"/>
                </g>
                <g>
                    <path d="M664.124,63.184L676.848,75.9081L664.124,88.6322L651.4,75.9081L664.124,63.184Z" style="fill:rgb(54,5,170);"/>
                </g>
            </g>
            <g>
                <path d="M594.774,37.3983L594.774,31.2803L539.623,31.2803L545.741,37.3983L594.774,37.3983Z" style="fill:black;"/>
            </g>
            <g>
                <path d="M594.774,118L594.774,111.882L539.623,111.882L545.741,118L594.774,118Z" style="fill:black;"/>
            </g>
            <g>
                <path d="M594.766,79.4696L594.766,73.3516L539.615,73.3516L545.733,79.4696L594.766,79.4696Z" style="fill:black;"/>
            </g>
            <g>
                <rect x="804.569" y="31.2803" width="55.7246" height="6.11798" style="fill:black;"/>
            </g>
            <g>
                <rect x="804.579" y="73.3516" width="55.7151" height="6.11798" style="fill:black;"/>
            </g>
            <g>
                <rect x="804.569" y="111.882" width="55.7246" height="6.11798" style="fill:black;"/>
            </g>
            <g>
                <path d="M1166.08,31.272L1229.99,31.272L1223.86,37.4008L1197.97,37.4008L1197.97,118L1191.26,118L1191.26,37.4008L1159.95,37.4008L1166.08,31.272Z" style="fill:black;"/>
            </g>
        </g>
    </g>
</svg>
