<?xml version="1.0" standalone="no"?>
<!DOCTYPE svg PUBLIC "-//W3C//DTD SVG 1.1//EN" "http://www.w3.org/Graphics/SVG/1.1/DTD/svg11.dtd">
<svg width="1181px" height="1181px" version="1.1" xmlns="http://www.w3.org/2000/svg" xmlns:xlink="http://www.w3.org/1999/xlink" xml:space="preserve" style="fill-rule:evenodd;clip-rule:evenodd;stroke-linejoin:round;stroke-miterlimit:1.41421;">
    <g>
        <g id="tech">
            <path d="M401.573,835.775L590.551,944.882L897.406,767.719L1076.41,871.065L590.551,1151.57L222.571,939.121L401.573,835.775ZM283.692,767.717L104.69,871.063L104.69,310.039L472.67,97.586L472.67,304.279L283.692,413.386L283.692,767.717ZM1076.41,734.951L897.411,631.604L897.411,413.386L590.551,236.22L590.551,29.5276L1076.41,310.039L1076.41,734.951Z" style="fill:white;"/>
            <path d="M769.58,693.918L1003.39,828.909L944.45,930.996L678.693,777.562C716.828,759.556 748.569,730.23 769.58,693.918ZM411.52,693.915L195.972,818.361L137.032,716.274L384.563,573.362C384.096,579.03 383.858,584.763 383.858,590.551C383.858,628.207 393.928,663.51 411.52,693.915ZM708.432,420.747C674.998,397.492 634.367,383.859 590.551,383.858L590.551,104.736L708.432,104.736L708.432,420.747Z" style="fill:white;"/>
            <path d="M590.551,383.858C704.705,383.858 797.244,476.398 797.244,590.551C797.244,704.705 704.705,797.244 590.551,797.244C476.398,797.244 383.858,704.705 383.858,590.551C383.858,476.398 476.398,383.858 590.551,383.858ZM590.551,472.441C655.782,472.441 708.661,525.321 708.661,590.551C708.661,655.782 655.782,708.661 590.551,708.661C525.321,708.661 472.441,655.782 472.441,590.551C472.441,525.321 525.321,472.441 590.551,472.441Z" style="fill:white;"/>
        </g>
    </g>
</svg>
