<svg xmlns="http://www.w3.org/2000/svg" width="612" height="190">
  <g fill="#4E90C9">
    <path d="M259.182 38.491l-21.377-21.377-121.111-.002 21.377 21.377h.019l30.995 30.995 12.942-6.48-24.514-24.515 101.669.002zM404.788 38.491l-21.377-21.377-121.111-.003 21.379 21.377h.021l30.712 30.714 12.946-6.48-24.234-24.233 101.664.002zM548.249 38.493l-21.386-21.381H405.741l21.381 21.381h.026l26.619 26.624 12.945-6.479-20.145-20.145h101.682zM204.88 102.635l22.437-22.436-12.944-6.478-28.915 28.914h-.054l-21.377 21.377 121.111-.006 21.375-21.375-101.633.004zM351.988 102.635l24.256-24.251-12.946-6.48-30.729 30.732h-.006l-21.382 21.377 121.111-.006 21.377-21.375-101.681.003z"/>
    <path d="M132.586 58.346h366.46v24.435h-366.46z"/>
  </g>
  <g fill="#025EB2">
    <path d="M132.586 58.346h355.54v24.435h-355.54z"/>
    <path d="M6.114 94.999l85.516 85.519 85.516-85.516L91.627 9.483 6.114 94.999zM518.763 92.034l-51.947 51.949-21.353-10.688 51.951-51.949 21.349 10.688z"/>
    <path d="M519.218 180.518l48.871-48.869H256.557l-48.867 48.869h311.528zM6.114 94.999l85.516 85.519 85.516-85.516L91.627 9.483 6.114 94.999zM287.045 46.129H132.586l48.87 48.867H335.91l-48.865-48.867zM430.473 46.129h-139.13l48.867 48.867h139.129l-48.866-48.867zM555.87 46.129H434.772l48.865 48.867h121.101L555.87 46.129z"/>
  </g>
  <g fill="#FFF">
    <path d="M66.212 74.823c-2.689-.311-5.379-.775-10.292-.775-5.585 0-8.688 1.188-10.809 2.844-2.379 1.914-4.758 7.037-4.758 14.381 0 6.515 1.293 11.378 3.726 13.808 2.017 2.02 5.327 3.104 10.757 3.104 4.448 0 8.637-.777 11.378-1.295v2.582c-3.155.832-7.499 1.557-11.947 1.557-6.62 0-9.93-1.346-12.619-3.883-2.379-2.326-4.448-7.084-4.448-15.411 0-9.931 3.361-14.897 5.741-16.812 2.534-2.172 6.206-3.724 12.93-3.724 4.654 0 7.654.517 10.343.981l-.002 2.643zM102.312 110.512V92.253H78.416v18.258h-3.051V71.719h3.051v17.739h23.896V71.719h3v38.791l-3 .002zM145.288 110.512l-4.862-13.242h-18.931l-5.224 13.242h-3.155l15.515-38.791h5.534l14.483 38.791h-3.36zm-13.191-35.949h-1.655l-7.965 20.018h17.015l-7.395-20.018zM192.813 79.613v-1.539h6.671V58.211l-6.671 1.207v-1.539l8.391-1.479v21.674h6.038v1.539h-14.429zM241.602 79.613h-15.545v-1.812c.271-3.32 2.082-5.465 7.396-8.059 3.381-1.689 4.859-2.564 5.646-3.592.664-.936.845-2.143.845-3.321 0-3.11-1.146-4.528-6.066-4.528-2.687 0-5.583.664-6.913.967v-1.571c1.78-.481 4.558-1.028 7.272-1.028 5.765 0 7.577 1.873 7.577 5.948 0 2.054-.453 3.472-1.146 4.347-1.177 1.539-3.502 2.717-6.46 4.165-5.523 2.688-6.398 4.589-6.46 6.853h14.309l-.455 1.631zM273.491 66.785l-2.446 1.146v.121l2.564.905c1.028.847 1.84 2.778 1.84 4.739 0 4.346-2.474 6.219-8.603 6.219-2.534 0-4.769-.332-6.099-.633v-1.539c1.39.241 3.833.604 6.099.604 5.614 0 6.792-1.84 6.792-4.647 0-4.015-2.688-4.769-6.099-4.769h-4.316V67.36h3.924c2.958 0 6.066-.755 6.066-4.679 0-2.897-1.086-4.406-5.674-4.406-2.416 0-4.739.481-6.31.813v-1.511c1.631-.422 4.135-.905 6.611-.905 5.433 0 7.154 1.903 7.154 5.767.005 2.11-.93 3.801-1.503 4.346zM355.344 79.613h-1.662v-6.429h-11.623v-1.752l9.994-14.459h3.289v14.701h5.072l-.455 1.512h-4.62l.005 6.427zm-1.659-7.939V58.453h-.815l-8.844 12.829v.393h9.659zM383.756 79.914c-2.079 0-4.281-.301-5.854-.543V77.77c1.446.211 3.683.513 5.945.513 5.226 0 7.036-1.479 7.036-5.222 0-3.984-1.267-5.01-5.917-5.01-2.143 0-5.041.452-6.368.633V56.973h13.403v1.539h-11.83v8.512c1.269-.211 3.017-.543 5.342-.543 5.254 0 7.187 1.39 7.187 6.337-.008 4.772-2.21 7.096-8.944 7.096zM413.415 68.565h.148l.963-.996c1.302-.483 3.651-1.146 6.4-1.146 5.343 0 7.124 2.232 7.124 6.428 0 4.377-2.267 7.063-8.089 7.063-6.338 0-8.304-4.014-8.304-10.687 0-4.195 1.179-7.215 2.959-9.114 2.084-2.175 5.404-3.532 11.229-3.593l.604 1.602c-5.675.03-8.756 1.207-10.563 3.141-1.417 1.505-2.353 4.07-2.471 7.302zm6.939-.573c-2.686 0-5.159.664-6.939 1.356.059 6.25 2.021 8.996 6.638 8.996 4.318 0 6.249-1.689 6.249-5.343-.001-3.5-1.421-5.009-5.948-5.009z"/>
    <g>
      <path d="M490.694 58.997v-.422h-13.608l.483-1.602h15.061v1.994l-10.807 20.646h-1.961l10.832-20.616zM513.621 69.108l2.049-1.119v-.15l-1.81-.936c-.784-.784-1.541-1.903-1.541-3.984 0-3.652 2.293-6.279 7.604-6.279 5.284 0 7.245 2.354 7.245 5.733 0 2.144-.907 3.44-1.752 4.347l-1.868 1.119v.15l2.291.847c1.211.966 1.902 2.507 1.902 4.558 0 3.744-2.325 6.521-8.271 6.521-5.609 0-7.938-2.234-7.938-6.066.005-1.934.789-3.536 2.089-4.741zm-.302 4.527c0 3.019 1.752 4.738 6.338 4.738 4.678 0 6.31-2.201 6.31-4.799 0-4.137-2.627-4.467-9.357-5.193-1.664 1.088-3.291 2.569-3.291 5.254zm.783-10.867c0 3.713 2.357 4.226 8.271 4.769 1.903-1.177 2.989-2.718 2.989-4.95 0-2.898-1.629-4.406-5.611-4.406-4.169.001-5.649 2.053-5.649 4.587zM560.417 68.051h-.148l-.938.996c-1.237.514-3.562 1.119-6.156 1.119-5.401 0-7.306-2.174-7.306-6.34 0-4.77 2.991-7.154 8.058-7.154 5.917 0 8.24 3.291 8.24 10.475 0 4.316-1.175 7.486-2.959 9.356-1.991 2.175-5.399 3.472-11.259 3.593l-.576-1.662c5.586-.029 8.845-1.146 10.596-3.049 1.362-1.537 2.358-4.074 2.448-7.334zm-6.85.543c2.717 0 5.163-.633 6.853-1.267-.059-6.399-1.9-9.085-6.605-9.085-4.228 0-6.191 2.021-6.191 5.465-.003 3.378 1.504 4.887 5.943 4.887z"/>
    </g>
    <g>
      <path d="M343.959 117.244c-.618.527-1.752.771-3.368.771-1.398 0-2.534-.184-3.288-.361v-.785c.892.15 1.89.332 3.308.332 1.554 0 2.381-.242 2.7-.543.271-.273.511-.771.511-1.527 0-.617-.119-1.1-.347-1.354-.848-.924-4.893-1.484-5.75-2.582-.349-.424-.452-1.223-.452-1.842 0-.828.241-1.645.756-2.141.48-.467 1.448-.848 3.306-.848 1.237 0 2.265.105 3.034.238v.768c-.95-.105-1.752-.211-3.157-.211-1.4 0-2.232.242-2.563.637-.241.256-.482.779-.482 1.48 0 .574.104 1.053.332 1.342.664.848 4.993 1.6 5.763 2.58.379.453.484 1.236.484 1.887-.003.907-.319 1.751-.787 2.159zM348.193 121.967h-.875v-12.588h.668l.214.758h.058c.123-.166.438-.482.528-.527.257-.164 1.237-.408 2.265-.408 1.162 0 1.873.201 2.416.682.586.496 1.068 1.541 1.068 3.457 0 1.797-.468 3.066-1.174 3.771-.563.547-1.403.875-2.689.875-1.011 0-1.795-.137-2.472-.287v4.271h-.007v-.004zm4.59-11.485c-.422-.348-1.09-.514-2.056-.514-.87 0-1.777.15-2.536.498V117c.588.094 1.403.227 2.325.227 1.056 0 1.735-.184 2.2-.648.515-.486.905-1.543.905-3.172.007-1.594-.354-2.487-.838-2.925zM360.73 109.215c2.416 0 3.216 1.219 3.216 3.396v1.037h-6.174c0 2.309.665 3.561 3.032 3.561 1.222 0 2.219-.197 2.81-.291l-.061.73c-.603.145-1.689.359-2.853.359-2.825 0-3.832-1.449-3.832-4.336-.001-2.95 1.208-4.456 3.862-4.456zm-2.927 3.758h5.281v-.305c0-1.873-.618-2.736-2.443-2.736-1.947.006-2.716 1.035-2.838 3.041zM367.97 110.617c-.616.578-.938 1.648-.938 3.1 0 1.391.288 2.324.875 2.867.497.469 1.234.648 2.157.648 1.07 0 1.931-.164 2.521-.256v.68c-.588.164-1.465.377-2.654.377-1.188 0-2.1-.271-2.686-.83-.784-.727-1.129-1.904-1.129-3.381 0-1.689.405-2.99 1.211-3.727.646-.637 1.599-.939 2.866-.939 1.011 0 1.84.137 2.396.24v.756c-.522-.074-1.311-.197-2.309-.197-1.024-.002-1.828.195-2.31.662zM375.919 106.951c-.091.074-.254.104-.423.104-.211 0-.345-.029-.418-.123-.075-.074-.125-.223-.125-.42 0-.227.061-.391.182-.455.045-.059.198-.105.396-.105.183 0 .314.033.394.105.11.094.136.244.136.439-.006.197-.035.379-.142.455zm-.873 10.895v-8.469h.873v8.469h-.873zM384.506 117.846l-.215-.922h-.076c-.118.168-.329.455-.404.516-.257.18-1.162.561-2.627.561-1.177 0-1.813-.287-2.155-.68-.308-.33-.487-.859-.487-1.646 0-.947.332-1.523.668-1.736.648-.484 2.371-.801 5.07-1.039 0-1.465-.183-2.068-.469-2.416-.271-.314-.831-.469-1.778-.469-1.028 0-2.341.24-2.916.346v-.707c.636-.166 1.888-.422 3.097-.422 1.162 0 1.903.195 2.311.664.377.406.616 1.043.616 2.705v5.254l-.635-.009zm-.226-4.27c-1.961.125-4.153.439-4.5.816-.228.197-.379.574-.379 1.211 0 .543.136.938.349 1.178.257.27.8.484 1.72.484 1.287 0 2.355-.361 2.813-.59l-.003-3.099zM389.148 105.623v10.217c0 1.086.448 1.344 1.159 1.344.495 0 .905-.061 1.209-.105v.691c-.36.074-.89.166-1.466.166-1.222 0-1.777-.584-1.777-2.01v-10.303h.875zM397.673 110.119h-3.006v5.646c0 1.146.53 1.389 1.482 1.389.691 0 1.323-.105 1.659-.15l-.073.744c-.45.09-1.161.195-1.813.195-1.508 0-2.127-.543-2.127-2.008v-5.813h-1.752l.121-.742h1.631v-1.762l.873-.225v1.992h3.172l-.167.734zM401.955 121.982h-.921l1.659-4.137H402l-3.17-8.469h.95l2.825 7.697H403l2.988-7.697h.946l-4.979 12.606zM419.698 117.846h-7.772v-.902c.14-1.662 1.043-2.732 3.702-4.029 1.688-.85 2.429-1.287 2.823-1.795.329-.471.422-1.074.422-1.662 0-1.555-.577-2.266-3.034-2.266-1.343 0-2.791.332-3.456.484v-.781c.89-.24 2.277-.512 3.637-.512 2.886 0 3.789.939 3.789 2.975 0 1.027-.225 1.734-.571 2.172-.589.768-1.752 1.359-3.232 2.084-2.761 1.344-3.198 2.293-3.229 3.428h7.152l-.231.804z"/>
    </g>
    <g>
      <path d="M198.351 117.244c-.619.527-1.752.771-3.366.771-1.403 0-2.536-.184-3.291-.361v-.785c.89.15 1.886.332 3.306.332 1.554 0 2.383-.242 2.702-.543.271-.273.513-.771.513-1.527 0-.617-.121-1.1-.347-1.354-.845-.924-4.89-1.484-5.749-2.582-.347-.424-.453-1.223-.453-1.842 0-.828.241-1.645.754-2.141.483-.467 1.448-.848 3.306-.848 1.237 0 2.263.105 3.034.238v.768c-.95-.105-1.752-.211-3.155-.211s-2.234.242-2.566.637c-.241.256-.483.779-.483 1.48 0 .574.106 1.053.332 1.342.664.848 4.995 1.6 5.765 2.58.377.453.482 1.236.482 1.887.002.907-.315 1.751-.784 2.159zM202.587 121.967h-.875v-12.588h.664l.211.758h.061c.121-.166.438-.482.528-.527.256-.164 1.239-.408 2.265-.408 1.161 0 1.873.201 2.416.682.588.496 1.071 1.541 1.071 3.457 0 1.797-.467 3.066-1.176 3.771-.558.547-1.403.875-2.688.875-1.011 0-1.795-.137-2.474-.287l-.003 4.267zm4.59-11.485c-.422-.348-1.086-.514-2.054-.514-.875 0-1.782.15-2.537.498V117c.588.094 1.403.227 2.325.227 1.056 0 1.737-.184 2.203-.648.513-.486.905-1.543.905-3.172.003-1.594-.359-2.487-.842-2.925zM215.125 109.215c2.416 0 3.215 1.219 3.215 3.396v1.037h-6.174c0 2.309.666 3.561 3.034 3.561 1.222 0 2.218-.197 2.806-.291l-.061.73c-.604.145-1.689.359-2.853.359-2.823 0-3.834-1.449-3.834-4.336.003-2.95 1.209-4.456 3.867-4.456zm-2.929 3.758h5.282v-.305c0-1.873-.618-2.736-2.443-2.736-1.949.006-2.719 1.035-2.839 3.041zM222.363 110.617c-.618.578-.935 1.648-.935 3.1 0 1.391.287 2.324.875 2.867.498.469 1.237.648 2.157.648 1.073 0 1.931-.164 2.521-.256v.68c-.588.164-1.465.377-2.657.377-1.191 0-2.099-.271-2.687-.83-.785-.727-1.131-1.904-1.131-3.381 0-1.689.407-2.99 1.209-3.727.648-.637 1.599-.939 2.868-.939 1.011 0 1.84.137 2.4.24v.756c-.528-.074-1.312-.197-2.31-.197-1.026-.002-1.827.195-2.31.662zM230.313 106.951c-.091.074-.256.104-.422.104-.211 0-.347-.029-.422-.123-.076-.074-.121-.223-.121-.42 0-.227.06-.391.181-.455.045-.059.196-.105.393-.105.181 0 .316.033.392.105.105.094.136.244.136.439-.002.197-.032.379-.137.455zm-.875 10.895v-8.469h.875v8.469h-.875zM238.897 117.846l-.211-.922h-.076c-.121.168-.332.455-.407.516-.256.18-1.164.561-2.627.561-1.176 0-1.81-.287-2.157-.68-.302-.33-.483-.859-.483-1.646 0-.947.332-1.523.664-1.736.649-.484 2.371-.801 5.071-1.039 0-1.465-.181-2.068-.468-2.416-.271-.314-.83-.469-1.782-.469-1.025 0-2.338.24-2.913.346v-.707c.633-.166 1.885-.422 3.094-.422 1.164 0 1.903.195 2.31.664.377.406.619 1.043.619 2.705v5.254l-.634-.009zm-.226-4.27c-1.961.125-4.15.439-4.498.816-.226.197-.377.574-.377 1.211 0 .543.136.938.347 1.178.256.27.799.484 1.719.484 1.285 0 2.355-.361 2.808-.59l.001-3.099zM243.542 105.623v10.217c0 1.086.453 1.344 1.164 1.344.498 0 .905-.061 1.207-.105v.691c-.362.074-.89.166-1.463.166-1.222 0-1.782-.584-1.782-2.01v-10.303h.874zM252.066 110.119h-3.004v5.646c0 1.146.53 1.389 1.48 1.389.694 0 1.327-.105 1.661-.15l-.077.738c-.453.092-1.162.197-1.811.197-1.508 0-2.126-.543-2.126-2.014v-5.807h-1.752l.121-.742h1.631v-1.762l.875-.227v1.99h3.17l-.168.742zM256.348 121.982h-.92l1.661-4.137h-.694l-3.17-8.469h.951l2.823 7.697h.392l2.989-7.697h.95l-4.982 12.606zM266.877 117.846v-.768h3.335v-9.928l-3.335.6v-.771l4.195-.74v10.838h3.017v.768l-7.212.001z"/>
    </g>
    <g>
      <path d="M301.815 32.329l-1.418-3.863h-5.523l-1.525 3.863h-.92l4.527-11.32h1.616l4.226 11.32h-.983zm-3.849-10.491h-.482l-2.325 5.84h4.965l-2.158-5.84zM311.165 32.329l-.224-.904h-.095c-.028.06-.393.527-.418.543-.425.211-1.418.467-2.477.467-1.22 0-1.854-.256-2.323-.739-.438-.468-.694-1.177-.694-2.341v-5.492h.875v5.164c0 1.146.211 1.734.559 2.099.361.377.993.528 1.917.528.979 0 1.964-.256 2.643-.559v-7.231h.875v8.467l-.638-.002zM317.333 28.451l-2.446 3.879h-.997l2.765-4.271-2.582-4.196h.998l2.277 3.789h.692l2.476-3.789h.98l-2.775 4.196 2.687 4.271h-1.013l-2.385-3.879h-.677zM324.227 32.284c-.073.091-.271.121-.453.121-.226 0-.381-.045-.47-.137-.093-.09-.122-.241-.122-.467 0-.228.094-.408.183-.483.093-.046.227-.091.438-.091.183 0 .362.031.438.105.104.076.148.256.148.469.004.196-.042.377-.162.483zM338.26 32.329l-6.509-10.475h-.273v10.475h-.827v-11.32h1.568l6.443 10.385h.291V21.008h.83v11.32h-1.523zM349.435 31.5c-.588.604-1.446 1.011-2.939 1.011-1.402 0-2.293-.392-2.854-1.025-.483-.559-.923-1.557-.923-3.186 0-1.644.438-2.972 1.211-3.697.604-.573 1.541-.965 2.884-.965 1.286 0 2.174.361 2.702.89.618.649.995 1.629.995 3.381-.005 1.658-.428 2.912-1.076 3.591zm-.724-.453c.525-.544.905-1.48.905-2.99 0-1.736-.332-2.461-.782-2.929-.423-.438-1.073-.709-2.127-.709-1.041 0-1.737.332-2.13.694-.511.468-.98 1.539-.98 3.08 0 1.267.289 2.234.712 2.717.404.468 1.058.846 2.279.846.932 0 1.685-.271 2.123-.709zM359.149 20.029h.892v12.3h-.679l-.213-.799h-.048c-.146.166-.435.498-.523.559-.257.165-1.03.422-2.191.422-1.189 0-1.959-.242-2.487-.68-.588-.498-1.071-1.556-1.071-3.486 0-1.707.421-3.05 1.164-3.744.6-.588 1.463-.89 2.745-.89 1.013 0 1.705.136 2.412.317v-3.999h-.001zm-4.559 11.169c.396.347 1.148.543 2.036.543.849 0 1.767-.15 2.521-.514v-6.535c-.573-.075-1.355-.227-2.291-.227-1.058 0-1.753.211-2.234.664-.511.483-.889 1.526-.889 3.155-.002 1.662.391 2.507.857 2.914zM366.659 23.697c2.413 0 3.213 1.222 3.213 3.396v1.041H363.7c0 2.311.668 3.563 3.034 3.563 1.222 0 2.216-.196 2.806-.287l-.058.724c-.604.151-1.688.362-2.854.362-2.822 0-3.831-1.448-3.831-4.332-.002-2.959 1.205-4.467 3.862-4.467zm-2.927 3.758h5.28v-.302c0-1.873-.616-2.732-2.444-2.732-1.948-.001-2.714 1.026-2.836 3.034z"/>
    </g>
    <g>
      <path d="M447.417 32.329l-1.418-3.863h-5.522l-1.524 3.863h-.92l4.528-11.32h1.615l4.229 11.32h-.988zm-3.849-10.491h-.484l-2.323 5.84h4.967l-2.16-5.84zM456.768 32.329l-.225-.904h-.092c-.03.06-.396.527-.419.543-.424.211-1.418.467-2.476.467-1.22 0-1.854-.256-2.321-.739-.438-.468-.693-1.177-.693-2.341v-5.492h.875v5.164c0 1.146.211 1.734.556 2.099.366.377.998.528 1.92.528.98 0 1.961-.256 2.645-.559v-7.231h.875v8.467l-.645-.002zM462.935 28.451l-2.443 3.879h-.996l2.763-4.271-2.581-4.196h.995l2.282 3.789h.689l2.479-3.789h.979l-2.776 4.196 2.686 4.271h-1.011l-2.384-3.879h-.682zM469.828 32.284c-.075.091-.273.121-.454.121-.225 0-.377-.045-.468-.137-.091-.09-.123-.241-.123-.467 0-.228.093-.408.182-.483.092-.046.226-.091.438-.091.181 0 .359.031.437.105.106.076.149.256.149.469.005.196-.038.377-.161.483zM483.861 32.329l-6.51-10.475h-.271v10.475h-.832v-11.32h1.571l6.443 10.385h.289V21.008h.829v11.32h-1.519v.001zM495.037 31.5c-.586.604-1.45 1.011-2.941 1.011-1.401 0-2.291-.392-2.852-1.025-.484-.559-.922-1.557-.922-3.186 0-1.644.438-2.972 1.209-3.697.604-.573 1.541-.965 2.883-.965 1.284 0 2.175.361 2.702.89.619.649.998 1.629.998 3.381-.004 1.658-.428 2.912-1.077 3.591zm-.724-.453c.528-.544.905-1.48.905-2.99 0-1.736-.332-2.461-.782-2.929-.422-.438-1.071-.709-2.127-.709-1.038 0-1.734.332-2.129.694-.511.468-.979 1.539-.979 3.08 0 1.267.287 2.234.709 2.717.405.468 1.056.846 2.28.846.929 0 1.685-.271 2.123-.709zM504.749 20.029h.893v12.3h-.677l-.216-.799h-.045c-.146.166-.436.498-.526.559-.256.165-1.027.422-2.189.422-1.191 0-1.959-.242-2.488-.68-.587-.498-1.069-1.556-1.069-3.486 0-1.707.42-3.05 1.161-3.744.604-.588 1.466-.89 2.746-.89 1.013 0 1.704.136 2.411.317v-3.999h-.001zm-4.554 11.169c.393.347 1.145.543 2.035.543.845 0 1.765-.15 2.519-.514v-6.535c-.573-.075-1.355-.227-2.293-.227-1.056 0-1.752.211-2.23.664-.511.483-.892 1.526-.892 3.155-.002 1.662.39 2.507.861 2.914zM512.262 23.697c2.415 0 3.215 1.222 3.215 3.396v1.041h-6.172c0 2.311.666 3.563 3.032 3.563 1.22 0 2.217-.196 2.808-.287l-.061.724c-.599.151-1.685.362-2.851.362-2.823 0-3.829-1.448-3.829-4.332-.007-2.959 1.2-4.467 3.858-4.467zm-2.929 3.758h5.281v-.302c0-1.873-.618-2.732-2.445-2.732-1.944-.001-2.714 1.026-2.836 3.034z"/>
    </g>
    <g>
      <path d="M156.208 32.329l-1.418-3.863h-5.523l-1.525 3.863h-.92l4.527-11.32h1.616l4.226 11.32h-.983zm-3.848-10.491h-.482l-2.325 5.84h4.965l-2.158-5.84zM165.559 32.329l-.227-.904h-.09c-.03.06-.392.527-.422.543-.422.211-1.418.467-2.476.467-1.222 0-1.855-.256-2.323-.739-.437-.468-.694-1.177-.694-2.341v-5.492h.875v5.164c0 1.146.211 1.734.558 2.099.362.377.996.528 1.918.528.98 0 1.963-.256 2.642-.559v-7.231h.875v8.467l-.636-.002zM171.727 28.451l-2.446 3.879h-.995l2.762-4.271-2.582-4.196h.996l2.278 3.789h.694l2.476-3.789h.98l-2.778 4.196 2.688 4.271h-1.011l-2.383-3.879h-.679zM178.62 32.284c-.076.091-.271.121-.453.121-.226 0-.377-.045-.468-.137-.09-.09-.121-.241-.121-.467 0-.228.09-.408.181-.483.09-.046.226-.091.438-.091.181 0 .362.031.438.105.105.076.151.256.151.469 0 .196-.045.377-.166.483zM192.651 32.329l-6.506-10.475h-.271v10.475h-.83v-11.32h1.569l6.445 10.385h.287V21.008h.83v11.32h-1.524zM203.828 31.5c-.588.604-1.448 1.011-2.943 1.011-1.403 0-2.295-.392-2.853-1.025-.483-.559-.92-1.557-.92-3.186 0-1.644.438-2.972 1.207-3.697.603-.573 1.539-.965 2.883-.965 1.282 0 2.172.361 2.702.89.619.649.996 1.629.996 3.381-.001 1.658-.423 2.912-1.072 3.591zm-.726-.453c.528-.544.905-1.48.905-2.99 0-1.736-.332-2.461-.785-2.929-.422-.438-1.071-.709-2.127-.709-1.041 0-1.737.332-2.129.694-.513.468-.98 1.539-.98 3.08 0 1.267.287 2.234.709 2.717.407.468 1.056.846 2.28.846.936 0 1.69-.271 2.127-.709zM213.543 20.029h.892v12.3h-.679l-.211-.799h-.045c-.151.166-.438.498-.528.559-.256.165-1.026.422-2.188.422-1.193 0-1.963-.242-2.491-.68-.588-.498-1.073-1.556-1.073-3.486 0-1.707.422-3.05 1.164-3.744.604-.588 1.463-.89 2.748-.89 1.011 0 1.705.136 2.414.317l-.003-3.999zm-4.558 11.169c.393.347 1.146.543 2.037.543.845 0 1.765-.15 2.519-.514v-6.535c-.573-.075-1.357-.227-2.293-.227-1.056 0-1.752.211-2.234.664-.513.483-.89 1.526-.89 3.155.001 1.662.394 2.507.861 2.914zM221.053 23.697c2.416 0 3.215 1.222 3.215 3.396v1.041h-6.174c0 2.311.666 3.563 3.034 3.563 1.222 0 2.218-.196 2.806-.287l-.06.724c-.604.151-1.689.362-2.853.362-2.823 0-3.834-1.448-3.834-4.332.002-2.959 1.209-4.467 3.866-4.467zm-2.929 3.758h5.282v-.302c0-1.873-.618-2.732-2.444-2.732-1.948-.001-2.717 1.026-2.838 3.034z"/>
    </g>
  </g>
  <g fill="#FFF">
    <path d="M334.396 166.219V143.72h1.77v22.499h-1.77zM344.416 141.92v20.309c0 2.16.9 2.67 2.311 2.67.99 0 1.8-.119 2.4-.21v1.38c-.721.15-1.771.33-2.91.33-2.43 0-3.54-1.17-3.54-3.989v-20.49h1.739zM354.376 141.92v20.309c0 2.16.9 2.67 2.31 2.67.99 0 1.801-.119 2.4-.21v1.38c-.72.15-1.77.33-2.91.33-2.43 0-3.539-1.17-3.539-3.989v-20.49h1.739zM375.016 166.219l-.45-1.8h-.18c-.061.12-.78 1.05-.841 1.08-.84.42-2.819.93-4.92.93-2.43 0-3.689-.51-4.619-1.47-.87-.93-1.38-2.34-1.38-4.65V149.39h1.739v10.26c0 2.279.42 3.449 1.11 4.169.72.75 1.979 1.051 3.81 1.051 1.95 0 3.9-.511 5.25-1.11v-14.37h1.74v16.829h-1.259zM386.296 166.429c-1.681 0-3.721-.24-4.92-.54v-1.47c1.229.24 3.09.51 4.92.51 3.779 0 4.739-1.08 4.739-3.21 0-.63-.149-1.26-.51-1.74-.54-.6-1.68-.989-3.72-1.47-2.37-.569-3.78-1.02-4.62-2.069-.54-.63-.75-1.62-.75-2.58 0-3.09 1.771-4.92 6.24-4.92 1.859 0 3.479.24 4.499.45v1.439c-1.289-.21-2.699-.39-4.47-.39-3.539 0-4.56 1.2-4.56 3.33 0 .63.12 1.26.51 1.71.511.6 1.561 1.02 3.84 1.529 2.46.57 3.75 1.08 4.38 1.8.601.69.87 1.65.87 2.79.001 2.97-1.348 4.831-6.448 4.831zM399.585 144.56c-.18.15-.51.21-.84.21-.42 0-.69-.06-.84-.24-.15-.149-.24-.449-.24-.84 0-.45.12-.779.359-.899.091-.12.391-.21.78-.21.36 0 .63.06.78.21.21.18.27.479.27.87 0 .389-.059.748-.269.899zm-1.74 21.659V149.39h1.74v16.829h-1.74zM418.425 164.568c-1.17 1.2-2.88 2.011-5.85 2.011-2.79 0-4.561-.78-5.67-2.04-.96-1.11-1.83-3.09-1.83-6.33 0-3.27.87-5.91 2.4-7.35 1.199-1.14 3.06-1.92 5.729-1.92 2.55 0 4.319.72 5.37 1.77 1.229 1.29 1.979 3.24 1.979 6.72.002 3.3-.838 5.79-2.128 7.139zm-1.441-.899c1.051-1.08 1.801-2.94 1.801-5.939 0-3.45-.66-4.891-1.561-5.82-.84-.87-2.13-1.41-4.229-1.41-2.07 0-3.45.66-4.23 1.38-1.02.931-1.949 3.061-1.949 6.12 0 2.52.569 4.439 1.41 5.399.81.931 2.1 1.681 4.529 1.681 1.86-.001 3.36-.541 4.229-1.411zM437.955 166.219V155.81c0-2.13-.421-3.36-1.171-4.08-.749-.72-2.069-1.021-3.629-1.021-2.16 0-4.051.57-5.37 1.11v14.399h-1.74V149.39h1.26l.48 1.77h.149c.091-.12.78-.899.87-.96.811-.45 2.97-1.05 5.101-1.05 2.189 0 3.479.48 4.379 1.38.931.87 1.41 2.4 1.41 4.68v11.01h-1.739z"/>
  </g>
</svg>
