<?xml version="1.0" standalone="no"?><!DOCTYPE svg PUBLIC "-//W3C//DTD SVG 1.1//EN" "http://www.w3.org/Graphics/SVG/1.1/DTD/svg11.dtd"><svg width="100%" height="100%" viewBox="0 0 284 100" version="1.1" xmlns="http://www.w3.org/2000/svg" xmlns:xlink="http://www.w3.org/1999/xlink" xml:space="preserve" style="fill-rule:evenodd;clip-rule:evenodd;stroke-linejoin:round;stroke-miterlimit:1.41421;"><g id="tint"><path d="M120.274,16.297l-9.92,-9.92l-56.202,-0.001l9.92,9.92l0.009,0l14.383,14.383l6.006,-3.007l-11.376,-11.376l47.18,0.001Z" style="fill:#4e90c9;fill-rule:nonzero;"/><path d="M187.843,16.297l-9.92,-9.92l-56.202,-0.001l9.921,9.92l0.01,0l14.252,14.253l6.008,-3.007l-11.246,-11.246l47.177,0.001Z" style="fill:#4e90c9;fill-rule:nonzero;"/><path d="M254.416,16.298l-9.924,-9.922l-56.207,0l9.922,9.922l0.012,0l12.354,12.355l6.007,-3.007l-9.348,-9.348l47.184,0Z" style="fill:#4e90c9;fill-rule:nonzero;"/><path d="M95.075,46.064l10.412,-10.412l-6.007,-3.006l-13.418,13.418l-0.025,0l-9.92,9.92l56.202,-0.002l9.92,-9.919l-47.164,0.001Z" style="fill:#4e90c9;fill-rule:nonzero;"/><path d="M163.341,46.064l11.256,-11.255l-6.008,-3.007l-14.261,14.262l-0.002,0l-9.922,9.92l56.202,-0.002l9.92,-9.919l-47.185,0.001Z" style="fill:#4e90c9;fill-rule:nonzero;"/><rect x="61.527" y="25.511" width="170.057" height="11.339" style="fill:#4e90c9;"/></g><g id="primary"><rect x="61.527" y="25.511" width="164.989" height="11.339" style="fill:#025eb2;"/><path d="M2.837,42.52l39.684,39.684l39.684,-39.683l-39.685,-39.685l-39.683,39.684Z" style="fill:#025eb2;"/><path d="M240.733,41.144l-24.107,24.107l-9.908,-4.96l24.108,-24.107l9.907,4.96Z" style="fill:#025eb2;fill-rule:nonzero;"/><path d="M240.944,82.205l22.679,-22.678l-144.567,0l-22.677,22.678l144.565,0Z" style="fill:#025eb2;fill-rule:nonzero;"/><path d="M2.837,42.52l39.684,39.684l39.684,-39.683l-39.685,-39.685l-39.683,39.684Z" style="fill:#025eb2;"/><path d="M133.204,19.842l-71.677,0l22.678,22.677l71.675,0l-22.676,-22.677Z" style="fill:#025eb2;fill-rule:nonzero;"/><path d="M199.762,19.842l-36.225,0l-0.964,0l-0.148,0l-0.852,0l-26.375,0l22.677,22.677l64.563,0l-22.676,-22.677Z" style="fill:#025eb2;fill-rule:nonzero;"/><path d="M257.953,19.842l-56.196,0l22.677,22.677l56.196,0l-22.677,-22.677Z" style="fill:#025eb2;fill-rule:nonzero;"/></g><g id="Text"><g><path d="M30.726,33.157c-1.248,-0.144 -2.496,-0.36 -4.776,-0.36c-2.592,0 -4.032,0.552 -5.016,1.32c-1.104,0.888 -2.208,3.265 -2.208,6.673c0,3.024 0.6,5.28 1.729,6.408c0.936,0.937 2.472,1.44 4.992,1.44c2.064,0 4.008,-0.361 5.28,-0.601l0,1.198c-1.464,0.386 -3.48,0.722 -5.544,0.722c-3.072,0 -4.608,-0.624 -5.856,-1.801c-1.104,-1.08 -2.064,-3.288 -2.064,-7.152c0,-4.608 1.56,-6.913 2.664,-7.801c1.176,-1.008 2.88,-1.728 6,-1.728c2.16,0 3.552,0.24 4.8,0.456l-0.001,1.226Z" style="fill:#fff;fill-rule:nonzero;"/><path d="M47.478,49.719l0,-8.473l-11.089,0l0,8.473l-1.416,0l0,-18.002l1.416,0l0,8.232l11.089,0l0,-8.232l1.392,0l0,18.001l-1.392,0.001Z" style="fill:#fff;fill-rule:nonzero;"/><path d="M67.421,49.719l-2.256,-6.145l-8.785,0l-2.424,6.145l-1.464,0l7.2,-18.001l2.568,0l6.721,18.001l-1.56,0l0,0ZM61.3,33.037l-0.768,0l-3.696,9.289l7.896,0l-3.432,-9.289Z" style="fill:#fff;fill-rule:nonzero;"/></g><g><g><path d="M89.475,35.38l0,-0.714l3.096,0l0,-9.217l-3.096,0.56l0,-0.714l3.894,-0.687l0,10.058l2.802,0l0,0.714l-6.696,0Z" style="fill:#fff;fill-rule:nonzero;"/><path d="M112.116,35.38l-7.214,0l0,-0.84c0.126,-1.541 0.966,-2.536 3.432,-3.74c1.569,-0.784 2.255,-1.19 2.62,-1.667c0.308,-0.434 0.392,-0.994 0.392,-1.541c0,-1.443 -0.532,-2.101 -2.815,-2.101c-1.247,0 -2.591,0.308 -3.208,0.448l0,-0.729c0.826,-0.224 2.115,-0.477 3.375,-0.477c2.675,0 3.516,0.869 3.516,2.76c0,0.953 -0.21,1.611 -0.532,2.017c-0.546,0.714 -1.625,1.261 -2.998,1.933c-2.563,1.247 -2.969,2.129 -2.998,3.18l6.64,0l-0.21,0.757Z" style="fill:#fff;fill-rule:nonzero;"/><path d="M126.914,29.427l-1.135,0.532l0,0.056l1.19,0.42c0.477,0.393 0.854,1.289 0.854,2.199c0,2.017 -1.148,2.886 -3.992,2.886c-1.176,0 -2.213,-0.154 -2.83,-0.294l0,-0.714c0.645,0.112 1.779,0.28 2.83,0.28c2.605,0 3.152,-0.854 3.152,-2.157c0,-1.863 -1.247,-2.213 -2.83,-2.213l-2.003,0l0,-0.729l1.821,0c1.373,0 2.815,-0.35 2.815,-2.171c0,-1.345 -0.504,-2.045 -2.633,-2.045c-1.121,0 -2.199,0.224 -2.928,0.378l0,-0.701c0.757,-0.196 1.919,-0.42 3.068,-0.42c2.521,0 3.32,0.883 3.32,2.676c0.001,0.98 -0.433,1.764 -0.699,2.017Z" style="fill:#fff;fill-rule:nonzero;"/></g><g><path d="M164.898,35.38l-0.771,0l0,-2.983l-5.394,0l0,-0.813l4.638,-6.71l1.526,0l0,6.822l2.354,0l-0.211,0.701l-2.144,0l0.002,2.983ZM164.128,31.696l0,-6.135l-0.379,0l-4.104,5.953l0,0.182l4.483,0Z" style="fill:#fff;fill-rule:nonzero;"/><path d="M178.083,35.52c-0.965,0 -1.987,-0.14 -2.717,-0.252l0,-0.743c0.672,0.098 1.709,0.238 2.76,0.238c2.424,0 3.265,-0.687 3.265,-2.423c0,-1.849 -0.588,-2.325 -2.746,-2.325c-0.994,0 -2.339,0.21 -2.955,0.294l0,-5.435l6.22,0l0,0.714l-5.49,0l0,3.95c0.588,-0.098 1.399,-0.252 2.479,-0.252c2.438,0 3.334,0.645 3.334,2.941c-0.003,2.214 -1.025,3.293 -4.15,3.293Z" style="fill:#fff;fill-rule:nonzero;"/><path d="M191.846,30.253l0.069,0l0.447,-0.462c0.604,-0.224 1.695,-0.532 2.971,-0.532c2.479,0 3.306,1.036 3.306,2.983c0,2.031 -1.052,3.278 -3.754,3.278c-2.941,0 -3.853,-1.863 -3.853,-4.959c0,-1.947 0.547,-3.348 1.373,-4.23c0.967,-1.009 2.508,-1.639 5.211,-1.667l0.279,0.743c-2.633,0.014 -4.063,0.56 -4.902,1.457c-0.658,0.699 -1.092,1.89 -1.147,3.389ZM195.066,29.987c-1.246,0 -2.395,0.308 -3.221,0.63c0.027,2.9 0.938,4.174 3.08,4.174c2.004,0 2.9,-0.784 2.9,-2.479c0.001,-1.624 -0.658,-2.325 -2.759,-2.325Z" style="fill:#fff;fill-rule:nonzero;"/></g><g><path d="M227.708,25.813l0,-0.196l-6.315,0l0.224,-0.743l6.989,0l0,0.925l-5.015,9.581l-0.91,0l5.027,-9.567Z" style="fill:#fff;fill-rule:nonzero;"/><path d="M238.347,30.505l0.951,-0.519l0,-0.07l-0.84,-0.434c-0.364,-0.364 -0.715,-0.883 -0.715,-1.849c0,-1.695 1.064,-2.914 3.529,-2.914c2.452,0 3.362,1.092 3.362,2.661c0,0.995 -0.421,1.597 -0.813,2.017l-0.867,0.519l0,0.07l1.063,0.393c0.562,0.448 0.883,1.163 0.883,2.115c0,1.737 -1.079,3.026 -3.838,3.026c-2.604,0 -3.685,-1.037 -3.685,-2.815c0.003,-0.897 0.367,-1.64 0.97,-2.2ZM238.207,32.606c0,1.401 0.813,2.199 2.941,2.199c2.171,0 2.928,-1.022 2.928,-2.227c0,-1.919 -1.219,-2.073 -4.343,-2.41c-0.771,0.505 -1.526,1.192 -1.526,2.438ZM238.57,27.563c0,1.723 1.094,1.961 3.838,2.213c0.883,-0.546 1.387,-1.261 1.387,-2.297c0,-1.345 -0.756,-2.045 -2.604,-2.045c-1.934,0.001 -2.621,0.953 -2.621,2.129Z" style="fill:#fff;fill-rule:nonzero;"/><path d="M260.063,30.015l-0.069,0l-0.436,0.462c-0.574,0.238 -1.652,0.519 -2.857,0.519c-2.507,0 -3.39,-1.009 -3.39,-2.942c0,-2.213 1.388,-3.32 3.739,-3.32c2.746,0 3.824,1.527 3.824,4.861c0,2.003 -0.545,3.474 -1.373,4.342c-0.924,1.009 -2.506,1.611 -5.225,1.667l-0.267,-0.771c2.592,-0.014 4.104,-0.532 4.917,-1.415c0.633,-0.713 1.095,-1.89 1.137,-3.403ZM256.884,30.267c1.261,0 2.396,-0.294 3.18,-0.588c-0.027,-2.97 -0.882,-4.216 -3.066,-4.216c-1.961,0 -2.873,0.938 -2.873,2.536c0,1.568 0.699,2.268 2.759,2.268Z" style="fill:#fff;fill-rule:nonzero;"/></g></g><g><path d="M159.615,52.843c-0.287,0.245 -0.813,0.357 -1.563,0.357c-0.65,0 -1.176,-0.084 -1.526,-0.168l0,-0.364c0.413,0.07 0.876,0.154 1.534,0.154c0.721,0 1.105,-0.112 1.254,-0.252c0.125,-0.127 0.236,-0.357 0.236,-0.709c0,-0.286 -0.055,-0.51 -0.16,-0.629c-0.393,-0.428 -2.27,-0.688 -2.668,-1.198c-0.162,-0.196 -0.211,-0.567 -0.211,-0.854c0,-0.385 0.113,-0.764 0.351,-0.994c0.224,-0.217 0.673,-0.393 1.534,-0.393c0.574,0 1.051,0.049 1.408,0.111l0,0.356c-0.441,-0.049 -0.813,-0.098 -1.465,-0.098c-0.65,0 -1.036,0.112 -1.19,0.295c-0.112,0.119 -0.224,0.362 -0.224,0.687c0,0.267 0.049,0.489 0.154,0.623c0.308,0.393 2.317,0.742 2.674,1.197c0.176,0.21 0.225,0.574 0.225,0.876c0.001,0.422 -0.146,0.814 -0.363,1.003Z" style="fill:#fff;fill-rule:nonzero;"/><path d="M161.58,55.035l-0.406,0l0,-5.842l0.31,0l0.099,0.351l0.027,0c0.057,-0.077 0.203,-0.224 0.245,-0.245c0.119,-0.076 0.574,-0.189 1.051,-0.189c0.539,0 0.869,0.093 1.121,0.316c0.272,0.23 0.496,0.715 0.496,1.604c0,0.834 -0.217,1.423 -0.545,1.75c-0.261,0.254 -0.651,0.406 -1.248,0.406c-0.469,0 -0.833,-0.063 -1.147,-0.133l0,1.982l-0.003,0ZM163.71,49.705c-0.196,-0.161 -0.506,-0.238 -0.953,-0.238c-0.405,0 -0.826,0.07 -1.178,0.231l0,3.032c0.273,0.043 0.652,0.104 1.08,0.104c0.489,0 0.805,-0.084 1.021,-0.301c0.238,-0.226 0.42,-0.716 0.42,-1.472c0.002,-0.739 -0.166,-1.153 -0.39,-1.356Z" style="fill:#fff;fill-rule:nonzero;"/><path d="M167.398,49.117c1.121,0 1.492,0.566 1.492,1.576l0,0.481l-2.865,0c0,1.072 0.309,1.653 1.408,1.653c0.566,0 1.029,-0.092 1.303,-0.135l-0.027,0.338c-0.28,0.068 -0.785,0.168 -1.324,0.168c-1.311,0 -1.778,-0.674 -1.778,-2.012c-0.002,-1.37 0.559,-2.069 1.791,-2.069ZM166.039,50.861l2.451,0l0,-0.141c0,-0.869 -0.287,-1.269 -1.134,-1.269c-0.903,0.002 -1.26,0.479 -1.317,1.41Z" style="fill:#fff;fill-rule:nonzero;"/><path d="M170.757,49.768c-0.286,0.268 -0.435,0.765 -0.435,1.438c0,0.645 0.134,1.079 0.406,1.331c0.231,0.217 0.574,0.301 1.001,0.301c0.498,0 0.896,-0.077 1.17,-0.119l0,0.315c-0.273,0.076 -0.68,0.175 -1.232,0.175c-0.551,0 -0.974,-0.126 -1.246,-0.385c-0.364,-0.337 -0.524,-0.884 -0.524,-1.569c0,-0.783 0.188,-1.387 0.562,-1.729c0.301,-0.295 0.742,-0.436 1.33,-0.436c0.469,0 0.854,0.063 1.112,0.112l0,0.35c-0.243,-0.034 -0.608,-0.091 -1.071,-0.091c-0.476,-0.001 -0.849,0.09 -1.073,0.307Z" style="fill:#fff;fill-rule:nonzero;"/><path d="M174.446,48.066c-0.042,0.035 -0.118,0.049 -0.196,0.049c-0.098,0 -0.16,-0.014 -0.194,-0.057c-0.035,-0.035 -0.058,-0.104 -0.058,-0.195c0,-0.105 0.028,-0.182 0.084,-0.211c0.021,-0.027 0.092,-0.049 0.183,-0.049c0.085,0 0.147,0.015 0.183,0.049c0.051,0.043 0.063,0.113 0.063,0.203c-0.002,0.092 -0.015,0.176 -0.065,0.211ZM174.041,53.123l0,-3.93l0.405,0l0,3.93l-0.405,0Z" style="fill:#fff;fill-rule:nonzero;"/><path d="M178.431,53.123l-0.1,-0.428l-0.035,0c-0.055,0.078 -0.153,0.211 -0.188,0.238c-0.119,0.084 -0.54,0.26 -1.219,0.26c-0.546,0 -0.842,-0.133 -1.001,-0.315c-0.142,-0.153 -0.226,-0.399 -0.226,-0.763c0,-0.441 0.154,-0.708 0.31,-0.807c0.301,-0.225 1.1,-0.371 2.353,-0.482c0,-0.68 -0.084,-0.96 -0.217,-1.121c-0.126,-0.146 -0.386,-0.217 -0.826,-0.217c-0.477,0 -1.086,0.111 -1.353,0.16l0,-0.328c0.295,-0.077 0.876,-0.196 1.437,-0.196c0.539,0 0.883,0.091 1.071,0.308c0.175,0.189 0.287,0.484 0.287,1.254l0,2.438l-0.293,-0.001ZM178.326,51.141c-0.91,0.058 -1.927,0.203 -2.088,0.379c-0.105,0.092 -0.176,0.267 -0.176,0.562c0,0.252 0.063,0.435 0.162,0.546c0.119,0.126 0.371,0.225 0.798,0.225c0.597,0 1.093,-0.168 1.304,-0.273l0,-1.439l0,0Z" style="fill:#fff;fill-rule:nonzero;"/><path d="M180.585,47.45l0,4.741c0,0.504 0.209,0.623 0.539,0.623c0.23,0 0.42,-0.027 0.561,-0.049l0,0.321c-0.168,0.035 -0.413,0.077 -0.68,0.077c-0.567,0 -0.826,-0.271 -0.826,-0.932l0,-4.781l0.406,0Z" style="fill:#fff;fill-rule:nonzero;"/><path d="M184.541,49.537l-1.395,0l0,2.619c0,0.533 0.246,0.645 0.688,0.645c0.322,0 0.615,-0.049 0.771,-0.07l-0.035,0.345c-0.209,0.042 -0.539,0.091 -0.84,0.091c-0.7,0 -0.987,-0.252 -0.987,-0.932l0,-2.696l-0.813,0l0.056,-0.345l0.757,0l0,-0.817l0.405,-0.104l0,0.924l1.472,0l-0.079,0.34Z" style="fill:#fff;fill-rule:nonzero;"/><path d="M186.528,55.042l-0.427,0l0.77,-1.919l-0.322,0l-1.471,-3.93l0.441,0l1.311,3.572l0.183,0l1.387,-3.572l0.44,0l-2.312,5.849Z" style="fill:#fff;fill-rule:nonzero;"/><path d="M194.762,53.123l-3.607,0l0,-0.42c0.064,-0.771 0.484,-1.268 1.718,-1.87c0.783,-0.394 1.127,-0.597 1.31,-0.833c0.153,-0.218 0.196,-0.498 0.196,-0.771c0,-0.721 -0.268,-1.051 -1.408,-1.051c-0.623,0 -1.295,0.154 -1.604,0.225l0,-0.363c0.412,-0.112 1.057,-0.237 1.688,-0.237c1.338,0 1.758,0.435 1.758,1.38c0,0.477 -0.104,0.805 -0.266,1.008c-0.273,0.356 -0.813,0.631 -1.5,0.967c-1.281,0.623 -1.484,1.064 -1.498,1.59l3.32,0l-0.107,0.375Z" style="fill:#fff;fill-rule:nonzero;"/></g><g><path d="M92.045,52.843c-0.287,0.245 -0.813,0.357 -1.562,0.357c-0.651,0 -1.177,-0.084 -1.527,-0.168l0,-0.364c0.413,0.07 0.875,0.154 1.534,0.154c0.721,0 1.106,-0.112 1.254,-0.252c0.126,-0.127 0.238,-0.357 0.238,-0.709c0,-0.286 -0.056,-0.51 -0.161,-0.629c-0.392,-0.428 -2.269,-0.688 -2.668,-1.198c-0.161,-0.196 -0.21,-0.567 -0.21,-0.854c0,-0.385 0.112,-0.764 0.35,-0.994c0.224,-0.217 0.672,-0.393 1.534,-0.393c0.574,0 1.05,0.049 1.408,0.111l0,0.356c-0.441,-0.049 -0.813,-0.098 -1.464,-0.098c-0.651,0 -1.037,0.112 -1.191,0.295c-0.112,0.119 -0.224,0.362 -0.224,0.687c0,0.267 0.049,0.489 0.154,0.623c0.308,0.393 2.318,0.742 2.675,1.197c0.175,0.21 0.224,0.574 0.224,0.876c0.001,0.422 -0.146,0.814 -0.364,1.003Z" style="fill:#fff;fill-rule:nonzero;"/><path d="M94.011,55.035l-0.406,0l0,-5.842l0.308,0l0.098,0.351l0.028,0c0.056,-0.077 0.203,-0.224 0.245,-0.245c0.119,-0.076 0.575,-0.189 1.051,-0.189c0.539,0 0.869,0.093 1.121,0.316c0.273,0.23 0.497,0.715 0.497,1.604c0,0.834 -0.217,1.423 -0.546,1.75c-0.259,0.254 -0.651,0.406 -1.247,0.406c-0.469,0 -0.833,-0.063 -1.148,-0.133l-0.001,1.982ZM96.141,49.705c-0.196,-0.161 -0.504,-0.238 -0.953,-0.238c-0.406,0 -0.827,0.07 -1.177,0.231l0,3.032c0.273,0.043 0.651,0.104 1.079,0.104c0.49,0 0.806,-0.084 1.022,-0.301c0.238,-0.226 0.42,-0.716 0.42,-1.472c0.001,-0.739 -0.167,-1.153 -0.391,-1.356Z" style="fill:#fff;fill-rule:nonzero;"/><path d="M99.829,49.117c1.121,0 1.492,0.566 1.492,1.576l0,0.481l-2.865,0c0,1.072 0.309,1.653 1.408,1.653c0.567,0 1.029,-0.092 1.302,-0.135l-0.028,0.338c-0.28,0.068 -0.784,0.168 -1.324,0.168c-1.31,0 -1.779,-0.674 -1.779,-2.012c0.001,-1.37 0.561,-2.069 1.794,-2.069ZM98.47,50.861l2.451,0l0,-0.141c0,-0.869 -0.287,-1.269 -1.134,-1.269c-0.904,0.002 -1.261,0.479 -1.317,1.41Z" style="fill:#fff;fill-rule:nonzero;"/><path d="M103.188,49.768c-0.287,0.268 -0.434,0.765 -0.434,1.438c0,0.645 0.133,1.079 0.406,1.331c0.231,0.217 0.574,0.301 1.001,0.301c0.498,0 0.896,-0.077 1.17,-0.119l0,0.315c-0.273,0.076 -0.68,0.175 -1.233,0.175c-0.553,0 -0.974,-0.126 -1.247,-0.385c-0.364,-0.337 -0.525,-0.884 -0.525,-1.569c0,-0.783 0.189,-1.387 0.561,-1.729c0.301,-0.295 0.742,-0.436 1.331,-0.436c0.469,0 0.854,0.063 1.114,0.112l0,0.35c-0.245,-0.034 -0.609,-0.091 -1.072,-0.091c-0.476,-0.001 -0.848,0.09 -1.072,0.307Z" style="fill:#fff;fill-rule:nonzero;"/><path d="M106.877,48.066c-0.042,0.035 -0.119,0.049 -0.196,0.049c-0.098,0 -0.161,-0.014 -0.196,-0.057c-0.035,-0.035 -0.056,-0.104 -0.056,-0.195c0,-0.105 0.028,-0.182 0.084,-0.211c0.021,-0.027 0.091,-0.049 0.182,-0.049c0.084,0 0.147,0.015 0.182,0.049c0.049,0.043 0.063,0.113 0.063,0.203c0,0.092 -0.014,0.176 -0.063,0.211ZM106.471,53.123l0,-3.93l0.406,0l0,3.93l-0.406,0Z" style="fill:#fff;fill-rule:nonzero;"/><path d="M110.861,53.123l-0.098,-0.428l-0.035,0c-0.056,0.078 -0.154,0.211 -0.189,0.238c-0.119,0.084 -0.54,0.26 -1.219,0.26c-0.546,0 -0.84,-0.133 -1.001,-0.315c-0.14,-0.153 -0.224,-0.399 -0.224,-0.763c0,-0.441 0.154,-0.708 0.308,-0.807c0.301,-0.225 1.1,-0.371 2.353,-0.482c0,-0.68 -0.084,-0.96 -0.217,-1.121c-0.126,-0.146 -0.385,-0.217 -0.827,-0.217c-0.476,0 -1.085,0.111 -1.352,0.16l0,-0.328c0.294,-0.077 0.875,-0.196 1.436,-0.196c0.54,0 0.883,0.091 1.072,0.308c0.175,0.189 0.287,0.484 0.287,1.254l0,2.438l-0.294,-0.001ZM110.756,51.141c-0.91,0.058 -1.926,0.203 -2.087,0.379c-0.105,0.092 -0.175,0.267 -0.175,0.562c0,0.252 0.063,0.435 0.161,0.546c0.119,0.126 0.371,0.225 0.798,0.225c0.596,0 1.093,-0.168 1.303,-0.273l0,-1.439Z" style="fill:#fff;fill-rule:nonzero;"/><path d="M113.016,47.45l0,4.741c0,0.504 0.21,0.623 0.54,0.623c0.231,0 0.42,-0.027 0.56,-0.049l0,0.321c-0.168,0.035 -0.413,0.077 -0.679,0.077c-0.567,0 -0.827,-0.271 -0.827,-0.932l0,-4.781l0.406,0Z" style="fill:#fff;fill-rule:nonzero;"/><path d="M116.972,49.537l-1.394,0l0,2.619c0,0.533 0.246,0.645 0.687,0.645c0.322,0 0.616,-0.049 0.771,-0.07l-0.036,0.343c-0.21,0.042 -0.539,0.091 -0.84,0.091c-0.7,0 -0.987,-0.252 -0.987,-0.933l0,-2.695l-0.813,0l0.056,-0.344l0.757,0l0,-0.818l0.406,-0.105l0,0.924l1.471,0l-0.078,0.343Z" style="fill:#fff;fill-rule:nonzero;"/><path d="M118.959,55.042l-0.427,0l0.771,-1.919l-0.322,0l-1.471,-3.93l0.441,0l1.31,3.572l0.182,0l1.387,-3.572l0.441,0l-2.312,5.849Z" style="fill:#fff;fill-rule:nonzero;"/><path d="M123.845,53.123l0,-0.357l1.548,0l0,-4.607l-1.548,0.279l0,-0.358l1.947,-0.344l0,5.029l1.4,0l0,0.356l-3.347,0.002Z" style="fill:#fff;fill-rule:nonzero;"/></g><g><path d="M140.058,13.438l-0.658,-1.793l-2.563,0l-0.708,1.793l-0.427,0l2.101,-5.253l0.75,0l1.961,5.253l-0.456,0ZM138.272,8.57l-0.224,0l-1.079,2.71l2.304,0l-1.001,-2.71Z" style="fill:#fff;fill-rule:nonzero;"/><path d="M144.397,13.438l-0.104,-0.42l-0.043,0c-0.014,0.028 -0.182,0.245 -0.194,0.252c-0.197,0.098 -0.658,0.217 -1.149,0.217c-0.566,0 -0.861,-0.119 -1.078,-0.343c-0.203,-0.217 -0.322,-0.546 -0.322,-1.086l0,-2.549l0.406,0l0,2.396c0,0.532 0.098,0.805 0.259,0.974c0.168,0.175 0.461,0.245 0.89,0.245c0.455,0 0.911,-0.119 1.226,-0.259l0,-3.356l0.406,0l0,3.929l-0.297,0Z" style="fill:#fff;fill-rule:nonzero;"/><path d="M147.259,11.638l-1.135,1.8l-0.463,0l1.282,-1.982l-1.198,-1.947l0.463,0l1.058,1.758l0.321,0l1.149,-1.758l0.455,0l-1.288,1.947l1.246,1.982l-0.469,0l-1.107,-1.8l-0.314,0l0,0Z" style="fill:#fff;fill-rule:nonzero;"/><path d="M150.458,13.417c-0.035,0.042 -0.127,0.056 -0.211,0.056c-0.104,0 -0.176,-0.021 -0.217,-0.063c-0.043,-0.042 -0.057,-0.112 -0.057,-0.217c0,-0.105 0.043,-0.189 0.084,-0.224c0.043,-0.021 0.105,-0.042 0.203,-0.042c0.084,0 0.168,0.014 0.203,0.049c0.049,0.035 0.07,0.119 0.07,0.217c0.002,0.091 -0.019,0.175 -0.075,0.224Z" style="fill:#fff;fill-rule:nonzero;"/><path d="M156.97,13.438l-3.02,-4.861l-0.127,0l0,4.861l-0.385,0l0,-5.253l0.729,0l2.99,4.819l0.135,0l0,-4.819l0.385,0l0,5.253l-0.707,0Z" style="fill:#fff;fill-rule:nonzero;"/><path d="M162.156,13.053c-0.273,0.28 -0.672,0.469 -1.365,0.469c-0.651,0 -1.064,-0.182 -1.324,-0.476c-0.225,-0.259 -0.428,-0.722 -0.428,-1.478c0,-0.763 0.203,-1.379 0.562,-1.716c0.28,-0.266 0.715,-0.448 1.338,-0.448c0.597,0 1.008,0.168 1.254,0.413c0.287,0.301 0.462,0.756 0.462,1.569c-0.002,0.77 -0.198,1.352 -0.499,1.667ZM161.82,12.843c0.244,-0.252 0.42,-0.687 0.42,-1.387c0,-0.806 -0.154,-1.142 -0.363,-1.359c-0.196,-0.203 -0.498,-0.329 -0.987,-0.329c-0.483,0 -0.806,0.154 -0.988,0.322c-0.237,0.217 -0.455,0.714 -0.455,1.429c0,0.588 0.134,1.037 0.33,1.261c0.188,0.217 0.49,0.392 1.058,0.392c0.432,0 0.782,-0.126 0.985,-0.329Z" style="fill:#fff;fill-rule:nonzero;"/><path d="M166.664,7.73l0.414,0l0,5.708l-0.315,0l-0.099,-0.371l-0.021,0c-0.069,0.077 -0.202,0.231 -0.244,0.259c-0.119,0.077 -0.478,0.196 -1.017,0.196c-0.553,0 -0.909,-0.112 -1.155,-0.315c-0.272,-0.231 -0.497,-0.722 -0.497,-1.618c0,-0.792 0.195,-1.415 0.54,-1.737c0.278,-0.273 0.679,-0.413 1.274,-0.413c0.47,0 0.791,0.063 1.119,0.147l0,-1.856l0.001,0ZM164.548,12.913c0.184,0.161 0.533,0.252 0.945,0.252c0.394,0 0.82,-0.07 1.17,-0.238l0,-3.033c-0.266,-0.035 -0.629,-0.105 -1.063,-0.105c-0.49,0 -0.813,0.098 -1.037,0.308c-0.237,0.224 -0.412,0.708 -0.412,1.464c-0.001,0.771 0.181,1.163 0.397,1.352Z" style="fill:#fff;fill-rule:nonzero;"/><path d="M170.149,9.432c1.12,0 1.491,0.567 1.491,1.576l0,0.483l-2.864,0c0,1.072 0.31,1.653 1.408,1.653c0.567,0 1.028,-0.091 1.302,-0.133l-0.027,0.336c-0.279,0.07 -0.783,0.168 -1.323,0.168c-1.31,0 -1.778,-0.672 -1.778,-2.01c-0.002,-1.373 0.558,-2.073 1.791,-2.073ZM168.791,11.176l2.451,0l0,-0.14c0,-0.869 -0.287,-1.268 -1.135,-1.268c-0.904,0 -1.26,0.476 -1.316,1.408Z" style="fill:#fff;fill-rule:nonzero;"/></g><g><path d="M207.625,13.438l-0.658,-1.793l-2.563,0l-0.708,1.793l-0.427,0l2.102,-5.253l0.75,0l1.961,5.253l-0.457,0ZM205.839,8.57l-0.225,0l-1.078,2.71l2.305,0l-1.002,-2.71Z" style="fill:#fff;fill-rule:nonzero;"/><path d="M211.964,13.438l-0.104,-0.42l-0.043,0c-0.014,0.028 -0.183,0.245 -0.194,0.252c-0.197,0.098 -0.658,0.217 -1.148,0.217c-0.566,0 -0.861,-0.119 -1.078,-0.343c-0.203,-0.217 -0.322,-0.546 -0.322,-1.086l0,-2.549l0.406,0l0,2.396c0,0.532 0.098,0.805 0.258,0.974c0.17,0.175 0.463,0.245 0.891,0.245c0.455,0 0.91,-0.119 1.226,-0.259l0,-3.356l0.406,0l0,3.929l-0.298,0Z" style="fill:#fff;fill-rule:nonzero;"/><path d="M214.826,11.638l-1.135,1.8l-0.462,0l1.282,-1.982l-1.198,-1.947l0.462,0l1.059,1.758l0.321,0l1.149,-1.758l0.455,0l-1.289,1.947l1.246,1.982l-0.469,0l-1.106,-1.8l-0.315,0l0,0Z" style="fill:#fff;fill-rule:nonzero;"/><path d="M218.025,13.417c-0.035,0.042 -0.127,0.056 -0.211,0.056c-0.104,0 -0.175,-0.021 -0.217,-0.063c-0.042,-0.042 -0.057,-0.112 -0.057,-0.217c0,-0.105 0.043,-0.189 0.084,-0.224c0.043,-0.021 0.104,-0.042 0.203,-0.042c0.084,0 0.168,0.014 0.203,0.049c0.049,0.035 0.069,0.119 0.069,0.217c0.003,0.091 -0.017,0.175 -0.074,0.224Z" style="fill:#fff;fill-rule:nonzero;"/><path d="M224.537,13.438l-3.02,-4.861l-0.126,0l0,4.861l-0.386,0l0,-5.253l0.729,0l2.991,4.819l0.134,0l0,-4.819l0.385,0l0,5.253l-0.707,0Z" style="fill:#fff;fill-rule:nonzero;"/><path d="M229.723,13.053c-0.272,0.28 -0.673,0.469 -1.365,0.469c-0.651,0 -1.063,-0.182 -1.323,-0.476c-0.225,-0.259 -0.428,-0.722 -0.428,-1.478c0,-0.763 0.203,-1.379 0.561,-1.716c0.28,-0.266 0.715,-0.448 1.338,-0.448c0.596,0 1.009,0.168 1.254,0.413c0.287,0.301 0.463,0.756 0.463,1.569c-0.002,0.77 -0.199,1.352 -0.5,1.667ZM229.387,12.843c0.245,-0.252 0.42,-0.687 0.42,-1.387c0,-0.806 -0.154,-1.142 -0.363,-1.359c-0.196,-0.203 -0.498,-0.329 -0.987,-0.329c-0.482,0 -0.806,0.154 -0.988,0.322c-0.237,0.217 -0.454,0.714 -0.454,1.429c0,0.588 0.133,1.037 0.329,1.261c0.188,0.217 0.49,0.392 1.058,0.392c0.431,0 0.782,-0.126 0.985,-0.329Z" style="fill:#fff;fill-rule:nonzero;"/><path d="M234.23,7.73l0.414,0l0,5.708l-0.314,0l-0.1,-0.371l-0.021,0c-0.068,0.077 -0.201,0.231 -0.244,0.259c-0.119,0.077 -0.478,0.196 -1.017,0.196c-0.553,0 -0.909,-0.112 -1.155,-0.315c-0.272,-0.231 -0.496,-0.722 -0.496,-1.618c0,-0.792 0.195,-1.415 0.539,-1.737c0.279,-0.273 0.68,-0.413 1.274,-0.413c0.47,0 0.791,0.063 1.119,0.147l0.001,-1.856ZM232.117,12.913c0.182,0.161 0.531,0.252 0.944,0.252c0.392,0 0.819,-0.07 1.169,-0.238l0,-3.033c-0.266,-0.035 -0.629,-0.105 -1.064,-0.105c-0.49,0 -0.813,0.098 -1.035,0.308c-0.237,0.224 -0.414,0.708 -0.414,1.464c-0.001,0.771 0.181,1.163 0.4,1.352Z" style="fill:#fff;fill-rule:nonzero;"/><path d="M237.716,9.432c1.121,0 1.492,0.567 1.492,1.576l0,0.483l-2.864,0c0,1.072 0.309,1.653 1.407,1.653c0.566,0 1.029,-0.091 1.303,-0.133l-0.028,0.336c-0.278,0.07 -0.782,0.168 -1.323,0.168c-1.31,0 -1.777,-0.672 -1.777,-2.01c-0.003,-1.373 0.557,-2.073 1.79,-2.073ZM236.357,11.176l2.451,0l0,-0.14c0,-0.869 -0.287,-1.268 -1.135,-1.268c-0.902,0 -1.259,0.476 -1.316,1.408Z" style="fill:#fff;fill-rule:nonzero;"/></g><g><path d="M72.489,13.438l-0.658,-1.793l-2.563,0l-0.708,1.793l-0.427,0l2.101,-5.253l0.75,0l1.961,5.253l-0.456,0ZM70.703,8.57l-0.224,0l-1.079,2.71l2.304,0l-1.001,-2.71Z" style="fill:#fff;fill-rule:nonzero;"/><path d="M76.828,13.438l-0.105,-0.42l-0.042,0c-0.014,0.028 -0.182,0.245 -0.196,0.252c-0.196,0.098 -0.658,0.217 -1.149,0.217c-0.567,0 -0.861,-0.119 -1.078,-0.343c-0.203,-0.217 -0.322,-0.546 -0.322,-1.086l0,-2.549l0.406,0l0,2.396c0,0.532 0.098,0.805 0.259,0.974c0.168,0.175 0.462,0.245 0.89,0.245c0.455,0 0.911,-0.119 1.226,-0.259l0,-3.356l0.406,0l0,3.929l-0.295,0Z" style="fill:#fff;fill-rule:nonzero;"/><path d="M79.69,11.638l-1.135,1.8l-0.462,0l1.282,-1.982l-1.198,-1.947l0.462,0l1.057,1.758l0.322,0l1.149,-1.758l0.455,0l-1.289,1.947l1.247,1.982l-0.469,0l-1.106,-1.8l-0.315,0l0,0Z" style="fill:#fff;fill-rule:nonzero;"/><path d="M82.889,13.417c-0.035,0.042 -0.126,0.056 -0.21,0.056c-0.105,0 -0.175,-0.021 -0.217,-0.063c-0.042,-0.042 -0.056,-0.112 -0.056,-0.217c0,-0.105 0.042,-0.189 0.084,-0.224c0.042,-0.021 0.105,-0.042 0.203,-0.042c0.084,0 0.168,0.014 0.203,0.049c0.049,0.035 0.07,0.119 0.07,0.217c0,0.091 -0.021,0.175 -0.077,0.224Z" style="fill:#fff;fill-rule:nonzero;"/><path d="M89.4,13.438l-3.019,-4.861l-0.126,0l0,4.861l-0.385,0l0,-5.253l0.728,0l2.991,4.819l0.133,0l0,-4.819l0.385,0l0,5.253l-0.707,0Z" style="fill:#fff;fill-rule:nonzero;"/><path d="M94.587,13.053c-0.273,0.28 -0.672,0.469 -1.366,0.469c-0.651,0 -1.065,-0.182 -1.324,-0.476c-0.224,-0.259 -0.427,-0.722 -0.427,-1.478c0,-0.763 0.203,-1.379 0.56,-1.716c0.28,-0.266 0.714,-0.448 1.338,-0.448c0.595,0 1.008,0.168 1.254,0.413c0.287,0.301 0.462,0.756 0.462,1.569c0,0.77 -0.196,1.352 -0.497,1.667ZM94.25,12.843c0.245,-0.252 0.42,-0.687 0.42,-1.387c0,-0.806 -0.154,-1.142 -0.364,-1.359c-0.196,-0.203 -0.497,-0.329 -0.987,-0.329c-0.483,0 -0.806,0.154 -0.988,0.322c-0.238,0.217 -0.455,0.714 -0.455,1.429c0,0.588 0.133,1.037 0.329,1.261c0.189,0.217 0.49,0.392 1.058,0.392c0.434,0 0.784,-0.126 0.987,-0.329Z" style="fill:#fff;fill-rule:nonzero;"/><path d="M99.095,7.73l0.414,0l0,5.708l-0.315,0l-0.098,-0.371l-0.021,0c-0.07,0.077 -0.203,0.231 -0.245,0.259c-0.119,0.077 -0.476,0.196 -1.015,0.196c-0.554,0 -0.911,-0.112 -1.156,-0.315c-0.273,-0.231 -0.498,-0.722 -0.498,-1.618c0,-0.792 0.196,-1.415 0.54,-1.737c0.28,-0.273 0.679,-0.413 1.275,-0.413c0.469,0 0.791,0.063 1.12,0.147l-0.001,-1.856ZM96.98,12.913c0.182,0.161 0.532,0.252 0.945,0.252c0.392,0 0.819,-0.07 1.169,-0.238l0,-3.033c-0.266,-0.035 -0.63,-0.105 -1.064,-0.105c-0.49,0 -0.813,0.098 -1.037,0.308c-0.238,0.224 -0.413,0.708 -0.413,1.464c0.001,0.771 0.183,1.163 0.4,1.352Z" style="fill:#fff;fill-rule:nonzero;"/><path d="M102.58,9.432c1.121,0 1.492,0.567 1.492,1.576l0,0.483l-2.865,0c0,1.072 0.309,1.653 1.408,1.653c0.567,0 1.029,-0.091 1.302,-0.133l-0.028,0.336c-0.28,0.07 -0.784,0.168 -1.324,0.168c-1.31,0 -1.779,-0.672 -1.779,-2.01c0.001,-1.373 0.561,-2.073 1.794,-2.073ZM101.221,11.176l2.451,0l0,-0.14c0,-0.869 -0.287,-1.268 -1.134,-1.268c-0.904,0 -1.261,0.476 -1.317,1.408Z" style="fill:#fff;fill-rule:nonzero;"/></g></g><g><path d="M126.485,64.566l0,10.5l3.094,0c2.086,0 3.178,-0.364 3.878,-0.966c0.826,-0.728 1.414,-2.296 1.414,-4.452c0,-2.212 -0.448,-3.556 -1.12,-4.2c-0.63,-0.602 -1.736,-0.882 -3.682,-0.882l-3.584,0ZM129.957,65.322c1.302,0 2.562,0.112 3.136,0.714c0.658,0.672 0.938,2.002 0.938,3.626c0,1.96 -0.476,3.332 -1.162,3.906c-0.574,0.462 -1.54,0.742 -3.402,0.742l-2.156,0l0,-8.988l2.646,0Z" style="fill:#fff;fill-rule:nonzero;"/><path d="M137.209,71.202c0,2.674 0.938,4.018 3.556,4.018c1.078,0 2.086,-0.196 2.646,-0.336l0.056,-0.672c-0.546,0.084 -1.47,0.266 -2.604,0.266c-2.198,0 -2.814,-1.162 -2.814,-3.304l5.726,0l0,-0.966c0,-2.016 -0.742,-3.15 -2.982,-3.15c-2.464,0 -3.584,1.4 -3.584,4.144ZM140.709,67.73c1.694,0 2.268,0.798 2.268,2.534l0,0.28l-4.9,0c0.112,-1.862 0.826,-2.814 2.632,-2.814Z" style="fill:#fff;fill-rule:nonzero;"/><path d="M146.169,63.726l0,9.562c0,1.316 0.518,1.862 1.652,1.862c0.532,0 1.022,-0.084 1.358,-0.154l0,-0.644c-0.28,0.042 -0.658,0.098 -1.12,0.098c-0.658,0 -1.078,-0.238 -1.078,-1.246l0,-9.478l-0.812,0Z" style="fill:#fff;fill-rule:nonzero;"/><path d="M150.467,71.202c0,2.674 0.938,4.018 3.556,4.018c1.078,0 2.086,-0.196 2.646,-0.336l0.056,-0.672c-0.546,0.084 -1.47,0.266 -2.604,0.266c-2.198,0 -2.814,-1.162 -2.814,-3.304l5.726,0l0,-0.966c0,-2.016 -0.742,-3.15 -2.982,-3.15c-2.464,0 -3.584,1.4 -3.584,4.144ZM153.967,67.73c1.694,0 2.268,0.798 2.268,2.534l0,0.28l-4.9,0c0.112,-1.862 0.826,-2.814 2.632,-2.814Z" style="fill:#fff;fill-rule:nonzero;"/><path d="M165.797,67.212l-0.14,0l-0.378,0.252c-0.7,-0.168 -1.484,-0.336 -2.478,-0.336c-1.33,0 -2.17,0.336 -2.66,0.812c-0.672,0.672 -1.078,1.89 -1.078,3.528c0,1.61 0.392,2.604 1.036,3.108c0.448,0.364 1.12,0.602 2.226,0.602c1.022,0 1.876,-0.196 2.114,-0.35c0.084,-0.042 0.364,-0.378 0.49,-0.532l0.056,0l0,0.42c0,1.764 -0.266,2.492 -0.658,2.884c-0.364,0.322 -0.98,0.56 -2.128,0.56c-1.162,0 -2.184,-0.168 -2.73,-0.266l0,0.714c0.532,0.098 1.526,0.294 2.772,0.294c1.386,0 2.142,-0.322 2.618,-0.756c0.546,-0.518 0.938,-1.372 0.938,-3.5l0,-7.434ZM159.903,71.328c0,-1.442 0.322,-2.38 0.798,-2.87c0.434,-0.42 1.106,-0.63 2.156,-0.63c0.826,0 1.554,0.112 2.128,0.182l0,5.992c-0.7,0.322 -1.596,0.462 -2.408,0.462c-0.784,0 -1.498,-0.168 -1.904,-0.49c-0.476,-0.378 -0.77,-1.19 -0.77,-2.646Z" style="fill:#fff;fill-rule:nonzero;"/><path d="M174.351,75.066l0,-4.872c0,-1.54 -0.224,-2.128 -0.574,-2.506c-0.378,-0.434 -1.064,-0.616 -2.142,-0.616c-1.12,0 -2.282,0.238 -2.87,0.392l0,0.658c0.532,-0.098 1.75,-0.322 2.702,-0.322c0.882,0 1.4,0.14 1.652,0.434c0.266,0.322 0.434,0.882 0.434,2.24c-2.506,0.224 -4.102,0.518 -4.704,0.966c-0.308,0.196 -0.616,0.728 -0.616,1.61c0,0.728 0.168,1.218 0.448,1.526c0.322,0.364 0.91,0.63 2.002,0.63c1.358,0 2.198,-0.35 2.436,-0.518c0.07,-0.056 0.266,-0.322 0.378,-0.476l0.07,0l0.196,0.854l0.588,0ZM173.553,73.974c-0.42,0.21 -1.414,0.546 -2.604,0.546c-0.854,0 -1.358,-0.196 -1.596,-0.448c-0.196,-0.224 -0.322,-0.588 -0.322,-1.092c0,-0.588 0.14,-0.938 0.35,-1.12c0.322,-0.35 2.352,-0.644 4.172,-0.756l0,2.87Z" style="fill:#fff;fill-rule:nonzero;"/><path d="M181.631,67.212l-2.94,0l0,-1.848l-0.812,0.21l0,1.638l-1.512,0l-0.112,0.686l1.624,0l0,5.39c0,1.358 0.574,1.862 1.974,1.862c0.602,0 1.26,-0.098 1.68,-0.182l0.07,-0.686c-0.308,0.042 -0.896,0.14 -1.54,0.14c-0.882,0 -1.372,-0.224 -1.372,-1.288l0,-5.236l2.786,0l0.154,-0.686Z" style="fill:#fff;fill-rule:nonzero;"/><path d="M183.339,71.202c0,2.674 0.938,4.018 3.556,4.018c1.078,0 2.086,-0.196 2.646,-0.336l0.056,-0.672c-0.546,0.084 -1.47,0.266 -2.604,0.266c-2.198,0 -2.814,-1.162 -2.814,-3.304l5.726,0l0,-0.966c0,-2.016 -0.742,-3.15 -2.982,-3.15c-2.464,0 -3.584,1.4 -3.584,4.144ZM186.839,67.73c1.694,0 2.268,0.798 2.268,2.534l0,0.28l-4.9,0c0.112,-1.862 0.826,-2.814 2.632,-2.814Z" style="fill:#fff;fill-rule:nonzero;"/><path d="M198.403,70.782c1.526,0 2.324,-0.154 2.954,-0.602c0.644,-0.462 1.092,-1.484 1.092,-2.716c0,-1.26 -0.336,-2.044 -0.868,-2.45c-0.392,-0.308 -1.064,-0.448 -1.974,-0.448l-4.004,0l0,10.5l0.812,0l0,-4.284l1.988,0ZM201.609,67.492c0,1.134 -0.378,1.848 -0.854,2.184c-0.378,0.28 -1.12,0.364 -2.366,0.364l-1.974,0l0,-4.76l2.87,0c0.77,0 1.344,0.084 1.694,0.35c0.378,0.28 0.63,0.882 0.63,1.862Z" style="fill:#fff;fill-rule:nonzero;"/><path d="M204.703,67.212l0,7.854l0.812,0l0,-6.608c0.476,-0.308 1.372,-0.63 2.324,-0.616c0.476,0 0.882,0.056 1.12,0.098l0,-0.784c-0.21,-0.028 -0.504,-0.056 -0.896,-0.056c-0.98,0 -1.694,0.266 -2.072,0.49c-0.028,0.028 -0.364,0.434 -0.406,0.49l-0.084,0l-0.196,-0.868l-0.602,0Z" style="fill:#fff;fill-rule:nonzero;"/><path d="M217.569,70.964c0,-1.624 -0.35,-2.534 -0.924,-3.136c-0.49,-0.49 -1.316,-0.826 -2.506,-0.826c-1.246,0 -2.114,0.364 -2.674,0.896c-0.714,0.672 -1.12,1.904 -1.12,3.43c0,1.512 0.406,2.436 0.854,2.954c0.518,0.588 1.344,0.952 2.646,0.952c1.386,0 2.184,-0.378 2.73,-0.938c0.602,-0.63 0.994,-1.792 0.994,-3.332ZM213.929,74.534c-1.134,0 -1.736,-0.35 -2.114,-0.784c-0.392,-0.448 -0.658,-1.344 -0.658,-2.52c0,-1.428 0.434,-2.422 0.91,-2.856c0.364,-0.336 1.008,-0.644 1.974,-0.644c0.98,0 1.582,0.252 1.974,0.658c0.42,0.434 0.728,1.106 0.728,2.716c0,1.4 -0.35,2.268 -0.84,2.772c-0.406,0.406 -1.106,0.658 -1.974,0.658Z" style="fill:#fff;fill-rule:nonzero;"/><path d="M222.945,71.468l2.212,3.598l0.938,0l-2.492,-3.962l2.576,-3.892l-0.91,0l-2.296,3.514l-0.644,0l-2.114,-3.514l-0.924,0l2.394,3.892l-2.562,3.962l0.924,0l2.268,-3.598l0.63,0Z" style="fill:#fff;fill-rule:nonzero;"/><path d="M234.635,67.212l-0.882,0l-2.772,7.14l-0.364,0l-2.618,-7.14l-0.882,0l2.94,7.854l0.644,0l-1.54,3.836l0.854,0l4.62,-11.69Z" style="fill:#fff;fill-rule:nonzero;"/></g><path d="M227.482,95.668l-144.572,0.002l9.922,-9.92l0.002,0l3.545,-3.545l9.014,0l-3.546,3.545l135.554,-0.001l-9.919,9.919Z" style="fill:#4e90c9;"/><g><path d="M109.451,90.668c0.763,0 1.162,-0.077 1.477,-0.301c0.322,-0.231 0.546,-0.742 0.546,-1.358c0,-0.63 -0.168,-1.022 -0.434,-1.225c-0.196,-0.154 -0.532,-0.224 -0.987,-0.224l-2.002,0l0,5.25l0.406,0l0,-2.142l0.994,0ZM111.054,89.023c0,0.567 -0.189,0.924 -0.427,1.092c-0.189,0.14 -0.56,0.182 -1.183,0.182l-0.987,0l0,-2.38l1.435,0c0.385,0 0.672,0.042 0.847,0.175c0.189,0.14 0.315,0.441 0.315,0.931Z" style="fill:#fff;fill-rule:nonzero;"/><path d="M115.331,92.81l0,-2.436c0,-0.77 -0.112,-1.064 -0.287,-1.253c-0.189,-0.217 -0.532,-0.308 -1.071,-0.308c-0.56,0 -1.141,0.119 -1.435,0.196l0,0.329c0.266,-0.049 0.875,-0.161 1.351,-0.161c0.441,0 0.7,0.07 0.826,0.217c0.133,0.161 0.217,0.441 0.217,1.12c-1.253,0.112 -2.051,0.259 -2.352,0.483c-0.154,0.098 -0.308,0.364 -0.308,0.805c0,0.364 0.084,0.609 0.224,0.763c0.161,0.182 0.455,0.315 1.001,0.315c0.679,0 1.099,-0.175 1.218,-0.259c0.035,-0.028 0.133,-0.161 0.189,-0.238l0.035,0l0.098,0.427l0.294,0ZM114.932,92.264c-0.21,0.105 -0.707,0.273 -1.302,0.273c-0.427,0 -0.679,-0.098 -0.798,-0.224c-0.098,-0.112 -0.161,-0.294 -0.161,-0.546c0,-0.294 0.07,-0.469 0.175,-0.56c0.161,-0.175 1.176,-0.322 2.086,-0.378l0,1.435Z" style="fill:#fff;fill-rule:nonzero;"/><path d="M116.808,88.883l0,3.927l0.406,0l0,-3.304c0.238,-0.154 0.686,-0.315 1.162,-0.308c0.238,0 0.441,0.028 0.56,0.049l0,-0.392c-0.105,-0.014 -0.252,-0.028 -0.448,-0.028c-0.49,0 -0.847,0.133 -1.036,0.245c-0.014,0.014 -0.182,0.217 -0.203,0.245l-0.042,0l-0.098,-0.434l-0.301,0Z" style="fill:#fff;fill-rule:nonzero;"/><path d="M122.555,92.81l0,-2.436c0,-0.77 -0.112,-1.064 -0.287,-1.253c-0.189,-0.217 -0.532,-0.308 -1.071,-0.308c-0.56,0 -1.141,0.119 -1.435,0.196l0,0.329c0.266,-0.049 0.875,-0.161 1.351,-0.161c0.441,0 0.7,0.07 0.826,0.217c0.133,0.161 0.217,0.441 0.217,1.12c-1.253,0.112 -2.051,0.259 -2.352,0.483c-0.154,0.098 -0.308,0.364 -0.308,0.805c0,0.364 0.084,0.609 0.224,0.763c0.161,0.182 0.455,0.315 1.001,0.315c0.679,0 1.099,-0.175 1.218,-0.259c0.035,-0.028 0.133,-0.161 0.189,-0.238l0.035,0l0.098,0.427l0.294,0ZM122.156,92.264c-0.21,0.105 -0.707,0.273 -1.302,0.273c-0.427,0 -0.679,-0.098 -0.798,-0.224c-0.098,-0.112 -0.161,-0.294 -0.161,-0.546c0,-0.294 0.07,-0.469 0.175,-0.56c0.161,-0.175 1.176,-0.322 2.086,-0.378l0,1.435Z" style="fill:#fff;fill-rule:nonzero;"/><path d="M126.762,88.96c-0.329,-0.084 -0.651,-0.147 -1.12,-0.147c-0.595,0 -0.994,0.14 -1.274,0.413c-0.343,0.322 -0.539,0.945 -0.539,1.736c0,0.896 0.224,1.386 0.497,1.617c0.245,0.203 0.602,0.315 1.155,0.315c0.539,0 0.896,-0.119 1.015,-0.196c0.042,-0.028 0.175,-0.182 0.245,-0.259l0.021,0l0.098,0.371l0.315,0l0,-5.705l-0.413,0l0,1.855ZM124.249,90.934c0,-0.756 0.175,-1.239 0.413,-1.463c0.224,-0.21 0.546,-0.308 1.036,-0.308c0.434,0 0.798,0.07 1.064,0.105l0,3.031c-0.35,0.168 -0.777,0.238 -1.169,0.238c-0.413,0 -0.763,-0.091 -0.945,-0.252c-0.217,-0.189 -0.399,-0.581 -0.399,-1.351Z" style="fill:#fff;fill-rule:nonzero;"/><path d="M129.058,92.81l0,-3.927l-0.406,0l0,3.927l0.406,0ZM129.121,87.546c0,-0.091 -0.014,-0.161 -0.063,-0.203c-0.035,-0.035 -0.098,-0.049 -0.182,-0.049c-0.091,0 -0.161,0.021 -0.182,0.049c-0.056,0.028 -0.084,0.105 -0.084,0.21c0,0.091 0.021,0.161 0.056,0.196c0.035,0.042 0.098,0.056 0.196,0.056c0.077,0 0.154,-0.014 0.196,-0.049c0.049,-0.035 0.063,-0.119 0.063,-0.21Z" style="fill:#fff;fill-rule:nonzero;"/><path d="M133.699,88.883l-0.07,0l-0.189,0.126c-0.35,-0.084 -0.742,-0.168 -1.239,-0.168c-0.665,0 -1.085,0.168 -1.33,0.406c-0.336,0.336 -0.539,0.945 -0.539,1.764c0,0.805 0.196,1.302 0.518,1.554c0.224,0.182 0.56,0.301 1.113,0.301c0.511,0 0.938,-0.098 1.057,-0.175c0.042,-0.021 0.182,-0.189 0.245,-0.266l0.028,0l0,0.21c0,0.882 -0.133,1.246 -0.329,1.442c-0.182,0.161 -0.49,0.28 -1.064,0.28c-0.581,0 -1.092,-0.084 -1.365,-0.133l0,0.357c0.266,0.049 0.763,0.147 1.386,0.147c0.693,0 1.071,-0.161 1.309,-0.378c0.273,-0.259 0.469,-0.686 0.469,-1.75l0,-3.717ZM130.752,90.941c0,-0.721 0.161,-1.19 0.399,-1.435c0.217,-0.21 0.553,-0.315 1.078,-0.315c0.413,0 0.777,0.056 1.064,0.091l0,2.996c-0.35,0.161 -0.798,0.231 -1.204,0.231c-0.392,0 -0.749,-0.084 -0.952,-0.245c-0.238,-0.189 -0.385,-0.595 -0.385,-1.323Z" style="fill:#fff;fill-rule:nonzero;"/><path d="M140.881,92.81l0,-2.569c0,-0.539 -0.091,-0.896 -0.315,-1.106c-0.21,-0.203 -0.504,-0.308 -0.966,-0.308c-0.511,0 -0.959,0.154 -1.183,0.28l-0.217,0.273l-0.035,0c-0.035,-0.063 -0.084,-0.147 -0.175,-0.231c-0.217,-0.21 -0.539,-0.322 -1.043,-0.322c-0.511,0 -0.945,0.14 -1.127,0.238l-0.21,0.231l-0.035,0l-0.105,-0.413l-0.301,0l0,3.927l0.406,0l0,-3.353c0.294,-0.119 0.7,-0.266 1.211,-0.266c0.322,0 0.651,0.063 0.819,0.224c0.161,0.154 0.217,0.364 0.217,0.707l0,2.688l0.406,0l0,-3.304c0.28,-0.147 0.693,-0.315 1.197,-0.315c0.329,0 0.623,0.077 0.791,0.238c0.168,0.161 0.259,0.434 0.259,0.952l0,2.429l0.406,0Z" style="fill:#fff;fill-rule:nonzero;"/><path d="M141.714,93.629l0.357,0l0.875,-1.708l-0.448,0l-0.784,1.708Z" style="fill:#fff;fill-rule:nonzero;"/><path d="M150.478,91.529c0,-0.301 -0.049,-0.665 -0.224,-0.875c-0.357,-0.455 -2.366,-0.805 -2.674,-1.197c-0.105,-0.133 -0.154,-0.357 -0.154,-0.623c0,-0.322 0.112,-0.567 0.224,-0.686c0.154,-0.182 0.539,-0.294 1.19,-0.294c0.651,0 1.022,0.049 1.463,0.098l0,-0.357c-0.357,-0.063 -0.833,-0.112 -1.407,-0.112c-0.861,0 -1.309,0.175 -1.533,0.392c-0.238,0.231 -0.35,0.609 -0.35,0.994c0,0.287 0.049,0.658 0.21,0.854c0.399,0.511 2.275,0.77 2.667,1.197c0.105,0.119 0.161,0.343 0.161,0.63c0,0.35 -0.112,0.581 -0.238,0.707c-0.147,0.14 -0.532,0.252 -1.253,0.252c-0.658,0 -1.12,-0.084 -1.533,-0.154l0,0.364c0.35,0.084 0.875,0.168 1.526,0.168c0.749,0 1.274,-0.112 1.561,-0.357c0.217,-0.189 0.364,-0.581 0.364,-1.001Z" style="fill:#fff;fill-rule:nonzero;"/><path d="M154.86,92.81l0,-2.562c0,-0.539 -0.105,-0.896 -0.322,-1.113c-0.217,-0.203 -0.511,-0.308 -1.078,-0.308c-0.49,0 -0.952,0.119 -1.134,0.231c-0.028,0.014 -0.196,0.203 -0.217,0.238l-0.028,0l0,-2.156l-0.406,0l0,5.67l0.406,0l0,-3.353c0.287,-0.14 0.763,-0.273 1.246,-0.273c0.42,0 0.679,0.084 0.854,0.238c0.175,0.161 0.266,0.462 0.266,0.966l0,2.422l0.413,0Z" style="fill:#fff;fill-rule:nonzero;"/><path d="M156.736,92.81l0,-3.927l-0.406,0l0,3.927l0.406,0ZM156.799,87.546c0,-0.091 -0.014,-0.161 -0.063,-0.203c-0.035,-0.035 -0.098,-0.049 -0.182,-0.049c-0.091,0 -0.161,0.021 -0.182,0.049c-0.056,0.028 -0.084,0.105 -0.084,0.21c0,0.091 0.021,0.161 0.056,0.196c0.035,0.042 0.098,0.056 0.196,0.056c0.077,0 0.154,-0.014 0.196,-0.049c0.049,-0.035 0.063,-0.119 0.063,-0.21Z" style="fill:#fff;fill-rule:nonzero;"/><path d="M160.243,88.883l-1.456,0l0,-0.364c0,-0.735 0.14,-1.057 0.896,-1.057c0.308,0 0.546,0.035 0.693,0.042l0,-0.322c-0.119,-0.014 -0.448,-0.056 -0.735,-0.056c-0.854,0 -1.26,0.322 -1.26,1.33l0,0.427l-0.77,0l-0.049,0.343l0.819,0l0,3.584l0.406,0l0,-3.584l1.379,0l0.077,-0.343Z" style="fill:#fff;fill-rule:nonzero;"/><path d="M163.197,88.883l-1.47,0l0,-0.924l-0.406,0.105l0,0.819l-0.756,0l-0.056,0.343l0.812,0l0,2.695c0,0.679 0.287,0.931 0.987,0.931c0.301,0 0.63,-0.049 0.84,-0.091l0.035,-0.343c-0.154,0.021 -0.448,0.07 -0.77,0.07c-0.441,0 -0.686,-0.112 -0.686,-0.644l0,-2.618l1.393,0l0.077,-0.343Z" style="fill:#fff;fill-rule:nonzero;"/><path d="M163.61,93.629l0.357,0l0.875,-1.708l-0.448,0l-0.784,1.708Z" style="fill:#fff;fill-rule:nonzero;"/><path d="M172.577,90.759c0,-0.812 -0.175,-1.267 -0.462,-1.568c-0.245,-0.245 -0.658,-0.413 -1.253,-0.413c-0.623,0 -1.057,0.182 -1.337,0.448c-0.357,0.336 -0.56,0.952 -0.56,1.715c0,0.756 0.203,1.218 0.427,1.477c0.259,0.294 0.672,0.476 1.323,0.476c0.693,0 1.092,-0.189 1.365,-0.469c0.301,-0.315 0.497,-0.896 0.497,-1.666ZM170.757,92.544c-0.567,0 -0.868,-0.175 -1.057,-0.392c-0.196,-0.224 -0.329,-0.672 -0.329,-1.26c0,-0.714 0.217,-1.211 0.455,-1.428c0.182,-0.168 0.504,-0.322 0.987,-0.322c0.49,0 0.791,0.126 0.987,0.329c0.21,0.217 0.364,0.553 0.364,1.358c0,0.7 -0.175,1.134 -0.42,1.386c-0.203,0.203 -0.553,0.329 -0.987,0.329Z" style="fill:#fff;fill-rule:nonzero;"/><path d="M173.858,88.883l0,3.927l0.406,0l0,-3.304c0.238,-0.154 0.686,-0.315 1.162,-0.308c0.238,0 0.441,0.028 0.56,0.049l0,-0.392c-0.105,-0.014 -0.252,-0.028 -0.448,-0.028c-0.49,0 -0.847,0.133 -1.036,0.245c-0.014,0.014 -0.182,0.217 -0.203,0.245l-0.042,0l-0.098,-0.434l-0.301,0Z" style="fill:#fff;fill-rule:nonzero;"/><path d="M182.076,87.56l-4.144,0l-0.098,0.371l1.897,0l0,4.879l0.406,0l0,-4.879l1.855,0l0.084,-0.371Z" style="fill:#fff;fill-rule:nonzero;"/><path d="M181.915,90.878c0,1.337 0.469,2.009 1.778,2.009c0.539,0 1.043,-0.098 1.323,-0.168l0.028,-0.336c-0.273,0.042 -0.735,0.133 -1.302,0.133c-1.099,0 -1.407,-0.581 -1.407,-1.652l2.863,0l0,-0.483c0,-1.008 -0.371,-1.575 -1.491,-1.575c-1.232,0 -1.792,0.7 -1.792,2.072ZM183.665,89.142c0.847,0 1.134,0.399 1.134,1.267l0,0.14l-2.45,0c0.056,-0.931 0.413,-1.407 1.316,-1.407Z" style="fill:#fff;fill-rule:nonzero;"/><path d="M186.395,87.14l0,4.781c0,0.658 0.259,0.931 0.826,0.931c0.266,0 0.511,-0.042 0.679,-0.077l0,-0.322c-0.14,0.021 -0.329,0.049 -0.56,0.049c-0.329,0 -0.539,-0.119 -0.539,-0.623l0,-4.739l-0.406,0Z" style="fill:#fff;fill-rule:nonzero;"/><path d="M188.474,90.878c0,1.337 0.469,2.009 1.778,2.009c0.539,0 1.043,-0.098 1.323,-0.168l0.028,-0.336c-0.273,0.042 -0.735,0.133 -1.302,0.133c-1.099,0 -1.407,-0.581 -1.407,-1.652l2.863,0l0,-0.483c0,-1.008 -0.371,-1.575 -1.491,-1.575c-1.232,0 -1.792,0.7 -1.792,2.072ZM190.224,89.142c0.847,0 1.134,0.399 1.134,1.267l0,0.14l-2.45,0c0.056,-0.931 0.413,-1.407 1.316,-1.407Z" style="fill:#fff;fill-rule:nonzero;"/><path d="M193.374,92.74c0.315,0.07 0.679,0.133 1.148,0.133c0.595,0 0.987,-0.154 1.246,-0.406c0.329,-0.329 0.546,-0.917 0.546,-1.75c0,-0.889 -0.224,-1.372 -0.497,-1.603c-0.252,-0.224 -0.581,-0.315 -1.12,-0.315c-0.476,0 -0.931,0.112 -1.05,0.189c-0.042,0.021 -0.189,0.168 -0.245,0.245l-0.028,0l-0.098,-0.35l-0.308,0l0,5.838l0.406,0l0,-1.981ZM195.894,90.752c0,0.756 -0.182,1.246 -0.42,1.47c-0.217,0.217 -0.532,0.301 -1.022,0.301c-0.427,0 -0.805,-0.063 -1.078,-0.105l0,-3.031c0.35,-0.161 0.77,-0.231 1.176,-0.231c0.448,0 0.756,0.077 0.952,0.238c0.224,0.203 0.392,0.616 0.392,1.358Z" style="fill:#fff;fill-rule:nonzero;"/><path d="M200.395,92.81l0,-2.436c0,-0.77 -0.112,-1.064 -0.287,-1.253c-0.189,-0.217 -0.532,-0.308 -1.071,-0.308c-0.56,0 -1.141,0.119 -1.435,0.196l0,0.329c0.266,-0.049 0.875,-0.161 1.351,-0.161c0.441,0 0.7,0.07 0.826,0.217c0.133,0.161 0.217,0.441 0.217,1.12c-1.253,0.112 -2.051,0.259 -2.352,0.483c-0.154,0.098 -0.308,0.364 -0.308,0.805c0,0.364 0.084,0.609 0.224,0.763c0.161,0.182 0.455,0.315 1.001,0.315c0.679,0 1.099,-0.175 1.218,-0.259c0.035,-0.028 0.133,-0.161 0.189,-0.238l0.035,0l0.098,0.427l0.294,0ZM199.996,92.264c-0.21,0.105 -0.707,0.273 -1.302,0.273c-0.427,0 -0.679,-0.098 -0.798,-0.224c-0.098,-0.112 -0.161,-0.294 -0.161,-0.546c0,-0.294 0.07,-0.469 0.175,-0.56c0.161,-0.175 1.176,-0.322 2.086,-0.378l0,1.435Z" style="fill:#fff;fill-rule:nonzero;"/><path d="M203.965,88.883l-1.47,0l0,-0.924l-0.406,0.105l0,0.819l-0.756,0l-0.056,0.343l0.812,0l0,2.695c0,0.679 0.287,0.931 0.987,0.931c0.301,0 0.63,-0.049 0.84,-0.091l0.035,-0.343c-0.154,0.021 -0.448,0.07 -0.77,0.07c-0.441,0 -0.686,-0.112 -0.686,-0.644l0,-2.618l1.393,0l0.077,-0.343Z" style="fill:#fff;fill-rule:nonzero;"/><path d="M208.193,92.81l0,-2.562c0,-0.539 -0.105,-0.896 -0.322,-1.113c-0.217,-0.203 -0.511,-0.308 -1.078,-0.308c-0.49,0 -0.952,0.119 -1.134,0.231c-0.028,0.014 -0.196,0.203 -0.217,0.238l-0.028,0l0,-2.156l-0.406,0l0,5.67l0.406,0l0,-3.353c0.287,-0.14 0.763,-0.273 1.246,-0.273c0.42,0 0.679,0.084 0.854,0.238c0.175,0.161 0.266,0.462 0.266,0.966l0,2.422l0.413,0Z" style="fill:#fff;fill-rule:nonzero;"/><path d="M212.834,88.883l-0.441,0l-1.386,3.57l-0.182,0l-1.309,-3.57l-0.441,0l1.47,3.927l0.322,0l-0.77,1.918l0.427,0l2.31,-5.845Z" style="fill:#fff;fill-rule:nonzero;"/></g></svg>