<?xml version="1.0" encoding="utf-8"?>
<!-- Generator: Adobe Illustrator 16.0.2, SVG Export Plug-In . SVG Version: 6.00 Build 0)  -->
<!DOCTYPE svg PUBLIC "-//W3C//DTD SVG 1.1//EN" "http://www.w3.org/Graphics/SVG/1.1/DTD/svg11.dtd">
<svg version="1.1" id="Layer_1" xmlns="http://www.w3.org/2000/svg" xmlns:xlink="http://www.w3.org/1999/xlink" x="0px" y="0px"
	 width="612px" height="190px" viewBox="0 301 612 190" enable-background="new 0 301 612 190" xml:space="preserve">
<g id="primary">
	<path fill="#025EB2" d="M6.114,394.966l85.516,85.517l85.516-85.515l-85.519-85.519L6.114,394.966L6.114,394.966z"/>
	<path fill="#025EB2" d="M6.114,394.966l85.516,85.517l85.516-85.515l-85.519-85.519L6.114,394.966L6.114,394.966z"/>
	<path fill="#025EB2" d="M187.397,419.398l-12.113,12.111l115.162-0.002l-48.971,48.969l-134.64,0.005l61.133-61.083h-10.984
		l12.216-12.218h-8.443v-24.435h8.438l-12.216-12.216h10.988l-61.133-61.083l134.64,0.004l48.971,48.968l-115.162-0.002
		l12.113,12.113h115.155l12.216,12.216h4.27L306.82,370.53h0.006l-61.133-61.083l134.64,0.004l48.971,48.968l-115.161-0.002
		l12.112,12.113h115.171l12.216,12.216h4.271l-12.217-12.216h0.005l-61.134-61.083l134.641,0.004l48.973,48.968l-115.163-0.002
		l12.112,12.113H580.3l24.438,24.437l-24.432,24.431H465.131l-12.113,12.112l115.164-0.002l-48.973,48.969l-134.641,0.004
		l61.134-61.083l12.216-12.217h-4.271l-12.218,12.217H326.256l-12.112,12.112l115.161-0.002l-48.971,48.969l-134.64,0.004
		l61.133-61.083l12.217-12.217h-4.271l-12.216,12.217L187.397,419.398L187.397,419.398z"/>
	<g>
		<g>
			<path fill="#FFFFFF" d="M196.734,406.331v-1.539h6.671V384.93l-6.671,1.207v-1.539l8.391-1.48v21.674h6.038v1.539H196.734z"/>
			<path fill="#FFFFFF" d="M245.524,406.331h-15.545v-1.812c0.271-3.319,2.082-5.465,7.396-8.06
				c3.381-1.689,4.859-2.564,5.646-3.592c0.664-0.935,0.845-2.142,0.845-3.32c0-3.11-1.146-4.528-6.066-4.528
				c-2.688,0-5.583,0.664-6.913,0.965v-1.571c1.78-0.482,4.558-1.028,7.273-1.028c5.764,0,7.577,1.873,7.577,5.948
				c0,2.054-0.453,3.471-1.146,4.346c-1.177,1.539-3.502,2.717-6.46,4.166c-5.523,2.688-6.398,4.588-6.46,6.854h14.309
				L245.524,406.331L245.524,406.331z"/>
			<path fill="#FFFFFF" d="M277.413,393.502l-2.446,1.146v0.121l2.564,0.905c1.028,0.848,1.84,2.777,1.84,4.738
				c0,4.347-2.474,6.22-8.603,6.22c-2.534,0-4.769-0.332-6.099-0.634v-1.539c1.39,0.241,3.834,0.604,6.099,0.604
				c5.614,0,6.792-1.841,6.792-4.648c0-4.015-2.688-4.769-6.099-4.769h-4.316v-1.571h3.924c2.958,0,6.066-0.754,6.066-4.678
				c0-2.898-1.086-4.407-5.674-4.407c-2.416,0-4.739,0.483-6.31,0.815v-1.511c1.631-0.422,4.135-0.905,6.611-0.905
				c5.433,0,7.154,1.903,7.154,5.767C278.921,391.268,277.986,392.957,277.413,393.502L277.413,393.502z"/>
		</g>
		<g>
			<path fill="#FFFFFF" d="M359.266,406.331h-1.66v-6.429H345.98v-1.752l9.993-14.459h3.289v14.701h5.072l-0.454,1.512h-4.62
				L359.266,406.331L359.266,406.331z M357.606,398.392v-13.22h-0.817L347.945,398v0.392H357.606z"/>
			<path fill="#FFFFFF" d="M387.679,406.633c-2.08,0-4.282-0.302-5.854-0.543v-1.602c1.447,0.211,3.683,0.513,5.946,0.513
				c5.225,0,7.036-1.479,7.036-5.222c0-3.984-1.267-5.01-5.917-5.01c-2.143,0-5.041,0.453-6.368,0.634v-11.712h13.403v1.539h-11.83
				v8.512c1.268-0.211,3.016-0.543,5.343-0.543c5.254,0,7.185,1.39,7.185,6.337C396.615,404.308,394.412,406.633,387.679,406.633z"
				/>
			<path fill="#FFFFFF" d="M417.337,395.282h0.148l0.963-0.996c1.302-0.482,3.652-1.146,6.401-1.146
				c5.344,0,7.124,2.232,7.124,6.428c0,4.377-2.267,7.063-8.089,7.063c-6.338,0-8.304-4.015-8.304-10.687
				c0-4.196,1.18-7.215,2.959-9.116c2.084-2.174,5.404-3.532,11.229-3.592l0.602,1.602c-5.674,0.03-8.756,1.207-10.563,3.14
				C418.391,389.486,417.455,392.052,417.337,395.282L417.337,395.282z M424.275,394.709c-2.686,0-5.161,0.664-6.941,1.357
				c0.059,6.25,2.021,8.994,6.638,8.994c4.318,0,6.249-1.688,6.249-5.342C430.223,396.22,428.803,394.709,424.275,394.709z"/>
		</g>
		<g>
			<path fill="#FFFFFF" d="M494.617,385.714v-0.422h-13.609l0.483-1.601h15.061v1.994l-10.807,20.646h-1.961L494.617,385.714
				L494.617,385.714z"/>
			<path fill="#FFFFFF" d="M517.543,395.825l2.05-1.118v-0.151l-1.811-0.935c-0.784-0.785-1.541-1.903-1.541-3.984
				c0-3.653,2.293-6.28,7.604-6.28c5.284,0,7.245,2.353,7.245,5.734c0,2.144-0.907,3.441-1.752,4.347l-1.868,1.118v0.151
				l2.291,0.847c1.211,0.965,1.902,2.506,1.902,4.558c0,3.743-2.325,6.521-8.271,6.521c-5.61,0-7.939-2.234-7.939-6.065
				C515.459,398.633,516.243,397.032,517.543,395.825z M517.241,400.353c0,3.021,1.752,4.739,6.338,4.739
				c4.678,0,6.31-2.202,6.31-4.799c0-4.136-2.627-4.468-9.358-5.194C518.868,396.188,517.241,397.668,517.241,400.353z
				 M518.023,389.486c0,3.713,2.356,4.226,8.271,4.769c1.903-1.176,2.989-2.717,2.989-4.95c0-2.898-1.629-4.407-5.611-4.407
				C519.504,384.9,518.023,386.951,518.023,389.486L518.023,389.486z"/>
			<path fill="#FFFFFF" d="M564.34,394.77h-0.148l-0.939,0.996c-1.236,0.513-3.56,1.119-6.156,1.119
				c-5.401,0-7.306-2.175-7.306-6.34c0-4.769,2.991-7.155,8.058-7.155c5.917,0,8.24,3.291,8.24,10.475
				c0,4.315-1.175,7.485-2.958,9.355c-1.992,2.175-5.4,3.473-11.26,3.594l-0.575-1.661c5.585-0.03,8.844-1.146,10.596-3.051
				C563.253,400.566,564.249,398.03,564.34,394.77z M557.489,395.313c2.717,0,5.163-0.633,6.853-1.267
				c-0.059-6.4-1.899-9.085-6.606-9.085c-4.227,0-6.191,2.021-6.191,5.465C551.543,393.804,553.05,395.313,557.489,395.313
				L557.489,395.313z"/>
		</g>
	</g>
	<g id="v">
		<rect x="172.662" y="440.458" fill="#FFFFFF" width="0.955" height="12.122"/>
		<path fill="#FFFFFF" d="M184.524,452.58v-5.931c0-1.229-0.259-2.055-0.761-2.521c-0.485-0.484-1.179-0.743-2.359-0.743
			c-1.146,0-2.31,0.323-2.748,0.564c-0.047,0.032-0.42,0.453-0.468,0.518h-0.082l-0.258-0.953h-0.679v9.066h0.938v-7.758
			c0.711-0.291,1.73-0.598,2.894-0.598c0.841,0,1.552,0.161,1.955,0.55c0.405,0.388,0.631,1.05,0.631,2.197v5.607L184.524,452.58
			L184.524,452.58z"/>
		<path fill="#FFFFFF" d="M194.205,443.69c-0.759-0.193-1.502-0.339-2.586-0.339c-1.373,0-2.295,0.323-2.941,0.952
			c-0.791,0.744-1.244,2.185-1.244,4.009c0,2.068,0.517,3.199,1.146,3.734c0.567,0.468,1.39,0.727,2.668,0.727
			c1.243,0,2.068-0.273,2.342-0.452c0.097-0.064,0.405-0.42,0.567-0.598h0.047l0.226,0.855h0.729v-13.171h-0.955L194.205,443.69
			L194.205,443.69z M188.403,448.248c0-1.745,0.403-2.859,0.953-3.376c0.517-0.485,1.26-0.712,2.392-0.712
			c1.002,0,1.842,0.162,2.457,0.242v6.999c-0.808,0.388-1.793,0.549-2.698,0.549c-0.955,0-1.763-0.211-2.183-0.581
			C188.824,450.932,188.403,450.026,188.403,448.248z"/>
		<path fill="#FFFFFF" d="M205.891,452.58v-9.066h-0.938v7.741c-0.729,0.323-1.778,0.599-2.829,0.599
			c-0.985,0-1.664-0.16-2.052-0.565c-0.373-0.388-0.599-1.019-0.599-2.246v-5.527h-0.938v5.884c0,1.243,0.276,2.005,0.744,2.505
			c0.502,0.517,1.181,0.793,2.489,0.793c1.131,0,2.198-0.276,2.651-0.502c0.032-0.017,0.42-0.519,0.452-0.582h0.097l0.244,0.97
			h0.679V452.58z"/>
		<path fill="#FFFFFF" d="M213.275,444.128c1.067,0,1.907,0.13,2.474,0.209v-0.808c-0.599-0.112-1.487-0.26-2.571-0.26
			c-1.358,0-2.375,0.323-3.071,1.003c-0.855,0.793-1.293,2.183-1.293,3.992c0,1.584,0.373,2.846,1.213,3.62
			c0.629,0.598,1.599,0.889,2.876,0.889c1.276,0,2.213-0.227,2.845-0.402v-0.729c-0.631,0.098-1.552,0.275-2.7,0.275
			c-0.985,0-1.778-0.193-2.31-0.695c-0.631-0.582-0.938-1.584-0.938-3.07c0-1.553,0.338-2.698,1.002-3.313
			C211.321,444.337,212.177,444.128,213.275,444.128L213.275,444.128z"/>
		<path fill="#FFFFFF" d="M217.769,448.119c0,3.088,1.084,4.64,4.105,4.64c1.246,0,2.409-0.227,3.056-0.388l0.065-0.776
			c-0.631,0.099-1.698,0.308-3.006,0.308c-2.539,0-3.25-1.342-3.25-3.814h6.611v-1.114c0-2.326-0.857-3.638-3.443-3.638
			C219.062,443.335,217.769,444.951,217.769,448.119z M221.809,444.111c1.957,0,2.618,0.922,2.618,2.926v0.323h-5.657
			C218.9,445.21,219.725,444.111,221.809,444.111z"/>
		<path fill="#FFFFFF" d="M174.625,456.767c-0.84-0.146-1.778-0.308-3.232-0.308c-2.101,0-3.25,0.484-4.041,1.163
			c-0.744,0.6-1.795,2.151-1.795,5.254c0,2.602,0.646,4.088,1.39,4.816c0.84,0.791,1.875,1.211,3.943,1.211
			c1.39,0,2.748-0.228,3.734-0.484v-0.809c-0.857,0.161-2.166,0.404-3.555,0.404c-1.698,0-2.733-0.341-3.362-0.97
			c-0.761-0.761-1.164-2.28-1.164-4.316c0-2.295,0.743-3.894,1.487-4.492c0.662-0.518,1.631-0.889,3.376-0.889
			c1.537,0,2.377,0.146,3.217,0.241v-0.822H174.625z"/>
		<path fill="#FFFFFF" d="M183.837,468.742v-5.625c0-1.777-0.258-2.456-0.664-2.893c-0.436-0.502-1.229-0.711-2.472-0.711
			c-1.293,0-2.636,0.273-3.314,0.452v0.759c0.614-0.111,2.021-0.371,3.121-0.371c1.017,0,1.616,0.162,1.907,0.5
			c0.306,0.373,0.5,1.021,0.5,2.587c-2.892,0.259-4.734,0.6-5.43,1.115c-0.355,0.228-0.711,0.842-0.711,1.857
			c0,0.841,0.194,1.407,0.518,1.763c0.373,0.421,1.051,0.728,2.312,0.728c1.567,0,2.537-0.403,2.812-0.598
			c0.08-0.063,0.306-0.373,0.436-0.55h0.082l0.226,0.985L183.837,468.742L183.837,468.742z M182.915,467.481
			c-0.485,0.242-1.631,0.631-3.006,0.631c-0.985,0-1.567-0.227-1.843-0.518c-0.226-0.259-0.371-0.679-0.371-1.261
			c0-0.679,0.162-1.084,0.403-1.293c0.373-0.405,2.715-0.743,4.816-0.873L182.915,467.481L182.915,467.481z"/>
		<path fill="#FFFFFF" d="M192.709,466.253c0-0.614-0.145-1.132-0.468-1.502c-0.34-0.388-1.034-0.664-2.359-0.97
			c-1.229-0.276-1.795-0.502-2.069-0.825c-0.211-0.241-0.276-0.582-0.276-0.921c0-1.148,0.549-1.795,2.457-1.795
			c0.955,0,1.713,0.098,2.409,0.212v-0.776c-0.549-0.114-1.422-0.243-2.424-0.243c-2.409,0-3.362,0.987-3.362,2.65
			c0,0.518,0.112,1.052,0.403,1.39c0.453,0.567,1.213,0.81,2.489,1.116c1.099,0.259,1.713,0.468,2.004,0.791
			c0.194,0.259,0.276,0.6,0.276,0.938c0,1.147-0.517,1.729-2.553,1.729c-0.987,0-1.989-0.146-2.651-0.274v0.793
			c0.646,0.16,1.746,0.291,2.651,0.291C191.983,468.856,192.709,467.854,192.709,466.253L192.709,466.253z"/>
		<path fill="#FFFFFF" d="M199.271,460.29c1.067,0,1.907,0.13,2.474,0.209v-0.808c-0.599-0.112-1.487-0.26-2.571-0.26
			c-1.358,0-2.375,0.323-3.071,1.002c-0.855,0.793-1.293,2.184-1.293,3.993c0,1.584,0.373,2.846,1.213,3.62
			c0.629,0.597,1.599,0.888,2.877,0.888c1.276,0,2.213-0.227,2.845-0.401v-0.729c-0.631,0.098-1.552,0.275-2.7,0.275
			c-0.985,0-1.778-0.193-2.31-0.696c-0.631-0.581-0.938-1.583-0.938-3.07c0-1.552,0.338-2.697,1.002-3.313
			C197.316,460.499,198.172,460.29,199.271,460.29L199.271,460.29z"/>
		<path fill="#FFFFFF" d="M210.843,468.742v-5.625c0-1.777-0.259-2.456-0.662-2.893c-0.438-0.502-1.229-0.711-2.474-0.711
			c-1.293,0-2.633,0.273-3.312,0.452v0.759c0.614-0.111,2.019-0.371,3.118-0.371c1.02,0,1.616,0.162,1.907,0.5
			c0.308,0.373,0.502,1.021,0.502,2.587c-2.894,0.259-4.736,0.6-5.43,1.115c-0.355,0.228-0.711,0.842-0.711,1.857
			c0,0.841,0.194,1.407,0.518,1.763c0.371,0.421,1.049,0.728,2.31,0.728c1.568,0,2.538-0.403,2.812-0.598
			c0.082-0.063,0.308-0.373,0.438-0.55h0.08l0.227,0.985L210.843,468.742L210.843,468.742z M209.922,467.481
			c-0.485,0.242-1.633,0.631-3.006,0.631c-0.987,0-1.569-0.227-1.843-0.518c-0.226-0.259-0.373-0.679-0.373-1.261
			c0-0.679,0.162-1.084,0.405-1.293c0.371-0.405,2.715-0.743,4.816-0.873L209.922,467.481L209.922,467.481z"/>
		<path fill="#FFFFFF" d="M220.557,459.853c-0.761-0.192-1.504-0.338-2.586-0.338c-1.375,0-2.295,0.323-2.941,0.952
			c-0.793,0.743-1.246,2.184-1.246,4.008c0,2.069,0.517,3.2,1.148,3.735c0.564,0.467,1.39,0.726,2.666,0.726
			c1.246,0,2.069-0.272,2.345-0.451c0.097-0.064,0.403-0.422,0.564-0.598h0.05l0.226,0.855h0.727v-13.171h-0.953V459.853z
			 M214.754,464.41c0-1.745,0.405-2.859,0.955-3.377c0.517-0.484,1.261-0.711,2.392-0.711c1.002,0,1.842,0.162,2.457,0.24v7
			c-0.808,0.389-1.795,0.55-2.7,0.55c-0.953,0-1.761-0.211-2.181-0.582C215.174,467.094,214.754,466.188,214.754,464.41z"/>
		<path fill="#FFFFFF" d="M224.468,464.281c0,3.088,1.082,4.64,4.105,4.64c1.244,0,2.407-0.227,3.054-0.388l0.064-0.776
			c-0.629,0.097-1.696,0.307-3.006,0.307c-2.537,0-3.248-1.341-3.248-3.813h6.609v-1.114c0-2.327-0.856-3.638-3.441-3.638
			C225.761,459.497,224.468,461.113,224.468,464.281L224.468,464.281z M228.509,460.272c1.955,0,2.618,0.923,2.618,2.927v0.323
			h-5.657C225.6,461.372,226.423,460.272,228.509,460.272z"/>
	</g>
	<g>
		<g id="v3">
			<path fill="#FFFFFF" d="M173.864,330.115l-4.525-12.122h-1.729l-4.849,12.122h0.985l1.633-4.138h5.916l1.519,4.138H173.864
				L173.864,330.115z M171.004,325.137h-5.318l2.489-6.256h0.518L171.004,325.137L171.004,325.137z"/>
			<path fill="#FFFFFF" d="M183.514,330.115v-9.068h-0.937v7.743c-0.729,0.323-1.778,0.597-2.83,0.597
				c-0.985,0-1.664-0.162-2.052-0.564c-0.373-0.388-0.599-1.02-0.599-2.248v-5.527h-0.937v5.883c0,1.246,0.276,2.004,0.743,2.506
				c0.502,0.517,1.181,0.791,2.489,0.791c1.131,0,2.198-0.273,2.65-0.5c0.032-0.017,0.42-0.517,0.453-0.582h0.097l0.244,0.97
				L183.514,330.115L183.514,330.115z"/>
			<path fill="#FFFFFF" d="M190.172,325.96l2.554,4.155h1.082l-2.877-4.575l2.974-4.493h-1.049l-2.65,4.058h-0.744l-2.441-4.058
				h-1.067l2.765,4.493l-2.958,4.575h1.066l2.619-4.155H190.172L190.172,325.96z"/>
			<path fill="#FFFFFF" d="M197.122,330.115v-9.068h-0.938v9.068H197.122z M197.267,317.961c0-0.211-0.032-0.373-0.145-0.47
				c-0.082-0.08-0.226-0.112-0.42-0.112c-0.211,0-0.373,0.047-0.42,0.112c-0.129,0.064-0.194,0.244-0.194,0.485
				c0,0.211,0.047,0.373,0.129,0.453c0.08,0.097,0.226,0.129,0.452,0.129c0.177,0,0.356-0.032,0.453-0.112
				C197.234,318.364,197.267,318.17,197.267,317.961z"/>
			<path fill="#FFFFFF" d="M200.484,317.024v11.038c0,1.519,0.597,2.15,1.907,2.15c0.614,0,1.179-0.097,1.566-0.179v-0.743
				c-0.323,0.049-0.758,0.114-1.293,0.114c-0.758,0-1.243-0.276-1.243-1.44v-10.94H200.484z"/>
			<path fill="#FFFFFF" d="M206.834,330.115v-9.068h-0.938v9.068H206.834z M206.981,317.961c0-0.211-0.032-0.373-0.146-0.47
				c-0.08-0.08-0.226-0.112-0.42-0.112c-0.209,0-0.371,0.047-0.42,0.112c-0.129,0.064-0.194,0.244-0.194,0.485
				c0,0.211,0.049,0.373,0.129,0.453c0.082,0.097,0.227,0.129,0.453,0.129c0.179,0,0.355-0.032,0.453-0.112
				C206.949,318.364,206.981,318.17,206.981,317.961z"/>
			<path fill="#FFFFFF" d="M216.71,330.115v-5.625c0-1.778-0.258-2.457-0.664-2.894c-0.436-0.5-1.229-0.711-2.472-0.711
				c-1.293,0-2.636,0.276-3.314,0.452v0.761c0.614-0.114,2.021-0.373,3.121-0.373c1.017,0,1.616,0.162,1.907,0.502
				c0.306,0.371,0.5,1.017,0.5,2.586c-2.892,0.259-4.734,0.597-5.43,1.114c-0.355,0.226-0.711,0.84-0.711,1.86
				c0,0.84,0.194,1.405,0.518,1.76c0.373,0.42,1.051,0.729,2.312,0.729c1.566,0,2.536-0.405,2.812-0.599
				c0.08-0.064,0.306-0.371,0.436-0.549h0.082l0.226,0.987H216.71L216.71,330.115z M215.788,328.854
				c-0.485,0.241-1.631,0.629-3.006,0.629c-0.985,0-1.567-0.227-1.843-0.517c-0.226-0.259-0.371-0.679-0.371-1.261
				c0-0.679,0.162-1.082,0.403-1.293c0.373-0.403,2.715-0.744,4.816-0.873L215.788,328.854L215.788,328.854z"/>
			<path fill="#FFFFFF" d="M220.12,321.047v9.068h0.938v-7.628c0.549-0.355,1.583-0.729,2.683-0.711c0.55,0,1.02,0.065,1.293,0.112
				v-0.905c-0.241-0.032-0.582-0.064-1.034-0.064c-1.131,0-1.955,0.308-2.392,0.567c-0.032,0.032-0.42,0.5-0.468,0.564h-0.097
				l-0.227-1.002L220.12,321.047L220.12,321.047z"/>
			<path fill="#FFFFFF" d="M234.568,321.047h-1.017l-3.2,8.243h-0.42l-3.023-8.243h-1.017l3.394,9.068h0.743l-1.778,4.428h0.985
				L234.568,321.047z"/>
			<path fill="#FFFFFF" d="M187.789,346.277v-12.122h-0.89v11.119h-0.306l-6.902-11.119h-1.681v12.122h0.89V335.06h0.291
				l6.965,11.217H187.789L187.789,346.277z"/>
			<path fill="#FFFFFF" d="M199.279,341.541c0-1.875-0.403-2.924-1.067-3.62c-0.564-0.564-1.519-0.953-2.892-0.953
				c-1.439,0-2.442,0.42-3.088,1.034c-0.823,0.776-1.293,2.198-1.293,3.959c0,1.745,0.47,2.812,0.987,3.411
				c0.597,0.679,1.551,1.099,3.053,1.099c1.601,0,2.521-0.438,3.153-1.084C198.827,344.661,199.279,343.318,199.279,341.541
				L199.279,341.541z M195.077,345.663c-1.308,0-2.004-0.405-2.439-0.905c-0.453-0.517-0.761-1.551-0.761-2.909
				c0-1.648,0.502-2.797,1.052-3.297c0.42-0.388,1.164-0.744,2.278-0.744c1.131,0,1.827,0.291,2.28,0.759
				c0.485,0.502,0.84,1.278,0.84,3.135c0,1.616-0.405,2.618-0.97,3.2C196.887,345.372,196.079,345.663,195.077,345.663z"/>
			<path fill="#FFFFFF" d="M208.541,337.388c-0.761-0.194-1.504-0.341-2.586-0.341c-1.375,0-2.295,0.323-2.941,0.955
				c-0.793,0.744-1.246,2.181-1.246,4.008c0,2.069,0.517,3.2,1.149,3.732c0.564,0.47,1.39,0.729,2.666,0.729
				c1.246,0,2.069-0.276,2.344-0.453c0.097-0.064,0.403-0.42,0.565-0.599h0.049l0.227,0.858h0.726v-13.173h-0.953V337.388z
				 M202.738,341.946c0-1.746,0.405-2.862,0.955-3.379c0.518-0.485,1.261-0.711,2.392-0.711c1.002,0,1.843,0.162,2.457,0.244v6.997
				c-0.808,0.388-1.795,0.549-2.7,0.549c-0.952,0-1.76-0.209-2.181-0.582C203.158,344.628,202.738,343.724,202.738,341.946z"/>
			<path fill="#FFFFFF" d="M212.452,341.816c0,3.086,1.082,4.638,4.105,4.638c1.243,0,2.407-0.227,3.053-0.388l0.065-0.776
				c-0.629,0.097-1.696,0.308-3.006,0.308c-2.536,0-3.248-1.342-3.248-3.814h6.609v-1.116c0-2.328-0.855-3.635-3.441-3.635
				C213.745,337.033,212.452,338.648,212.452,341.816L212.452,341.816z M216.493,337.808c1.955,0,2.618,0.92,2.618,2.924v0.323
				h-5.656C213.583,338.907,214.407,337.808,216.493,337.808z"/>
		</g>
		<g id="v4">
			<path fill="#FFFFFF" d="M312.724,330.122L308.198,318h-1.729l-4.849,12.122h0.985l1.633-4.137h5.916l1.52,4.137H312.724
				L312.724,330.122z M309.864,325.144h-5.319l2.489-6.253h0.518L309.864,325.144z"/>
			<path fill="#FFFFFF" d="M322.373,330.122v-9.066h-0.938v7.741c-0.729,0.323-1.776,0.599-2.828,0.599
				c-0.985,0-1.664-0.162-2.053-0.567c-0.373-0.388-0.599-1.017-0.599-2.246v-5.527h-0.938v5.883c0,1.243,0.275,2.004,0.743,2.504
				c0.502,0.517,1.182,0.793,2.489,0.793c1.131,0,2.198-0.276,2.65-0.502c0.031-0.015,0.42-0.517,0.451-0.582h0.099l0.243,0.97
				H322.373L322.373,330.122z"/>
			<path fill="#FFFFFF" d="M329.032,325.969l2.554,4.152h1.081l-2.877-4.573l2.975-4.493h-1.05l-2.649,4.056h-0.744l-2.441-4.056
				h-1.065l2.765,4.493l-2.959,4.573h1.066l2.618-4.152H329.032z"/>
			<path fill="#FFFFFF" d="M335.981,330.122v-9.066h-0.938v9.066H335.981z M336.126,317.968c0-0.209-0.032-0.371-0.145-0.468
				c-0.082-0.082-0.228-0.114-0.421-0.114c-0.212,0-0.372,0.05-0.421,0.114c-0.129,0.065-0.192,0.242-0.192,0.485
				c0,0.209,0.047,0.371,0.129,0.453c0.08,0.097,0.227,0.129,0.453,0.129c0.177,0,0.354-0.032,0.452-0.114
				C336.094,318.373,336.126,318.179,336.126,317.968z"/>
			<path fill="#FFFFFF" d="M339.344,317.03v11.04c0,1.519,0.598,2.148,1.906,2.148c0.614,0,1.179-0.097,1.567-0.177v-0.744
				c-0.323,0.047-0.76,0.112-1.293,0.112c-0.76,0-1.244-0.274-1.244-1.438V317.03H339.344z"/>
			<path fill="#FFFFFF" d="M345.693,330.122v-9.066h-0.938v9.066H345.693z M345.841,317.968c0-0.209-0.033-0.371-0.146-0.468
				c-0.079-0.082-0.227-0.114-0.42-0.114c-0.209,0-0.37,0.05-0.421,0.114c-0.13,0.065-0.193,0.242-0.193,0.485
				c0,0.209,0.05,0.371,0.13,0.453c0.082,0.097,0.226,0.129,0.452,0.129c0.179,0,0.354-0.032,0.452-0.114
				C345.808,318.373,345.841,318.179,345.841,317.968z"/>
			<path fill="#FFFFFF" d="M355.57,330.122v-5.625c0-1.778-0.26-2.457-0.664-2.892c-0.437-0.502-1.229-0.711-2.473-0.711
				c-1.293,0-2.636,0.274-3.313,0.453v0.759c0.614-0.112,2.021-0.371,3.12-0.371c1.018,0,1.616,0.162,1.907,0.5
				c0.306,0.373,0.5,1.02,0.5,2.586c-2.893,0.259-4.734,0.599-5.432,1.116c-0.354,0.227-0.711,0.841-0.711,1.858
				c0,0.84,0.194,1.407,0.519,1.763c0.373,0.42,1.052,0.726,2.312,0.726c1.567,0,2.537-0.403,2.813-0.597
				c0.08-0.065,0.306-0.373,0.436-0.55h0.082l0.226,0.985H355.57L355.57,330.122z M354.647,328.861
				c-0.484,0.244-1.632,0.631-3.007,0.631c-0.984,0-1.565-0.226-1.843-0.517c-0.227-0.258-0.37-0.679-0.37-1.261
				c0-0.679,0.161-1.083,0.402-1.292c0.373-0.405,2.716-0.744,4.816-0.873L354.647,328.861L354.647,328.861z"/>
			<path fill="#FFFFFF" d="M358.979,321.056v9.066h0.938v-7.628c0.55-0.355,1.584-0.726,2.684-0.711c0.55,0,1.02,0.064,1.293,0.114
				v-0.905c-0.241-0.032-0.582-0.064-1.034-0.064c-1.132,0-1.954,0.306-2.393,0.564c-0.032,0.032-0.42,0.502-0.468,0.567h-0.097
				l-0.228-1.002L358.979,321.056L358.979,321.056z"/>
			<path fill="#FFFFFF" d="M373.428,321.056h-1.018l-3.199,8.243h-0.421l-3.023-8.243h-1.017l3.394,9.066h0.744l-1.777,4.428h0.984
				L373.428,321.056z"/>
			<path fill="#FFFFFF" d="M326.648,346.284v-12.122h-0.891v11.12h-0.307l-6.901-11.12h-1.682v12.122h0.891v-11.216h0.291
				l6.964,11.216H326.648L326.648,346.284z"/>
			<path fill="#FFFFFF" d="M338.139,341.549c0-1.875-0.402-2.926-1.065-3.621c-0.564-0.566-1.521-0.955-2.894-0.955
				c-1.438,0-2.44,0.42-3.088,1.035c-0.823,0.776-1.293,2.198-1.293,3.96c0,1.746,0.47,2.813,0.987,3.409
				c0.597,0.679,1.552,1.099,3.054,1.099c1.602,0,2.521-0.435,3.152-1.082C337.688,344.667,338.139,343.327,338.139,341.549z
				 M333.938,345.669c-1.309,0-2.005-0.403-2.439-0.905c-0.452-0.517-0.761-1.551-0.761-2.909c0-1.649,0.502-2.795,1.052-3.297
				c0.42-0.388,1.164-0.743,2.277-0.743c1.132,0,1.828,0.291,2.279,0.76c0.485,0.5,0.842,1.276,0.842,3.136
				c0,1.616-0.405,2.618-0.971,3.2C335.747,345.378,334.938,345.669,333.938,345.669L333.938,345.669z"/>
			<path fill="#FFFFFF" d="M347.4,337.395c-0.762-0.194-1.504-0.338-2.586-0.338c-1.375,0-2.296,0.323-2.941,0.953
				c-0.793,0.743-1.245,2.183-1.245,4.008c0,2.069,0.517,3.2,1.148,3.735c0.563,0.467,1.39,0.726,2.665,0.726
				c1.246,0,2.068-0.273,2.345-0.453c0.098-0.064,0.403-0.42,0.563-0.597h0.051l0.227,0.855h0.726v-13.171H347.4V337.395
				L347.4,337.395z M341.598,341.952c0-1.746,0.404-2.859,0.954-3.377c0.519-0.484,1.261-0.711,2.394-0.711
				c1.002,0,1.842,0.162,2.456,0.241v7c-0.809,0.388-1.795,0.549-2.7,0.549c-0.952,0-1.761-0.211-2.182-0.582
				C342.018,344.635,341.598,343.73,341.598,341.952z"/>
			<path fill="#FFFFFF" d="M351.313,341.823c0,3.088,1.081,4.64,4.104,4.64c1.243,0,2.407-0.226,3.054-0.388l0.064-0.776
				c-0.629,0.097-1.696,0.306-3.006,0.306c-2.537,0-3.248-1.34-3.248-3.814h6.608v-1.114c0-2.327-0.854-3.637-3.44-3.637
				C352.604,337.039,351.313,338.655,351.313,341.823z M355.353,337.815c1.954,0,2.618,0.922,2.618,2.926v0.323h-5.656
				C352.443,338.914,353.267,337.815,355.353,337.815z"/>
		</g>
		<g id="v5">
			<path fill="#FFFFFF" d="M452.735,330.122L448.21,318h-1.729l-4.85,12.122h0.987l1.632-4.137h5.915l1.519,4.137H452.735z
				 M449.874,325.144h-5.316l2.489-6.253h0.518L449.874,325.144L449.874,325.144z"/>
			<path fill="#FFFFFF" d="M462.383,330.122v-9.066h-0.937v7.741c-0.728,0.323-1.778,0.599-2.828,0.599
				c-0.986,0-1.665-0.162-2.053-0.567c-0.371-0.388-0.599-1.017-0.599-2.246v-5.527h-0.938v5.883c0,1.243,0.273,2.004,0.744,2.504
				c0.5,0.517,1.179,0.793,2.487,0.793c1.132,0,2.198-0.276,2.651-0.502c0.032-0.015,0.42-0.517,0.452-0.582h0.097l0.241,0.97
				H462.383L462.383,330.122z"/>
			<path fill="#FFFFFF" d="M469.042,325.969l2.554,4.152h1.084l-2.877-4.573l2.975-4.493h-1.053l-2.649,4.056h-0.743l-2.439-4.056
				h-1.065l2.763,4.493l-2.957,4.573h1.066l2.618-4.152H469.042z"/>
			<path fill="#FFFFFF" d="M475.991,330.122v-9.066h-0.938v9.066H475.991z M476.139,317.968c0-0.209-0.032-0.371-0.146-0.468
				c-0.079-0.082-0.227-0.114-0.42-0.114c-0.209,0-0.37,0.05-0.42,0.114c-0.131,0.065-0.194,0.242-0.194,0.485
				c0,0.209,0.05,0.371,0.13,0.453c0.081,0.097,0.227,0.129,0.452,0.129c0.179,0,0.354-0.032,0.452-0.114
				C476.105,318.373,476.139,318.179,476.139,317.968z"/>
			<path fill="#FFFFFF" d="M479.354,317.03v11.04c0,1.519,0.6,2.148,1.907,2.148c0.614,0,1.182-0.097,1.568-0.177v-0.744
				c-0.323,0.047-0.761,0.112-1.293,0.112c-0.761,0-1.245-0.274-1.245-1.438V317.03H479.354L479.354,317.03z"/>
			<path fill="#FFFFFF" d="M485.706,330.122v-9.066h-0.938v9.066H485.706z M485.851,317.968c0-0.209-0.031-0.371-0.145-0.468
				c-0.082-0.082-0.227-0.114-0.42-0.114c-0.212,0-0.373,0.05-0.421,0.114c-0.129,0.065-0.193,0.242-0.193,0.485
				c0,0.209,0.047,0.371,0.129,0.453c0.08,0.097,0.228,0.129,0.453,0.129c0.177,0,0.355-0.032,0.452-0.114
				C485.818,318.373,485.851,318.179,485.851,317.968z"/>
			<path fill="#FFFFFF" d="M495.58,330.122v-5.625c0-1.778-0.259-2.457-0.662-2.892c-0.438-0.502-1.228-0.711-2.474-0.711
				c-1.293,0-2.634,0.274-3.313,0.453v0.759c0.613-0.112,2.02-0.371,3.118-0.371c1.019,0,1.616,0.162,1.906,0.5
				c0.309,0.373,0.503,1.02,0.503,2.586c-2.896,0.259-4.737,0.599-5.432,1.116c-0.354,0.227-0.711,0.841-0.711,1.858
				c0,0.84,0.193,1.407,0.518,1.763c0.371,0.42,1.05,0.726,2.311,0.726c1.568,0,2.538-0.403,2.813-0.597
				c0.082-0.065,0.309-0.373,0.438-0.55h0.08l0.228,0.985H495.58L495.58,330.122z M494.66,328.861
				c-0.485,0.244-1.634,0.631-3.007,0.631c-0.986,0-1.568-0.226-1.843-0.517c-0.227-0.258-0.372-0.679-0.372-1.261
				c0-0.679,0.16-1.083,0.404-1.292c0.37-0.405,2.715-0.744,4.816-0.873L494.66,328.861L494.66,328.861z"/>
			<path fill="#FFFFFF" d="M498.991,321.056v9.066h0.938v-7.628c0.55-0.355,1.584-0.726,2.684-0.711c0.55,0,1.018,0.064,1.293,0.114
				v-0.905c-0.243-0.032-0.582-0.064-1.034-0.064c-1.132,0-1.957,0.306-2.393,0.564c-0.032,0.032-0.421,0.502-0.47,0.567h-0.098
				l-0.227-1.002L498.991,321.056L498.991,321.056z"/>
			<path fill="#FFFFFF" d="M513.44,321.056h-1.021l-3.2,8.243h-0.42l-3.021-8.243h-1.021l3.396,9.066h0.742l-1.777,4.428h0.986
				L513.44,321.056L513.44,321.056z"/>
			<path fill="#FFFFFF" d="M466.658,346.284v-12.122h-0.891v11.12h-0.306l-6.902-11.12h-1.681v12.122h0.89v-11.216h0.291
				l6.966,11.216H466.658L466.658,346.284z"/>
			<path fill="#FFFFFF" d="M478.148,341.549c0-1.875-0.402-2.926-1.066-3.621c-0.564-0.566-1.52-0.955-2.892-0.955
				c-1.439,0-2.441,0.42-3.089,1.035c-0.822,0.776-1.293,2.198-1.293,3.96c0,1.746,0.471,2.813,0.986,3.409
				c0.597,0.679,1.552,1.099,3.054,1.099c1.603,0,2.521-0.435,3.152-1.082C477.696,344.667,478.148,343.327,478.148,341.549z
				 M473.946,345.669c-1.309,0-2.004-0.403-2.439-0.905c-0.452-0.517-0.761-1.551-0.761-2.909c0-1.649,0.503-2.795,1.052-3.297
				c0.421-0.388,1.164-0.743,2.278-0.743c1.131,0,1.827,0.291,2.279,0.76c0.484,0.5,0.841,1.276,0.841,3.136
				c0,1.616-0.405,2.618-0.971,3.2C475.757,345.378,474.948,345.669,473.946,345.669L473.946,345.669z"/>
			<path fill="#FFFFFF" d="M487.41,337.395c-0.76-0.194-1.504-0.338-2.586-0.338c-1.374,0-2.295,0.323-2.941,0.953
				c-0.793,0.743-1.245,2.183-1.245,4.008c0,2.069,0.519,3.2,1.148,3.735c0.563,0.467,1.39,0.726,2.666,0.726
				c1.245,0,2.067-0.273,2.345-0.453c0.097-0.064,0.402-0.42,0.564-0.597h0.049l0.227,0.855h0.728v-13.171h-0.953L487.41,337.395
				L487.41,337.395z M481.607,341.952c0-1.746,0.404-2.859,0.953-3.377c0.519-0.484,1.262-0.711,2.394-0.711
				c1.002,0,1.843,0.162,2.456,0.241v7c-0.809,0.388-1.795,0.549-2.699,0.549c-0.953,0-1.761-0.211-2.182-0.582
				C482.027,344.635,481.607,343.73,481.607,341.952z"/>
			<path fill="#FFFFFF" d="M491.322,341.823c0,3.088,1.081,4.64,4.104,4.64c1.243,0,2.407-0.226,3.055-0.388l0.063-0.776
				c-0.629,0.097-1.695,0.306-3.006,0.306c-2.536,0-3.248-1.34-3.248-3.814h6.609v-1.114c0-2.327-0.855-3.637-3.441-3.637
				C492.614,337.039,491.322,338.655,491.322,341.823z M495.362,337.815c1.954,0,2.618,0.922,2.618,2.926v0.323h-5.656
				C492.453,338.914,493.276,337.815,495.362,337.815z"/>
		</g>
	</g>
</g>
<g id="Text">
	<g>
		<path fill="#FFFFFF" d="M66.212,374.789c-2.689-0.311-5.379-0.776-10.292-0.776c-5.585,0-8.688,1.189-10.809,2.845
			c-2.379,1.914-4.758,7.036-4.758,14.38c0,6.516,1.293,11.377,3.726,13.809c2.017,2.02,5.327,3.104,10.757,3.104
			c4.448,0,8.637-0.778,11.378-1.295v2.58c-3.155,0.832-7.499,1.558-11.947,1.558c-6.62,0-9.93-1.345-12.619-3.882
			c-2.379-2.327-4.448-7.085-4.448-15.412c0-9.93,3.361-14.897,5.741-16.811c2.534-2.172,6.206-3.724,12.93-3.724
			c4.654,0,7.654,0.517,10.343,0.982L66.212,374.789L66.212,374.789z"/>
		<path fill="#FFFFFF" d="M102.312,410.479V392.22H78.416v18.257h-3.051v-38.792h3.051v17.739h23.896v-17.739h3v38.791
			L102.312,410.479z"/>
		<path fill="#FFFFFF" d="M145.288,410.479l-4.862-13.24h-18.931l-5.224,13.24h-3.155l15.515-38.791h5.534l14.483,38.791H145.288
			L145.288,410.479L145.288,410.479z M132.097,374.53h-1.655l-7.965,20.017h17.015L132.097,374.53L132.097,374.53z"/>
	</g>
</g>
<g>
	<path fill="#FFFFFF" d="M314.861,462.254v-5.65h-7.396v5.65h-0.943v-12.005h0.943v5.49h7.396v-5.49h0.93v12.005H314.861z"/>
	<path fill="#FFFFFF" d="M322.972,453.099c2.563,0,3.409,1.296,3.409,3.602v1.104h-6.547c0,2.449,0.705,3.778,3.218,3.778
		c1.296,0,2.354-0.208,2.979-0.305l-0.064,0.769c-0.641,0.16-1.793,0.384-3.024,0.384c-2.993,0-4.065-1.535-4.065-4.594
		C318.874,454.699,320.154,453.099,322.972,453.099z M319.866,457.084h5.603v-0.32c0-1.983-0.656-2.896-2.594-2.896
		C320.811,453.866,319.994,454.955,319.866,457.084z"/>
	<path fill="#FFFFFF" d="M334.893,462.254l-0.225-0.977h-0.08c-0.127,0.176-0.352,0.479-0.432,0.544
		c-0.271,0.191-1.232,0.593-2.785,0.593c-1.248,0-1.921-0.305-2.289-0.721c-0.32-0.353-0.512-0.912-0.512-1.744
		c0-1.009,0.352-1.617,0.703-1.841c0.688-0.514,2.514-0.85,5.379-1.104c0-1.553-0.191-2.193-0.496-2.562
		c-0.289-0.336-0.881-0.496-1.89-0.496c-1.089,0-2.48,0.257-3.09,0.368v-0.753c0.672-0.176,2.001-0.447,3.281-0.447
		c1.232,0,2.018,0.208,2.449,0.704c0.399,0.433,0.656,1.104,0.656,2.864v5.57L334.893,462.254L334.893,462.254z M334.652,457.724
		c-2.08,0.129-4.402,0.466-4.771,0.865c-0.24,0.208-0.399,0.607-0.399,1.28c0,0.576,0.144,0.992,0.366,1.248
		c0.273,0.288,0.851,0.513,1.825,0.513c1.36,0,2.497-0.385,2.979-0.624V457.724L334.652,457.724z"/>
	<path fill="#FFFFFF" d="M339.818,449.289v10.836c0,1.152,0.479,1.425,1.231,1.425c0.529,0,0.961-0.063,1.281-0.112v0.736
		c-0.385,0.08-0.945,0.176-1.553,0.176c-1.297,0-1.89-0.624-1.89-2.129v-10.932H339.818L339.818,449.289z"/>
	<path fill="#FFFFFF" d="M345.178,450.697c-0.096,0.08-0.271,0.111-0.446,0.111c-0.226,0-0.369-0.031-0.449-0.128
		c-0.08-0.08-0.127-0.239-0.127-0.447c0-0.24,0.063-0.417,0.19-0.48c0.049-0.063,0.209-0.112,0.416-0.112
		c0.193,0,0.336,0.032,0.416,0.112c0.113,0.096,0.146,0.256,0.146,0.464S345.291,450.617,345.178,450.697z M344.25,462.254v-8.979
		h0.928v8.979H344.25z"/>
	<path fill="#FFFFFF" d="M354.908,462.254v-5.555c0-1.136-0.226-1.792-0.625-2.177c-0.4-0.385-1.104-0.545-1.937-0.545
		c-1.151,0-2.162,0.305-2.864,0.593v7.684h-0.931v-8.979h0.674l0.257,0.943h0.08c0.047-0.063,0.415-0.479,0.463-0.513
		c0.434-0.239,1.586-0.56,2.723-0.56c1.168,0,1.855,0.256,2.336,0.735c0.496,0.464,0.752,1.28,0.752,2.497v5.874L354.908,462.254
		L354.908,462.254z"/>
	<path fill="#FFFFFF" d="M366.412,461.773c0,2.434-0.447,3.408-1.072,4.002c-0.543,0.496-1.408,0.863-2.992,0.863
		c-1.426,0-2.563-0.224-3.17-0.336v-0.815c0.625,0.111,1.793,0.304,3.121,0.304c1.313,0,2.019-0.271,2.435-0.64
		c0.446-0.448,0.752-1.281,0.752-3.299v-0.479h-0.064c-0.145,0.176-0.465,0.56-0.561,0.607c-0.271,0.177-1.248,0.399-2.416,0.399
		c-1.267,0-2.033-0.271-2.545-0.688c-0.736-0.576-1.187-1.712-1.187-3.554c0-1.873,0.465-3.266,1.232-4.033
		c0.561-0.545,1.521-0.929,3.041-0.929c1.137,0,2.032,0.191,2.834,0.384l0.432-0.287h0.16V461.773z M360.555,461.006
		c0.463,0.368,1.279,0.561,2.177,0.561c0.93,0,1.952-0.16,2.754-0.528v-6.852c-0.656-0.079-1.488-0.208-2.435-0.208
		c-1.199,0-1.969,0.24-2.465,0.722c-0.543,0.56-0.912,1.632-0.912,3.281C359.674,459.645,360.01,460.573,360.555,461.006z"/>
</g>
<g>
	<path fill="#FFFFFF" d="M453.183,441.535c-0.833-0.096-1.665-0.239-3.185-0.239c-1.729,0-2.689,0.368-3.346,0.88
		c-0.736,0.593-1.474,2.177-1.474,4.45c0,2.017,0.4,3.521,1.152,4.273c0.624,0.624,1.648,0.96,3.329,0.96
		c1.376,0,2.673-0.239,3.521-0.399v0.8c-0.977,0.256-2.32,0.48-3.696,0.48c-2.05,0-3.073-0.416-3.905-1.2
		c-0.736-0.721-1.377-2.193-1.377-4.771c0-3.072,1.041-4.608,1.776-5.201c0.783-0.673,1.921-1.152,4.002-1.152
		c1.439,0,2.367,0.16,3.2,0.305v0.815H453.183z"/>
	<path fill="#FFFFFF" d="M462.574,451.7c-0.625,0.64-1.537,1.072-3.121,1.072c-1.488,0-2.435-0.416-3.025-1.09
		c-0.512-0.592-0.977-1.647-0.977-3.377c0-1.745,0.465-3.152,1.28-3.922c0.641-0.607,1.633-1.023,3.058-1.023
		c1.36,0,2.305,0.384,2.865,0.943c0.655,0.688,1.057,1.729,1.057,3.586C463.711,449.651,463.262,450.979,462.574,451.7z
		 M461.806,451.22c0.561-0.576,0.96-1.567,0.96-3.17c0-1.84-0.352-2.607-0.832-3.104c-0.447-0.465-1.137-0.753-2.257-0.753
		c-1.104,0-1.841,0.353-2.257,0.735c-0.545,0.496-1.041,1.633-1.041,3.267c0,1.345,0.305,2.369,0.753,2.881
		c0.434,0.496,1.12,0.896,2.417,0.896C460.541,451.972,461.342,451.684,461.806,451.22z"/>
	<path fill="#FFFFFF" d="M478.752,452.58v-5.555c0-1.185-0.209-1.81-0.593-2.178c-0.384-0.367-1.056-0.544-1.81-0.544
		c-1.151,0-2.097,0.384-2.736,0.722v7.555h-0.929v-6.146c0-0.783-0.129-1.265-0.495-1.615c-0.386-0.368-1.138-0.514-1.873-0.514
		c-1.169,0-2.099,0.336-2.771,0.608v7.667h-0.928v-8.979h0.688l0.24,0.944h0.08l0.48-0.528c0.416-0.224,1.407-0.544,2.575-0.544
		c1.153,0,1.891,0.256,2.387,0.736c0.208,0.191,0.318,0.384,0.398,0.528h0.08l0.497-0.625c0.513-0.288,1.536-0.641,2.705-0.641
		c1.056,0,1.729,0.24,2.208,0.704c0.513,0.48,0.721,1.297,0.721,2.529v5.874L478.752,452.58L478.752,452.58z"/>
	<path fill="#FFFFFF" d="M489.518,451.748c-0.606,0.576-1.536,0.912-3.057,0.912c-1.104,0-2.049-0.16-2.85-0.354l-0.465,0.272
		h-0.128v-12.965h0.929v4.85h0.063c0.128-0.176,0.496-0.528,0.592-0.576c0.257-0.176,1.313-0.464,2.529-0.464
		c1.248,0,2,0.271,2.513,0.72c0.642,0.576,1.104,1.682,1.104,3.521C490.75,449.571,490.286,451.012,489.518,451.748z
		 M488.91,444.833c-0.417-0.368-1.058-0.576-2.129-0.576c-0.978,0-2.049,0.176-2.834,0.528v6.866
		c0.625,0.097,1.505,0.225,2.417,0.225c1.217,0,1.969-0.24,2.448-0.688c0.576-0.544,0.977-1.665,0.977-3.329
		C489.789,446.178,489.373,445.249,488.91,444.833z"/>
	<path fill="#FFFFFF" d="M499.404,452.58l-0.224-0.978h-0.08c-0.129,0.177-0.354,0.48-0.433,0.545
		c-0.271,0.191-1.233,0.593-2.785,0.593c-1.249,0-1.921-0.306-2.289-0.722c-0.319-0.352-0.513-0.911-0.513-1.743
		c0-1.01,0.353-1.617,0.705-1.842c0.688-0.513,2.513-0.849,5.378-1.104c0-1.553-0.192-2.193-0.496-2.563
		c-0.288-0.336-0.88-0.496-1.89-0.496c-1.089,0-2.48,0.258-3.089,0.368v-0.752c0.673-0.176,2-0.447,3.281-0.447
		c1.232,0,2.017,0.208,2.448,0.703c0.4,0.434,0.656,1.104,0.656,2.865v5.57L499.404,452.58L499.404,452.58z M499.165,448.05
		c-2.081,0.129-4.401,0.465-4.771,0.865c-0.239,0.208-0.399,0.606-0.399,1.28c0,0.575,0.145,0.991,0.369,1.248
		c0.271,0.287,0.848,0.513,1.824,0.513c1.36,0,2.496-0.385,2.978-0.624V448.05z"/>
	<path fill="#FFFFFF" d="M508.061,444.385h-3.186v5.986c0,1.217,0.561,1.473,1.568,1.473c0.735,0,1.409-0.111,1.762-0.16
		l-0.08,0.784c-0.48,0.098-1.232,0.208-1.922,0.208c-1.601,0-2.256-0.576-2.256-2.129v-6.162h-1.857l0.129-0.784h1.729v-1.872
		l0.928-0.24v2.112h3.361L508.061,444.385z"/>
	<path fill="#FFFFFF" d="M456.119,468.58v-5.65h-7.396v5.65h-0.943v-12.005h0.943v5.49h7.396v-5.49h0.928v12.005H456.119z"/>
	<path fill="#FFFFFF" d="M464.229,459.425c2.562,0,3.409,1.296,3.409,3.602v1.104h-6.546c0,2.449,0.703,3.778,3.217,3.778
		c1.298,0,2.354-0.208,2.978-0.305l-0.063,0.769c-0.64,0.16-1.792,0.384-3.024,0.384c-2.993,0-4.065-1.536-4.065-4.594
		C460.131,461.025,461.411,459.425,464.229,459.425z M461.123,463.41h5.603v-0.32c0-1.983-0.655-2.896-2.593-2.896
		C462.067,460.192,461.252,461.281,461.123,463.41z"/>
	<path fill="#FFFFFF" d="M476.148,468.58l-0.224-0.978h-0.08c-0.129,0.177-0.354,0.48-0.433,0.545
		c-0.272,0.191-1.233,0.593-2.785,0.593c-1.249,0-1.921-0.306-2.289-0.722c-0.32-0.352-0.513-0.911-0.513-1.743
		c0-1.01,0.353-1.617,0.705-1.842c0.688-0.513,2.513-0.849,5.378-1.104c0-1.553-0.192-2.193-0.496-2.563
		c-0.288-0.336-0.88-0.496-1.891-0.496c-1.088,0-2.479,0.258-3.088,0.368v-0.752c0.672-0.176,2-0.447,3.281-0.447
		c1.232,0,2.016,0.208,2.448,0.703c0.399,0.434,0.656,1.104,0.656,2.865v5.57L476.148,468.58L476.148,468.58z M475.909,464.05
		c-2.081,0.129-4.401,0.465-4.771,0.865c-0.239,0.208-0.399,0.606-0.399,1.28c0,0.575,0.145,0.991,0.369,1.248
		c0.271,0.287,0.848,0.513,1.823,0.513c1.361,0,2.497-0.385,2.979-0.624V464.05z"/>
	<path fill="#FFFFFF" d="M481.076,455.615v10.836c0,1.151,0.479,1.425,1.231,1.425c0.527,0,0.96-0.064,1.279-0.112v0.736
		c-0.383,0.08-0.943,0.176-1.552,0.176c-1.297,0-1.891-0.624-1.891-2.129v-10.932H481.076L481.076,455.615z"/>
	<path fill="#FFFFFF" d="M486.436,457.023c-0.097,0.079-0.271,0.111-0.448,0.111c-0.225,0-0.367-0.032-0.447-0.128
		c-0.08-0.08-0.129-0.24-0.129-0.448c0-0.239,0.063-0.417,0.192-0.479c0.048-0.064,0.207-0.112,0.416-0.112
		c0.191,0,0.337,0.032,0.416,0.112c0.111,0.096,0.145,0.256,0.145,0.464S486.547,456.943,486.436,457.023z M485.507,468.58v-8.979
		h0.929v8.979H485.507z"/>
	<path fill="#FFFFFF" d="M496.165,468.58v-5.555c0-1.137-0.224-1.792-0.624-2.178c-0.4-0.384-1.104-0.544-1.938-0.544
		c-1.152,0-2.16,0.305-2.865,0.593v7.684h-0.929v-8.979h0.673l0.256,0.944h0.08c0.049-0.063,0.416-0.479,0.465-0.513
		c0.432-0.239,1.584-0.561,2.721-0.561c1.169,0,1.857,0.256,2.338,0.736c0.496,0.464,0.752,1.28,0.752,2.497v5.874L496.165,468.58
		L496.165,468.58z"/>
	<path fill="#FFFFFF" d="M507.67,468.1c0,2.435-0.449,3.409-1.072,4.002c-0.545,0.496-1.408,0.864-2.993,0.864
		c-1.425,0-2.562-0.224-3.17-0.336v-0.815c0.624,0.111,1.792,0.304,3.121,0.304c1.313,0,2.018-0.271,2.434-0.641
		c0.449-0.447,0.752-1.28,0.752-3.298V467.7h-0.063c-0.145,0.176-0.465,0.56-0.561,0.606c-0.273,0.178-1.249,0.4-2.418,0.4
		c-1.264,0-2.032-0.272-2.545-0.688c-0.736-0.575-1.185-1.712-1.185-3.553c0-1.873,0.464-3.266,1.232-4.034
		c0.561-0.544,1.521-0.928,3.041-0.928c1.137,0,2.033,0.191,2.834,0.384l0.432-0.288h0.16L507.67,468.1L507.67,468.1z
		 M501.811,467.332c0.466,0.368,1.281,0.56,2.179,0.56c0.928,0,1.953-0.159,2.752-0.527v-6.852c-0.656-0.08-1.488-0.208-2.433-0.208
		c-1.2,0-1.969,0.24-2.465,0.722c-0.545,0.56-0.913,1.632-0.913,3.28C500.931,465.971,501.267,466.899,501.811,467.332z"/>
</g>
</svg>
