<?xml version="1.0" encoding="utf-8"?>
<!-- Generator: Adobe Illustrator 16.0.2, SVG Export Plug-In . SVG Version: 6.00 Build 0)  -->
<!DOCTYPE svg PUBLIC "-//W3C//DTD SVG 1.1//EN" "http://www.w3.org/Graphics/SVG/1.1/DTD/svg11.dtd">
<svg version="1.1" id="Layer_1" xmlns="http://www.w3.org/2000/svg" xmlns:xlink="http://www.w3.org/1999/xlink" x="0px" y="0px"
	 width="283.46px" height="85.039px" viewBox="0 0 283.46 85.039" enable-background="new 0 0 283.46 85.039" xml:space="preserve">
<g id="tint">
	<polygon fill="#DD954D" points="120.274,16.297 110.354,6.377 54.152,6.376 64.072,16.296 64.081,16.296 78.464,30.679 
		84.47,27.672 73.094,16.296 	"/>
	<polygon fill="#DD954D" points="187.843,16.297 177.923,6.377 121.721,6.376 131.642,16.296 131.652,16.296 145.904,30.549 
		151.912,27.542 140.666,16.296 	"/>
	<polygon fill="#DD954D" points="254.416,16.298 244.492,6.376 188.285,6.376 198.207,16.298 198.218,16.298 210.574,28.653 
		216.58,25.646 207.232,16.298 	"/>
	<polygon display="none" fill="#DD954D" points="95.075,46.064 105.487,35.652 99.48,32.646 86.062,46.064 86.037,46.064 
		76.117,55.984 132.319,55.982 142.239,46.063 	"/>
	<polygon fill="#DD954D" points="163.341,46.064 174.597,34.809 168.589,31.802 154.328,46.064 154.326,46.064 144.404,55.984 
		200.606,55.982 210.526,46.063 	"/>
	<polygon fill="#DD954D" points="229.903,46.063 240.862,35.104 234.855,32.097 220.89,46.063 220.875,46.063 210.953,55.984 
		267.16,55.984 277.083,46.063 	"/>
	<rect x="61.527" y="25.511" fill="#DD954D" width="170.057" height="11.339"/>
</g>
<g id="primary">
	<rect x="61.527" y="25.511" fill="#CE6700" width="72.485" height="11.339"/>
	
		<rect x="14.459" y="14.46" transform="matrix(0.7071 0.7071 -0.7071 0.7071 42.521 -17.6127)" fill="#CE6700" width="56.123" height="56.122"/>
	<polygon fill="#CE6700" points="194.503,82.205 217.181,59.527 72.615,59.527 49.938,82.205 	"/>
	<polygon fill="#CE6700" points="105.846,41.144 81.739,65.251 71.831,60.291 95.938,36.184 	"/>
	<polygon fill="#CE6700" points="133.204,19.842 61.527,19.842 84.205,42.519 138.898,42.519 139.898,42.519 155.88,42.519 	"/>
	<polygon fill="#DD954D" points="199.762,19.842 163.537,19.842 162.574,19.842 162.425,19.842 161.574,19.842 135.198,19.842 
		157.875,42.519 162.427,42.519 163.539,42.519 222.438,42.519 	"/>
	<polygon fill="#DD954D" points="257.953,19.842 201.757,19.842 224.434,42.519 280.63,42.519 280.63,42.519 	"/>
</g>
<g id="Text">
	<g>
		<g>
			<path fill="#FFFFFF" d="M89.475,35.38v-0.714h3.096v-9.217l-3.096,0.56v-0.714l3.894-0.687v10.058h2.802v0.714H89.475z"/>
			<path fill="#FFFFFF" d="M112.116,35.38h-7.214v-0.84c0.126-1.541,0.966-2.536,3.432-3.74c1.569-0.784,2.255-1.19,2.62-1.667
				c0.308-0.434,0.392-0.994,0.392-1.541c0-1.443-0.532-2.101-2.815-2.101c-1.247,0-2.591,0.308-3.208,0.448V25.21
				c0.826-0.224,2.115-0.477,3.375-0.477c2.675,0,3.516,0.869,3.516,2.76c0,0.953-0.21,1.611-0.532,2.017
				c-0.546,0.714-1.625,1.261-2.998,1.933c-2.563,1.247-2.969,2.129-2.998,3.18h6.64L112.116,35.38z"/>
			<path fill="#FFFFFF" d="M126.914,29.427l-1.135,0.532v0.056l1.19,0.42c0.477,0.393,0.854,1.289,0.854,2.199
				c0,2.017-1.148,2.886-3.992,2.886c-1.176,0-2.213-0.154-2.83-0.294v-0.714c0.645,0.112,1.779,0.28,2.83,0.28
				c2.605,0,3.152-0.854,3.152-2.157c0-1.863-1.247-2.213-2.83-2.213h-2.003v-0.729h1.821c1.373,0,2.815-0.35,2.815-2.171
				c0-1.345-0.504-2.045-2.633-2.045c-1.121,0-2.199,0.224-2.928,0.378v-0.701c0.757-0.196,1.919-0.42,3.068-0.42
				c2.521,0,3.32,0.883,3.32,2.676C127.614,28.39,127.18,29.174,126.914,29.427z"/>
		</g>
		<g>
			<path fill="#FFFFFF" d="M164.898,35.38h-0.771v-2.983h-5.394v-0.813l4.638-6.71h1.526v6.822h2.354l-0.211,0.701h-2.145
				L164.898,35.38L164.898,35.38z M164.128,31.696v-6.135h-0.379l-4.104,5.953v0.182H164.128z"/>
			<path fill="#FFFFFF" d="M178.083,35.52c-0.965,0-1.987-0.14-2.717-0.252v-0.743c0.672,0.098,1.709,0.238,2.76,0.238
				c2.424,0,3.265-0.687,3.265-2.423c0-1.849-0.588-2.325-2.746-2.325c-0.994,0-2.339,0.21-2.955,0.294v-5.435h6.22v0.714h-5.49
				v3.95c0.588-0.098,1.399-0.252,2.479-0.252c2.438,0,3.334,0.645,3.334,2.941C182.23,34.441,181.208,35.52,178.083,35.52z"/>
			<path fill="#FFFFFF" d="M191.846,30.253h0.069l0.446-0.462c0.604-0.224,1.695-0.532,2.972-0.532c2.479,0,3.306,1.036,3.306,2.983
				c0,2.031-1.052,3.278-3.755,3.278c-2.94,0-3.852-1.863-3.852-4.959c0-1.947,0.547-3.348,1.372-4.23
				c0.968-1.009,2.509-1.639,5.212-1.667l0.278,0.743c-2.633,0.014-4.063,0.56-4.901,1.457
				C192.335,27.563,191.901,28.754,191.846,30.253z M195.066,29.987c-1.246,0-2.395,0.308-3.221,0.63
				c0.027,2.9,0.938,4.174,3.08,4.174c2.004,0,2.9-0.784,2.9-2.479C197.826,30.688,197.167,29.987,195.066,29.987z"/>
		</g>
		<g>
			<path fill="#FFFFFF" d="M227.708,25.813v-0.196h-6.315l0.224-0.743h6.989v0.925l-5.015,9.581h-0.91L227.708,25.813z"/>
			<path fill="#FFFFFF" d="M238.347,30.505l0.951-0.519v-0.07l-0.84-0.434c-0.364-0.364-0.715-0.883-0.715-1.849
				c0-1.695,1.063-2.914,3.528-2.914c2.452,0,3.362,1.092,3.362,2.661c0,0.995-0.422,1.597-0.813,2.017l-0.866,0.519v0.07
				l1.063,0.393c0.563,0.448,0.883,1.163,0.883,2.115c0,1.737-1.079,3.026-3.838,3.026c-2.604,0-3.686-1.037-3.686-2.815
				C237.38,31.808,237.744,31.065,238.347,30.505z M238.207,32.606c0,1.401,0.813,2.199,2.941,2.199
				c2.171,0,2.928-1.022,2.928-2.227c0-1.919-1.219-2.073-4.343-2.41C238.962,30.673,238.207,31.36,238.207,32.606z M238.57,27.563
				c0,1.723,1.094,1.961,3.838,2.213c0.883-0.546,1.387-1.261,1.387-2.297c0-1.345-0.756-2.045-2.604-2.045
				C239.257,25.435,238.57,26.387,238.57,27.563z"/>
			<path fill="#FFFFFF" d="M260.063,30.015h-0.069l-0.436,0.462c-0.574,0.238-1.652,0.519-2.857,0.519
				c-2.507,0-3.39-1.009-3.39-2.942c0-2.213,1.388-3.32,3.739-3.32c2.746,0,3.824,1.527,3.824,4.861
				c0,2.003-0.545,3.474-1.373,4.342c-0.924,1.009-2.506,1.611-5.226,1.667l-0.267-0.771c2.592-0.014,4.104-0.532,4.916-1.415
				C259.559,32.705,260.021,31.528,260.063,30.015z M256.884,30.267c1.261,0,2.396-0.294,3.18-0.588
				c-0.027-2.97-0.882-4.216-3.066-4.216c-1.961,0-2.873,0.938-2.873,2.536C254.125,29.567,254.824,30.267,256.884,30.267z"/>
		</g>
	</g>
	<g>
		<path fill="#FFFFFF" d="M159.615,52.843c-0.287,0.245-0.813,0.357-1.563,0.357c-0.65,0-1.176-0.084-1.526-0.168v-0.364
			c0.413,0.07,0.876,0.154,1.534,0.154c0.721,0,1.105-0.112,1.254-0.252c0.125-0.127,0.236-0.357,0.236-0.709
			c0-0.286-0.055-0.51-0.16-0.629c-0.393-0.428-2.27-0.688-2.668-1.198c-0.162-0.196-0.211-0.567-0.211-0.854
			c0-0.385,0.113-0.764,0.351-0.994c0.224-0.217,0.673-0.393,1.534-0.393c0.574,0,1.051,0.049,1.408,0.111v0.355
			c-0.441-0.049-0.813-0.098-1.465-0.098c-0.65,0-1.036,0.111-1.19,0.295c-0.112,0.119-0.224,0.361-0.224,0.688
			c0,0.267,0.049,0.488,0.154,0.623c0.308,0.393,2.316,0.741,2.674,1.196c0.176,0.21,0.225,0.574,0.225,0.876
			C159.979,52.262,159.832,52.654,159.615,52.843z"/>
		<path fill="#FFFFFF" d="M161.58,55.035h-0.406v-5.842h0.311l0.1,0.351h0.026c0.058-0.077,0.203-0.224,0.245-0.245
			c0.119-0.076,0.574-0.189,1.051-0.189c0.539,0,0.869,0.094,1.121,0.316c0.271,0.23,0.496,0.715,0.496,1.604
			c0,0.834-0.217,1.423-0.545,1.75c-0.262,0.254-0.65,0.405-1.248,0.405c-0.469,0-0.833-0.063-1.146-0.133v1.982H161.58
			L161.58,55.035z M163.71,49.705c-0.196-0.161-0.506-0.238-0.953-0.238c-0.405,0-0.826,0.07-1.178,0.231v3.032
			c0.272,0.043,0.651,0.104,1.08,0.104c0.488,0,0.805-0.084,1.021-0.301c0.237-0.227,0.42-0.717,0.42-1.473
			C164.102,50.322,163.934,49.908,163.71,49.705z"/>
		<path fill="#FFFFFF" d="M167.398,49.117c1.121,0,1.492,0.566,1.492,1.576v0.48h-2.865c0,1.072,0.309,1.653,1.408,1.653
			c0.566,0,1.029-0.093,1.303-0.136l-0.027,0.339c-0.279,0.067-0.785,0.168-1.324,0.168c-1.311,0-1.777-0.675-1.777-2.013
			C165.605,49.816,166.166,49.117,167.398,49.117z M166.039,50.861h2.451V50.72c0-0.868-0.287-1.269-1.134-1.269
			C166.453,49.453,166.096,49.93,166.039,50.861z"/>
		<path fill="#FFFFFF" d="M170.757,49.768c-0.286,0.269-0.436,0.766-0.436,1.438c0,0.646,0.135,1.079,0.406,1.331
			c0.23,0.217,0.574,0.301,1.001,0.301c0.498,0,0.896-0.077,1.17-0.119v0.315c-0.272,0.075-0.68,0.175-1.231,0.175
			c-0.551,0-0.975-0.126-1.246-0.385c-0.364-0.338-0.524-0.885-0.524-1.569c0-0.782,0.188-1.387,0.562-1.729
			c0.301-0.295,0.742-0.436,1.33-0.436c0.469,0,0.854,0.063,1.112,0.112v0.35c-0.243-0.034-0.608-0.091-1.071-0.091
			C171.354,49.46,170.981,49.551,170.757,49.768z"/>
		<path fill="#FFFFFF" d="M174.446,48.066c-0.042,0.035-0.118,0.049-0.196,0.049c-0.098,0-0.16-0.014-0.193-0.057
			c-0.035-0.035-0.059-0.104-0.059-0.195c0-0.105,0.028-0.182,0.084-0.211c0.021-0.027,0.092-0.049,0.184-0.049
			c0.085,0,0.146,0.015,0.184,0.049c0.051,0.043,0.063,0.113,0.063,0.203C174.509,47.947,174.496,48.031,174.446,48.066z
			 M174.041,53.123v-3.93h0.405v3.93H174.041z"/>
		<path fill="#FFFFFF" d="M178.431,53.123l-0.1-0.428h-0.035c-0.055,0.078-0.153,0.211-0.188,0.238
			c-0.119,0.084-0.54,0.26-1.219,0.26c-0.546,0-0.843-0.133-1.001-0.315c-0.143-0.153-0.227-0.399-0.227-0.763
			c0-0.441,0.154-0.708,0.311-0.807c0.301-0.226,1.1-0.371,2.354-0.482c0-0.68-0.084-0.96-0.218-1.121
			c-0.126-0.146-0.386-0.217-0.825-0.217c-0.478,0-1.087,0.111-1.354,0.16V49.32c0.295-0.077,0.876-0.196,1.438-0.196
			c0.538,0,0.883,0.091,1.07,0.308c0.175,0.189,0.287,0.484,0.287,1.254v2.438L178.431,53.123L178.431,53.123z M178.326,51.141
			c-0.91,0.059-1.927,0.203-2.088,0.379c-0.105,0.092-0.176,0.268-0.176,0.563c0,0.252,0.063,0.436,0.162,0.546
			c0.119,0.126,0.371,0.226,0.798,0.226c0.597,0,1.093-0.168,1.304-0.273V51.141L178.326,51.141z"/>
		<path fill="#FFFFFF" d="M180.585,47.45v4.741c0,0.504,0.209,0.623,0.539,0.623c0.229,0,0.42-0.027,0.561-0.049v0.32
			c-0.168,0.035-0.413,0.077-0.68,0.077c-0.567,0-0.826-0.271-0.826-0.933v-4.78H180.585z"/>
		<path fill="#FFFFFF" d="M184.541,49.537h-1.395v2.619c0,0.533,0.246,0.645,0.688,0.645c0.322,0,0.615-0.049,0.771-0.07
			l-0.035,0.346c-0.209,0.042-0.539,0.091-0.84,0.091c-0.7,0-0.986-0.252-0.986-0.933v-2.695h-0.813l0.056-0.346h0.758v-0.816
			l0.404-0.104v0.924h1.473L184.541,49.537z"/>
		<path fill="#FFFFFF" d="M186.528,55.042h-0.427l0.77-1.919h-0.322l-1.471-3.93h0.441l1.311,3.572h0.184l1.387-3.572h0.439
			L186.528,55.042z"/>
		<path fill="#FFFFFF" d="M194.762,53.123h-3.607v-0.42c0.063-0.771,0.484-1.268,1.718-1.87c0.783-0.394,1.127-0.597,1.311-0.833
			c0.152-0.218,0.195-0.498,0.195-0.771c0-0.721-0.268-1.051-1.407-1.051c-0.623,0-1.296,0.154-1.604,0.225V48.04
			c0.412-0.112,1.057-0.237,1.688-0.237c1.338,0,1.758,0.436,1.758,1.381c0,0.477-0.104,0.805-0.267,1.008
			c-0.272,0.355-0.813,0.631-1.5,0.967c-1.28,0.623-1.483,1.064-1.498,1.59h3.32L194.762,53.123z"/>
	</g>
	<g display="none">
		<path display="inline" fill="#FFFFFF" d="M92.045,52.843c-0.287,0.245-0.813,0.357-1.562,0.357c-0.651,0-1.177-0.084-1.527-0.168
			v-0.364c0.413,0.07,0.875,0.154,1.534,0.154c0.721,0,1.106-0.112,1.254-0.252c0.126-0.127,0.238-0.357,0.238-0.709
			c0-0.286-0.056-0.51-0.161-0.629c-0.392-0.428-2.269-0.688-2.668-1.198c-0.161-0.196-0.21-0.567-0.21-0.854
			c0-0.385,0.112-0.764,0.35-0.994c0.224-0.217,0.672-0.393,1.534-0.393c0.574,0,1.05,0.049,1.408,0.111v0.355
			c-0.441-0.049-0.813-0.098-1.464-0.098s-1.037,0.111-1.191,0.295c-0.112,0.119-0.224,0.361-0.224,0.688
			c0,0.267,0.049,0.488,0.154,0.623c0.308,0.393,2.318,0.741,2.675,1.196c0.175,0.21,0.224,0.574,0.224,0.876
			C92.41,52.262,92.263,52.654,92.045,52.843z"/>
		<path display="inline" fill="#FFFFFF" d="M94.011,55.035h-0.406v-5.842h0.308l0.098,0.351h0.028
			c0.056-0.077,0.203-0.224,0.245-0.245c0.119-0.076,0.575-0.189,1.051-0.189c0.539,0,0.869,0.094,1.121,0.316
			c0.273,0.23,0.497,0.715,0.497,1.604c0,0.834-0.217,1.423-0.546,1.75c-0.259,0.254-0.651,0.405-1.247,0.405
			c-0.469,0-0.833-0.063-1.148-0.133L94.011,55.035L94.011,55.035z M96.141,49.705c-0.196-0.161-0.504-0.238-0.953-0.238
			c-0.406,0-0.827,0.07-1.177,0.231v3.032c0.273,0.043,0.651,0.104,1.079,0.104c0.49,0,0.806-0.084,1.022-0.301
			c0.238-0.227,0.42-0.717,0.42-1.473C96.533,50.322,96.365,49.908,96.141,49.705z"/>
		<path display="inline" fill="#FFFFFF" d="M99.829,49.117c1.121,0,1.492,0.566,1.492,1.576v0.48h-2.865
			c0,1.072,0.309,1.653,1.408,1.653c0.567,0,1.029-0.093,1.302-0.136l-0.028,0.339c-0.28,0.067-0.784,0.168-1.324,0.168
			c-1.31,0-1.779-0.675-1.779-2.013C98.036,49.816,98.596,49.117,99.829,49.117z M98.47,50.861h2.451V50.72
			c0-0.868-0.287-1.269-1.134-1.269C98.883,49.453,98.526,49.93,98.47,50.861z"/>
		<path display="inline" fill="#FFFFFF" d="M103.188,49.768c-0.287,0.269-0.434,0.766-0.434,1.438c0,0.646,0.133,1.079,0.406,1.331
			c0.231,0.217,0.574,0.301,1.001,0.301c0.498,0,0.896-0.077,1.17-0.119v0.315c-0.273,0.075-0.68,0.175-1.233,0.175
			c-0.553,0-0.974-0.126-1.247-0.385c-0.364-0.338-0.525-0.885-0.525-1.569c0-0.782,0.189-1.387,0.561-1.729
			c0.301-0.295,0.742-0.436,1.331-0.436c0.469,0,0.854,0.063,1.114,0.112v0.35c-0.245-0.034-0.609-0.091-1.072-0.091
			C103.784,49.46,103.412,49.551,103.188,49.768z"/>
		<path display="inline" fill="#FFFFFF" d="M106.877,48.066c-0.042,0.035-0.119,0.049-0.196,0.049c-0.098,0-0.161-0.014-0.196-0.057
			c-0.035-0.035-0.056-0.104-0.056-0.195c0-0.105,0.028-0.182,0.084-0.211c0.021-0.027,0.091-0.049,0.182-0.049
			c0.084,0,0.147,0.015,0.182,0.049c0.049,0.043,0.063,0.113,0.063,0.203C106.94,47.947,106.926,48.031,106.877,48.066z
			 M106.471,53.123v-3.93h0.406v3.93H106.471z"/>
		<path display="inline" fill="#FFFFFF" d="M110.861,53.123l-0.098-0.428h-0.035c-0.056,0.078-0.154,0.211-0.189,0.238
			c-0.119,0.084-0.54,0.26-1.219,0.26c-0.546,0-0.84-0.133-1.001-0.315c-0.14-0.153-0.224-0.399-0.224-0.763
			c0-0.441,0.154-0.708,0.308-0.807c0.301-0.226,1.1-0.371,2.353-0.482c0-0.68-0.084-0.96-0.217-1.121
			c-0.126-0.146-0.385-0.217-0.827-0.217c-0.476,0-1.085,0.111-1.352,0.16V49.32c0.294-0.077,0.875-0.196,1.436-0.196
			c0.54,0,0.883,0.091,1.072,0.308c0.175,0.189,0.287,0.484,0.287,1.254v2.438L110.861,53.123L110.861,53.123z M110.756,51.141
			c-0.91,0.059-1.926,0.203-2.087,0.379c-0.105,0.092-0.175,0.268-0.175,0.563c0,0.252,0.063,0.436,0.161,0.546
			c0.119,0.126,0.371,0.226,0.798,0.226c0.596,0,1.093-0.168,1.303-0.273V51.141z"/>
		<path display="inline" fill="#FFFFFF" d="M113.016,47.45v4.741c0,0.504,0.21,0.623,0.54,0.623c0.231,0,0.42-0.027,0.56-0.049v0.32
			c-0.168,0.035-0.413,0.077-0.679,0.077c-0.567,0-0.827-0.271-0.827-0.933v-4.78H113.016z"/>
		<path display="inline" fill="#FFFFFF" d="M116.972,49.537h-1.394v2.619c0,0.533,0.246,0.645,0.687,0.645
			c0.322,0,0.616-0.049,0.771-0.07L117,53.074c-0.21,0.042-0.539,0.091-0.84,0.091c-0.7,0-0.987-0.252-0.987-0.933v-2.695h-0.813
			l0.056-0.344h0.757v-0.818l0.406-0.105v0.924h1.471L116.972,49.537z"/>
		<path display="inline" fill="#FFFFFF" d="M118.959,55.042h-0.427l0.771-1.919h-0.322l-1.471-3.93h0.441l1.31,3.572h0.182
			l1.387-3.572h0.441L118.959,55.042z"/>
		<path display="inline" fill="#FFFFFF" d="M123.845,53.123v-0.357h1.548v-4.606l-1.548,0.278V48.08l1.947-0.344v5.029h1.4v0.355
			L123.845,53.123L123.845,53.123z"/>
	</g>
	<g>
		<path fill="#FFFFFF" d="M227.884,52.843c-0.286,0.245-0.813,0.357-1.563,0.357c-0.65,0-1.177-0.084-1.525-0.168v-0.364
			c0.412,0.07,0.875,0.154,1.533,0.154c0.721,0,1.105-0.112,1.254-0.252c0.127-0.127,0.237-0.357,0.237-0.709
			c0-0.286-0.057-0.51-0.161-0.629c-0.393-0.428-2.27-0.688-2.668-1.198c-0.16-0.196-0.209-0.567-0.209-0.854
			c0-0.385,0.11-0.764,0.35-0.994c0.225-0.217,0.673-0.393,1.533-0.393c0.574,0,1.051,0.049,1.408,0.111v0.355
			c-0.441-0.049-0.813-0.098-1.465-0.098c-0.65,0-1.035,0.111-1.189,0.295c-0.111,0.119-0.226,0.361-0.226,0.688
			c0,0.267,0.05,0.488,0.154,0.623c0.31,0.393,2.317,0.741,2.676,1.196c0.177,0.21,0.226,0.574,0.226,0.876
			C228.25,52.262,228.102,52.654,227.884,52.843z"/>
		<path fill="#FFFFFF" d="M229.851,55.035h-0.406v-5.842h0.309l0.1,0.351h0.027c0.057-0.077,0.203-0.224,0.244-0.245
			c0.119-0.076,0.574-0.189,1.051-0.189c0.539,0,0.869,0.094,1.121,0.316c0.272,0.23,0.496,0.715,0.496,1.604
			c0,0.834-0.217,1.423-0.545,1.75c-0.261,0.254-0.65,0.405-1.248,0.405c-0.47,0-0.832-0.063-1.146-0.133L229.851,55.035
			L229.851,55.035z M231.98,49.705c-0.197-0.161-0.505-0.238-0.953-0.238c-0.406,0-0.826,0.07-1.177,0.231v3.032
			c0.272,0.043,0.651,0.104,1.079,0.104c0.49,0,0.805-0.084,1.021-0.301c0.236-0.227,0.42-0.717,0.42-1.473
			C232.373,50.322,232.205,49.908,231.98,49.705z"/>
		<path fill="#FFFFFF" d="M235.667,49.117c1.121,0,1.492,0.566,1.492,1.576v0.48h-2.865c0,1.072,0.31,1.653,1.408,1.653
			c0.566,0,1.028-0.093,1.303-0.136l-0.026,0.339c-0.28,0.067-0.785,0.168-1.324,0.168c-1.31,0-1.778-0.675-1.778-2.013
			C233.875,49.816,234.436,49.117,235.667,49.117z M234.31,50.861h2.451V50.72c0-0.868-0.287-1.269-1.135-1.269
			C234.723,49.453,234.365,49.93,234.31,50.861z"/>
		<path fill="#FFFFFF" d="M239.027,49.768c-0.287,0.269-0.434,0.766-0.434,1.438c0,0.646,0.133,1.079,0.406,1.331
			c0.229,0.217,0.572,0.301,1,0.301c0.498,0,0.896-0.077,1.17-0.119v0.315c-0.272,0.075-0.681,0.175-1.232,0.175
			c-0.553,0-0.973-0.126-1.246-0.385c-0.363-0.338-0.525-0.885-0.525-1.569c0-0.782,0.189-1.387,0.563-1.729
			c0.301-0.295,0.742-0.436,1.33-0.436c0.47,0,0.854,0.063,1.113,0.112v0.35c-0.246-0.034-0.608-0.091-1.07-0.091
			C239.623,49.46,239.251,49.551,239.027,49.768z"/>
		<path fill="#FFFFFF" d="M242.716,48.066c-0.043,0.035-0.118,0.049-0.195,0.049c-0.1,0-0.161-0.014-0.195-0.057
			c-0.035-0.035-0.058-0.104-0.058-0.195c0-0.105,0.028-0.182,0.084-0.211c0.021-0.027,0.092-0.049,0.183-0.049
			c0.086,0,0.147,0.015,0.184,0.049c0.05,0.043,0.064,0.113,0.064,0.203C242.779,47.947,242.766,48.031,242.716,48.066z
			 M242.311,53.123v-3.93h0.405v3.93H242.311z"/>
		<path fill="#FFFFFF" d="M246.701,53.123l-0.099-0.428h-0.035c-0.056,0.078-0.153,0.211-0.188,0.238
			c-0.119,0.084-0.539,0.26-1.219,0.26c-0.547,0-0.841-0.133-1.002-0.315c-0.141-0.153-0.225-0.399-0.225-0.763
			c0-0.441,0.154-0.708,0.309-0.807c0.301-0.226,1.1-0.371,2.354-0.482c0-0.68-0.084-0.96-0.218-1.121
			c-0.127-0.146-0.385-0.217-0.826-0.217c-0.477,0-1.086,0.111-1.352,0.16V49.32c0.293-0.077,0.875-0.196,1.436-0.196
			c0.539,0,0.883,0.091,1.07,0.308c0.176,0.189,0.287,0.484,0.287,1.254v2.438L246.701,53.123L246.701,53.123z M246.596,51.141
			c-0.91,0.059-1.927,0.203-2.089,0.379c-0.104,0.092-0.174,0.268-0.174,0.563c0,0.252,0.063,0.436,0.16,0.546
			c0.118,0.126,0.37,0.226,0.799,0.226c0.597,0,1.092-0.168,1.304-0.273V51.141L246.596,51.141z"/>
		<path fill="#FFFFFF" d="M248.855,47.45v4.741c0,0.504,0.21,0.623,0.539,0.623c0.23,0,0.42-0.027,0.561-0.049v0.32
			c-0.168,0.035-0.414,0.077-0.68,0.077c-0.566,0-0.826-0.271-0.826-0.933v-4.78H248.855z"/>
		<path fill="#FFFFFF" d="M252.811,49.537h-1.394v2.619c0,0.533,0.244,0.645,0.687,0.645c0.321,0,0.616-0.049,0.771-0.07
			l-0.035,0.346c-0.209,0.042-0.539,0.091-0.84,0.091c-0.699,0-0.985-0.252-0.985-0.933v-2.695h-0.813l0.055-0.346h0.759v-0.816
			l0.403-0.104v0.924h1.474L252.811,49.537z"/>
		<path fill="#FFFFFF" d="M254.798,55.042h-0.428l0.771-1.919h-0.322l-1.471-3.93h0.44l1.311,3.572h0.184l1.387-3.572h0.439
			L254.798,55.042z"/>
		<path fill="#FFFFFF" d="M262.457,50.146l-0.564,0.266v0.027l0.596,0.211c0.237,0.194,0.428,0.645,0.428,1.1
			c0,1.009-0.574,1.443-1.996,1.443c-0.588,0-1.105-0.077-1.414-0.147v-0.356c0.322,0.057,0.89,0.142,1.414,0.142
			c1.304,0,1.576-0.429,1.576-1.079c0-0.934-0.623-1.105-1.414-1.105h-1.002v-0.363h0.908c0.688,0,1.408-0.176,1.408-1.086
			c0-0.672-0.252-1.021-1.314-1.021c-0.563,0-1.102,0.111-1.465,0.188V48.01c0.379-0.098,0.961-0.209,1.533-0.209
			c1.262,0,1.659,0.44,1.659,1.338C262.808,49.628,262.591,50.021,262.457,50.146z"/>
	</g>
	<g>
		<path fill="#FFFFFF" d="M140.058,13.438l-0.658-1.793h-2.563l-0.708,1.793h-0.427l2.101-5.253h0.75l1.961,5.253H140.058z
			 M138.272,8.57h-0.224l-1.079,2.71h2.304L138.272,8.57z"/>
		<path fill="#FFFFFF" d="M144.397,13.438l-0.104-0.42h-0.043c-0.014,0.028-0.182,0.245-0.193,0.252
			c-0.197,0.098-0.658,0.217-1.148,0.217c-0.566,0-0.862-0.119-1.079-0.343c-0.203-0.217-0.322-0.546-0.322-1.086V9.509h0.406v2.396
			c0,0.532,0.098,0.805,0.259,0.974c0.167,0.175,0.46,0.245,0.89,0.245c0.455,0,0.911-0.119,1.227-0.259V9.509h0.405v3.929H144.397z
			"/>
		<path fill="#FFFFFF" d="M147.259,11.638l-1.135,1.8h-0.463l1.281-1.982l-1.197-1.947h0.463l1.058,1.758h0.321l1.148-1.758h0.455
			l-1.288,1.947l1.246,1.982h-0.469l-1.106-1.8H147.259z"/>
		<path fill="#FFFFFF" d="M150.458,13.417c-0.035,0.042-0.127,0.056-0.211,0.056c-0.104,0-0.177-0.021-0.218-0.063
			c-0.043-0.042-0.057-0.112-0.057-0.217s0.043-0.189,0.084-0.224c0.043-0.021,0.104-0.042,0.202-0.042
			c0.084,0,0.169,0.014,0.203,0.049c0.05,0.035,0.07,0.119,0.07,0.217C150.535,13.284,150.514,13.368,150.458,13.417z"/>
		<path fill="#FFFFFF" d="M156.97,13.438l-3.02-4.861h-0.127v4.861h-0.386V8.185h0.729l2.99,4.819h0.135V8.185h0.385v5.253H156.97z"
			/>
		<path fill="#FFFFFF" d="M162.156,13.053c-0.273,0.28-0.672,0.469-1.365,0.469c-0.65,0-1.063-0.182-1.324-0.476
			c-0.225-0.259-0.428-0.722-0.428-1.478c0-0.763,0.203-1.379,0.563-1.716c0.279-0.266,0.715-0.448,1.338-0.448
			c0.598,0,1.008,0.168,1.254,0.413c0.287,0.301,0.462,0.756,0.462,1.569C162.653,12.156,162.457,12.738,162.156,13.053z
			 M161.82,12.843c0.244-0.252,0.42-0.687,0.42-1.387c0-0.806-0.154-1.142-0.363-1.359c-0.195-0.203-0.498-0.329-0.986-0.329
			c-0.482,0-0.807,0.154-0.988,0.322c-0.236,0.217-0.455,0.714-0.455,1.429c0,0.588,0.135,1.037,0.33,1.261
			c0.188,0.217,0.49,0.392,1.059,0.392C161.267,13.172,161.617,13.046,161.82,12.843z"/>
		<path fill="#FFFFFF" d="M166.664,7.73h0.414v5.708h-0.314l-0.1-0.371h-0.021c-0.069,0.077-0.202,0.231-0.244,0.259
			c-0.119,0.077-0.478,0.196-1.017,0.196c-0.553,0-0.909-0.112-1.155-0.315c-0.272-0.231-0.497-0.722-0.497-1.618
			c0-0.792,0.195-1.415,0.54-1.737c0.278-0.273,0.679-0.413,1.274-0.413c0.47,0,0.791,0.063,1.119,0.147V7.73L166.664,7.73z
			 M164.548,12.913c0.184,0.161,0.533,0.252,0.945,0.252c0.394,0,0.819-0.07,1.17-0.238V9.894c-0.267-0.035-0.629-0.105-1.063-0.105
			c-0.49,0-0.813,0.098-1.037,0.308c-0.237,0.224-0.412,0.708-0.412,1.464C164.15,12.332,164.332,12.724,164.548,12.913z"/>
		<path fill="#FFFFFF" d="M170.149,9.432c1.12,0,1.491,0.567,1.491,1.576v0.483h-2.864c0,1.072,0.31,1.653,1.408,1.653
			c0.567,0,1.028-0.091,1.302-0.133l-0.027,0.336c-0.278,0.07-0.783,0.168-1.322,0.168c-1.311,0-1.778-0.672-1.778-2.01
			C168.356,10.132,168.916,9.432,170.149,9.432z M168.791,11.176h2.451v-0.14c0-0.869-0.287-1.268-1.135-1.268
			C169.203,9.768,168.847,10.244,168.791,11.176z"/>
	</g>
	<g>
		<path fill="#FFFFFF" d="M207.625,13.438l-0.658-1.793h-2.563l-0.708,1.793h-0.427l2.102-5.253h0.75l1.961,5.253H207.625z
			 M205.839,8.57h-0.226l-1.077,2.71h2.305L205.839,8.57z"/>
		<path fill="#FFFFFF" d="M211.964,13.438l-0.104-0.42h-0.043c-0.014,0.028-0.183,0.245-0.194,0.252
			c-0.197,0.098-0.658,0.217-1.147,0.217c-0.565,0-0.86-0.119-1.078-0.343c-0.203-0.217-0.321-0.546-0.321-1.086V9.509h0.405v2.396
			c0,0.532,0.099,0.805,0.258,0.974c0.171,0.175,0.464,0.245,0.892,0.245c0.455,0,0.91-0.119,1.226-0.259V9.509h0.406v3.929H211.964
			z"/>
		<path fill="#FFFFFF" d="M214.826,11.638l-1.135,1.8h-0.462l1.282-1.982l-1.198-1.947h0.462l1.059,1.758h0.321l1.149-1.758h0.455
			l-1.289,1.947l1.246,1.982h-0.469l-1.106-1.8H214.826z"/>
		<path fill="#FFFFFF" d="M218.025,13.417c-0.035,0.042-0.127,0.056-0.211,0.056c-0.104,0-0.175-0.021-0.217-0.063
			s-0.057-0.112-0.057-0.217s0.043-0.189,0.084-0.224c0.043-0.021,0.104-0.042,0.203-0.042c0.084,0,0.168,0.014,0.202,0.049
			c0.05,0.035,0.069,0.119,0.069,0.217C218.102,13.284,218.082,13.368,218.025,13.417z"/>
		<path fill="#FFFFFF" d="M224.537,13.438l-3.02-4.861h-0.126v4.861h-0.386V8.185h0.729l2.991,4.819h0.134V8.185h0.385v5.253
			H224.537z"/>
		<path fill="#FFFFFF" d="M229.723,13.053c-0.272,0.28-0.673,0.469-1.365,0.469c-0.651,0-1.063-0.182-1.323-0.476
			c-0.225-0.259-0.428-0.722-0.428-1.478c0-0.763,0.203-1.379,0.561-1.716c0.281-0.266,0.715-0.448,1.338-0.448
			c0.597,0,1.01,0.168,1.254,0.413c0.287,0.301,0.464,0.756,0.464,1.569C230.221,12.156,230.024,12.738,229.723,13.053z
			 M229.387,12.843c0.245-0.252,0.42-0.687,0.42-1.387c0-0.806-0.154-1.142-0.363-1.359c-0.196-0.203-0.498-0.329-0.987-0.329
			c-0.481,0-0.806,0.154-0.988,0.322c-0.236,0.217-0.453,0.714-0.453,1.429c0,0.588,0.133,1.037,0.328,1.261
			c0.189,0.217,0.49,0.392,1.059,0.392C228.833,13.172,229.184,13.046,229.387,12.843z"/>
		<path fill="#FFFFFF" d="M234.23,7.73h0.414v5.708h-0.314l-0.1-0.371h-0.021c-0.067,0.077-0.201,0.231-0.244,0.259
			c-0.118,0.077-0.478,0.196-1.016,0.196c-0.554,0-0.91-0.112-1.156-0.315c-0.271-0.231-0.496-0.722-0.496-1.618
			c0-0.792,0.195-1.415,0.539-1.737c0.279-0.273,0.681-0.413,1.274-0.413c0.47,0,0.791,0.063,1.119,0.147L234.23,7.73L234.23,7.73z
			 M232.117,12.913c0.182,0.161,0.531,0.252,0.944,0.252c0.392,0,0.819-0.07,1.169-0.238V9.894
			c-0.266-0.035-0.629-0.105-1.064-0.105c-0.49,0-0.813,0.098-1.035,0.308c-0.236,0.224-0.414,0.708-0.414,1.464
			C231.716,12.332,231.898,12.724,232.117,12.913z"/>
		<path fill="#FFFFFF" d="M237.716,9.432c1.121,0,1.492,0.567,1.492,1.576v0.483h-2.864c0,1.072,0.309,1.653,1.407,1.653
			c0.565,0,1.028-0.091,1.303-0.133l-0.028,0.336c-0.278,0.07-0.782,0.168-1.323,0.168c-1.31,0-1.777-0.672-1.777-2.01
			C235.923,10.132,236.483,9.432,237.716,9.432z M236.357,11.176h2.451v-0.14c0-0.869-0.287-1.268-1.135-1.268
			C236.771,9.768,236.414,10.244,236.357,11.176z"/>
	</g>
	<g>
		<path fill="#FFFFFF" d="M72.489,13.438l-0.658-1.793h-2.563l-0.708,1.793h-0.427l2.101-5.253h0.75l1.961,5.253H72.489z
			 M70.703,8.57h-0.224L69.4,11.28h2.304L70.703,8.57z"/>
		<path fill="#FFFFFF" d="M76.828,13.438l-0.105-0.42h-0.042c-0.014,0.028-0.182,0.245-0.196,0.252
			c-0.196,0.098-0.658,0.217-1.149,0.217c-0.567,0-0.861-0.119-1.078-0.343c-0.203-0.217-0.322-0.546-0.322-1.086V9.509h0.406v2.396
			c0,0.532,0.098,0.805,0.259,0.974c0.168,0.175,0.462,0.245,0.89,0.245c0.455,0,0.911-0.119,1.226-0.259V9.509h0.406v3.929H76.828z
			"/>
		<path fill="#FFFFFF" d="M79.69,11.638l-1.135,1.8h-0.462l1.282-1.982l-1.198-1.947h0.462l1.057,1.758h0.322l1.149-1.758h0.455
			l-1.289,1.947l1.247,1.982h-0.469l-1.106-1.8H79.69z"/>
		<path fill="#FFFFFF" d="M82.889,13.417c-0.035,0.042-0.126,0.056-0.21,0.056c-0.105,0-0.175-0.021-0.217-0.063
			s-0.056-0.112-0.056-0.217s0.042-0.189,0.084-0.224c0.042-0.021,0.105-0.042,0.203-0.042c0.084,0,0.168,0.014,0.203,0.049
			c0.049,0.035,0.07,0.119,0.07,0.217C82.966,13.284,82.945,13.368,82.889,13.417z"/>
		<path fill="#FFFFFF" d="M89.4,13.438l-3.019-4.861h-0.126v4.861H85.87V8.185h0.728l2.991,4.819h0.133V8.185h0.385v5.253H89.4z"/>
		<path fill="#FFFFFF" d="M94.587,13.053c-0.273,0.28-0.672,0.469-1.366,0.469c-0.651,0-1.065-0.182-1.324-0.476
			c-0.224-0.259-0.427-0.722-0.427-1.478c0-0.763,0.203-1.379,0.56-1.716c0.28-0.266,0.714-0.448,1.338-0.448
			c0.595,0,1.008,0.168,1.254,0.413c0.287,0.301,0.462,0.756,0.462,1.569C95.084,12.156,94.888,12.738,94.587,13.053z M94.25,12.843
			c0.245-0.252,0.42-0.687,0.42-1.387c0-0.806-0.154-1.142-0.364-1.359c-0.196-0.203-0.497-0.329-0.987-0.329
			c-0.483,0-0.806,0.154-0.988,0.322c-0.238,0.217-0.455,0.714-0.455,1.429c0,0.588,0.133,1.037,0.329,1.261
			c0.189,0.217,0.49,0.392,1.058,0.392C93.697,13.172,94.047,13.046,94.25,12.843z"/>
		<path fill="#FFFFFF" d="M99.095,7.73h0.414v5.708h-0.315l-0.098-0.371h-0.021c-0.07,0.077-0.203,0.231-0.245,0.259
			c-0.119,0.077-0.476,0.196-1.015,0.196c-0.554,0-0.911-0.112-1.156-0.315c-0.273-0.231-0.498-0.722-0.498-1.618
			c0-0.792,0.196-1.415,0.54-1.737c0.28-0.273,0.679-0.413,1.275-0.413c0.469,0,0.791,0.063,1.12,0.147L99.095,7.73L99.095,7.73z
			 M96.98,12.913c0.182,0.161,0.532,0.252,0.945,0.252c0.392,0,0.819-0.07,1.169-0.238V9.894c-0.266-0.035-0.63-0.105-1.064-0.105
			c-0.49,0-0.813,0.098-1.037,0.308c-0.238,0.224-0.413,0.708-0.413,1.464C96.581,12.332,96.763,12.724,96.98,12.913z"/>
		<path fill="#FFFFFF" d="M102.58,9.432c1.121,0,1.492,0.567,1.492,1.576v0.483h-2.865c0,1.072,0.309,1.653,1.408,1.653
			c0.567,0,1.029-0.091,1.302-0.133l-0.028,0.336c-0.28,0.07-0.784,0.168-1.324,0.168c-1.31,0-1.779-0.672-1.779-2.01
			C100.787,10.132,101.347,9.432,102.58,9.432z M101.221,11.176h2.451v-0.14c0-0.869-0.287-1.268-1.134-1.268
			C101.634,9.768,101.277,10.244,101.221,11.176z"/>
	</g>
</g>
<g>
	<path fill="#FFFFFF" d="M24.665,49.72V31.718h10.969l-0.312,1.272h-9.241v7.465h8.113l-0.288,1.248h-7.825v8.017H24.665z"/>
	<path fill="#FFFFFF" d="M38.848,49.72V31.718h1.416V49.72H38.848z"/>
	<path fill="#FFFFFF" d="M57.858,49.72L47.513,33.063h-0.432V49.72h-1.32V31.718h2.496l10.249,16.515h0.456V31.718h1.32V49.72
		H57.858z"/>
</g>
<g>
	<path fill="#FFFFFF" d="M86.707,64.561c1.947,0,3.054,0.28,3.684,0.883c0.673,0.645,1.121,1.989,1.121,4.202
		c0,2.157-0.589,3.726-1.415,4.454c-0.7,0.603-1.793,0.967-3.88,0.967h-3.096V64.561H86.707z M83.947,65.317v8.992h2.157
		c1.863,0,2.83-0.279,3.404-0.742c0.686-0.574,1.162-1.947,1.162-3.908c0-1.625-0.28-2.955-0.938-3.628
		c-0.574-0.603-1.835-0.714-3.138-0.714H83.947z"/>
	<path fill="#FFFFFF" d="M97.431,67.054c2.241,0,2.983,1.135,2.983,3.152v0.966h-5.729c0,2.144,0.617,3.307,2.816,3.307
		c1.134,0,2.059-0.183,2.604-0.267l-0.056,0.673c-0.561,0.14-1.568,0.336-2.647,0.336c-2.619,0-3.558-1.345-3.558-4.021
		C93.845,68.455,94.965,67.054,97.431,67.054z M94.713,70.542h4.902v-0.28c0-1.737-0.574-2.535-2.269-2.535
		C95.539,67.727,94.825,68.679,94.713,70.542z"/>
	<path fill="#FFFFFF" d="M106.755,67.895h-2.759v7.172h-0.813v-7.172h-1.64l0.099-0.687h1.541v-0.854
		c0-2.017,0.813-2.661,2.521-2.661c0.574,0,1.232,0.084,1.471,0.112v0.644c-0.295-0.014-0.771-0.084-1.387-0.084
		c-1.513,0-1.793,0.645-1.793,2.115v0.729h2.913L106.755,67.895z"/>
	<path fill="#FFFFFF" d="M112.663,67.895h-2.788v5.239c0,1.064,0.491,1.288,1.373,1.288c0.645,0,1.232-0.098,1.541-0.14l-0.07,0.687
		c-0.42,0.084-1.078,0.182-1.681,0.182c-1.4,0-1.975-0.504-1.975-1.863v-5.393h-1.625l0.111-0.687h1.514v-1.639l0.812-0.21v1.849
		h2.942L112.663,67.895z"/>
	<path fill="#FFFFFF" d="M125.656,65.401c-0.729-0.084-1.457-0.21-2.787-0.21c-1.513,0-2.354,0.322-2.928,0.771
		c-0.645,0.518-1.289,1.904-1.289,3.894c0,1.765,0.351,3.082,1.009,3.74c0.546,0.546,1.442,0.841,2.913,0.841
		c1.205,0,2.34-0.211,3.082-0.351v0.7c-0.854,0.225-2.031,0.42-3.235,0.42c-1.793,0-2.689-0.363-3.418-1.05
		c-0.645-0.631-1.205-1.919-1.205-4.175c0-2.689,0.911-4.034,1.555-4.553c0.687-0.588,1.682-1.008,3.502-1.008
		c1.261,0,2.073,0.14,2.802,0.266V65.401z"/>
	<path fill="#FFFFFF" d="M133.874,74.296c-0.547,0.561-1.345,0.938-2.731,0.938c-1.303,0-2.13-0.364-2.647-0.952
		c-0.448-0.519-0.854-1.443-0.854-2.956c0-1.526,0.406-2.759,1.12-3.432c0.561-0.532,1.429-0.896,2.676-0.896
		c1.19,0,2.017,0.336,2.508,0.826c0.574,0.603,0.924,1.513,0.924,3.138C134.868,72.503,134.477,73.666,133.874,74.296z
		 M133.201,73.876c0.49-0.505,0.841-1.373,0.841-2.773c0-1.611-0.309-2.283-0.729-2.718c-0.393-0.406-0.994-0.658-1.975-0.658
		c-0.967,0-1.611,0.308-1.976,0.645c-0.477,0.434-0.91,1.429-0.91,2.857c0,1.177,0.266,2.073,0.658,2.521
		c0.378,0.434,0.98,0.784,2.115,0.784C132.095,74.534,132.795,74.282,133.201,73.876z"/>
	<path fill="#FFFFFF" d="M148.031,75.066v-4.86c0-1.037-0.184-1.583-0.52-1.905s-0.924-0.477-1.582-0.477
		c-1.01,0-1.836,0.337-2.396,0.631v6.611h-0.813v-5.379c0-0.687-0.111-1.106-0.434-1.415c-0.336-0.322-0.995-0.448-1.639-0.448
		c-1.022,0-1.835,0.294-2.423,0.532v6.71h-0.813v-7.858h0.603l0.21,0.826h0.07l0.42-0.462c0.364-0.196,1.232-0.477,2.255-0.477
		c1.009,0,1.653,0.225,2.088,0.645c0.182,0.168,0.279,0.336,0.35,0.463h0.07l0.434-0.547c0.449-0.252,1.346-0.561,2.367-0.561
		c0.924,0,1.514,0.211,1.934,0.617c0.447,0.42,0.631,1.134,0.631,2.213v5.141H148.031z"/>
	<path fill="#FFFFFF" d="M157.449,74.338c-0.531,0.505-1.344,0.799-2.676,0.799c-0.967,0-1.793-0.141-2.492-0.309l-0.406,0.238
		h-0.113V63.721h0.813v4.244h0.057c0.111-0.154,0.434-0.463,0.518-0.505c0.225-0.153,1.148-0.406,2.213-0.406
		c1.094,0,1.752,0.238,2.199,0.631c0.561,0.504,0.967,1.471,0.967,3.081C158.527,72.433,158.121,73.693,157.449,74.338z
		 M156.917,68.287c-0.365-0.322-0.926-0.505-1.863-0.505c-0.855,0-1.793,0.154-2.48,0.463v6.009
		c0.547,0.084,1.316,0.196,2.115,0.196c1.064,0,1.723-0.21,2.145-0.603c0.504-0.477,0.854-1.457,0.854-2.913
		C157.687,69.464,157.324,68.651,156.917,68.287z"/>
	<path fill="#FFFFFF" d="M166.101,75.066l-0.195-0.854h-0.07c-0.113,0.154-0.309,0.42-0.379,0.477
		c-0.238,0.168-1.078,0.518-2.438,0.518c-1.092,0-1.68-0.266-2.002-0.63c-0.281-0.309-0.449-0.799-0.449-1.526
		c0-0.883,0.309-1.415,0.617-1.611c0.602-0.448,2.199-0.742,4.705-0.967c0-1.358-0.168-1.919-0.434-2.241
		c-0.252-0.294-0.77-0.434-1.652-0.434c-0.953,0-2.172,0.224-2.703,0.321V67.46c0.588-0.153,1.75-0.392,2.871-0.392
		c1.078,0,1.766,0.182,2.143,0.616c0.35,0.378,0.574,0.967,0.574,2.507v4.875H166.101z M165.89,71.103
		c-1.82,0.111-3.852,0.406-4.174,0.756c-0.209,0.183-0.35,0.532-0.35,1.121c0,0.504,0.125,0.868,0.322,1.093
		c0.238,0.252,0.742,0.448,1.596,0.448c1.191,0,2.186-0.337,2.605-0.547V71.103z"/>
	<path fill="#FFFFFF" d="M173.675,67.895h-2.789v5.239c0,1.064,0.492,1.288,1.373,1.288c0.645,0,1.232-0.098,1.541-0.14l-0.07,0.687
		c-0.42,0.084-1.078,0.182-1.68,0.182c-1.4,0-1.975-0.504-1.975-1.863v-5.393h-1.625l0.111-0.687h1.514v-1.639l0.811-0.21v1.849
		h2.943L173.675,67.895z"/>
</g>
</svg>
