<?xml version="1.0" standalone="no"?><!DOCTYPE svg PUBLIC "-//W3C//DTD SVG 1.1//EN" "http://www.w3.org/Graphics/SVG/1.1/DTD/svg11.dtd"><svg width="100%" height="100%" viewBox="0 0 284 86" version="1.1" xmlns="http://www.w3.org/2000/svg" xmlns:xlink="http://www.w3.org/1999/xlink" xml:space="preserve" style="fill-rule:evenodd;clip-rule:evenodd;stroke-linejoin:round;stroke-miterlimit:1.41421;"><g id="primary"><path d="M2.837,42.52l39.684,39.684l39.684,-39.683l-39.685,-39.685l-39.683,39.684Z" style="fill:#ce6700;"/><path d="M86.962,53.858l-5.621,5.621l53.441,-0.001l-22.725,22.724l-62.48,0.002l28.369,-28.346l-5.097,0l5.669,-5.669l-3.918,0l0,-11.339l3.916,0l-5.669,-5.669l5.099,0l-28.369,-28.346l62.48,0.002l22.725,22.724l-53.441,-0.001l5.621,5.621l53.438,0l5.669,5.669l1.981,0l-5.669,-5.669l0.003,0l-28.369,-28.346l62.48,0.002l22.725,22.724l-53.441,-0.001l5.621,5.621l53.445,0l5.669,5.669l1.982,0l-5.669,-5.669l0.002,0l-28.369,-28.346l62.48,0.002l22.726,22.724l-53.442,-0.001l5.621,5.621l53.445,0l11.34,11.34l-11.337,11.337l-53.448,0l-5.621,5.621l53.442,-0.001l-22.726,22.724l-62.48,0.002l28.369,-28.346c0,0 5.669,-5.669 5.669,-5.669l-1.982,0l-5.669,5.669l-53.447,0l-5.621,5.621l53.441,-0.001l-22.725,22.724l-62.48,0.002l28.369,-28.346c0,0 5.669,-5.669 5.669,-5.669l-1.982,0l-5.669,5.669l-53.44,0Z" style="fill:#ce6700;"/><g><g><path d="M91.295,47.794l0,-0.714l3.096,0l0,-9.217l-3.096,0.56l0,-0.714l3.894,-0.687l0,10.058l2.802,0l0,0.714l-6.696,0Z" style="fill:#fff;fill-rule:nonzero;"/><path d="M113.936,47.794l-7.214,0l0,-0.84c0.126,-1.541 0.966,-2.536 3.432,-3.74c1.569,-0.784 2.255,-1.19 2.62,-1.667c0.308,-0.434 0.392,-0.994 0.392,-1.541c0,-1.443 -0.532,-2.101 -2.815,-2.101c-1.247,0 -2.591,0.308 -3.208,0.448l0,-0.729c0.826,-0.224 2.115,-0.477 3.375,-0.477c2.675,0 3.516,0.869 3.516,2.76c0,0.953 -0.21,1.611 -0.532,2.017c-0.546,0.714 -1.625,1.261 -2.998,1.933c-2.563,1.247 -2.969,2.129 -2.998,3.18l6.64,0l-0.21,0.757Z" style="fill:#fff;fill-rule:nonzero;"/><path d="M128.734,41.841l-1.135,0.532l0,0.056l1.19,0.42c0.477,0.393 0.854,1.289 0.854,2.199c0,2.017 -1.148,2.886 -3.992,2.886c-1.176,0 -2.213,-0.154 -2.83,-0.294l0,-0.714c0.645,0.112 1.779,0.28 2.83,0.28c2.605,0 3.152,-0.854 3.152,-2.157c0,-1.863 -1.247,-2.213 -2.83,-2.213l-2.003,0l0,-0.729l1.821,0c1.373,0 2.815,-0.35 2.815,-2.171c0,-1.345 -0.504,-2.045 -2.633,-2.045c-1.121,0 -2.199,0.224 -2.928,0.378l0,-0.701c0.757,-0.196 1.919,-0.42 3.068,-0.42c2.521,0 3.32,0.883 3.32,2.676c0.001,0.98 -0.433,1.764 -0.699,2.017Z" style="fill:#fff;fill-rule:nonzero;"/></g><g><path d="M166.718,47.794l-0.771,0l0,-2.983l-5.394,0l0,-0.813l4.638,-6.71l1.526,0l0,6.822l2.354,0l-0.211,0.701l-2.144,0l0.002,2.983ZM165.948,44.11l0,-6.135l-0.379,0l-4.104,5.953l0,0.182l4.483,0Z" style="fill:#fff;fill-rule:nonzero;"/><path d="M179.903,47.934c-0.965,0 -1.987,-0.14 -2.717,-0.252l0,-0.743c0.672,0.098 1.709,0.238 2.76,0.238c2.424,0 3.265,-0.687 3.265,-2.423c0,-1.849 -0.588,-2.325 -2.746,-2.325c-0.994,0 -2.339,0.21 -2.955,0.294l0,-5.435l6.22,0l0,0.714l-5.49,0l0,3.95c0.588,-0.098 1.399,-0.252 2.479,-0.252c2.438,0 3.334,0.645 3.334,2.941c-0.003,2.214 -1.025,3.293 -4.15,3.293Z" style="fill:#fff;fill-rule:nonzero;"/><path d="M193.666,42.667l0.069,0l0.447,-0.462c0.604,-0.224 1.695,-0.532 2.971,-0.532c2.479,0 3.306,1.036 3.306,2.983c0,2.031 -1.052,3.278 -3.754,3.278c-2.941,0 -3.853,-1.863 -3.853,-4.959c0,-1.947 0.547,-3.348 1.373,-4.23c0.967,-1.009 2.508,-1.639 5.211,-1.667l0.279,0.743c-2.633,0.014 -4.063,0.56 -4.902,1.457c-0.658,0.699 -1.092,1.89 -1.147,3.389ZM196.886,42.401c-1.246,0 -2.395,0.308 -3.221,0.63c0.027,2.9 0.938,4.174 3.08,4.174c2.004,0 2.9,-0.784 2.9,-2.479c0.001,-1.624 -0.658,-2.325 -2.759,-2.325Z" style="fill:#fff;fill-rule:nonzero;"/></g><g><path d="M229.528,38.227l0,-0.196l-6.315,0l0.224,-0.743l6.989,0l0,0.925l-5.015,9.581l-0.91,0l5.027,-9.567Z" style="fill:#fff;fill-rule:nonzero;"/><path d="M240.167,42.919l0.951,-0.519l0,-0.07l-0.84,-0.434c-0.364,-0.364 -0.715,-0.883 -0.715,-1.849c0,-1.695 1.064,-2.914 3.529,-2.914c2.452,0 3.362,1.092 3.362,2.661c0,0.995 -0.421,1.597 -0.813,2.017l-0.867,0.519l0,0.07l1.063,0.393c0.562,0.448 0.883,1.163 0.883,2.115c0,1.737 -1.079,3.026 -3.838,3.026c-2.604,0 -3.685,-1.037 -3.685,-2.815c0.003,-0.897 0.367,-1.64 0.97,-2.2ZM240.027,45.02c0,1.401 0.813,2.199 2.941,2.199c2.171,0 2.928,-1.022 2.928,-2.227c0,-1.919 -1.219,-2.073 -4.343,-2.41c-0.771,0.505 -1.526,1.192 -1.526,2.438ZM240.39,39.977c0,1.723 1.094,1.961 3.838,2.213c0.883,-0.546 1.387,-1.261 1.387,-2.297c0,-1.345 -0.756,-2.045 -2.604,-2.045c-1.934,0.001 -2.621,0.953 -2.621,2.129Z" style="fill:#fff;fill-rule:nonzero;"/><path d="M261.883,42.429l-0.069,0l-0.436,0.462c-0.574,0.238 -1.652,0.519 -2.857,0.519c-2.507,0 -3.39,-1.009 -3.39,-2.942c0,-2.213 1.388,-3.32 3.739,-3.32c2.746,0 3.824,1.527 3.824,4.861c0,2.003 -0.545,3.474 -1.373,4.342c-0.924,1.009 -2.506,1.611 -5.225,1.667l-0.267,-0.771c2.592,-0.014 4.104,-0.532 4.917,-1.415c0.633,-0.713 1.095,-1.89 1.137,-3.403ZM258.704,42.681c1.261,0 2.396,-0.294 3.18,-0.588c-0.027,-2.97 -0.882,-4.216 -3.066,-4.216c-1.961,0 -2.873,0.938 -2.873,2.536c0,1.568 0.699,2.268 2.759,2.268Z" style="fill:#fff;fill-rule:nonzero;"/></g></g><g id="v"><path d="M82.134,63.631l-3.968,0l-0.097,0.39l3.577,0l0,0.09l-3.832,4.62l0,0.525l4.402,0l0.113,-0.39l-4.013,0l0,-0.097l3.818,-4.583l0,-0.555Z" style="fill:#fff;fill-rule:nonzero;"/><path d="M87.129,67.059c0,-0.87 -0.188,-1.358 -0.495,-1.68c-0.263,-0.263 -0.705,-0.443 -1.343,-0.443c-0.667,0 -1.132,0.195 -1.432,0.48c-0.383,0.36 -0.6,1.02 -0.6,1.838c0,0.81 0.217,1.305 0.457,1.582c0.278,0.315 0.72,0.51 1.418,0.51c0.742,0 1.17,-0.202 1.462,-0.502c0.323,-0.338 0.533,-0.96 0.533,-1.785ZM85.179,68.971c-0.608,0 -0.93,-0.187 -1.133,-0.42c-0.21,-0.24 -0.352,-0.72 -0.352,-1.35c0,-0.765 0.232,-1.297 0.487,-1.53c0.195,-0.18 0.54,-0.345 1.058,-0.345c0.525,0 0.847,0.135 1.057,0.353c0.225,0.232 0.39,0.592 0.39,1.455c0,0.75 -0.187,1.215 -0.45,1.485c-0.217,0.217 -0.592,0.352 -1.057,0.352Z" style="fill:#fff;fill-rule:nonzero;"/><path d="M91.914,69.256l0,-2.752c0,-0.57 -0.12,-0.953 -0.353,-1.17c-0.225,-0.225 -0.547,-0.345 -1.095,-0.345c-0.532,0 -1.072,0.15 -1.275,0.262c-0.022,0.015 -0.195,0.21 -0.217,0.24l-0.038,0l-0.12,-0.442l-0.315,0l0,4.207l0.435,0l0,-3.6c0.33,-0.135 0.803,-0.277 1.343,-0.277c0.39,0 0.72,0.075 0.907,0.255c0.188,0.18 0.293,0.487 0.293,1.02l0,2.602l0.435,0Z" style="fill:#fff;fill-rule:nonzero;"/><path d="M93.271,67.186c0,1.433 0.503,2.153 1.905,2.153c0.578,0 1.118,-0.105 1.418,-0.18l0.03,-0.36c-0.293,0.045 -0.788,0.142 -1.395,0.142c-1.178,0 -1.508,-0.622 -1.508,-1.77l3.068,0l0,-0.517c0,-1.08 -0.398,-1.688 -1.598,-1.688c-1.32,0 -1.92,0.75 -1.92,2.22ZM95.146,65.326c0.908,0 1.215,0.428 1.215,1.358l0,0.15l-2.625,0c0.06,-0.998 0.443,-1.508 1.41,-1.508Z" style="fill:#fff;fill-rule:nonzero;"/><path d="M103.434,67.059c0,-0.87 -0.188,-1.358 -0.495,-1.68c-0.263,-0.263 -0.705,-0.443 -1.343,-0.443c-0.667,0 -1.132,0.195 -1.432,0.48c-0.383,0.36 -0.6,1.02 -0.6,1.838c0,0.81 0.217,1.305 0.457,1.582c0.278,0.315 0.72,0.51 1.418,0.51c0.742,0 1.17,-0.202 1.462,-0.502c0.323,-0.338 0.533,-0.96 0.533,-1.785ZM101.484,68.971c-0.608,0 -0.93,-0.187 -1.133,-0.42c-0.21,-0.24 -0.352,-0.72 -0.352,-1.35c0,-0.765 0.232,-1.297 0.487,-1.53c0.195,-0.18 0.54,-0.345 1.058,-0.345c0.525,0 0.847,0.135 1.057,0.353c0.225,0.232 0.39,0.592 0.39,1.455c0,0.75 -0.187,1.215 -0.45,1.485c-0.217,0.217 -0.592,0.352 -1.057,0.352Z" style="fill:#fff;fill-rule:nonzero;"/><path d="M106.981,65.049l-1.56,0l0,-0.39c0,-0.788 0.15,-1.133 0.96,-1.133c0.33,0 0.585,0.038 0.743,0.045l0,-0.345c-0.128,-0.015 -0.48,-0.06 -0.788,-0.06c-0.915,0 -1.35,0.345 -1.35,1.425l0,0.458l-0.825,0l-0.052,0.367l0.877,0l0,3.84l0.435,0l0,-3.84l1.478,0l0.082,-0.367Z" style="fill:#fff;fill-rule:nonzero;"/><path d="M80.682,71.131l0,5.625l1.658,0c1.117,0 1.702,-0.195 2.077,-0.517c0.443,-0.39 0.758,-1.23 0.758,-2.385c0,-1.185 -0.24,-1.905 -0.6,-2.25c-0.338,-0.323 -0.93,-0.473 -1.973,-0.473l-1.92,0ZM82.542,71.536c0.698,0 1.373,0.06 1.68,0.383c0.353,0.36 0.503,1.072 0.503,1.942c0,1.05 -0.255,1.785 -0.623,2.093c-0.307,0.247 -0.825,0.397 -1.822,0.397l-1.155,0l0,-4.815l1.417,0Z" style="fill:#fff;fill-rule:nonzero;"/><path d="M86.427,74.686c0,1.433 0.503,2.153 1.905,2.153c0.578,0 1.118,-0.105 1.418,-0.18l0.03,-0.36c-0.293,0.045 -0.788,0.142 -1.395,0.142c-1.178,0 -1.508,-0.622 -1.508,-1.77l3.068,0l0,-0.517c0,-1.08 -0.398,-1.688 -1.598,-1.688c-1.32,0 -1.92,0.75 -1.92,2.22ZM88.302,72.826c0.908,0 1.215,0.428 1.215,1.358l0,0.15l-2.625,0c0.06,-0.998 0.443,-1.508 1.41,-1.508Z" style="fill:#fff;fill-rule:nonzero;"/><path d="M94.662,76.756l0,-2.752c0,-0.57 -0.12,-0.953 -0.352,-1.17c-0.225,-0.225 -0.548,-0.345 -1.095,-0.345c-0.533,0 -1.073,0.15 -1.275,0.262c-0.023,0.015 -0.195,0.21 -0.218,0.24l-0.037,0l-0.12,-0.442l-0.315,0l0,4.207l0.435,0l0,-3.6c0.33,-0.135 0.802,-0.277 1.342,-0.277c0.39,0 0.72,0.075 0.908,0.255c0.187,0.18 0.292,0.487 0.292,1.02l0,2.602l0.435,0Z" style="fill:#fff;fill-rule:nonzero;"/><path d="M96.665,76.756l0,-4.207l-0.435,0l0,4.207l0.435,0ZM96.732,71.116c0,-0.097 -0.015,-0.172 -0.067,-0.217c-0.038,-0.038 -0.105,-0.053 -0.195,-0.053c-0.098,0 -0.173,0.023 -0.195,0.053c-0.06,0.03 -0.09,0.112 -0.09,0.225c0,0.097 0.022,0.172 0.06,0.21c0.037,0.045 0.105,0.06 0.21,0.06c0.082,0 0.165,-0.015 0.21,-0.053c0.052,-0.037 0.067,-0.127 0.067,-0.225Z" style="fill:#fff;fill-rule:nonzero;"/><path d="M101.247,76.756l0,-2.61c0,-0.825 -0.12,-1.14 -0.307,-1.342c-0.203,-0.233 -0.57,-0.33 -1.148,-0.33c-0.6,0 -1.222,0.127 -1.537,0.21l0,0.352c0.285,-0.052 0.937,-0.172 1.447,-0.172c0.473,0 0.75,0.075 0.885,0.232c0.143,0.173 0.233,0.473 0.233,1.2c-1.343,0.12 -2.198,0.278 -2.52,0.518c-0.165,0.105 -0.33,0.39 -0.33,0.862c0,0.39 0.09,0.653 0.24,0.818c0.172,0.195 0.487,0.337 1.072,0.337c0.728,0 1.178,-0.187 1.305,-0.277c0.038,-0.03 0.143,-0.173 0.203,-0.255l0.037,0l0.105,0.457l0.315,0ZM100.82,76.171c-0.225,0.113 -0.758,0.293 -1.395,0.293c-0.458,0 -0.728,-0.105 -0.855,-0.24c-0.105,-0.12 -0.173,-0.315 -0.173,-0.585c0,-0.315 0.075,-0.503 0.188,-0.6c0.172,-0.188 1.26,-0.345 2.235,-0.405l0,1.537Z" style="fill:#fff;fill-rule:nonzero;"/><path d="M102.807,70.681l0,5.123c0,0.705 0.278,0.997 0.885,0.997c0.285,0 0.548,-0.045 0.728,-0.082l0,-0.345c-0.15,0.022 -0.353,0.052 -0.6,0.052c-0.353,0 -0.578,-0.127 -0.578,-0.667l0,-5.078l-0.435,0Z" style="fill:#fff;fill-rule:nonzero;"/></g><g id="v1"><path d="M134.392,73.006l-2.1,-5.625l-0.803,0l-2.25,5.625l0.458,0l0.757,-1.92l2.745,0l0.705,1.92l0.488,0ZM133.064,70.696l-2.467,0l1.155,-2.902l0.24,0l1.072,2.902Z" style="fill:#fff;fill-rule:nonzero;"/><path d="M141.584,73.006l0,-2.752c0,-0.578 -0.097,-0.96 -0.337,-1.185c-0.225,-0.218 -0.54,-0.33 -1.035,-0.33c-0.548,0 -1.028,0.165 -1.268,0.3l-0.232,0.292l-0.038,0c-0.037,-0.067 -0.09,-0.157 -0.187,-0.247c-0.233,-0.225 -0.578,-0.345 -1.118,-0.345c-0.547,0 -1.012,0.15 -1.207,0.255l-0.225,0.247l-0.038,0l-0.112,-0.442l-0.323,0l0,4.207l0.435,0l0,-3.592c0.315,-0.128 0.75,-0.285 1.298,-0.285c0.345,0 0.697,0.067 0.877,0.24c0.173,0.165 0.233,0.39 0.233,0.757l0,2.88l0.435,0l0,-3.54c0.3,-0.157 0.742,-0.337 1.282,-0.337c0.353,0 0.668,0.082 0.848,0.255c0.18,0.172 0.277,0.465 0.277,1.02l0,2.602l0.435,0Z" style="fill:#fff;fill-rule:nonzero;"/><path d="M146.774,70.704c0,-0.863 -0.217,-1.38 -0.517,-1.65c-0.24,-0.21 -0.593,-0.338 -1.178,-0.338c-0.57,0 -1.065,0.135 -1.185,0.218c-0.045,0.022 -0.217,0.187 -0.277,0.27l-0.03,0l0,-2.273l-0.435,0l0,6.075l0.06,0l0.217,-0.127c0.375,0.09 0.818,0.165 1.335,0.165c0.713,0 1.148,-0.158 1.433,-0.428c0.36,-0.345 0.577,-1.02 0.577,-1.912ZM146.324,70.794c0,0.78 -0.187,1.305 -0.457,1.56c-0.225,0.21 -0.578,0.322 -1.148,0.322c-0.427,0 -0.84,-0.06 -1.132,-0.105l0,-3.217c0.367,-0.165 0.87,-0.248 1.327,-0.248c0.503,0 0.803,0.098 0.998,0.27c0.217,0.195 0.412,0.63 0.412,1.418Z" style="fill:#fff;fill-rule:nonzero;"/><path d="M148.582,73.006l0,-4.207l-0.435,0l0,4.207l0.435,0ZM148.649,67.366c0,-0.097 -0.015,-0.172 -0.067,-0.217c-0.038,-0.038 -0.105,-0.053 -0.195,-0.053c-0.098,0 -0.173,0.023 -0.195,0.053c-0.06,0.03 -0.09,0.112 -0.09,0.225c0,0.097 0.022,0.172 0.06,0.21c0.037,0.045 0.105,0.06 0.21,0.06c0.082,0 0.165,-0.015 0.21,-0.053c0.052,-0.037 0.067,-0.127 0.067,-0.225Z" style="fill:#fff;fill-rule:nonzero;"/><path d="M153.089,68.881c-0.352,-0.09 -0.697,-0.157 -1.2,-0.157c-0.637,0 -1.065,0.15 -1.365,0.442c-0.367,0.345 -0.577,1.013 -0.577,1.86c0,0.96 0.24,1.485 0.532,1.733c0.263,0.217 0.645,0.337 1.238,0.337c0.577,0 0.96,-0.127 1.087,-0.21c0.045,-0.03 0.188,-0.195 0.263,-0.277l0.022,0l0.105,0.397l0.338,0l0,-6.112l-0.443,0l0,1.987ZM150.397,70.996c0,-0.81 0.187,-1.327 0.442,-1.567c0.24,-0.225 0.585,-0.33 1.11,-0.33c0.465,0 0.855,0.075 1.14,0.112l0,3.248c-0.375,0.18 -0.832,0.255 -1.252,0.255c-0.443,0 -0.818,-0.098 -1.013,-0.27c-0.232,-0.203 -0.427,-0.623 -0.427,-1.448Z" style="fill:#fff;fill-rule:nonzero;"/><path d="M154.904,70.936c0,1.433 0.503,2.153 1.905,2.153c0.578,0 1.118,-0.105 1.418,-0.18l0.03,-0.36c-0.293,0.045 -0.788,0.142 -1.395,0.142c-1.178,0 -1.508,-0.622 -1.508,-1.77l3.068,0l0,-0.517c0,-1.08 -0.398,-1.688 -1.598,-1.688c-1.32,0 -1.92,0.75 -1.92,2.22ZM156.779,69.076c0.908,0 1.215,0.428 1.215,1.358l0,0.15l-2.625,0c0.06,-0.998 0.443,-1.508 1.41,-1.508Z" style="fill:#fff;fill-rule:nonzero;"/><path d="M161.234,71.079l1.185,1.927l0.503,0l-1.335,-2.122l1.38,-2.085l-0.488,0l-1.23,1.882l-0.345,0l-1.132,-1.882l-0.495,0l1.282,2.085l-1.372,2.122l0.495,0l1.215,-1.927l0.337,0Z" style="fill:#fff;fill-rule:nonzero;"/><path d="M166.342,68.799l-1.575,0l0,-0.99l-0.435,0.112l0,0.878l-0.81,0l-0.06,0.367l0.87,0l0,2.888c0,0.727 0.307,0.997 1.057,0.997c0.323,0 0.675,-0.052 0.9,-0.097l0.038,-0.368c-0.165,0.023 -0.48,0.075 -0.825,0.075c-0.473,0 -0.735,-0.12 -0.735,-0.69l0,-2.805l1.492,0l0.083,-0.367Z" style="fill:#fff;fill-rule:nonzero;"/><path d="M167.107,70.936c0,1.433 0.502,2.153 1.905,2.153c0.577,0 1.117,-0.105 1.417,-0.18l0.03,-0.36c-0.292,0.045 -0.787,0.142 -1.395,0.142c-1.177,0 -1.507,-0.622 -1.507,-1.77l3.067,0l0,-0.517c0,-1.08 -0.397,-1.688 -1.597,-1.688c-1.32,0 -1.92,0.75 -1.92,2.22ZM168.982,69.076c0.907,0 1.215,0.428 1.215,1.358l0,0.15l-2.625,0c0.06,-0.998 0.442,-1.508 1.41,-1.508Z" style="fill:#fff;fill-rule:nonzero;"/><path d="M171.929,68.799l0,4.207l0.435,0l0,-3.54c0.255,-0.165 0.735,-0.337 1.245,-0.33c0.255,0 0.473,0.03 0.6,0.053l0,-0.42c-0.112,-0.015 -0.27,-0.03 -0.48,-0.03c-0.525,0 -0.907,0.142 -1.11,0.262c-0.015,0.015 -0.195,0.233 -0.217,0.263l-0.045,0l-0.105,-0.465l-0.323,0Z" style="fill:#fff;fill-rule:nonzero;"/><path d="M175.597,73.006l0,-4.207l-0.435,0l0,4.207l0.435,0ZM175.664,67.366c0,-0.097 -0.015,-0.172 -0.067,-0.217c-0.038,-0.038 -0.105,-0.053 -0.195,-0.053c-0.098,0 -0.173,0.023 -0.195,0.053c-0.06,0.03 -0.09,0.112 -0.09,0.225c0,0.097 0.022,0.172 0.06,0.21c0.037,0.045 0.105,0.06 0.21,0.06c0.082,0 0.165,-0.015 0.21,-0.053c0.052,-0.037 0.067,-0.127 0.067,-0.225Z" style="fill:#fff;fill-rule:nonzero;"/><path d="M179.497,68.799l-1.575,0l0,-0.99l-0.435,0.112l0,0.878l-0.81,0l-0.06,0.367l0.87,0l0,2.888c0,0.727 0.307,0.997 1.057,0.997c0.323,0 0.675,-0.052 0.9,-0.097l0.038,-0.368c-0.165,0.023 -0.48,0.075 -0.825,0.075c-0.473,0 -0.735,-0.12 -0.735,-0.69l0,-2.805l1.492,0l0.083,-0.367Z" style="fill:#fff;fill-rule:nonzero;"/><path d="M184.019,68.799l-0.472,0l-1.485,3.825l-0.195,0l-1.403,-3.825l-0.472,0l1.575,4.207l0.345,0l-0.825,2.055l0.457,0l2.475,-6.262Z" style="fill:#fff;fill-rule:nonzero;"/></g><g id="v2"><path d="M212.898,73.006l0,-5.625l-0.78,0l-2.055,4.515l-0.128,0l-1.972,-4.515l-0.81,0l0,5.625l0.412,0l0,-5.212l0.12,0l1.995,4.53l0.608,0l2.07,-4.53l0.112,0l0,5.212l0.428,0Z" style="fill:#fff;fill-rule:nonzero;"/><path d="M214.36,70.936c0,1.433 0.503,2.153 1.905,2.153c0.578,0 1.118,-0.105 1.418,-0.18l0.03,-0.36c-0.293,0.045 -0.788,0.142 -1.395,0.142c-1.178,0 -1.508,-0.622 -1.508,-1.77l3.068,0l0,-0.517c0,-1.08 -0.398,-1.688 -1.598,-1.688c-1.32,0 -1.92,0.75 -1.92,2.22ZM216.235,69.076c0.908,0 1.215,0.428 1.215,1.358l0,0.15l-2.625,0c0.06,-0.998 0.443,-1.508 1.41,-1.508Z" style="fill:#fff;fill-rule:nonzero;"/><path d="M219.16,66.931l0,5.123c0,0.705 0.278,0.997 0.885,0.997c0.285,0 0.548,-0.045 0.728,-0.082l0,-0.345c-0.15,0.022 -0.353,0.052 -0.6,0.052c-0.353,0 -0.578,-0.127 -0.578,-0.667l0,-5.078l-0.435,0Z" style="fill:#fff;fill-rule:nonzero;"/><path d="M221.388,70.936c0,1.433 0.502,2.153 1.905,2.153c0.577,0 1.117,-0.105 1.417,-0.18l0.03,-0.36c-0.292,0.045 -0.787,0.142 -1.395,0.142c-1.177,0 -1.507,-0.622 -1.507,-1.77l3.067,0l0,-0.517c0,-1.08 -0.397,-1.688 -1.597,-1.688c-1.32,0 -1.92,0.75 -1.92,2.22ZM223.263,69.076c0.907,0 1.215,0.428 1.215,1.358l0,0.15l-2.625,0c0.06,-0.998 0.442,-1.508 1.41,-1.508Z" style="fill:#fff;fill-rule:nonzero;"/><path d="M226,70.936c0,1.433 0.503,2.153 1.905,2.153c0.578,0 1.118,-0.105 1.418,-0.18l0.03,-0.36c-0.293,0.045 -0.788,0.142 -1.395,0.142c-1.178,0 -1.508,-0.622 -1.508,-1.77l3.068,0l0,-0.517c0,-1.08 -0.398,-1.688 -1.598,-1.688c-1.32,0 -1.92,0.75 -1.92,2.22ZM227.875,69.076c0.908,0 1.215,0.428 1.215,1.358l0,0.15l-2.625,0c0.06,-0.998 0.443,-1.508 1.41,-1.508Z" style="fill:#fff;fill-rule:nonzero;"/><path d="M232.293,70.659l1.815,0l0,1.852l0.382,0l0,-1.852l1.815,0l0,-0.383l-1.815,0l0,-1.86l-0.382,0l0,1.86l-1.815,0l0,0.383Z" style="fill:#fff;fill-rule:nonzero;"/></g><g><g id="v3"><path d="M80.682,12.426l-2.1,-5.625l-0.802,0l-2.25,5.625l0.457,0l0.758,-1.92l2.745,0l0.705,1.92l0.487,0ZM79.355,10.116l-2.468,0l1.155,-2.903l0.24,0l1.073,2.903Z" style="fill:#fff;fill-rule:nonzero;"/><path d="M85.16,12.426l0,-4.208l-0.435,0l0,3.593c-0.338,0.15 -0.825,0.277 -1.313,0.277c-0.457,0 -0.772,-0.075 -0.952,-0.262c-0.173,-0.18 -0.278,-0.473 -0.278,-1.043l0,-2.565l-0.435,0l0,2.73c0,0.578 0.128,0.93 0.345,1.163c0.233,0.24 0.548,0.367 1.155,0.367c0.525,0 1.02,-0.127 1.23,-0.232c0.015,-0.008 0.195,-0.24 0.21,-0.27l0.045,0l0.113,0.45l0.315,0Z" style="fill:#fff;fill-rule:nonzero;"/><path d="M88.25,10.498l1.185,1.928l0.502,0l-1.335,-2.123l1.38,-2.085l-0.487,0l-1.23,1.883l-0.345,0l-1.133,-1.883l-0.495,0l1.283,2.085l-1.373,2.123l0.495,0l1.215,-1.928l0.338,0Z" style="fill:#fff;fill-rule:nonzero;"/><path d="M91.475,12.426l0,-4.208l-0.435,0l0,4.208l0.435,0ZM91.542,6.786c0,-0.098 -0.015,-0.173 -0.067,-0.218c-0.038,-0.037 -0.105,-0.052 -0.195,-0.052c-0.098,0 -0.173,0.022 -0.195,0.052c-0.06,0.03 -0.09,0.113 -0.09,0.225c0,0.098 0.022,0.173 0.06,0.21c0.037,0.045 0.105,0.06 0.21,0.06c0.082,0 0.165,-0.015 0.21,-0.052c0.052,-0.038 0.067,-0.128 0.067,-0.225Z" style="fill:#fff;fill-rule:nonzero;"/><path d="M93.035,6.351l0,5.122c0,0.705 0.277,0.998 0.885,0.998c0.285,0 0.547,-0.045 0.727,-0.083l0,-0.345c-0.15,0.023 -0.352,0.053 -0.6,0.053c-0.352,0 -0.577,-0.128 -0.577,-0.668l0,-5.077l-0.435,0Z" style="fill:#fff;fill-rule:nonzero;"/><path d="M95.982,12.426l0,-4.208l-0.435,0l0,4.208l0.435,0ZM96.05,6.786c0,-0.098 -0.015,-0.173 -0.068,-0.218c-0.037,-0.037 -0.105,-0.052 -0.195,-0.052c-0.097,0 -0.172,0.022 -0.195,0.052c-0.06,0.03 -0.09,0.113 -0.09,0.225c0,0.098 0.023,0.173 0.06,0.21c0.038,0.045 0.105,0.06 0.21,0.06c0.083,0 0.165,-0.015 0.21,-0.052c0.053,-0.038 0.068,-0.128 0.068,-0.225Z" style="fill:#fff;fill-rule:nonzero;"/><path d="M100.565,12.426l0,-2.61c0,-0.825 -0.12,-1.14 -0.308,-1.343c-0.202,-0.232 -0.57,-0.33 -1.147,-0.33c-0.6,0 -1.223,0.128 -1.538,0.21l0,0.353c0.285,-0.053 0.938,-0.173 1.448,-0.173c0.472,0 0.75,0.075 0.885,0.233c0.142,0.172 0.232,0.472 0.232,1.2c-1.342,0.12 -2.197,0.277 -2.52,0.517c-0.165,0.105 -0.33,0.39 -0.33,0.863c0,0.39 0.09,0.652 0.24,0.817c0.173,0.195 0.488,0.338 1.073,0.338c0.727,0 1.177,-0.188 1.305,-0.278c0.037,-0.03 0.142,-0.172 0.202,-0.255l0.038,0l0.105,0.458l0.315,0ZM100.137,11.841c-0.225,0.112 -0.757,0.292 -1.395,0.292c-0.457,0 -0.727,-0.105 -0.855,-0.24c-0.105,-0.12 -0.172,-0.315 -0.172,-0.585c0,-0.315 0.075,-0.502 0.187,-0.6c0.173,-0.187 1.26,-0.345 2.235,-0.405l0,1.538Z" style="fill:#fff;fill-rule:nonzero;"/><path d="M102.147,8.218l0,4.208l0.435,0l0,-3.54c0.255,-0.165 0.735,-0.338 1.245,-0.33c0.255,0 0.473,0.03 0.6,0.052l0,-0.42c-0.112,-0.015 -0.27,-0.03 -0.48,-0.03c-0.525,0 -0.907,0.143 -1.11,0.263c-0.015,0.015 -0.195,0.232 -0.217,0.262l-0.045,0l-0.105,-0.465l-0.323,0Z" style="fill:#fff;fill-rule:nonzero;"/><path d="M108.852,8.218l-0.472,0l-1.485,3.825l-0.195,0l-1.403,-3.825l-0.472,0l1.575,4.208l0.345,0l-0.825,2.055l0.457,0l2.475,-6.263Z" style="fill:#fff;fill-rule:nonzero;"/><path d="M87.144,19.926l0,-5.625l-0.413,0l0,5.16l-0.142,0l-3.203,-5.16l-0.78,0l0,5.625l0.413,0l0,-5.205l0.135,0l3.232,5.205l0.758,0Z" style="fill:#fff;fill-rule:nonzero;"/><path d="M92.476,17.728c0,-0.87 -0.187,-1.357 -0.495,-1.68c-0.262,-0.262 -0.705,-0.442 -1.342,-0.442c-0.668,0 -1.133,0.195 -1.433,0.48c-0.382,0.36 -0.6,1.02 -0.6,1.837c0,0.81 0.218,1.305 0.458,1.583c0.277,0.315 0.72,0.51 1.417,0.51c0.743,0 1.17,-0.203 1.463,-0.503c0.322,-0.337 0.532,-0.96 0.532,-1.785ZM90.526,19.641c-0.607,0 -0.93,-0.188 -1.132,-0.42c-0.21,-0.24 -0.353,-0.72 -0.353,-1.35c0,-0.765 0.233,-1.298 0.488,-1.53c0.195,-0.18 0.54,-0.345 1.057,-0.345c0.525,0 0.848,0.135 1.058,0.352c0.225,0.233 0.39,0.593 0.39,1.455c0,0.75 -0.188,1.215 -0.45,1.485c-0.218,0.218 -0.593,0.353 -1.058,0.353Z" style="fill:#fff;fill-rule:nonzero;"/><path d="M96.774,15.801c-0.353,-0.09 -0.698,-0.158 -1.2,-0.158c-0.638,0 -1.065,0.15 -1.365,0.443c-0.368,0.345 -0.578,1.012 -0.578,1.86c0,0.96 0.24,1.485 0.533,1.732c0.262,0.218 0.645,0.338 1.237,0.338c0.578,0 0.96,-0.128 1.088,-0.21c0.045,-0.03 0.187,-0.195 0.262,-0.278l0.023,0l0.105,0.398l0.337,0l0,-6.113l-0.442,0l0,1.988ZM94.081,17.916c0,-0.81 0.188,-1.328 0.443,-1.568c0.24,-0.225 0.585,-0.33 1.11,-0.33c0.465,0 0.855,0.075 1.14,0.113l0,3.247c-0.375,0.18 -0.833,0.255 -1.253,0.255c-0.442,0 -0.817,-0.097 -1.012,-0.27c-0.233,-0.202 -0.428,-0.622 -0.428,-1.447Z" style="fill:#fff;fill-rule:nonzero;"/><path d="M98.589,17.856c0,1.432 0.502,2.152 1.905,2.152c0.577,0 1.117,-0.105 1.417,-0.18l0.03,-0.36c-0.292,0.045 -0.787,0.143 -1.395,0.143c-1.177,0 -1.507,-0.623 -1.507,-1.77l3.067,0l0,-0.518c0,-1.08 -0.397,-1.687 -1.597,-1.687c-1.32,0 -1.92,0.75 -1.92,2.22ZM100.464,15.996c0.907,0 1.215,0.427 1.215,1.357l0,0.15l-2.625,0c0.06,-0.997 0.442,-1.507 1.41,-1.507Z" style="fill:#fff;fill-rule:nonzero;"/></g><g id="v4"><path d="M145.12,12.429l-2.1,-5.625l-0.802,0l-2.25,5.625l0.457,0l0.758,-1.92l2.745,0l0.705,1.92l0.487,0ZM143.793,10.119l-2.468,0l1.155,-2.902l0.24,0l1.073,2.902Z" style="fill:#fff;fill-rule:nonzero;"/><path d="M149.598,12.429l0,-4.207l-0.435,0l0,3.592c-0.338,0.15 -0.825,0.278 -1.313,0.278c-0.457,0 -0.772,-0.075 -0.952,-0.263c-0.173,-0.18 -0.278,-0.472 -0.278,-1.042l0,-2.565l-0.435,0l0,2.73c0,0.577 0.128,0.93 0.345,1.162c0.233,0.24 0.548,0.368 1.155,0.368c0.525,0 1.02,-0.128 1.23,-0.233c0.015,-0.007 0.195,-0.24 0.21,-0.27l0.045,0l0.113,0.45l0.315,0Z" style="fill:#fff;fill-rule:nonzero;"/><path d="M152.688,10.502l1.185,1.927l0.502,0l-1.335,-2.122l1.38,-2.085l-0.487,0l-1.23,1.882l-0.345,0l-1.133,-1.882l-0.495,0l1.283,2.085l-1.373,2.122l0.495,0l1.215,-1.927l0.338,0Z" style="fill:#fff;fill-rule:nonzero;"/><path d="M155.913,12.429l0,-4.207l-0.435,0l0,4.207l0.435,0ZM155.98,6.789c0,-0.097 -0.015,-0.172 -0.067,-0.217c-0.038,-0.038 -0.105,-0.053 -0.195,-0.053c-0.098,0 -0.173,0.023 -0.195,0.053c-0.06,0.03 -0.09,0.112 -0.09,0.225c0,0.097 0.022,0.172 0.06,0.21c0.037,0.045 0.105,0.06 0.21,0.06c0.082,0 0.165,-0.015 0.21,-0.053c0.052,-0.037 0.067,-0.127 0.067,-0.225Z" style="fill:#fff;fill-rule:nonzero;"/><path d="M157.473,6.354l0,5.123c0,0.705 0.277,0.997 0.885,0.997c0.285,0 0.547,-0.045 0.727,-0.082l0,-0.345c-0.15,0.022 -0.352,0.052 -0.6,0.052c-0.352,0 -0.577,-0.127 -0.577,-0.667l0,-5.078l-0.435,0Z" style="fill:#fff;fill-rule:nonzero;"/><path d="M160.42,12.429l0,-4.207l-0.435,0l0,4.207l0.435,0ZM160.488,6.789c0,-0.097 -0.015,-0.172 -0.068,-0.217c-0.037,-0.038 -0.105,-0.053 -0.195,-0.053c-0.097,0 -0.172,0.023 -0.195,0.053c-0.06,0.03 -0.09,0.112 -0.09,0.225c0,0.097 0.023,0.172 0.06,0.21c0.038,0.045 0.105,0.06 0.21,0.06c0.083,0 0.165,-0.015 0.21,-0.053c0.053,-0.037 0.068,-0.127 0.068,-0.225Z" style="fill:#fff;fill-rule:nonzero;"/><path d="M165.003,12.429l0,-2.61c0,-0.825 -0.12,-1.14 -0.308,-1.342c-0.202,-0.233 -0.57,-0.33 -1.147,-0.33c-0.6,0 -1.223,0.127 -1.538,0.21l0,0.352c0.285,-0.052 0.938,-0.172 1.448,-0.172c0.472,0 0.75,0.075 0.885,0.232c0.142,0.173 0.232,0.473 0.232,1.2c-1.342,0.12 -2.197,0.278 -2.52,0.518c-0.165,0.105 -0.33,0.39 -0.33,0.862c0,0.39 0.09,0.653 0.24,0.818c0.173,0.195 0.488,0.337 1.073,0.337c0.727,0 1.177,-0.187 1.305,-0.277c0.037,-0.03 0.142,-0.173 0.202,-0.255l0.038,0l0.105,0.457l0.315,0ZM164.575,11.844c-0.225,0.113 -0.757,0.293 -1.395,0.293c-0.457,0 -0.727,-0.105 -0.855,-0.24c-0.105,-0.12 -0.172,-0.315 -0.172,-0.585c0,-0.315 0.075,-0.503 0.187,-0.6c0.173,-0.188 1.26,-0.345 2.235,-0.405l0,1.537Z" style="fill:#fff;fill-rule:nonzero;"/><path d="M166.585,8.222l0,4.207l0.435,0l0,-3.54c0.255,-0.165 0.735,-0.337 1.245,-0.33c0.255,0 0.473,0.03 0.6,0.053l0,-0.42c-0.112,-0.015 -0.27,-0.03 -0.48,-0.03c-0.525,0 -0.907,0.142 -1.11,0.262c-0.015,0.015 -0.195,0.233 -0.217,0.263l-0.045,0l-0.105,-0.465l-0.323,0Z" style="fill:#fff;fill-rule:nonzero;"/><path d="M173.29,8.222l-0.472,0l-1.485,3.825l-0.195,0l-1.403,-3.825l-0.472,0l1.575,4.207l0.345,0l-0.825,2.055l0.457,0l2.475,-6.262Z" style="fill:#fff;fill-rule:nonzero;"/><path d="M151.582,19.929l0,-5.625l-0.413,0l0,5.16l-0.142,0l-3.203,-5.16l-0.78,0l0,5.625l0.413,0l0,-5.205l0.135,0l3.232,5.205l0.758,0Z" style="fill:#fff;fill-rule:nonzero;"/><path d="M156.914,17.732c0,-0.87 -0.187,-1.358 -0.495,-1.68c-0.262,-0.263 -0.705,-0.443 -1.342,-0.443c-0.668,0 -1.133,0.195 -1.433,0.48c-0.382,0.36 -0.6,1.02 -0.6,1.838c0,0.81 0.218,1.305 0.458,1.582c0.277,0.315 0.72,0.51 1.417,0.51c0.743,0 1.17,-0.202 1.463,-0.502c0.322,-0.338 0.532,-0.96 0.532,-1.785ZM154.964,19.644c-0.607,0 -0.93,-0.187 -1.132,-0.42c-0.21,-0.24 -0.353,-0.72 -0.353,-1.35c0,-0.765 0.233,-1.297 0.488,-1.53c0.195,-0.18 0.54,-0.345 1.057,-0.345c0.525,0 0.848,0.135 1.058,0.353c0.225,0.232 0.39,0.592 0.39,1.455c0,0.75 -0.188,1.215 -0.45,1.485c-0.218,0.217 -0.593,0.352 -1.058,0.352Z" style="fill:#fff;fill-rule:nonzero;"/><path d="M161.212,15.804c-0.353,-0.09 -0.698,-0.157 -1.2,-0.157c-0.638,0 -1.065,0.15 -1.365,0.442c-0.368,0.345 -0.578,1.013 -0.578,1.86c0,0.96 0.24,1.485 0.533,1.733c0.262,0.217 0.645,0.337 1.237,0.337c0.578,0 0.96,-0.127 1.088,-0.21c0.045,-0.03 0.187,-0.195 0.262,-0.277l0.023,0l0.105,0.397l0.337,0l0,-6.112l-0.442,0l0,1.987ZM158.519,17.919c0,-0.81 0.188,-1.327 0.443,-1.567c0.24,-0.225 0.585,-0.33 1.11,-0.33c0.465,0 0.855,0.075 1.14,0.112l0,3.248c-0.375,0.18 -0.833,0.255 -1.253,0.255c-0.442,0 -0.817,-0.098 -1.012,-0.27c-0.233,-0.203 -0.428,-0.623 -0.428,-1.448Z" style="fill:#fff;fill-rule:nonzero;"/><path d="M163.027,17.859c0,1.433 0.502,2.153 1.905,2.153c0.577,0 1.117,-0.105 1.417,-0.18l0.03,-0.36c-0.292,0.045 -0.787,0.142 -1.395,0.142c-1.177,0 -1.507,-0.622 -1.507,-1.77l3.067,0l0,-0.517c0,-1.08 -0.397,-1.688 -1.597,-1.688c-1.32,0 -1.92,0.75 -1.92,2.22ZM164.902,15.999c0.907,0 1.215,0.428 1.215,1.358l0,0.15l-2.625,0c0.06,-0.998 0.442,-1.508 1.41,-1.508Z" style="fill:#fff;fill-rule:nonzero;"/></g><g id="v5"><path d="M210.093,12.429l-2.1,-5.625l-0.803,0l-2.25,5.625l0.458,0l0.757,-1.92l2.745,0l0.705,1.92l0.488,0ZM208.765,10.119l-2.467,0l1.155,-2.902l0.24,0l1.072,2.902Z" style="fill:#fff;fill-rule:nonzero;"/><path d="M214.57,12.429l0,-4.207l-0.435,0l0,3.592c-0.337,0.15 -0.825,0.278 -1.312,0.278c-0.458,0 -0.773,-0.075 -0.953,-0.263c-0.172,-0.18 -0.277,-0.472 -0.277,-1.042l0,-2.565l-0.435,0l0,2.73c0,0.577 0.127,0.93 0.345,1.162c0.232,0.24 0.547,0.368 1.155,0.368c0.525,0 1.02,-0.128 1.23,-0.233c0.015,-0.007 0.195,-0.24 0.21,-0.27l0.045,0l0.112,0.45l0.315,0Z" style="fill:#fff;fill-rule:nonzero;"/><path d="M217.66,10.502l1.185,1.927l0.503,0l-1.335,-2.122l1.38,-2.085l-0.488,0l-1.23,1.882l-0.345,0l-1.132,-1.882l-0.495,0l1.282,2.085l-1.372,2.122l0.495,0l1.215,-1.927l0.337,0Z" style="fill:#fff;fill-rule:nonzero;"/><path d="M220.885,12.429l0,-4.207l-0.435,0l0,4.207l0.435,0ZM220.953,6.789c0,-0.097 -0.015,-0.172 -0.068,-0.217c-0.037,-0.038 -0.105,-0.053 -0.195,-0.053c-0.097,0 -0.172,0.023 -0.195,0.053c-0.06,0.03 -0.09,0.112 -0.09,0.225c0,0.097 0.023,0.172 0.06,0.21c0.038,0.045 0.105,0.06 0.21,0.06c0.083,0 0.165,-0.015 0.21,-0.053c0.053,-0.037 0.068,-0.127 0.068,-0.225Z" style="fill:#fff;fill-rule:nonzero;"/><path d="M222.445,6.354l0,5.123c0,0.705 0.278,0.997 0.885,0.997c0.285,0 0.548,-0.045 0.728,-0.082l0,-0.345c-0.15,0.022 -0.353,0.052 -0.6,0.052c-0.353,0 -0.578,-0.127 -0.578,-0.667l0,-5.078l-0.435,0Z" style="fill:#fff;fill-rule:nonzero;"/><path d="M225.393,12.429l0,-4.207l-0.435,0l0,4.207l0.435,0ZM225.46,6.789c0,-0.097 -0.015,-0.172 -0.067,-0.217c-0.038,-0.038 -0.105,-0.053 -0.195,-0.053c-0.098,0 -0.173,0.023 -0.195,0.053c-0.06,0.03 -0.09,0.112 -0.09,0.225c0,0.097 0.022,0.172 0.06,0.21c0.037,0.045 0.105,0.06 0.21,0.06c0.082,0 0.165,-0.015 0.21,-0.053c0.052,-0.037 0.067,-0.127 0.067,-0.225Z" style="fill:#fff;fill-rule:nonzero;"/><path d="M229.975,12.429l0,-2.61c0,-0.825 -0.12,-1.14 -0.307,-1.342c-0.203,-0.233 -0.57,-0.33 -1.148,-0.33c-0.6,0 -1.222,0.127 -1.537,0.21l0,0.352c0.285,-0.052 0.937,-0.172 1.447,-0.172c0.473,0 0.75,0.075 0.885,0.232c0.143,0.173 0.233,0.473 0.233,1.2c-1.343,0.12 -2.198,0.278 -2.52,0.518c-0.165,0.105 -0.33,0.39 -0.33,0.862c0,0.39 0.09,0.653 0.24,0.818c0.172,0.195 0.487,0.337 1.072,0.337c0.728,0 1.178,-0.187 1.305,-0.277c0.038,-0.03 0.143,-0.173 0.203,-0.255l0.037,0l0.105,0.457l0.315,0ZM229.548,11.844c-0.225,0.113 -0.758,0.293 -1.395,0.293c-0.458,0 -0.728,-0.105 -0.855,-0.24c-0.105,-0.12 -0.173,-0.315 -0.173,-0.585c0,-0.315 0.075,-0.503 0.188,-0.6c0.172,-0.188 1.26,-0.345 2.235,-0.405l0,1.537Z" style="fill:#fff;fill-rule:nonzero;"/><path d="M231.558,8.222l0,4.207l0.435,0l0,-3.54c0.255,-0.165 0.735,-0.337 1.245,-0.33c0.255,0 0.472,0.03 0.6,0.053l0,-0.42c-0.113,-0.015 -0.27,-0.03 -0.48,-0.03c-0.525,0 -0.908,0.142 -1.11,0.262c-0.015,0.015 -0.195,0.233 -0.218,0.263l-0.045,0l-0.105,-0.465l-0.322,0Z" style="fill:#fff;fill-rule:nonzero;"/><path d="M238.263,8.222l-0.473,0l-1.485,3.825l-0.195,0l-1.402,-3.825l-0.473,0l1.575,4.207l0.345,0l-0.825,2.055l0.458,0l2.475,-6.262Z" style="fill:#fff;fill-rule:nonzero;"/><path d="M216.554,19.929l0,-5.625l-0.413,0l0,5.16l-0.142,0l-3.203,-5.16l-0.78,0l0,5.625l0.413,0l0,-5.205l0.135,0l3.232,5.205l0.758,0Z" style="fill:#fff;fill-rule:nonzero;"/><path d="M221.886,17.732c0,-0.87 -0.187,-1.358 -0.495,-1.68c-0.262,-0.263 -0.705,-0.443 -1.342,-0.443c-0.668,0 -1.133,0.195 -1.433,0.48c-0.382,0.36 -0.6,1.02 -0.6,1.838c0,0.81 0.218,1.305 0.458,1.582c0.277,0.315 0.72,0.51 1.417,0.51c0.743,0 1.17,-0.202 1.463,-0.502c0.322,-0.338 0.532,-0.96 0.532,-1.785ZM219.936,19.644c-0.607,0 -0.93,-0.187 -1.132,-0.42c-0.21,-0.24 -0.353,-0.72 -0.353,-1.35c0,-0.765 0.233,-1.297 0.488,-1.53c0.195,-0.18 0.54,-0.345 1.057,-0.345c0.525,0 0.848,0.135 1.058,0.353c0.225,0.232 0.39,0.592 0.39,1.455c0,0.75 -0.188,1.215 -0.45,1.485c-0.218,0.217 -0.593,0.352 -1.058,0.352Z" style="fill:#fff;fill-rule:nonzero;"/><path d="M226.184,15.804c-0.353,-0.09 -0.698,-0.157 -1.2,-0.157c-0.638,0 -1.065,0.15 -1.365,0.442c-0.368,0.345 -0.578,1.013 -0.578,1.86c0,0.96 0.24,1.485 0.533,1.733c0.262,0.217 0.645,0.337 1.237,0.337c0.578,0 0.96,-0.127 1.088,-0.21c0.045,-0.03 0.187,-0.195 0.262,-0.277l0.023,0l0.105,0.397l0.337,0l0,-6.112l-0.442,0l0,1.987ZM223.491,17.919c0,-0.81 0.188,-1.327 0.443,-1.567c0.24,-0.225 0.585,-0.33 1.11,-0.33c0.465,0 0.855,0.075 1.14,0.112l0,3.248c-0.375,0.18 -0.833,0.255 -1.253,0.255c-0.442,0 -0.817,-0.098 -1.012,-0.27c-0.233,-0.203 -0.428,-0.623 -0.428,-1.448Z" style="fill:#fff;fill-rule:nonzero;"/><path d="M227.999,17.859c0,1.433 0.502,2.153 1.905,2.153c0.577,0 1.117,-0.105 1.417,-0.18l0.03,-0.36c-0.292,0.045 -0.787,0.142 -1.395,0.142c-1.177,0 -1.507,-0.622 -1.507,-1.77l3.067,0l0,-0.517c0,-1.08 -0.397,-1.688 -1.597,-1.688c-1.32,0 -1.92,0.75 -1.92,2.22ZM229.874,15.999c0.907,0 1.215,0.428 1.215,1.358l0,0.15l-2.625,0c0.06,-0.998 0.442,-1.508 1.41,-1.508Z" style="fill:#fff;fill-rule:nonzero;"/></g></g></g><g><path d="M24.665,49.72l0,-18.002l10.969,0l-0.312,1.272l-9.241,0l0,7.465l8.113,0l-0.288,1.248l-7.825,0l0,8.017l-1.416,0Z" style="fill:#fff;fill-rule:nonzero;"/><rect x="38.848" y="31.718" width="1.416" height="18.002" style="fill:#fff;fill-rule:nonzero;"/><path d="M57.858,49.72l-10.345,-16.657l-0.432,0l0,16.657l-1.32,0l0,-18.002l2.496,0l10.249,16.514l0.456,0l0,-16.514l1.32,0l0,18.002l-2.424,0Z" style="fill:#fff;fill-rule:nonzero;"/></g></svg>