<?xml version="1.0" encoding="utf-8"?>
<!-- Generator: Adobe Illustrator 16.0.2, SVG Export Plug-In . SVG Version: 6.00 Build 0)  -->
<!DOCTYPE svg PUBLIC "-//W3C//DTD SVG 1.1//EN" "http://www.w3.org/Graphics/SVG/1.1/DTD/svg11.dtd">
<svg version="1.1" id="Layer_1" xmlns="http://www.w3.org/2000/svg" xmlns:xlink="http://www.w3.org/1999/xlink" x="0px" y="0px"
	 width="612px" height="190px" viewBox="0 301 612 190" enable-background="new 0 301 612 190" xml:space="preserve">
<path fill="#CE6700" d="M6.114,394.966l85.516,85.517l85.516-85.515l-85.519-85.519L6.114,394.966L6.114,394.966z"/>
<path fill="#CE6700" d="M187.397,419.398l-12.113,12.111l115.162-0.002l-48.971,48.969l-134.64,0.005l61.133-61.083h-10.984
	l12.216-12.218h-8.443v-24.435h8.438l-12.216-12.216h10.988l-61.133-61.083l134.64,0.004l48.971,48.968l-115.162-0.002
	l12.113,12.113h115.155l12.216,12.216h4.27L306.82,370.53h0.006l-61.133-61.083l134.64,0.004l48.971,48.968l-115.161-0.002
	l12.112,12.113h115.171l12.216,12.216h4.271l-12.217-12.216h0.005l-61.134-61.083l134.641,0.004l48.973,48.968l-115.163-0.002
	l12.112,12.113H580.3l24.438,24.437l-24.432,24.431H465.131l-12.113,12.112l115.164-0.002l-48.973,48.969l-134.641,0.004
	l61.134-61.083l12.216-12.217h-4.271l-12.218,12.217H326.256l-12.112,12.112l115.161-0.002l-48.971,48.969l-134.64,0.004
	l61.133-61.083l12.217-12.217h-4.271l-12.216,12.217L187.397,419.398L187.397,419.398z"/>
<g>
	<g>
		<path fill="#FFFFFF" d="M196.734,406.331v-1.539h6.671V384.93l-6.671,1.207v-1.539l8.391-1.48v21.674h6.038v1.539H196.734z"/>
		<path fill="#FFFFFF" d="M245.524,406.331h-15.545v-1.812c0.271-3.319,2.082-5.465,7.396-8.06c3.381-1.689,4.859-2.564,5.646-3.592
			c0.664-0.935,0.845-2.142,0.845-3.32c0-3.11-1.146-4.528-6.066-4.528c-2.688,0-5.583,0.664-6.913,0.965v-1.571
			c1.78-0.482,4.558-1.028,7.273-1.028c5.764,0,7.577,1.873,7.577,5.948c0,2.054-0.453,3.471-1.146,4.346
			c-1.177,1.539-3.502,2.717-6.46,4.166c-5.523,2.688-6.398,4.588-6.46,6.854h14.309L245.524,406.331L245.524,406.331z"/>
		<path fill="#FFFFFF" d="M277.413,393.502l-2.446,1.146v0.121l2.564,0.905c1.028,0.848,1.84,2.777,1.84,4.738
			c0,4.347-2.474,6.22-8.603,6.22c-2.534,0-4.769-0.332-6.099-0.634v-1.539c1.39,0.241,3.834,0.604,6.099,0.604
			c5.614,0,6.792-1.841,6.792-4.648c0-4.015-2.688-4.769-6.099-4.769h-4.316v-1.571h3.924c2.958,0,6.066-0.754,6.066-4.678
			c0-2.898-1.086-4.407-5.674-4.407c-2.416,0-4.739,0.483-6.31,0.815v-1.511c1.631-0.422,4.135-0.905,6.611-0.905
			c5.433,0,7.154,1.903,7.154,5.767C278.921,391.268,277.986,392.957,277.413,393.502L277.413,393.502z"/>
	</g>
	<g>
		<path fill="#FFFFFF" d="M359.266,406.331h-1.66v-6.429H345.98v-1.752l9.993-14.459h3.289v14.701h5.072l-0.454,1.512h-4.62
			L359.266,406.331L359.266,406.331z M357.606,398.392v-13.22h-0.817L347.945,398v0.392H357.606z"/>
		<path fill="#FFFFFF" d="M387.679,406.633c-2.08,0-4.282-0.302-5.854-0.543v-1.602c1.447,0.211,3.683,0.513,5.946,0.513
			c5.225,0,7.036-1.479,7.036-5.222c0-3.984-1.267-5.01-5.917-5.01c-2.143,0-5.041,0.453-6.368,0.634v-11.712h13.403v1.539h-11.83
			v8.512c1.268-0.211,3.016-0.543,5.343-0.543c5.254,0,7.185,1.39,7.185,6.337C396.615,404.308,394.412,406.633,387.679,406.633z"/>
		<path fill="#FFFFFF" d="M417.337,395.282h0.148l0.963-0.996c1.302-0.482,3.652-1.146,6.401-1.146c5.344,0,7.124,2.232,7.124,6.428
			c0,4.377-2.267,7.063-8.089,7.063c-6.338,0-8.304-4.015-8.304-10.687c0-4.196,1.18-7.215,2.959-9.116
			c2.084-2.174,5.404-3.532,11.229-3.592l0.602,1.602c-5.674,0.03-8.756,1.207-10.563,3.14
			C418.391,389.486,417.455,392.052,417.337,395.282L417.337,395.282z M424.275,394.709c-2.686,0-5.161,0.664-6.941,1.357
			c0.059,6.25,2.021,8.994,6.638,8.994c4.318,0,6.249-1.688,6.249-5.342C430.223,396.22,428.803,394.709,424.275,394.709z"/>
	</g>
	<g>
		<path fill="#FFFFFF" d="M494.617,385.714v-0.422h-13.609l0.483-1.601h15.061v1.994l-10.807,20.646h-1.961L494.617,385.714
			L494.617,385.714z"/>
		<path fill="#FFFFFF" d="M517.543,395.825l2.05-1.118v-0.151l-1.811-0.935c-0.784-0.785-1.541-1.903-1.541-3.984
			c0-3.653,2.293-6.28,7.604-6.28c5.284,0,7.245,2.353,7.245,5.734c0,2.144-0.907,3.441-1.752,4.347l-1.868,1.118v0.151l2.291,0.847
			c1.211,0.965,1.902,2.506,1.902,4.558c0,3.743-2.325,6.521-8.271,6.521c-5.61,0-7.939-2.234-7.939-6.065
			C515.459,398.633,516.243,397.032,517.543,395.825z M517.241,400.353c0,3.021,1.752,4.739,6.338,4.739
			c4.678,0,6.31-2.202,6.31-4.799c0-4.136-2.627-4.468-9.358-5.194C518.868,396.188,517.241,397.668,517.241,400.353z
			 M518.023,389.486c0,3.713,2.356,4.226,8.271,4.769c1.903-1.176,2.989-2.717,2.989-4.95c0-2.898-1.629-4.407-5.611-4.407
			C519.504,384.9,518.023,386.951,518.023,389.486L518.023,389.486z"/>
		<path fill="#FFFFFF" d="M564.34,394.77h-0.148l-0.939,0.996c-1.236,0.513-3.56,1.119-6.156,1.119c-5.401,0-7.306-2.175-7.306-6.34
			c0-4.769,2.991-7.155,8.058-7.155c5.917,0,8.24,3.291,8.24,10.475c0,4.315-1.175,7.485-2.958,9.355
			c-1.992,2.175-5.4,3.473-11.26,3.594l-0.575-1.661c5.585-0.03,8.844-1.146,10.596-3.051
			C563.253,400.566,564.249,398.03,564.34,394.77z M557.489,395.313c2.717,0,5.163-0.633,6.853-1.267
			c-0.059-6.4-1.899-9.085-6.606-9.085c-4.227,0-6.191,2.021-6.191,5.465C551.543,393.804,553.05,395.313,557.489,395.313
			L557.489,395.313z"/>
	</g>
</g>
<g id="v1">
	<path fill="#FFFFFF" d="M289.605,460.661l-4.525-12.122h-1.73l-4.849,12.122h0.987l1.631-4.138h5.916l1.519,4.138H289.605z
		 M286.744,455.683h-5.316l2.489-6.253h0.517L286.744,455.683L286.744,455.683z"/>
	<path fill="#FFFFFF" d="M305.104,460.661v-5.931c0-1.246-0.209-2.068-0.726-2.555c-0.485-0.47-1.164-0.711-2.23-0.711
		c-1.181,0-2.215,0.355-2.732,0.646l-0.5,0.629h-0.082c-0.08-0.146-0.194-0.338-0.403-0.532c-0.502-0.484-1.246-0.743-2.409-0.743
		c-1.179,0-2.181,0.323-2.601,0.55l-0.485,0.532h-0.082l-0.241-0.953h-0.696v9.066h0.937v-7.741
		c0.679-0.275,1.616-0.614,2.797-0.614c0.744,0,1.502,0.146,1.89,0.519c0.373,0.354,0.502,0.841,0.502,1.632v6.206h0.938v-7.629
		c0.646-0.338,1.599-0.728,2.762-0.728c0.761,0,1.439,0.178,1.828,0.551c0.388,0.37,0.597,1.002,0.597,2.197v5.607L305.104,460.661
		L305.104,460.661z"/>
	<path fill="#FFFFFF" d="M316.288,455.7c0-1.859-0.468-2.975-1.114-3.557c-0.518-0.451-1.278-0.729-2.539-0.729
		c-1.229,0-2.295,0.291-2.554,0.47c-0.097,0.048-0.467,0.403-0.597,0.582h-0.064v-4.897h-0.938v13.092h0.129l0.468-0.274
		c0.809,0.194,1.763,0.355,2.877,0.355c1.537,0,2.474-0.34,3.088-0.922C315.82,459.077,316.288,457.622,316.288,455.7L316.288,455.7
		z M315.318,455.895c0,1.682-0.403,2.813-0.985,3.361c-0.484,0.452-1.245,0.693-2.474,0.693c-0.92,0-1.812-0.129-2.439-0.227v-6.933
		c0.791-0.355,1.875-0.534,2.859-0.534c1.084,0,1.729,0.211,2.149,0.581C314.897,453.259,315.318,454.196,315.318,455.895
		L315.318,455.895z"/>
	<path fill="#FFFFFF" d="M320.184,460.661v-9.066h-0.938v9.066H320.184z M320.328,448.507c0-0.209-0.032-0.37-0.146-0.468
		c-0.082-0.082-0.227-0.114-0.42-0.114c-0.211,0-0.373,0.05-0.42,0.114c-0.13,0.063-0.193,0.241-0.193,0.485
		c0,0.209,0.048,0.369,0.129,0.451c0.08,0.099,0.227,0.131,0.453,0.131c0.177,0,0.354-0.032,0.451-0.114
		C320.296,448.912,320.328,448.718,320.328,448.507L320.328,448.507z"/>
	<path fill="#FFFFFF" d="M329.896,451.771c-0.76-0.193-1.503-0.339-2.587-0.339c-1.372,0-2.296,0.323-2.941,0.952
		c-0.79,0.743-1.243,2.184-1.243,4.009c0,2.068,0.518,3.199,1.146,3.734c0.566,0.467,1.39,0.726,2.668,0.726
		c1.242,0,2.067-0.272,2.343-0.451c0.097-0.064,0.404-0.42,0.565-0.598h0.049l0.226,0.855h0.729v-13.17h-0.953L329.896,451.771
		L329.896,451.771z M324.095,456.329c0-1.745,0.403-2.859,0.953-3.376c0.518-0.485,1.26-0.712,2.393-0.712
		c1.002,0,1.843,0.162,2.457,0.241v7c-0.81,0.388-1.794,0.549-2.698,0.549c-0.955,0-1.764-0.211-2.185-0.581
		C324.516,459.013,324.095,458.107,324.095,456.329z"/>
	<path fill="#FFFFFF" d="M333.808,456.2c0,3.088,1.084,4.64,4.104,4.64c1.246,0,2.409-0.227,3.056-0.388l0.065-0.776
		c-0.632,0.099-1.698,0.308-3.007,0.308c-2.538,0-3.249-1.342-3.249-3.814h6.61v-1.114c0-2.326-0.857-3.638-3.443-3.638
		C335.101,451.416,333.808,453.032,333.808,456.2L333.808,456.2z M337.848,452.192c1.957,0,2.618,0.922,2.618,2.926v0.323h-5.656
		C334.938,453.291,335.764,452.192,337.848,452.192z"/>
	<path fill="#FFFFFF" d="M347.448,456.508l2.554,4.153h1.084l-2.877-4.573l2.974-4.493h-1.052l-2.649,4.057h-0.744l-2.438-4.057
		h-1.066l2.763,4.493l-2.956,4.573h1.066l2.617-4.153H347.448z"/>
	<path fill="#FFFFFF" d="M358.455,451.595h-3.395v-2.133l-0.938,0.241v1.892h-1.745l-0.13,0.791h1.875v6.225
		c0,1.565,0.661,2.147,2.277,2.147c0.695,0,1.455-0.111,1.938-0.209l0.082-0.793c-0.354,0.05-1.034,0.161-1.777,0.161
		c-1.02,0-1.584-0.258-1.584-1.486v-6.045h3.216L358.455,451.595z"/>
	<path fill="#FFFFFF" d="M360.104,456.2c0,3.088,1.082,4.64,4.105,4.64c1.243,0,2.407-0.227,3.054-0.388l0.064-0.776
		c-0.629,0.099-1.696,0.308-3.006,0.308c-2.536,0-3.248-1.342-3.248-3.814h6.608v-1.114c0-2.326-0.854-3.638-3.44-3.638
		C361.396,451.416,360.104,453.032,360.104,456.2z M364.145,452.192c1.954,0,2.618,0.922,2.618,2.926v0.323h-5.656
		C361.235,453.291,362.059,452.192,364.145,452.192z"/>
	<path fill="#FFFFFF" d="M370.495,451.595v9.066h0.938v-7.629c0.55-0.355,1.584-0.727,2.684-0.711c0.55,0,1.02,0.063,1.293,0.113
		v-0.904c-0.241-0.032-0.582-0.064-1.034-0.064c-1.132,0-1.955,0.307-2.393,0.564c-0.032,0.032-0.421,0.502-0.468,0.565h-0.098
		l-0.226-1.002L370.495,451.595L370.495,451.595z"/>
	<path fill="#FFFFFF" d="M378.399,460.661v-9.066h-0.938v9.066H378.399z M378.544,448.507c0-0.209-0.032-0.37-0.145-0.468
		c-0.082-0.082-0.228-0.114-0.421-0.114c-0.212,0-0.372,0.05-0.421,0.114c-0.129,0.063-0.192,0.241-0.192,0.485
		c0,0.209,0.047,0.369,0.129,0.451c0.08,0.099,0.227,0.131,0.452,0.131c0.177,0,0.354-0.032,0.453-0.114
		C378.512,448.912,378.544,448.718,378.544,448.507L378.544,448.507z"/>
	<path fill="#FFFFFF" d="M386.804,451.595h-3.395v-2.133l-0.938,0.241v1.892h-1.745l-0.129,0.791h1.874v6.225
		c0,1.565,0.662,2.147,2.278,2.147c0.695,0,1.454-0.111,1.939-0.209l0.081-0.793c-0.354,0.05-1.034,0.161-1.777,0.161
		c-1.021,0-1.584-0.258-1.584-1.486v-6.045h3.216L386.804,451.595z"/>
	<path fill="#FFFFFF" d="M396.548,451.595h-1.017l-3.2,8.243h-0.421l-3.023-8.243h-1.017l3.394,9.066h0.744l-1.777,4.428h0.984
		L396.548,451.595z"/>
</g>
<g id="v2">
	<path fill="#FFFFFF" d="M458.78,460.661v-12.122H457.1l-4.429,9.729h-0.274l-4.25-9.729H446.4v12.122h0.888V449.43h0.259
		l4.299,9.763h1.312l4.46-9.763h0.241v11.231H458.78L458.78,460.661z"/>
	<path fill="#FFFFFF" d="M461.931,456.2c0,3.088,1.084,4.64,4.105,4.64c1.245,0,2.409-0.227,3.056-0.388l0.064-0.776
		c-0.632,0.099-1.698,0.308-3.006,0.308c-2.539,0-3.25-1.342-3.25-3.814h6.61v-1.114c0-2.326-0.856-3.638-3.442-3.638
		C463.224,451.416,461.931,453.032,461.931,456.2L461.931,456.2z M465.972,452.192c1.956,0,2.618,0.922,2.618,2.926v0.323h-5.657
		C463.063,453.291,463.888,452.192,465.972,452.192z"/>
	<path fill="#FFFFFF" d="M472.274,447.569v11.04c0,1.52,0.599,2.147,1.906,2.147c0.614,0,1.182-0.097,1.568-0.177v-0.743
		c-0.323,0.047-0.761,0.111-1.293,0.111c-0.761,0-1.245-0.273-1.245-1.438v-10.942L472.274,447.569L472.274,447.569z"/>
	<path fill="#FFFFFF" d="M477.075,456.2c0,3.088,1.082,4.64,4.104,4.64c1.243,0,2.407-0.227,3.055-0.388l0.063-0.776
		c-0.629,0.099-1.696,0.308-3.006,0.308c-2.536,0-3.248-1.342-3.248-3.814h6.609v-1.114c0-2.326-0.855-3.638-3.441-3.638
		C478.368,451.416,477.075,453.032,477.075,456.2z M481.116,452.192c1.954,0,2.618,0.922,2.618,2.926v0.323h-5.657
		C478.207,453.291,479.03,452.192,481.116,452.192z"/>
	<path fill="#FFFFFF" d="M487.014,456.2c0,3.088,1.084,4.64,4.105,4.64c1.246,0,2.409-0.227,3.056-0.388l0.064-0.776
		c-0.631,0.099-1.698,0.308-3.006,0.308c-2.538,0-3.25-1.342-3.25-3.814h6.61v-1.114c0-2.326-0.856-3.638-3.442-3.638
		C488.307,451.416,487.014,453.032,487.014,456.2L487.014,456.2z M491.055,452.192c1.957,0,2.618,0.922,2.618,2.926v0.323h-5.656
		C488.146,453.291,488.971,452.192,491.055,452.192z"/>
	<path fill="#FFFFFF" d="M500.575,455.604h3.911v3.99h0.822v-3.99h3.911v-0.825h-3.911v-4.009h-0.822v4.009h-3.911V455.604z"/>
</g>
<g>
	<g id="v3">
		<path fill="#FFFFFF" d="M173.864,330.115l-4.525-12.122h-1.729l-4.849,12.122h0.985l1.633-4.138h5.916l1.519,4.138H173.864
			L173.864,330.115z M171.004,325.137h-5.318l2.489-6.256h0.518L171.004,325.137L171.004,325.137z"/>
		<path fill="#FFFFFF" d="M183.514,330.115v-9.068h-0.937v7.743c-0.729,0.323-1.778,0.597-2.83,0.597
			c-0.985,0-1.664-0.162-2.052-0.564c-0.373-0.388-0.599-1.02-0.599-2.248v-5.527h-0.937v5.883c0,1.246,0.276,2.004,0.743,2.506
			c0.502,0.517,1.181,0.791,2.489,0.791c1.131,0,2.198-0.273,2.65-0.5c0.032-0.017,0.42-0.517,0.453-0.582h0.097l0.244,0.97
			L183.514,330.115L183.514,330.115z"/>
		<path fill="#FFFFFF" d="M190.172,325.96l2.554,4.155h1.082l-2.877-4.575l2.974-4.493h-1.049l-2.65,4.058h-0.744l-2.441-4.058
			h-1.067l2.765,4.493l-2.958,4.575h1.066l2.619-4.155H190.172L190.172,325.96z"/>
		<path fill="#FFFFFF" d="M197.122,330.115v-9.068h-0.938v9.068H197.122z M197.267,317.961c0-0.211-0.032-0.373-0.145-0.47
			c-0.082-0.08-0.226-0.112-0.42-0.112c-0.211,0-0.373,0.047-0.42,0.112c-0.129,0.064-0.194,0.244-0.194,0.485
			c0,0.211,0.047,0.373,0.129,0.453c0.08,0.097,0.226,0.129,0.452,0.129c0.177,0,0.356-0.032,0.453-0.112
			C197.234,318.364,197.267,318.17,197.267,317.961z"/>
		<path fill="#FFFFFF" d="M200.484,317.024v11.038c0,1.519,0.597,2.15,1.907,2.15c0.614,0,1.179-0.097,1.566-0.179v-0.743
			c-0.323,0.049-0.758,0.114-1.293,0.114c-0.758,0-1.243-0.276-1.243-1.44v-10.94H200.484z"/>
		<path fill="#FFFFFF" d="M206.834,330.115v-9.068h-0.938v9.068H206.834z M206.981,317.961c0-0.211-0.032-0.373-0.146-0.47
			c-0.08-0.08-0.226-0.112-0.42-0.112c-0.209,0-0.371,0.047-0.42,0.112c-0.129,0.064-0.194,0.244-0.194,0.485
			c0,0.211,0.049,0.373,0.129,0.453c0.082,0.097,0.227,0.129,0.453,0.129c0.179,0,0.355-0.032,0.453-0.112
			C206.949,318.364,206.981,318.17,206.981,317.961z"/>
		<path fill="#FFFFFF" d="M216.71,330.115v-5.625c0-1.778-0.258-2.457-0.664-2.894c-0.436-0.5-1.229-0.711-2.472-0.711
			c-1.293,0-2.636,0.276-3.314,0.452v0.761c0.614-0.114,2.021-0.373,3.121-0.373c1.017,0,1.616,0.162,1.907,0.502
			c0.306,0.371,0.5,1.017,0.5,2.586c-2.892,0.259-4.734,0.597-5.43,1.114c-0.355,0.226-0.711,0.84-0.711,1.86
			c0,0.84,0.194,1.405,0.518,1.76c0.373,0.42,1.051,0.729,2.312,0.729c1.566,0,2.536-0.405,2.812-0.599
			c0.08-0.064,0.306-0.371,0.436-0.549h0.082l0.226,0.987H216.71L216.71,330.115z M215.788,328.854
			c-0.485,0.241-1.631,0.629-3.006,0.629c-0.985,0-1.567-0.227-1.843-0.517c-0.226-0.259-0.371-0.679-0.371-1.261
			c0-0.679,0.162-1.082,0.403-1.293c0.373-0.403,2.715-0.744,4.816-0.873L215.788,328.854L215.788,328.854z"/>
		<path fill="#FFFFFF" d="M220.12,321.047v9.068h0.938v-7.628c0.549-0.355,1.583-0.729,2.683-0.711c0.55,0,1.02,0.065,1.293,0.112
			v-0.905c-0.241-0.032-0.582-0.064-1.034-0.064c-1.131,0-1.955,0.308-2.392,0.567c-0.032,0.032-0.42,0.5-0.468,0.564h-0.097
			l-0.227-1.002L220.12,321.047L220.12,321.047z"/>
		<path fill="#FFFFFF" d="M234.568,321.047h-1.017l-3.2,8.243h-0.42l-3.023-8.243h-1.017l3.394,9.068h0.743l-1.778,4.428h0.985
			L234.568,321.047z"/>
		<path fill="#FFFFFF" d="M187.789,346.277v-12.122h-0.89v11.119h-0.306l-6.902-11.119h-1.681v12.122h0.89V335.06h0.291
			l6.965,11.217H187.789L187.789,346.277z"/>
		<path fill="#FFFFFF" d="M199.279,341.541c0-1.875-0.403-2.924-1.067-3.62c-0.564-0.564-1.519-0.953-2.892-0.953
			c-1.439,0-2.442,0.42-3.088,1.034c-0.823,0.776-1.293,2.198-1.293,3.959c0,1.745,0.47,2.812,0.987,3.411
			c0.597,0.679,1.551,1.099,3.053,1.099c1.601,0,2.521-0.438,3.153-1.084C198.827,344.661,199.279,343.318,199.279,341.541
			L199.279,341.541z M195.077,345.663c-1.308,0-2.004-0.405-2.439-0.905c-0.453-0.517-0.761-1.551-0.761-2.909
			c0-1.648,0.502-2.797,1.052-3.297c0.42-0.388,1.164-0.744,2.278-0.744c1.131,0,1.827,0.291,2.28,0.759
			c0.485,0.502,0.84,1.278,0.84,3.135c0,1.616-0.405,2.618-0.97,3.2C196.887,345.372,196.079,345.663,195.077,345.663z"/>
		<path fill="#FFFFFF" d="M208.541,337.388c-0.761-0.194-1.504-0.341-2.586-0.341c-1.375,0-2.295,0.323-2.941,0.955
			c-0.793,0.744-1.246,2.181-1.246,4.008c0,2.069,0.517,3.2,1.149,3.732c0.564,0.47,1.39,0.729,2.666,0.729
			c1.246,0,2.069-0.276,2.344-0.453c0.097-0.064,0.403-0.42,0.565-0.599h0.049l0.227,0.858h0.726v-13.173h-0.953V337.388z
			 M202.738,341.946c0-1.746,0.405-2.862,0.955-3.379c0.518-0.485,1.261-0.711,2.392-0.711c1.002,0,1.843,0.162,2.457,0.244v6.997
			c-0.808,0.388-1.795,0.549-2.7,0.549c-0.952,0-1.76-0.209-2.181-0.582C203.158,344.628,202.738,343.724,202.738,341.946z"/>
		<path fill="#FFFFFF" d="M212.452,341.816c0,3.086,1.082,4.638,4.105,4.638c1.243,0,2.407-0.227,3.053-0.388l0.065-0.776
			c-0.629,0.097-1.696,0.308-3.006,0.308c-2.536,0-3.248-1.342-3.248-3.814h6.609v-1.116c0-2.328-0.855-3.635-3.441-3.635
			C213.745,337.033,212.452,338.648,212.452,341.816L212.452,341.816z M216.493,337.808c1.955,0,2.618,0.92,2.618,2.924v0.323
			h-5.656C213.583,338.907,214.407,337.808,216.493,337.808z"/>
	</g>
	<g id="v4">
		<path fill="#FFFFFF" d="M312.724,330.122L308.198,318h-1.729l-4.849,12.122h0.985l1.633-4.137h5.916l1.52,4.137H312.724
			L312.724,330.122z M309.864,325.144h-5.319l2.489-6.253h0.518L309.864,325.144z"/>
		<path fill="#FFFFFF" d="M322.373,330.122v-9.066h-0.938v7.741c-0.729,0.323-1.776,0.599-2.828,0.599
			c-0.985,0-1.664-0.162-2.053-0.567c-0.373-0.388-0.599-1.017-0.599-2.246v-5.527h-0.938v5.883c0,1.243,0.275,2.004,0.743,2.504
			c0.502,0.517,1.182,0.793,2.489,0.793c1.131,0,2.198-0.276,2.65-0.502c0.031-0.015,0.42-0.517,0.451-0.582h0.099l0.243,0.97
			H322.373L322.373,330.122z"/>
		<path fill="#FFFFFF" d="M329.032,325.969l2.554,4.152h1.081l-2.877-4.573l2.975-4.493h-1.05l-2.649,4.056h-0.744l-2.441-4.056
			h-1.065l2.765,4.493l-2.959,4.573h1.066l2.618-4.152H329.032z"/>
		<path fill="#FFFFFF" d="M335.981,330.122v-9.066h-0.938v9.066H335.981z M336.126,317.968c0-0.209-0.032-0.371-0.145-0.468
			c-0.082-0.082-0.228-0.114-0.421-0.114c-0.212,0-0.372,0.05-0.421,0.114c-0.129,0.065-0.192,0.242-0.192,0.485
			c0,0.209,0.047,0.371,0.129,0.453c0.08,0.097,0.227,0.129,0.453,0.129c0.177,0,0.354-0.032,0.452-0.114
			C336.094,318.373,336.126,318.179,336.126,317.968z"/>
		<path fill="#FFFFFF" d="M339.344,317.03v11.04c0,1.519,0.598,2.148,1.906,2.148c0.614,0,1.179-0.097,1.567-0.177v-0.744
			c-0.323,0.047-0.76,0.112-1.293,0.112c-0.76,0-1.244-0.274-1.244-1.438V317.03H339.344z"/>
		<path fill="#FFFFFF" d="M345.693,330.122v-9.066h-0.938v9.066H345.693z M345.841,317.968c0-0.209-0.033-0.371-0.146-0.468
			c-0.079-0.082-0.227-0.114-0.42-0.114c-0.209,0-0.37,0.05-0.421,0.114c-0.13,0.065-0.193,0.242-0.193,0.485
			c0,0.209,0.05,0.371,0.13,0.453c0.082,0.097,0.226,0.129,0.452,0.129c0.179,0,0.354-0.032,0.452-0.114
			C345.808,318.373,345.841,318.179,345.841,317.968z"/>
		<path fill="#FFFFFF" d="M355.57,330.122v-5.625c0-1.778-0.26-2.457-0.664-2.892c-0.437-0.502-1.229-0.711-2.473-0.711
			c-1.293,0-2.636,0.274-3.313,0.453v0.759c0.614-0.112,2.021-0.371,3.12-0.371c1.018,0,1.616,0.162,1.907,0.5
			c0.306,0.373,0.5,1.02,0.5,2.586c-2.893,0.259-4.734,0.599-5.432,1.116c-0.354,0.227-0.711,0.841-0.711,1.858
			c0,0.84,0.194,1.407,0.519,1.763c0.373,0.42,1.052,0.726,2.312,0.726c1.567,0,2.537-0.403,2.813-0.597
			c0.08-0.065,0.306-0.373,0.436-0.55h0.082l0.226,0.985H355.57L355.57,330.122z M354.647,328.861
			c-0.484,0.244-1.632,0.631-3.007,0.631c-0.984,0-1.565-0.226-1.843-0.517c-0.227-0.258-0.37-0.679-0.37-1.261
			c0-0.679,0.161-1.083,0.402-1.292c0.373-0.405,2.716-0.744,4.816-0.873L354.647,328.861L354.647,328.861z"/>
		<path fill="#FFFFFF" d="M358.979,321.056v9.066h0.938v-7.628c0.55-0.355,1.584-0.726,2.684-0.711c0.55,0,1.02,0.064,1.293,0.114
			v-0.905c-0.241-0.032-0.582-0.064-1.034-0.064c-1.132,0-1.954,0.306-2.393,0.564c-0.032,0.032-0.42,0.502-0.468,0.567h-0.097
			l-0.228-1.002L358.979,321.056L358.979,321.056z"/>
		<path fill="#FFFFFF" d="M373.428,321.056h-1.018l-3.199,8.243h-0.421l-3.023-8.243h-1.017l3.394,9.066h0.744l-1.777,4.428h0.984
			L373.428,321.056z"/>
		<path fill="#FFFFFF" d="M326.648,346.284v-12.122h-0.891v11.12h-0.307l-6.901-11.12h-1.682v12.122h0.891v-11.216h0.291
			l6.964,11.216H326.648L326.648,346.284z"/>
		<path fill="#FFFFFF" d="M338.139,341.549c0-1.875-0.402-2.926-1.065-3.621c-0.564-0.566-1.521-0.955-2.894-0.955
			c-1.438,0-2.44,0.42-3.088,1.035c-0.823,0.776-1.293,2.198-1.293,3.96c0,1.746,0.47,2.813,0.987,3.409
			c0.597,0.679,1.552,1.099,3.054,1.099c1.602,0,2.521-0.435,3.152-1.082C337.688,344.667,338.139,343.327,338.139,341.549z
			 M333.938,345.669c-1.309,0-2.005-0.403-2.439-0.905c-0.452-0.517-0.761-1.551-0.761-2.909c0-1.649,0.502-2.795,1.052-3.297
			c0.42-0.388,1.164-0.743,2.277-0.743c1.132,0,1.828,0.291,2.279,0.76c0.485,0.5,0.842,1.276,0.842,3.136
			c0,1.616-0.405,2.618-0.971,3.2C335.747,345.378,334.938,345.669,333.938,345.669L333.938,345.669z"/>
		<path fill="#FFFFFF" d="M347.4,337.395c-0.762-0.194-1.504-0.338-2.586-0.338c-1.375,0-2.296,0.323-2.941,0.953
			c-0.793,0.743-1.245,2.183-1.245,4.008c0,2.069,0.517,3.2,1.148,3.735c0.563,0.467,1.39,0.726,2.665,0.726
			c1.246,0,2.068-0.273,2.345-0.453c0.098-0.064,0.403-0.42,0.563-0.597h0.051l0.227,0.855h0.726v-13.171H347.4V337.395
			L347.4,337.395z M341.598,341.952c0-1.746,0.404-2.859,0.954-3.377c0.519-0.484,1.261-0.711,2.394-0.711
			c1.002,0,1.842,0.162,2.456,0.241v7c-0.809,0.388-1.795,0.549-2.7,0.549c-0.952,0-1.761-0.211-2.182-0.582
			C342.018,344.635,341.598,343.73,341.598,341.952z"/>
		<path fill="#FFFFFF" d="M351.313,341.823c0,3.088,1.081,4.64,4.104,4.64c1.243,0,2.407-0.226,3.054-0.388l0.064-0.776
			c-0.629,0.097-1.696,0.306-3.006,0.306c-2.537,0-3.248-1.34-3.248-3.814h6.608v-1.114c0-2.327-0.854-3.637-3.44-3.637
			C352.604,337.039,351.313,338.655,351.313,341.823z M355.353,337.815c1.954,0,2.618,0.922,2.618,2.926v0.323h-5.656
			C352.443,338.914,353.267,337.815,355.353,337.815z"/>
	</g>
	<g id="v5">
		<path fill="#FFFFFF" d="M452.735,330.122L448.21,318h-1.729l-4.85,12.122h0.987l1.632-4.137h5.915l1.519,4.137H452.735z
			 M449.874,325.144h-5.316l2.489-6.253h0.518L449.874,325.144L449.874,325.144z"/>
		<path fill="#FFFFFF" d="M462.383,330.122v-9.066h-0.937v7.741c-0.728,0.323-1.778,0.599-2.828,0.599
			c-0.986,0-1.665-0.162-2.053-0.567c-0.371-0.388-0.599-1.017-0.599-2.246v-5.527h-0.938v5.883c0,1.243,0.273,2.004,0.744,2.504
			c0.5,0.517,1.179,0.793,2.487,0.793c1.132,0,2.198-0.276,2.651-0.502c0.032-0.015,0.42-0.517,0.452-0.582h0.097l0.241,0.97
			H462.383L462.383,330.122z"/>
		<path fill="#FFFFFF" d="M469.042,325.969l2.554,4.152h1.084l-2.877-4.573l2.975-4.493h-1.053l-2.649,4.056h-0.743l-2.439-4.056
			h-1.065l2.763,4.493l-2.957,4.573h1.066l2.618-4.152H469.042z"/>
		<path fill="#FFFFFF" d="M475.991,330.122v-9.066h-0.938v9.066H475.991z M476.139,317.968c0-0.209-0.032-0.371-0.146-0.468
			c-0.079-0.082-0.227-0.114-0.42-0.114c-0.209,0-0.37,0.05-0.42,0.114c-0.131,0.065-0.194,0.242-0.194,0.485
			c0,0.209,0.05,0.371,0.13,0.453c0.081,0.097,0.227,0.129,0.452,0.129c0.179,0,0.354-0.032,0.452-0.114
			C476.105,318.373,476.139,318.179,476.139,317.968z"/>
		<path fill="#FFFFFF" d="M479.354,317.03v11.04c0,1.519,0.6,2.148,1.907,2.148c0.614,0,1.182-0.097,1.568-0.177v-0.744
			c-0.323,0.047-0.761,0.112-1.293,0.112c-0.761,0-1.245-0.274-1.245-1.438V317.03H479.354L479.354,317.03z"/>
		<path fill="#FFFFFF" d="M485.706,330.122v-9.066h-0.938v9.066H485.706z M485.851,317.968c0-0.209-0.031-0.371-0.145-0.468
			c-0.082-0.082-0.227-0.114-0.42-0.114c-0.212,0-0.373,0.05-0.421,0.114c-0.129,0.065-0.193,0.242-0.193,0.485
			c0,0.209,0.047,0.371,0.129,0.453c0.08,0.097,0.228,0.129,0.453,0.129c0.177,0,0.355-0.032,0.452-0.114
			C485.818,318.373,485.851,318.179,485.851,317.968z"/>
		<path fill="#FFFFFF" d="M495.58,330.122v-5.625c0-1.778-0.259-2.457-0.662-2.892c-0.438-0.502-1.228-0.711-2.474-0.711
			c-1.293,0-2.634,0.274-3.313,0.453v0.759c0.613-0.112,2.02-0.371,3.118-0.371c1.019,0,1.616,0.162,1.906,0.5
			c0.309,0.373,0.503,1.02,0.503,2.586c-2.896,0.259-4.737,0.599-5.432,1.116c-0.354,0.227-0.711,0.841-0.711,1.858
			c0,0.84,0.193,1.407,0.518,1.763c0.371,0.42,1.05,0.726,2.311,0.726c1.568,0,2.538-0.403,2.813-0.597
			c0.082-0.065,0.309-0.373,0.438-0.55h0.08l0.228,0.985H495.58L495.58,330.122z M494.66,328.861
			c-0.485,0.244-1.634,0.631-3.007,0.631c-0.986,0-1.568-0.226-1.843-0.517c-0.227-0.258-0.372-0.679-0.372-1.261
			c0-0.679,0.16-1.083,0.404-1.292c0.37-0.405,2.715-0.744,4.816-0.873L494.66,328.861L494.66,328.861z"/>
		<path fill="#FFFFFF" d="M498.991,321.056v9.066h0.938v-7.628c0.55-0.355,1.584-0.726,2.684-0.711c0.55,0,1.018,0.064,1.293,0.114
			v-0.905c-0.243-0.032-0.582-0.064-1.034-0.064c-1.132,0-1.957,0.306-2.393,0.564c-0.032,0.032-0.421,0.502-0.47,0.567h-0.098
			l-0.227-1.002L498.991,321.056L498.991,321.056z"/>
		<path fill="#FFFFFF" d="M513.44,321.056h-1.021l-3.2,8.243h-0.42l-3.021-8.243h-1.021l3.396,9.066h0.742l-1.777,4.428h0.986
			L513.44,321.056L513.44,321.056z"/>
		<path fill="#FFFFFF" d="M466.658,346.284v-12.122h-0.891v11.12h-0.306l-6.902-11.12h-1.681v12.122h0.89v-11.216h0.291
			l6.966,11.216H466.658L466.658,346.284z"/>
		<path fill="#FFFFFF" d="M478.148,341.549c0-1.875-0.402-2.926-1.066-3.621c-0.564-0.566-1.52-0.955-2.892-0.955
			c-1.439,0-2.441,0.42-3.089,1.035c-0.822,0.776-1.293,2.198-1.293,3.96c0,1.746,0.471,2.813,0.986,3.409
			c0.597,0.679,1.552,1.099,3.054,1.099c1.603,0,2.521-0.435,3.152-1.082C477.696,344.667,478.148,343.327,478.148,341.549z
			 M473.946,345.669c-1.309,0-2.004-0.403-2.439-0.905c-0.452-0.517-0.761-1.551-0.761-2.909c0-1.649,0.503-2.795,1.052-3.297
			c0.421-0.388,1.164-0.743,2.278-0.743c1.131,0,1.827,0.291,2.279,0.76c0.484,0.5,0.841,1.276,0.841,3.136
			c0,1.616-0.405,2.618-0.971,3.2C475.757,345.378,474.948,345.669,473.946,345.669L473.946,345.669z"/>
		<path fill="#FFFFFF" d="M487.41,337.395c-0.76-0.194-1.504-0.338-2.586-0.338c-1.374,0-2.295,0.323-2.941,0.953
			c-0.793,0.743-1.245,2.183-1.245,4.008c0,2.069,0.519,3.2,1.148,3.735c0.563,0.467,1.39,0.726,2.666,0.726
			c1.245,0,2.067-0.273,2.345-0.453c0.097-0.064,0.402-0.42,0.564-0.597h0.049l0.227,0.855h0.728v-13.171h-0.953L487.41,337.395
			L487.41,337.395z M481.607,341.952c0-1.746,0.404-2.859,0.953-3.377c0.519-0.484,1.262-0.711,2.394-0.711
			c1.002,0,1.843,0.162,2.456,0.241v7c-0.809,0.388-1.795,0.549-2.699,0.549c-0.953,0-1.761-0.211-2.182-0.582
			C482.027,344.635,481.607,343.73,481.607,341.952z"/>
		<path fill="#FFFFFF" d="M491.322,341.823c0,3.088,1.081,4.64,4.104,4.64c1.243,0,2.407-0.226,3.055-0.388l0.063-0.776
			c-0.629,0.097-1.695,0.306-3.006,0.306c-2.536,0-3.248-1.34-3.248-3.814h6.609v-1.114c0-2.327-0.855-3.637-3.441-3.637
			C492.614,337.039,491.322,338.655,491.322,341.823z M495.362,337.815c1.954,0,2.618,0.922,2.618,2.926v0.323h-5.656
			C492.453,338.914,493.276,337.815,495.362,337.815z"/>
	</g>
</g>
<g>
	<path fill="#FFFFFF" d="M53.151,410.481v-38.793h23.637l-0.672,2.741H56.203v16.086h17.483l-0.621,2.689H56.203v17.276
		L53.151,410.481L53.151,410.481z"/>
	<rect x="83.715" y="371.688" fill="#FFFFFF" width="3.051" height="38.793"/>
	<path fill="#FFFFFF" d="M124.68,410.481l-22.292-35.896h-0.931v35.896h-2.844v-38.793h5.378l22.086,35.586h0.983v-35.586h2.844
		v38.793H124.68z"/>
</g>
<g>
	<path fill="#FFFFFF" d="M153.719,448.835c2.225,0,3.49,0.32,4.21,1.009c0.768,0.736,1.28,2.272,1.28,4.803
		c0,2.465-0.672,4.258-1.617,5.09c-0.8,0.688-2.049,1.104-4.434,1.104h-3.538v-12.005H153.719z M150.565,449.699v10.275h2.465
		c2.129,0,3.233-0.319,3.89-0.849c0.784-0.656,1.328-2.225,1.328-4.466c0-1.856-0.32-3.377-1.072-4.146
		c-0.656-0.688-2.097-0.815-3.585-0.815L150.565,449.699L150.565,449.699z"/>
	<path fill="#FFFFFF" d="M165.975,451.685c2.561,0,3.409,1.297,3.409,3.602v1.104h-6.546c0,2.449,0.704,3.778,3.217,3.778
		c1.296,0,2.353-0.208,2.977-0.305l-0.064,0.769c-0.64,0.16-1.792,0.384-3.025,0.384c-2.993,0-4.065-1.535-4.065-4.594
		C161.877,453.285,163.157,451.685,165.975,451.685z M162.869,455.67h5.603v-0.32c0-1.983-0.656-2.896-2.593-2.896
		C163.813,452.452,162.998,453.541,162.869,455.67z"/>
	<path fill="#FFFFFF" d="M176.63,452.645h-3.153v8.195h-0.928v-8.195h-1.873l0.112-0.783h1.761v-0.978
		c0-2.305,0.928-3.041,2.881-3.041c0.656,0,1.408,0.097,1.681,0.128v0.736c-0.336-0.016-0.88-0.096-1.585-0.096
		c-1.729,0-2.048,0.735-2.048,2.417v0.832h3.33L176.63,452.645z"/>
	<path fill="#FFFFFF" d="M183.383,452.645h-3.186v5.986c0,1.217,0.561,1.473,1.568,1.473c0.736,0,1.409-0.111,1.761-0.159
		l-0.08,0.783c-0.479,0.098-1.232,0.208-1.921,0.208c-1.601,0-2.257-0.575-2.257-2.129v-6.162h-1.856l0.128-0.783h1.729v-1.873
		l0.929-0.24v2.113h3.361L183.383,452.645z"/>
	<path fill="#FFFFFF" d="M198.233,449.795c-0.833-0.096-1.665-0.239-3.186-0.239c-1.729,0-2.689,0.368-3.346,0.88
		c-0.736,0.594-1.473,2.178-1.473,4.45c0,2.018,0.4,3.521,1.152,4.273c0.625,0.624,1.649,0.96,3.33,0.96
		c1.376,0,2.673-0.239,3.521-0.399v0.8c-0.977,0.257-2.321,0.48-3.698,0.48c-2.049,0-3.073-0.416-3.905-1.2
		c-0.736-0.721-1.377-2.192-1.377-4.771c0-3.073,1.041-4.609,1.777-5.202c0.784-0.672,1.921-1.152,4.001-1.152
		c1.441,0,2.369,0.16,3.202,0.306v0.814H198.233z"/>
	<path fill="#FFFFFF" d="M207.624,459.96c-0.624,0.64-1.536,1.072-3.121,1.072c-1.488,0-2.433-0.416-3.025-1.089
		c-0.512-0.593-0.977-1.648-0.977-3.377c0-1.745,0.465-3.153,1.281-3.923c0.64-0.607,1.633-1.023,3.057-1.023
		c1.361,0,2.306,0.384,2.865,0.944c0.656,0.688,1.057,1.729,1.057,3.586C208.76,457.911,208.312,459.239,207.624,459.96z
		 M206.856,459.479c0.56-0.575,0.96-1.567,0.96-3.17c0-1.84-0.353-2.607-0.832-3.104c-0.448-0.465-1.137-0.753-2.257-0.753
		c-1.104,0-1.841,0.353-2.257,0.735c-0.545,0.496-1.041,1.634-1.041,3.267c0,1.345,0.305,2.369,0.752,2.881
		c0.433,0.496,1.121,0.896,2.417,0.896C205.591,460.231,206.391,459.943,206.856,459.479z"/>
	<path fill="#FFFFFF" d="M223.801,460.84v-5.555c0-1.185-0.208-1.81-0.592-2.177c-0.385-0.368-1.057-0.544-1.809-0.544
		c-1.153,0-2.098,0.384-2.737,0.721v7.555h-0.929v-6.146c0-0.784-0.128-1.266-0.496-1.616c-0.384-0.368-1.137-0.513-1.873-0.513
		c-1.168,0-2.097,0.336-2.769,0.607v7.667h-0.929v-8.979h0.688l0.24,0.943h0.08l0.479-0.527c0.416-0.225,1.409-0.544,2.577-0.544
		c1.152,0,1.889,0.256,2.385,0.735c0.209,0.191,0.32,0.384,0.4,0.528h0.08l0.496-0.625c0.513-0.288,1.537-0.64,2.705-0.64
		c1.057,0,1.729,0.239,2.209,0.703c0.513,0.48,0.721,1.298,0.721,2.529v5.874L223.801,460.84L223.801,460.84z"/>
	<path fill="#FFFFFF" d="M234.567,460.008c-0.608,0.576-1.537,0.912-3.058,0.912c-1.104,0-2.049-0.16-2.85-0.353l-0.464,0.271
		h-0.128v-12.965h0.929v4.85h0.063c0.128-0.176,0.496-0.527,0.593-0.575c0.256-0.177,1.313-0.465,2.528-0.465
		c1.249,0,2.001,0.271,2.514,0.721c0.64,0.576,1.104,1.681,1.104,3.521C235.799,457.831,235.334,459.271,234.567,460.008z
		 M233.958,453.093c-0.416-0.368-1.057-0.576-2.129-0.576c-0.977,0-2.049,0.177-2.833,0.528v6.866
		c0.624,0.097,1.504,0.225,2.417,0.225c1.216,0,1.969-0.239,2.448-0.688c0.576-0.544,0.977-1.665,0.977-3.329
		C234.838,454.438,234.422,453.509,233.958,453.093z"/>
	<path fill="#FFFFFF" d="M244.455,460.84l-0.224-0.977h-0.08c-0.128,0.176-0.353,0.479-0.433,0.544
		c-0.271,0.191-1.232,0.593-2.785,0.593c-1.248,0-1.921-0.305-2.289-0.721c-0.319-0.353-0.512-0.912-0.512-1.744
		c0-1.009,0.353-1.617,0.704-1.841c0.688-0.514,2.513-0.85,5.378-1.104c0-1.553-0.191-2.192-0.496-2.562
		c-0.288-0.336-0.88-0.496-1.889-0.496c-1.088,0-2.48,0.257-3.089,0.368v-0.752c0.672-0.177,2.001-0.448,3.281-0.448
		c1.232,0,2.017,0.208,2.449,0.704c0.399,0.433,0.656,1.104,0.656,2.864v5.57L244.455,460.84L244.455,460.84z M244.214,456.31
		c-2.08,0.13-4.401,0.466-4.77,0.865c-0.24,0.208-0.4,0.607-0.4,1.28c0,0.576,0.145,0.992,0.368,1.248
		c0.272,0.288,0.849,0.513,1.825,0.513c1.36,0,2.497-0.385,2.977-0.624V456.31z"/>
	<path fill="#FFFFFF" d="M253.11,452.645h-3.186v5.986c0,1.217,0.561,1.473,1.568,1.473c0.736,0,1.409-0.111,1.761-0.159
		l-0.08,0.783c-0.479,0.098-1.232,0.208-1.921,0.208c-1.601,0-2.257-0.575-2.257-2.129v-6.162h-1.856l0.128-0.783h1.729v-1.873
		l0.929-0.24v2.113h3.361L253.11,452.645z"/>
</g>
</svg>
