<svg xmlns="http://www.w3.org/2000/svg" width="612" height="190">
  <path fill="#377C21" d="M6.114 95.001l85.516 85.518 85.516-85.516L91.627 9.484 6.114 95.001z"/>
  <g fill="#FFF">
    <path d="M51.779 71.723h3.051v38.794h-3.051zM92.742 110.517L70.449 74.62h-.931v35.896h-2.845V71.723h5.379l22.086 35.584h.982V71.723h2.845v38.794h-5.223zM135.72 74.465h-13.708v36.052h-3V74.465h-14.016l.724-2.742h30.62l-.62 2.742z"/>
  </g>
  <path fill="#377C21" d="M187.397 119.434l-12.113 12.11 115.162-.002-48.971 48.969-134.64.006 61.133-61.083h-10.984l12.216-12.219h-8.443V82.78h8.438l-12.216-12.216h10.988L106.834 9.48l134.64.005 48.971 48.968-115.162-.002 12.113 12.113h115.155l12.216 12.216h4.271L306.82 70.564h.006L245.693 9.482l134.64.004 48.971 48.968-115.161-.002 12.112 12.112h115.171l12.216 12.217h4.271l-12.217-12.217h.005L384.567 9.482l134.641.004 48.973 48.968-115.163-.002 12.112 12.112H580.3l24.438 24.438-24.433 24.432H465.131l-12.113 12.111 115.164-.002-48.973 48.969-134.641.004 61.134-61.083 12.216-12.217h-4.271l-12.219 12.217H326.256l-12.112 12.112 115.161-.002-48.971 48.969-134.64.004 61.133-61.083 12.217-12.217h-4.271l-12.216 12.217-115.16.001z"/>
  <g fill="#FFF">
    <path d="M196.734 106.366v-1.539h6.671V84.965l-6.671 1.207v-1.539l8.391-1.479v21.674h6.038v1.539h-14.429zM245.524 106.366h-15.545v-1.813c.271-3.318 2.082-5.465 7.396-8.06 3.381-1.689 4.859-2.564 5.646-3.592.664-.936.845-2.143.845-3.32 0-3.109-1.146-4.527-6.066-4.527-2.688 0-5.583.664-6.913.965v-1.571c1.78-.481 4.558-1.028 7.273-1.028 5.764 0 7.577 1.873 7.577 5.948 0 2.054-.453 3.471-1.146 4.346-1.177 1.539-3.502 2.717-6.46 4.166-5.523 2.688-6.398 4.588-6.46 6.854h14.309l-.456 1.632zM277.413 93.537l-2.446 1.146v.121l2.564.904c1.028.849 1.84 2.777 1.84 4.738 0 4.347-2.474 6.22-8.603 6.22-2.534 0-4.769-.332-6.099-.634v-1.539c1.39.241 3.834.604 6.099.604 5.614 0 6.792-1.842 6.792-4.648 0-4.015-2.688-4.769-6.099-4.769h-4.316v-1.57h3.924c2.958 0 6.066-.755 6.066-4.679 0-2.897-1.086-4.406-5.674-4.406-2.416 0-4.739.482-6.31.814v-1.511c1.631-.422 4.135-.905 6.611-.905 5.433 0 7.154 1.903 7.154 5.768.005 2.112-.93 3.801-1.503 4.346z"/>
    <g>
      <path d="M359.266 106.366h-1.659v-6.429H345.98v-1.752l9.992-14.459h3.289v14.7h5.072l-.454 1.513h-4.62l.007 6.427zm-1.66-7.939v-13.22h-.817l-8.844 12.828v.392h9.661zM387.679 106.668c-2.08 0-4.282-.302-5.854-.543v-1.602c1.446.211 3.683.513 5.946.513 5.225 0 7.035-1.479 7.035-5.222 0-3.984-1.267-5.01-5.917-5.01-2.143 0-5.041.453-6.367.633v-11.71h13.402v1.539h-11.83v8.512c1.269-.211 3.017-.543 5.343-.543 5.255 0 7.186 1.39 7.186 6.337-.008 4.771-2.211 7.096-8.944 7.096zM417.337 95.317h.148l.963-.996c1.302-.481 3.651-1.146 6.4-1.146 5.345 0 7.124 2.231 7.124 6.428 0 4.377-2.267 7.063-8.089 7.063-6.338 0-8.304-4.015-8.304-10.688 0-4.195 1.18-7.215 2.959-9.115 2.084-2.174 5.404-3.532 11.229-3.592l.603 1.602c-5.674.03-8.756 1.207-10.563 3.141-1.416 1.507-2.352 4.073-2.47 7.303zm6.938-.573c-2.687 0-5.161.664-6.941 1.357.059 6.25 2.021 8.993 6.638 8.993 4.318 0 6.249-1.688 6.249-5.342.002-3.497-1.418-5.008-5.946-5.008z"/>
    </g>
    <g>
      <path d="M494.617 85.749v-.422h-13.609l.483-1.601h15.061v1.994l-10.807 20.646h-1.961l10.833-20.617zM517.543 95.86l2.05-1.118v-.15l-1.811-.936c-.784-.785-1.541-1.903-1.541-3.984 0-3.652 2.293-6.279 7.604-6.279 5.284 0 7.245 2.353 7.245 5.733 0 2.144-.907 3.441-1.752 4.347l-1.868 1.119v.15l2.291.848c1.211.964 1.902 2.505 1.902 4.558 0 3.743-2.325 6.521-8.271 6.521-5.609 0-7.938-2.233-7.938-6.064.005-1.937.789-3.538 2.089-4.745zm-.302 4.528c0 3.021 1.752 4.739 6.338 4.739 4.678 0 6.31-2.202 6.31-4.799 0-4.136-2.627-4.468-9.357-5.193-1.664 1.088-3.291 2.568-3.291 5.253zm.782-10.867c0 3.713 2.355 4.226 8.271 4.769 1.903-1.176 2.989-2.717 2.989-4.95 0-2.897-1.629-4.406-5.611-4.406-4.168.002-5.649 2.052-5.649 4.587zM564.34 94.805h-.147l-.939.996c-1.236.514-3.56 1.119-6.156 1.119-5.4 0-7.306-2.175-7.306-6.34 0-4.77 2.991-7.154 8.058-7.154 5.917 0 8.24 3.291 8.24 10.475 0 4.314-1.175 7.484-2.958 9.354-1.992 2.175-5.4 3.474-11.26 3.595l-.575-1.661c5.585-.03 8.844-1.146 10.596-3.052 1.36-1.535 2.356-4.072 2.447-7.332zm-6.851.543c2.717 0 5.163-.633 6.853-1.267-.059-6.399-1.898-9.085-6.605-9.085-4.228 0-6.191 2.021-6.191 5.465-.003 3.379 1.504 4.887 5.943 4.887z"/>
    </g>
  </g>
  <g fill="#FFF">
    <path d="M177.096 152.326l-4.525-12.121h-1.729l-4.849 12.121h.985l1.633-4.138h5.916l1.519 4.138h1.05zm-2.859-4.978h-5.318l2.489-6.254h.518l2.311 6.254zM186.778 152.326v-5.931c0-1.229-.258-2.056-.76-2.521-.485-.485-1.179-.744-2.36-.744-1.146 0-2.31.323-2.748.564-.047.033-.42.453-.468.518h-.082l-.259-.952h-.679v9.065h.938v-7.758c.711-.291 1.73-.599 2.894-.599.84 0 1.551.161 1.955.552.405.388.631 1.049.631 2.195v5.607h.938v.004zM196.62 152.326v-5.624c0-1.778-.259-2.457-.662-2.893-.438-.503-1.229-.713-2.474-.713-1.293 0-2.633.273-3.313.453v.76c.614-.111 2.02-.37 3.118-.37 1.02 0 1.616.161 1.907.5.308.372.502 1.019.502 2.586-2.894.258-4.736.599-5.43 1.116-.355.226-.711.84-.711 1.855 0 .84.194 1.407.517 1.763.371.421 1.049.729 2.31.729 1.569 0 2.539-.403 2.812-.598.082-.064.308-.372.438-.551h.08l.227.984.679.003zm-.92-1.261c-.485.243-1.633.632-3.006.632-.987 0-1.569-.229-1.842-.52-.227-.259-.373-.679-.373-1.261 0-.679.162-1.084.405-1.293.371-.405 2.715-.743 4.816-.872v3.314zM199.982 139.235v11.039c0 1.52.599 2.146 1.907 2.146.614 0 1.181-.097 1.569-.177v-.743c-.323.048-.761.112-1.293.112-.76 0-1.246-.273-1.246-1.438v-10.939h-.937zM212.717 143.261H211.7l-3.2 8.242h-.42l-3.023-8.242h-1.017l3.394 9.065h.743l-1.778 4.429h.985l5.333-13.494zM221.154 143.261h-6.723l-.209.823h5.898v.193l-6.189 6.95v1.099h7.208l.259-.823h-6.368v-.211l6.124-6.885v-1.146zM223.19 147.865c0 3.088 1.084 4.64 4.105 4.64 1.246 0 2.409-.226 3.056-.388l.065-.775c-.631.099-1.698.308-3.006.308-2.539 0-3.25-1.341-3.25-3.814h6.611v-1.114c0-2.325-.858-3.637-3.444-3.637-2.844-.003-4.137 1.612-4.137 4.78zm4.041-4.008c1.957 0 2.618.922 2.618 2.927v.323h-5.657c.13-2.151.955-3.25 3.039-3.25zM174.625 156.514c-.84-.146-1.778-.309-3.232-.309-2.101 0-3.25.484-4.041 1.164-.744.599-1.795 2.15-1.795 5.253 0 2.604.646 4.088 1.39 4.816.84.791 1.875 1.211 3.943 1.211 1.39 0 2.748-.228 3.734-.484v-.809c-.857.162-2.166.403-3.555.403-1.698 0-2.733-.34-3.362-.97-.761-.761-1.164-2.279-1.164-4.314 0-2.297.743-3.896 1.487-4.492.662-.52 1.631-.891 3.376-.891 1.537 0 2.377.146 3.217.242v-.822l.002.002zM183.837 168.488v-5.624c0-1.778-.258-2.457-.664-2.895-.436-.502-1.229-.711-2.472-.711-1.293 0-2.636.273-3.314.452v.759c.614-.11 2.021-.368 3.121-.368 1.017 0 1.616.159 1.907.5.306.372.5 1.019.5 2.586-2.892.258-4.734.599-5.43 1.114-.355.228-.711.842-.711 1.857 0 .84.194 1.407.518 1.763.373.42 1.051.728 2.312.728 1.567 0 2.537-.402 2.812-.599.08-.063.306-.372.436-.55h.082l.226.985.677.003zm-.922-1.26c-.485.241-1.631.632-3.006.632-.985 0-1.567-.229-1.843-.52-.226-.259-.371-.679-.371-1.261 0-.679.162-1.084.403-1.293.373-.405 2.715-.743 4.816-.873l.001 3.315zM192.709 165.999c0-.614-.145-1.131-.468-1.502-.34-.388-1.034-.663-2.359-.97-1.229-.275-1.795-.502-2.069-.825-.211-.241-.276-.582-.276-.92 0-1.148.549-1.795 2.457-1.795.955 0 1.713.097 2.409.211v-.775c-.549-.114-1.422-.244-2.424-.244-2.409 0-3.362.987-3.362 2.65 0 .518.112 1.052.403 1.391.453.566 1.213.81 2.489 1.116 1.099.258 1.713.468 2.004.791.194.258.276.601.276.938 0 1.147-.517 1.729-2.553 1.729-.987 0-1.989-.146-2.651-.273v.793c.646.159 1.746.291 2.651.291 2.747-.002 3.473-1.004 3.473-2.606zM199.271 160.036c1.067 0 1.907.13 2.474.209v-.808c-.599-.112-1.487-.261-2.571-.261-1.358 0-2.375.323-3.071 1.002-.855.795-1.293 2.186-1.293 3.993 0 1.584.373 2.847 1.213 3.62.629.6 1.599.89 2.877.89 1.276 0 2.213-.228 2.845-.402v-.729c-.631.099-1.552.275-2.7.275-.985 0-1.778-.193-2.31-.695-.631-.582-.938-1.584-.938-3.069 0-1.554.338-2.698 1.002-3.313.517-.503 1.373-.712 2.472-.712zM210.843 168.488v-5.624c0-1.778-.259-2.457-.662-2.895-.438-.502-1.229-.711-2.474-.711-1.293 0-2.633.273-3.312.452v.759c.614-.11 2.019-.368 3.118-.368 1.02 0 1.616.159 1.907.5.308.372.502 1.019.502 2.586-2.894.258-4.736.599-5.43 1.114-.355.228-.711.842-.711 1.857 0 .84.194 1.407.518 1.763.371.42 1.049.728 2.31.728 1.568 0 2.538-.402 2.812-.599.082-.063.308-.372.438-.55h.08l.227.985.677.003zm-.921-1.26c-.485.241-1.633.632-3.006.632-.987 0-1.569-.229-1.843-.52-.226-.259-.373-.679-.373-1.261 0-.679.162-1.084.405-1.293.371-.405 2.715-.743 4.816-.873l.001 3.315zM220.557 159.6c-.761-.194-1.504-.341-2.586-.341-1.375 0-2.295.323-2.941.952-.793.744-1.246 2.186-1.246 4.009 0 2.068.517 3.2 1.148 3.734.564.468 1.39.728 2.666.728 1.246 0 2.069-.273 2.345-.452.097-.064.403-.42.564-.599h.05l.226.855h.727v-13.171h-.953v4.285zm-5.803 4.557c0-1.746.405-2.86.955-3.377.517-.485 1.261-.712 2.392-.712 1.002 0 1.842.162 2.457.242v6.999c-.808.388-1.795.55-2.7.55-.953 0-1.761-.212-2.181-.582-.503-.437-.923-1.342-.923-3.12zM224.468 164.027c0 3.088 1.082 4.64 4.105 4.64 1.244 0 2.407-.227 3.054-.388l.064-.776c-.629.1-1.696.309-3.006.309-2.537 0-3.248-1.343-3.248-3.814h6.609v-1.114c0-2.326-.856-3.638-3.441-3.638-2.844-.003-4.137 1.613-4.137 4.781zm4.041-4.007c1.955 0 2.618.922 2.618 2.926v.323h-5.657c.13-2.151.953-3.249 3.039-3.249z"/>
  </g>
  <g fill="#FFF">
    <path d="M173.864 30.15l-4.525-12.122h-1.729l-4.849 12.122h.985l1.633-4.139h5.916l1.519 4.139h1.05zm-2.86-4.978h-5.318l2.489-6.256h.518l2.311 6.256zM183.514 30.15v-9.068h-.937v7.743c-.729.323-1.778.597-2.83.597-.985 0-1.664-.162-2.052-.563-.373-.388-.599-1.021-.599-2.248v-5.527h-.937v5.884c0 1.245.276 2.004.743 2.506.502.517 1.181.791 2.489.791 1.131 0 2.198-.273 2.65-.5.032-.018.42-.518.453-.582h.097l.244.97.679-.003zM190.172 25.995l2.554 4.155h1.082l-2.877-4.575 2.974-4.493h-1.049l-2.65 4.059h-.744l-2.441-4.059h-1.067l2.765 4.493-2.958 4.575h1.066l2.619-4.155h.726zM197.122 30.15v-9.068h-.938v9.068h.938zm.145-12.154c0-.211-.032-.373-.145-.47-.082-.08-.226-.112-.42-.112-.211 0-.373.047-.42.112-.129.063-.194.243-.194.485 0 .211.047.373.129.453.08.096.226.129.452.129.177 0 .356-.033.453-.113.112-.081.145-.275.145-.484zM200.484 17.059v11.039c0 1.519.597 2.149 1.907 2.149.614 0 1.179-.097 1.566-.179v-.743c-.323.049-.758.114-1.293.114-.758 0-1.243-.276-1.243-1.44v-10.94h-.937zM206.834 30.15v-9.068h-.938v9.068h.938zm.147-12.154c0-.211-.032-.373-.146-.47-.08-.08-.226-.112-.42-.112-.209 0-.371.047-.42.112-.129.063-.194.243-.194.485 0 .211.049.373.129.453.082.096.227.129.453.129.179 0 .355-.033.453-.113.113-.081.145-.275.145-.484zM216.71 30.15v-5.625c0-1.778-.258-2.457-.664-2.895-.436-.5-1.229-.711-2.472-.711-1.293 0-2.636.276-3.314.452v.761c.614-.113 2.021-.373 3.121-.373 1.017 0 1.616.162 1.907.502.306.371.5 1.018.5 2.586-2.892.26-4.734.598-5.43 1.114-.355.226-.711.841-.711 1.86 0 .84.194 1.404.518 1.76.373.42 1.051.729 2.312.729 1.566 0 2.536-.404 2.812-.599.08-.063.306-.37.436-.549h.082l.226.987h.677v.001zm-.922-1.261c-.485.242-1.631.629-3.006.629-.985 0-1.567-.227-1.843-.517-.226-.259-.371-.679-.371-1.261 0-.68.162-1.082.403-1.293.373-.403 2.715-.744 4.816-.873l.001 3.315zM220.12 21.082v9.068h.938v-7.629c.549-.354 1.583-.729 2.683-.711.55 0 1.02.065 1.293.113v-.906c-.241-.031-.582-.063-1.034-.063-1.131 0-1.955.308-2.392.567-.032.031-.42.5-.468.563h-.097l-.227-1.002h-.696zM234.568 21.082h-1.017l-3.2 8.243h-.42l-3.023-8.243h-1.017l3.394 9.068h.743l-1.778 4.428h.985l5.333-13.496zM187.789 46.313V34.189h-.89v11.119h-.306l-6.902-11.119h-1.681v12.123h.89V35.096h.291l6.965 11.217h1.633zM199.279 41.576c0-1.875-.403-2.924-1.067-3.62-.564-.563-1.519-.953-2.892-.953-1.439 0-2.442.421-3.088 1.034-.823.775-1.293 2.198-1.293 3.959 0 1.745.47 2.813.987 3.411.597.679 1.551 1.099 3.053 1.099 1.601 0 2.521-.438 3.153-1.084.695-.726 1.147-2.068 1.147-3.846zm-4.202 4.122c-1.308 0-2.004-.405-2.439-.905-.453-.517-.761-1.551-.761-2.908 0-1.648.502-2.798 1.052-3.298.42-.388 1.164-.743 2.278-.743 1.131 0 1.827.291 2.28.758.485.502.84 1.279.84 3.136 0 1.616-.405 2.618-.97 3.2-.47.469-1.278.76-2.28.76zM208.541 37.424c-.761-.195-1.504-.342-2.586-.342-1.375 0-2.295.323-2.941.955-.793.744-1.246 2.182-1.246 4.008 0 2.069.517 3.2 1.149 3.732.564.47 1.39.729 2.666.729 1.246 0 2.069-.275 2.344-.453.097-.063.403-.42.565-.599h.049l.227.858h.726V33.139h-.953v4.285zm-5.803 4.556c0-1.745.405-2.861.955-3.379.518-.484 1.261-.711 2.392-.711 1.002 0 1.843.162 2.457.244v6.998c-.808.387-1.795.549-2.7.549-.952 0-1.76-.209-2.181-.582-.503-.436-.923-1.339-.923-3.119zM212.452 41.852c0 3.086 1.082 4.638 4.105 4.638 1.243 0 2.407-.228 3.053-.388l.065-.776c-.629.097-1.696.308-3.006.308-2.536 0-3.248-1.342-3.248-3.813h6.609v-1.116c0-2.328-.855-3.635-3.441-3.635-2.844-.002-4.137 1.614-4.137 4.782zm4.041-4.008c1.955 0 2.618.92 2.618 2.924v.322h-5.656c.128-2.148.952-3.246 3.038-3.246z"/>
    <g>
      <path d="M312.724 30.157l-4.525-12.122h-1.729l-4.849 12.122h.985l1.633-4.138h5.917l1.52 4.138h1.048zm-2.86-4.977h-5.319l2.489-6.254h.518l2.312 6.254zM322.373 30.157v-9.065h-.938v7.74c-.729.323-1.775.6-2.827.6-.985 0-1.664-.162-2.054-.567-.373-.388-.599-1.017-.599-2.246v-5.526h-.938v5.883c0 1.242.275 2.004.743 2.504.502.517 1.183.793 2.489.793 1.131 0 2.198-.276 2.65-.502.03-.016.42-.518.45-.582h.1l.243.97h.681v-.002zM329.032 26.004l2.554 4.152h1.081l-2.877-4.573 2.975-4.493h-1.05l-2.648 4.057h-.744l-2.441-4.057h-1.064l2.765 4.493-2.959 4.573h1.066l2.617-4.152h.725zM335.981 30.157v-9.065h-.938v9.065h.938zm.145-12.154c0-.209-.032-.37-.145-.468-.082-.082-.229-.114-.422-.114-.212 0-.371.05-.421.114-.129.064-.191.242-.191.484 0 .209.047.371.129.453.08.098.227.129.453.129.177 0 .354-.031.452-.113.113-.08.145-.273.145-.485zM339.344 17.064v11.041c0 1.519.599 2.147 1.906 2.147.614 0 1.179-.097 1.567-.177v-.744c-.323.047-.761.112-1.293.112-.761 0-1.244-.274-1.244-1.438V17.064h-.936zM345.693 30.157v-9.065h-.938v9.065h.938zm.148-12.154c0-.209-.033-.37-.146-.468-.079-.082-.228-.114-.42-.114-.209 0-.37.05-.422.114-.13.064-.192.242-.192.484 0 .209.05.371.13.453.082.098.226.129.452.129.179 0 .354-.031.452-.113.113-.08.146-.273.146-.485zM355.57 30.157v-5.625c0-1.778-.261-2.457-.664-2.892-.438-.502-1.229-.711-2.474-.711-1.293 0-2.636.273-3.313.453v.758c.614-.111 2.021-.371 3.12-.371 1.018 0 1.616.162 1.907.5.306.373.5 1.021.5 2.586-2.894.26-4.734.6-5.433 1.117-.354.227-.711.84-.711 1.857 0 .84.194 1.407.52 1.764.373.42 1.052.726 2.312.726 1.567 0 2.537-.403 2.813-.597.08-.065.306-.373.436-.551h.082l.226.985h.679v.001zm-.923-1.261c-.484.244-1.633.631-3.008.631-.983 0-1.564-.227-1.843-.518-.227-.258-.37-.679-.37-1.261 0-.679.161-1.083.402-1.292.373-.404 2.716-.744 4.816-.873l.003 3.313zM358.979 21.092v9.065h.938v-7.628c.55-.355 1.584-.727 2.684-.711.551 0 1.021.064 1.293.113v-.904c-.24-.032-.582-.064-1.033-.064-1.133 0-1.954.307-2.394.564-.032.031-.42.502-.468.566h-.097l-.229-1.002h-.694v.001zM373.428 21.092h-1.018l-3.199 8.242h-.421l-3.023-8.242h-1.017l3.394 9.065h.744l-1.776 4.428h.983l5.333-13.493zM326.648 46.319V34.197h-.892v11.12h-.307l-6.901-11.12h-1.682v12.122h.891V35.104h.291l6.964 11.216h1.636v-.001zM338.139 41.584c0-1.875-.401-2.926-1.064-3.621-.564-.566-1.521-.955-2.895-.955-1.438 0-2.439.42-3.088 1.035-.823.776-1.293 2.198-1.293 3.96 0 1.746.47 2.813.987 3.409.597.68 1.552 1.1 3.054 1.1 1.603 0 2.521-.436 3.152-1.082.696-.728 1.147-2.068 1.147-3.846zm-4.201 4.12c-1.309 0-2.005-.403-2.438-.905-.452-.517-.761-1.551-.761-2.908 0-1.649.502-2.795 1.052-3.297.42-.389 1.164-.744 2.277-.744 1.132 0 1.827.291 2.278.761.485.5.843 1.276.843 3.136 0 1.616-.405 2.618-.972 3.2-.47.466-1.279.757-2.279.757zM347.4 37.43c-.763-.193-1.504-.338-2.586-.338-1.375 0-2.297.323-2.941.953-.793.743-1.245 2.184-1.245 4.008 0 2.069.517 3.2 1.148 3.735.563.467 1.39.726 2.665.726 1.246 0 2.067-.272 2.345-.453.098-.063.403-.42.563-.596h.052l.227.854h.726V33.148h-.954v4.282zm-5.802 4.557c0-1.746.404-2.859.954-3.377.52-.484 1.261-.712 2.395-.712 1.002 0 1.842.162 2.456.242v7c-.81.388-1.795.549-2.7.549-.952 0-1.761-.211-2.183-.582-.502-.437-.922-1.341-.922-3.12zM351.313 41.858c0 3.088 1.081 4.64 4.104 4.64 1.243 0 2.407-.227 3.054-.388l.064-.776c-.629.098-1.696.307-3.006.307-2.537 0-3.248-1.34-3.248-3.814h6.607v-1.114c0-2.327-.854-3.637-3.439-3.637-2.845-.002-4.136 1.613-4.136 4.782zm4.04-4.008c1.954 0 2.618.922 2.618 2.927v.323h-5.655c.127-2.151.951-3.25 3.037-3.25z"/>
    </g>
    <g>
      <path d="M452.735 30.157l-4.525-12.122h-1.729l-4.851 12.122h.987l1.632-4.138h5.915l1.519 4.138h1.052zm-2.861-4.977h-5.316l2.489-6.254h.519l2.308 6.254zM462.383 30.157v-9.065h-.937v7.74c-.729.323-1.778.6-2.828.6-.986 0-1.665-.162-2.053-.567-.371-.388-.6-1.017-.6-2.246v-5.526h-.938v5.883c0 1.242.272 2.004.743 2.504.5.517 1.18.793 2.487.793 1.132 0 2.198-.276 2.651-.502.032-.016.42-.518.452-.582h.097l.241.97h.685v-.002zM469.042 26.004l2.554 4.152h1.084l-2.877-4.573 2.976-4.493h-1.054l-2.648 4.057h-.743l-2.439-4.057h-1.064l2.763 4.493-2.957 4.573h1.066l2.618-4.152h.721zM475.991 30.157v-9.065h-.938v9.065h.938zm.148-12.154c0-.209-.031-.37-.146-.468-.079-.082-.228-.114-.42-.114-.209 0-.37.05-.42.114-.132.064-.194.242-.194.484 0 .209.05.371.13.453.081.098.228.129.452.129.179 0 .354-.031.452-.113.112-.08.146-.273.146-.485zM479.354 17.064v11.041c0 1.519.601 2.147 1.907 2.147.614 0 1.183-.097 1.568-.177v-.744c-.323.047-.761.112-1.293.112-.761 0-1.245-.274-1.245-1.438V17.064h-.937zM485.706 30.157v-9.065h-.938v9.065h.938zm.145-12.154c0-.209-.03-.37-.145-.468-.082-.082-.227-.114-.42-.114-.212 0-.373.05-.421.114-.129.064-.193.242-.193.484 0 .209.047.371.129.453.08.098.229.129.453.129.177 0 .355-.031.452-.113.112-.08.145-.273.145-.485zM495.58 30.157v-5.625c0-1.778-.259-2.457-.662-2.892-.438-.502-1.228-.711-2.474-.711-1.293 0-2.635.273-3.313.453v.758c.613-.111 2.021-.371 3.118-.371 1.019 0 1.616.162 1.906.5.309.373.503 1.021.503 2.586-2.896.26-4.737.6-5.433 1.117-.354.227-.711.84-.711 1.857 0 .84.193 1.407.519 1.764.371.42 1.05.726 2.311.726 1.568 0 2.538-.403 2.813-.597.082-.065.309-.373.438-.551h.08l.229.985h.676v.001zm-.92-1.261c-.485.244-1.634.631-3.007.631-.986 0-1.568-.227-1.844-.518-.227-.258-.371-.679-.371-1.261 0-.679.159-1.083.403-1.292.37-.404 2.715-.744 4.816-.873l.003 3.313zM498.991 21.092v9.065h.938v-7.628c.55-.355 1.584-.727 2.685-.711.55 0 1.018.064 1.293.113v-.904c-.243-.032-.582-.064-1.034-.064-1.132 0-1.957.307-2.394.564-.031.031-.421.502-.47.566h-.098l-.228-1.002h-.692v.001zM513.44 21.092h-1.021l-3.2 8.242h-.42l-3.021-8.242h-1.021l3.396 9.065h.741l-1.776 4.428h.985l5.337-13.493zM466.658 46.319V34.197h-.892v11.12h-.306l-6.902-11.12h-1.681v12.122h.89V35.104h.291l6.967 11.216h1.633v-.001zM478.148 41.584c0-1.875-.402-2.926-1.066-3.621-.564-.566-1.52-.955-2.892-.955-1.439 0-2.441.42-3.09 1.035-.821.776-1.293 2.198-1.293 3.96 0 1.746.472 2.813.986 3.409.597.68 1.552 1.1 3.054 1.1 1.604 0 2.521-.436 3.152-1.082.697-.728 1.149-2.068 1.149-3.846zm-4.202 4.12c-1.31 0-2.004-.403-2.439-.905-.452-.517-.761-1.551-.761-2.908 0-1.649.503-2.795 1.052-3.297.421-.389 1.164-.744 2.278-.744 1.131 0 1.827.291 2.279.761.483.5.841 1.276.841 3.136 0 1.616-.405 2.618-.972 3.2-.467.466-1.276.757-2.278.757zM487.41 37.43c-.76-.193-1.504-.338-2.586-.338-1.374 0-2.295.323-2.941.953-.793.743-1.245 2.184-1.245 4.008 0 2.069.52 3.2 1.148 3.735.563.467 1.39.726 2.666.726 1.245 0 2.066-.272 2.345-.453.097-.063.402-.42.564-.596h.049l.227.854h.729V33.148h-.953l-.003 4.282zm-5.803 4.557c0-1.746.403-2.859.952-3.377.52-.484 1.263-.712 2.395-.712 1.002 0 1.843.162 2.456.242v7c-.81.388-1.795.549-2.699.549-.953 0-1.761-.211-2.182-.582-.502-.437-.922-1.341-.922-3.12zM491.322 41.858c0 3.088 1.081 4.64 4.104 4.64 1.243 0 2.407-.227 3.056-.388l.063-.776c-.629.098-1.695.307-3.006.307-2.536 0-3.248-1.34-3.248-3.814h6.609v-1.114c0-2.327-.855-3.637-3.441-3.637-2.845-.002-4.137 1.613-4.137 4.782zm4.04-4.008c1.954 0 2.618.922 2.618 2.927v.323h-5.656c.129-2.151.952-3.25 3.038-3.25z"/>
    </g>
  </g>
  <g fill="#FFF">
    <path d="M296.651 161.998h-7.363v-12.005h7.331l-.224.849h-6.179v4.609h5.442l-.208.833h-5.234v4.865h6.707l-.272.849zM300.249 166.368h-.928v-13.35h.704l.224.8h.064c.128-.176.464-.512.561-.56.272-.177 1.313-.433 2.401-.433 1.232 0 1.985.208 2.561.721.624.528 1.136 1.633 1.136 3.665 0 1.905-.496 3.249-1.248 4.002-.592.576-1.489.929-2.85.929-1.072 0-1.905-.145-2.625-.305v4.531zm4.866-12.181c-.448-.368-1.152-.544-2.177-.544-.929 0-1.889.16-2.689.528v6.931c.625.096 1.489.24 2.465.24 1.12 0 1.841-.192 2.337-.688.544-.512.96-1.633.96-3.361 0-1.697-.384-2.642-.896-3.106zM310.824 150.441c-.096.08-.271.112-.448.112-.224 0-.368-.032-.448-.128-.08-.08-.128-.24-.128-.448 0-.24.063-.417.192-.48.048-.064.208-.112.416-.112.191 0 .336.032.416.112.112.096.145.256.145.464s-.032.4-.145.48zm-.928 11.557v-8.979h.928v8.979h-.928zM316.169 162.11c-.896 0-1.985-.128-2.625-.288v-.784c.656.128 1.648.271 2.625.271 2.017 0 2.528-.576 2.528-1.713 0-.336-.08-.672-.271-.928-.288-.32-.896-.528-1.984-.784-1.266-.305-2.018-.545-2.465-1.104-.289-.337-.4-.864-.4-1.377 0-1.648.943-2.625 3.329-2.625.992 0 1.856.128 2.401.24v.769c-.689-.112-1.441-.208-2.385-.208-1.89 0-2.434.64-2.434 1.776 0 .336.064.672.271.912.272.32.833.544 2.049.816 1.313.305 2.002.576 2.338.961.32.367.464.88.464 1.488 0 1.586-.719 2.578-3.441 2.578zM325.817 152.843c2.562 0 3.41 1.296 3.41 3.601v1.104h-6.547c0 2.449.704 3.778 3.217 3.778 1.297 0 2.354-.208 2.978-.305l-.063.769c-.641.16-1.793.384-3.025.384-2.993 0-4.065-1.536-4.065-4.594-.001-3.137 1.279-4.737 4.095-4.737zm-3.104 3.985h5.602v-.32c0-1.984-.656-2.897-2.593-2.897-2.065-.001-2.881 1.088-3.009 3.217zM344.125 161.998v-5.555c0-1.184-.208-1.809-.592-2.177-.385-.368-1.057-.544-1.809-.544-1.153 0-2.098.384-2.737.721v7.555h-.929v-6.146c0-.784-.128-1.265-.496-1.616-.384-.368-1.137-.513-1.873-.513-1.168 0-2.097.336-2.769.608v7.667h-.929v-8.979h.688l.24.944h.08l.479-.528c.417-.224 1.409-.544 2.577-.544 1.152 0 1.889.256 2.385.736.209.191.32.384.4.528h.08l.496-.625c.513-.288 1.537-.64 2.705-.64 1.057 0 1.729.24 2.209.704.513.48.721 1.297.721 2.529v5.874h-.926zM349.336 150.441c-.096.08-.272.112-.448.112-.224 0-.368-.032-.448-.128-.08-.08-.128-.24-.128-.448 0-.24.064-.417.192-.48.048-.064.208-.112.416-.112.192 0 .336.032.416.112.112.096.145.256.145.464s-.033.4-.145.48zm-.929 11.557v-8.979h.929v8.979h-.929zM359.386 161.118c-.624.64-1.536 1.072-3.121 1.072-1.488 0-2.433-.416-3.025-1.089-.512-.592-.977-1.648-.977-3.377 0-1.745.465-3.153 1.281-3.922.64-.608 1.633-1.024 3.057-1.024 1.361 0 2.306.384 2.865.944.656.688 1.057 1.729 1.057 3.586-.001 1.761-.449 3.089-1.137 3.81zm-.768-.48c.56-.576.96-1.568.96-3.17 0-1.84-.353-2.608-.832-3.104-.448-.465-1.137-.753-2.257-.753-1.104 0-1.841.353-2.257.736-.545.496-1.041 1.633-1.041 3.266 0 1.345.305 2.369.752 2.881.433.496 1.121.896 2.417.896.994 0 1.793-.288 2.258-.752zM367.897 153.803h-3.186v5.986c0 1.217.561 1.473 1.568 1.473.736 0 1.409-.112 1.761-.16l-.08.784c-.479.097-1.232.208-1.921.208-1.601 0-2.257-.576-2.257-2.129v-6.162h-1.856l.128-.784h1.729v-1.873l.929-.24v2.113h3.361l-.176.784zM371.4 150.441c-.096.08-.272.112-.448.112-.224 0-.368-.032-.448-.128-.08-.08-.128-.24-.128-.448 0-.24.064-.417.192-.48.048-.064.208-.112.416-.112.192 0 .336.032.416.112.112.096.145.256.145.464s-.032.4-.145.48zm-.928 11.557v-8.979h.929v8.979h-.929zM376.265 154.331c-.656.608-.992 1.744-.992 3.281 0 1.473.304 2.465.928 3.041.528.496 1.313.688 2.289.688 1.137 0 2.049-.176 2.673-.272v.721c-.624.176-1.553.4-2.816.4-1.265 0-2.226-.288-2.85-.881-.832-.769-1.2-2.017-1.2-3.585 0-1.793.432-3.17 1.28-3.954.688-.672 1.696-.992 3.041-.992 1.072 0 1.953.145 2.545.256v.801c-.56-.08-1.393-.208-2.448-.208-1.09 0-1.939.208-2.45.704zM385.736 162.11c-.896 0-1.984-.128-2.625-.288v-.784c.656.128 1.649.271 2.625.271 2.018 0 2.529-.576 2.529-1.713 0-.336-.08-.672-.271-.928-.288-.32-.896-.528-1.985-.784-1.265-.305-2.017-.545-2.465-1.104-.288-.337-.4-.864-.4-1.377 0-1.648.944-2.625 3.329-2.625.993 0 1.857.128 2.401.24v.769c-.688-.112-1.44-.208-2.385-.208-1.889 0-2.434.64-2.434 1.776 0 .336.064.672.272.912.272.32.832.544 2.049.816 1.313.305 2.001.576 2.337.961.32.367.464.88.464 1.488.001 1.586-.719 2.578-3.441 2.578z"/>
  </g>
  <g fill="#FFF">
    <path d="M438.107 157.1v4.898h-.928v-12.005h4.577c1.04 0 1.81.16 2.257.513.608.464.992 1.36.992 2.801 0 1.408-.512 2.577-1.248 3.105-.721.512-1.633.688-3.377.688h-2.273zm5.219-5.89c-.4-.305-1.057-.4-1.938-.4h-3.281v5.442h2.257c1.425 0 2.272-.097 2.705-.416.544-.385.977-1.201.977-2.497 0-1.121-.288-1.809-.72-2.129zM453.934 161.118c-.624.64-1.536 1.072-3.121 1.072-1.488 0-2.433-.416-3.025-1.089-.512-.592-.977-1.648-.977-3.377 0-1.745.465-3.153 1.281-3.922.641-.608 1.633-1.024 3.057-1.024 1.361 0 2.305.384 2.865.944.656.688 1.057 1.729 1.057 3.586-.001 1.761-.449 3.089-1.137 3.81zm-.768-.48c.56-.576.96-1.568.96-3.17 0-1.84-.353-2.608-.833-3.104-.447-.465-1.136-.753-2.256-.753-1.105 0-1.842.353-2.258.736-.544.496-1.04 1.633-1.04 3.266 0 1.345.304 2.369.753 2.881.432.496 1.12.896 2.416.896.992 0 1.793-.288 2.258-.752zM458.875 149.033v10.836c0 1.152.48 1.425 1.232 1.425.528 0 .961-.064 1.281-.112v.736c-.385.08-.944.176-1.553.176-1.297 0-1.889-.624-1.889-2.129v-10.932h.929zM465.275 166.384h-.975l1.76-4.386h-.735l-3.362-8.979h1.009l2.993 8.163h.416l3.17-8.163h1.008l-5.284 13.365zM484.896 161.998v-5.555c0-1.184-.208-1.809-.592-2.177-.385-.368-1.057-.544-1.809-.544-1.153 0-2.098.384-2.737.721v7.555h-.929v-6.146c0-.784-.128-1.265-.496-1.616-.384-.368-1.137-.513-1.873-.513-1.168 0-2.097.336-2.769.608v7.667h-.929v-8.979h.688l.24.944h.08l.479-.528c.416-.224 1.409-.544 2.577-.544 1.152 0 1.889.256 2.385.736.209.191.32.384.4.528h.08l.496-.625c.513-.288 1.537-.64 2.705-.64 1.057 0 1.729.24 2.209.704.513.48.721 1.297.721 2.529v5.874h-.926zM494.908 161.998l-.224-.977h-.08c-.128.176-.353.48-.433.544-.271.192-1.232.593-2.785.593-1.248 0-1.921-.305-2.289-.721-.319-.352-.512-.912-.512-1.744 0-1.009.353-1.617.704-1.841.688-.513 2.513-.849 5.378-1.104 0-1.553-.191-2.193-.496-2.562-.288-.336-.88-.496-1.889-.496-1.088 0-2.48.257-3.089.368v-.752c.672-.176 2.001-.448 3.281-.448 1.232 0 2.017.208 2.449.704.399.433.656 1.104.656 2.865v5.57h-.671zm-.24-4.53c-2.08.129-4.401.465-4.77.865-.24.208-.4.607-.4 1.28 0 .576.145.992.368 1.248.272.288.849.513 1.825.513 1.36 0 2.497-.385 2.977-.624v-3.282zM503.564 153.803h-3.186v5.986c0 1.217.561 1.473 1.568 1.473.736 0 1.409-.112 1.761-.16l-.08.784c-.479.097-1.232.208-1.92.208-1.602 0-2.258-.576-2.258-2.129v-6.162h-1.856l.128-.784h1.729v-1.873l.929-.24v2.113h3.361l-.176.784zM512.462 161.998v-5.538c0-1.152-.208-1.841-.608-2.209-.4-.353-.992-.544-1.953-.544-1.104 0-2.192.304-2.849.624v7.667h-.929v-12.965h.929v4.93h.063c.048-.08.433-.513.496-.544.417-.257 1.473-.528 2.594-.528 1.296 0 1.969.24 2.465.704.496.496.736 1.313.736 2.545v5.858h-.944z"/>
  </g>
</svg>
