<svg xmlns="http://www.w3.org/2000/svg" width="612" height="190">
  <g fill="#74A464">
    <path d="M259.182 35.216l-21.377-21.377-121.111-.002 21.377 21.377h.019l30.995 30.995 12.942-6.48-24.514-24.515 101.669.002zM404.788 35.216l-21.377-21.377-121.111-.003 21.379 21.377h.021l30.712 30.714 12.946-6.48-24.234-24.233 101.664.002zM548.249 35.218l-21.386-21.381H405.741l21.381 21.381h.026l26.619 26.624 12.945-6.479-20.145-20.145h101.682zM204.88 99.361l22.437-22.437-12.944-6.478-28.915 28.915h-.054l-21.377 21.375 121.111-.004 21.375-21.375-101.633.004zM495.425 99.359l23.616-23.616-12.945-6.48-30.094 30.096h-.032l-21.381 21.377h121.122l21.384-21.377h-101.67z"/>
    <path d="M132.586 55.072h366.46v24.435h-366.46z"/>
  </g>
  <path fill="#377C21" d="M135.529 58.346h227.83v24.435h-227.83z"/>
  <path fill="#377C21" d="M9.057 94.999l85.516 85.519 85.516-85.516L94.57 9.483 9.057 94.999zM378.266 92.034l-51.947 51.949-21.355-10.688 51.951-51.949 21.351 10.688z"/>
  <path fill="#377C21" d="M476.347 180.518l48.866-48.869H213.685l-48.865 48.869h311.527zM9.057 94.999l85.516 85.519 85.516-85.516L94.57 9.483 9.057 94.999zM289.988 46.129H135.529l48.87 48.867h154.454l-48.865-48.867zM433.416 46.129h-139.13l48.867 48.867h139.129l-48.866-48.867z"/>
  <path fill="#74A464" d="M558.813 46.129H437.716l48.865 48.867h121.101l-48.869-48.867z"/>
  <g fill="#FFF">
    <path d="M192.813 76.338v-1.539h6.671V54.937l-6.671 1.207v-1.539l8.391-1.479V74.8h6.038v1.539h-14.429zM241.602 76.338h-15.545v-1.812c.271-3.32 2.082-5.465 7.396-8.059 3.381-1.689 4.859-2.564 5.646-3.592.664-.936.845-2.143.845-3.321 0-3.11-1.146-4.528-6.066-4.528-2.687 0-5.583.664-6.913.967v-1.571c1.78-.481 4.558-1.028 7.272-1.028 5.765 0 7.577 1.873 7.577 5.948 0 2.054-.453 3.472-1.146 4.347-1.177 1.539-3.502 2.717-6.46 4.165-5.523 2.688-6.398 4.589-6.46 6.853h14.309l-.455 1.631zM273.491 63.51l-2.446 1.146v.121l2.564.905c1.028.847 1.84 2.778 1.84 4.739 0 4.346-2.474 6.219-8.603 6.219-2.534 0-4.769-.332-6.099-.633v-1.539c1.39.241 3.833.604 6.099.604 5.614 0 6.792-1.84 6.792-4.647 0-4.015-2.688-4.769-6.099-4.769h-4.316v-1.571h3.924c2.958 0 6.066-.755 6.066-4.679 0-2.897-1.086-4.406-5.674-4.406-2.416 0-4.739.481-6.31.813v-1.511c1.631-.422 4.135-.905 6.611-.905 5.433 0 7.154 1.903 7.154 5.767.005 2.111-.93 3.801-1.503 4.346zM355.344 76.338h-1.662V69.91h-11.623v-1.752l9.994-14.459h3.289V68.4h5.072l-.455 1.512h-4.62l.005 6.426zm-1.659-7.938V55.178h-.815l-8.844 12.829v.393h9.659zM383.756 76.639c-2.079 0-4.281-.301-5.854-.543v-1.601c1.446.211 3.683.513 5.945.513 5.226 0 7.036-1.479 7.036-5.222 0-3.984-1.267-5.01-5.917-5.01-2.143 0-5.041.452-6.368.633v-11.71h13.403v1.539h-11.83v8.512c1.269-.211 3.017-.543 5.342-.543 5.254 0 7.187 1.39 7.187 6.337-.008 4.772-2.21 7.095-8.944 7.095zM413.415 65.291h.148l.963-.996c1.302-.483 3.651-1.146 6.4-1.146 5.343 0 7.124 2.232 7.124 6.428 0 4.377-2.267 7.063-8.089 7.063-6.338 0-8.304-4.014-8.304-10.687 0-4.195 1.179-7.215 2.959-9.114 2.084-2.175 5.404-3.532 11.229-3.593l.604 1.602c-5.675.03-8.756 1.207-10.563 3.141-1.417 1.505-2.353 4.07-2.471 7.302zm6.939-.574c-2.686 0-5.159.664-6.939 1.356.059 6.25 2.021 8.996 6.638 8.996 4.318 0 6.249-1.689 6.249-5.343-.001-3.499-1.421-5.009-5.948-5.009zM490.694 55.722V55.3h-13.608l.483-1.602h15.061v1.994l-10.807 20.646h-1.961l10.832-20.616zM513.621 65.833l2.049-1.119v-.15l-1.81-.936c-.784-.784-1.541-1.903-1.541-3.984 0-3.652 2.293-6.279 7.604-6.279 5.284 0 7.245 2.354 7.245 5.733 0 2.144-.907 3.44-1.752 4.347l-1.868 1.119v.15l2.291.847c1.211.966 1.902 2.507 1.902 4.558 0 3.744-2.325 6.521-8.271 6.521-5.609 0-7.938-2.234-7.938-6.066.005-1.934.789-3.535 2.089-4.741zm-.302 4.528c0 3.019 1.752 4.738 6.338 4.738 4.678 0 6.31-2.201 6.31-4.799 0-4.137-2.627-4.467-9.357-5.193-1.664 1.088-3.291 2.568-3.291 5.254zm.783-10.867c0 3.713 2.357 4.226 8.271 4.769 1.903-1.177 2.989-2.718 2.989-4.95 0-2.898-1.629-4.406-5.611-4.406-4.169.001-5.649 2.052-5.649 4.587zM560.417 64.777h-.148l-.938.996c-1.237.514-3.562 1.119-6.156 1.119-5.401 0-7.306-2.174-7.306-6.34 0-4.77 2.991-7.154 8.058-7.154 5.917 0 8.24 3.291 8.24 10.475 0 4.316-1.175 7.486-2.959 9.356-1.991 2.175-5.399 3.472-11.259 3.593l-.576-1.662c5.586-.029 8.845-1.146 10.596-3.049 1.362-1.537 2.358-4.074 2.448-7.334zm-6.85.543c2.717 0 5.163-.633 6.853-1.267-.059-6.399-1.9-9.085-6.605-9.085-4.228 0-6.191 2.021-6.191 5.465-.003 3.378 1.504 4.887 5.943 4.887z"/>
    <g>
      <path d="M198.351 113.971c-.619.527-1.752.77-3.366.77-1.403 0-2.536-.182-3.291-.361v-.785c.89.152 1.886.332 3.306.332 1.554 0 2.383-.24 2.702-.543.271-.273.513-.77.513-1.527 0-.615-.121-1.1-.347-1.354-.845-.922-4.89-1.482-5.749-2.582-.347-.422-.453-1.221-.453-1.84 0-.83.241-1.646.754-2.141.483-.469 1.448-.848 3.306-.848 1.237 0 2.263.105 3.034.238v.768c-.95-.105-1.752-.211-3.155-.211s-2.234.242-2.566.637c-.241.256-.483.779-.483 1.479 0 .576.106 1.055.332 1.344.664.846 4.995 1.598 5.765 2.578.377.453.482 1.238.482 1.889.002.903-.315 1.749-.784 2.157zM202.587 118.693h-.875v-12.588h.664l.211.758h.061c.121-.166.438-.484.528-.529.256-.164 1.239-.406 2.265-.406 1.161 0 1.873.201 2.416.682.588.494 1.071 1.539 1.071 3.455 0 1.797-.467 3.066-1.176 3.771-.558.549-1.403.875-2.688.875-1.011 0-1.795-.135-2.474-.285l-.003 4.267zm4.59-11.486c-.422-.346-1.086-.512-2.054-.512-.875 0-1.782.15-2.537.498v6.533c.588.092 1.403.227 2.325.227 1.056 0 1.737-.184 2.203-.65.513-.486.905-1.541.905-3.172.003-1.594-.359-2.486-.842-2.924zM215.125 105.941c2.416 0 3.215 1.219 3.215 3.395v1.037h-6.174c0 2.311.666 3.563 3.034 3.563 1.222 0 2.218-.199 2.806-.291l-.061.729c-.604.146-1.689.361-2.853.361-2.823 0-3.834-1.451-3.834-4.336.003-2.952 1.209-4.458 3.867-4.458zm-2.929 3.758h5.282v-.307c0-1.871-.618-2.734-2.443-2.734-1.949.006-2.719 1.035-2.839 3.041zM222.363 107.344c-.618.576-.935 1.648-.935 3.098 0 1.393.287 2.326.875 2.869.498.467 1.237.648 2.157.648 1.073 0 1.931-.166 2.521-.256v.678c-.588.164-1.465.377-2.657.377-1.191 0-2.099-.271-2.687-.828-.785-.727-1.131-1.906-1.131-3.383 0-1.688.407-2.988 1.209-3.725.648-.637 1.599-.939 2.868-.939 1.011 0 1.84.135 2.4.24v.754c-.528-.072-1.312-.195-2.31-.195-1.026-.002-1.827.193-2.31.662zM230.313 103.676c-.091.076-.256.105-.422.105-.211 0-.347-.029-.422-.123-.076-.074-.121-.225-.121-.42 0-.227.06-.393.181-.455.045-.059.196-.105.393-.105.181 0 .316.033.392.105.105.092.136.244.136.438-.002.199-.032.379-.137.455zm-.875 10.896v-8.469h.875v8.469h-.875zM238.897 114.572l-.211-.922h-.076c-.121.168-.332.453-.407.514-.256.182-1.164.561-2.627.561-1.176 0-1.81-.287-2.157-.678-.302-.33-.483-.861-.483-1.646 0-.949.332-1.523.664-1.738.649-.484 2.371-.799 5.071-1.037 0-1.467-.181-2.07-.468-2.416-.271-.314-.83-.469-1.782-.469-1.025 0-2.338.24-2.913.346v-.707c.633-.166 1.885-.422 3.094-.422 1.164 0 1.903.195 2.31.664.377.406.619 1.043.619 2.703v5.254l-.634-.007zm-.226-4.269c-1.961.125-4.15.438-4.498.816-.226.195-.377.572-.377 1.211 0 .543.136.938.347 1.176.256.271.799.486 1.719.486 1.285 0 2.355-.363 2.808-.592l.001-3.097zM243.542 102.348v10.217c0 1.086.453 1.346 1.164 1.346.498 0 .905-.061 1.207-.107v.693c-.362.072-.89.166-1.463.166-1.222 0-1.782-.584-1.782-2.012v-10.303h.874zM252.066 106.846h-3.004v5.645c0 1.146.53 1.391 1.48 1.391.694 0 1.327-.105 1.661-.152l-.077.74c-.453.09-1.162.195-1.811.195-1.508 0-2.126-.543-2.126-2.012v-5.807h-1.752l.121-.742h1.631v-1.764l.875-.225v1.99h3.17l-.168.741zM256.348 118.709h-.92l1.661-4.139h-.694l-3.17-8.469h.951l2.823 7.697h.392l2.989-7.697h.95l-4.982 12.608zM266.877 114.572v-.77h3.335v-9.928l-3.335.602v-.771l4.195-.74v10.836h3.017v.768l-7.212.003z"/>
    </g>
    <g>
      <path d="M491.074 113.971c-.616.527-1.752.77-3.366.77-1.403 0-2.536-.182-3.288-.361v-.785c.888.152 1.885.332 3.303.332 1.556 0 2.386-.24 2.703-.543.273-.273.515-.77.515-1.527 0-.615-.123-1.1-.352-1.354-.845-.922-4.89-1.482-5.749-2.582-.345-.422-.45-1.221-.45-1.84 0-.83.239-1.646.754-2.141.485-.469 1.45-.848 3.306-.848 1.235 0 2.265.105 3.034.238v.768c-.95-.105-1.752-.211-3.155-.211-1.402 0-2.232.242-2.564.637-.236.256-.482.779-.482 1.479 0 .576.104 1.055.332 1.344.666.846 4.995 1.598 5.767 2.578.379.453.484 1.238.484 1.889-.004.903-.322 1.749-.792 2.157zM495.313 118.693h-.875v-12.588h.666l.216.758h.06c.121-.166.438-.484.526-.529.256-.164 1.235-.406 2.265-.406 1.161 0 1.873.201 2.416.682.586.494 1.068 1.539 1.068 3.455 0 1.797-.47 3.066-1.176 3.771-.563.549-1.401.875-2.688.875-1.013 0-1.793-.135-2.472-.285l-.006 4.267zm4.587-11.486c-.427-.346-1.09-.512-2.056-.512-.875 0-1.777.15-2.536.498v6.533c.588.092 1.403.227 2.325.227 1.058 0 1.734-.184 2.2-.65.511-.486.905-1.541.905-3.172.009-1.594-.352-2.486-.838-2.924zM507.846 105.941c2.416 0 3.215 1.219 3.215 3.395v1.037h-6.174c0 2.311.668 3.563 3.034 3.563 1.223 0 2.218-.199 2.811-.291l-.059.729c-.604.146-1.689.361-2.853.361-2.823 0-3.832-1.451-3.832-4.336-.004-2.952 1.205-4.458 3.858-4.458zm-2.924 3.758h5.281v-.307c0-1.871-.618-2.734-2.445-2.734-1.945.006-2.718 1.035-2.836 3.041zM515.086 107.344c-.618.576-.935 1.648-.935 3.098 0 1.393.286 2.326.875 2.869.491.467 1.232.648 2.152.648 1.073 0 1.933-.166 2.521-.256v.678c-.586.164-1.465.377-2.655.377-1.188 0-2.097-.271-2.685-.828-.782-.727-1.134-1.906-1.134-3.383 0-1.688.408-2.988 1.214-3.725.646-.637 1.599-.939 2.864-.939 1.015 0 1.84.135 2.4.24v.754c-.53-.072-1.313-.195-2.309-.195-1.023-.002-1.825.193-2.308.662zM523.036 103.676c-.093.076-.255.105-.421.105-.215 0-.349-.029-.42-.123-.075-.074-.125-.225-.125-.42 0-.227.061-.393.182-.455.045-.059.197-.105.396-.105.186 0 .315.033.396.105.106.092.136.244.136.438-.008.199-.036.379-.144.455zm-.873 10.896v-8.469h.873v8.469h-.873zM531.623 114.572l-.213-.922h-.075c-.121.168-.33.453-.405.514-.257.182-1.162.561-2.627.561-1.179 0-1.813-.287-2.159-.678-.304-.33-.483-.861-.483-1.646 0-.949.332-1.523.666-1.738.646-.484 2.37-.799 5.072-1.037 0-1.467-.183-2.07-.471-2.416-.272-.314-.83-.469-1.779-.469-1.027 0-2.342.24-2.913.346v-.707c.632-.166 1.886-.422 3.095-.422 1.162 0 1.902.195 2.306.664.38.406.619 1.043.619 2.703v5.254l-.633-.007zm-.227-4.269c-1.963.125-4.152.438-4.503.816-.225.195-.375.572-.375 1.211 0 .543.138.938.347 1.176.257.271.8.486 1.722.486 1.286 0 2.354-.363 2.812-.592l-.003-3.097zM536.265 102.348v10.217c0 1.086.453 1.346 1.162 1.346.495 0 .905-.061 1.209-.107v.693c-.36.072-.893.166-1.466.166-1.22 0-1.779-.584-1.779-2.012v-10.303h.874zM544.79 106.846h-3.004v5.645c0 1.146.523 1.391 1.479 1.391.691 0 1.327-.105 1.661-.152l-.075.744c-.448.09-1.159.195-1.811.195-1.506 0-2.124-.543-2.124-2.008v-5.811h-1.752l.118-.742h1.634v-1.762l.87-.225v1.992h3.174l-.17.733zM549.072 118.709h-.923l1.661-4.139h-.693l-3.17-8.469h.95l2.821 7.697h.396l2.988-7.697h.946l-4.976 12.608zM565.576 108.158l-1.218.57v.061l1.283.455c.513.42.92 1.391.92 2.371 0 2.174-1.235 3.107-4.302 3.107-1.267 0-2.381-.166-3.047-.316v-.768c.694.119 1.918.303 3.047.303 2.813 0 3.396-.922 3.396-2.322 0-2.014-1.345-2.385-3.047-2.385h-2.159v-.781h1.959c1.48 0 3.034-.381 3.034-2.34 0-1.449-.545-2.201-2.834-2.201-1.213 0-2.373.24-3.157.406v-.764c.814-.211 2.069-.451 3.306-.451 2.718 0 3.575.947 3.575 2.883.001 1.055-.467 1.903-.756 2.172z"/>
    </g>
    <g>
      <path d="M301.815 29.054l-1.418-3.863h-5.523l-1.525 3.863h-.92l4.527-11.32h1.616l4.226 11.32h-.983zm-3.849-10.49h-.482l-2.325 5.84h4.965l-2.158-5.84zM311.165 29.054l-.224-.904h-.095c-.028.06-.393.527-.418.543-.425.211-1.418.467-2.477.467-1.22 0-1.854-.256-2.323-.739-.438-.468-.694-1.177-.694-2.341v-5.492h.875v5.164c0 1.146.211 1.734.559 2.099.361.377.993.528 1.917.528.979 0 1.964-.256 2.643-.559v-7.231h.875v8.467l-.638-.002zM317.333 25.176l-2.446 3.879h-.997l2.765-4.271-2.582-4.196h.998l2.277 3.789h.692l2.476-3.789h.98l-2.775 4.196 2.687 4.271h-1.013l-2.385-3.879h-.677zM324.227 29.009c-.073.091-.271.121-.453.121-.226 0-.381-.045-.47-.137-.093-.09-.122-.241-.122-.467 0-.228.094-.408.183-.483.093-.046.227-.091.438-.091.183 0 .362.031.438.105.104.076.148.256.148.469.004.196-.042.378-.162.483zM338.26 29.054l-6.509-10.475h-.273v10.475h-.827v-11.32h1.568l6.443 10.385h.291V17.734h.83v11.32h-1.523zM349.435 28.225c-.588.604-1.446 1.011-2.939 1.011-1.402 0-2.293-.392-2.854-1.025-.483-.559-.923-1.557-.923-3.186 0-1.644.438-2.972 1.211-3.697.604-.573 1.541-.965 2.884-.965 1.286 0 2.174.361 2.702.89.618.649.995 1.629.995 3.381-.005 1.658-.428 2.912-1.076 3.591zm-.724-.452c.525-.544.905-1.48.905-2.99 0-1.736-.332-2.461-.782-2.929-.423-.438-1.073-.709-2.127-.709-1.041 0-1.737.332-2.13.694-.511.468-.98 1.539-.98 3.08 0 1.267.289 2.234.712 2.717.404.468 1.058.846 2.279.846.932 0 1.685-.272 2.123-.709zM359.149 16.754h.892v12.3h-.679l-.213-.799h-.048c-.146.166-.435.498-.523.559-.257.165-1.03.422-2.191.422-1.189 0-1.959-.242-2.487-.68-.588-.498-1.071-1.556-1.071-3.486 0-1.707.421-3.05 1.164-3.744.6-.588 1.463-.89 2.745-.89 1.013 0 1.705.136 2.412.317v-3.999h-.001zm-4.559 11.169c.396.347 1.148.543 2.036.543.849 0 1.767-.15 2.521-.514v-6.535c-.573-.075-1.355-.227-2.291-.227-1.058 0-1.753.211-2.234.664-.511.483-.889 1.526-.889 3.155-.002 1.662.391 2.507.857 2.914zM366.659 20.422c2.413 0 3.213 1.222 3.213 3.396v1.041H363.7c0 2.311.668 3.563 3.034 3.563 1.222 0 2.216-.196 2.806-.287l-.058.724c-.604.151-1.688.362-2.854.362-2.822 0-3.831-1.448-3.831-4.332-.002-2.959 1.205-4.467 3.862-4.467zm-2.927 3.758h5.28v-.302c0-1.873-.616-2.732-2.444-2.732-1.948 0-2.714 1.026-2.836 3.034z"/>
    </g>
    <g>
      <path d="M447.417 29.054l-1.418-3.863h-5.522l-1.524 3.863h-.92l4.528-11.32h1.615l4.229 11.32h-.988zm-3.849-10.49h-.484l-2.323 5.84h4.967l-2.16-5.84zM456.768 29.054l-.225-.904h-.092c-.03.06-.396.527-.419.543-.424.211-1.418.467-2.476.467-1.22 0-1.854-.256-2.321-.739-.438-.468-.693-1.177-.693-2.341v-5.492h.875v5.164c0 1.146.211 1.734.556 2.099.366.377.998.528 1.92.528.98 0 1.961-.256 2.645-.559v-7.231h.875v8.467l-.645-.002zM462.935 25.176l-2.443 3.879h-.996l2.763-4.271-2.581-4.196h.995l2.282 3.789h.689l2.479-3.789h.979l-2.776 4.196 2.686 4.271h-1.011l-2.384-3.879h-.682zM469.828 29.009c-.075.091-.273.121-.454.121-.225 0-.377-.045-.468-.137-.091-.09-.123-.241-.123-.467 0-.228.093-.408.182-.483.092-.046.226-.091.438-.091.181 0 .359.031.437.105.106.076.149.256.149.469.005.196-.038.378-.161.483zM483.861 29.054l-6.51-10.475h-.271v10.475h-.832v-11.32h1.571l6.443 10.385h.289V17.734h.829v11.32h-1.519zM495.037 28.225c-.586.604-1.45 1.011-2.941 1.011-1.401 0-2.291-.392-2.852-1.025-.484-.559-.922-1.557-.922-3.186 0-1.644.438-2.972 1.209-3.697.604-.573 1.541-.965 2.883-.965 1.284 0 2.175.361 2.702.89.619.649.998 1.629.998 3.381-.004 1.658-.428 2.912-1.077 3.591zm-.724-.452c.528-.544.905-1.48.905-2.99 0-1.736-.332-2.461-.782-2.929-.422-.438-1.071-.709-2.127-.709-1.038 0-1.734.332-2.129.694-.511.468-.979 1.539-.979 3.08 0 1.267.287 2.234.709 2.717.405.468 1.056.846 2.28.846.929 0 1.685-.272 2.123-.709zM504.749 16.754h.893v12.3h-.677l-.216-.799h-.045c-.146.166-.436.498-.526.559-.256.165-1.027.422-2.189.422-1.191 0-1.959-.242-2.488-.68-.587-.498-1.069-1.556-1.069-3.486 0-1.707.42-3.05 1.161-3.744.604-.588 1.466-.89 2.746-.89 1.013 0 1.704.136 2.411.317v-3.999h-.001zm-4.554 11.169c.393.347 1.145.543 2.035.543.845 0 1.765-.15 2.519-.514v-6.535c-.573-.075-1.355-.227-2.293-.227-1.056 0-1.752.211-2.23.664-.511.483-.892 1.526-.892 3.155-.002 1.662.39 2.507.861 2.914zM512.262 20.422c2.415 0 3.215 1.222 3.215 3.396v1.041h-6.172c0 2.311.666 3.563 3.032 3.563 1.22 0 2.217-.196 2.808-.287l-.061.724c-.599.151-1.685.362-2.851.362-2.823 0-3.829-1.448-3.829-4.332-.007-2.959 1.2-4.467 3.858-4.467zm-2.929 3.758h5.281v-.302c0-1.873-.618-2.732-2.445-2.732-1.944 0-2.714 1.026-2.836 3.034z"/>
    </g>
    <g>
      <path d="M156.208 29.054l-1.418-3.863h-5.523l-1.525 3.863h-.92l4.527-11.32h1.616l4.226 11.32h-.983zm-3.848-10.49h-.482l-2.325 5.84h4.965l-2.158-5.84zM165.559 29.054l-.227-.904h-.09c-.03.06-.392.527-.422.543-.422.211-1.418.467-2.476.467-1.222 0-1.855-.256-2.323-.739-.437-.468-.694-1.177-.694-2.341v-5.492h.875v5.164c0 1.146.211 1.734.558 2.099.362.377.996.528 1.918.528.98 0 1.963-.256 2.642-.559v-7.231h.875v8.467l-.636-.002zM171.727 25.176l-2.446 3.879h-.995l2.762-4.271-2.582-4.196h.996l2.278 3.789h.694l2.476-3.789h.98l-2.778 4.196 2.688 4.271h-1.011l-2.383-3.879h-.679zM178.62 29.009c-.076.091-.271.121-.453.121-.226 0-.377-.045-.468-.137-.09-.09-.121-.241-.121-.467 0-.228.09-.408.181-.483.09-.046.226-.091.438-.091.181 0 .362.031.438.105.105.076.151.256.151.469 0 .196-.045.378-.166.483zM192.651 29.054l-6.506-10.475h-.271v10.475h-.83v-11.32h1.569l6.445 10.385h.287V17.734h.83v11.32h-1.524zM203.828 28.225c-.588.604-1.448 1.011-2.943 1.011-1.403 0-2.295-.392-2.853-1.025-.483-.559-.92-1.557-.92-3.186 0-1.644.438-2.972 1.207-3.697.603-.573 1.539-.965 2.883-.965 1.282 0 2.172.361 2.702.89.619.649.996 1.629.996 3.381-.001 1.658-.423 2.912-1.072 3.591zm-.726-.452c.528-.544.905-1.48.905-2.99 0-1.736-.332-2.461-.785-2.929-.422-.438-1.071-.709-2.127-.709-1.041 0-1.737.332-2.129.694-.513.468-.98 1.539-.98 3.08 0 1.267.287 2.234.709 2.717.407.468 1.056.846 2.28.846.936 0 1.69-.272 2.127-.709zM213.543 16.754h.892v12.3h-.679l-.211-.799h-.045c-.151.166-.438.498-.528.559-.256.165-1.026.422-2.188.422-1.193 0-1.963-.242-2.491-.68-.588-.498-1.073-1.556-1.073-3.486 0-1.707.422-3.05 1.164-3.744.604-.588 1.463-.89 2.748-.89 1.011 0 1.705.136 2.414.317l-.003-3.999zm-4.558 11.169c.393.347 1.146.543 2.037.543.845 0 1.765-.15 2.519-.514v-6.535c-.573-.075-1.357-.227-2.293-.227-1.056 0-1.752.211-2.234.664-.513.483-.89 1.526-.89 3.155.001 1.662.394 2.507.861 2.914zM221.053 20.422c2.416 0 3.215 1.222 3.215 3.396v1.041h-6.174c0 2.311.666 3.563 3.034 3.563 1.222 0 2.218-.196 2.806-.287l-.06.724c-.604.151-1.689.362-2.853.362-2.823 0-3.834-1.448-3.834-4.332.002-2.959 1.209-4.467 3.866-4.467zm-2.929 3.758h5.282v-.302c0-1.873-.618-2.732-2.444-2.732-1.948 0-2.717 1.026-2.838 3.034z"/>
    </g>
    <g>
      <path d="M51.779 68.447h3.051v38.793h-3.051zM92.742 107.24L70.449 71.344h-.931v35.896h-2.845V68.447h5.379l22.086 35.584h.982V68.447h2.845v38.793h-5.223zM135.72 71.189h-13.708v36.051h-3V71.189h-14.016l.724-2.742h30.62l-.62 2.742z"/>
    </g>
  </g>
  <g fill="#FFF">
    <path d="M263.638 164.219h-13.8V141.72h13.74l-.42 1.59h-11.58v8.64h10.199l-.39 1.56h-9.81v9.12h12.569l-.508 1.589zM270.388 172.408h-1.74V147.39h1.32l.42 1.5h.12c.24-.33.87-.96 1.05-1.05.51-.33 2.46-.811 4.5-.811 2.31 0 3.72.391 4.8 1.35 1.17.99 2.13 3.061 2.13 6.87 0 3.57-.93 6.09-2.34 7.5-1.11 1.08-2.79 1.739-5.34 1.739-2.01 0-3.57-.27-4.92-.569v8.489zm9.12-22.829c-.84-.689-2.16-1.02-4.08-1.02-1.74 0-3.54.3-5.04.99v12.989c1.17.18 2.79.45 4.62.45 2.1 0 3.45-.36 4.38-1.29 1.02-.96 1.8-3.061 1.8-6.3 0-3.179-.72-4.949-1.68-5.819zM290.218 142.56c-.18.15-.51.21-.84.21-.42 0-.69-.06-.84-.24-.15-.149-.24-.449-.24-.84 0-.45.12-.779.36-.899.09-.12.39-.21.78-.21.36 0 .63.06.78.21.21.18.27.479.27.87 0 .389-.06.748-.27.899zm-1.74 21.659V147.39h1.74v16.829h-1.74zM300.238 164.429c-1.68 0-3.72-.24-4.92-.54v-1.47c1.23.24 3.09.51 4.92.51 3.78 0 4.74-1.08 4.74-3.21 0-.63-.15-1.26-.51-1.74-.54-.6-1.68-.989-3.72-1.47-2.37-.569-3.78-1.02-4.62-2.069-.54-.63-.75-1.62-.75-2.58 0-3.09 1.77-4.92 6.24-4.92 1.86 0 3.48.24 4.5.45v1.439c-1.29-.21-2.7-.39-4.47-.39-3.54 0-4.56 1.2-4.56 3.33 0 .63.12 1.26.51 1.71.51.6 1.56 1.02 3.84 1.529 2.46.57 3.75 1.08 4.38 1.8.6.69.87 1.65.87 2.79 0 2.97-1.35 4.831-6.45 4.831zM318.328 147.06c4.799 0 6.389 2.43 6.389 6.75v2.069h-12.27c0 4.59 1.32 7.08 6.03 7.08 2.431 0 4.41-.391 5.58-.57l-.12 1.44c-1.2.3-3.359.72-5.67.72-5.609 0-7.619-2.88-7.619-8.609 0-5.88 2.4-8.88 7.68-8.88zm-5.82 7.469h10.5v-.601c0-3.72-1.23-5.43-4.86-5.43-3.871.001-5.4 2.041-5.64 6.031zM352.646 164.219V153.81c0-2.221-.39-3.391-1.109-4.08-.721-.69-1.98-1.021-3.391-1.021-2.159 0-3.93.721-5.129 1.351v14.159h-1.74v-11.52c0-1.47-.24-2.37-.93-3.03-.721-.689-2.13-.96-3.511-.96-2.189 0-3.93.631-5.189 1.141v14.369h-1.74V147.39h1.29l.45 1.77h.15l.899-.99c.78-.42 2.641-1.02 4.83-1.02 2.16 0 3.54.48 4.47 1.38.39.36.6.72.75.99h.15l.93-1.17c.96-.54 2.88-1.2 5.069-1.2 1.98 0 3.24.45 4.141 1.32.96.899 1.35 2.43 1.35 4.739v11.01h-1.74zM362.428 142.56c-.18.15-.51.21-.84.21-.42 0-.69-.06-.84-.24-.15-.149-.24-.449-.24-.84 0-.45.12-.779.36-.899.09-.12.39-.21.779-.21.36 0 .63.06.78.21.21.18.27.479.27.87 0 .389-.059.748-.269.899zm-1.74 21.659V147.39h1.74v16.829h-1.74zM381.267 162.568c-1.17 1.2-2.88 2.011-5.85 2.011-2.79 0-4.561-.78-5.67-2.04-.96-1.11-1.83-3.09-1.83-6.33 0-3.27.87-5.91 2.4-7.35 1.199-1.14 3.06-1.92 5.729-1.92 2.55 0 4.319.72 5.37 1.77 1.229 1.29 1.979 3.24 1.979 6.72.001 3.3-.838 5.79-2.128 7.139zm-1.441-.899c1.051-1.08 1.801-2.94 1.801-5.939 0-3.45-.66-4.891-1.561-5.82-.84-.87-2.13-1.41-4.229-1.41-2.07 0-3.45.66-4.23 1.38-1.02.931-1.949 3.061-1.949 6.12 0 2.52.569 4.439 1.41 5.399.81.931 2.1 1.681 4.529 1.681 1.86-.001 3.36-.541 4.229-1.411zM397.227 148.859h-5.97v11.22c0 2.279 1.051 2.76 2.94 2.76 1.38 0 2.64-.21 3.3-.3l-.15 1.47c-.899.18-2.31.39-3.6.39-3 0-4.229-1.08-4.229-3.989v-11.55h-3.48l.24-1.47h3.24v-3.51l1.739-.45v3.96h6.3l-.33 1.469zM403.798 142.56c-.18.15-.51.21-.84.21-.42 0-.69-.06-.84-.24-.15-.149-.24-.449-.24-.84 0-.45.12-.779.359-.899.091-.12.391-.21.78-.21.36 0 .63.06.78.21.21.18.27.479.27.87 0 .389-.059.748-.269.899zm-1.74 21.659V147.39h1.74v16.829h-1.74zM412.917 149.85c-1.229 1.14-1.86 3.27-1.86 6.149 0 2.76.57 4.62 1.74 5.7.99.93 2.46 1.29 4.29 1.29 2.13 0 3.84-.33 5.01-.511v1.351c-1.17.33-2.91.75-5.28.75-2.369 0-4.169-.54-5.339-1.65-1.561-1.439-2.25-3.779-2.25-6.72 0-3.359.81-5.939 2.399-7.409 1.29-1.261 3.18-1.86 5.7-1.86 2.01 0 3.659.27 4.77.48v1.499c-1.05-.149-2.61-.39-4.59-.39-2.04 0-3.63.39-4.59 1.321zM430.678 164.429c-1.681 0-3.721-.24-4.92-.54v-1.47c1.229.24 3.09.51 4.92.51 3.779 0 4.739-1.08 4.739-3.21 0-.63-.149-1.26-.51-1.74-.54-.6-1.68-.989-3.72-1.47-2.37-.569-3.78-1.02-4.62-2.069-.54-.63-.75-1.62-.75-2.58 0-3.09 1.771-4.92 6.24-4.92 1.859 0 3.479.24 4.499.45v1.439c-1.289-.21-2.699-.39-4.47-.39-3.539 0-4.56 1.2-4.56 3.33 0 .63.12 1.26.51 1.71.511.6 1.561 1.02 3.84 1.529 2.46.57 3.75 1.08 4.38 1.8.601.69.87 1.65.87 2.79.001 2.97-1.349 4.831-6.448 4.831z"/>
  </g>
</svg>
