<?xml version="1.0" encoding="UTF-8" standalone="no"?><!DOCTYPE svg PUBLIC "-//W3C//DTD SVG 1.1//EN" "http://www.w3.org/Graphics/SVG/1.1/DTD/svg11.dtd"><svg width="100%" height="100%" viewBox="0 0 284 86" version="1.1" xmlns="http://www.w3.org/2000/svg" xmlns:xlink="http://www.w3.org/1999/xlink" xml:space="preserve" style="fill-rule:evenodd;clip-rule:evenodd;stroke-linejoin:round;stroke-miterlimit:1.41421;"><g id="primary"><path d="M4.122,42.045l39.241,39.24l39.24,-39.239l-39.241,-39.242l-39.24,39.241Z" style="fill:#601d62;fill-rule:nonzero;"/><path d="M4.122,42.045l39.241,39.24l39.24,-39.239l-39.241,-39.242l-39.24,39.241Z" style="fill:#601d62;fill-rule:nonzero;"/><path d="M87.307,53.256l-5.558,5.559l52.844,-0.001l-22.471,22.47l-61.782,0.001l28.052,-28.029l-5.04,0l5.606,-5.605l-3.875,0l0,-11.213l3.873,0l-5.606,-5.606l5.042,0l-28.052,-28.029l61.782,0.002l22.471,22.47l-52.844,-0.001l5.558,5.558l52.841,0l5.605,5.606l1.959,0l-5.605,-5.606l0.003,0l-28.052,-28.029l61.782,0.002l22.471,22.47l-52.844,-0.001l5.559,5.558l52.848,0l5.605,5.606l1.961,0l-5.606,-5.606l0.002,0l-28.053,-28.029l61.781,0.002l22.473,22.47l-52.846,-0.001l5.559,5.558l52.848,0l11.214,11.213l-11.21,11.21l-52.852,0l-5.559,5.559l52.846,-0.001l-22.473,22.47l-61.781,0.002l28.052,-28.029l5.606,-5.605l-1.961,0l-5.605,5.605l-52.85,0l-5.559,5.559l52.844,-0.001l-22.471,22.47l-61.782,0.002l28.052,-28.029l5.605,-5.605l-1.96,0l-5.605,5.605l-52.842,0l0,-0.001Z" style="fill:#601d62;fill-rule:nonzero;"/><g><g><path d="M91.592,47.26l0,-0.706l3.061,0l0,-9.114l-3.061,0.554l0,-0.706l3.85,-0.679l0,9.945l2.771,0l0,0.706l-6.621,0Z" style="fill:#fff;fill-rule:nonzero;"/><path d="M113.979,47.26l-7.133,0l0,-0.83c0.125,-1.524 0.955,-2.508 3.394,-3.699c1.552,-0.775 2.23,-1.177 2.591,-1.648c0.305,-0.43 0.388,-0.983 0.388,-1.524c0,-1.427 -0.526,-2.078 -2.784,-2.078c-1.233,0 -2.562,0.305 -3.172,0.443l0,-0.721c0.816,-0.222 2.091,-0.472 3.337,-0.472c2.646,0 3.477,0.859 3.477,2.729c0,0.942 -0.208,1.593 -0.526,1.995c-0.54,0.706 -1.607,1.247 -2.964,1.912c-2.534,1.232 -2.936,2.105 -2.964,3.145l6.565,0l-0.209,0.748Z" style="fill:#fff;fill-rule:nonzero;"/><path d="M128.612,41.374l-1.123,0.526l0,0.056l1.177,0.415c0.472,0.389 0.845,1.274 0.845,2.175c0,1.994 -1.135,2.854 -3.948,2.854c-1.163,0 -2.188,-0.152 -2.798,-0.291l0,-0.706c0.638,0.11 1.759,0.277 2.798,0.277c2.576,0 3.117,-0.845 3.117,-2.134c0,-1.841 -1.233,-2.188 -2.799,-2.188l-1.98,0l0,-0.721l1.801,0c1.357,0 2.784,-0.346 2.784,-2.147c0,-1.33 -0.499,-2.022 -2.604,-2.022c-1.108,0 -2.174,0.221 -2.895,0.374l0,-0.693c0.749,-0.194 1.897,-0.416 3.034,-0.416c2.493,0 3.283,0.873 3.283,2.646c0,0.969 -0.429,1.744 -0.692,1.995Z" style="fill:#fff;fill-rule:nonzero;"/></g><g><path d="M166.171,47.26l-0.762,0l0,-2.949l-5.334,0l0,-0.805l4.586,-6.635l1.51,0l0,6.746l2.327,0l-0.208,0.693l-2.121,0l0.002,2.95Zm-0.761,-3.643l0,-6.066l-0.374,0l-4.058,5.887l0,0.18l4.432,0l0,-0.001Z" style="fill:#fff;fill-rule:nonzero;"/><path d="M179.209,47.398c-0.954,0 -1.965,-0.139 -2.687,-0.249l0,-0.735c0.664,0.098 1.689,0.236 2.729,0.236c2.397,0 3.229,-0.68 3.229,-2.396c0,-1.828 -0.581,-2.299 -2.715,-2.299c-0.982,0 -2.313,0.208 -2.922,0.291l0,-5.375l6.15,0l0,0.706l-5.429,0l0,3.906c0.581,-0.097 1.384,-0.25 2.451,-0.25c2.411,0 3.297,0.638 3.297,2.909c-0.002,2.19 -1.013,3.256 -4.103,3.256Z" style="fill:#fff;fill-rule:nonzero;"/><path d="M192.819,42.19l0.067,0l0.443,-0.457c0.597,-0.222 1.676,-0.526 2.938,-0.526c2.451,0 3.269,1.024 3.269,2.95c0,2.008 -1.04,3.241 -3.712,3.241c-2.908,0 -3.811,-1.842 -3.811,-4.904c0,-1.925 0.541,-3.311 1.358,-4.183c0.956,-0.998 2.479,-1.621 5.153,-1.648l0.275,0.735c-2.604,0.014 -4.018,0.554 -4.848,1.44c-0.649,0.692 -1.078,1.87 -1.132,3.352Zm3.184,-0.263c-1.232,0 -2.369,0.305 -3.186,0.623c0.026,2.868 0.928,4.127 3.045,4.127c1.982,0 2.868,-0.775 2.868,-2.451c0.002,-1.606 -0.65,-2.299 -2.727,-2.299Z" style="fill:#fff;fill-rule:nonzero;"/></g><g><path d="M228.28,37.8l0,-0.194l-6.244,0l0.222,-0.735l6.91,0l0,0.915l-4.959,9.474l-0.899,0l4.97,-9.46Z" style="fill:#fff;fill-rule:nonzero;"/><path d="M238.8,42.439l0.939,-0.513l0,-0.069l-0.83,-0.429c-0.359,-0.36 -0.707,-0.873 -0.707,-1.828c0,-1.676 1.053,-2.881 3.49,-2.881c2.424,0 3.324,1.08 3.324,2.631c0,0.984 -0.416,1.58 -0.805,1.995l-0.857,0.513l0,0.069l1.052,0.389c0.556,0.443 0.873,1.15 0.873,2.091c0,1.718 -1.067,2.992 -3.795,2.992c-2.575,0 -3.644,-1.025 -3.644,-2.783c0.003,-0.887 0.364,-1.623 0.96,-2.177Zm-0.138,2.079c0,1.385 0.804,2.174 2.908,2.174c2.146,0 2.895,-1.011 2.895,-2.202c0,-1.897 -1.205,-2.05 -4.294,-2.383c-0.763,0.498 -1.509,1.178 -1.509,2.411Zm0.359,-4.988c0,1.704 1.082,1.939 3.795,2.188c0.873,-0.54 1.371,-1.247 1.371,-2.271c0,-1.33 -0.748,-2.022 -2.574,-2.022c-1.913,0.001 -2.592,0.942 -2.592,2.105Z" style="fill:#fff;fill-rule:nonzero;"/><path d="M260.273,41.955l-0.068,0l-0.431,0.457c-0.567,0.235 -1.634,0.513 -2.825,0.513c-2.479,0 -3.352,-0.998 -3.352,-2.909c0,-2.188 1.372,-3.283 3.697,-3.283c2.715,0 3.781,1.51 3.781,4.807c0,1.98 -0.539,3.435 -1.357,4.293c-0.914,0.998 -2.479,1.593 -5.167,1.648l-0.265,-0.763c2.563,-0.014 4.059,-0.525 4.862,-1.398c0.627,-0.705 1.084,-1.869 1.125,-3.365Zm-3.143,0.249c1.246,0 2.369,-0.291 3.145,-0.582c-0.027,-2.937 -0.873,-4.169 -3.032,-4.169c-1.938,0 -2.841,0.928 -2.841,2.508c0,1.551 0.691,2.243 2.728,2.243Z" style="fill:#fff;fill-rule:nonzero;"/></g></g><g id="v1"><path d="M141.397,69.874c0.808,0 1.231,-0.081 1.563,-0.318c0.342,-0.245 0.579,-0.786 0.579,-1.438c0,-0.668 -0.179,-1.083 -0.46,-1.299c-0.207,-0.163 -0.563,-0.236 -1.045,-0.236l-2.121,0l0,5.562l0.43,0l0,-2.27l1.054,0l0,-0.001Zm1.698,-1.742c0,0.601 -0.2,0.979 -0.453,1.157c-0.2,0.148 -0.593,0.192 -1.253,0.192l-1.045,0l0,-2.521l1.52,0c0.409,0 0.712,0.044 0.898,0.185c0.198,0.148 0.333,0.468 0.333,0.987Z" style="fill:#fff;fill-rule:nonzero;"/><path d="M144.734,67.984l0,4.16l0.43,0l0,-3.501c0.253,-0.162 0.728,-0.333 1.232,-0.326c0.252,0 0.466,0.03 0.593,0.053l0,-0.415c-0.112,-0.015 -0.267,-0.03 -0.475,-0.03c-0.52,0 -0.897,0.141 -1.098,0.26c-0.015,0.015 -0.192,0.23 -0.216,0.26l-0.045,0l-0.104,-0.46l-0.317,0l0,-0.001Z" style="fill:#fff;fill-rule:nonzero;"/><path d="M147.5,70.097c0,1.417 0.498,2.129 1.884,2.129c0.571,0 1.106,-0.104 1.402,-0.178l0.03,-0.356c-0.291,0.045 -0.779,0.141 -1.38,0.141c-1.165,0 -1.491,-0.615 -1.491,-1.75l3.033,0l0,-0.512c0,-1.067 -0.393,-1.669 -1.58,-1.669c-1.305,0 -1.898,0.741 -1.898,2.195Zm1.854,-1.839c0.897,0 1.201,0.423 1.201,1.342l0,0.148l-2.596,0c0.06,-0.986 0.439,-1.49 1.395,-1.49Z" style="fill:#fff;fill-rule:nonzero;"/><path d="M154.093,68.266c0.489,0 0.875,0.059 1.135,0.096l0,-0.371c-0.274,-0.051 -0.683,-0.119 -1.18,-0.119c-0.623,0 -1.09,0.148 -1.408,0.461c-0.395,0.363 -0.594,1.001 -0.594,1.832c0,0.727 0.17,1.305 0.556,1.661c0.29,0.274 0.735,0.407 1.32,0.407c0.587,0 1.017,-0.104 1.306,-0.185l0,-0.335c-0.289,0.045 -0.713,0.127 -1.238,0.127c-0.453,0 -0.816,-0.089 -1.062,-0.319c-0.288,-0.267 -0.43,-0.727 -0.43,-1.409c0,-0.712 0.156,-1.238 0.46,-1.52c0.237,-0.23 0.631,-0.326 1.135,-0.326Z" style="fill:#fff;fill-rule:nonzero;"/><path d="M156.867,72.144l0,-4.16l-0.43,0l0,4.16l0.43,0Zm0.066,-5.577c0,-0.096 -0.015,-0.17 -0.066,-0.215c-0.037,-0.037 -0.104,-0.052 -0.192,-0.052c-0.097,0 -0.171,0.022 -0.192,0.052c-0.061,0.03 -0.09,0.111 -0.09,0.223c0,0.096 0.021,0.17 0.06,0.208c0.036,0.044 0.104,0.06 0.208,0.06c0.08,0 0.162,-0.016 0.207,-0.053c0.05,-0.038 0.065,-0.126 0.065,-0.223Z" style="fill:#fff;fill-rule:nonzero;"/><path d="M160.938,71.002c0,-0.282 -0.066,-0.52 -0.215,-0.689c-0.156,-0.178 -0.475,-0.305 -1.083,-0.445c-0.563,-0.127 -0.823,-0.23 -0.949,-0.379c-0.097,-0.11 -0.126,-0.267 -0.126,-0.422c0,-0.527 0.252,-0.824 1.127,-0.824c0.438,0 0.786,0.045 1.105,0.098l0,-0.356c-0.252,-0.052 -0.652,-0.111 -1.112,-0.111c-1.105,0 -1.543,0.452 -1.543,1.216c0,0.237 0.052,0.482 0.186,0.638c0.207,0.261 0.557,0.371 1.143,0.513c0.504,0.118 0.785,0.215 0.919,0.363c0.089,0.118 0.126,0.274 0.126,0.43c0,0.527 -0.236,0.794 -1.172,0.794c-0.452,0 -0.912,-0.067 -1.215,-0.126l0,0.363c0.296,0.074 0.801,0.133 1.215,0.133c1.261,-0.002 1.594,-0.461 1.594,-1.196Z" style="fill:#fff;fill-rule:nonzero;"/><path d="M162.628,72.144l0,-4.16l-0.43,0l0,4.16l0.43,0Zm0.069,-5.577c0,-0.096 -0.016,-0.17 -0.068,-0.215c-0.036,-0.037 -0.104,-0.052 -0.192,-0.052c-0.097,0 -0.17,0.022 -0.192,0.052c-0.06,0.03 -0.09,0.111 -0.09,0.223c0,0.096 0.023,0.17 0.06,0.208c0.038,0.044 0.104,0.06 0.208,0.06c0.082,0 0.163,-0.016 0.207,-0.053c0.051,-0.038 0.067,-0.126 0.067,-0.223Z" style="fill:#fff;fill-rule:nonzero;"/><path d="M167.814,69.971c0,-0.859 -0.187,-1.342 -0.49,-1.661c-0.26,-0.26 -0.697,-0.438 -1.328,-0.438c-0.659,0 -1.119,0.192 -1.416,0.475c-0.379,0.355 -0.594,1.009 -0.594,1.817c0,0.801 0.215,1.29 0.453,1.564c0.274,0.311 0.711,0.504 1.401,0.504c0.733,0 1.157,-0.199 1.446,-0.496c0.319,-0.333 0.528,-0.949 0.528,-1.765Zm-1.929,1.891c-0.602,0 -0.92,-0.185 -1.12,-0.415c-0.208,-0.237 -0.349,-0.712 -0.349,-1.335c0,-0.756 0.229,-1.282 0.481,-1.513c0.193,-0.179 0.534,-0.341 1.047,-0.341c0.519,0 0.837,0.133 1.045,0.349c0.223,0.229 0.385,0.585 0.385,1.438c0,0.742 -0.184,1.201 -0.444,1.469c-0.214,0.215 -0.585,0.348 -1.045,0.348Z" style="fill:#fff;fill-rule:nonzero;"/><path d="M172.544,72.144l0,-2.722c0,-0.563 -0.118,-0.941 -0.349,-1.156c-0.223,-0.223 -0.541,-0.342 -1.083,-0.342c-0.525,0 -1.061,0.148 -1.261,0.26c-0.021,0.015 -0.192,0.207 -0.214,0.236l-0.037,0l-0.118,-0.437l-0.313,0l0,4.16l0.431,0l0,-3.56c0.326,-0.134 0.794,-0.274 1.328,-0.274c0.386,0 0.712,0.074 0.896,0.253c0.187,0.178 0.29,0.48 0.29,1.008l0,2.573l0.43,0l0,0.001Z" style="fill:#fff;fill-rule:nonzero;"/></g><g id="v2"><path d="M203.392,66.809l0,5.563l0.438,0l0,-2.44l0.771,0c0.563,0 0.957,0.03 1.105,0.126c0.288,0.179 0.607,0.861 1.246,2.314l0.475,0c-0.475,-1.091 -0.876,-2.018 -1.098,-2.292c-0.082,-0.089 -0.297,-0.215 -0.453,-0.288l0,-0.016c0.305,-0.104 0.607,-0.275 0.689,-0.341c0.223,-0.208 0.431,-0.653 0.431,-1.216c0,-0.623 -0.171,-0.965 -0.423,-1.143c-0.238,-0.178 -0.639,-0.268 -1.506,-0.268l-1.675,0l0,0.001Zm0.438,0.378l1.209,0c0.748,0 1.045,0.082 1.223,0.223c0.179,0.134 0.29,0.415 0.29,0.868c0,0.6 -0.267,1.023 -0.601,1.157c-0.178,0.065 -0.475,0.11 -0.949,0.11l-1.172,0l0,-2.358Z" style="fill:#fff;fill-rule:nonzero;"/><path d="M211.447,72.371l0,-2.58c0,-0.816 -0.119,-1.128 -0.305,-1.328c-0.2,-0.23 -0.564,-0.327 -1.135,-0.327c-0.594,0 -1.209,0.127 -1.521,0.208l0,0.35c0.282,-0.053 0.927,-0.172 1.432,-0.172c0.467,0 0.741,0.074 0.875,0.23c0.141,0.17 0.229,0.467 0.229,1.187c-1.327,0.118 -2.172,0.274 -2.492,0.511c-0.162,0.104 -0.326,0.387 -0.326,0.854c0,0.387 0.09,0.645 0.237,0.809c0.171,0.192 0.483,0.334 1.062,0.334c0.719,0 1.164,-0.186 1.29,-0.275c0.036,-0.029 0.141,-0.17 0.2,-0.252l0.037,0l0.104,0.453l0.313,0l0,-0.002Zm-0.424,-0.578c-0.223,0.11 -0.748,0.289 -1.379,0.289c-0.453,0 -0.719,-0.104 -0.846,-0.238c-0.104,-0.118 -0.17,-0.311 -0.17,-0.578c0,-0.312 0.074,-0.496 0.185,-0.594c0.171,-0.185 1.245,-0.341 2.21,-0.4l0,1.521Z" style="fill:#fff;fill-rule:nonzero;"/><path d="M216.385,72.371l0,-2.723c0,-0.563 -0.118,-0.941 -0.349,-1.156c-0.223,-0.223 -0.541,-0.342 -1.083,-0.342c-0.526,0 -1.06,0.148 -1.261,0.261c-0.021,0.015 -0.193,0.208 -0.215,0.237l-0.037,0l-0.119,-0.438l-0.311,0l0,4.161l0.43,0l0,-3.56c0.326,-0.134 0.794,-0.274 1.328,-0.274c0.385,0 0.711,0.074 0.896,0.252c0.185,0.178 0.289,0.482 0.289,1.008l0,2.574l0.432,0Z" style="fill:#fff;fill-rule:nonzero;"/><path d="M221.287,68.21l-0.074,0l-0.199,0.134c-0.371,-0.089 -0.786,-0.178 -1.313,-0.178c-0.704,0 -1.149,0.178 -1.409,0.43c-0.355,0.355 -0.57,1.002 -0.57,1.869c0,0.854 0.207,1.379 0.549,1.646c0.237,0.192 0.594,0.319 1.179,0.319c0.542,0 0.993,-0.104 1.12,-0.187c0.045,-0.021 0.193,-0.199 0.26,-0.281l0.029,0l0,0.223c0,0.934 -0.141,1.32 -0.348,1.527c-0.193,0.171 -0.52,0.297 -1.128,0.297c-0.616,0 -1.157,-0.089 -1.446,-0.141l0,0.378c0.281,0.052 0.809,0.156 1.469,0.156c0.734,0 1.135,-0.171 1.387,-0.4c0.289,-0.274 0.496,-0.728 0.496,-1.854l0,-3.938l-0.002,0Zm-3.121,2.181c0,-0.764 0.17,-1.261 0.422,-1.52c0.23,-0.223 0.586,-0.334 1.143,-0.334c0.438,0 0.823,0.059 1.127,0.096l0,3.175c-0.371,0.17 -0.846,0.244 -1.275,0.244c-0.416,0 -0.793,-0.089 -1.009,-0.259c-0.254,-0.201 -0.408,-0.631 -0.408,-1.402Z" style="fill:#fff;fill-rule:nonzero;"/><path d="M222.644,70.324c0,1.416 0.497,2.128 1.885,2.128c0.57,0 1.104,-0.104 1.4,-0.178l0.029,-0.356c-0.288,0.045 -0.777,0.142 -1.379,0.142c-1.164,0 -1.49,-0.616 -1.49,-1.75l3.033,0l0,-0.513c0,-1.067 -0.393,-1.668 -1.58,-1.668c-1.304,0 -1.898,0.742 -1.898,2.195Zm1.855,-1.839c0.897,0 1.202,0.422 1.202,1.342l0,0.147l-2.596,0c0.059,-0.985 0.437,-1.489 1.394,-1.489Z" style="fill:#fff;fill-rule:nonzero;"/><path d="M230.305,68.292c-0.349,-0.089 -0.689,-0.155 -1.187,-0.155c-0.63,0 -1.053,0.147 -1.35,0.438c-0.363,0.341 -0.57,1 -0.57,1.839c0,0.949 0.236,1.469 0.525,1.713c0.26,0.216 0.638,0.334 1.225,0.334c0.57,0 0.949,-0.126 1.074,-0.208c0.045,-0.029 0.186,-0.192 0.26,-0.274l0.022,0l0.104,0.394l0.335,0l0,-6.045l-0.438,0l0,1.964Zm-2.662,2.092c0,-0.802 0.185,-1.313 0.437,-1.551c0.238,-0.222 0.579,-0.326 1.098,-0.326c0.461,0 0.846,0.074 1.128,0.112l0,3.21c-0.371,0.179 -0.823,0.253 -1.238,0.253c-0.438,0 -0.809,-0.097 -1.001,-0.268c-0.232,-0.199 -0.424,-0.615 -0.424,-1.43Z" style="fill:#fff;fill-rule:nonzero;"/><path d="M233.761,70.049l1.795,0l0,1.833l0.379,0l0,-1.833l1.794,0l0,-0.377l-1.794,0l0,-1.84l-0.379,0l0,1.84l-1.795,0l0,0.377Z" style="fill:#fff;fill-rule:nonzero;"/></g><g><g id="v3"><path d="M81.097,12.287l-2.077,-5.562l-0.793,0l-2.225,5.562l0.452,0l0.75,-1.898l2.714,0l0.697,1.898l0.482,0Zm-1.312,-2.284l-2.44,0l1.142,-2.871l0.237,0l1.061,2.871Z" style="fill:#fff;fill-rule:nonzero;"/><path d="M85.525,12.287l0,-4.161l-0.43,0l0,3.553c-0.334,0.148 -0.816,0.274 -1.298,0.274c-0.452,0 -0.764,-0.074 -0.941,-0.259c-0.171,-0.178 -0.275,-0.468 -0.275,-1.031l0,-2.537l-0.43,0l0,2.7c0,0.572 0.126,0.919 0.341,1.15c0.23,0.237 0.542,0.363 1.142,0.363c0.52,0 1.009,-0.125 1.216,-0.229c0.015,-0.008 0.193,-0.237 0.208,-0.267l0.044,0l0.112,0.445l0.311,0l0,-0.001Z" style="fill:#fff;fill-rule:nonzero;"/><path d="M88.581,10.381l1.172,1.906l0.496,0l-1.32,-2.099l1.365,-2.062l-0.482,0l-1.216,1.862l-0.341,0l-1.121,-1.862l-0.489,0l1.269,2.062l-1.357,2.099l0.489,0l1.202,-1.906l0.333,0Z" style="fill:#fff;fill-rule:nonzero;"/><path d="M91.77,12.287l0,-4.161l-0.43,0l0,4.161l0.43,0Zm0.066,-5.577c0,-0.097 -0.015,-0.171 -0.066,-0.215c-0.038,-0.037 -0.104,-0.051 -0.193,-0.051c-0.097,0 -0.171,0.021 -0.193,0.051c-0.059,0.03 -0.089,0.112 -0.089,0.223c0,0.097 0.022,0.171 0.06,0.208c0.036,0.044 0.104,0.059 0.208,0.059c0.081,0 0.163,-0.015 0.208,-0.051c0.05,-0.039 0.065,-0.128 0.065,-0.224Z" style="fill:#fff;fill-rule:nonzero;"/><path d="M93.312,6.28l0,5.064c0,0.697 0.274,0.987 0.875,0.987c0.282,0 0.541,-0.044 0.719,-0.082l0,-0.341c-0.148,0.023 -0.348,0.053 -0.593,0.053c-0.348,0 -0.571,-0.126 -0.571,-0.661l0,-5.02l-0.43,0Z" style="fill:#fff;fill-rule:nonzero;"/><path d="M96.226,12.287l0,-4.161l-0.43,0l0,4.161l0.43,0Zm0.067,-5.577c0,-0.097 -0.015,-0.171 -0.067,-0.215c-0.037,-0.037 -0.104,-0.051 -0.193,-0.051c-0.096,0 -0.17,0.021 -0.192,0.051c-0.06,0.03 -0.089,0.112 -0.089,0.223c0,0.097 0.023,0.171 0.06,0.208c0.038,0.044 0.104,0.059 0.208,0.059c0.082,0 0.163,-0.015 0.208,-0.051c0.051,-0.039 0.065,-0.128 0.065,-0.224Z" style="fill:#fff;fill-rule:nonzero;"/><path d="M100.758,12.287l0,-2.581c0,-0.815 -0.119,-1.127 -0.304,-1.328c-0.2,-0.229 -0.564,-0.327 -1.134,-0.327c-0.593,0 -1.209,0.127 -1.521,0.208l0,0.349c0.282,-0.053 0.928,-0.171 1.432,-0.171c0.466,0 0.741,0.074 0.875,0.23c0.14,0.17 0.229,0.467 0.229,1.187c-1.327,0.119 -2.173,0.274 -2.492,0.511c-0.163,0.104 -0.326,0.386 -0.326,0.854c0,0.386 0.089,0.645 0.237,0.808c0.171,0.192 0.482,0.334 1.061,0.334c0.719,0 1.164,-0.186 1.291,-0.275c0.037,-0.03 0.14,-0.17 0.2,-0.252l0.038,0l0.104,0.453l0.31,0Zm-0.423,-0.579c-0.223,0.111 -0.749,0.289 -1.379,0.289c-0.452,0 -0.719,-0.104 -0.846,-0.237c-0.104,-0.119 -0.17,-0.312 -0.17,-0.579c0,-0.312 0.074,-0.497 0.185,-0.593c0.171,-0.185 1.246,-0.341 2.21,-0.4l0,1.52Z" style="fill:#fff;fill-rule:nonzero;"/><path d="M102.322,8.126l0,4.161l0.43,0l0,-3.5c0.252,-0.163 0.727,-0.334 1.231,-0.326c0.252,0 0.468,0.03 0.593,0.051l0,-0.415c-0.11,-0.015 -0.267,-0.03 -0.475,-0.03c-0.519,0 -0.896,0.141 -1.098,0.26c-0.015,0.015 -0.192,0.229 -0.214,0.259l-0.044,0l-0.104,-0.46l-0.319,0Z" style="fill:#fff;fill-rule:nonzero;"/><path d="M108.953,8.126l-0.467,0l-1.469,3.782l-0.193,0l-1.387,-3.782l-0.467,0l1.558,4.161l0.341,0l-0.816,2.032l0.452,0l2.448,-6.193Z" style="fill:#fff;fill-rule:nonzero;"/><path d="M87.487,19.703l0,-5.562l-0.408,0l0,5.103l-0.141,0l-3.167,-5.103l-0.771,0l0,5.562l0.409,0l0,-5.146l0.133,0l3.196,5.146l0.749,0Z" style="fill:#fff;fill-rule:nonzero;"/><path d="M92.759,17.53c0,-0.86 -0.185,-1.342 -0.489,-1.661c-0.259,-0.259 -0.697,-0.437 -1.327,-0.437c-0.661,0 -1.12,0.193 -1.417,0.475c-0.377,0.356 -0.593,1.009 -0.593,1.816c0,0.801 0.216,1.291 0.453,1.565c0.273,0.312 0.712,0.504 1.401,0.504c0.735,0 1.157,-0.201 1.447,-0.498c0.318,-0.332 0.525,-0.948 0.525,-1.764Zm-1.928,1.891c-0.6,0 -0.919,-0.186 -1.119,-0.415c-0.208,-0.237 -0.349,-0.712 -0.349,-1.335c0,-0.756 0.23,-1.284 0.482,-1.513c0.193,-0.178 0.534,-0.341 1.045,-0.341c0.519,0 0.838,0.133 1.046,0.348c0.223,0.23 0.386,0.586 0.386,1.438c0,0.742 -0.186,1.202 -0.445,1.468c-0.215,0.217 -0.586,0.35 -1.046,0.35Z" style="fill:#fff;fill-rule:nonzero;"/><path d="M97.009,15.625c-0.349,-0.089 -0.69,-0.156 -1.187,-0.156c-0.631,0 -1.053,0.148 -1.35,0.438c-0.364,0.341 -0.572,1 -0.572,1.839c0,0.949 0.237,1.468 0.527,1.712c0.259,0.216 0.638,0.334 1.223,0.334c0.571,0 0.949,-0.126 1.076,-0.208c0.044,-0.029 0.185,-0.193 0.259,-0.275l0.022,0l0.104,0.394l0.333,0l0,-6.044l-0.437,0l0,1.966l0.002,0Zm-2.662,2.091c0,-0.801 0.186,-1.313 0.438,-1.55c0.237,-0.223 0.578,-0.327 1.098,-0.327c0.459,0 0.845,0.074 1.127,0.112l0,3.211c-0.371,0.178 -0.824,0.252 -1.239,0.252c-0.437,0 -0.808,-0.096 -1.001,-0.267c-0.231,-0.2 -0.423,-0.615 -0.423,-1.431Z" style="fill:#fff;fill-rule:nonzero;"/><path d="M98.804,17.656c0,1.416 0.496,2.128 1.884,2.128c0.57,0 1.104,-0.104 1.401,-0.178l0.03,-0.356c-0.289,0.044 -0.778,0.141 -1.379,0.141c-1.164,0 -1.49,-0.616 -1.49,-1.75l3.033,0l0,-0.512c0,-1.068 -0.393,-1.668 -1.579,-1.668c-1.307,0 -1.9,0.742 -1.9,2.195Zm1.854,-1.839c0.897,0 1.201,0.422 1.201,1.342l0,0.148l-2.596,0c0.06,-0.986 0.438,-1.49 1.395,-1.49Z" style="fill:#fff;fill-rule:nonzero;"/></g><g id="v4"><path d="M144.815,12.29l-2.076,-5.562l-0.793,0l-2.225,5.562l0.452,0l0.75,-1.898l2.714,0l0.697,1.898l0.481,0Zm-1.312,-2.284l-2.441,0l1.142,-2.87l0.237,0l1.062,2.87Z" style="fill:#fff;fill-rule:nonzero;"/><path d="M149.244,12.29l0,-4.16l-0.431,0l0,3.552c-0.335,0.148 -0.815,0.275 -1.298,0.275c-0.453,0 -0.764,-0.074 -0.941,-0.26c-0.172,-0.178 -0.275,-0.467 -0.275,-1.03l0,-2.537l-0.43,0l0,2.7c0,0.571 0.126,0.919 0.341,1.149c0.23,0.237 0.542,0.364 1.142,0.364c0.52,0 1.009,-0.127 1.217,-0.23c0.015,-0.007 0.193,-0.237 0.207,-0.267l0.045,0l0.111,0.445l0.312,0l0,-0.001Z" style="fill:#fff;fill-rule:nonzero;"/><path d="M152.298,10.385l1.172,1.905l0.496,0l-1.32,-2.098l1.365,-2.062l-0.481,0l-1.216,1.861l-0.342,0l-1.12,-1.861l-0.489,0l1.269,2.062l-1.358,2.098l0.49,0l1.201,-1.905l0.333,0Z" style="fill:#fff;fill-rule:nonzero;"/><path d="M155.488,12.29l0,-4.16l-0.43,0l0,4.16l0.43,0Zm0.066,-5.577c0,-0.096 -0.016,-0.17 -0.066,-0.214c-0.037,-0.038 -0.104,-0.052 -0.193,-0.052c-0.097,0 -0.171,0.022 -0.192,0.052c-0.06,0.03 -0.089,0.111 -0.089,0.223c0,0.096 0.021,0.17 0.059,0.208c0.037,0.044 0.104,0.06 0.208,0.06c0.081,0 0.163,-0.015 0.208,-0.053c0.05,-0.038 0.065,-0.127 0.065,-0.224Z" style="fill:#fff;fill-rule:nonzero;"/><path d="M157.031,6.283l0,5.065c0,0.697 0.273,0.986 0.875,0.986c0.281,0 0.541,-0.044 0.719,-0.081l0,-0.341c-0.148,0.022 -0.349,0.052 -0.594,0.052c-0.348,0 -0.57,-0.125 -0.57,-0.66l0,-5.021l-0.43,0Z" style="fill:#fff;fill-rule:nonzero;"/><path d="M159.945,12.29l0,-4.16l-0.431,0l0,4.16l0.431,0Zm0.066,-5.577c0,-0.096 -0.015,-0.17 -0.066,-0.214c-0.037,-0.038 -0.104,-0.052 -0.193,-0.052c-0.096,0 -0.17,0.022 -0.193,0.052c-0.059,0.03 -0.088,0.111 -0.088,0.223c0,0.096 0.021,0.17 0.059,0.208c0.037,0.044 0.104,0.06 0.207,0.06c0.082,0 0.164,-0.015 0.209,-0.053c0.051,-0.038 0.065,-0.127 0.065,-0.224Z" style="fill:#fff;fill-rule:nonzero;"/><path d="M164.476,12.29l0,-2.581c0,-0.816 -0.119,-1.127 -0.305,-1.327c-0.199,-0.23 -0.563,-0.326 -1.135,-0.326c-0.593,0 -1.209,0.125 -1.52,0.208l0,0.348c0.281,-0.052 0.927,-0.17 1.432,-0.17c0.467,0 0.741,0.074 0.875,0.229c0.141,0.171 0.229,0.468 0.229,1.187c-1.326,0.119 -2.172,0.275 -2.491,0.512c-0.163,0.104 -0.327,0.386 -0.327,0.853c0,0.386 0.09,0.646 0.238,0.809c0.171,0.192 0.482,0.333 1.061,0.333c0.719,0 1.164,-0.185 1.291,-0.274c0.036,-0.03 0.141,-0.171 0.199,-0.252l0.037,0l0.104,0.452l0.312,0l0,-0.001Zm-0.424,-0.578c-0.223,0.111 -0.748,0.29 -1.379,0.29c-0.452,0 -0.719,-0.104 -0.846,-0.237c-0.104,-0.119 -0.17,-0.312 -0.17,-0.579c0,-0.312 0.074,-0.497 0.186,-0.593c0.17,-0.186 1.246,-0.341 2.209,-0.4l0,1.519Z" style="fill:#fff;fill-rule:nonzero;"/><path d="M166.041,8.13l0,4.16l0.43,0l0,-3.5c0.252,-0.163 0.727,-0.333 1.231,-0.326c0.252,0 0.468,0.03 0.593,0.052l0,-0.415c-0.11,-0.015 -0.267,-0.03 -0.475,-0.03c-0.519,0 -0.896,0.14 -1.098,0.259c-0.015,0.015 -0.192,0.23 -0.215,0.26l-0.044,0l-0.104,-0.46l-0.318,0Z" style="fill:#fff;fill-rule:nonzero;"/><path d="M172.67,8.13l-0.467,0l-1.468,3.782l-0.193,0l-1.387,-3.782l-0.467,0l1.557,4.16l0.342,0l-0.816,2.032l0.452,0l2.447,-6.192Z" style="fill:#fff;fill-rule:nonzero;"/><path d="M151.205,19.706l0,-5.562l-0.408,0l0,5.103l-0.141,0l-3.167,-5.103l-0.771,0l0,5.562l0.408,0l0,-5.146l0.133,0l3.196,5.146l0.75,0Z" style="fill:#fff;fill-rule:nonzero;"/><path d="M156.478,17.534c0,-0.86 -0.186,-1.343 -0.49,-1.661c-0.259,-0.26 -0.697,-0.438 -1.327,-0.438c-0.66,0 -1.12,0.193 -1.417,0.475c-0.377,0.356 -0.594,1.009 -0.594,1.817c0,0.801 0.217,1.291 0.453,1.564c0.274,0.312 0.713,0.504 1.402,0.504c0.734,0 1.156,-0.2 1.445,-0.497c0.319,-0.333 0.528,-0.948 0.528,-1.764Zm-1.929,1.89c-0.601,0 -0.92,-0.185 -1.12,-0.415c-0.207,-0.237 -0.349,-0.712 -0.349,-1.335c0,-0.756 0.23,-1.283 0.483,-1.513c0.191,-0.178 0.533,-0.341 1.045,-0.341c0.519,0 0.838,0.133 1.046,0.349c0.222,0.229 0.386,0.585 0.386,1.438c0,0.742 -0.186,1.202 -0.445,1.468c-0.215,0.216 -0.586,0.349 -1.046,0.349Z" style="fill:#fff;fill-rule:nonzero;"/><path d="M160.728,15.627c-0.35,-0.089 -0.691,-0.155 -1.188,-0.155c-0.631,0 -1.053,0.148 -1.35,0.437c-0.363,0.341 -0.571,1.002 -0.571,1.839c0,0.949 0.237,1.468 0.526,1.713c0.26,0.215 0.639,0.333 1.224,0.333c0.571,0 0.949,-0.125 1.075,-0.208c0.045,-0.03 0.186,-0.193 0.26,-0.274l0.023,0l0.104,0.393l0.333,0l0,-6.043l-0.437,0l0,1.965l0.001,0Zm-2.664,2.092c0,-0.801 0.187,-1.312 0.438,-1.549c0.237,-0.223 0.579,-0.327 1.098,-0.327c0.46,0 0.845,0.074 1.128,0.111l0,3.212c-0.371,0.178 -0.824,0.252 -1.24,0.252c-0.437,0 -0.807,-0.097 -1,-0.267c-0.231,-0.201 -0.424,-0.616 -0.424,-1.432Z" style="fill:#fff;fill-rule:nonzero;"/><path d="M162.522,17.659c0,1.417 0.497,2.129 1.884,2.129c0.57,0 1.104,-0.104 1.401,-0.178l0.029,-0.356c-0.288,0.044 -0.778,0.141 -1.38,0.141c-1.163,0 -1.49,-0.615 -1.49,-1.75l3.034,0l0,-0.511c0,-1.068 -0.393,-1.669 -1.579,-1.669c-1.306,-0.001 -1.899,0.741 -1.899,2.194Zm1.854,-1.839c0.896,0 1.201,0.423 1.201,1.343l0,0.148l-2.596,0c0.06,-0.986 0.438,-1.491 1.395,-1.491Z" style="fill:#fff;fill-rule:nonzero;"/></g><g id="v5"><path d="M209.062,12.29l-2.076,-5.562l-0.795,0l-2.225,5.562l0.453,0l0.748,-1.898l2.715,0l0.697,1.898l0.483,0Zm-1.312,-2.284l-2.439,0l1.142,-2.87l0.237,0l1.06,2.87Z" style="fill:#fff;fill-rule:nonzero;"/><path d="M213.49,12.29l0,-4.16l-0.431,0l0,3.552c-0.333,0.148 -0.815,0.275 -1.298,0.275c-0.453,0 -0.764,-0.074 -0.941,-0.26c-0.17,-0.178 -0.274,-0.467 -0.274,-1.03l0,-2.537l-0.431,0l0,2.7c0,0.571 0.126,0.919 0.342,1.149c0.229,0.237 0.541,0.364 1.143,0.364c0.519,0 1.008,-0.127 1.216,-0.23c0.015,-0.007 0.192,-0.237 0.208,-0.267l0.044,0l0.11,0.445l0.312,0l0,-0.001Z" style="fill:#fff;fill-rule:nonzero;"/><path d="M216.544,10.385l1.172,1.905l0.498,0l-1.32,-2.098l1.364,-2.062l-0.483,0l-1.215,1.861l-0.342,0l-1.119,-1.861l-0.49,0l1.268,2.062l-1.355,2.098l0.488,0l1.202,-1.905l0.332,0Z" style="fill:#fff;fill-rule:nonzero;"/><path d="M219.734,12.29l0,-4.16l-0.431,0l0,4.16l0.431,0Zm0.066,-5.577c0,-0.096 -0.014,-0.17 -0.066,-0.214c-0.037,-0.038 -0.104,-0.052 -0.193,-0.052c-0.096,0 -0.17,0.022 -0.193,0.052c-0.059,0.03 -0.088,0.111 -0.088,0.223c0,0.096 0.022,0.17 0.059,0.208c0.038,0.044 0.104,0.06 0.208,0.06c0.082,0 0.163,-0.015 0.208,-0.053c0.052,-0.038 0.065,-0.127 0.065,-0.224Z" style="fill:#fff;fill-rule:nonzero;"/><path d="M221.276,6.283l0,5.065c0,0.697 0.274,0.986 0.876,0.986c0.281,0 0.541,-0.044 0.719,-0.081l0,-0.341c-0.148,0.022 -0.349,0.052 -0.593,0.052c-0.349,0 -0.571,-0.125 -0.571,-0.66l0,-5.021l-0.431,0Z" style="fill:#fff;fill-rule:nonzero;"/><path d="M224.191,12.29l0,-4.16l-0.43,0l0,4.16l0.43,0Zm0.066,-5.577c0,-0.096 -0.015,-0.17 -0.066,-0.214c-0.037,-0.038 -0.104,-0.052 -0.192,-0.052c-0.097,0 -0.171,0.022 -0.192,0.052c-0.061,0.03 -0.09,0.111 -0.09,0.223c0,0.096 0.021,0.17 0.06,0.208c0.036,0.044 0.104,0.06 0.208,0.06c0.08,0 0.162,-0.015 0.207,-0.053c0.051,-0.038 0.065,-0.127 0.065,-0.224Z" style="fill:#fff;fill-rule:nonzero;"/><path d="M228.722,12.29l0,-2.581c0,-0.816 -0.119,-1.127 -0.304,-1.327c-0.2,-0.23 -0.563,-0.326 -1.136,-0.326c-0.593,0 -1.208,0.125 -1.52,0.208l0,0.348c0.282,-0.052 0.927,-0.17 1.432,-0.17c0.467,0 0.741,0.074 0.875,0.229c0.141,0.171 0.23,0.468 0.23,1.187c-1.328,0.119 -2.174,0.275 -2.492,0.512c-0.164,0.104 -0.326,0.386 -0.326,0.853c0,0.386 0.088,0.646 0.236,0.809c0.171,0.192 0.482,0.333 1.061,0.333c0.72,0 1.165,-0.185 1.291,-0.274c0.037,-0.03 0.141,-0.171 0.2,-0.252l0.036,0l0.104,0.452l0.313,0l0,-0.001Zm-0.422,-0.578c-0.223,0.111 -0.75,0.29 -1.38,0.29c-0.453,0 -0.72,-0.104 -0.846,-0.237c-0.104,-0.119 -0.171,-0.312 -0.171,-0.579c0,-0.312 0.074,-0.497 0.186,-0.593c0.17,-0.186 1.246,-0.341 2.211,-0.4l0,1.519Z" style="fill:#fff;fill-rule:nonzero;"/><path d="M230.287,8.13l0,4.16l0.431,0l0,-3.5c0.253,-0.163 0.728,-0.333 1.231,-0.326c0.252,0 0.467,0.03 0.594,0.052l0,-0.415c-0.112,-0.015 -0.268,-0.03 -0.476,-0.03c-0.519,0 -0.897,0.14 -1.097,0.259c-0.016,0.015 -0.193,0.23 -0.217,0.26l-0.044,0l-0.104,-0.46l-0.318,0Z" style="fill:#fff;fill-rule:nonzero;"/><path d="M236.917,8.13l-0.468,0l-1.469,3.782l-0.192,0l-1.387,-3.782l-0.468,0l1.558,4.16l0.342,0l-0.816,2.032l0.453,0l2.447,-6.192Z" style="fill:#fff;fill-rule:nonzero;"/><path d="M215.451,19.706l0,-5.562l-0.408,0l0,5.103l-0.141,0l-3.167,-5.103l-0.771,0l0,5.562l0.408,0l0,-5.146l0.133,0l3.195,5.146l0.751,0Z" style="fill:#fff;fill-rule:nonzero;"/><path d="M220.723,17.534c0,-0.86 -0.185,-1.343 -0.489,-1.661c-0.26,-0.26 -0.697,-0.438 -1.327,-0.438c-0.661,0 -1.12,0.193 -1.417,0.475c-0.377,0.356 -0.594,1.009 -0.594,1.817c0,0.801 0.217,1.291 0.453,1.564c0.274,0.312 0.713,0.504 1.401,0.504c0.735,0 1.157,-0.2 1.446,-0.497c0.319,-0.333 0.527,-0.948 0.527,-1.764Zm-1.929,1.89c-0.6,0 -0.919,-0.185 -1.119,-0.415c-0.207,-0.237 -0.349,-0.712 -0.349,-1.335c0,-0.756 0.23,-1.283 0.482,-1.513c0.192,-0.178 0.534,-0.341 1.046,-0.341c0.519,0 0.838,0.133 1.045,0.349c0.223,0.229 0.387,0.585 0.387,1.438c0,0.742 -0.186,1.202 -0.445,1.468c-0.215,0.216 -0.586,0.349 -1.047,0.349Z" style="fill:#fff;fill-rule:nonzero;"/><path d="M224.973,15.627c-0.349,-0.089 -0.69,-0.155 -1.187,-0.155c-0.631,0 -1.053,0.148 -1.35,0.437c-0.363,0.341 -0.572,1.002 -0.572,1.839c0,0.949 0.238,1.468 0.527,1.713c0.26,0.215 0.639,0.333 1.224,0.333c0.571,0 0.949,-0.125 1.075,-0.208c0.045,-0.03 0.186,-0.193 0.26,-0.274l0.022,0l0.104,0.393l0.332,0l0,-6.043l-0.437,0l0,1.965l0.002,0Zm-2.663,2.092c0,-0.801 0.186,-1.312 0.438,-1.549c0.237,-0.223 0.578,-0.327 1.098,-0.327c0.46,0 0.845,0.074 1.127,0.111l0,3.212c-0.37,0.178 -0.823,0.252 -1.239,0.252c-0.437,0 -0.808,-0.097 -1,-0.267c-0.231,-0.201 -0.424,-0.616 -0.424,-1.432Z" style="fill:#fff;fill-rule:nonzero;"/><path d="M226.768,17.659c0,1.417 0.496,2.129 1.884,2.129c0.57,0 1.104,-0.104 1.4,-0.178l0.03,-0.356c-0.288,0.044 -0.778,0.141 -1.38,0.141c-1.164,0 -1.49,-0.615 -1.49,-1.75l3.033,0l0,-0.511c0,-1.068 -0.393,-1.669 -1.579,-1.669c-1.305,-0.001 -1.898,0.741 -1.898,2.194Zm1.855,-1.839c0.896,0 1.201,0.423 1.201,1.343l0,0.148l-2.596,0c0.059,-0.986 0.438,-1.491 1.395,-1.491Z" style="fill:#fff;fill-rule:nonzero;"/></g></g></g><g id="Text"><path d="M23.984,41.901l0,7.263l-1.376,0l0,-17.8l6.789,0c1.542,0 2.682,0.237 3.346,0.76c0.902,0.688 1.471,2.017 1.471,4.153c0,2.088 -0.759,3.821 -1.851,4.604c-1.068,0.761 -2.42,1.021 -5.007,1.021l-3.372,0l0,-0.001Zm7.738,-8.734c-0.593,-0.451 -1.566,-0.593 -2.872,-0.593l-4.865,0l0,8.069l3.346,0c2.112,0 3.37,-0.142 4.011,-0.617c0.807,-0.569 1.448,-1.78 1.448,-3.702c0,-1.661 -0.427,-2.682 -1.068,-3.157Z" style="fill:#fff;fill-rule:nonzero;"/><path d="M49.165,49.164l-10.917,0l0,-17.8l10.87,0l-0.333,1.257l-9.161,0l0,6.836l8.07,0l-0.309,1.234l-7.761,0l0,7.215l9.944,0l-0.403,1.258Z" style="fill:#fff;fill-rule:nonzero;"/><path d="M58.681,31.364c2.776,0 4.058,0.285 4.818,0.854c0.807,0.57 1.353,1.662 1.353,3.655c0,1.804 -0.664,3.229 -1.376,3.893c-0.261,0.213 -1.235,0.76 -2.207,1.092l0,0.047c0.499,0.237 1.187,0.64 1.448,0.925c0.712,0.879 1.994,3.846 3.512,7.334l-1.519,0c-2.041,-4.65 -3.063,-6.835 -3.988,-7.404c-0.475,-0.31 -1.732,-0.404 -3.536,-0.404l-2.468,0l0,7.808l-1.4,0l0,-17.8l5.363,0Zm-3.964,8.758l3.75,0c1.519,0 2.468,-0.144 3.038,-0.356c1.068,-0.427 1.922,-1.78 1.922,-3.702c0,-1.448 -0.356,-2.35 -0.925,-2.778c-0.57,-0.451 -1.519,-0.712 -3.916,-0.712l-3.868,0l0,7.548l-0.001,0Z" style="fill:#fff;fill-rule:nonzero;"/></g><g><g><path d="M71.25,66.81c-0.384,-0.066 -0.814,-0.14 -1.48,-0.14c-0.962,0 -1.487,0.221 -1.85,0.532c-0.34,0.274 -0.82,0.984 -0.82,2.405c0,1.192 0.295,1.873 0.635,2.206c0.385,0.362 0.859,0.554 1.806,0.554c0.636,0 1.258,-0.103 1.709,-0.221l0,-0.37c-0.392,0.074 -0.991,0.185 -1.628,0.185c-0.777,0 -1.25,-0.155 -1.539,-0.444c-0.348,-0.348 -0.533,-1.044 -0.533,-1.976c0,-1.051 0.341,-1.784 0.681,-2.058c0.304,-0.237 0.748,-0.407 1.547,-0.407c0.703,0 1.088,0.067 1.472,0.111l0,-0.377Z" style="fill:#fff;fill-rule:nonzero;"/><path d="M75.424,72.293l0,-2.708c0,-0.57 -0.111,-0.948 -0.34,-1.177c-0.229,-0.214 -0.54,-0.325 -1.139,-0.325c-0.519,0 -1.007,0.126 -1.2,0.244c-0.029,0.015 -0.207,0.214 -0.229,0.251l-0.03,0l0,-2.278l-0.428,0l0,5.993l0.428,0l0,-3.545c0.304,-0.148 0.807,-0.288 1.318,-0.288c0.444,0 0.718,0.089 0.903,0.251c0.185,0.171 0.281,0.489 0.281,1.022l0,2.56l0.436,0Z" style="fill:#fff;fill-rule:nonzero;"/><path d="M76.535,68.142l0,4.151l0.428,0l0,-3.493c0.252,-0.163 0.725,-0.333 1.229,-0.325c0.251,0 0.466,0.029 0.592,0.051l0,-0.413c-0.111,-0.015 -0.267,-0.03 -0.474,-0.03c-0.518,0 -0.895,0.141 -1.095,0.259c-0.015,0.015 -0.193,0.229 -0.215,0.258l-0.044,0l-0.103,-0.458l-0.318,0Z" style="fill:#fff;fill-rule:nonzero;"/><path d="M82.669,70.125c0,-0.858 -0.185,-1.339 -0.488,-1.658c-0.259,-0.258 -0.696,-0.435 -1.325,-0.435c-0.659,0 -1.118,0.192 -1.414,0.472c-0.377,0.356 -0.591,1.007 -0.591,1.814c0,0.799 0.214,1.288 0.451,1.562c0.274,0.31 0.71,0.502 1.399,0.502c0.733,0 1.155,-0.199 1.443,-0.495c0.318,-0.333 0.525,-0.947 0.525,-1.762Zm-1.924,1.888c-0.599,0 -0.918,-0.185 -1.118,-0.415c-0.207,-0.237 -0.348,-0.71 -0.348,-1.332c0,-0.755 0.23,-1.281 0.482,-1.51c0.192,-0.178 0.533,-0.341 1.043,-0.341c0.519,0 0.837,0.134 1.044,0.348c0.222,0.23 0.385,0.585 0.385,1.436c0,0.741 -0.185,1.199 -0.444,1.466c-0.215,0.215 -0.585,0.348 -1.044,0.348Z" style="fill:#fff;fill-rule:nonzero;"/><path d="M89.61,72.293l0,-2.716c0,-0.57 -0.096,-0.947 -0.332,-1.169c-0.222,-0.214 -0.533,-0.325 -1.022,-0.325c-0.54,0 -1.014,0.163 -1.251,0.296l-0.229,0.288l-0.037,0c-0.037,-0.067 -0.089,-0.155 -0.185,-0.244c-0.229,-0.221 -0.569,-0.34 -1.102,-0.34c-0.541,0 -1,0.148 -1.192,0.251l-0.222,0.244l-0.037,0l-0.111,-0.436l-0.318,0l0,4.151l0.429,0l0,-3.545c0.311,-0.125 0.74,-0.281 1.28,-0.281c0.341,0 0.689,0.067 0.867,0.237c0.17,0.163 0.229,0.385 0.229,0.747l0,2.842l0.428,0l0,-3.493c0.296,-0.155 0.733,-0.333 1.266,-0.333c0.348,0 0.659,0.082 0.837,0.252c0.177,0.17 0.274,0.459 0.274,1.006l0,2.568l0.428,0Z" style="fill:#fff;fill-rule:nonzero;"/><path d="M93.68,72.293l0,-2.575c0,-0.814 -0.118,-1.125 -0.303,-1.325c-0.199,-0.228 -0.562,-0.324 -1.132,-0.324c-0.592,0 -1.207,0.125 -1.517,0.206l0,0.348c0.281,-0.052 0.925,-0.171 1.428,-0.171c0.466,0 0.74,0.074 0.873,0.23c0.141,0.17 0.23,0.466 0.23,1.184c-1.325,0.119 -2.169,0.274 -2.487,0.511c-0.163,0.104 -0.325,0.385 -0.325,0.851c0,0.385 0.089,0.644 0.236,0.807c0.17,0.192 0.481,0.332 1.058,0.332c0.718,0 1.163,-0.184 1.288,-0.273c0.038,-0.03 0.141,-0.17 0.2,-0.251l0.037,0l0.104,0.45l0.31,0Zm-0.421,-0.576c-0.222,0.111 -0.748,0.288 -1.377,0.288c-0.452,0 -0.718,-0.103 -0.844,-0.236c-0.103,-0.119 -0.17,-0.311 -0.17,-0.578c0,-0.311 0.074,-0.496 0.185,-0.592c0.17,-0.185 1.244,-0.34 2.206,-0.4l0,1.518Z" style="fill:#fff;fill-rule:nonzero;"/><path d="M96.618,68.423c0.488,0 0.873,0.059 1.132,0.096l0,-0.369c-0.274,-0.052 -0.681,-0.118 -1.177,-0.118c-0.621,0 -1.088,0.147 -1.406,0.457c-0.391,0.363 -0.591,1 -0.591,1.829c0,0.725 0.17,1.303 0.554,1.658c0.289,0.273 0.733,0.406 1.317,0.406c0.585,0 1.014,-0.103 1.303,-0.185l0,-0.332c-0.289,0.044 -0.711,0.126 -1.236,0.126c-0.451,0 -0.814,-0.089 -1.058,-0.319c-0.289,-0.266 -0.429,-0.725 -0.429,-1.406c0,-0.711 0.155,-1.236 0.458,-1.517c0.237,-0.23 0.629,-0.326 1.133,-0.326Z" style="fill:#fff;fill-rule:nonzero;"/><path d="M98.232,70.251c0,1.414 0.495,2.123 1.879,2.123c0.57,0 1.103,-0.103 1.398,-0.177l0.03,-0.354c-0.288,0.044 -0.777,0.14 -1.376,0.14c-1.162,0 -1.488,-0.614 -1.488,-1.747l3.026,0l0,-0.51c0,-1.066 -0.391,-1.665 -1.575,-1.665c-1.303,0 -1.894,0.74 -1.894,2.19Zm1.849,-1.836c0.896,0 1.2,0.423 1.2,1.341l0,0.148l-2.591,0c0.059,-0.985 0.436,-1.489 1.391,-1.489Z" style="fill:#fff;fill-rule:nonzero;"/><path d="M102.967,72.219c0.333,0.074 0.718,0.141 1.214,0.141c0.629,0 1.044,-0.163 1.318,-0.429c0.347,-0.348 0.576,-0.969 0.576,-1.85c0,-0.94 -0.236,-1.451 -0.525,-1.695c-0.266,-0.236 -0.614,-0.332 -1.184,-0.332c-0.503,0 -0.985,0.118 -1.11,0.199c-0.045,0.022 -0.2,0.177 -0.26,0.259l-0.029,0l-0.104,-0.37l-0.324,0l0,6.171l0.428,0l0,-2.094Zm2.665,-2.101c0,0.799 -0.193,1.317 -0.444,1.554c-0.23,0.23 -0.563,0.319 -1.081,0.319c-0.452,0 -0.851,-0.067 -1.14,-0.111l0,-3.205c0.37,-0.171 0.814,-0.245 1.244,-0.245c0.473,0 0.799,0.082 1.006,0.252c0.237,0.215 0.415,0.651 0.415,1.436Z" style="fill:#fff;fill-rule:nonzero;"/><path d="M109.124,68.143l-1.554,0l0,-0.977l-0.429,0.111l0,0.866l-0.799,0l-0.059,0.361l0.858,0l0,2.85c0,0.718 0.303,0.983 1.043,0.983c0.318,0 0.666,-0.051 0.888,-0.095l0.037,-0.362c-0.163,0.022 -0.474,0.074 -0.814,0.074c-0.466,0 -0.725,-0.119 -0.725,-0.681l0,-2.769l1.472,0l0.082,-0.361Z" style="fill:#fff;fill-rule:nonzero;"/><path d="M110.219,72.293l0,-4.15l-0.428,0l0,4.15l0.428,0Zm0.066,-5.564c0,-0.096 -0.014,-0.17 -0.066,-0.214c-0.037,-0.037 -0.104,-0.052 -0.192,-0.052c-0.096,0 -0.17,0.022 -0.192,0.052c-0.059,0.029 -0.089,0.111 -0.089,0.222c0,0.096 0.022,0.17 0.059,0.207c0.037,0.044 0.104,0.059 0.207,0.059c0.081,0 0.163,-0.015 0.207,-0.052c0.052,-0.037 0.066,-0.126 0.066,-0.222Z" style="fill:#fff;fill-rule:nonzero;"/><path d="M114.947,70.125c0,-0.858 -0.184,-1.339 -0.487,-1.658c-0.259,-0.258 -0.696,-0.435 -1.325,-0.435c-0.659,0 -1.118,0.192 -1.414,0.472c-0.377,0.356 -0.591,1.007 -0.591,1.814c0,0.799 0.214,1.288 0.45,1.562c0.274,0.31 0.711,0.502 1.4,0.502c0.732,0 1.154,-0.199 1.443,-0.495c0.318,-0.333 0.524,-0.947 0.524,-1.762Zm-1.923,1.888c-0.6,0 -0.918,-0.185 -1.118,-0.415c-0.207,-0.237 -0.348,-0.71 -0.348,-1.332c0,-0.755 0.23,-1.281 0.481,-1.51c0.193,-0.178 0.533,-0.341 1.044,-0.341c0.518,0 0.837,0.134 1.044,0.348c0.222,0.23 0.385,0.585 0.385,1.436c0,0.741 -0.185,1.199 -0.444,1.466c-0.215,0.215 -0.585,0.348 -1.044,0.348Z" style="fill:#fff;fill-rule:nonzero;"/><path d="M119.225,72.293l0,-2.716c0,-0.562 -0.118,-0.94 -0.347,-1.154c-0.222,-0.221 -0.541,-0.34 -1.081,-0.34c-0.526,0 -1.059,0.148 -1.258,0.259c-0.023,0.015 -0.193,0.207 -0.215,0.236l-0.037,0l-0.118,-0.436l-0.31,0l0,4.151l0.428,0l0,-3.552c0.326,-0.133 0.792,-0.274 1.325,-0.274c0.385,0 0.711,0.074 0.896,0.252c0.185,0.177 0.288,0.481 0.288,1.006l0,2.568l0.429,0Z" style="fill:#fff;fill-rule:nonzero;"/></g></g></svg>