<?xml version="1.0" encoding="UTF-8" standalone="no"?><!DOCTYPE svg PUBLIC "-//W3C//DTD SVG 1.1//EN" "http://www.w3.org/Graphics/SVG/1.1/DTD/svg11.dtd"><svg width="100%" height="100%" viewBox="0 0 284 86" version="1.1" xmlns="http://www.w3.org/2000/svg" xmlns:xlink="http://www.w3.org/1999/xlink" xml:space="preserve" style="fill-rule:evenodd;clip-rule:evenodd;stroke-linejoin:round;stroke-miterlimit:1.41421;"><g id="tint"><path d="M120.274,16.297l-9.92,-9.92l-56.202,-0.001l9.92,9.92l0.009,0l14.383,14.383l6.006,-3.007l-11.376,-11.376l47.18,0.001Z" style="fill:#8f6191;fill-rule:nonzero;"/><path d="M187.843,16.297l-9.92,-9.92l-56.202,-0.001l9.921,9.92l0.01,0l14.252,14.253l6.008,-3.007l-11.246,-11.246l47.177,0.001Z" style="fill:#8f6191;fill-rule:nonzero;"/><path d="M254.416,16.298l-9.924,-9.922l-56.207,0l9.922,9.922l0.011,0l12.356,12.355l6.006,-3.007l-9.348,-9.348l47.184,0Z" style="fill:#8f6191;fill-rule:nonzero;"/><path d="M163.341,46.064l11.256,-11.255l-6.008,-3.007l-14.261,14.262l-0.002,0l-9.922,9.92l56.202,-0.002l9.92,-9.919l-47.185,0.001Z" style="fill:#8f6191;fill-rule:nonzero;"/><path d="M229.903,46.063l10.959,-10.959l-6.007,-3.007l-13.965,13.966l-0.015,0l-9.922,9.921l56.207,0l9.923,-9.921l-47.18,0Z" style="fill:#8f6191;fill-rule:nonzero;"/><rect x="61.527" y="25.511" width="170.057" height="11.339" style="fill:#8f6191;"/></g><g id="primary"><rect x="61.527" y="25.511" width="72.485" height="11.339" style="fill:#601d62;"/><path d="M82.205,42.52l-39.685,-39.684l-39.684,39.684l39.685,39.684l39.684,-39.684Z" style="fill:#601d62;"/><path d="M194.503,82.205l22.678,-22.678l-144.566,0l-22.677,22.678l144.565,0Z" style="fill:#601d62;fill-rule:nonzero;"/><path d="M105.846,41.144l-24.107,24.107l-9.908,-4.96l24.107,-24.107l9.908,4.96Z" style="fill:#601d62;fill-rule:nonzero;"/><path d="M82.205,42.52l-39.685,-39.684l-39.684,39.684l39.685,39.684l39.684,-39.684Z" style="fill:#601d62;"/><path d="M133.204,19.842l-71.677,0l22.678,22.677l71.675,0l-22.676,-22.677Z" style="fill:#601d62;fill-rule:nonzero;"/><path d="M199.762,19.842l-36.225,0l-0.963,0l-0.149,0l-0.851,0l-26.376,0l22.677,22.677l64.563,0l-22.676,-22.677Z" style="fill:#8f6191;fill-rule:nonzero;"/><path d="M257.953,19.842l-56.196,0l22.677,22.677l56.196,0l-22.677,-22.677Z" style="fill:#8f6191;fill-rule:nonzero;"/></g><g id="Text"><g><g><path d="M89.475,35.38l0,-0.714l3.096,0l0,-9.217l-3.096,0.56l0,-0.714l3.894,-0.687l0,10.058l2.802,0l0,0.714l-6.696,0Z" style="fill:#fff;fill-rule:nonzero;"/><path d="M112.116,35.38l-7.214,0l0,-0.84c0.126,-1.541 0.966,-2.536 3.432,-3.74c1.569,-0.784 2.255,-1.19 2.62,-1.667c0.308,-0.434 0.392,-0.994 0.392,-1.541c0,-1.443 -0.532,-2.101 -2.815,-2.101c-1.247,0 -2.591,0.308 -3.208,0.448l0,-0.729c0.826,-0.224 2.115,-0.477 3.375,-0.477c2.675,0 3.516,0.869 3.516,2.76c0,0.953 -0.21,1.611 -0.532,2.017c-0.546,0.714 -1.625,1.261 -2.998,1.933c-2.563,1.247 -2.969,2.129 -2.998,3.18l6.64,0l-0.21,0.757Z" style="fill:#fff;fill-rule:nonzero;"/><path d="M126.914,29.427l-1.135,0.532l0,0.056l1.19,0.42c0.477,0.393 0.854,1.289 0.854,2.199c0,2.017 -1.148,2.886 -3.992,2.886c-1.176,0 -2.213,-0.154 -2.83,-0.294l0,-0.714c0.645,0.112 1.779,0.28 2.83,0.28c2.605,0 3.152,-0.854 3.152,-2.157c0,-1.863 -1.247,-2.213 -2.83,-2.213l-2.003,0l0,-0.729l1.821,0c1.373,0 2.815,-0.35 2.815,-2.171c0,-1.345 -0.504,-2.045 -2.633,-2.045c-1.121,0 -2.199,0.224 -2.928,0.378l0,-0.701c0.757,-0.196 1.919,-0.42 3.068,-0.42c2.521,0 3.32,0.883 3.32,2.676c0.001,0.98 -0.433,1.764 -0.699,2.017Z" style="fill:#fff;fill-rule:nonzero;"/></g><g><path d="M164.898,35.38l-0.771,0l0,-2.983l-5.394,0l0,-0.813l4.638,-6.71l1.526,0l0,6.822l2.354,0l-0.211,0.701l-2.145,0l0.003,2.983Zm-0.77,-3.684l0,-6.135l-0.379,0l-4.104,5.953l0,0.182l4.483,0Z" style="fill:#fff;fill-rule:nonzero;"/><path d="M178.083,35.52c-0.965,0 -1.987,-0.14 -2.717,-0.252l0,-0.743c0.672,0.098 1.709,0.238 2.76,0.238c2.424,0 3.265,-0.687 3.265,-2.423c0,-1.849 -0.588,-2.325 -2.746,-2.325c-0.994,0 -2.339,0.21 -2.955,0.294l0,-5.435l6.22,0l0,0.714l-5.49,0l0,3.95c0.588,-0.098 1.399,-0.252 2.479,-0.252c2.438,0 3.334,0.645 3.334,2.941c-0.003,2.214 -1.025,3.293 -4.15,3.293Z" style="fill:#fff;fill-rule:nonzero;"/><path d="M191.846,30.253l0.069,0l0.446,-0.462c0.604,-0.224 1.695,-0.532 2.972,-0.532c2.479,0 3.306,1.036 3.306,2.983c0,2.031 -1.052,3.278 -3.755,3.278c-2.94,0 -3.852,-1.863 -3.852,-4.959c0,-1.947 0.547,-3.348 1.372,-4.23c0.968,-1.009 2.509,-1.639 5.212,-1.667l0.278,0.743c-2.633,0.014 -4.063,0.56 -4.901,1.457c-0.658,0.699 -1.092,1.89 -1.147,3.389Zm3.22,-0.266c-1.246,0 -2.395,0.308 -3.221,0.63c0.027,2.9 0.938,4.174 3.08,4.174c2.004,0 2.9,-0.784 2.9,-2.479c0.001,-1.624 -0.658,-2.325 -2.759,-2.325Z" style="fill:#fff;fill-rule:nonzero;"/></g><g><path d="M227.708,25.813l0,-0.196l-6.315,0l0.224,-0.743l6.989,0l0,0.925l-5.015,9.581l-0.91,0l5.027,-9.567Z" style="fill:#fff;fill-rule:nonzero;"/><path d="M238.347,30.505l0.951,-0.519l0,-0.07l-0.84,-0.434c-0.364,-0.364 -0.715,-0.883 -0.715,-1.849c0,-1.695 1.063,-2.914 3.528,-2.914c2.452,0 3.362,1.092 3.362,2.661c0,0.995 -0.422,1.597 -0.813,2.017l-0.866,0.519l0,0.07l1.063,0.393c0.563,0.448 0.883,1.163 0.883,2.115c0,1.737 -1.079,3.026 -3.838,3.026c-2.604,0 -3.686,-1.037 -3.686,-2.815c0.004,-0.897 0.368,-1.64 0.971,-2.2Zm-0.14,2.101c0,1.401 0.813,2.199 2.941,2.199c2.171,0 2.928,-1.022 2.928,-2.227c0,-1.919 -1.219,-2.073 -4.343,-2.41c-0.771,0.505 -1.526,1.192 -1.526,2.438Zm0.363,-5.043c0,1.723 1.094,1.961 3.838,2.213c0.883,-0.546 1.387,-1.261 1.387,-2.297c0,-1.345 -0.756,-2.045 -2.604,-2.045c-1.934,0.001 -2.621,0.953 -2.621,2.129Z" style="fill:#fff;fill-rule:nonzero;"/><path d="M260.063,30.015l-0.069,0l-0.436,0.462c-0.574,0.238 -1.652,0.519 -2.857,0.519c-2.507,0 -3.39,-1.009 -3.39,-2.942c0,-2.213 1.388,-3.32 3.739,-3.32c2.746,0 3.824,1.527 3.824,4.861c0,2.003 -0.545,3.474 -1.373,4.342c-0.924,1.009 -2.506,1.611 -5.226,1.667l-0.267,-0.771c2.592,-0.014 4.104,-0.532 4.916,-1.415c0.635,-0.713 1.097,-1.89 1.139,-3.403Zm-3.179,0.252c1.261,0 2.396,-0.294 3.18,-0.588c-0.027,-2.97 -0.882,-4.216 -3.066,-4.216c-1.961,0 -2.873,0.938 -2.873,2.536c0,1.568 0.699,2.268 2.759,2.268Z" style="fill:#fff;fill-rule:nonzero;"/></g></g><g><path d="M159.615,52.843c-0.287,0.245 -0.813,0.357 -1.563,0.357c-0.65,0 -1.176,-0.084 -1.526,-0.168l0,-0.364c0.413,0.07 0.876,0.154 1.534,0.154c0.721,0 1.105,-0.112 1.254,-0.252c0.125,-0.127 0.236,-0.357 0.236,-0.709c0,-0.286 -0.055,-0.51 -0.16,-0.629c-0.393,-0.428 -2.27,-0.688 -2.668,-1.198c-0.162,-0.196 -0.211,-0.567 -0.211,-0.854c0,-0.385 0.113,-0.764 0.351,-0.994c0.224,-0.217 0.673,-0.393 1.534,-0.393c0.574,0 1.051,0.049 1.408,0.111l0,0.355c-0.441,-0.049 -0.813,-0.098 -1.465,-0.098c-0.65,0 -1.036,0.111 -1.19,0.295c-0.112,0.119 -0.224,0.361 -0.224,0.688c0,0.267 0.049,0.488 0.154,0.623c0.308,0.393 2.316,0.741 2.674,1.196c0.176,0.21 0.225,0.574 0.225,0.876c0.001,0.423 -0.146,0.815 -0.363,1.004Z" style="fill:#fff;fill-rule:nonzero;"/><path d="M161.58,55.035l-0.406,0l0,-5.842l0.311,0l0.1,0.351l0.026,0c0.058,-0.077 0.203,-0.224 0.245,-0.245c0.119,-0.076 0.574,-0.189 1.051,-0.189c0.539,0 0.869,0.094 1.121,0.316c0.271,0.23 0.496,0.715 0.496,1.604c0,0.834 -0.217,1.423 -0.545,1.75c-0.262,0.254 -0.65,0.405 -1.248,0.405c-0.469,0 -0.833,-0.063 -1.146,-0.133l0,1.982l-0.005,0l0,0.001Zm2.13,-5.33c-0.196,-0.161 -0.506,-0.238 -0.953,-0.238c-0.405,0 -0.826,0.07 -1.178,0.231l0,3.032c0.272,0.043 0.651,0.104 1.08,0.104c0.488,0 0.805,-0.084 1.021,-0.301c0.237,-0.227 0.42,-0.717 0.42,-1.473c0.002,-0.738 -0.166,-1.152 -0.39,-1.355Z" style="fill:#fff;fill-rule:nonzero;"/><path d="M167.398,49.117c1.121,0 1.492,0.566 1.492,1.576l0,0.48l-2.865,0c0,1.072 0.309,1.653 1.408,1.653c0.566,0 1.029,-0.093 1.303,-0.136l-0.027,0.339c-0.279,0.067 -0.785,0.168 -1.324,0.168c-1.311,0 -1.777,-0.675 -1.777,-2.013c-0.003,-1.368 0.558,-2.067 1.79,-2.067Zm-1.359,1.744l2.451,0l0,-0.141c0,-0.868 -0.287,-1.269 -1.134,-1.269c-0.903,0.002 -1.26,0.479 -1.317,1.41Z" style="fill:#fff;fill-rule:nonzero;"/><path d="M170.757,49.768c-0.286,0.269 -0.436,0.766 -0.436,1.438c0,0.646 0.135,1.079 0.406,1.331c0.23,0.217 0.574,0.301 1.001,0.301c0.498,0 0.896,-0.077 1.17,-0.119l0,0.315c-0.272,0.075 -0.68,0.175 -1.231,0.175c-0.551,0 -0.975,-0.126 -1.246,-0.385c-0.364,-0.338 -0.524,-0.885 -0.524,-1.569c0,-0.782 0.188,-1.387 0.562,-1.729c0.301,-0.295 0.742,-0.436 1.33,-0.436c0.469,0 0.854,0.063 1.112,0.112l0,0.35c-0.243,-0.034 -0.608,-0.091 -1.071,-0.091c-0.476,-0.001 -0.849,0.09 -1.073,0.307Z" style="fill:#fff;fill-rule:nonzero;"/><path d="M174.446,48.066c-0.042,0.035 -0.118,0.049 -0.196,0.049c-0.098,0 -0.16,-0.014 -0.193,-0.057c-0.035,-0.035 -0.059,-0.104 -0.059,-0.195c0,-0.105 0.028,-0.182 0.084,-0.211c0.021,-0.027 0.092,-0.049 0.184,-0.049c0.085,0 0.146,0.015 0.184,0.049c0.051,0.043 0.063,0.113 0.063,0.203c-0.004,0.092 -0.017,0.176 -0.067,0.211Zm-0.405,5.057l0,-3.93l0.405,0l0,3.93l-0.405,0Z" style="fill:#fff;fill-rule:nonzero;"/><path d="M178.431,53.123l-0.1,-0.428l-0.035,0c-0.055,0.078 -0.153,0.211 -0.188,0.238c-0.119,0.084 -0.54,0.26 -1.219,0.26c-0.546,0 -0.843,-0.133 -1.001,-0.315c-0.143,-0.153 -0.227,-0.399 -0.227,-0.763c0,-0.441 0.154,-0.708 0.311,-0.807c0.301,-0.226 1.1,-0.371 2.354,-0.482c0,-0.68 -0.084,-0.96 -0.218,-1.121c-0.126,-0.146 -0.386,-0.217 -0.825,-0.217c-0.478,0 -1.087,0.111 -1.354,0.16l0,-0.328c0.295,-0.077 0.876,-0.196 1.438,-0.196c0.538,0 0.883,0.091 1.07,0.308c0.175,0.189 0.287,0.484 0.287,1.254l0,2.438l-0.293,-0.001Zm-0.105,-1.982c-0.91,0.059 -1.927,0.203 -2.088,0.379c-0.105,0.092 -0.176,0.268 -0.176,0.563c0,0.252 0.063,0.436 0.162,0.546c0.119,0.126 0.371,0.226 0.798,0.226c0.597,0 1.093,-0.168 1.304,-0.273l0,-1.441l0,0Z" style="fill:#fff;fill-rule:nonzero;"/><path d="M180.585,47.45l0,4.741c0,0.504 0.209,0.623 0.539,0.623c0.229,0 0.42,-0.027 0.561,-0.049l0,0.32c-0.168,0.035 -0.413,0.077 -0.68,0.077c-0.567,0 -0.826,-0.271 -0.826,-0.933l0,-4.78l0.406,0l0,0.001Z" style="fill:#fff;fill-rule:nonzero;"/><path d="M184.541,49.537l-1.395,0l0,2.619c0,0.533 0.246,0.645 0.688,0.645c0.322,0 0.615,-0.049 0.771,-0.07l-0.035,0.346c-0.209,0.042 -0.539,0.091 -0.84,0.091c-0.7,0 -0.986,-0.252 -0.986,-0.933l0,-2.695l-0.813,0l0.056,-0.346l0.758,0l0,-0.816l0.404,-0.104l0,0.924l1.473,0l-0.081,0.339Z" style="fill:#fff;fill-rule:nonzero;"/><path d="M186.528,55.042l-0.427,0l0.77,-1.919l-0.322,0l-1.471,-3.93l0.441,0l1.311,3.572l0.184,0l1.387,-3.572l0.439,0l-2.312,5.849Z" style="fill:#fff;fill-rule:nonzero;"/><path d="M194.762,53.123l-3.607,0l0,-0.42c0.063,-0.771 0.484,-1.268 1.718,-1.87c0.783,-0.394 1.127,-0.597 1.311,-0.833c0.152,-0.218 0.195,-0.498 0.195,-0.771c0,-0.721 -0.268,-1.051 -1.407,-1.051c-0.623,0 -1.296,0.154 -1.604,0.225l0,-0.363c0.412,-0.112 1.057,-0.237 1.688,-0.237c1.338,0 1.758,0.436 1.758,1.381c0,0.477 -0.104,0.805 -0.267,1.008c-0.272,0.355 -0.813,0.631 -1.5,0.967c-1.28,0.623 -1.483,1.064 -1.498,1.59l3.32,0l-0.107,0.374Z" style="fill:#fff;fill-rule:nonzero;"/></g><g><path d="M227.884,52.843c-0.286,0.245 -0.813,0.357 -1.563,0.357c-0.65,0 -1.177,-0.084 -1.525,-0.168l0,-0.364c0.412,0.07 0.875,0.154 1.533,0.154c0.721,0 1.105,-0.112 1.254,-0.252c0.127,-0.127 0.237,-0.357 0.237,-0.709c0,-0.286 -0.057,-0.51 -0.161,-0.629c-0.393,-0.428 -2.27,-0.688 -2.668,-1.198c-0.16,-0.196 -0.209,-0.567 -0.209,-0.854c0,-0.385 0.11,-0.764 0.35,-0.994c0.225,-0.217 0.673,-0.393 1.533,-0.393c0.574,0 1.051,0.049 1.408,0.111l0,0.355c-0.441,-0.049 -0.813,-0.098 -1.465,-0.098c-0.65,0 -1.035,0.111 -1.189,0.295c-0.111,0.119 -0.226,0.361 -0.226,0.688c0,0.267 0.05,0.488 0.154,0.623c0.31,0.393 2.317,0.741 2.676,1.196c0.177,0.21 0.226,0.574 0.226,0.876c0.001,0.423 -0.147,0.815 -0.365,1.004Z" style="fill:#fff;fill-rule:nonzero;"/><path d="M229.851,55.035l-0.406,0l0,-5.842l0.309,0l0.1,0.351l0.027,0c0.057,-0.077 0.203,-0.224 0.244,-0.245c0.119,-0.076 0.574,-0.189 1.051,-0.189c0.539,0 0.869,0.094 1.121,0.316c0.272,0.23 0.496,0.715 0.496,1.604c0,0.834 -0.217,1.423 -0.545,1.75c-0.261,0.254 -0.65,0.405 -1.248,0.405c-0.47,0 -0.832,-0.063 -1.146,-0.133l-0.003,1.983Zm2.129,-5.33c-0.197,-0.161 -0.505,-0.238 -0.953,-0.238c-0.406,0 -0.826,0.07 -1.177,0.231l0,3.032c0.272,0.043 0.651,0.104 1.079,0.104c0.49,0 0.805,-0.084 1.021,-0.301c0.236,-0.227 0.42,-0.717 0.42,-1.473c0.003,-0.738 -0.165,-1.152 -0.39,-1.355Z" style="fill:#fff;fill-rule:nonzero;"/><path d="M235.667,49.117c1.121,0 1.492,0.566 1.492,1.576l0,0.48l-2.865,0c0,1.072 0.31,1.653 1.408,1.653c0.566,0 1.028,-0.093 1.303,-0.136l-0.026,0.339c-0.28,0.067 -0.785,0.168 -1.324,0.168c-1.31,0 -1.778,-0.675 -1.778,-2.013c-0.002,-1.368 0.559,-2.067 1.79,-2.067Zm-1.357,1.744l2.451,0l0,-0.141c0,-0.868 -0.287,-1.269 -1.135,-1.269c-0.903,0.002 -1.261,0.479 -1.316,1.41Z" style="fill:#fff;fill-rule:nonzero;"/><path d="M239.027,49.768c-0.287,0.269 -0.434,0.766 -0.434,1.438c0,0.646 0.133,1.079 0.406,1.331c0.229,0.217 0.572,0.301 1,0.301c0.498,0 0.896,-0.077 1.17,-0.119l0,0.315c-0.272,0.075 -0.681,0.175 -1.232,0.175c-0.553,0 -0.973,-0.126 -1.246,-0.385c-0.363,-0.338 -0.525,-0.885 -0.525,-1.569c0,-0.782 0.189,-1.387 0.563,-1.729c0.301,-0.295 0.742,-0.436 1.33,-0.436c0.47,0 0.854,0.063 1.113,0.112l0,0.35c-0.246,-0.034 -0.608,-0.091 -1.07,-0.091c-0.479,-0.001 -0.851,0.09 -1.075,0.307Z" style="fill:#fff;fill-rule:nonzero;"/><path d="M242.716,48.066c-0.043,0.035 -0.118,0.049 -0.195,0.049c-0.1,0 -0.161,-0.014 -0.195,-0.057c-0.035,-0.035 -0.058,-0.104 -0.058,-0.195c0,-0.105 0.028,-0.182 0.084,-0.211c0.021,-0.027 0.092,-0.049 0.183,-0.049c0.086,0 0.147,0.015 0.184,0.049c0.05,0.043 0.064,0.113 0.064,0.203c-0.004,0.092 -0.017,0.176 -0.067,0.211Zm-0.405,5.057l0,-3.93l0.405,0l0,3.93l-0.405,0Z" style="fill:#fff;fill-rule:nonzero;"/><path d="M246.701,53.123l-0.099,-0.428l-0.035,0c-0.056,0.078 -0.153,0.211 -0.188,0.238c-0.119,0.084 -0.539,0.26 -1.219,0.26c-0.547,0 -0.841,-0.133 -1.002,-0.315c-0.141,-0.153 -0.225,-0.399 -0.225,-0.763c0,-0.441 0.154,-0.708 0.309,-0.807c0.301,-0.226 1.1,-0.371 2.354,-0.482c0,-0.68 -0.084,-0.96 -0.218,-1.121c-0.127,-0.146 -0.385,-0.217 -0.826,-0.217c-0.477,0 -1.086,0.111 -1.352,0.16l0,-0.328c0.293,-0.077 0.875,-0.196 1.436,-0.196c0.539,0 0.883,0.091 1.07,0.308c0.176,0.189 0.287,0.484 0.287,1.254l0,2.438l-0.292,-0.001Zm-0.105,-1.982c-0.91,0.059 -1.927,0.203 -2.089,0.379c-0.104,0.092 -0.174,0.268 -0.174,0.563c0,0.252 0.063,0.436 0.16,0.546c0.118,0.126 0.37,0.226 0.799,0.226c0.597,0 1.092,-0.168 1.304,-0.273l0,-1.441Z" style="fill:#fff;fill-rule:nonzero;"/><path d="M248.855,47.45l0,4.741c0,0.504 0.21,0.623 0.539,0.623c0.23,0 0.42,-0.027 0.561,-0.049l0,0.32c-0.168,0.035 -0.414,0.077 -0.68,0.077c-0.566,0 -0.826,-0.271 -0.826,-0.933l0,-4.78l0.406,0l0,0.001Z" style="fill:#fff;fill-rule:nonzero;"/><path d="M252.811,49.537l-1.394,0l0,2.619c0,0.533 0.244,0.645 0.687,0.645c0.321,0 0.616,-0.049 0.771,-0.07l-0.035,0.346c-0.209,0.042 -0.539,0.091 -0.84,0.091c-0.699,0 -0.985,-0.252 -0.985,-0.933l0,-2.695l-0.813,0l0.055,-0.346l0.759,0l0,-0.816l0.403,-0.104l0,0.924l1.474,0l-0.082,0.339Z" style="fill:#fff;fill-rule:nonzero;"/><path d="M254.798,55.042l-0.428,0l0.771,-1.919l-0.322,0l-1.471,-3.93l0.44,0l1.311,3.572l0.184,0l1.387,-3.572l0.439,0l-2.311,5.849Z" style="fill:#fff;fill-rule:nonzero;"/><path d="M262.457,50.146l-0.564,0.266l0,0.027l0.596,0.211c0.237,0.194 0.428,0.645 0.428,1.1c0,1.009 -0.574,1.443 -1.996,1.443c-0.588,0 -1.105,-0.077 -1.414,-0.147l0,-0.356c0.322,0.057 0.89,0.142 1.414,0.142c1.304,0 1.576,-0.429 1.576,-1.079c0,-0.934 -0.623,-1.105 -1.414,-1.105l-1.002,0l0,-0.363l0.908,0c0.688,0 1.408,-0.176 1.408,-1.086c0,-0.672 -0.252,-1.021 -1.314,-1.021c-0.563,0 -1.102,0.111 -1.465,0.188l0,-0.356c0.379,-0.098 0.961,-0.209 1.533,-0.209c1.262,0 1.659,0.44 1.659,1.338c-0.002,0.489 -0.219,0.882 -0.353,1.007Z" style="fill:#fff;fill-rule:nonzero;"/></g><g><path d="M140.058,13.438l-0.658,-1.793l-2.563,0l-0.708,1.793l-0.427,0l2.101,-5.253l0.75,0l1.961,5.253l-0.456,0Zm-1.786,-4.868l-0.224,0l-1.079,2.71l2.304,0l-1.001,-2.71Z" style="fill:#fff;fill-rule:nonzero;"/><path d="M144.397,13.438l-0.104,-0.42l-0.043,0c-0.014,0.028 -0.182,0.245 -0.193,0.252c-0.197,0.098 -0.658,0.217 -1.148,0.217c-0.566,0 -0.862,-0.119 -1.079,-0.343c-0.203,-0.217 -0.322,-0.546 -0.322,-1.086l0,-2.549l0.406,0l0,2.396c0,0.532 0.098,0.805 0.259,0.974c0.167,0.175 0.46,0.245 0.89,0.245c0.455,0 0.911,-0.119 1.227,-0.259l0,-3.356l0.405,0l0,3.929l-0.298,0Z" style="fill:#fff;fill-rule:nonzero;"/><path d="M147.259,11.638l-1.135,1.8l-0.463,0l1.281,-1.982l-1.197,-1.947l0.463,0l1.058,1.758l0.321,0l1.148,-1.758l0.455,0l-1.288,1.947l1.246,1.982l-0.469,0l-1.106,-1.8l-0.314,0l0,0Z" style="fill:#fff;fill-rule:nonzero;"/><path d="M150.458,13.417c-0.035,0.042 -0.127,0.056 -0.211,0.056c-0.104,0 -0.177,-0.021 -0.218,-0.063c-0.043,-0.042 -0.057,-0.112 -0.057,-0.217c0,-0.105 0.043,-0.189 0.084,-0.224c0.043,-0.021 0.104,-0.042 0.202,-0.042c0.084,0 0.169,0.014 0.203,0.049c0.05,0.035 0.07,0.119 0.07,0.217c0.004,0.091 -0.017,0.175 -0.073,0.224Z" style="fill:#fff;fill-rule:nonzero;"/><path d="M156.97,13.438l-3.02,-4.861l-0.127,0l0,4.861l-0.386,0l0,-5.253l0.729,0l2.99,4.819l0.135,0l0,-4.819l0.385,0l0,5.253l-0.706,0Z" style="fill:#fff;fill-rule:nonzero;"/><path d="M162.156,13.053c-0.273,0.28 -0.672,0.469 -1.365,0.469c-0.65,0 -1.063,-0.182 -1.324,-0.476c-0.225,-0.259 -0.428,-0.722 -0.428,-1.478c0,-0.763 0.203,-1.379 0.563,-1.716c0.279,-0.266 0.715,-0.448 1.338,-0.448c0.598,0 1.008,0.168 1.254,0.413c0.287,0.301 0.462,0.756 0.462,1.569c-0.003,0.77 -0.199,1.352 -0.5,1.667Zm-0.336,-0.21c0.244,-0.252 0.42,-0.687 0.42,-1.387c0,-0.806 -0.154,-1.142 -0.363,-1.359c-0.195,-0.203 -0.498,-0.329 -0.986,-0.329c-0.482,0 -0.807,0.154 -0.988,0.322c-0.236,0.217 -0.455,0.714 -0.455,1.429c0,0.588 0.135,1.037 0.33,1.261c0.188,0.217 0.49,0.392 1.059,0.392c0.43,0 0.78,-0.126 0.983,-0.329Z" style="fill:#fff;fill-rule:nonzero;"/><path d="M166.664,7.73l0.414,0l0,5.708l-0.314,0l-0.1,-0.371l-0.021,0c-0.069,0.077 -0.202,0.231 -0.244,0.259c-0.119,0.077 -0.478,0.196 -1.017,0.196c-0.553,0 -0.909,-0.112 -1.155,-0.315c-0.272,-0.231 -0.497,-0.722 -0.497,-1.618c0,-0.792 0.195,-1.415 0.54,-1.737c0.278,-0.273 0.679,-0.413 1.274,-0.413c0.47,0 0.791,0.063 1.119,0.147l0,-1.856l0.001,0Zm-2.116,5.183c0.184,0.161 0.533,0.252 0.945,0.252c0.394,0 0.819,-0.07 1.17,-0.238l0,-3.033c-0.267,-0.035 -0.629,-0.105 -1.063,-0.105c-0.49,0 -0.813,0.098 -1.037,0.308c-0.237,0.224 -0.412,0.708 -0.412,1.464c-0.001,0.771 0.181,1.163 0.397,1.352Z" style="fill:#fff;fill-rule:nonzero;"/><path d="M170.149,9.432c1.12,0 1.491,0.567 1.491,1.576l0,0.483l-2.864,0c0,1.072 0.31,1.653 1.408,1.653c0.567,0 1.028,-0.091 1.302,-0.133l-0.027,0.336c-0.278,0.07 -0.783,0.168 -1.322,0.168c-1.311,0 -1.778,-0.672 -1.778,-2.01c-0.003,-1.373 0.557,-2.073 1.79,-2.073Zm-1.358,1.744l2.451,0l0,-0.14c0,-0.869 -0.287,-1.268 -1.135,-1.268c-0.904,0 -1.26,0.476 -1.316,1.408Z" style="fill:#fff;fill-rule:nonzero;"/></g><g><path d="M207.625,13.438l-0.658,-1.793l-2.563,0l-0.708,1.793l-0.427,0l2.102,-5.253l0.75,0l1.961,5.253l-0.457,0Zm-1.786,-4.868l-0.226,0l-1.077,2.71l2.305,0l-1.002,-2.71Z" style="fill:#fff;fill-rule:nonzero;"/><path d="M211.964,13.438l-0.104,-0.42l-0.043,0c-0.014,0.028 -0.183,0.245 -0.194,0.252c-0.197,0.098 -0.658,0.217 -1.147,0.217c-0.565,0 -0.86,-0.119 -1.078,-0.343c-0.203,-0.217 -0.321,-0.546 -0.321,-1.086l0,-2.549l0.405,0l0,2.396c0,0.532 0.099,0.805 0.258,0.974c0.171,0.175 0.464,0.245 0.892,0.245c0.455,0 0.91,-0.119 1.226,-0.259l0,-3.356l0.406,0l0,3.929l-0.3,0Z" style="fill:#fff;fill-rule:nonzero;"/><path d="M214.826,11.638l-1.135,1.8l-0.462,0l1.282,-1.982l-1.198,-1.947l0.462,0l1.059,1.758l0.321,0l1.149,-1.758l0.455,0l-1.289,1.947l1.246,1.982l-0.469,0l-1.106,-1.8l-0.315,0l0,0Z" style="fill:#fff;fill-rule:nonzero;"/><path d="M218.025,13.417c-0.035,0.042 -0.127,0.056 -0.211,0.056c-0.104,0 -0.175,-0.021 -0.217,-0.063c-0.042,-0.042 -0.057,-0.112 -0.057,-0.217c0,-0.105 0.043,-0.189 0.084,-0.224c0.043,-0.021 0.104,-0.042 0.203,-0.042c0.084,0 0.168,0.014 0.202,0.049c0.05,0.035 0.069,0.119 0.069,0.217c0.004,0.091 -0.016,0.175 -0.073,0.224Z" style="fill:#fff;fill-rule:nonzero;"/><path d="M224.537,13.438l-3.02,-4.861l-0.126,0l0,4.861l-0.386,0l0,-5.253l0.729,0l2.991,4.819l0.134,0l0,-4.819l0.385,0l0,5.253l-0.707,0Z" style="fill:#fff;fill-rule:nonzero;"/><path d="M229.723,13.053c-0.272,0.28 -0.673,0.469 -1.365,0.469c-0.651,0 -1.063,-0.182 -1.323,-0.476c-0.225,-0.259 -0.428,-0.722 -0.428,-1.478c0,-0.763 0.203,-1.379 0.561,-1.716c0.281,-0.266 0.715,-0.448 1.338,-0.448c0.597,0 1.01,0.168 1.254,0.413c0.287,0.301 0.464,0.756 0.464,1.569c-0.003,0.77 -0.2,1.352 -0.501,1.667Zm-0.336,-0.21c0.245,-0.252 0.42,-0.687 0.42,-1.387c0,-0.806 -0.154,-1.142 -0.363,-1.359c-0.196,-0.203 -0.498,-0.329 -0.987,-0.329c-0.481,0 -0.806,0.154 -0.988,0.322c-0.236,0.217 -0.453,0.714 -0.453,1.429c0,0.588 0.133,1.037 0.328,1.261c0.189,0.217 0.49,0.392 1.059,0.392c0.43,0 0.781,-0.126 0.984,-0.329Z" style="fill:#fff;fill-rule:nonzero;"/><path d="M234.23,7.73l0.414,0l0,5.708l-0.314,0l-0.1,-0.371l-0.021,0c-0.067,0.077 -0.201,0.231 -0.244,0.259c-0.118,0.077 -0.478,0.196 -1.016,0.196c-0.554,0 -0.91,-0.112 -1.156,-0.315c-0.271,-0.231 -0.496,-0.722 -0.496,-1.618c0,-0.792 0.195,-1.415 0.539,-1.737c0.279,-0.273 0.681,-0.413 1.274,-0.413c0.47,0 0.791,0.063 1.119,0.147l0.001,-1.856Zm-2.113,5.183c0.182,0.161 0.531,0.252 0.944,0.252c0.392,0 0.819,-0.07 1.169,-0.238l0,-3.033c-0.266,-0.035 -0.629,-0.105 -1.064,-0.105c-0.49,0 -0.813,0.098 -1.035,0.308c-0.236,0.224 -0.414,0.708 -0.414,1.464c-0.001,0.771 0.181,1.163 0.4,1.352Z" style="fill:#fff;fill-rule:nonzero;"/><path d="M237.716,9.432c1.121,0 1.492,0.567 1.492,1.576l0,0.483l-2.864,0c0,1.072 0.309,1.653 1.407,1.653c0.565,0 1.028,-0.091 1.303,-0.133l-0.028,0.336c-0.278,0.07 -0.782,0.168 -1.323,0.168c-1.31,0 -1.777,-0.672 -1.777,-2.01c-0.003,-1.373 0.557,-2.073 1.79,-2.073Zm-1.359,1.744l2.451,0l0,-0.14c0,-0.869 -0.287,-1.268 -1.135,-1.268c-0.902,0 -1.259,0.476 -1.316,1.408Z" style="fill:#fff;fill-rule:nonzero;"/></g><g><path d="M72.489,13.438l-0.658,-1.793l-2.563,0l-0.708,1.793l-0.427,0l2.101,-5.253l0.75,0l1.961,5.253l-0.456,0Zm-1.786,-4.868l-0.224,0l-1.079,2.71l2.304,0l-1.001,-2.71Z" style="fill:#fff;fill-rule:nonzero;"/><path d="M76.828,13.438l-0.105,-0.42l-0.042,0c-0.014,0.028 -0.182,0.245 -0.196,0.252c-0.196,0.098 -0.658,0.217 -1.149,0.217c-0.567,0 -0.861,-0.119 -1.078,-0.343c-0.203,-0.217 -0.322,-0.546 -0.322,-1.086l0,-2.549l0.406,0l0,2.396c0,0.532 0.098,0.805 0.259,0.974c0.168,0.175 0.462,0.245 0.89,0.245c0.455,0 0.911,-0.119 1.226,-0.259l0,-3.356l0.406,0l0,3.929l-0.295,0Z" style="fill:#fff;fill-rule:nonzero;"/><path d="M79.69,11.638l-1.135,1.8l-0.462,0l1.282,-1.982l-1.198,-1.947l0.462,0l1.057,1.758l0.322,0l1.149,-1.758l0.455,0l-1.289,1.947l1.247,1.982l-0.469,0l-1.106,-1.8l-0.315,0l0,0Z" style="fill:#fff;fill-rule:nonzero;"/><path d="M82.889,13.417c-0.035,0.042 -0.126,0.056 -0.21,0.056c-0.105,0 -0.175,-0.021 -0.217,-0.063c-0.042,-0.042 -0.056,-0.112 -0.056,-0.217c0,-0.105 0.042,-0.189 0.084,-0.224c0.042,-0.021 0.105,-0.042 0.203,-0.042c0.084,0 0.168,0.014 0.203,0.049c0.049,0.035 0.07,0.119 0.07,0.217c0,0.091 -0.021,0.175 -0.077,0.224Z" style="fill:#fff;fill-rule:nonzero;"/><path d="M89.4,13.438l-3.019,-4.861l-0.126,0l0,4.861l-0.385,0l0,-5.253l0.728,0l2.991,4.819l0.133,0l0,-4.819l0.385,0l0,5.253l-0.707,0Z" style="fill:#fff;fill-rule:nonzero;"/><path d="M94.587,13.053c-0.273,0.28 -0.672,0.469 -1.366,0.469c-0.651,0 -1.065,-0.182 -1.324,-0.476c-0.224,-0.259 -0.427,-0.722 -0.427,-1.478c0,-0.763 0.203,-1.379 0.56,-1.716c0.28,-0.266 0.714,-0.448 1.338,-0.448c0.595,0 1.008,0.168 1.254,0.413c0.287,0.301 0.462,0.756 0.462,1.569c0,0.77 -0.196,1.352 -0.497,1.667Zm-0.337,-0.21c0.245,-0.252 0.42,-0.687 0.42,-1.387c0,-0.806 -0.154,-1.142 -0.364,-1.359c-0.196,-0.203 -0.497,-0.329 -0.987,-0.329c-0.483,0 -0.806,0.154 -0.988,0.322c-0.238,0.217 -0.455,0.714 -0.455,1.429c0,0.588 0.133,1.037 0.329,1.261c0.189,0.217 0.49,0.392 1.058,0.392c0.434,0 0.784,-0.126 0.987,-0.329Z" style="fill:#fff;fill-rule:nonzero;"/><path d="M99.095,7.73l0.414,0l0,5.708l-0.315,0l-0.098,-0.371l-0.021,0c-0.07,0.077 -0.203,0.231 -0.245,0.259c-0.119,0.077 -0.476,0.196 -1.015,0.196c-0.554,0 -0.911,-0.112 -1.156,-0.315c-0.273,-0.231 -0.498,-0.722 -0.498,-1.618c0,-0.792 0.196,-1.415 0.54,-1.737c0.28,-0.273 0.679,-0.413 1.275,-0.413c0.469,0 0.791,0.063 1.12,0.147l-0.001,-1.856Zm-2.115,5.183c0.182,0.161 0.532,0.252 0.945,0.252c0.392,0 0.819,-0.07 1.169,-0.238l0,-3.033c-0.266,-0.035 -0.63,-0.105 -1.064,-0.105c-0.49,0 -0.813,0.098 -1.037,0.308c-0.238,0.224 -0.413,0.708 -0.413,1.464c0.001,0.771 0.183,1.163 0.4,1.352Z" style="fill:#fff;fill-rule:nonzero;"/><path d="M102.58,9.432c1.121,0 1.492,0.567 1.492,1.576l0,0.483l-2.865,0c0,1.072 0.309,1.653 1.408,1.653c0.567,0 1.029,-0.091 1.302,-0.133l-0.028,0.336c-0.28,0.07 -0.784,0.168 -1.324,0.168c-1.31,0 -1.779,-0.672 -1.779,-2.01c0.001,-1.373 0.561,-2.073 1.794,-2.073Zm-1.359,1.744l2.451,0l0,-0.14c0,-0.869 -0.287,-1.268 -1.134,-1.268c-0.904,0 -1.261,0.476 -1.317,1.408Z" style="fill:#fff;fill-rule:nonzero;"/></g><g><path d="M22.924,42.375l0,7.345l-1.392,0l0,-18.002l6.865,0c1.56,0 2.712,0.24 3.384,0.769c0.912,0.696 1.488,2.04 1.488,4.2c0,2.112 -0.768,3.864 -1.872,4.656c-1.08,0.769 -2.448,1.032 -5.064,1.032l-3.409,0Zm7.825,-8.833c-0.6,-0.456 -1.584,-0.6 -2.904,-0.6l-4.92,0l0,8.16l3.384,0c2.136,0 3.408,-0.144 4.056,-0.624c0.816,-0.575 1.464,-1.8 1.464,-3.744c0,-1.679 -0.432,-2.712 -1.08,-3.192Z" style="fill:#fff;fill-rule:nonzero;"/><path d="M48.389,49.72l-11.041,0l0,-18.002l10.993,0l-0.336,1.272l-9.265,0l0,6.913l8.161,0l-0.312,1.248l-7.849,0l0,7.296l10.057,0l-0.408,1.273Z" style="fill:#fff;fill-rule:nonzero;"/><path d="M58.012,31.718c2.808,0 4.104,0.288 4.873,0.864c0.816,0.576 1.368,1.681 1.368,3.696c0,1.824 -0.672,3.265 -1.392,3.937c-0.264,0.216 -1.249,0.769 -2.232,1.104l0,0.048c0.504,0.24 1.2,0.647 1.464,0.936c0.72,0.889 2.016,3.889 3.552,7.417l-1.536,0c-2.064,-4.704 -3.097,-6.913 -4.033,-7.488c-0.48,-0.313 -1.752,-0.408 -3.576,-0.408l-2.496,0l0,7.896l-1.416,0l0,-18.002l5.424,0Zm-4.008,8.857l3.792,0c1.536,0 2.496,-0.145 3.072,-0.36c1.08,-0.432 1.944,-1.8 1.944,-3.744c0,-1.464 -0.36,-2.376 -0.936,-2.809c-0.576,-0.456 -1.536,-0.72 -3.96,-0.72l-3.912,0l0,7.633Z" style="fill:#fff;fill-rule:nonzero;"/></g></g><g><path d="M90.797,65.401c-0.729,-0.084 -1.457,-0.21 -2.788,-0.21c-1.513,0 -2.353,0.322 -2.927,0.77c-0.645,0.52 -1.289,1.906 -1.289,3.895c0,1.765 0.351,3.082 1.009,3.74c0.546,0.546 1.443,0.841 2.914,0.841c1.205,0 2.339,-0.211 3.082,-0.351l0,0.7c-0.854,0.225 -2.031,0.42 -3.236,0.42c-1.793,0 -2.689,-0.364 -3.417,-1.05c-0.645,-0.631 -1.205,-1.919 -1.205,-4.175c0,-2.689 0.91,-4.034 1.555,-4.552c0.687,-0.589 1.681,-1.009 3.502,-1.009c1.261,0 2.073,0.14 2.801,0.267l0,0.714l-0.001,0Z" style="fill:#fff;fill-rule:nonzero;"/><path d="M98.426,75.066l0,-4.846c0,-1.009 -0.182,-1.61 -0.532,-1.933c-0.35,-0.309 -0.868,-0.477 -1.709,-0.477c-0.966,0 -1.919,0.266 -2.493,0.547l0,6.709l-0.813,0l0,-11.345l0.813,0l0,4.314l0.056,0c0.042,-0.07 0.378,-0.449 0.434,-0.477c0.364,-0.225 1.289,-0.463 2.269,-0.463c1.135,0 1.723,0.211 2.157,0.617c0.435,0.434 0.645,1.148 0.645,2.227l0,5.127l-0.827,0Z" style="fill:#fff;fill-rule:nonzero;"/><path d="M102.511,67.208l0.196,0.868l0.084,0c0.042,-0.056 0.378,-0.462 0.406,-0.49c0.378,-0.224 1.093,-0.49 2.073,-0.49c0.392,0 0.687,0.028 0.896,0.057l0,0.784c-0.238,-0.042 -0.645,-0.099 -1.121,-0.099c-0.953,-0.014 -1.849,0.309 -2.325,0.617l0,6.611l-0.813,0l0,-7.858l0.604,0Z" style="fill:#fff;fill-rule:nonzero;"/><path d="M113.084,74.296c-0.546,0.561 -1.345,0.938 -2.732,0.938c-1.302,0 -2.129,-0.364 -2.647,-0.952c-0.448,-0.519 -0.854,-1.443 -0.854,-2.956c0,-1.526 0.406,-2.76 1.121,-3.432c0.56,-0.532 1.429,-0.896 2.675,-0.896c1.19,0 2.017,0.336 2.507,0.826c0.574,0.603 0.924,1.513 0.924,3.138c0,1.541 -0.392,2.704 -0.994,3.334Zm-0.672,-0.42c0.49,-0.505 0.84,-1.373 0.84,-2.773c0,-1.611 -0.308,-2.283 -0.729,-2.718c-0.392,-0.406 -0.995,-0.658 -1.975,-0.658c-0.966,0 -1.611,0.309 -1.975,0.645c-0.476,0.434 -0.911,1.429 -0.911,2.857c0,1.177 0.267,2.073 0.659,2.521c0.378,0.434 0.98,0.784 2.115,0.784c0.869,0 1.57,-0.252 1.976,-0.658Z" style="fill:#fff;fill-rule:nonzero;"/><path d="M126.961,75.066l0,-4.86c0,-1.037 -0.183,-1.583 -0.519,-1.905c-0.336,-0.322 -0.925,-0.477 -1.583,-0.477c-1.009,0 -1.835,0.336 -2.396,0.631l0,6.611l-0.813,0l0,-5.379c0,-0.687 -0.111,-1.106 -0.434,-1.414c-0.337,-0.322 -0.995,-0.449 -1.639,-0.449c-1.023,0 -1.836,0.295 -2.424,0.533l0,6.709l-0.813,0l0,-7.858l0.603,0l0.21,0.827l0.07,0l0.42,-0.463c0.364,-0.195 1.232,-0.477 2.255,-0.477c1.009,0 1.653,0.225 2.088,0.645c0.182,0.168 0.28,0.336 0.35,0.463l0.07,0l0.435,-0.547c0.448,-0.252 1.345,-0.561 2.367,-0.561c0.924,0 1.513,0.211 1.933,0.617c0.448,0.42 0.631,1.134 0.631,2.213l0,5.141l-0.811,0l0,0Z" style="fill:#fff;fill-rule:nonzero;"/><path d="M135.442,75.066l-0.196,-0.854l-0.07,0c-0.112,0.154 -0.309,0.42 -0.378,0.477c-0.238,0.168 -1.079,0.518 -2.438,0.518c-1.093,0 -1.681,-0.266 -2.003,-0.63c-0.28,-0.309 -0.448,-0.799 -0.448,-1.527c0,-0.882 0.308,-1.414 0.616,-1.61c0.603,-0.448 2.199,-0.742 4.706,-0.967c0,-1.358 -0.168,-1.919 -0.434,-2.241c-0.252,-0.294 -0.771,-0.434 -1.653,-0.434c-0.952,0 -2.171,0.224 -2.703,0.322l0,-0.658c0.588,-0.154 1.751,-0.393 2.871,-0.393c1.079,0 1.766,0.182 2.144,0.616c0.35,0.378 0.574,0.967 0.574,2.507l0,4.875l-0.588,0l0,-0.001Zm-0.211,-3.963c-1.82,0.111 -3.852,0.406 -4.174,0.756c-0.21,0.183 -0.351,0.532 -0.351,1.121c0,0.504 0.126,0.868 0.322,1.093c0.238,0.252 0.742,0.448 1.597,0.448c1.191,0 2.186,-0.337 2.605,-0.547l0,-2.871l0.001,0Z" style="fill:#fff;fill-rule:nonzero;"/><path d="M139.378,68.357c-0.574,0.531 -0.869,1.526 -0.869,2.871c0,1.288 0.268,2.157 0.813,2.661c0.463,0.435 1.148,0.603 2.004,0.603c0.994,0 1.793,-0.154 2.34,-0.238l0,0.631c-0.547,0.153 -1.359,0.35 -2.467,0.35c-1.105,0 -1.947,-0.252 -2.492,-0.771c-0.729,-0.672 -1.051,-1.765 -1.051,-3.138c0,-1.568 0.377,-2.773 1.121,-3.459c0.602,-0.589 1.484,-0.869 2.66,-0.869c0.939,0 1.709,0.126 2.229,0.225l0,0.699c-0.49,-0.069 -1.219,-0.182 -2.145,-0.182c-0.952,0 -1.696,0.182 -2.143,0.617Z" style="fill:#fff;fill-rule:nonzero;"/><path d="M148.718,67.055c2.24,0 2.982,1.134 2.982,3.151l0,0.966l-5.729,0c0,2.144 0.617,3.307 2.816,3.307c1.133,0 2.059,-0.183 2.604,-0.267l-0.055,0.673c-0.561,0.14 -1.568,0.336 -2.648,0.336c-2.619,0 -3.557,-1.345 -3.557,-4.021c0.001,-2.745 1.12,-4.145 3.587,-4.145Zm-2.719,3.487l4.902,0l0,-0.28c0,-1.736 -0.574,-2.535 -2.268,-2.535c-1.808,0 -2.521,0.952 -2.634,2.815Z" style="fill:#fff;fill-rule:nonzero;"/><path d="M154.651,78.891l-0.813,0l0,-11.683l0.617,0l0.195,0.7l0.057,0c0.111,-0.154 0.406,-0.447 0.49,-0.49c0.238,-0.154 1.148,-0.378 2.102,-0.378c1.078,0 1.736,0.183 2.24,0.63c0.547,0.463 0.994,1.43 0.994,3.208c0,1.667 -0.434,2.844 -1.092,3.502c-0.518,0.505 -1.303,0.813 -2.494,0.813c-0.938,0 -1.666,-0.126 -2.297,-0.266l0,3.964l0.001,0Zm4.26,-10.661c-0.393,-0.322 -1.01,-0.477 -1.906,-0.477c-0.813,0 -1.652,0.141 -2.354,0.463l0,6.065c0.547,0.084 1.303,0.21 2.158,0.21c0.98,0 1.611,-0.168 2.045,-0.603c0.477,-0.448 0.84,-1.429 0.84,-2.941c0,-1.484 -0.336,-2.31 -0.783,-2.717Z" style="fill:#fff;fill-rule:nonzero;"/><path d="M166.708,67.895l-2.789,0l0,5.239c0,1.064 0.492,1.288 1.373,1.288c0.645,0 1.232,-0.098 1.541,-0.14l-0.07,0.687c-0.42,0.084 -1.078,0.182 -1.68,0.182c-1.4,0 -1.975,-0.504 -1.975,-1.863l0,-5.393l-1.625,0l0.111,-0.687l1.514,0l0,-1.639l0.811,-0.21l0,1.849l2.943,0l-0.154,0.687Z" style="fill:#fff;fill-rule:nonzero;"/><path d="M169.491,64.953c-0.084,0.07 -0.236,0.098 -0.391,0.098c-0.197,0 -0.322,-0.027 -0.393,-0.111c-0.07,-0.07 -0.113,-0.211 -0.113,-0.393c0,-0.211 0.057,-0.364 0.17,-0.42c0.041,-0.057 0.182,-0.099 0.363,-0.099c0.168,0 0.295,0.028 0.363,0.099c0.1,0.084 0.127,0.224 0.127,0.406c0.001,0.182 -0.026,0.35 -0.126,0.42Zm-0.812,10.113l0,-7.858l0.813,0l0,7.858l-0.813,0Z" style="fill:#fff;fill-rule:nonzero;"/><path d="M178.007,74.296c-0.547,0.561 -1.346,0.938 -2.732,0.938c-1.303,0 -2.129,-0.364 -2.646,-0.952c-0.449,-0.519 -0.855,-1.443 -0.855,-2.956c0,-1.526 0.406,-2.76 1.121,-3.432c0.561,-0.532 1.428,-0.896 2.676,-0.896c1.189,0 2.016,0.336 2.508,0.826c0.574,0.603 0.924,1.513 0.924,3.138c-0.002,1.541 -0.395,2.704 -0.996,3.334Zm-0.674,-0.42c0.49,-0.505 0.842,-1.373 0.842,-2.773c0,-1.611 -0.309,-2.283 -0.729,-2.718c-0.393,-0.406 -0.994,-0.658 -1.975,-0.658c-0.967,0 -1.611,0.309 -1.977,0.645c-0.477,0.434 -0.91,1.429 -0.91,2.857c0,1.177 0.266,2.073 0.658,2.521c0.379,0.434 0.98,0.784 2.115,0.784c0.871,0 1.57,-0.252 1.976,-0.658Z" style="fill:#fff;fill-rule:nonzero;"/><path d="M186.841,75.066l0,-4.86c0,-0.995 -0.197,-1.569 -0.547,-1.905c-0.35,-0.336 -0.967,-0.477 -1.695,-0.477c-1.008,0 -1.891,0.267 -2.508,0.519l0,6.724l-0.813,0l0,-7.858l0.59,0l0.223,0.827l0.07,0c0.043,-0.057 0.365,-0.421 0.406,-0.449c0.379,-0.209 1.387,-0.49 2.383,-0.49c1.021,0 1.623,0.225 2.045,0.645c0.434,0.406 0.658,1.121 0.658,2.186l0,5.141l-0.812,0l0,-0.003Z" style="fill:#fff;fill-rule:nonzero;"/></g></svg>