<?xml version="1.0" encoding="utf-8"?>
<!-- Generator: Adobe Illustrator 16.0.2, SVG Export Plug-In . SVG Version: 6.00 Build 0)  -->
<!DOCTYPE svg PUBLIC "-//W3C//DTD SVG 1.1//EN" "http://www.w3.org/Graphics/SVG/1.1/DTD/svg11.dtd">
<svg version="1.1" id="Layer_1" xmlns="http://www.w3.org/2000/svg" xmlns:xlink="http://www.w3.org/1999/xlink" x="0px" y="0px"
	 width="283.46px" height="85.039px" viewBox="0 0 283.46 85.039" enable-background="new 0 0 283.46 85.039" xml:space="preserve">
<g id="primary">
	<path fill="#601D62" d="M4.122,42.045l39.241,39.24l39.24-39.239L43.362,2.804L4.122,42.045z"/>
	<path fill="#601D62" d="M4.122,42.045l39.241,39.24l39.24-39.239L43.362,2.804L4.122,42.045z"/>
	<path fill="#601D62" d="M87.307,53.256l-5.558,5.559l52.844-0.001l-22.471,22.47L50.34,81.285l28.052-28.029h-5.04l5.606-5.605
		h-3.875V36.438h3.873l-5.606-5.606h5.042L50.34,2.803l61.782,0.002l22.471,22.47l-52.844-0.001l5.558,5.558h52.841l5.605,5.606
		h1.959l-5.605-5.606h0.003L114.058,2.803l61.782,0.002l22.471,22.47l-52.844-0.001l5.559,5.558h52.848l5.605,5.606h1.961
		l-5.606-5.606h0.002L177.783,2.803l61.781,0.002l22.473,22.47l-52.846-0.001l5.559,5.558h52.848l11.214,11.213l-11.21,11.21H214.75
		l-5.559,5.559l52.846-0.001l-22.473,22.47l-61.781,0.002l28.052-28.029l5.606-5.605h-1.961l-5.605,5.605h-52.85l-5.559,5.559
		l52.844-0.001l-22.471,22.47l-61.782,0.002l28.052-28.029l5.605-5.605h-1.96l-5.605,5.605H87.307L87.307,53.256z"/>
	<g>
		<g>
			<path fill="#FFFFFF" d="M91.592,47.26v-0.706h3.061V37.44l-3.061,0.554v-0.706l3.85-0.679v9.945h2.771v0.706H91.592z"/>
			<path fill="#FFFFFF" d="M113.979,47.26h-7.133v-0.83c0.125-1.524,0.955-2.508,3.394-3.699c1.552-0.775,2.23-1.177,2.591-1.648
				c0.305-0.43,0.388-0.983,0.388-1.524c0-1.427-0.526-2.078-2.784-2.078c-1.233,0-2.562,0.305-3.172,0.443v-0.721
				c0.816-0.222,2.091-0.472,3.337-0.472c2.646,0,3.477,0.859,3.477,2.729c0,0.942-0.208,1.593-0.526,1.995
				c-0.54,0.706-1.607,1.247-2.964,1.912c-2.534,1.232-2.936,2.105-2.964,3.145h6.565L113.979,47.26z"/>
			<path fill="#FFFFFF" d="M128.612,41.374l-1.123,0.526v0.056l1.177,0.415c0.472,0.389,0.845,1.274,0.845,2.175
				c0,1.994-1.135,2.854-3.948,2.854c-1.163,0-2.188-0.152-2.798-0.291v-0.706c0.638,0.11,1.759,0.277,2.798,0.277
				c2.576,0,3.117-0.845,3.117-2.134c0-1.841-1.233-2.188-2.799-2.188h-1.98v-0.721h1.801c1.357,0,2.784-0.346,2.784-2.147
				c0-1.33-0.499-2.022-2.604-2.022c-1.108,0-2.174,0.221-2.895,0.374v-0.693c0.749-0.194,1.897-0.416,3.034-0.416
				c2.493,0,3.283,0.873,3.283,2.646C129.304,40.348,128.875,41.123,128.612,41.374L128.612,41.374z"/>
		</g>
		<g>
			<path fill="#FFFFFF" d="M166.171,47.26h-0.762v-2.949h-5.334v-0.805l4.586-6.635h1.51v6.746h2.327l-0.208,0.693h-2.121
				L166.171,47.26L166.171,47.26z M165.41,43.617v-6.066h-0.374l-4.058,5.887v0.18H165.41L165.41,43.617z"/>
			<path fill="#FFFFFF" d="M179.209,47.398c-0.954,0-1.965-0.139-2.687-0.249v-0.735c0.664,0.098,1.689,0.236,2.729,0.236
				c2.397,0,3.229-0.68,3.229-2.396c0-1.828-0.581-2.299-2.715-2.299c-0.982,0-2.313,0.208-2.922,0.291v-5.375h6.15v0.706h-5.429
				v3.906c0.581-0.097,1.384-0.25,2.451-0.25c2.411,0,3.297,0.638,3.297,2.909C183.31,46.332,182.299,47.398,179.209,47.398z"/>
			<path fill="#FFFFFF" d="M192.819,42.19h0.067l0.443-0.457c0.597-0.222,1.676-0.526,2.938-0.526c2.451,0,3.269,1.024,3.269,2.95
				c0,2.008-1.04,3.241-3.712,3.241c-2.908,0-3.811-1.842-3.811-4.904c0-1.925,0.541-3.311,1.358-4.183
				c0.956-0.998,2.479-1.621,5.153-1.648l0.275,0.735c-2.604,0.014-4.018,0.554-4.848,1.44
				C193.302,39.53,192.873,40.708,192.819,42.19L192.819,42.19z M196.003,41.927c-1.232,0-2.369,0.305-3.186,0.623
				c0.026,2.868,0.928,4.127,3.045,4.127c1.982,0,2.868-0.775,2.868-2.451C198.732,42.62,198.08,41.927,196.003,41.927z"/>
		</g>
		<g>
			<path fill="#FFFFFF" d="M228.28,37.8v-0.194h-6.244l0.222-0.735h6.91v0.915l-4.959,9.474h-0.899L228.28,37.8L228.28,37.8z"/>
			<path fill="#FFFFFF" d="M238.8,42.439l0.939-0.513v-0.069l-0.83-0.429c-0.359-0.36-0.707-0.873-0.707-1.828
				c0-1.676,1.053-2.881,3.49-2.881c2.424,0,3.324,1.08,3.324,2.631c0,0.984-0.416,1.58-0.805,1.995l-0.857,0.513v0.069l1.052,0.389
				c0.556,0.443,0.873,1.15,0.873,2.091c0,1.718-1.067,2.992-3.795,2.992c-2.575,0-3.644-1.025-3.644-2.783
				C237.843,43.729,238.204,42.993,238.8,42.439L238.8,42.439z M238.662,44.518c0,1.385,0.804,2.174,2.908,2.174
				c2.146,0,2.895-1.011,2.895-2.202c0-1.897-1.205-2.05-4.294-2.383C239.408,42.605,238.662,43.285,238.662,44.518L238.662,44.518z
				 M239.021,39.53c0,1.704,1.082,1.939,3.795,2.188c0.873-0.54,1.371-1.247,1.371-2.271c0-1.33-0.748-2.022-2.574-2.022
				C239.7,37.426,239.021,38.367,239.021,39.53L239.021,39.53z"/>
			<path fill="#FFFFFF" d="M260.273,41.955h-0.068l-0.431,0.457c-0.567,0.235-1.634,0.513-2.825,0.513
				c-2.479,0-3.352-0.998-3.352-2.909c0-2.188,1.372-3.283,3.697-3.283c2.715,0,3.781,1.51,3.781,4.807
				c0,1.98-0.539,3.435-1.357,4.293c-0.914,0.998-2.479,1.593-5.167,1.648l-0.265-0.763c2.563-0.014,4.059-0.525,4.862-1.398
				C259.775,44.615,260.232,43.451,260.273,41.955z M257.13,42.204c1.246,0,2.369-0.291,3.145-0.582
				c-0.027-2.937-0.873-4.169-3.032-4.169c-1.938,0-2.841,0.928-2.841,2.508C254.402,41.512,255.093,42.204,257.13,42.204
				L257.13,42.204z"/>
		</g>
	</g>
	<g id="v1">
		<path fill="#FFFFFF" d="M141.397,68.991c0.808,0,1.231-0.081,1.563-0.318c0.342-0.245,0.579-0.786,0.579-1.438
			c0-0.668-0.179-1.083-0.46-1.299c-0.207-0.163-0.563-0.236-1.045-0.236h-2.121v5.562h0.43v-2.27H141.397z M143.095,67.249
			c0,0.601-0.2,0.979-0.453,1.157c-0.2,0.148-0.593,0.192-1.253,0.192h-1.045v-2.521h1.52c0.409,0,0.712,0.044,0.898,0.185
			C142.96,66.41,143.095,66.73,143.095,67.249z"/>
		<path fill="#FFFFFF" d="M144.734,67.101v4.16h0.43V67.76c0.253-0.162,0.728-0.333,1.232-0.326c0.252,0,0.466,0.03,0.593,0.053
			v-0.415c-0.112-0.015-0.267-0.03-0.475-0.03c-0.52,0-0.897,0.141-1.098,0.26c-0.015,0.015-0.192,0.23-0.216,0.26h-0.045
			l-0.104-0.46H144.734z"/>
		<path fill="#FFFFFF" d="M147.5,69.214c0,1.417,0.498,2.129,1.884,2.129c0.571,0,1.106-0.104,1.402-0.178l0.03-0.356
			c-0.291,0.045-0.779,0.141-1.38,0.141c-1.165,0-1.491-0.615-1.491-1.75h3.033v-0.512c0-1.067-0.393-1.669-1.58-1.669
			C148.093,67.019,147.5,67.76,147.5,69.214L147.5,69.214z M149.354,67.375c0.897,0,1.201,0.423,1.201,1.342v0.148h-2.596
			C148.019,67.879,148.398,67.375,149.354,67.375z"/>
		<path fill="#FFFFFF" d="M154.093,67.383c0.489,0,0.875,0.059,1.135,0.096v-0.371c-0.274-0.051-0.683-0.119-1.18-0.119
			c-0.623,0-1.09,0.148-1.408,0.461c-0.395,0.363-0.594,1.001-0.594,1.832c0,0.727,0.17,1.305,0.556,1.661
			c0.29,0.274,0.735,0.407,1.32,0.407c0.587,0,1.017-0.104,1.306-0.185V70.83c-0.289,0.045-0.713,0.127-1.238,0.127
			c-0.453,0-0.816-0.089-1.062-0.319c-0.288-0.267-0.43-0.727-0.43-1.409c0-0.712,0.156-1.238,0.46-1.52
			C153.195,67.479,153.589,67.383,154.093,67.383z"/>
		<path fill="#FFFFFF" d="M156.867,71.261v-4.16h-0.43v4.16H156.867z M156.933,65.684c0-0.096-0.015-0.17-0.066-0.215
			c-0.037-0.037-0.104-0.052-0.192-0.052c-0.097,0-0.171,0.022-0.192,0.052c-0.061,0.03-0.09,0.111-0.09,0.223
			c0,0.096,0.021,0.17,0.06,0.208c0.036,0.044,0.104,0.06,0.208,0.06c0.08,0,0.162-0.016,0.207-0.053
			C156.918,65.869,156.933,65.781,156.933,65.684z"/>
		<path fill="#FFFFFF" d="M160.938,70.119c0-0.282-0.066-0.52-0.215-0.689c-0.156-0.178-0.475-0.305-1.083-0.445
			c-0.563-0.127-0.823-0.23-0.949-0.379c-0.097-0.11-0.126-0.267-0.126-0.422c0-0.527,0.252-0.824,1.127-0.824
			c0.438,0,0.786,0.045,1.105,0.098v-0.356c-0.252-0.052-0.652-0.111-1.112-0.111c-1.105,0-1.543,0.452-1.543,1.216
			c0,0.237,0.052,0.482,0.186,0.638c0.207,0.261,0.557,0.371,1.143,0.513c0.504,0.118,0.785,0.215,0.919,0.363
			c0.089,0.118,0.126,0.274,0.126,0.43c0,0.527-0.236,0.794-1.172,0.794c-0.452,0-0.912-0.067-1.215-0.126v0.363
			c0.296,0.074,0.801,0.133,1.215,0.133C160.605,71.313,160.938,70.854,160.938,70.119L160.938,70.119z"/>
		<path fill="#FFFFFF" d="M162.628,71.261v-4.16h-0.43v4.16H162.628z M162.697,65.684c0-0.096-0.016-0.17-0.068-0.215
			c-0.036-0.037-0.104-0.052-0.192-0.052c-0.097,0-0.17,0.022-0.192,0.052c-0.06,0.03-0.09,0.111-0.09,0.223
			c0,0.096,0.023,0.17,0.06,0.208c0.038,0.044,0.104,0.06,0.208,0.06c0.082,0,0.163-0.016,0.207-0.053
			C162.681,65.869,162.697,65.781,162.697,65.684z"/>
		<path fill="#FFFFFF" d="M167.814,69.088c0-0.859-0.187-1.342-0.49-1.661c-0.26-0.26-0.697-0.438-1.328-0.438
			c-0.659,0-1.119,0.192-1.416,0.475c-0.379,0.355-0.594,1.009-0.594,1.817c0,0.801,0.215,1.29,0.453,1.564
			c0.274,0.311,0.711,0.504,1.401,0.504c0.733,0,1.157-0.199,1.446-0.496C167.605,70.52,167.814,69.904,167.814,69.088z
			 M165.885,70.979c-0.602,0-0.92-0.185-1.12-0.415c-0.208-0.237-0.349-0.712-0.349-1.335c0-0.756,0.229-1.282,0.481-1.513
			c0.193-0.179,0.534-0.341,1.047-0.341c0.519,0,0.837,0.133,1.045,0.349c0.223,0.229,0.385,0.585,0.385,1.438
			c0,0.742-0.184,1.201-0.444,1.469C166.716,70.846,166.345,70.979,165.885,70.979z"/>
		<path fill="#FFFFFF" d="M172.544,71.261v-2.722c0-0.563-0.118-0.941-0.349-1.156c-0.223-0.223-0.541-0.342-1.083-0.342
			c-0.525,0-1.061,0.148-1.261,0.26c-0.021,0.015-0.192,0.207-0.214,0.236H169.6l-0.118-0.437h-0.313v4.16h0.431v-3.56
			c0.326-0.134,0.794-0.274,1.328-0.274c0.386,0,0.712,0.074,0.896,0.253c0.187,0.178,0.29,0.48,0.29,1.008v2.573H172.544
			L172.544,71.261z"/>
	</g>
	<g id="v2">
		<path fill="#FFFFFF" d="M203.392,66.809v5.563h0.438v-2.44h0.771c0.563,0,0.957,0.03,1.105,0.126
			c0.288,0.179,0.607,0.861,1.246,2.314h0.475c-0.475-1.091-0.876-2.018-1.098-2.292c-0.082-0.089-0.297-0.215-0.453-0.288v-0.016
			c0.305-0.104,0.607-0.275,0.689-0.341c0.223-0.208,0.431-0.653,0.431-1.216c0-0.623-0.171-0.965-0.423-1.143
			c-0.238-0.178-0.639-0.268-1.506-0.268H203.392L203.392,66.809z M203.83,67.187h1.209c0.748,0,1.045,0.082,1.223,0.223
			c0.179,0.134,0.29,0.415,0.29,0.868c0,0.6-0.267,1.023-0.601,1.157c-0.178,0.065-0.475,0.11-0.949,0.11h-1.172V67.187z"/>
		<path fill="#FFFFFF" d="M211.447,72.371v-2.58c0-0.816-0.119-1.128-0.305-1.328c-0.2-0.23-0.564-0.327-1.135-0.327
			c-0.594,0-1.209,0.127-1.521,0.208v0.35c0.282-0.053,0.927-0.172,1.432-0.172c0.467,0,0.741,0.074,0.875,0.23
			c0.141,0.17,0.229,0.467,0.229,1.187c-1.327,0.118-2.172,0.274-2.492,0.511c-0.162,0.104-0.326,0.387-0.326,0.854
			c0,0.387,0.09,0.645,0.237,0.809c0.171,0.192,0.483,0.334,1.062,0.334c0.719,0,1.164-0.186,1.29-0.275
			c0.036-0.029,0.141-0.17,0.2-0.252h0.037l0.104,0.453H211.447L211.447,72.371z M211.023,71.793
			c-0.223,0.11-0.748,0.289-1.379,0.289c-0.453,0-0.719-0.104-0.846-0.238c-0.104-0.118-0.17-0.311-0.17-0.578
			c0-0.312,0.074-0.496,0.185-0.594c0.171-0.185,1.245-0.341,2.21-0.4V71.793z"/>
		<path fill="#FFFFFF" d="M216.385,72.371v-2.723c0-0.563-0.118-0.941-0.349-1.156c-0.223-0.223-0.541-0.342-1.083-0.342
			c-0.526,0-1.06,0.148-1.261,0.261c-0.021,0.015-0.193,0.208-0.215,0.237h-0.037l-0.119-0.438h-0.311v4.161h0.43v-3.56
			c0.326-0.134,0.794-0.274,1.328-0.274c0.385,0,0.711,0.074,0.896,0.252s0.289,0.482,0.289,1.008v2.574H216.385L216.385,72.371z"/>
		<path fill="#FFFFFF" d="M221.287,68.21h-0.074l-0.199,0.134c-0.371-0.089-0.786-0.178-1.313-0.178
			c-0.704,0-1.149,0.178-1.409,0.43c-0.355,0.355-0.57,1.002-0.57,1.869c0,0.854,0.207,1.379,0.549,1.646
			c0.237,0.192,0.594,0.319,1.179,0.319c0.542,0,0.993-0.104,1.12-0.187c0.045-0.021,0.193-0.199,0.26-0.281h0.029v0.223
			c0,0.934-0.141,1.32-0.348,1.527c-0.193,0.171-0.52,0.297-1.128,0.297c-0.616,0-1.157-0.089-1.446-0.141v0.378
			c0.281,0.052,0.809,0.156,1.469,0.156c0.734,0,1.135-0.171,1.387-0.4c0.289-0.274,0.496-0.728,0.496-1.854V68.21L221.287,68.21z
			 M218.166,70.391c0-0.764,0.17-1.261,0.422-1.52c0.23-0.223,0.586-0.334,1.143-0.334c0.438,0,0.823,0.059,1.127,0.096v3.175
			c-0.371,0.17-0.846,0.244-1.275,0.244c-0.416,0-0.793-0.089-1.009-0.259C218.32,71.592,218.166,71.162,218.166,70.391z"/>
		<path fill="#FFFFFF" d="M222.644,70.324c0,1.416,0.497,2.128,1.885,2.128c0.57,0,1.104-0.104,1.4-0.178l0.029-0.356
			c-0.288,0.045-0.777,0.142-1.379,0.142c-1.164,0-1.49-0.616-1.49-1.75h3.033v-0.513c0-1.067-0.393-1.668-1.58-1.668
			C223.238,68.129,222.644,68.871,222.644,70.324z M224.499,68.485c0.897,0,1.202,0.422,1.202,1.342v0.147h-2.596
			C223.164,68.989,223.542,68.485,224.499,68.485z"/>
		<path fill="#FFFFFF" d="M230.305,68.292c-0.349-0.089-0.689-0.155-1.187-0.155c-0.63,0-1.053,0.147-1.35,0.438
			c-0.363,0.341-0.57,1-0.57,1.839c0,0.949,0.236,1.469,0.525,1.713c0.26,0.216,0.638,0.334,1.225,0.334
			c0.57,0,0.949-0.126,1.074-0.208c0.045-0.029,0.186-0.192,0.26-0.274h0.022l0.104,0.394h0.335v-6.045h-0.438V68.292
			L230.305,68.292z M227.643,70.384c0-0.802,0.185-1.313,0.437-1.551c0.238-0.222,0.579-0.326,1.098-0.326
			c0.461,0,0.846,0.074,1.128,0.112v3.21c-0.371,0.179-0.823,0.253-1.238,0.253c-0.438,0-0.809-0.097-1.001-0.268
			C227.835,71.615,227.643,71.199,227.643,70.384z"/>
		<path fill="#FFFFFF" d="M233.761,70.049h1.795v1.833h0.379v-1.833h1.794v-0.377h-1.794v-1.84h-0.379v1.84h-1.795V70.049z"/>
	</g>
	<g>
		<g id="v3">
			<path fill="#FFFFFF" d="M81.097,12.287l-2.077-5.562h-0.793l-2.225,5.562h0.452l0.75-1.898h2.714l0.697,1.898H81.097z
				 M79.785,10.003h-2.44l1.142-2.871h0.237L79.785,10.003z"/>
			<path fill="#FFFFFF" d="M85.525,12.287V8.126h-0.43v3.553c-0.334,0.148-0.816,0.274-1.298,0.274
				c-0.452,0-0.764-0.074-0.941-0.259c-0.171-0.178-0.275-0.468-0.275-1.031V8.126h-0.43v2.7c0,0.572,0.126,0.919,0.341,1.15
				c0.23,0.237,0.542,0.363,1.142,0.363c0.52,0,1.009-0.125,1.216-0.229c0.015-0.008,0.193-0.237,0.208-0.267h0.044l0.112,0.445
				H85.525z"/>
			<path fill="#FFFFFF" d="M88.581,10.381l1.172,1.906h0.496l-1.32-2.099l1.365-2.062h-0.482l-1.216,1.862h-0.341l-1.121-1.862
				h-0.489l1.269,2.062l-1.357,2.099h0.489l1.202-1.906H88.581L88.581,10.381z"/>
			<path fill="#FFFFFF" d="M91.77,12.287V8.126h-0.43v4.161H91.77z M91.836,6.71c0-0.097-0.015-0.171-0.066-0.215
				c-0.038-0.037-0.104-0.051-0.193-0.051c-0.097,0-0.171,0.021-0.193,0.051c-0.059,0.03-0.089,0.112-0.089,0.223
				c0,0.097,0.022,0.171,0.06,0.208c0.036,0.044,0.104,0.059,0.208,0.059c0.081,0,0.163-0.015,0.208-0.051
				C91.821,6.895,91.836,6.806,91.836,6.71z"/>
			<path fill="#FFFFFF" d="M93.312,6.28v5.064c0,0.697,0.274,0.987,0.875,0.987c0.282,0,0.541-0.044,0.719-0.082v-0.341
				c-0.148,0.023-0.348,0.053-0.593,0.053c-0.348,0-0.571-0.126-0.571-0.661V6.28H93.312z"/>
			<path fill="#FFFFFF" d="M96.226,12.287V8.126h-0.43v4.161H96.226z M96.293,6.71c0-0.097-0.015-0.171-0.067-0.215
				c-0.037-0.037-0.104-0.051-0.193-0.051c-0.096,0-0.17,0.021-0.192,0.051c-0.06,0.03-0.089,0.112-0.089,0.223
				c0,0.097,0.023,0.171,0.06,0.208c0.038,0.044,0.104,0.059,0.208,0.059c0.082,0,0.163-0.015,0.208-0.051
				C96.279,6.895,96.293,6.806,96.293,6.71z"/>
			<path fill="#FFFFFF" d="M100.758,12.287V9.706c0-0.815-0.119-1.127-0.304-1.328c-0.2-0.229-0.564-0.327-1.134-0.327
				c-0.593,0-1.209,0.127-1.521,0.208v0.349c0.282-0.053,0.928-0.171,1.432-0.171c0.466,0,0.741,0.074,0.875,0.23
				c0.14,0.17,0.229,0.467,0.229,1.187c-1.327,0.119-2.173,0.274-2.492,0.511c-0.163,0.104-0.326,0.386-0.326,0.854
				c0,0.386,0.089,0.645,0.237,0.808c0.171,0.192,0.482,0.334,1.061,0.334c0.719,0,1.164-0.186,1.291-0.275
				c0.037-0.03,0.14-0.17,0.2-0.252h0.038l0.104,0.453H100.758z M100.335,11.708c-0.223,0.111-0.749,0.289-1.379,0.289
				c-0.452,0-0.719-0.104-0.846-0.237c-0.104-0.119-0.17-0.312-0.17-0.579c0-0.312,0.074-0.497,0.185-0.593
				c0.171-0.185,1.246-0.341,2.21-0.4V11.708z"/>
			<path fill="#FFFFFF" d="M102.322,8.126v4.161h0.43v-3.5c0.252-0.163,0.727-0.334,1.231-0.326c0.252,0,0.468,0.03,0.593,0.051
				V8.097c-0.11-0.015-0.267-0.03-0.475-0.03c-0.519,0-0.896,0.141-1.098,0.26c-0.015,0.015-0.192,0.229-0.214,0.259h-0.044
				l-0.104-0.46H102.322z"/>
			<path fill="#FFFFFF" d="M108.953,8.126h-0.467l-1.469,3.782h-0.193l-1.387-3.782h-0.467l1.558,4.161h0.341l-0.816,2.032h0.452
				L108.953,8.126z"/>
			<path fill="#FFFFFF" d="M87.487,19.703v-5.562h-0.408v5.103h-0.141l-3.167-5.103H83v5.562h0.409v-5.146h0.133l3.196,5.146H87.487
				z"/>
			<path fill="#FFFFFF" d="M92.759,17.53c0-0.86-0.185-1.342-0.489-1.661c-0.259-0.259-0.697-0.437-1.327-0.437
				c-0.661,0-1.12,0.193-1.417,0.475c-0.377,0.356-0.593,1.009-0.593,1.816c0,0.801,0.216,1.291,0.453,1.565
				c0.273,0.312,0.712,0.504,1.401,0.504c0.735,0,1.157-0.201,1.447-0.498C92.552,18.962,92.759,18.346,92.759,17.53z
				 M90.831,19.421c-0.6,0-0.919-0.186-1.119-0.415c-0.208-0.237-0.349-0.712-0.349-1.335c0-0.756,0.23-1.284,0.482-1.513
				c0.193-0.178,0.534-0.341,1.045-0.341c0.519,0,0.838,0.133,1.046,0.348c0.223,0.23,0.386,0.586,0.386,1.438
				c0,0.742-0.186,1.202-0.445,1.468C91.662,19.288,91.291,19.421,90.831,19.421z"/>
			<path fill="#FFFFFF" d="M97.009,15.625c-0.349-0.089-0.69-0.156-1.187-0.156c-0.631,0-1.053,0.148-1.35,0.438
				c-0.364,0.341-0.572,1-0.572,1.839c0,0.949,0.237,1.468,0.527,1.712c0.259,0.216,0.638,0.334,1.223,0.334
				c0.571,0,0.949-0.126,1.076-0.208c0.044-0.029,0.185-0.193,0.259-0.275h0.022l0.104,0.394h0.333v-6.044h-0.437V15.625z
				 M94.347,17.716c0-0.801,0.186-1.313,0.438-1.55c0.237-0.223,0.578-0.327,1.098-0.327c0.459,0,0.845,0.074,1.127,0.112v3.211
				c-0.371,0.178-0.824,0.252-1.239,0.252c-0.437,0-0.808-0.096-1.001-0.267C94.539,18.947,94.347,18.532,94.347,17.716z"/>
			<path fill="#FFFFFF" d="M98.804,17.656c0,1.416,0.496,2.128,1.884,2.128c0.57,0,1.104-0.104,1.401-0.178l0.03-0.356
				c-0.289,0.044-0.778,0.141-1.379,0.141c-1.164,0-1.49-0.616-1.49-1.75h3.033v-0.512c0-1.068-0.393-1.668-1.579-1.668
				C99.397,15.461,98.804,16.203,98.804,17.656z M100.658,15.817c0.897,0,1.201,0.422,1.201,1.342v0.148h-2.596
				C99.323,16.321,99.701,15.817,100.658,15.817z"/>
		</g>
		<g id="v4">
			<path fill="#FFFFFF" d="M144.815,12.29l-2.076-5.562h-0.793l-2.225,5.562h0.452l0.75-1.898h2.714l0.697,1.898H144.815
				L144.815,12.29z M143.503,10.006h-2.441l1.142-2.87h0.237L143.503,10.006z"/>
			<path fill="#FFFFFF" d="M149.244,12.29V8.13h-0.431v3.552c-0.335,0.148-0.815,0.275-1.298,0.275c-0.453,0-0.764-0.074-0.941-0.26
				c-0.172-0.178-0.275-0.467-0.275-1.03V8.13h-0.43v2.7c0,0.571,0.126,0.919,0.341,1.149c0.23,0.237,0.542,0.364,1.142,0.364
				c0.52,0,1.009-0.127,1.217-0.23c0.015-0.007,0.193-0.237,0.207-0.267h0.045l0.111,0.445H149.244L149.244,12.29z"/>
			<path fill="#FFFFFF" d="M152.298,10.385l1.172,1.905h0.496l-1.32-2.098l1.365-2.062h-0.481l-1.216,1.861h-0.342l-1.12-1.861
				h-0.489l1.269,2.062l-1.358,2.098h0.49l1.201-1.905H152.298z"/>
			<path fill="#FFFFFF" d="M155.488,12.29V8.13h-0.43v4.16H155.488z M155.554,6.713c0-0.096-0.016-0.17-0.066-0.214
				c-0.037-0.038-0.104-0.052-0.193-0.052c-0.097,0-0.171,0.022-0.192,0.052c-0.06,0.03-0.089,0.111-0.089,0.223
				c0,0.096,0.021,0.17,0.059,0.208c0.037,0.044,0.104,0.06,0.208,0.06c0.081,0,0.163-0.015,0.208-0.053
				C155.539,6.899,155.554,6.81,155.554,6.713z"/>
			<path fill="#FFFFFF" d="M157.031,6.283v5.065c0,0.697,0.273,0.986,0.875,0.986c0.281,0,0.541-0.044,0.719-0.081v-0.341
				c-0.148,0.022-0.349,0.052-0.594,0.052c-0.348,0-0.57-0.125-0.57-0.66V6.283H157.031z"/>
			<path fill="#FFFFFF" d="M159.945,12.29V8.13h-0.431v4.16H159.945z M160.011,6.713c0-0.096-0.015-0.17-0.066-0.214
				c-0.037-0.038-0.104-0.052-0.193-0.052c-0.096,0-0.17,0.022-0.193,0.052c-0.059,0.03-0.088,0.111-0.088,0.223
				c0,0.096,0.021,0.17,0.059,0.208c0.037,0.044,0.104,0.06,0.207,0.06c0.082,0,0.164-0.015,0.209-0.053
				C159.997,6.899,160.011,6.81,160.011,6.713z"/>
			<path fill="#FFFFFF" d="M164.476,12.29V9.709c0-0.816-0.119-1.127-0.305-1.327c-0.199-0.23-0.563-0.326-1.135-0.326
				c-0.593,0-1.209,0.125-1.52,0.208v0.348c0.281-0.052,0.927-0.17,1.432-0.17c0.467,0,0.741,0.074,0.875,0.229
				c0.141,0.171,0.229,0.468,0.229,1.187c-1.326,0.119-2.172,0.275-2.491,0.512c-0.163,0.104-0.327,0.386-0.327,0.853
				c0,0.386,0.09,0.646,0.238,0.809c0.171,0.192,0.482,0.333,1.061,0.333c0.719,0,1.164-0.185,1.291-0.274
				c0.036-0.03,0.141-0.171,0.199-0.252h0.037l0.104,0.452H164.476L164.476,12.29z M164.052,11.712
				c-0.223,0.111-0.748,0.29-1.379,0.29c-0.452,0-0.719-0.104-0.846-0.237c-0.104-0.119-0.17-0.312-0.17-0.579
				c0-0.312,0.074-0.497,0.186-0.593c0.17-0.186,1.246-0.341,2.209-0.4V11.712z"/>
			<path fill="#FFFFFF" d="M166.041,8.13v4.16h0.43v-3.5c0.252-0.163,0.727-0.333,1.231-0.326c0.252,0,0.468,0.03,0.593,0.052V8.101
				c-0.11-0.015-0.267-0.03-0.475-0.03c-0.519,0-0.896,0.14-1.098,0.259c-0.015,0.015-0.192,0.23-0.215,0.26h-0.044l-0.104-0.46
				H166.041L166.041,8.13z"/>
			<path fill="#FFFFFF" d="M172.67,8.13h-0.467l-1.468,3.782h-0.193l-1.387-3.782h-0.467l1.557,4.16h0.342l-0.816,2.032h0.452
				L172.67,8.13z"/>
			<path fill="#FFFFFF" d="M151.205,19.706v-5.562h-0.408v5.103h-0.141l-3.167-5.103h-0.771v5.562h0.408V14.56h0.133l3.196,5.146
				H151.205L151.205,19.706z"/>
			<path fill="#FFFFFF" d="M156.478,17.534c0-0.86-0.186-1.343-0.49-1.661c-0.259-0.26-0.697-0.438-1.327-0.438
				c-0.66,0-1.12,0.193-1.417,0.475c-0.377,0.356-0.594,1.009-0.594,1.817c0,0.801,0.217,1.291,0.453,1.564
				c0.274,0.312,0.713,0.504,1.402,0.504c0.734,0,1.156-0.2,1.445-0.497C156.269,18.965,156.478,18.35,156.478,17.534z
				 M154.549,19.424c-0.601,0-0.92-0.185-1.12-0.415c-0.207-0.237-0.349-0.712-0.349-1.335c0-0.756,0.23-1.283,0.483-1.513
				c0.191-0.178,0.533-0.341,1.045-0.341c0.519,0,0.838,0.133,1.046,0.349c0.222,0.229,0.386,0.585,0.386,1.438
				c0,0.742-0.186,1.202-0.445,1.468C155.38,19.291,155.009,19.424,154.549,19.424L154.549,19.424z"/>
			<path fill="#FFFFFF" d="M160.728,15.627c-0.35-0.089-0.691-0.155-1.188-0.155c-0.631,0-1.053,0.148-1.35,0.437
				c-0.363,0.341-0.571,1.002-0.571,1.839c0,0.949,0.237,1.468,0.526,1.713c0.26,0.215,0.639,0.333,1.224,0.333
				c0.571,0,0.949-0.125,1.075-0.208c0.045-0.03,0.186-0.193,0.26-0.274h0.023l0.104,0.393h0.333v-6.043h-0.437V15.627
				L160.728,15.627z M158.064,17.719c0-0.801,0.187-1.312,0.438-1.549c0.237-0.223,0.579-0.327,1.098-0.327
				c0.46,0,0.845,0.074,1.128,0.111v3.212c-0.371,0.178-0.824,0.252-1.24,0.252c-0.437,0-0.807-0.097-1-0.267
				C158.257,18.95,158.064,18.535,158.064,17.719z"/>
			<path fill="#FFFFFF" d="M162.522,17.659c0,1.417,0.497,2.129,1.884,2.129c0.57,0,1.104-0.104,1.401-0.178l0.029-0.356
				c-0.288,0.044-0.778,0.141-1.38,0.141c-1.163,0-1.49-0.615-1.49-1.75H166v-0.511c0-1.068-0.393-1.669-1.579-1.669
				C163.115,15.464,162.522,16.206,162.522,17.659z M164.376,15.82c0.896,0,1.201,0.423,1.201,1.343v0.148h-2.596
				C163.041,16.325,163.419,15.82,164.376,15.82z"/>
		</g>
		<g id="v5">
			<path fill="#FFFFFF" d="M209.062,12.29l-2.076-5.562h-0.795l-2.225,5.562h0.453l0.748-1.898h2.715l0.697,1.898H209.062z
				 M207.75,10.006h-2.439l1.142-2.87h0.237L207.75,10.006L207.75,10.006z"/>
			<path fill="#FFFFFF" d="M213.49,12.29V8.13h-0.431v3.552c-0.333,0.148-0.815,0.275-1.298,0.275c-0.453,0-0.764-0.074-0.941-0.26
				c-0.17-0.178-0.274-0.467-0.274-1.03V8.13h-0.431v2.7c0,0.571,0.126,0.919,0.342,1.149c0.229,0.237,0.541,0.364,1.143,0.364
				c0.519,0,1.008-0.127,1.216-0.23c0.015-0.007,0.192-0.237,0.208-0.267h0.044l0.11,0.445H213.49L213.49,12.29z"/>
			<path fill="#FFFFFF" d="M216.544,10.385l1.172,1.905h0.498l-1.32-2.098l1.364-2.062h-0.483l-1.215,1.861h-0.342l-1.119-1.861
				h-0.49l1.268,2.062l-1.355,2.098h0.488l1.202-1.905H216.544z"/>
			<path fill="#FFFFFF" d="M219.734,12.29V8.13h-0.431v4.16H219.734z M219.8,6.713c0-0.096-0.014-0.17-0.066-0.214
				c-0.037-0.038-0.104-0.052-0.193-0.052c-0.096,0-0.17,0.022-0.193,0.052c-0.059,0.03-0.088,0.111-0.088,0.223
				c0,0.096,0.022,0.17,0.059,0.208c0.038,0.044,0.104,0.06,0.208,0.06c0.082,0,0.163-0.015,0.208-0.053
				C219.787,6.899,219.8,6.81,219.8,6.713z"/>
			<path fill="#FFFFFF" d="M221.276,6.283v5.065c0,0.697,0.274,0.986,0.876,0.986c0.281,0,0.541-0.044,0.719-0.081v-0.341
				c-0.148,0.022-0.349,0.052-0.593,0.052c-0.349,0-0.571-0.125-0.571-0.66V6.283H221.276L221.276,6.283z"/>
			<path fill="#FFFFFF" d="M224.191,12.29V8.13h-0.43v4.16H224.191z M224.257,6.713c0-0.096-0.015-0.17-0.066-0.214
				c-0.037-0.038-0.104-0.052-0.192-0.052c-0.097,0-0.171,0.022-0.192,0.052c-0.061,0.03-0.09,0.111-0.09,0.223
				c0,0.096,0.021,0.17,0.06,0.208c0.036,0.044,0.104,0.06,0.208,0.06c0.08,0,0.162-0.015,0.207-0.053
				C224.243,6.899,224.257,6.81,224.257,6.713z"/>
			<path fill="#FFFFFF" d="M228.722,12.29V9.709c0-0.816-0.119-1.127-0.304-1.327c-0.2-0.23-0.563-0.326-1.136-0.326
				c-0.593,0-1.208,0.125-1.52,0.208v0.348c0.282-0.052,0.927-0.17,1.432-0.17c0.467,0,0.741,0.074,0.875,0.229
				c0.141,0.171,0.23,0.468,0.23,1.187c-1.328,0.119-2.174,0.275-2.492,0.512c-0.164,0.104-0.326,0.386-0.326,0.853
				c0,0.386,0.088,0.646,0.236,0.809c0.171,0.192,0.482,0.333,1.061,0.333c0.72,0,1.165-0.185,1.291-0.274
				c0.037-0.03,0.141-0.171,0.2-0.252h0.036l0.104,0.452H228.722z M228.3,11.712c-0.223,0.111-0.75,0.29-1.38,0.29
				c-0.453,0-0.72-0.104-0.846-0.237c-0.104-0.119-0.171-0.312-0.171-0.579c0-0.312,0.074-0.497,0.186-0.593
				c0.17-0.186,1.246-0.341,2.211-0.4V11.712z"/>
			<path fill="#FFFFFF" d="M230.287,8.13v4.16h0.431v-3.5c0.253-0.163,0.728-0.333,1.231-0.326c0.252,0,0.467,0.03,0.594,0.052
				V8.101c-0.112-0.015-0.268-0.03-0.476-0.03c-0.519,0-0.897,0.14-1.097,0.259c-0.016,0.015-0.193,0.23-0.217,0.26h-0.044
				l-0.104-0.46H230.287z"/>
			<path fill="#FFFFFF" d="M236.917,8.13h-0.468l-1.469,3.782h-0.192l-1.387-3.782h-0.468l1.558,4.16h0.342l-0.816,2.032h0.453
				L236.917,8.13L236.917,8.13z"/>
			<path fill="#FFFFFF" d="M215.451,19.706v-5.562h-0.408v5.103h-0.141l-3.167-5.103h-0.771v5.562h0.408V14.56h0.133l3.195,5.146
				H215.451L215.451,19.706z"/>
			<path fill="#FFFFFF" d="M220.723,17.534c0-0.86-0.185-1.343-0.489-1.661c-0.26-0.26-0.697-0.438-1.327-0.438
				c-0.661,0-1.12,0.193-1.417,0.475c-0.377,0.356-0.594,1.009-0.594,1.817c0,0.801,0.217,1.291,0.453,1.564
				c0.274,0.312,0.713,0.504,1.401,0.504c0.735,0,1.157-0.2,1.446-0.497C220.515,18.965,220.723,18.35,220.723,17.534z
				 M218.794,19.424c-0.6,0-0.919-0.185-1.119-0.415c-0.207-0.237-0.349-0.712-0.349-1.335c0-0.756,0.23-1.283,0.482-1.513
				c0.192-0.178,0.534-0.341,1.046-0.341c0.519,0,0.838,0.133,1.045,0.349c0.223,0.229,0.387,0.585,0.387,1.438
				c0,0.742-0.186,1.202-0.445,1.468C219.626,19.291,219.255,19.424,218.794,19.424L218.794,19.424z"/>
			<path fill="#FFFFFF" d="M224.973,15.627c-0.349-0.089-0.69-0.155-1.187-0.155c-0.631,0-1.053,0.148-1.35,0.437
				c-0.363,0.341-0.572,1.002-0.572,1.839c0,0.949,0.238,1.468,0.527,1.713c0.26,0.215,0.639,0.333,1.224,0.333
				c0.571,0,0.949-0.125,1.075-0.208c0.045-0.03,0.186-0.193,0.26-0.274h0.022l0.104,0.393h0.332v-6.043h-0.437V15.627
				L224.973,15.627z M222.31,17.719c0-0.801,0.186-1.312,0.438-1.549c0.237-0.223,0.578-0.327,1.098-0.327
				c0.46,0,0.845,0.074,1.127,0.111v3.212c-0.37,0.178-0.823,0.252-1.239,0.252c-0.437,0-0.808-0.097-1-0.267
				C222.503,18.95,222.31,18.535,222.31,17.719z"/>
			<path fill="#FFFFFF" d="M226.768,17.659c0,1.417,0.496,2.129,1.884,2.129c0.57,0,1.104-0.104,1.4-0.178l0.03-0.356
				c-0.288,0.044-0.778,0.141-1.38,0.141c-1.164,0-1.49-0.615-1.49-1.75h3.033v-0.511c0-1.068-0.393-1.669-1.579-1.669
				C227.361,15.464,226.768,16.206,226.768,17.659z M228.623,15.82c0.896,0,1.201,0.423,1.201,1.343v0.148h-2.596
				C227.287,16.325,227.666,15.82,228.623,15.82z"/>
		</g>
	</g>
</g>
<g id="Text">
	<g>
		<path fill="#FFFFFF" d="M23.984,41.901v7.263h-1.376v-17.8h6.789c1.542,0,2.682,0.237,3.346,0.76
			c0.902,0.688,1.471,2.017,1.471,4.153c0,2.088-0.759,3.821-1.851,4.604c-1.068,0.761-2.42,1.021-5.007,1.021H23.984z
			 M31.722,33.167c-0.593-0.451-1.566-0.593-2.872-0.593h-4.865v8.069h3.346c2.112,0,3.37-0.142,4.011-0.617
			c0.807-0.569,1.448-1.78,1.448-3.702C32.79,34.663,32.363,33.642,31.722,33.167z"/>
		<path fill="#FFFFFF" d="M49.165,49.164H38.248v-17.8h10.87l-0.333,1.257h-9.161v6.836h8.07l-0.309,1.234h-7.761v7.215h9.944
			L49.165,49.164z"/>
		<path fill="#FFFFFF" d="M58.681,31.364c2.776,0,4.058,0.285,4.818,0.854c0.807,0.57,1.353,1.662,1.353,3.655
			c0,1.804-0.664,3.229-1.376,3.893c-0.261,0.213-1.235,0.76-2.207,1.092v0.047c0.499,0.237,1.187,0.64,1.448,0.925
			c0.712,0.879,1.994,3.846,3.512,7.334h-1.519c-2.041-4.65-3.063-6.835-3.988-7.404c-0.475-0.31-1.732-0.404-3.536-0.404h-2.468
			v7.808h-1.4v-17.8H58.681z M54.717,40.122h3.75c1.519,0,2.468-0.144,3.038-0.356c1.068-0.427,1.922-1.78,1.922-3.702
			c0-1.448-0.356-2.35-0.925-2.778c-0.57-0.451-1.519-0.712-3.916-0.712h-3.868V40.122z"/>
	</g>
</g>
<g>
	<path fill="#FFFFFF" d="M79.481,63.216c-0.397-0.045-0.793-0.114-1.519-0.114c-0.824,0-1.282,0.176-1.594,0.42
		c-0.351,0.282-0.702,1.037-0.702,2.121c0,0.961,0.191,1.679,0.549,2.037c0.298,0.297,0.786,0.457,1.587,0.457
		c0.656,0,1.274-0.114,1.679-0.19v0.382c-0.466,0.122-1.106,0.229-1.763,0.229c-0.977,0-1.465-0.198-1.861-0.572
		c-0.351-0.343-0.656-1.045-0.656-2.273c0-1.465,0.496-2.197,0.847-2.479c0.374-0.32,0.916-0.549,1.908-0.549
		c0.687,0,1.129,0.076,1.526,0.145V63.216z"/>
	<path fill="#FFFFFF" d="M83.796,68.48v-2.64c0-0.55-0.099-0.878-0.29-1.053c-0.19-0.168-0.473-0.26-0.931-0.26
		c-0.526,0-1.045,0.146-1.358,0.298v3.654h-0.442v-6.18h0.442v2.35h0.03c0.023-0.038,0.206-0.244,0.237-0.259
		c0.198-0.123,0.702-0.252,1.236-0.252c0.618,0,0.938,0.114,1.175,0.335c0.237,0.237,0.351,0.626,0.351,1.214v2.792H83.796z"/>
	<path fill="#FFFFFF" d="M86.181,64.2l0.107,0.474h0.046c0.022-0.031,0.206-0.252,0.221-0.268c0.206-0.122,0.595-0.267,1.129-0.267
		c0.214,0,0.374,0.015,0.488,0.03v0.427c-0.129-0.022-0.351-0.053-0.61-0.053c-0.519-0.008-1.007,0.168-1.266,0.336v3.601h-0.443
		V64.2H86.181z"/>
	<path fill="#FFFFFF" d="M92.096,68.061c-0.298,0.306-0.732,0.512-1.488,0.512c-0.709,0-1.16-0.198-1.442-0.519
		c-0.244-0.283-0.465-0.786-0.465-1.61c0-0.831,0.221-1.503,0.61-1.869c0.305-0.29,0.778-0.488,1.457-0.488
		c0.648,0,1.099,0.183,1.366,0.45c0.313,0.328,0.503,0.824,0.503,1.709C92.638,67.084,92.424,67.718,92.096,68.061z M91.73,67.832
		c0.267-0.274,0.458-0.748,0.458-1.511c0-0.877-0.167-1.243-0.396-1.48c-0.214-0.221-0.542-0.358-1.076-0.358
		c-0.526,0-0.877,0.168-1.076,0.352c-0.26,0.236-0.496,0.778-0.496,1.556c0,0.642,0.145,1.13,0.358,1.374
		c0.206,0.236,0.534,0.427,1.152,0.427C91.127,68.19,91.509,68.054,91.73,67.832z"/>
	<path fill="#FFFFFF" d="M99.814,68.48v-2.647c0-0.564-0.1-0.862-0.282-1.037c-0.184-0.176-0.504-0.26-0.862-0.26
		c-0.549,0-1,0.183-1.305,0.344v3.601h-0.442v-2.93c0-0.374-0.062-0.603-0.237-0.771c-0.183-0.176-0.542-0.244-0.893-0.244
		c-0.557,0-1,0.16-1.32,0.29v3.654h-0.442V64.2h0.328l0.114,0.45h0.038l0.229-0.252c0.198-0.106,0.671-0.259,1.228-0.259
		c0.549,0,0.9,0.122,1.137,0.351c0.1,0.092,0.153,0.184,0.191,0.252h0.038l0.237-0.298c0.244-0.137,0.732-0.305,1.289-0.305
		c0.504,0,0.824,0.114,1.053,0.335c0.244,0.229,0.344,0.618,0.344,1.206v2.8H99.814z"/>
	<path fill="#FFFFFF" d="M104.596,68.48l-0.106-0.466h-0.038c-0.062,0.084-0.168,0.229-0.206,0.26
		c-0.13,0.092-0.588,0.282-1.328,0.282c-0.595,0-0.915-0.145-1.091-0.343c-0.152-0.168-0.244-0.436-0.244-0.832
		c0-0.48,0.168-0.771,0.336-0.877c0.328-0.244,1.197-0.404,2.563-0.527c0-0.739-0.092-1.045-0.236-1.221
		c-0.138-0.16-0.42-0.236-0.9-0.236c-0.519,0-1.183,0.122-1.473,0.176v-0.358c0.32-0.084,0.954-0.214,1.563-0.214
		c0.588,0,0.962,0.1,1.168,0.336c0.19,0.206,0.313,0.526,0.313,1.365v2.655H104.596z M104.482,66.321
		c-0.992,0.062-2.099,0.222-2.273,0.412c-0.114,0.1-0.191,0.29-0.191,0.61c0,0.274,0.069,0.473,0.176,0.595
		c0.13,0.138,0.404,0.244,0.87,0.244c0.648,0,1.189-0.183,1.419-0.297V66.321z"/>
	<path fill="#FFFFFF" d="M108.728,64.574h-1.518v2.854c0,0.58,0.267,0.702,0.747,0.702c0.352,0,0.672-0.054,0.84-0.076l-0.039,0.373
		c-0.229,0.046-0.587,0.1-0.915,0.1c-0.763,0-1.076-0.274-1.076-1.015v-2.938h-0.885l0.062-0.374h0.823v-0.893l0.443-0.114V64.2
		h1.602L108.728,64.574z"/>
	<path fill="#FFFFFF" d="M112.988,68.061c-0.298,0.306-0.732,0.512-1.487,0.512c-0.71,0-1.16-0.198-1.442-0.519
		c-0.244-0.283-0.466-0.786-0.466-1.61c0-0.831,0.222-1.503,0.61-1.869c0.306-0.29,0.778-0.488,1.458-0.488
		c0.648,0,1.099,0.183,1.365,0.45c0.313,0.328,0.504,0.824,0.504,1.709C113.53,67.084,113.316,67.718,112.988,68.061z
		 M112.622,67.832c0.267-0.274,0.458-0.748,0.458-1.511c0-0.877-0.168-1.243-0.397-1.48c-0.213-0.221-0.541-0.358-1.075-0.358
		c-0.526,0-0.878,0.168-1.076,0.352c-0.259,0.236-0.495,0.778-0.495,1.556c0,0.642,0.145,1.13,0.358,1.374
		c0.206,0.236,0.534,0.427,1.151,0.427C112.019,68.19,112.4,68.054,112.622,67.832z"/>
	<path fill="#FFFFFF" d="M116.685,66.291h-1.983v-0.42h1.983V66.291z"/>
	<path fill="#FFFFFF" d="M82.645,72.326c-0.313,0.29-0.473,0.831-0.473,1.563c0,0.702,0.145,1.176,0.442,1.45
		c0.252,0.236,0.625,0.328,1.091,0.328c0.542,0,0.977-0.084,1.274-0.13v0.343c-0.298,0.084-0.74,0.191-1.343,0.191
		c-0.603,0-1.061-0.138-1.358-0.42c-0.396-0.366-0.572-0.961-0.572-1.709c0-0.854,0.206-1.511,0.61-1.885
		c0.328-0.32,0.809-0.473,1.45-0.473c0.511,0,0.931,0.068,1.213,0.122v0.382c-0.267-0.038-0.664-0.1-1.167-0.1
		C83.293,71.99,82.889,72.09,82.645,72.326z"/>
	<path fill="#FFFFFF" d="M87.89,71.616c1.221,0,1.625,0.618,1.625,1.717v0.526h-3.121c0,1.167,0.336,1.801,1.534,1.801
		c0.618,0,1.122-0.1,1.419-0.146l-0.03,0.366c-0.305,0.077-0.854,0.184-1.442,0.184c-1.426,0-1.938-0.732-1.938-2.189
		C85.937,72.38,86.547,71.616,87.89,71.616z M86.41,73.517h2.67v-0.153c0-0.945-0.313-1.381-1.236-1.381
		C86.86,71.982,86.471,72.501,86.41,73.517z"/>
	<path fill="#FFFFFF" d="M91.282,78.063h-0.442V71.7h0.335l0.107,0.382h0.03c0.061-0.084,0.222-0.244,0.267-0.268
		c0.13-0.084,0.625-0.206,1.145-0.206c0.587,0,0.946,0.1,1.221,0.344c0.297,0.252,0.542,0.778,0.542,1.747
		c0,0.908-0.236,1.549-0.595,1.907c-0.282,0.274-0.71,0.442-1.358,0.442c-0.511,0-0.908-0.068-1.251-0.145V78.063z M93.601,72.257
		c-0.214-0.175-0.549-0.259-1.038-0.259c-0.442,0-0.9,0.076-1.282,0.252v3.304c0.297,0.045,0.709,0.114,1.175,0.114
		c0.534,0,0.877-0.092,1.114-0.328c0.26-0.244,0.458-0.778,0.458-1.603C94.028,72.929,93.845,72.479,93.601,72.257z"/>
	<path fill="#FFFFFF" d="M98.007,72.074h-1.518v2.854c0,0.58,0.267,0.702,0.748,0.702c0.351,0,0.671-0.054,0.839-0.076l-0.038,0.373
		c-0.229,0.046-0.587,0.1-0.916,0.1c-0.763,0-1.076-0.274-1.076-1.015v-2.938h-0.885l0.061-0.374h0.824v-0.893l0.442-0.114V71.7
		h1.602L98.007,72.074z"/>
	<path fill="#FFFFFF" d="M99.681,70.472c-0.046,0.038-0.13,0.054-0.214,0.054c-0.106,0-0.175-0.016-0.213-0.061
		c-0.038-0.038-0.062-0.115-0.062-0.214c0-0.114,0.03-0.198,0.092-0.229c0.022-0.03,0.1-0.053,0.198-0.053
		c0.092,0,0.16,0.015,0.198,0.053c0.054,0.046,0.069,0.122,0.069,0.222S99.735,70.434,99.681,70.472z M99.239,75.98V71.7h0.442v4.28
		H99.239z"/>
	<path fill="#FFFFFF" d="M104.474,75.561c-0.298,0.306-0.732,0.512-1.487,0.512c-0.71,0-1.16-0.198-1.442-0.519
		c-0.244-0.283-0.466-0.786-0.466-1.61c0-0.831,0.222-1.503,0.61-1.869c0.306-0.29,0.778-0.488,1.458-0.488
		c0.648,0,1.099,0.183,1.365,0.45c0.313,0.328,0.504,0.824,0.504,1.709C105.016,74.584,104.802,75.218,104.474,75.561z
		 M104.108,75.332c0.267-0.274,0.458-0.748,0.458-1.511c0-0.877-0.168-1.243-0.397-1.48c-0.213-0.221-0.541-0.358-1.075-0.358
		c-0.526,0-0.878,0.168-1.076,0.352c-0.259,0.236-0.495,0.778-0.495,1.556c0,0.642,0.145,1.13,0.358,1.374
		c0.206,0.236,0.534,0.427,1.151,0.427C103.505,75.69,103.886,75.554,104.108,75.332z"/>
	<path fill="#FFFFFF" d="M109.446,75.98v-2.647c0-0.542-0.107-0.854-0.298-1.037c-0.19-0.184-0.526-0.26-0.923-0.26
		c-0.55,0-1.03,0.145-1.366,0.282v3.662h-0.442V71.7h0.32l0.122,0.45h0.038c0.023-0.03,0.198-0.229,0.222-0.244
		c0.206-0.114,0.755-0.267,1.297-0.267c0.557,0,0.885,0.122,1.114,0.351c0.236,0.222,0.358,0.61,0.358,1.19v2.8H109.446z"/>
</g>
</svg>
