<?xml version="1.0" encoding="utf-8"?>
<!-- Generator: Adobe Illustrator 16.0.2, SVG Export Plug-In . SVG Version: 6.00 Build 0)  -->
<!DOCTYPE svg PUBLIC "-//W3C//DTD SVG 1.1//EN" "http://www.w3.org/Graphics/SVG/1.1/DTD/svg11.dtd">
<svg version="1.1" id="Layer_1" xmlns="http://www.w3.org/2000/svg" xmlns:xlink="http://www.w3.org/1999/xlink" x="0px" y="0px"
	 width="283.46px" height="85.039px" viewBox="0 0 283.46 85.039" enable-background="new 0 0 283.46 85.039" xml:space="preserve">
<g id="tint">
	<polygon fill="#6A6E75" points="120.274,16.297 110.354,6.377 54.152,6.376 64.072,16.296 64.081,16.296 78.464,30.679 
		84.47,27.672 73.094,16.296 	"/>
	<polygon fill="#6A6E75" points="187.843,16.297 177.923,6.377 121.721,6.376 131.642,16.296 131.652,16.296 145.904,30.549 
		151.912,27.542 140.666,16.296 	"/>
	<polygon fill="#6A6E75" points="254.416,16.298 244.492,6.376 188.285,6.376 198.207,16.298 198.219,16.298 210.573,28.653 
		216.58,25.646 207.232,16.298 	"/>
	<polygon fill="#6A6E75" points="95.075,46.064 105.487,35.652 99.48,32.646 86.062,46.064 86.037,46.064 76.117,55.984 
		132.319,55.982 142.239,46.063 	"/>
	<polygon fill="#6A6E75" points="163.341,46.064 174.597,34.809 168.589,31.802 154.328,46.064 154.326,46.064 144.404,55.984 
		200.606,55.982 210.526,46.063 	"/>
	<polygon display="none" fill="#6A6E75" points="229.903,46.063 240.862,35.104 234.855,32.097 220.89,46.063 220.875,46.063 
		210.953,55.984 267.16,55.984 277.083,46.063 	"/>
	<rect x="61.527" y="25.511" fill="#6A6E75" width="170.057" height="11.339"/>
</g>
<g id="primary">
	<rect x="61.527" y="25.511" fill="#30394C" width="164.989" height="11.339"/>
	
		<rect x="14.459" y="14.458" transform="matrix(-0.7071 -0.7071 0.7071 -0.7071 42.5218 102.6517)" fill="#30394C" width="56.123" height="56.122"/>
	<polygon fill="#30394C" points="240.733,41.144 216.626,65.251 206.718,60.291 230.826,36.184 	"/>
	<polygon fill="#30394C" points="240.944,82.205 263.623,59.527 119.056,59.527 96.379,82.205 	"/>
	
		<rect x="14.459" y="14.458" transform="matrix(-0.7071 -0.7071 0.7071 -0.7071 42.5218 102.6517)" fill="#30394C" width="56.123" height="56.122"/>
	<polygon fill="#30394C" points="133.204,19.842 61.527,19.842 84.205,42.519 138.898,42.519 139.898,42.519 155.88,42.519 	"/>
	<polygon fill="#30394C" points="199.762,19.842 163.537,19.842 162.573,19.842 162.425,19.842 161.573,19.842 135.198,19.842 
		157.875,42.519 162.427,42.519 163.539,42.519 222.438,42.519 	"/>
	<polygon fill="#30394C" points="257.953,19.842 201.757,19.842 224.434,42.519 280.63,42.519 280.63,42.519 	"/>
</g>
<g id="Text">
	<g>
		<g>
			<path fill="#FFFFFF" d="M89.475,35.38v-0.714h3.096v-9.217l-3.096,0.56v-0.714l3.894-0.687v10.058h2.802v0.714H89.475z"/>
			<path fill="#FFFFFF" d="M112.116,35.38h-7.214v-0.84c0.126-1.541,0.966-2.536,3.432-3.74c1.569-0.784,2.255-1.19,2.62-1.667
				c0.308-0.434,0.392-0.994,0.392-1.541c0-1.443-0.532-2.101-2.815-2.101c-1.247,0-2.591,0.308-3.208,0.448V25.21
				c0.826-0.224,2.115-0.477,3.375-0.477c2.675,0,3.516,0.869,3.516,2.76c0,0.953-0.21,1.611-0.532,2.017
				c-0.546,0.714-1.625,1.261-2.998,1.933c-2.563,1.247-2.969,2.129-2.998,3.18h6.64L112.116,35.38z"/>
			<path fill="#FFFFFF" d="M126.914,29.427l-1.135,0.532v0.056l1.19,0.42c0.477,0.393,0.854,1.289,0.854,2.199
				c0,2.017-1.148,2.886-3.992,2.886c-1.176,0-2.213-0.154-2.83-0.294v-0.714c0.645,0.112,1.779,0.28,2.83,0.28
				c2.605,0,3.152-0.854,3.152-2.157c0-1.863-1.247-2.213-2.83-2.213h-2.003v-0.729h1.821c1.373,0,2.815-0.35,2.815-2.171
				c0-1.345-0.504-2.045-2.633-2.045c-1.121,0-2.199,0.224-2.928,0.378v-0.701c0.757-0.196,1.919-0.42,3.068-0.42
				c2.521,0,3.32,0.883,3.32,2.676C127.614,28.39,127.18,29.174,126.914,29.427z"/>
		</g>
		<g>
			<path fill="#FFFFFF" d="M164.898,35.38h-0.771v-2.983h-5.394v-0.813l4.638-6.71h1.526v6.822h2.354l-0.211,0.701h-2.144
				L164.898,35.38L164.898,35.38z M164.128,31.696v-6.135h-0.379l-4.104,5.953v0.182H164.128z"/>
			<path fill="#FFFFFF" d="M178.083,35.52c-0.965,0-1.987-0.14-2.717-0.252v-0.743c0.672,0.098,1.709,0.238,2.76,0.238
				c2.424,0,3.265-0.687,3.265-2.423c0-1.849-0.588-2.325-2.746-2.325c-0.994,0-2.339,0.21-2.955,0.294v-5.435h6.22v0.714h-5.49
				v3.95c0.588-0.098,1.399-0.252,2.479-0.252c2.438,0,3.334,0.645,3.334,2.941C182.23,34.441,181.208,35.52,178.083,35.52z"/>
			<path fill="#FFFFFF" d="M191.846,30.253h0.069l0.447-0.462c0.604-0.224,1.695-0.532,2.971-0.532c2.479,0,3.306,1.036,3.306,2.983
				c0,2.031-1.052,3.278-3.754,3.278c-2.941,0-3.853-1.863-3.853-4.959c0-1.947,0.547-3.348,1.373-4.23
				c0.967-1.009,2.508-1.639,5.211-1.667l0.279,0.743c-2.633,0.014-4.063,0.56-4.902,1.457
				C192.335,27.563,191.901,28.754,191.846,30.253z M195.066,29.987c-1.246,0-2.395,0.308-3.221,0.63
				c0.027,2.9,0.938,4.174,3.08,4.174c2.004,0,2.9-0.784,2.9-2.479C197.826,30.688,197.167,29.987,195.066,29.987z"/>
		</g>
		<g>
			<path fill="#FFFFFF" d="M227.708,25.813v-0.196h-6.315l0.224-0.743h6.989v0.925l-5.015,9.581h-0.91L227.708,25.813z"/>
			<path fill="#FFFFFF" d="M238.347,30.505l0.951-0.519v-0.07l-0.84-0.434c-0.364-0.364-0.715-0.883-0.715-1.849
				c0-1.695,1.064-2.914,3.529-2.914c2.452,0,3.362,1.092,3.362,2.661c0,0.995-0.421,1.597-0.813,2.017l-0.867,0.519v0.07
				l1.063,0.393c0.562,0.448,0.883,1.163,0.883,2.115c0,1.737-1.079,3.026-3.838,3.026c-2.604,0-3.685-1.037-3.685-2.815
				C237.38,31.808,237.744,31.065,238.347,30.505z M238.207,32.606c0,1.401,0.813,2.199,2.941,2.199
				c2.171,0,2.928-1.022,2.928-2.227c0-1.919-1.219-2.073-4.343-2.41C238.962,30.673,238.207,31.36,238.207,32.606z M238.57,27.563
				c0,1.723,1.094,1.961,3.838,2.213c0.883-0.546,1.387-1.261,1.387-2.297c0-1.345-0.756-2.045-2.604-2.045
				C239.257,25.435,238.57,26.387,238.57,27.563z"/>
			<path fill="#FFFFFF" d="M260.063,30.015h-0.069l-0.436,0.462c-0.574,0.238-1.652,0.519-2.857,0.519
				c-2.507,0-3.39-1.009-3.39-2.942c0-2.213,1.388-3.32,3.739-3.32c2.746,0,3.824,1.527,3.824,4.861
				c0,2.003-0.545,3.474-1.373,4.342c-0.924,1.009-2.506,1.611-5.225,1.667l-0.267-0.771c2.592-0.014,4.104-0.532,4.917-1.415
				C259.559,32.705,260.021,31.528,260.063,30.015z M256.884,30.267c1.261,0,2.396-0.294,3.18-0.588
				c-0.027-2.97-0.882-4.216-3.066-4.216c-1.961,0-2.873,0.938-2.873,2.536C254.125,29.567,254.824,30.267,256.884,30.267z"/>
		</g>
	</g>
	<g>
		<path fill="#FFFFFF" d="M159.615,52.843c-0.287,0.245-0.813,0.357-1.563,0.357c-0.65,0-1.176-0.084-1.526-0.168v-0.364
			c0.413,0.07,0.876,0.154,1.534,0.154c0.721,0,1.105-0.112,1.254-0.252c0.125-0.127,0.236-0.357,0.236-0.709
			c0-0.286-0.055-0.51-0.16-0.629c-0.393-0.428-2.27-0.688-2.668-1.198c-0.162-0.196-0.211-0.567-0.211-0.854
			c0-0.385,0.113-0.764,0.351-0.994c0.224-0.217,0.673-0.393,1.534-0.393c0.574,0,1.051,0.049,1.408,0.111v0.356
			c-0.441-0.049-0.813-0.098-1.465-0.098c-0.65,0-1.036,0.112-1.19,0.295c-0.112,0.119-0.224,0.362-0.224,0.687
			c0,0.267,0.049,0.489,0.154,0.623c0.308,0.393,2.317,0.742,2.674,1.197c0.176,0.21,0.225,0.574,0.225,0.876
			C159.979,52.262,159.832,52.654,159.615,52.843z"/>
		<path fill="#FFFFFF" d="M161.58,55.035h-0.406v-5.842h0.31l0.099,0.351h0.027c0.057-0.077,0.203-0.224,0.245-0.245
			c0.119-0.076,0.574-0.189,1.051-0.189c0.539,0,0.869,0.093,1.121,0.316c0.272,0.23,0.496,0.715,0.496,1.604
			c0,0.834-0.217,1.423-0.545,1.75c-0.261,0.254-0.651,0.406-1.248,0.406c-0.469,0-0.833-0.063-1.147-0.133v1.982H161.58z
			 M163.71,49.705c-0.196-0.161-0.506-0.238-0.953-0.238c-0.405,0-0.826,0.07-1.178,0.231v3.032c0.273,0.043,0.652,0.104,1.08,0.104
			c0.489,0,0.805-0.084,1.021-0.301c0.238-0.226,0.42-0.716,0.42-1.472C164.102,50.322,163.934,49.908,163.71,49.705z"/>
		<path fill="#FFFFFF" d="M167.398,49.117c1.121,0,1.492,0.566,1.492,1.576v0.481h-2.865c0,1.072,0.309,1.653,1.408,1.653
			c0.566,0,1.029-0.092,1.303-0.135l-0.027,0.338c-0.28,0.068-0.785,0.168-1.324,0.168c-1.311,0-1.778-0.674-1.778-2.012
			C165.605,49.816,166.166,49.117,167.398,49.117z M166.039,50.861h2.451v-0.141c0-0.869-0.287-1.269-1.134-1.269
			C166.453,49.453,166.096,49.93,166.039,50.861z"/>
		<path fill="#FFFFFF" d="M170.757,49.768c-0.286,0.268-0.435,0.765-0.435,1.438c0,0.645,0.134,1.079,0.406,1.331
			c0.231,0.217,0.574,0.301,1.001,0.301c0.498,0,0.896-0.077,1.17-0.119v0.315c-0.273,0.076-0.68,0.175-1.232,0.175
			c-0.551,0-0.974-0.126-1.246-0.385c-0.364-0.337-0.524-0.884-0.524-1.569c0-0.783,0.188-1.387,0.562-1.729
			c0.301-0.295,0.742-0.436,1.33-0.436c0.469,0,0.854,0.063,1.112,0.112v0.35c-0.243-0.034-0.608-0.091-1.071-0.091
			C171.354,49.46,170.981,49.551,170.757,49.768z"/>
		<path fill="#FFFFFF" d="M174.446,48.066c-0.042,0.035-0.118,0.049-0.196,0.049c-0.098,0-0.16-0.014-0.194-0.057
			c-0.035-0.035-0.058-0.104-0.058-0.195c0-0.105,0.028-0.182,0.084-0.211c0.021-0.027,0.092-0.049,0.183-0.049
			c0.085,0,0.147,0.015,0.183,0.049c0.051,0.043,0.063,0.113,0.063,0.203C174.509,47.947,174.496,48.031,174.446,48.066z
			 M174.041,53.123v-3.93h0.405v3.93H174.041z"/>
		<path fill="#FFFFFF" d="M178.431,53.123l-0.1-0.428h-0.035c-0.055,0.078-0.153,0.211-0.188,0.238
			c-0.119,0.084-0.54,0.26-1.219,0.26c-0.546,0-0.842-0.133-1.001-0.315c-0.142-0.153-0.226-0.399-0.226-0.763
			c0-0.441,0.154-0.708,0.31-0.807c0.301-0.225,1.1-0.371,2.353-0.482c0-0.68-0.084-0.96-0.217-1.121
			c-0.126-0.146-0.386-0.217-0.826-0.217c-0.477,0-1.086,0.111-1.353,0.16V49.32c0.295-0.077,0.876-0.196,1.437-0.196
			c0.539,0,0.883,0.091,1.071,0.308c0.175,0.189,0.287,0.484,0.287,1.254v2.438L178.431,53.123L178.431,53.123z M178.326,51.141
			c-0.91,0.058-1.927,0.203-2.088,0.379c-0.105,0.092-0.176,0.267-0.176,0.562c0,0.252,0.063,0.435,0.162,0.546
			c0.119,0.126,0.371,0.225,0.798,0.225c0.597,0,1.093-0.168,1.304-0.273V51.141z"/>
		<path fill="#FFFFFF" d="M180.585,47.45v4.741c0,0.504,0.209,0.623,0.539,0.623c0.23,0,0.42-0.027,0.561-0.049v0.321
			c-0.168,0.035-0.413,0.077-0.68,0.077c-0.567,0-0.826-0.271-0.826-0.932V47.45H180.585z"/>
		<path fill="#FFFFFF" d="M184.541,49.537h-1.395v2.619c0,0.533,0.246,0.645,0.688,0.645c0.322,0,0.615-0.049,0.771-0.07
			l-0.035,0.345c-0.209,0.042-0.539,0.091-0.84,0.091c-0.7,0-0.987-0.252-0.987-0.932v-2.696h-0.813l0.056-0.345h0.757v-0.817
			l0.405-0.104v0.924h1.472L184.541,49.537z"/>
		<path fill="#FFFFFF" d="M186.528,55.042h-0.427l0.77-1.919h-0.322l-1.471-3.93h0.441l1.311,3.572h0.183l1.387-3.572h0.44
			L186.528,55.042z"/>
		<path fill="#FFFFFF" d="M194.762,53.123h-3.607v-0.42c0.064-0.771,0.484-1.268,1.718-1.87c0.783-0.394,1.127-0.597,1.31-0.833
			c0.153-0.218,0.196-0.498,0.196-0.771c0-0.721-0.268-1.051-1.408-1.051c-0.623,0-1.295,0.154-1.604,0.225v-0.363
			c0.412-0.112,1.057-0.237,1.688-0.237c1.338,0,1.758,0.435,1.758,1.38c0,0.477-0.104,0.805-0.266,1.008
			c-0.273,0.356-0.813,0.631-1.5,0.967c-1.281,0.623-1.484,1.064-1.498,1.59h3.32L194.762,53.123z"/>
	</g>
	<g>
		<path fill="#FFFFFF" d="M92.045,52.843c-0.287,0.245-0.813,0.357-1.562,0.357c-0.651,0-1.177-0.084-1.527-0.168v-0.364
			c0.413,0.07,0.875,0.154,1.534,0.154c0.721,0,1.106-0.112,1.254-0.252c0.126-0.127,0.238-0.357,0.238-0.709
			c0-0.286-0.056-0.51-0.161-0.629c-0.392-0.428-2.269-0.688-2.668-1.198c-0.161-0.196-0.21-0.567-0.21-0.854
			c0-0.385,0.112-0.764,0.35-0.994c0.224-0.217,0.672-0.393,1.534-0.393c0.574,0,1.05,0.049,1.408,0.111v0.356
			c-0.441-0.049-0.813-0.098-1.464-0.098s-1.037,0.112-1.191,0.295c-0.112,0.119-0.224,0.362-0.224,0.687
			c0,0.267,0.049,0.489,0.154,0.623c0.308,0.393,2.318,0.742,2.675,1.197c0.175,0.21,0.224,0.574,0.224,0.876
			C92.41,52.262,92.263,52.654,92.045,52.843z"/>
		<path fill="#FFFFFF" d="M94.011,55.035h-0.406v-5.842h0.308l0.098,0.351h0.028c0.056-0.077,0.203-0.224,0.245-0.245
			c0.119-0.076,0.575-0.189,1.051-0.189c0.539,0,0.869,0.093,1.121,0.316c0.273,0.23,0.497,0.715,0.497,1.604
			c0,0.834-0.217,1.423-0.546,1.75c-0.259,0.254-0.651,0.406-1.247,0.406c-0.469,0-0.833-0.063-1.148-0.133L94.011,55.035
			L94.011,55.035z M96.141,49.705c-0.196-0.161-0.504-0.238-0.953-0.238c-0.406,0-0.827,0.07-1.177,0.231v3.032
			c0.273,0.043,0.651,0.104,1.079,0.104c0.49,0,0.806-0.084,1.022-0.301c0.238-0.226,0.42-0.716,0.42-1.472
			C96.533,50.322,96.365,49.908,96.141,49.705z"/>
		<path fill="#FFFFFF" d="M99.829,49.117c1.121,0,1.492,0.566,1.492,1.576v0.481h-2.865c0,1.072,0.309,1.653,1.408,1.653
			c0.567,0,1.029-0.092,1.302-0.135l-0.028,0.338c-0.28,0.068-0.784,0.168-1.324,0.168c-1.31,0-1.779-0.674-1.779-2.012
			C98.036,49.816,98.596,49.117,99.829,49.117z M98.47,50.861h2.451v-0.141c0-0.869-0.287-1.269-1.134-1.269
			C98.883,49.453,98.526,49.93,98.47,50.861z"/>
		<path fill="#FFFFFF" d="M103.188,49.768c-0.287,0.268-0.434,0.765-0.434,1.438c0,0.645,0.133,1.079,0.406,1.331
			c0.231,0.217,0.574,0.301,1.001,0.301c0.498,0,0.896-0.077,1.17-0.119v0.315c-0.273,0.076-0.68,0.175-1.233,0.175
			c-0.553,0-0.974-0.126-1.247-0.385c-0.364-0.337-0.525-0.884-0.525-1.569c0-0.783,0.189-1.387,0.561-1.729
			c0.301-0.295,0.742-0.436,1.331-0.436c0.469,0,0.854,0.063,1.114,0.112v0.35c-0.245-0.034-0.609-0.091-1.072-0.091
			C103.784,49.46,103.412,49.551,103.188,49.768z"/>
		<path fill="#FFFFFF" d="M106.877,48.066c-0.042,0.035-0.119,0.049-0.196,0.049c-0.098,0-0.161-0.014-0.196-0.057
			c-0.035-0.035-0.056-0.104-0.056-0.195c0-0.105,0.028-0.182,0.084-0.211c0.021-0.027,0.091-0.049,0.182-0.049
			c0.084,0,0.147,0.015,0.182,0.049c0.049,0.043,0.063,0.113,0.063,0.203C106.94,47.947,106.926,48.031,106.877,48.066z
			 M106.471,53.123v-3.93h0.406v3.93H106.471z"/>
		<path fill="#FFFFFF" d="M110.861,53.123l-0.098-0.428h-0.035c-0.056,0.078-0.154,0.211-0.189,0.238
			c-0.119,0.084-0.54,0.26-1.219,0.26c-0.546,0-0.84-0.133-1.001-0.315c-0.14-0.153-0.224-0.399-0.224-0.763
			c0-0.441,0.154-0.708,0.308-0.807c0.301-0.225,1.1-0.371,2.353-0.482c0-0.68-0.084-0.96-0.217-1.121
			c-0.126-0.146-0.385-0.217-0.827-0.217c-0.476,0-1.085,0.111-1.352,0.16V49.32c0.294-0.077,0.875-0.196,1.436-0.196
			c0.54,0,0.883,0.091,1.072,0.308c0.175,0.189,0.287,0.484,0.287,1.254v2.438L110.861,53.123L110.861,53.123z M110.756,51.141
			c-0.91,0.058-1.926,0.203-2.087,0.379c-0.105,0.092-0.175,0.267-0.175,0.562c0,0.252,0.063,0.435,0.161,0.546
			c0.119,0.126,0.371,0.225,0.798,0.225c0.596,0,1.093-0.168,1.303-0.273V51.141z"/>
		<path fill="#FFFFFF" d="M113.016,47.45v4.741c0,0.504,0.21,0.623,0.54,0.623c0.231,0,0.42-0.027,0.56-0.049v0.321
			c-0.168,0.035-0.413,0.077-0.679,0.077c-0.567,0-0.827-0.271-0.827-0.932V47.45H113.016z"/>
		<path fill="#FFFFFF" d="M116.972,49.537h-1.394v2.619c0,0.533,0.246,0.645,0.687,0.645c0.322,0,0.616-0.049,0.771-0.07L117,53.074
			c-0.21,0.042-0.539,0.091-0.84,0.091c-0.7,0-0.987-0.252-0.987-0.933v-2.695h-0.813l0.056-0.344h0.757v-0.818l0.406-0.105v0.924
			h1.471L116.972,49.537z"/>
		<path fill="#FFFFFF" d="M118.959,55.042h-0.427l0.771-1.919h-0.322l-1.471-3.93h0.441l1.31,3.572h0.182l1.387-3.572h0.441
			L118.959,55.042z"/>
		<path fill="#FFFFFF" d="M123.845,53.123v-0.357h1.548v-4.607l-1.548,0.279V48.08l1.947-0.344v5.029h1.4v0.356L123.845,53.123
			L123.845,53.123z"/>
	</g>
	<g display="none">
		<path display="inline" fill="#FFFFFF" d="M227.884,52.843c-0.286,0.245-0.813,0.357-1.562,0.357c-0.651,0-1.177-0.084-1.526-0.168
			v-0.364c0.412,0.07,0.875,0.154,1.533,0.154c0.721,0,1.106-0.112,1.254-0.252c0.127-0.127,0.238-0.357,0.238-0.709
			c0-0.286-0.057-0.51-0.162-0.629c-0.392-0.428-2.269-0.688-2.668-1.198c-0.16-0.196-0.209-0.567-0.209-0.854
			c0-0.385,0.111-0.764,0.35-0.994c0.225-0.217,0.673-0.393,1.533-0.393c0.574,0,1.051,0.049,1.408,0.111v0.356
			c-0.441-0.049-0.813-0.098-1.464-0.098s-1.036,0.112-1.19,0.295c-0.111,0.119-0.225,0.362-0.225,0.687
			c0,0.267,0.049,0.489,0.154,0.623c0.309,0.393,2.318,0.742,2.676,1.197c0.176,0.21,0.225,0.574,0.225,0.876
			C228.25,52.262,228.102,52.654,227.884,52.843z"/>
		<path display="inline" fill="#FFFFFF" d="M229.851,55.035h-0.406v-5.842h0.309l0.099,0.351h0.028
			c0.056-0.077,0.203-0.224,0.244-0.245c0.119-0.076,0.574-0.189,1.051-0.189c0.539,0,0.869,0.093,1.121,0.316
			c0.272,0.23,0.496,0.715,0.496,1.604c0,0.834-0.217,1.423-0.545,1.75c-0.261,0.254-0.651,0.406-1.248,0.406
			c-0.47,0-0.832-0.063-1.147-0.133L229.851,55.035L229.851,55.035z M231.98,49.705c-0.197-0.161-0.505-0.238-0.953-0.238
			c-0.406,0-0.826,0.07-1.177,0.231v3.032c0.272,0.043,0.651,0.104,1.079,0.104c0.49,0,0.805-0.084,1.021-0.301
			c0.237-0.226,0.42-0.716,0.42-1.472C232.373,50.322,232.205,49.908,231.98,49.705z"/>
		<path display="inline" fill="#FFFFFF" d="M235.667,49.117c1.121,0,1.492,0.566,1.492,1.576v0.481h-2.865
			c0,1.072,0.31,1.653,1.408,1.653c0.567,0,1.029-0.092,1.303-0.135l-0.026,0.338c-0.281,0.068-0.785,0.168-1.324,0.168
			c-1.31,0-1.778-0.674-1.778-2.012C233.875,49.816,234.436,49.117,235.667,49.117z M234.31,50.861h2.451v-0.141
			c0-0.869-0.287-1.269-1.135-1.269C234.723,49.453,234.365,49.93,234.31,50.861z"/>
		<path display="inline" fill="#FFFFFF" d="M239.027,49.768c-0.287,0.268-0.434,0.765-0.434,1.438c0,0.645,0.133,1.079,0.406,1.331
			c0.229,0.217,0.573,0.301,1,0.301c0.498,0,0.896-0.077,1.17-0.119v0.315c-0.272,0.076-0.68,0.175-1.232,0.175
			s-0.973-0.126-1.246-0.385c-0.363-0.337-0.525-0.884-0.525-1.569c0-0.783,0.189-1.387,0.562-1.729
			c0.301-0.295,0.742-0.436,1.33-0.436c0.47,0,0.854,0.063,1.114,0.112v0.35c-0.246-0.034-0.609-0.091-1.071-0.091
			C239.623,49.46,239.251,49.551,239.027,49.768z"/>
		<path display="inline" fill="#FFFFFF" d="M242.716,48.066c-0.043,0.035-0.118,0.049-0.195,0.049c-0.1,0-0.161-0.014-0.195-0.057
			c-0.035-0.035-0.058-0.104-0.058-0.195c0-0.105,0.028-0.182,0.084-0.211c0.021-0.027,0.092-0.049,0.183-0.049
			c0.086,0,0.147,0.015,0.184,0.049c0.049,0.043,0.063,0.113,0.063,0.203C242.779,47.947,242.766,48.031,242.716,48.066z
			 M242.311,53.123v-3.93h0.405v3.93H242.311z"/>
		<path display="inline" fill="#FFFFFF" d="M246.701,53.123l-0.099-0.428h-0.035c-0.056,0.078-0.153,0.211-0.188,0.238
			c-0.119,0.084-0.539,0.26-1.219,0.26c-0.547,0-0.841-0.133-1.002-0.315c-0.141-0.153-0.225-0.399-0.225-0.763
			c0-0.441,0.154-0.708,0.309-0.807c0.301-0.225,1.1-0.371,2.354-0.482c0-0.68-0.084-0.96-0.218-1.121
			c-0.127-0.146-0.385-0.217-0.826-0.217c-0.477,0-1.086,0.111-1.352,0.16V49.32c0.293-0.077,0.875-0.196,1.436-0.196
			c0.539,0,0.883,0.091,1.07,0.308c0.176,0.189,0.287,0.484,0.287,1.254v2.438L246.701,53.123L246.701,53.123z M246.596,51.141
			c-0.91,0.058-1.927,0.203-2.089,0.379c-0.104,0.092-0.174,0.267-0.174,0.562c0,0.252,0.063,0.435,0.16,0.546
			c0.119,0.126,0.371,0.225,0.799,0.225c0.597,0,1.092-0.168,1.304-0.273V51.141L246.596,51.141z"/>
		<path display="inline" fill="#FFFFFF" d="M248.855,47.45v4.741c0,0.504,0.21,0.623,0.539,0.623c0.23,0,0.42-0.027,0.561-0.049
			v0.321c-0.168,0.035-0.414,0.077-0.68,0.077c-0.566,0-0.826-0.271-0.826-0.932V47.45H248.855z"/>
		<path display="inline" fill="#FFFFFF" d="M252.811,49.537h-1.394v2.619c0,0.533,0.244,0.645,0.687,0.645
			c0.321,0,0.616-0.049,0.771-0.07l-0.035,0.345c-0.209,0.042-0.539,0.091-0.84,0.091c-0.699,0-0.986-0.252-0.986-0.932v-2.696
			h-0.813l0.055-0.345h0.758v-0.817l0.404-0.104v0.924h1.473L252.811,49.537z"/>
		<path display="inline" fill="#FFFFFF" d="M254.798,55.042h-0.428l0.771-1.919h-0.322l-1.471-3.93h0.441l1.31,3.572h0.183
			l1.387-3.572h0.44L254.798,55.042z"/>
		<path display="inline" fill="#FFFFFF" d="M262.457,50.146l-0.565,0.266v0.027l0.596,0.211c0.237,0.195,0.427,0.645,0.427,1.1
			c0,1.009-0.574,1.443-1.996,1.443c-0.588,0-1.105-0.077-1.414-0.147v-0.356c0.322,0.056,0.89,0.141,1.414,0.141
			c1.304,0,1.576-0.428,1.576-1.079c0-0.933-0.623-1.106-1.414-1.106h-1.002v-0.363h0.909c0.688,0,1.408-0.176,1.408-1.086
			c0-0.672-0.252-1.021-1.315-1.021c-0.562,0-1.101,0.111-1.465,0.188V48.01c0.379-0.098,0.961-0.209,1.534-0.209
			c1.261,0,1.659,0.44,1.659,1.338C262.808,49.628,262.591,50.021,262.457,50.146z"/>
	</g>
	<g>
		<path fill="#FFFFFF" d="M140.058,13.438l-0.658-1.793h-2.563l-0.708,1.793h-0.427l2.101-5.253h0.75l1.961,5.253H140.058z
			 M138.272,8.57h-0.224l-1.079,2.71h2.304L138.272,8.57z"/>
		<path fill="#FFFFFF" d="M144.397,13.438l-0.104-0.42h-0.043c-0.014,0.028-0.182,0.245-0.194,0.252
			c-0.197,0.098-0.658,0.217-1.149,0.217c-0.566,0-0.861-0.119-1.078-0.343c-0.203-0.217-0.322-0.546-0.322-1.086V9.509h0.406v2.396
			c0,0.532,0.098,0.805,0.259,0.974c0.168,0.175,0.461,0.245,0.89,0.245c0.455,0,0.911-0.119,1.226-0.259V9.509h0.406v3.929H144.397
			z"/>
		<path fill="#FFFFFF" d="M147.259,11.638l-1.135,1.8h-0.463l1.282-1.982l-1.198-1.947h0.463l1.058,1.758h0.321l1.149-1.758h0.455
			l-1.288,1.947l1.246,1.982h-0.469l-1.107-1.8H147.259z"/>
		<path fill="#FFFFFF" d="M150.458,13.417c-0.035,0.042-0.127,0.056-0.211,0.056c-0.104,0-0.176-0.021-0.217-0.063
			c-0.043-0.042-0.057-0.112-0.057-0.217s0.043-0.189,0.084-0.224c0.043-0.021,0.105-0.042,0.203-0.042
			c0.084,0,0.168,0.014,0.203,0.049c0.049,0.035,0.07,0.119,0.07,0.217C150.535,13.284,150.514,13.368,150.458,13.417z"/>
		<path fill="#FFFFFF" d="M156.97,13.438l-3.02-4.861h-0.127v4.861h-0.385V8.185h0.729l2.99,4.819h0.135V8.185h0.385v5.253H156.97z"
			/>
		<path fill="#FFFFFF" d="M162.156,13.053c-0.273,0.28-0.672,0.469-1.365,0.469c-0.651,0-1.064-0.182-1.324-0.476
			c-0.225-0.259-0.428-0.722-0.428-1.478c0-0.763,0.203-1.379,0.562-1.716c0.28-0.266,0.715-0.448,1.338-0.448
			c0.597,0,1.008,0.168,1.254,0.413c0.287,0.301,0.462,0.756,0.462,1.569C162.653,12.156,162.457,12.738,162.156,13.053z
			 M161.82,12.843c0.244-0.252,0.42-0.687,0.42-1.387c0-0.806-0.154-1.142-0.363-1.359c-0.196-0.203-0.498-0.329-0.987-0.329
			c-0.483,0-0.806,0.154-0.988,0.322c-0.237,0.217-0.455,0.714-0.455,1.429c0,0.588,0.134,1.037,0.33,1.261
			c0.188,0.217,0.49,0.392,1.058,0.392C161.267,13.172,161.617,13.046,161.82,12.843z"/>
		<path fill="#FFFFFF" d="M166.664,7.73h0.414v5.708h-0.315l-0.099-0.371h-0.021c-0.069,0.077-0.202,0.231-0.244,0.259
			c-0.119,0.077-0.478,0.196-1.017,0.196c-0.553,0-0.909-0.112-1.155-0.315c-0.272-0.231-0.497-0.722-0.497-1.618
			c0-0.792,0.195-1.415,0.54-1.737c0.278-0.273,0.679-0.413,1.274-0.413c0.47,0,0.791,0.063,1.119,0.147V7.73L166.664,7.73z
			 M164.548,12.913c0.184,0.161,0.533,0.252,0.945,0.252c0.394,0,0.82-0.07,1.17-0.238V9.894c-0.266-0.035-0.629-0.105-1.063-0.105
			c-0.49,0-0.813,0.098-1.037,0.308c-0.237,0.224-0.412,0.708-0.412,1.464C164.15,12.332,164.332,12.724,164.548,12.913z"/>
		<path fill="#FFFFFF" d="M170.149,9.432c1.12,0,1.491,0.567,1.491,1.576v0.483h-2.864c0,1.072,0.31,1.653,1.408,1.653
			c0.567,0,1.028-0.091,1.302-0.133l-0.027,0.336c-0.279,0.07-0.783,0.168-1.323,0.168c-1.31,0-1.778-0.672-1.778-2.01
			C168.356,10.132,168.916,9.432,170.149,9.432z M168.791,11.176h2.451v-0.14c0-0.869-0.287-1.268-1.135-1.268
			C169.203,9.768,168.847,10.244,168.791,11.176z"/>
	</g>
	<g>
		<path fill="#FFFFFF" d="M207.625,13.438l-0.658-1.793h-2.563l-0.708,1.793h-0.427l2.102-5.253h0.75l1.961,5.253H207.625z
			 M205.839,8.57h-0.225l-1.078,2.71h2.305L205.839,8.57z"/>
		<path fill="#FFFFFF" d="M211.964,13.438l-0.104-0.42h-0.043c-0.014,0.028-0.183,0.245-0.194,0.252
			c-0.197,0.098-0.658,0.217-1.148,0.217c-0.566,0-0.861-0.119-1.078-0.343c-0.203-0.217-0.322-0.546-0.322-1.086V9.509h0.406v2.396
			c0,0.532,0.098,0.805,0.258,0.974c0.17,0.175,0.463,0.245,0.891,0.245c0.455,0,0.91-0.119,1.226-0.259V9.509h0.406v3.929H211.964z
			"/>
		<path fill="#FFFFFF" d="M214.826,11.638l-1.135,1.8h-0.462l1.282-1.982l-1.198-1.947h0.462l1.059,1.758h0.321l1.149-1.758h0.455
			l-1.289,1.947l1.246,1.982h-0.469l-1.106-1.8H214.826z"/>
		<path fill="#FFFFFF" d="M218.025,13.417c-0.035,0.042-0.127,0.056-0.211,0.056c-0.104,0-0.175-0.021-0.217-0.063
			s-0.057-0.112-0.057-0.217s0.043-0.189,0.084-0.224c0.043-0.021,0.104-0.042,0.203-0.042c0.084,0,0.168,0.014,0.203,0.049
			c0.049,0.035,0.069,0.119,0.069,0.217C218.102,13.284,218.082,13.368,218.025,13.417z"/>
		<path fill="#FFFFFF" d="M224.537,13.438l-3.02-4.861h-0.126v4.861h-0.386V8.185h0.729l2.991,4.819h0.134V8.185h0.385v5.253
			H224.537z"/>
		<path fill="#FFFFFF" d="M229.723,13.053c-0.272,0.28-0.673,0.469-1.365,0.469c-0.651,0-1.063-0.182-1.323-0.476
			c-0.225-0.259-0.428-0.722-0.428-1.478c0-0.763,0.203-1.379,0.561-1.716c0.28-0.266,0.715-0.448,1.338-0.448
			c0.596,0,1.009,0.168,1.254,0.413c0.287,0.301,0.463,0.756,0.463,1.569C230.221,12.156,230.024,12.738,229.723,13.053z
			 M229.387,12.843c0.245-0.252,0.42-0.687,0.42-1.387c0-0.806-0.154-1.142-0.363-1.359c-0.196-0.203-0.498-0.329-0.987-0.329
			c-0.482,0-0.806,0.154-0.988,0.322c-0.237,0.217-0.454,0.714-0.454,1.429c0,0.588,0.133,1.037,0.329,1.261
			c0.188,0.217,0.49,0.392,1.058,0.392C228.833,13.172,229.184,13.046,229.387,12.843z"/>
		<path fill="#FFFFFF" d="M234.23,7.73h0.414v5.708h-0.314l-0.1-0.371h-0.021c-0.068,0.077-0.201,0.231-0.244,0.259
			c-0.119,0.077-0.478,0.196-1.017,0.196c-0.553,0-0.909-0.112-1.155-0.315c-0.272-0.231-0.496-0.722-0.496-1.618
			c0-0.792,0.195-1.415,0.539-1.737c0.279-0.273,0.68-0.413,1.274-0.413c0.47,0,0.791,0.063,1.119,0.147L234.23,7.73L234.23,7.73z
			 M232.117,12.913c0.182,0.161,0.531,0.252,0.944,0.252c0.392,0,0.819-0.07,1.169-0.238V9.894
			c-0.266-0.035-0.629-0.105-1.064-0.105c-0.49,0-0.813,0.098-1.035,0.308c-0.237,0.224-0.414,0.708-0.414,1.464
			C231.716,12.332,231.898,12.724,232.117,12.913z"/>
		<path fill="#FFFFFF" d="M237.716,9.432c1.121,0,1.492,0.567,1.492,1.576v0.483h-2.864c0,1.072,0.309,1.653,1.407,1.653
			c0.566,0,1.029-0.091,1.303-0.133l-0.028,0.336c-0.278,0.07-0.782,0.168-1.323,0.168c-1.31,0-1.777-0.672-1.777-2.01
			C235.923,10.132,236.483,9.432,237.716,9.432z M236.357,11.176h2.451v-0.14c0-0.869-0.287-1.268-1.135-1.268
			C236.771,9.768,236.414,10.244,236.357,11.176z"/>
	</g>
	<g>
		<path fill="#FFFFFF" d="M72.489,13.438l-0.658-1.793h-2.563l-0.708,1.793h-0.427l2.101-5.253h0.75l1.961,5.253H72.489z
			 M70.703,8.57h-0.224L69.4,11.28h2.304L70.703,8.57z"/>
		<path fill="#FFFFFF" d="M76.828,13.438l-0.105-0.42h-0.042c-0.014,0.028-0.182,0.245-0.196,0.252
			c-0.196,0.098-0.658,0.217-1.149,0.217c-0.567,0-0.861-0.119-1.078-0.343c-0.203-0.217-0.322-0.546-0.322-1.086V9.509h0.406v2.396
			c0,0.532,0.098,0.805,0.259,0.974c0.168,0.175,0.462,0.245,0.89,0.245c0.455,0,0.911-0.119,1.226-0.259V9.509h0.406v3.929H76.828z
			"/>
		<path fill="#FFFFFF" d="M79.69,11.638l-1.135,1.8h-0.462l1.282-1.982l-1.198-1.947h0.462l1.057,1.758h0.322l1.149-1.758h0.455
			l-1.289,1.947l1.247,1.982h-0.469l-1.106-1.8H79.69z"/>
		<path fill="#FFFFFF" d="M82.889,13.417c-0.035,0.042-0.126,0.056-0.21,0.056c-0.105,0-0.175-0.021-0.217-0.063
			s-0.056-0.112-0.056-0.217s0.042-0.189,0.084-0.224c0.042-0.021,0.105-0.042,0.203-0.042c0.084,0,0.168,0.014,0.203,0.049
			c0.049,0.035,0.07,0.119,0.07,0.217C82.966,13.284,82.945,13.368,82.889,13.417z"/>
		<path fill="#FFFFFF" d="M89.4,13.438l-3.019-4.861h-0.126v4.861H85.87V8.185h0.728l2.991,4.819h0.133V8.185h0.385v5.253H89.4z"/>
		<path fill="#FFFFFF" d="M94.587,13.053c-0.273,0.28-0.672,0.469-1.366,0.469c-0.651,0-1.065-0.182-1.324-0.476
			c-0.224-0.259-0.427-0.722-0.427-1.478c0-0.763,0.203-1.379,0.56-1.716c0.28-0.266,0.714-0.448,1.338-0.448
			c0.595,0,1.008,0.168,1.254,0.413c0.287,0.301,0.462,0.756,0.462,1.569C95.084,12.156,94.888,12.738,94.587,13.053z M94.25,12.843
			c0.245-0.252,0.42-0.687,0.42-1.387c0-0.806-0.154-1.142-0.364-1.359c-0.196-0.203-0.497-0.329-0.987-0.329
			c-0.483,0-0.806,0.154-0.988,0.322c-0.238,0.217-0.455,0.714-0.455,1.429c0,0.588,0.133,1.037,0.329,1.261
			c0.189,0.217,0.49,0.392,1.058,0.392C93.697,13.172,94.047,13.046,94.25,12.843z"/>
		<path fill="#FFFFFF" d="M99.095,7.73h0.414v5.708h-0.315l-0.098-0.371h-0.021c-0.07,0.077-0.203,0.231-0.245,0.259
			c-0.119,0.077-0.476,0.196-1.015,0.196c-0.554,0-0.911-0.112-1.156-0.315c-0.273-0.231-0.498-0.722-0.498-1.618
			c0-0.792,0.196-1.415,0.54-1.737c0.28-0.273,0.679-0.413,1.275-0.413c0.469,0,0.791,0.063,1.12,0.147L99.095,7.73L99.095,7.73z
			 M96.98,12.913c0.182,0.161,0.532,0.252,0.945,0.252c0.392,0,0.819-0.07,1.169-0.238V9.894c-0.266-0.035-0.63-0.105-1.064-0.105
			c-0.49,0-0.813,0.098-1.037,0.308c-0.238,0.224-0.413,0.708-0.413,1.464C96.581,12.332,96.763,12.724,96.98,12.913z"/>
		<path fill="#FFFFFF" d="M102.58,9.432c1.121,0,1.492,0.567,1.492,1.576v0.483h-2.865c0,1.072,0.309,1.653,1.408,1.653
			c0.567,0,1.029-0.091,1.302-0.133l-0.028,0.336c-0.28,0.07-0.784,0.168-1.324,0.168c-1.31,0-1.779-0.672-1.779-2.01
			C100.787,10.132,101.347,9.432,102.58,9.432z M101.221,11.176h2.451v-0.14c0-0.869-0.287-1.268-1.134-1.268
			C101.634,9.768,101.277,10.244,101.221,11.176z"/>
	</g>
	<g>
		<path fill="#FFFFFF" d="M136.169,64.561c1.639,0,2.395,0.168,2.843,0.505c0.477,0.336,0.799,0.98,0.799,2.157
			c0,1.064-0.393,1.904-0.813,2.297c-0.154,0.126-0.729,0.448-1.303,0.645v0.027c0.294,0.141,0.7,0.379,0.854,0.547
			c0.42,0.518,1.177,2.269,2.073,4.328h-0.896c-1.205-2.745-1.808-4.034-2.354-4.37c-0.28-0.183-1.022-0.238-2.087-0.238h-1.457
			v4.608h-0.826V64.561H136.169z M133.83,69.729h2.213c0.896,0,1.457-0.084,1.793-0.21c0.631-0.252,1.135-1.051,1.135-2.186
			c0-0.854-0.21-1.387-0.546-1.639c-0.336-0.266-0.896-0.42-2.312-0.42h-2.283V69.729z"/>
		<path fill="#FFFFFF" d="M145.661,67.054c2.241,0,2.983,1.135,2.983,3.152v0.966h-5.729c0,2.144,0.617,3.307,2.816,3.307
			c1.134,0,2.059-0.183,2.604-0.267l-0.056,0.673c-0.561,0.14-1.568,0.336-2.647,0.336c-2.619,0-3.558-1.345-3.558-4.021
			C142.075,68.455,143.195,67.054,145.661,67.054z M142.943,70.542h4.902v-0.28c0-1.737-0.574-2.535-2.269-2.535
			C143.769,67.727,143.055,68.679,142.943,70.542z"/>
		<path fill="#FFFFFF" d="M157.409,74.646c0,2.129-0.393,2.983-0.938,3.502c-0.477,0.434-1.232,0.756-2.619,0.756
			c-1.247,0-2.242-0.196-2.774-0.294v-0.715c0.547,0.099,1.569,0.267,2.731,0.267c1.149,0,1.766-0.238,2.13-0.561
			c0.392-0.392,0.658-1.12,0.658-2.886v-0.42h-0.056c-0.127,0.154-0.406,0.49-0.491,0.532c-0.237,0.154-1.092,0.351-2.114,0.351
			c-1.107,0-1.779-0.238-2.228-0.603c-0.645-0.504-1.037-1.499-1.037-3.109c0-1.64,0.406-2.857,1.079-3.53
			c0.49-0.477,1.331-0.813,2.661-0.813c0.995,0,1.779,0.168,2.479,0.336l0.378-0.252h0.141V74.646z M152.282,73.974
			c0.406,0.322,1.12,0.49,1.905,0.49c0.813,0,1.709-0.14,2.409-0.462v-5.995c-0.574-0.07-1.303-0.183-2.129-0.183
			c-1.051,0-1.724,0.21-2.157,0.631c-0.477,0.49-0.799,1.429-0.799,2.871C151.511,72.783,151.805,73.596,152.282,73.974z"/>
		<path fill="#FFFFFF" d="M163.553,67.054c2.241,0,2.983,1.135,2.983,3.152v0.966h-5.729c0,2.144,0.617,3.307,2.816,3.307
			c1.134,0,2.059-0.183,2.604-0.267l-0.056,0.673c-0.561,0.14-1.568,0.336-2.647,0.336c-2.619,0-3.558-1.345-3.558-4.021
			C159.967,68.455,161.087,67.054,163.553,67.054z M160.835,70.542h4.902v-0.28c0-1.737-0.574-2.535-2.269-2.535
			C161.662,67.727,160.948,68.679,160.835,70.542z"/>
		<path fill="#FFFFFF" d="M174.53,75.066v-4.86c0-0.995-0.196-1.569-0.546-1.905c-0.351-0.336-0.967-0.477-1.695-0.477
			c-1.009,0-1.891,0.267-2.508,0.519v6.724h-0.813v-7.858h0.589l0.224,0.826h0.07c0.042-0.056,0.364-0.42,0.406-0.448
			c0.378-0.21,1.387-0.49,2.381-0.49c1.023,0,1.625,0.225,2.046,0.645c0.434,0.406,0.658,1.121,0.658,2.186v5.141H174.53z"/>
		<path fill="#FFFFFF" d="M181.458,67.054c2.241,0,2.983,1.135,2.983,3.152v0.966h-5.729c0,2.144,0.617,3.307,2.816,3.307
			c1.134,0,2.059-0.183,2.604-0.267l-0.056,0.673c-0.561,0.14-1.568,0.336-2.647,0.336c-2.619,0-3.558-1.345-3.558-4.021
			C177.873,68.455,178.993,67.054,181.458,67.054z M178.741,70.542h4.902v-0.28c0-1.737-0.574-2.535-2.269-2.535
			C179.567,67.727,178.853,68.679,178.741,70.542z"/>
		<path fill="#FFFFFF" d="M187.477,67.208l0.196,0.868h0.084c0.042-0.056,0.378-0.462,0.406-0.49c0.378-0.224,1.093-0.49,2.073-0.49
			c0.393,0,0.687,0.028,0.896,0.057v0.784c-0.238-0.042-0.645-0.098-1.121-0.098c-0.952-0.015-1.849,0.308-2.325,0.616v6.611h-0.813
			v-7.858H187.477z"/>
		<path fill="#FFFFFF" d="M197.783,75.066l-0.195-0.854h-0.07c-0.112,0.154-0.309,0.42-0.378,0.477
			c-0.238,0.168-1.079,0.518-2.438,0.518c-1.093,0-1.681-0.266-2.003-0.63c-0.28-0.309-0.448-0.799-0.448-1.527
			c0-0.882,0.308-1.414,0.616-1.61c0.603-0.448,2.199-0.742,4.706-0.967c0-1.358-0.168-1.919-0.434-2.241
			c-0.253-0.294-0.771-0.434-1.653-0.434c-0.952,0-2.171,0.224-2.703,0.322V67.46c0.588-0.153,1.751-0.392,2.871-0.392
			c1.079,0,1.766,0.182,2.144,0.616c0.35,0.378,0.574,0.967,0.574,2.507v4.875H197.783z M197.573,71.103
			c-1.82,0.111-3.852,0.406-4.174,0.756c-0.21,0.183-0.351,0.532-0.351,1.121c0,0.504,0.126,0.868,0.322,1.093
			c0.238,0.252,0.742,0.448,1.597,0.448c1.191,0,2.186-0.337,2.605-0.547V71.103z"/>
		<path fill="#FFFFFF" d="M205.357,67.895h-2.788v5.239c0,1.064,0.491,1.288,1.373,1.288c0.645,0,1.232-0.098,1.541-0.14
			l-0.07,0.687c-0.42,0.084-1.078,0.182-1.681,0.182c-1.4,0-1.975-0.504-1.975-1.863v-5.393h-1.625l0.111-0.687h1.514v-1.639
			l0.812-0.21v1.849h2.942L205.357,67.895z"/>
		<path fill="#FFFFFF" d="M208.42,64.953c-0.084,0.07-0.237,0.098-0.392,0.098c-0.196,0-0.322-0.027-0.393-0.112
			c-0.07-0.069-0.112-0.21-0.112-0.392c0-0.21,0.057-0.364,0.169-0.42c0.042-0.057,0.182-0.099,0.363-0.099
			c0.169,0,0.295,0.028,0.364,0.099c0.099,0.084,0.126,0.224,0.126,0.406C208.546,64.715,208.519,64.883,208.42,64.953z
			 M207.608,75.066v-7.858h0.813v7.858H207.608z"/>
		<path fill="#FFFFFF" d="M217.216,74.296c-0.547,0.561-1.345,0.938-2.731,0.938c-1.303,0-2.13-0.364-2.647-0.952
			c-0.448-0.519-0.854-1.443-0.854-2.956c0-1.526,0.406-2.76,1.12-3.432c0.561-0.532,1.429-0.896,2.676-0.896
			c1.19,0,2.017,0.336,2.508,0.826c0.574,0.603,0.924,1.513,0.924,3.138C218.21,72.503,217.819,73.666,217.216,74.296z
			 M216.543,73.876c0.49-0.505,0.841-1.373,0.841-2.773c0-1.611-0.309-2.283-0.729-2.718c-0.393-0.406-0.994-0.658-1.975-0.658
			c-0.967,0-1.611,0.308-1.976,0.645c-0.477,0.434-0.91,1.429-0.91,2.857c0,1.177,0.266,2.073,0.658,2.521
			c0.378,0.434,0.98,0.784,2.115,0.784C215.437,74.534,216.137,74.282,216.543,73.876z"/>
		<path fill="#FFFFFF" d="M226.33,75.066v-4.86c0-0.995-0.196-1.569-0.547-1.905c-0.35-0.336-0.966-0.477-1.694-0.477
			c-1.009,0-1.892,0.267-2.508,0.519v6.724h-0.813v-7.858h0.589l0.224,0.826h0.07c0.042-0.056,0.364-0.42,0.406-0.448
			c0.378-0.21,1.387-0.49,2.382-0.49c1.022,0,1.624,0.225,2.045,0.645c0.434,0.406,0.658,1.121,0.658,2.186v5.141H226.33z"/>
	</g>
</g>
<g>
	<path fill="#FFFFFF" d="M28.037,48.76c-0.984,0.84-2.784,1.224-5.353,1.224c-2.232,0-4.032-0.288-5.232-0.576v-1.248
		c1.416,0.24,3,0.528,5.256,0.528c2.473,0,3.793-0.384,4.297-0.864c0.432-0.432,0.815-1.224,0.815-2.424
		c0-0.984-0.191-1.752-0.552-2.16c-1.344-1.464-7.776-2.353-9.145-4.104c-0.552-0.672-0.721-1.944-0.721-2.928
		c0-1.32,0.385-2.616,1.2-3.409c0.769-0.744,2.305-1.344,5.257-1.344c1.968,0,3.601,0.168,4.824,0.384v1.225
		c-1.512-0.168-2.784-0.336-5.017-0.336c-2.231,0-3.552,0.384-4.08,1.008c-0.384,0.408-0.768,1.248-0.768,2.353
		c0,0.912,0.168,1.68,0.527,2.136c1.057,1.344,7.945,2.544,9.169,4.104c0.601,0.72,0.769,1.968,0.769,3
		C29.285,46.768,28.78,48.111,28.037,48.76z"/>
	<path fill="#FFFFFF" d="M44.62,32.99h-6.36V49.72h-1.392V32.99h-6.505l0.336-1.272h14.209L44.62,32.99z"/>
	<path fill="#FFFFFF" d="M65.141,49.72V33.038h-0.359l-6.625,14.497h-1.944l-6.384-14.497h-0.385V49.72h-1.32V31.718h2.593
		l6.313,14.449h0.408l6.576-14.449h2.496V49.72H65.141z"/>
</g>
</svg>
