<?xml version="1.0" encoding="utf-8"?>
<!-- Generator: Adobe Illustrator 16.0.2, SVG Export Plug-In . SVG Version: 6.00 Build 0)  -->
<!DOCTYPE svg PUBLIC "-//W3C//DTD SVG 1.1//EN" "http://www.w3.org/Graphics/SVG/1.1/DTD/svg11.dtd">
<svg version="1.1" id="Layer_1" xmlns="http://www.w3.org/2000/svg" xmlns:xlink="http://www.w3.org/1999/xlink" x="0px" y="0px"
	 width="612px" height="792px" viewBox="0 0 612 792" enable-background="new 0 0 612 792" xml:space="preserve">
<g id="tint">
	<path fill="#A30E2A" d="M175.284,431.511l20.653-20.652l-19.101-0.321l-70.001,69.944l134.64-0.004l48.971-48.969L175.284,431.511
		L175.284,431.511z"/>
	<path fill="#A30E2A" d="M314.144,431.511l20.652-20.652l-19.101-0.321l-70.001,69.944l134.64-0.004l48.971-48.969L314.144,431.511
		L314.144,431.511z"/>
	<path fill="#A30E2A" d="M453.018,431.511l20.653-20.652l-19.102-0.321l-70.001,69.944l134.641-0.004l48.973-48.969L453.018,431.511
		L453.018,431.511z"/>
	<path fill="#A30E2A" d="M175.284,358.418l20.653,20.655l-19.101,0.319l-70.001-69.945l134.64,0.004l48.971,48.968L175.284,358.418
		L175.284,358.418z"/>
	<path fill="#A30E2A" d="M314.144,358.418l20.652,20.655l-19.101,0.319l-70.001-69.945l134.64,0.004l48.971,48.968L314.144,358.418
		L314.144,358.418z"/>
	<path fill="#A30E2A" d="M453.018,358.418l20.653,20.655l-19.102,0.319l-70.001-69.945l134.641,0.004l48.973,48.968L453.018,358.418
		L453.018,358.418z"/>
</g>
<g id="primary">
	<rect x="160.758" y="382.747" fill="#A30E2A" width="371.128" height="24.435"/>
	<path fill="#A30E2A" d="M6.114,394.966l85.516,85.516l85.516-85.514l-85.519-85.519L6.114,394.966L6.114,394.966z"/>
	<path fill="#A30E2A" d="M6.114,394.966l85.516,85.516l85.516-85.514l-85.519-85.519L6.114,394.966L6.114,394.966z"/>
	<path fill="#A30E2A" d="M302.557,419.398H156.984l22.297-22.297l2.133-2.134l-24.435-24.437h145.572l24.437,24.437L302.557,419.398
		z"/>
	<path fill="#A30E2A" d="M306.827,419.398l22.295-22.297l2.136-2.134l-24.437-24.437h134.605l24.437,24.437l-24.433,24.431H306.827z
		"/>
	<path fill="#A30E2A" d="M445.702,419.398l22.297-22.297l2.134-2.134l-24.436-24.437h134.604l24.438,24.437l-24.431,24.431H445.702z
		"/>
</g>
<g id="Text">
	<g>
		<g>
			<path fill="#FFFFFF" d="M196.734,406.331v-1.539h6.671V384.93l-6.671,1.207v-1.539l8.391-1.48v21.674h6.038v1.539H196.734z"/>
			<path fill="#FFFFFF" d="M245.524,406.331h-15.545v-1.811c0.271-3.32,2.082-5.465,7.396-8.06c3.381-1.689,4.859-2.564,5.646-3.592
				c0.664-0.935,0.845-2.142,0.845-3.32c0-3.11-1.146-4.528-6.066-4.528c-2.688,0-5.583,0.664-6.913,0.965v-1.571
				c1.78-0.482,4.558-1.028,7.273-1.028c5.764,0,7.577,1.873,7.577,5.948c0,2.054-0.453,3.471-1.146,4.346
				c-1.177,1.539-3.502,2.717-6.46,4.166c-5.523,2.688-6.398,4.588-6.46,6.853h14.309L245.524,406.331L245.524,406.331z"/>
			<path fill="#FFFFFF" d="M277.413,393.502l-2.446,1.146v0.121l2.564,0.905c1.028,0.847,1.84,2.777,1.84,4.738
				c0,4.347-2.474,6.22-8.603,6.22c-2.534,0-4.769-0.332-6.099-0.634v-1.539c1.39,0.241,3.834,0.604,6.099,0.604
				c5.614,0,6.792-1.84,6.792-4.648c0-4.015-2.688-4.769-6.099-4.769h-4.316v-1.571h3.924c2.958,0,6.066-0.754,6.066-4.678
				c0-2.898-1.086-4.407-5.674-4.407c-2.416,0-4.739,0.483-6.31,0.815v-1.511c1.631-0.422,4.135-0.905,6.611-0.905
				c5.433,0,7.154,1.903,7.154,5.767C278.921,391.268,277.986,392.957,277.413,393.502L277.413,393.502z"/>
		</g>
		<g>
			<path fill="#FFFFFF" d="M359.266,406.331h-1.661v-6.429H345.98v-1.752l9.994-14.459h3.289v14.701h5.072l-0.454,1.511h-4.62
				L359.266,406.331L359.266,406.331z M357.606,398.392v-13.22h-0.817L347.945,398v0.392H357.606z"/>
			<path fill="#FFFFFF" d="M387.679,406.633c-2.08,0-4.282-0.302-5.855-0.543v-1.602c1.448,0.211,3.683,0.513,5.947,0.513
				c5.224,0,7.036-1.48,7.036-5.222c0-3.984-1.267-5.01-5.917-5.01c-2.143,0-5.041,0.453-6.368,0.634v-11.712h13.403v1.539h-11.83
				v8.512c1.267-0.211,3.015-0.543,5.342-0.543c5.254,0,7.185,1.39,7.185,6.337C396.615,404.308,394.412,406.633,387.679,406.633z"
				/>
			<path fill="#FFFFFF" d="M417.337,395.282h0.148l0.963-0.996c1.302-0.482,3.653-1.146,6.402-1.146
				c5.343,0,7.124,2.232,7.124,6.428c0,4.377-2.267,7.064-8.089,7.064c-6.338,0-8.304-4.015-8.304-10.687
				c0-4.196,1.18-7.215,2.959-9.116c2.084-2.174,5.404-3.532,11.229-3.592l0.602,1.602c-5.674,0.03-8.756,1.207-10.563,3.14
				C418.391,389.486,417.455,392.052,417.337,395.282L417.337,395.282z M424.275,394.709c-2.685,0-5.161,0.664-6.941,1.357
				c0.059,6.25,2.021,8.995,6.638,8.995c4.318,0,6.249-1.689,6.249-5.342C430.223,396.22,428.803,394.709,424.275,394.709z"/>
		</g>
		<g>
			<path fill="#FFFFFF" d="M494.617,385.714v-0.422h-13.609l0.483-1.601h15.061v1.994l-10.807,20.646h-1.961L494.617,385.714
				L494.617,385.714z"/>
			<path fill="#FFFFFF" d="M517.543,395.825l2.05-1.118v-0.151l-1.811-0.935c-0.784-0.785-1.541-1.903-1.541-3.984
				c0-3.653,2.293-6.28,7.604-6.28c5.284,0,7.245,2.353,7.245,5.734c0,2.144-0.907,3.441-1.752,4.347l-1.868,1.118v0.151
				l2.291,0.847c1.211,0.966,1.902,2.507,1.902,4.558c0,3.743-2.325,6.521-8.271,6.521c-5.611,0-7.94-2.235-7.94-6.066
				C515.459,398.633,516.243,397.032,517.543,395.825z M517.241,400.353c0,3.02,1.752,4.739,6.338,4.739
				c4.678,0,6.31-2.202,6.31-4.799c0-4.136-2.627-4.468-9.359-5.194C518.868,396.188,517.241,397.668,517.241,400.353z
				 M518.023,389.486c0,3.713,2.357,4.226,8.271,4.769c1.903-1.176,2.989-2.717,2.989-4.95c0-2.898-1.629-4.407-5.611-4.407
				C519.504,384.9,518.023,386.951,518.023,389.486L518.023,389.486z"/>
			<path fill="#FFFFFF" d="M564.34,394.77h-0.149l-0.939,0.996c-1.236,0.513-3.56,1.119-6.156,1.119
				c-5.402,0-7.306-2.175-7.306-6.34c0-4.769,2.991-7.155,8.058-7.155c5.917,0,8.24,3.291,8.24,10.475
				c0,4.316-1.175,7.486-2.958,9.356c-1.992,2.175-5.4,3.472-11.26,3.593l-0.575-1.661c5.585-0.03,8.844-1.146,10.596-3.05
				C563.253,400.566,564.249,398.03,564.34,394.77z M557.489,395.313c2.717,0,5.163-0.633,6.853-1.267
				c-0.059-6.4-1.9-9.085-6.607-9.085c-4.226,0-6.191,2.021-6.191,5.465C551.543,393.804,553.05,395.313,557.489,395.313
				L557.489,395.313z"/>
		</g>
	</g>
	<g>
		<path fill="#FFFFFF" d="M68.561,408.412c-2.12,1.811-5.999,2.64-11.535,2.64c-4.81,0-8.688-0.622-11.274-1.241v-2.691
			c3.051,0.516,6.465,1.136,11.326,1.136c5.329,0,8.171-0.827,9.257-1.859c0.931-0.934,1.759-2.64,1.759-5.226
			c0-2.121-0.414-3.777-1.189-4.655c-2.896-3.154-16.757-5.07-19.707-8.843c-1.189-1.448-1.552-4.189-1.552-6.31
			c0-2.844,0.828-5.637,2.586-7.344c1.655-1.604,4.965-2.896,11.327-2.896c4.241,0,7.758,0.362,10.395,0.828v2.638
			c-3.258-0.362-5.999-0.724-10.809-0.724c-4.81,0-7.654,0.828-8.794,2.172c-0.828,0.879-1.655,2.689-1.655,5.068
			c0,1.965,0.362,3.62,1.138,4.603c2.276,2.896,17.119,5.482,19.757,8.844c1.293,1.552,1.655,4.241,1.655,6.465
			C71.25,404.12,70.167,407.014,68.561,408.412z"/>
		<path fill="#FFFFFF" d="M104.301,374.429H90.593v36.052h-3v-36.052H73.578l0.724-2.741h30.62L104.301,374.429z"/>
		<path fill="#FFFFFF" d="M123.435,371.688c6.051,0,8.844,0.621,10.501,1.862c1.758,1.241,2.948,3.621,2.948,7.965
			c0,3.931-1.448,7.036-3,8.484c-0.569,0.465-2.692,1.655-4.81,2.379v0.104c1.086,0.517,2.586,1.396,3.155,2.017
			c1.552,1.913,4.344,8.378,7.654,15.983h-3.31c-4.448-10.137-6.671-14.897-8.69-16.139c-1.035-0.672-3.775-0.879-7.706-0.879
			h-5.379v17.015h-3.051v-38.791H123.435z M114.797,390.774h8.171c3.31,0,5.379-0.311,6.62-0.776
			c2.327-0.931,4.189-3.879,4.189-8.068c0-3.155-0.775-5.12-2.017-6.053c-1.242-0.983-3.31-1.552-8.534-1.552h-8.43V390.774z"/>
	</g>
	<g id="v2">
		<path fill="#FFFFFF" d="M436.985,448.934v12.121h3.57c2.409,0,3.67-0.42,4.479-1.116c0.952-0.84,1.631-2.65,1.631-5.139
			c0-2.554-0.517-4.105-1.293-4.849c-0.726-0.694-2.004-1.018-4.249-1.018H436.985z M440.993,449.807
			c1.502,0,2.957,0.129,3.62,0.823c0.759,0.775,1.082,2.312,1.082,4.187c0,2.263-0.55,3.847-1.34,4.509
			c-0.664,0.534-1.778,0.857-3.929,0.857h-2.489v-10.376H440.993L440.993,449.807z"/>
		<path fill="#FFFFFF" d="M456.282,461.055v-5.624c0-1.777-0.258-2.456-0.663-2.894c-0.436-0.5-1.229-0.712-2.472-0.712
			c-1.293,0-2.636,0.276-3.314,0.453v0.761c0.614-0.114,2.021-0.373,3.12-0.373c1.018,0,1.616,0.162,1.907,0.502
			c0.306,0.371,0.5,1.018,0.5,2.586c-2.892,0.259-4.734,0.597-5.431,1.114c-0.355,0.227-0.711,0.841-0.711,1.859
			c0,0.841,0.194,1.405,0.518,1.761c0.372,0.42,1.051,0.729,2.312,0.729c1.567,0,2.537-0.405,2.813-0.6
			c0.08-0.064,0.306-0.37,0.436-0.549h0.082l0.226,0.986H456.282L456.282,461.055z M455.36,459.795
			c-0.485,0.241-1.631,0.629-3.006,0.629c-0.985,0-1.567-0.227-1.843-0.518c-0.227-0.258-0.371-0.679-0.371-1.261
			c0-0.679,0.162-1.081,0.403-1.293c0.373-0.402,2.716-0.743,4.816-0.872V459.795L455.36,459.795z"/>
		<path fill="#FFFFFF" d="M472.865,461.055v-5.932c0-1.244-0.212-2.069-0.729-2.554c-0.485-0.468-1.164-0.712-2.23-0.712
			c-1.179,0-2.213,0.356-2.73,0.646l-0.502,0.632h-0.08c-0.082-0.146-0.193-0.341-0.405-0.534c-0.5-0.485-1.243-0.744-2.406-0.744
			c-1.182,0-2.184,0.324-2.604,0.55l-0.485,0.534h-0.079l-0.244-0.954h-0.693v9.067h0.938v-7.742
			c0.679-0.273,1.616-0.614,2.795-0.614c0.743,0,1.504,0.146,1.892,0.518c0.371,0.355,0.5,0.84,0.5,1.633v6.206h0.938v-7.628
			c0.646-0.341,1.602-0.729,2.765-0.729c0.759,0,1.438,0.179,1.825,0.55c0.388,0.373,0.6,1.002,0.6,2.198v5.608H472.865
			L472.865,461.055z"/>
		<path fill="#FFFFFF" d="M482.724,461.055v-5.624c0-1.777-0.259-2.456-0.664-2.894c-0.435-0.5-1.228-0.712-2.472-0.712
			c-1.293,0-2.635,0.276-3.313,0.453v0.761c0.613-0.114,2.021-0.373,3.12-0.373c1.017,0,1.616,0.162,1.907,0.502
			c0.306,0.371,0.5,1.018,0.5,2.586c-2.893,0.259-4.734,0.597-5.431,1.114c-0.355,0.227-0.711,0.841-0.711,1.859
			c0,0.841,0.193,1.405,0.517,1.761c0.373,0.42,1.052,0.729,2.313,0.729c1.566,0,2.536-0.405,2.813-0.6
			c0.079-0.064,0.306-0.37,0.435-0.549h0.082l0.227,0.986H482.724L482.724,461.055z M481.802,459.795
			c-0.485,0.241-1.632,0.629-3.007,0.629c-0.984,0-1.566-0.227-1.842-0.518c-0.227-0.258-0.371-0.679-0.371-1.261
			c0-0.679,0.162-1.081,0.403-1.293c0.372-0.402,2.715-0.743,4.816-0.872V459.795L481.802,459.795z"/>
		<path fill="#FFFFFF" d="M493.438,451.987h-0.161l-0.436,0.291c-0.808-0.194-1.713-0.388-2.861-0.388
			c-1.534,0-2.504,0.388-3.071,0.938c-0.775,0.775-1.243,2.183-1.243,4.072c0,1.859,0.452,3.006,1.196,3.588
			c0.517,0.42,1.293,0.696,2.568,0.696c1.181,0,2.166-0.227,2.441-0.405c0.098-0.048,0.421-0.436,0.564-0.614h0.065v0.485
			c0,2.036-0.307,2.877-0.759,3.329c-0.421,0.373-1.132,0.646-2.457,0.646c-1.343,0-2.521-0.194-3.152-0.306v0.822
			c0.614,0.114,1.763,0.341,3.2,0.341c1.601,0,2.474-0.373,3.023-0.873c0.629-0.599,1.081-1.583,1.081-4.04V451.987L493.438,451.987
			z M486.635,456.739c0-1.664,0.371-2.748,0.92-3.313c0.502-0.485,1.278-0.729,2.489-0.729c0.955,0,1.795,0.13,2.457,0.211v6.918
			c-0.809,0.37-1.843,0.532-2.78,0.532c-0.905,0-1.729-0.194-2.198-0.564C486.974,459.357,486.635,458.42,486.635,456.739z"/>
		<path fill="#FFFFFF" d="M496.396,456.595c0,3.086,1.082,4.637,4.105,4.637c1.243,0,2.407-0.226,3.054-0.388l0.064-0.775
			c-0.629,0.097-1.696,0.308-3.006,0.308c-2.537,0-3.248-1.342-3.248-3.813h6.609v-1.116c0-2.328-0.855-3.636-3.441-3.636
			C497.689,451.811,496.396,453.427,496.396,456.595z M500.438,452.586c1.954,0,2.618,0.921,2.618,2.925v0.323h-5.657
			C497.528,453.686,498.352,452.586,500.438,452.586z"/>
		<path fill="#FFFFFF" d="M509.955,455.995h3.912v3.993h0.825v-3.993h3.911v-0.823h-3.911v-4.008h-0.825v4.008h-3.912V455.995z"/>
	</g>
	<g id="v3">
		<path fill="#FFFFFF" d="M173.864,330.115l-4.525-12.122h-1.729l-4.849,12.122h0.985l1.633-4.138h5.916l1.519,4.138H173.864
			L173.864,330.115z M171.004,325.137h-5.318l2.489-6.256h0.518L171.004,325.137L171.004,325.137z"/>
		<path fill="#FFFFFF" d="M183.514,330.115v-9.068h-0.937v7.743c-0.729,0.323-1.778,0.597-2.83,0.597
			c-0.985,0-1.664-0.162-2.052-0.564c-0.373-0.388-0.599-1.02-0.599-2.248v-5.527h-0.937v5.883c0,1.246,0.276,2.004,0.743,2.506
			c0.502,0.517,1.181,0.791,2.489,0.791c1.131,0,2.198-0.273,2.65-0.5c0.032-0.017,0.42-0.517,0.453-0.582h0.097l0.244,0.97H183.514
			z"/>
		<path fill="#FFFFFF" d="M190.172,325.96l2.554,4.155h1.082l-2.877-4.575l2.974-4.493h-1.049l-2.65,4.058h-0.744l-2.441-4.058
			h-1.067l2.765,4.493l-2.958,4.575h1.066l2.619-4.155H190.172L190.172,325.96z"/>
		<path fill="#FFFFFF" d="M197.122,330.115v-9.068h-0.938v9.068H197.122z M197.267,317.961c0-0.211-0.032-0.373-0.145-0.47
			c-0.082-0.08-0.226-0.112-0.42-0.112c-0.211,0-0.373,0.047-0.42,0.112c-0.129,0.064-0.194,0.244-0.194,0.485
			c0,0.211,0.047,0.373,0.129,0.453c0.08,0.097,0.226,0.129,0.452,0.129c0.177,0,0.356-0.032,0.453-0.112
			C197.234,318.364,197.267,318.17,197.267,317.961z"/>
		<path fill="#FFFFFF" d="M200.484,317.024v11.038c0,1.519,0.597,2.15,1.907,2.15c0.614,0,1.179-0.097,1.566-0.179v-0.743
			c-0.323,0.049-0.758,0.114-1.293,0.114c-0.758,0-1.243-0.276-1.243-1.44v-10.94H200.484z"/>
		<path fill="#FFFFFF" d="M206.834,330.115v-9.068h-0.938v9.068H206.834z M206.981,317.961c0-0.211-0.032-0.373-0.146-0.47
			c-0.08-0.08-0.226-0.112-0.42-0.112c-0.209,0-0.371,0.047-0.42,0.112c-0.129,0.064-0.194,0.244-0.194,0.485
			c0,0.211,0.049,0.373,0.129,0.453c0.082,0.097,0.227,0.129,0.453,0.129c0.179,0,0.355-0.032,0.453-0.112
			C206.949,318.364,206.981,318.17,206.981,317.961z"/>
		<path fill="#FFFFFF" d="M216.71,330.115v-5.625c0-1.778-0.258-2.457-0.664-2.894c-0.436-0.5-1.229-0.711-2.472-0.711
			c-1.293,0-2.636,0.276-3.314,0.452v0.761c0.614-0.114,2.021-0.373,3.121-0.373c1.017,0,1.616,0.162,1.907,0.502
			c0.306,0.371,0.5,1.017,0.5,2.586c-2.892,0.259-4.734,0.597-5.43,1.114c-0.355,0.226-0.711,0.84-0.711,1.86
			c0,0.84,0.194,1.405,0.518,1.76c0.373,0.42,1.051,0.729,2.312,0.729c1.566,0,2.536-0.405,2.812-0.599
			c0.08-0.064,0.306-0.371,0.436-0.549h0.082l0.226,0.987H216.71L216.71,330.115z M215.788,328.854
			c-0.485,0.241-1.631,0.629-3.006,0.629c-0.985,0-1.567-0.227-1.843-0.517c-0.226-0.259-0.371-0.679-0.371-1.261
			c0-0.679,0.162-1.082,0.403-1.293c0.373-0.403,2.715-0.744,4.816-0.873V328.854z"/>
		<path fill="#FFFFFF" d="M220.12,321.047v9.068h0.938v-7.628c0.549-0.355,1.583-0.729,2.683-0.711c0.55,0,1.02,0.065,1.293,0.112
			v-0.905c-0.241-0.032-0.582-0.064-1.034-0.064c-1.131,0-1.955,0.308-2.392,0.567c-0.032,0.032-0.42,0.5-0.468,0.564h-0.097
			l-0.227-1.002H220.12L220.12,321.047z"/>
		<path fill="#FFFFFF" d="M234.568,321.047h-1.017l-3.2,8.243h-0.42l-3.023-8.243h-1.017l3.394,9.068h0.743l-1.778,4.428h0.985
			L234.568,321.047z"/>
		<path fill="#FFFFFF" d="M187.789,346.277v-12.122h-0.89v11.119h-0.306l-6.902-11.119h-1.681v12.122h0.89v-11.217h0.291
			l6.965,11.217H187.789L187.789,346.277z"/>
		<path fill="#FFFFFF" d="M199.279,341.541c0-1.875-0.403-2.924-1.067-3.62c-0.564-0.564-1.519-0.953-2.892-0.953
			c-1.439,0-2.442,0.42-3.088,1.034c-0.823,0.776-1.293,2.198-1.293,3.959c0,1.745,0.47,2.812,0.987,3.411
			c0.597,0.679,1.551,1.099,3.053,1.099c1.601,0,2.521-0.438,3.153-1.084C198.827,344.661,199.279,343.318,199.279,341.541
			L199.279,341.541z M195.077,345.663c-1.308,0-2.004-0.405-2.439-0.905c-0.453-0.517-0.761-1.551-0.761-2.909
			c0-1.648,0.502-2.797,1.052-3.297c0.42-0.388,1.164-0.744,2.278-0.744c1.131,0,1.827,0.291,2.28,0.759
			c0.485,0.502,0.84,1.278,0.84,3.135c0,1.616-0.405,2.618-0.97,3.2C196.887,345.372,196.079,345.663,195.077,345.663z"/>
		<path fill="#FFFFFF" d="M208.541,337.388c-0.761-0.194-1.504-0.341-2.586-0.341c-1.375,0-2.295,0.323-2.941,0.955
			c-0.793,0.744-1.246,2.181-1.246,4.008c0,2.069,0.517,3.2,1.149,3.732c0.564,0.47,1.39,0.729,2.666,0.729
			c1.246,0,2.069-0.276,2.344-0.453c0.097-0.064,0.403-0.42,0.565-0.599h0.049l0.227,0.858h0.726v-13.173h-0.953V337.388z
			 M202.738,341.946c0-1.746,0.405-2.862,0.955-3.379c0.518-0.485,1.261-0.711,2.392-0.711c1.002,0,1.843,0.162,2.457,0.244v6.997
			c-0.808,0.388-1.795,0.549-2.7,0.549c-0.952,0-1.76-0.209-2.181-0.582C203.158,344.628,202.738,343.724,202.738,341.946z"/>
		<path fill="#FFFFFF" d="M212.452,341.816c0,3.086,1.082,4.638,4.105,4.638c1.243,0,2.407-0.227,3.053-0.388l0.065-0.776
			c-0.629,0.097-1.696,0.308-3.006,0.308c-2.536,0-3.248-1.342-3.248-3.814h6.609v-1.116c0-2.328-0.855-3.635-3.441-3.635
			C213.745,337.033,212.452,338.648,212.452,341.816L212.452,341.816z M216.493,337.808c1.955,0,2.618,0.92,2.618,2.924v0.323
			h-5.656C213.583,338.907,214.407,337.808,216.493,337.808z"/>
	</g>
	<g id="v4">
		<path fill="#FFFFFF" d="M312.724,330.122L308.198,318h-1.729l-4.849,12.122h0.985l1.633-4.137h5.915l1.52,4.137H312.724
			L312.724,330.122z M309.864,325.144h-5.319l2.489-6.253h0.518L309.864,325.144z"/>
		<path fill="#FFFFFF" d="M322.373,330.122v-9.066h-0.938v7.741c-0.729,0.323-1.777,0.599-2.829,0.599
			c-0.985,0-1.664-0.162-2.052-0.567c-0.373-0.388-0.599-1.017-0.599-2.246v-5.527h-0.938v5.883c0,1.243,0.275,2.004,0.743,2.504
			c0.502,0.517,1.181,0.793,2.489,0.793c1.131,0,2.198-0.276,2.65-0.502c0.032-0.015,0.42-0.517,0.452-0.582h0.098l0.243,0.97
			H322.373L322.373,330.122z"/>
		<path fill="#FFFFFF" d="M329.032,325.969l2.554,4.152h1.081l-2.877-4.573l2.975-4.493h-1.05l-2.65,4.056h-0.744l-2.441-4.056
			h-1.066l2.765,4.493l-2.959,4.573h1.067l2.618-4.152H329.032z"/>
		<path fill="#FFFFFF" d="M335.981,330.122v-9.066h-0.938v9.066H335.981z M336.126,317.968c0-0.209-0.032-0.371-0.145-0.468
			c-0.082-0.082-0.227-0.114-0.42-0.114c-0.212,0-0.373,0.05-0.421,0.114c-0.129,0.065-0.193,0.242-0.193,0.485
			c0,0.209,0.047,0.371,0.129,0.453c0.08,0.097,0.227,0.129,0.453,0.129c0.177,0,0.355-0.032,0.452-0.114
			C336.094,318.373,336.126,318.179,336.126,317.968z"/>
		<path fill="#FFFFFF" d="M339.344,317.03v11.04c0,1.519,0.597,2.148,1.906,2.148c0.614,0,1.179-0.097,1.567-0.177v-0.744
			c-0.323,0.047-0.759,0.112-1.293,0.112c-0.759,0-1.244-0.274-1.244-1.438V317.03H339.344z"/>
		<path fill="#FFFFFF" d="M345.693,330.122v-9.066h-0.937v9.066H345.693z M345.841,317.968c0-0.209-0.033-0.371-0.147-0.468
			c-0.079-0.082-0.226-0.114-0.42-0.114c-0.209,0-0.37,0.05-0.42,0.114c-0.13,0.065-0.194,0.242-0.194,0.485
			c0,0.209,0.05,0.371,0.13,0.453c0.082,0.097,0.226,0.129,0.452,0.129c0.179,0,0.355-0.032,0.452-0.114
			C345.808,318.373,345.841,318.179,345.841,317.968z"/>
		<path fill="#FFFFFF" d="M355.57,330.122v-5.625c0-1.778-0.259-2.457-0.664-2.892c-0.436-0.502-1.229-0.711-2.472-0.711
			c-1.293,0-2.636,0.274-3.314,0.453v0.759c0.614-0.112,2.021-0.371,3.12-0.371c1.018,0,1.616,0.162,1.907,0.5
			c0.306,0.373,0.5,1.02,0.5,2.586c-2.892,0.259-4.734,0.599-5.431,1.116c-0.355,0.227-0.711,0.841-0.711,1.858
			c0,0.84,0.194,1.407,0.518,1.763c0.373,0.42,1.052,0.726,2.312,0.726c1.567,0,2.537-0.403,2.813-0.597
			c0.08-0.065,0.306-0.373,0.436-0.55h0.082l0.226,0.985H355.57L355.57,330.122z M354.647,328.861
			c-0.484,0.244-1.631,0.631-3.006,0.631c-0.985,0-1.566-0.226-1.843-0.517c-0.227-0.258-0.37-0.679-0.37-1.261
			c0-0.679,0.161-1.083,0.402-1.292c0.373-0.405,2.716-0.744,4.816-0.873V328.861z"/>
		<path fill="#FFFFFF" d="M358.979,321.056v9.066h0.938v-7.628c0.55-0.355,1.584-0.726,2.684-0.711c0.549,0,1.019,0.064,1.293,0.114
			v-0.905c-0.242-0.032-0.582-0.064-1.035-0.064c-1.131,0-1.954,0.306-2.392,0.564c-0.032,0.032-0.42,0.502-0.468,0.567h-0.097
			l-0.227-1.002H358.979L358.979,321.056z"/>
		<path fill="#FFFFFF" d="M373.428,321.056h-1.018l-3.199,8.243h-0.421l-3.023-8.243h-1.017l3.394,9.066h0.744l-1.778,4.428h0.985
			L373.428,321.056z"/>
		<path fill="#FFFFFF" d="M326.648,346.284v-12.122h-0.89v11.12h-0.307l-6.901-11.12h-1.682v12.122h0.891v-11.216h0.291
			l6.964,11.216H326.648L326.648,346.284z"/>
		<path fill="#FFFFFF" d="M338.139,341.549c0-1.875-0.403-2.926-1.066-3.621c-0.564-0.566-1.52-0.955-2.893-0.955
			c-1.439,0-2.441,0.42-3.088,1.035c-0.823,0.776-1.293,2.198-1.293,3.96c0,1.746,0.47,2.813,0.987,3.409
			c0.597,0.679,1.552,1.099,3.054,1.099c1.601,0,2.521-0.435,3.152-1.082C337.687,344.667,338.139,343.327,338.139,341.549z
			 M333.937,345.669c-1.308,0-2.004-0.403-2.439-0.905c-0.452-0.517-0.761-1.551-0.761-2.909c0-1.649,0.502-2.795,1.052-3.297
			c0.42-0.388,1.164-0.743,2.277-0.743c1.132,0,1.828,0.291,2.28,0.76c0.485,0.5,0.841,1.276,0.841,3.136
			c0,1.616-0.405,2.618-0.97,3.2C335.747,345.378,334.938,345.669,333.937,345.669L333.937,345.669z"/>
		<path fill="#FFFFFF" d="M347.4,337.395c-0.761-0.194-1.504-0.338-2.586-0.338c-1.375,0-2.295,0.323-2.941,0.953
			c-0.793,0.743-1.245,2.183-1.245,4.008c0,2.069,0.517,3.2,1.148,3.735c0.564,0.467,1.39,0.726,2.665,0.726
			c1.246,0,2.069-0.273,2.345-0.453c0.098-0.064,0.403-0.42,0.564-0.597h0.05l0.227,0.855h0.726v-13.171H347.4V337.395
			L347.4,337.395z M341.598,341.952c0-1.746,0.404-2.859,0.954-3.377c0.518-0.484,1.261-0.711,2.393-0.711
			c1.002,0,1.842,0.162,2.456,0.241v7c-0.808,0.388-1.795,0.549-2.7,0.549c-0.952,0-1.761-0.211-2.181-0.582
			C342.018,344.635,341.598,343.73,341.598,341.952z"/>
		<path fill="#FFFFFF" d="M351.312,341.823c0,3.088,1.082,4.64,4.105,4.64c1.243,0,2.407-0.226,3.054-0.388l0.064-0.776
			c-0.629,0.097-1.696,0.306-3.006,0.306c-2.537,0-3.248-1.34-3.248-3.814h6.609v-1.114c0-2.327-0.855-3.637-3.441-3.637
			C352.604,337.039,351.312,338.655,351.312,341.823z M355.353,337.815c1.954,0,2.618,0.922,2.618,2.926v0.323h-5.657
			C352.443,338.914,353.267,337.815,355.353,337.815z"/>
	</g>
	<g id="v5">
		<path fill="#FFFFFF" d="M452.735,330.122L448.21,318h-1.73l-4.849,12.122h0.987l1.632-4.137h5.915l1.519,4.137H452.735z
			 M449.874,325.144h-5.316l2.489-6.253h0.517L449.874,325.144L449.874,325.144z"/>
		<path fill="#FFFFFF" d="M462.383,330.122v-9.066h-0.937v7.741c-0.727,0.323-1.778,0.599-2.828,0.599
			c-0.986,0-1.665-0.162-2.053-0.567c-0.371-0.388-0.598-1.017-0.598-2.246v-5.527h-0.938v5.883c0,1.243,0.274,2.004,0.744,2.504
			c0.5,0.517,1.179,0.793,2.488,0.793c1.132,0,2.198-0.276,2.651-0.502c0.032-0.015,0.42-0.517,0.452-0.582h0.097l0.241,0.97
			H462.383L462.383,330.122z"/>
		<path fill="#FFFFFF" d="M469.042,325.969l2.554,4.152h1.084l-2.877-4.573l2.974-4.493h-1.052l-2.65,4.056h-0.743l-2.439-4.056
			h-1.066l2.763,4.493l-2.957,4.573h1.066l2.618-4.152H469.042z"/>
		<path fill="#FFFFFF" d="M475.991,330.122v-9.066h-0.937v9.066H475.991z M476.139,317.968c0-0.209-0.033-0.371-0.147-0.468
			c-0.079-0.082-0.226-0.114-0.42-0.114c-0.209,0-0.37,0.05-0.42,0.114c-0.13,0.065-0.194,0.242-0.194,0.485
			c0,0.209,0.05,0.371,0.13,0.453c0.081,0.097,0.226,0.129,0.452,0.129c0.179,0,0.355-0.032,0.452-0.114
			C476.105,318.373,476.139,318.179,476.139,317.968z"/>
		<path fill="#FFFFFF" d="M479.354,317.03v11.04c0,1.519,0.599,2.148,1.907,2.148c0.614,0,1.181-0.097,1.568-0.177v-0.744
			c-0.323,0.047-0.761,0.112-1.293,0.112c-0.761,0-1.245-0.274-1.245-1.438V317.03H479.354L479.354,317.03z"/>
		<path fill="#FFFFFF" d="M485.706,330.122v-9.066h-0.938v9.066H485.706z M485.851,317.968c0-0.209-0.032-0.371-0.145-0.468
			c-0.082-0.082-0.227-0.114-0.42-0.114c-0.212,0-0.373,0.05-0.421,0.114c-0.129,0.065-0.193,0.242-0.193,0.485
			c0,0.209,0.047,0.371,0.129,0.453c0.08,0.097,0.227,0.129,0.453,0.129c0.177,0,0.355-0.032,0.452-0.114
			C485.818,318.373,485.851,318.179,485.851,317.968z"/>
		<path fill="#FFFFFF" d="M495.58,330.122v-5.625c0-1.778-0.259-2.457-0.662-2.892c-0.438-0.502-1.228-0.711-2.474-0.711
			c-1.293,0-2.633,0.274-3.312,0.453v0.759c0.613-0.112,2.019-0.371,3.118-0.371c1.019,0,1.616,0.162,1.906,0.5
			c0.309,0.373,0.503,1.02,0.503,2.586c-2.895,0.259-4.737,0.599-5.431,1.116c-0.355,0.227-0.711,0.841-0.711,1.858
			c0,0.84,0.193,1.407,0.517,1.763c0.371,0.42,1.05,0.726,2.311,0.726c1.568,0,2.538-0.403,2.812-0.597
			c0.082-0.065,0.309-0.373,0.438-0.55h0.08l0.227,0.985H495.58z M494.66,328.861c-0.485,0.244-1.634,0.631-3.007,0.631
			c-0.986,0-1.568-0.226-1.842-0.517c-0.227-0.258-0.373-0.679-0.373-1.261c0-0.679,0.161-1.083,0.405-1.292
			c0.37-0.405,2.715-0.744,4.816-0.873V328.861z"/>
		<path fill="#FFFFFF" d="M498.991,321.056v9.066h0.938v-7.628c0.55-0.355,1.584-0.726,2.683-0.711c0.55,0,1.018,0.064,1.293,0.114
			v-0.905c-0.243-0.032-0.582-0.064-1.034-0.064c-1.132,0-1.957,0.306-2.392,0.564c-0.033,0.032-0.421,0.502-0.47,0.567h-0.098
			l-0.226-1.002H498.991z"/>
		<path fill="#FFFFFF" d="M513.44,321.056h-1.02l-3.2,8.243h-0.42l-3.021-8.243h-1.02l3.395,9.066h0.743l-1.778,4.428h0.987
			L513.44,321.056L513.44,321.056z"/>
		<path fill="#FFFFFF" d="M466.658,346.284v-12.122h-0.89v11.12h-0.306l-6.902-11.12h-1.681v12.122h0.89v-11.216h0.291l6.965,11.216
			H466.658L466.658,346.284z"/>
		<path fill="#FFFFFF" d="M478.148,341.549c0-1.875-0.402-2.926-1.066-3.621c-0.564-0.566-1.52-0.955-2.892-0.955
			c-1.439,0-2.441,0.42-3.088,1.035c-0.823,0.776-1.293,2.198-1.293,3.96c0,1.746,0.47,2.813,0.986,3.409
			c0.597,0.679,1.552,1.099,3.054,1.099c1.602,0,2.521-0.435,3.152-1.082C477.696,344.667,478.148,343.327,478.148,341.549z
			 M473.946,345.669c-1.308,0-2.004-0.403-2.439-0.905c-0.452-0.517-0.761-1.551-0.761-2.909c0-1.649,0.503-2.795,1.052-3.297
			c0.421-0.388,1.164-0.743,2.278-0.743c1.131,0,1.827,0.291,2.279,0.76c0.485,0.5,0.841,1.276,0.841,3.136
			c0,1.616-0.405,2.618-0.97,3.2C475.757,345.378,474.948,345.669,473.946,345.669L473.946,345.669z"/>
		<path fill="#FFFFFF" d="M487.41,337.395c-0.76-0.194-1.504-0.338-2.586-0.338c-1.374,0-2.295,0.323-2.941,0.953
			c-0.793,0.743-1.245,2.183-1.245,4.008c0,2.069,0.518,3.2,1.148,3.735c0.564,0.467,1.39,0.726,2.666,0.726
			c1.245,0,2.068-0.273,2.345-0.453c0.097-0.064,0.402-0.42,0.564-0.597h0.049l0.227,0.855h0.727v-13.171h-0.953V337.395
			L487.41,337.395z M481.607,341.952c0-1.746,0.405-2.859,0.954-3.377c0.518-0.484,1.261-0.711,2.393-0.711
			c1.002,0,1.843,0.162,2.456,0.241v7c-0.808,0.388-1.795,0.549-2.699,0.549c-0.953,0-1.761-0.211-2.182-0.582
			C482.027,344.635,481.607,343.73,481.607,341.952z"/>
		<path fill="#FFFFFF" d="M491.322,341.823c0,3.088,1.081,4.64,4.104,4.64c1.243,0,2.407-0.226,3.054-0.388l0.064-0.776
			c-0.629,0.097-1.695,0.306-3.006,0.306c-2.536,0-3.248-1.34-3.248-3.814h6.609v-1.114c0-2.327-0.855-3.637-3.441-3.637
			C492.614,337.039,491.322,338.655,491.322,341.823z M495.362,337.815c1.954,0,2.618,0.922,2.618,2.926v0.323h-5.656
			C492.453,338.914,493.276,337.815,495.362,337.815z"/>
	</g>
</g>
<g>
	<path fill="#FFFFFF" d="M315.274,452.291l-1.55-4.223h-6.037l-1.667,4.223h-1.006l4.948-12.371h1.766l4.618,12.371H315.274z
		 M311.068,440.827h-0.527L308,447.211h5.428L311.068,440.827z"/>
	<path fill="#FFFFFF" d="M325.158,438.848h0.974v13.443h-0.743l-0.23-0.874h-0.049c-0.166,0.182-0.479,0.544-0.578,0.61
		c-0.279,0.182-1.121,0.462-2.391,0.462c-1.304,0-2.145-0.265-2.723-0.742c-0.643-0.545-1.171-1.699-1.171-3.811
		c0-1.864,0.462-3.332,1.271-4.091c0.66-0.644,1.6-0.974,3.002-0.974c1.105,0,1.863,0.148,2.639,0.347V438.848z M320.178,451.054
		c0.428,0.38,1.253,0.594,2.227,0.594c0.924,0,1.93-0.165,2.754-0.561v-7.143c-0.627-0.082-1.484-0.247-2.507-0.247
		c-1.155,0-1.913,0.23-2.441,0.726c-0.561,0.528-0.974,1.666-0.974,3.447C319.236,449.685,319.666,450.608,320.178,451.054z"/>
	<path fill="#FFFFFF" d="M330.324,443.037l0.231,1.023h0.099c0.05-0.066,0.445-0.545,0.479-0.578
		c0.445-0.264,1.287-0.577,2.441-0.577c0.462,0,0.809,0.033,1.056,0.066v0.924c-0.28-0.05-0.759-0.116-1.319-0.116
		c-1.121-0.016-2.178,0.363-2.738,0.727v7.785h-0.957v-9.254H330.324z"/>
	<path fill="#FFFFFF" d="M339.992,442.856c2.64,0,3.514,1.336,3.514,3.711v1.138h-6.746c0,2.524,0.726,3.894,3.315,3.894
		c1.336,0,2.425-0.215,3.067-0.313l-0.065,0.791c-0.659,0.165-1.847,0.396-3.118,0.396c-3.084,0-4.189-1.584-4.189-4.734
		C335.77,444.506,337.09,442.856,339.992,442.856z M336.793,446.963h5.773v-0.329c0-2.046-0.677-2.986-2.673-2.986
		C337.766,443.647,336.925,444.77,336.793,446.963z"/>
	<path fill="#FFFFFF" d="M352.928,452.291v-5.724c0-1.171-0.23-1.848-0.644-2.243c-0.412-0.396-1.138-0.561-1.995-0.561
		c-1.188,0-2.228,0.313-2.953,0.609v7.918h-0.957v-9.254h0.693l0.264,0.974h0.082c0.05-0.066,0.43-0.495,0.479-0.528
		c0.445-0.247,1.633-0.577,2.805-0.577c1.204,0,1.913,0.264,2.408,0.759c0.512,0.479,0.775,1.319,0.775,2.573v6.054H352.928z"/>
	<path fill="#FFFFFF" d="M363.24,452.291l-0.23-1.006h-0.083c-0.132,0.181-0.363,0.494-0.445,0.561
		c-0.28,0.198-1.271,0.61-2.87,0.61c-1.287,0-1.979-0.313-2.359-0.742c-0.33-0.363-0.527-0.94-0.527-1.798
		c0-1.039,0.363-1.666,0.726-1.897c0.71-0.527,2.59-0.874,5.542-1.138c0-1.601-0.197-2.26-0.511-2.64
		c-0.297-0.346-0.907-0.511-1.946-0.511c-1.122,0-2.557,0.264-3.184,0.379v-0.775c0.692-0.181,2.062-0.462,3.381-0.462
		c1.271,0,2.078,0.215,2.523,0.727c0.413,0.445,0.677,1.138,0.677,2.952v5.74H363.24z M362.992,447.623
		c-2.145,0.132-4.535,0.479-4.915,0.891c-0.247,0.215-0.413,0.627-0.413,1.319c0,0.594,0.148,1.023,0.38,1.287
		c0.28,0.297,0.874,0.527,1.88,0.527c1.402,0,2.574-0.396,3.068-0.643V447.623z"/>
	<path fill="#FFFFFF" d="M368.324,438.931v11.167c0,1.188,0.494,1.468,1.27,1.468c0.545,0,0.99-0.066,1.319-0.115v0.759
		c-0.396,0.082-0.974,0.181-1.6,0.181c-1.337,0-1.946-0.643-1.946-2.193v-11.266H368.324z"/>
	<path fill="#FFFFFF" d="M308.823,467.631c-0.677,0.578-1.913,0.842-3.678,0.842c-1.534,0-2.771-0.198-3.596-0.396v-0.857
		c0.973,0.165,2.062,0.363,3.612,0.363c1.699,0,2.606-0.265,2.952-0.594c0.297-0.297,0.562-0.842,0.562-1.666
		c0-0.677-0.132-1.204-0.38-1.484c-0.924-1.007-5.344-1.617-6.284-2.821c-0.379-0.462-0.495-1.336-0.495-2.012
		c0-0.907,0.264-1.798,0.825-2.343c0.528-0.512,1.583-0.924,3.612-0.924c1.353,0,2.475,0.115,3.315,0.264v0.842
		c-1.039-0.115-1.913-0.231-3.447-0.231s-2.441,0.265-2.804,0.693c-0.264,0.28-0.528,0.857-0.528,1.616
		c0,0.627,0.115,1.154,0.363,1.468c0.726,0.924,5.46,1.749,6.3,2.821c0.413,0.494,0.528,1.353,0.528,2.062
		C309.681,466.262,309.334,467.186,308.823,467.631z"/>
	<path fill="#FFFFFF" d="M317.107,459.846h-3.283v6.169c0,1.254,0.577,1.518,1.617,1.518c0.758,0,1.451-0.115,1.814-0.165
		l-0.083,0.809c-0.495,0.099-1.271,0.214-1.979,0.214c-1.649,0-2.326-0.594-2.326-2.193v-6.351h-1.913l0.132-0.809h1.781v-1.93
		l0.957-0.247v2.177h3.464L317.107,459.846z"/>
	<path fill="#FFFFFF" d="M320.475,459.037l0.23,1.023h0.1c0.049-0.066,0.445-0.545,0.479-0.578c0.445-0.264,1.286-0.577,2.44-0.577
		c0.462,0,0.809,0.033,1.056,0.066v0.924c-0.28-0.05-0.759-0.116-1.319-0.116c-1.122-0.016-2.177,0.363-2.738,0.727v7.785h-0.956
		v-9.254H320.475z"/>
	<path fill="#FFFFFF" d="M330.143,458.856c2.639,0,3.513,1.336,3.513,3.711v1.138h-6.746c0,2.524,0.726,3.894,3.315,3.894
		c1.336,0,2.425-0.215,3.068-0.313l-0.066,0.791c-0.66,0.165-1.848,0.396-3.117,0.396c-3.085,0-4.189-1.584-4.189-4.734
		C325.92,460.506,327.238,458.856,330.143,458.856z M326.941,462.963h5.773v-0.329c0-2.046-0.676-2.986-2.672-2.986
		C327.915,459.647,327.074,460.77,326.941,462.963z"/>
	<path fill="#FFFFFF" d="M343.077,468.291v-5.724c0-1.171-0.231-1.848-0.644-2.243c-0.412-0.396-1.138-0.561-1.996-0.561
		c-1.188,0-2.227,0.313-2.952,0.609v7.918h-0.956v-9.254h0.692l0.264,0.974h0.083c0.049-0.066,0.428-0.495,0.479-0.528
		c0.445-0.247,1.633-0.577,2.804-0.577c1.204,0,1.913,0.264,2.408,0.759c0.511,0.479,0.774,1.319,0.774,2.573v6.054H343.077z"/>
	<path fill="#FFFFFF" d="M354.939,467.796c0,2.508-0.461,3.514-1.104,4.124c-0.562,0.512-1.452,0.891-3.085,0.891
		c-1.468,0-2.639-0.23-3.266-0.347v-0.841c0.643,0.115,1.848,0.313,3.217,0.313c1.352,0,2.078-0.28,2.507-0.66
		c0.462-0.462,0.775-1.319,0.775-3.397v-0.495h-0.066c-0.148,0.182-0.478,0.577-0.577,0.627c-0.28,0.182-1.287,0.412-2.49,0.412
		c-1.304,0-2.096-0.28-2.623-0.709c-0.759-0.594-1.221-1.765-1.221-3.662c0-1.93,0.479-3.365,1.27-4.156
		c0.578-0.562,1.568-0.957,3.135-0.957c1.171,0,2.095,0.198,2.92,0.396l0.445-0.297h0.164V467.796z M348.902,467.005
		c0.479,0.379,1.32,0.577,2.244,0.577c0.957,0,2.012-0.165,2.837-0.545v-7.06c-0.677-0.082-1.534-0.214-2.507-0.214
		c-1.238,0-2.029,0.247-2.541,0.742c-0.561,0.577-0.939,1.682-0.939,3.381C347.996,465.603,348.342,466.559,348.902,467.005z"/>
	<path fill="#FFFFFF" d="M363.34,459.846h-3.283v6.169c0,1.254,0.577,1.518,1.617,1.518c0.758,0,1.451-0.115,1.814-0.165
		l-0.083,0.809c-0.495,0.099-1.271,0.214-1.979,0.214c-1.649,0-2.326-0.594-2.326-2.193v-6.351h-1.913l0.132-0.809h1.781v-1.93
		l0.957-0.247v2.177h3.464L363.34,459.846z"/>
	<path fill="#FFFFFF" d="M372.513,468.291v-5.707c0-1.188-0.214-1.897-0.626-2.276c-0.413-0.363-1.023-0.561-2.014-0.561
		c-1.138,0-2.26,0.313-2.936,0.643v7.901h-0.957v-13.36h0.957v5.08h0.066c0.049-0.083,0.445-0.528,0.512-0.561
		c0.428-0.265,1.518-0.545,2.672-0.545c1.336,0,2.028,0.248,2.54,0.726c0.511,0.512,0.759,1.353,0.759,2.623v6.037H372.513z"/>
</g>
<g>
	<path fill="#FFFFFF" d="M154.389,448.86v7.456c0,2.193-0.396,3.348-1.089,4.058c-0.61,0.627-1.567,1.072-3.86,1.072
		c-2.045,0-3.117-0.594-3.612-1.221c-0.495-0.644-0.808-1.501-0.808-3.712v-7.653h0.957v7.356c0,1.996,0.198,2.805,0.627,3.332
		c0.462,0.561,1.303,1.006,2.985,1.006c1.666,0,2.541-0.313,3.035-0.824c0.511-0.544,0.792-1.468,0.792-3.365v-7.505H154.389z"/>
	<path fill="#FFFFFF" d="M164.487,461.231v-5.724c0-1.171-0.231-1.848-0.644-2.243c-0.412-0.396-1.138-0.561-1.996-0.561
		c-1.188,0-2.227,0.313-2.953,0.609v7.918h-0.957v-9.254h0.693l0.264,0.974h0.083c0.049-0.066,0.429-0.495,0.479-0.528
		c0.445-0.247,1.633-0.577,2.804-0.577c1.204,0,1.913,0.264,2.408,0.759c0.511,0.479,0.775,1.319,0.775,2.573v6.054H164.487z"/>
	<path fill="#FFFFFF" d="M172.655,451.797c2.639,0,3.513,1.336,3.513,3.711v1.138h-6.746c0,2.524,0.726,3.894,3.315,3.894
		c1.336,0,2.425-0.215,3.068-0.313l-0.066,0.791c-0.66,0.165-1.847,0.396-3.118,0.396c-3.084,0-4.189-1.584-4.189-4.734
		C168.433,453.446,169.752,451.797,172.655,451.797z M169.455,455.903h5.773v-0.329c0-2.046-0.676-2.986-2.672-2.986
		C170.428,452.588,169.587,453.71,169.455,455.903z"/>
	<path fill="#FFFFFF" d="M185.59,461.231v-5.724c0-1.171-0.231-1.848-0.643-2.243c-0.413-0.396-1.138-0.561-1.996-0.561
		c-1.188,0-2.227,0.313-2.953,0.609v7.918h-0.957v-9.254h0.693l0.264,0.974h0.083c0.049-0.066,0.429-0.495,0.479-0.528
		c0.445-0.247,1.633-0.577,2.804-0.577c1.205,0,1.914,0.264,2.409,0.759c0.511,0.479,0.775,1.319,0.775,2.573v6.054H185.59z"/>
	<path fill="#FFFFFF" d="M191.531,453.33c-0.676,0.627-1.022,1.798-1.022,3.382c0,1.518,0.313,2.54,0.957,3.134
		c0.544,0.512,1.353,0.709,2.359,0.709c1.171,0,2.111-0.181,2.755-0.28v0.742c-0.644,0.182-1.6,0.413-2.903,0.413
		s-2.293-0.297-2.936-0.907c-0.858-0.792-1.237-2.079-1.237-3.695c0-1.848,0.445-3.266,1.32-4.074
		c0.709-0.692,1.749-1.022,3.134-1.022c1.105,0,2.013,0.148,2.623,0.264v0.825c-0.578-0.083-1.435-0.215-2.524-0.215
		C192.934,452.604,192.059,452.819,191.531,453.33z"/>
	<path fill="#FFFFFF" d="M206.05,461.231l-0.248-0.989h-0.099c-0.033,0.065-0.429,0.577-0.461,0.594
		c-0.462,0.23-1.551,0.511-2.706,0.511c-1.336,0-2.029-0.28-2.54-0.808c-0.478-0.512-0.759-1.287-0.759-2.557v-6.005h0.957v5.642
		c0,1.254,0.23,1.896,0.61,2.293c0.396,0.412,1.089,0.577,2.095,0.577c1.072,0,2.144-0.28,2.886-0.61v-7.901h0.957v9.254H206.05z"/>
	<path fill="#FFFFFF" d="M222.713,461.231v-5.724c0-1.221-0.214-1.864-0.61-2.243c-0.396-0.38-1.088-0.561-1.864-0.561
		c-1.188,0-2.161,0.396-2.821,0.742v7.785h-0.957v-6.334c0-0.809-0.132-1.303-0.511-1.666c-0.396-0.379-1.171-0.527-1.93-0.527
		c-1.205,0-2.161,0.346-2.854,0.626v7.901h-0.957v-9.254h0.709l0.247,0.974h0.083l0.495-0.544c0.429-0.231,1.451-0.562,2.655-0.562
		c1.188,0,1.947,0.264,2.458,0.759c0.214,0.198,0.33,0.396,0.412,0.545h0.083l0.512-0.644c0.528-0.297,1.583-0.66,2.788-0.66
		c1.088,0,1.781,0.248,2.276,0.726c0.528,0.495,0.743,1.337,0.743,2.606v6.054H222.713z"/>
	<path fill="#FFFFFF" d="M233.819,460.374c-0.626,0.594-1.583,0.939-3.15,0.939c-1.138,0-2.111-0.164-2.936-0.362l-0.479,0.28
		h-0.132v-13.36h0.957v4.997h0.066c0.132-0.181,0.512-0.544,0.61-0.594c0.264-0.181,1.353-0.478,2.606-0.478
		c1.287,0,2.062,0.28,2.589,0.742c0.66,0.594,1.138,1.731,1.138,3.629C235.089,458.131,234.611,459.615,233.819,460.374z
		 M233.192,453.248c-0.429-0.38-1.089-0.594-2.194-0.594c-1.006,0-2.111,0.182-2.92,0.544v7.076c0.644,0.1,1.551,0.231,2.491,0.231
		c1.254,0,2.029-0.248,2.524-0.709c0.594-0.562,1.006-1.716,1.006-3.432C234.1,454.634,233.67,453.677,233.192,453.248z"/>
	<path fill="#FFFFFF" d="M241.872,451.797c2.639,0,3.513,1.336,3.513,3.711v1.138h-6.746c0,2.524,0.726,3.894,3.315,3.894
		c1.336,0,2.425-0.215,3.068-0.313l-0.066,0.791c-0.66,0.165-1.847,0.396-3.118,0.396c-3.084,0-4.189-1.584-4.189-4.734
		C237.649,453.446,238.969,451.797,241.872,451.797z M238.672,455.903h5.773v-0.329c0-2.046-0.676-2.986-2.672-2.986
		C239.645,452.588,238.804,453.71,238.672,455.903z"/>
	<path fill="#FFFFFF" d="M248.968,451.978l0.231,1.023h0.099c0.049-0.066,0.445-0.545,0.479-0.578
		c0.445-0.264,1.287-0.577,2.441-0.577c0.462,0,0.809,0.033,1.056,0.066v0.924c-0.28-0.05-0.759-0.116-1.319-0.116
		c-1.122-0.016-2.177,0.363-2.738,0.727v7.785h-0.957v-9.254H248.968z"/>
</g>
</svg>
