<?xml version="1.0" encoding="utf-8"?>
<!-- Generator: Adobe Illustrator 16.0.2, SVG Export Plug-In . SVG Version: 6.00 Build 0)  -->
<!DOCTYPE svg PUBLIC "-//W3C//DTD SVG 1.1//EN" "http://www.w3.org/Graphics/SVG/1.1/DTD/svg11.dtd">
<svg version="1.1" id="Layer_1" xmlns="http://www.w3.org/2000/svg" xmlns:xlink="http://www.w3.org/1999/xlink" x="0px" y="0px"
	 width="612px" height="190px" viewBox="0 287.5 612 190" enable-background="new 0 287.5 612 190" xml:space="preserve">
<g id="tint">
	<path fill="#7350C4" d="M259.182,323.373l-21.377-21.377l-121.111-0.002l21.377,21.377h0.019l30.995,30.995l12.942-6.48
		l-24.514-24.515L259.182,323.373L259.182,323.373z"/>
	<path fill="#7350C4" d="M404.788,323.373l-21.377-21.377L262.3,301.993l21.379,21.377h0.021l30.712,30.714l12.946-6.48
		l-24.234-24.234L404.788,323.373z"/>
	<path fill="#7350C4" d="M548.249,323.375l-21.386-21.381H405.741l21.381,21.381h0.026l26.62,26.624l12.945-6.479l-20.145-20.145
		H548.249L548.249,323.375z"/>
	<path fill="#7350C4" d="M204.88,387.518l22.437-22.437l-12.944-6.478l-28.915,28.915h-0.054l-21.377,21.376l121.111-0.005
		l21.375-21.375L204.88,387.518z"/>
	<path fill="#7350C4" d="M351.988,387.518l24.256-24.253l-12.946-6.48l-30.73,30.733h-0.005l-21.382,21.376l121.111-0.005
		l21.377-21.375L351.988,387.518z"/>
	<rect x="132.586" y="343.228" fill="#7350C4" width="366.46" height="24.435"/>
</g>
<g id="primary">
	<rect x="132.586" y="343.228" fill="#2D1182" width="355.54" height="24.435"/>
	<path fill="#2D1182" d="M6.114,379.881l85.516,85.518l85.516-85.515l-85.519-85.519L6.114,379.881L6.114,379.881z"/>
	<path fill="#2D1182" d="M518.763,376.916l-51.948,51.949l-21.352-10.688l51.951-51.949L518.763,376.916L518.763,376.916z"/>
	<path fill="#2D1182" d="M519.218,465.399l48.871-48.869H256.557l-48.867,48.869H519.218z"/>
	<path fill="#2D1182" d="M6.114,379.881l85.516,85.518l85.516-85.515l-85.519-85.519L6.114,379.881L6.114,379.881z"/>
	<path fill="#2D1182" d="M287.045,331.012H132.586l48.87,48.867H335.91L287.045,331.012L287.045,331.012z"/>
	<path fill="#2D1182" d="M430.473,331.012h-78.062h-2.078h-0.318h-1.836h-56.836l48.867,48.867h139.129L430.473,331.012z"/>
	<path fill="#2D1182" d="M555.87,331.012H434.772l48.866,48.867h121.1L555.87,331.012z"/>
</g>
<g id="Text">
	<g>
		<g>
			<path fill="#FFFFFF" d="M192.813,364.495v-1.539h6.671v-19.862l-6.671,1.207v-1.539l8.391-1.48v21.674h6.038v1.539H192.813z"/>
			<path fill="#FFFFFF" d="M241.602,364.495h-15.545v-1.811c0.271-3.32,2.082-5.465,7.396-8.059
				c3.381-1.689,4.859-2.564,5.646-3.592c0.664-0.936,0.845-2.142,0.845-3.321c0-3.11-1.146-4.528-6.066-4.528
				c-2.687,0-5.583,0.664-6.913,0.966v-1.571c1.78-0.482,4.558-1.028,7.272-1.028c5.765,0,7.577,1.873,7.577,5.948
				c0,2.054-0.453,3.472-1.146,4.347c-1.177,1.539-3.502,2.717-6.46,4.165c-5.523,2.688-6.398,4.588-6.46,6.853h14.309
				L241.602,364.495z"/>
			<path fill="#FFFFFF" d="M273.491,351.667l-2.446,1.146v0.121l2.564,0.905c1.028,0.847,1.84,2.778,1.84,4.739
				c0,4.346-2.474,6.219-8.603,6.219c-2.534,0-4.769-0.332-6.099-0.633v-1.539c1.39,0.241,3.833,0.604,6.099,0.604
				c5.614,0,6.792-1.84,6.792-4.648c0-4.015-2.688-4.769-6.099-4.769h-4.316v-1.571h3.924c2.958,0,6.066-0.754,6.066-4.678
				c0-2.898-1.086-4.407-5.674-4.407c-2.416,0-4.739,0.482-6.31,0.814v-1.511c1.631-0.422,4.135-0.905,6.611-0.905
				c5.433,0,7.154,1.903,7.154,5.767C274.999,349.432,274.064,351.122,273.491,351.667z"/>
		</g>
		<g>
			<path fill="#FFFFFF" d="M355.344,364.495h-1.662v-6.428h-11.623v-1.752l9.994-14.459h3.289v14.701h5.072l-0.455,1.511h-4.62
				L355.344,364.495L355.344,364.495z M353.685,356.556v-13.221h-0.816l-8.844,12.829v0.392H353.685z"/>
			<path fill="#FFFFFF" d="M383.756,364.796c-2.079,0-4.281-0.301-5.854-0.543v-1.601c1.447,0.211,3.683,0.513,5.946,0.513
				c5.225,0,7.036-1.48,7.036-5.222c0-3.984-1.267-5.01-5.917-5.01c-2.143,0-5.041,0.453-6.368,0.634v-11.712h13.403v1.539h-11.83
				v8.512c1.268-0.211,3.016-0.543,5.342-0.543c5.254,0,7.186,1.39,7.186,6.337C392.692,362.472,390.49,364.796,383.756,364.796z"/>
			<path fill="#FFFFFF" d="M413.415,353.447h0.148l0.963-0.996c1.302-0.483,3.652-1.146,6.401-1.146
				c5.343,0,7.124,2.232,7.124,6.428c0,4.376-2.267,7.063-8.089,7.063c-6.338,0-8.304-4.014-8.304-10.686
				c0-4.196,1.179-7.215,2.959-9.115c2.084-2.174,5.404-3.532,11.229-3.592l0.603,1.601c-5.675,0.03-8.756,1.207-10.563,3.14
				C414.469,347.65,413.533,350.216,413.415,353.447L413.415,353.447z M420.354,352.874c-2.686,0-5.16,0.664-6.94,1.357
				c0.059,6.25,2.021,8.995,6.638,8.995c4.318,0,6.249-1.689,6.249-5.342C426.301,354.384,424.881,352.874,420.354,352.874z"/>
		</g>
		<g>
			<path fill="#FFFFFF" d="M490.694,343.879v-0.422h-13.608l0.483-1.601h15.061v1.993l-10.807,20.646h-1.961L490.694,343.879
				L490.694,343.879z"/>
			<path fill="#FFFFFF" d="M513.621,353.99l2.049-1.119v-0.151l-1.81-0.935c-0.784-0.784-1.541-1.903-1.541-3.984
				c0-3.653,2.293-6.28,7.604-6.28c5.284,0,7.245,2.354,7.245,5.734c0,2.144-0.907,3.441-1.752,4.347l-1.868,1.118v0.151
				l2.291,0.847c1.211,0.965,1.902,2.506,1.902,4.558c0,3.743-2.325,6.521-8.271,6.521c-5.61,0-7.939-2.234-7.939-6.066
				C511.537,356.797,512.321,355.196,513.621,353.99z M513.319,358.517c0,3.019,1.752,4.739,6.338,4.739
				c4.678,0,6.31-2.202,6.31-4.799c0-4.136-2.627-4.467-9.358-5.193C514.946,354.352,513.319,355.832,513.319,358.517
				L513.319,358.517z M514.102,347.65c0,3.713,2.357,4.226,8.271,4.769c1.903-1.177,2.989-2.718,2.989-4.95
				c0-2.898-1.629-4.407-5.611-4.407C515.582,343.064,514.102,345.116,514.102,347.65z"/>
			<path fill="#FFFFFF" d="M560.417,352.934h-0.148l-0.938,0.996c-1.237,0.513-3.561,1.119-6.156,1.119
				c-5.402,0-7.306-2.174-7.306-6.34c0-4.769,2.991-7.154,8.058-7.154c5.917,0,8.24,3.291,8.24,10.475
				c0,4.316-1.175,7.486-2.959,9.356c-1.991,2.174-5.399,3.472-11.259,3.592l-0.576-1.661c5.586-0.03,8.845-1.146,10.596-3.049
				C559.331,358.73,560.327,356.194,560.417,352.934z M553.567,353.477c2.717,0,5.163-0.633,6.853-1.267
				c-0.059-6.4-1.9-9.085-6.606-9.085c-4.227,0-6.191,2.021-6.191,5.465C547.621,351.968,549.128,353.477,553.567,353.477
				L553.567,353.477z"/>
		</g>
	</g>
	<g>
		<path fill="#FFFFFF" d="M343.959,402.127c-0.618,0.527-1.752,0.77-3.368,0.77c-1.399,0-2.534-0.182-3.288-0.361v-0.785
			c0.891,0.151,1.889,0.332,3.307,0.332c1.554,0,2.381-0.241,2.701-0.543c0.271-0.273,0.51-0.77,0.51-1.527
			c0-0.617-0.119-1.1-0.346-1.354c-0.848-0.923-4.893-1.483-5.75-2.582c-0.349-0.422-0.453-1.222-0.453-1.84
			c0-0.83,0.242-1.646,0.756-2.142c0.481-0.467,1.449-0.847,3.306-0.847c1.237,0,2.265,0.105,3.034,0.239v0.767
			c-0.95-0.105-1.752-0.211-3.157-0.211c-1.4,0-2.232,0.242-2.563,0.636c-0.241,0.256-0.482,0.78-0.482,1.48
			c0,0.575,0.104,1.054,0.332,1.343c0.664,0.847,4.993,1.599,5.763,2.579c0.379,0.453,0.484,1.237,0.484,1.888
			C344.743,400.874,344.427,401.719,343.959,402.127L343.959,402.127z"/>
		<path fill="#FFFFFF" d="M348.193,406.85h-0.875v-12.588h0.668l0.214,0.757h0.058c0.123-0.166,0.438-0.483,0.528-0.528
			c0.257-0.164,1.237-0.407,2.265-0.407c1.162,0,1.873,0.201,2.416,0.681c0.586,0.496,1.068,1.541,1.068,3.457
			c0,1.797-0.468,3.066-1.174,3.771c-0.563,0.548-1.403,0.875-2.689,0.875c-1.011,0-1.795-0.136-2.472-0.286v4.271h-0.007V406.85z
			 M352.783,395.364c-0.422-0.347-1.09-0.513-2.055-0.513c-0.871,0-1.778,0.151-2.537,0.498v6.534
			c0.588,0.093,1.404,0.226,2.326,0.226c1.055,0,1.735-0.183,2.2-0.649c0.514-0.486,0.905-1.542,0.905-3.172
			C353.628,396.694,353.267,395.802,352.783,395.364z"/>
		<path fill="#FFFFFF" d="M360.73,394.097c2.416,0,3.216,1.22,3.216,3.396v1.037h-6.174c0,2.31,0.665,3.562,3.033,3.562
			c1.221,0,2.218-0.198,2.809-0.291l-0.06,0.729c-0.603,0.146-1.69,0.361-2.853,0.361c-2.825,0-3.832-1.451-3.832-4.336
			C356.867,395.604,358.076,394.097,360.73,394.097z M357.803,397.855h5.281v-0.305c0-1.873-0.618-2.735-2.443-2.735
			C358.694,394.821,357.925,395.849,357.803,397.855z"/>
		<path fill="#FFFFFF" d="M367.97,395.5c-0.616,0.577-0.938,1.648-0.938,3.099c0,1.391,0.288,2.325,0.875,2.868
			c0.497,0.468,1.235,0.648,2.157,0.648c1.071,0,1.931-0.165,2.521-0.256v0.679c-0.588,0.164-1.465,0.377-2.654,0.377
			c-1.188,0-2.1-0.271-2.686-0.829c-0.784-0.727-1.129-1.905-1.129-3.382c0-1.688,0.405-2.989,1.211-3.726
			c0.647-0.636,1.599-0.939,2.866-0.939c1.011,0,1.84,0.136,2.396,0.241v0.754c-0.523-0.073-1.311-0.196-2.309-0.196
			C369.256,394.836,368.452,395.032,367.97,395.5L367.97,395.5z"/>
		<path fill="#FFFFFF" d="M375.919,391.833c-0.091,0.075-0.254,0.105-0.423,0.105c-0.211,0-0.345-0.03-0.418-0.123
			c-0.075-0.075-0.125-0.224-0.125-0.42c0-0.227,0.061-0.392,0.182-0.455c0.045-0.059,0.198-0.106,0.396-0.106
			c0.183,0,0.315,0.033,0.394,0.106c0.11,0.092,0.136,0.243,0.136,0.438C376.055,391.576,376.026,391.757,375.919,391.833z
			 M375.046,402.729v-8.469h0.873v8.469H375.046z"/>
		<path fill="#FFFFFF" d="M384.506,402.729l-0.215-0.922h-0.076c-0.118,0.168-0.329,0.454-0.404,0.514
			c-0.257,0.181-1.163,0.561-2.627,0.561c-1.177,0-1.813-0.287-2.156-0.679c-0.307-0.33-0.487-0.86-0.487-1.646
			c0-0.949,0.332-1.524,0.668-1.738c0.648-0.484,2.371-0.8,5.07-1.038c0-1.466-0.182-2.069-0.468-2.416
			c-0.271-0.314-0.832-0.468-1.779-0.468c-1.028,0-2.341,0.239-2.916,0.345v-0.707c0.636-0.166,1.888-0.422,3.097-0.422
			c1.162,0,1.903,0.196,2.31,0.664c0.377,0.407,0.617,1.043,0.617,2.704v5.254L384.506,402.729L384.506,402.729z M384.28,398.459
			c-1.961,0.125-4.153,0.438-4.5,0.816c-0.227,0.197-0.379,0.574-0.379,1.211c0,0.543,0.136,0.938,0.349,1.177
			c0.257,0.271,0.8,0.485,1.72,0.485c1.287,0,2.355-0.362,2.812-0.59L384.28,398.459L384.28,398.459L384.28,398.459z"/>
		<path fill="#FFFFFF" d="M389.148,390.505v10.217c0,1.086,0.449,1.344,1.16,1.344c0.495,0,0.905-0.06,1.209-0.106v0.692
			c-0.361,0.074-0.89,0.166-1.466,0.166c-1.222,0-1.778-0.584-1.778-2.01v-10.303H389.148L389.148,390.505z"/>
		<path fill="#FFFFFF" d="M397.673,395.002h-3.006v5.645c0,1.147,0.53,1.39,1.482,1.39c0.692,0,1.324-0.105,1.66-0.151l-0.074,0.744
			c-0.45,0.09-1.161,0.195-1.812,0.195c-1.508,0-2.127-0.543-2.127-2.008v-5.811h-1.752l0.121-0.743h1.631v-1.761l0.873-0.224v1.991
			h3.172L397.673,395.002z"/>
		<path fill="#FFFFFF" d="M401.955,406.865h-0.921l1.659-4.137H402l-3.17-8.469h0.95l2.825,7.697H403l2.988-7.697h0.947
			L401.955,406.865z"/>
		<path fill="#FFFFFF" d="M419.698,402.729h-7.772v-0.903c0.139-1.662,1.043-2.732,3.702-4.03c1.688-0.849,2.429-1.286,2.823-1.795
			c0.329-0.47,0.422-1.073,0.422-1.662c0-1.554-0.577-2.265-3.034-2.265c-1.343,0-2.791,0.332-3.456,0.485v-0.782
			c0.889-0.241,2.277-0.511,3.637-0.511c2.885,0,3.789,0.938,3.789,2.974c0,1.028-0.225,1.735-0.572,2.172
			c-0.589,0.768-1.752,1.359-3.232,2.084c-2.761,1.343-3.198,2.293-3.229,3.427h7.153L419.698,402.729L419.698,402.729z"/>
	</g>
	<g>
		<path fill="#FFFFFF" d="M198.351,402.127c-0.619,0.527-1.752,0.77-3.366,0.77c-1.403,0-2.536-0.182-3.291-0.361v-0.785
			c0.89,0.151,1.886,0.332,3.306,0.332c1.554,0,2.383-0.241,2.702-0.543c0.271-0.273,0.513-0.77,0.513-1.527
			c0-0.617-0.121-1.1-0.347-1.354c-0.845-0.923-4.89-1.483-5.749-2.582c-0.347-0.422-0.453-1.222-0.453-1.84
			c0-0.83,0.241-1.646,0.754-2.142c0.483-0.467,1.448-0.847,3.306-0.847c1.237,0,2.263,0.105,3.034,0.239v0.767
			c-0.95-0.105-1.752-0.211-3.155-0.211s-2.234,0.242-2.566,0.636c-0.241,0.256-0.483,0.78-0.483,1.48
			c0,0.575,0.106,1.054,0.332,1.343c0.664,0.847,4.995,1.599,5.765,2.579c0.377,0.453,0.482,1.237,0.482,1.888
			C199.137,400.874,198.82,401.719,198.351,402.127L198.351,402.127z"/>
		<path fill="#FFFFFF" d="M202.587,406.85h-0.875v-12.588h0.664l0.211,0.757h0.061c0.121-0.166,0.438-0.483,0.528-0.528
			c0.256-0.164,1.239-0.407,2.265-0.407c1.161,0,1.873,0.201,2.416,0.681c0.588,0.496,1.071,1.541,1.071,3.457
			c0,1.797-0.467,3.066-1.176,3.771c-0.558,0.548-1.403,0.875-2.688,0.875c-1.011,0-1.795-0.136-2.474-0.286L202.587,406.85
			L202.587,406.85z M207.177,395.364c-0.422-0.347-1.086-0.513-2.054-0.513c-0.875,0-1.782,0.151-2.537,0.498v6.534
			c0.588,0.093,1.403,0.226,2.325,0.226c1.056,0,1.737-0.183,2.203-0.649c0.513-0.486,0.905-1.542,0.905-3.172
			C208.022,396.694,207.66,395.802,207.177,395.364z"/>
		<path fill="#FFFFFF" d="M215.125,394.097c2.416,0,3.215,1.22,3.215,3.396v1.037h-6.174c0,2.31,0.666,3.562,3.034,3.562
			c1.222,0,2.218-0.198,2.806-0.291l-0.061,0.729c-0.604,0.146-1.689,0.361-2.853,0.361c-2.823,0-3.834-1.451-3.834-4.336
			C211.261,395.604,212.467,394.097,215.125,394.097z M212.196,397.855h5.282v-0.305c0-1.873-0.618-2.735-2.443-2.735
			C213.086,394.821,212.316,395.849,212.196,397.855L212.196,397.855z"/>
		<path fill="#FFFFFF" d="M222.363,395.5c-0.618,0.577-0.935,1.648-0.935,3.099c0,1.391,0.287,2.325,0.875,2.868
			c0.498,0.468,1.237,0.648,2.157,0.648c1.073,0,1.931-0.165,2.521-0.256v0.679c-0.588,0.164-1.465,0.377-2.657,0.377
			c-1.191,0-2.099-0.271-2.687-0.829c-0.785-0.727-1.131-1.905-1.131-3.382c0-1.688,0.407-2.989,1.209-3.726
			c0.648-0.636,1.599-0.939,2.868-0.939c1.011,0,1.84,0.136,2.4,0.241v0.754c-0.528-0.073-1.312-0.196-2.31-0.196
			C223.647,394.836,222.846,395.032,222.363,395.5L222.363,395.5z"/>
		<path fill="#FFFFFF" d="M230.313,391.833c-0.091,0.075-0.256,0.105-0.422,0.105c-0.211,0-0.347-0.03-0.422-0.123
			c-0.076-0.075-0.121-0.224-0.121-0.42c0-0.227,0.06-0.392,0.181-0.455c0.045-0.059,0.196-0.106,0.393-0.106
			c0.181,0,0.316,0.033,0.392,0.106c0.105,0.092,0.136,0.243,0.136,0.438C230.448,391.576,230.418,391.757,230.313,391.833z
			 M229.438,402.729v-8.469h0.875v8.469H229.438z"/>
		<path fill="#FFFFFF" d="M238.897,402.729l-0.211-0.922h-0.076c-0.121,0.168-0.332,0.454-0.407,0.514
			c-0.256,0.181-1.164,0.561-2.627,0.561c-1.176,0-1.81-0.287-2.157-0.679c-0.302-0.33-0.483-0.86-0.483-1.646
			c0-0.949,0.332-1.524,0.664-1.738c0.649-0.484,2.371-0.8,5.071-1.038c0-1.466-0.181-2.069-0.468-2.416
			c-0.271-0.314-0.83-0.468-1.782-0.468c-1.025,0-2.338,0.239-2.913,0.345v-0.707c0.633-0.166,1.885-0.422,3.094-0.422
			c1.164,0,1.903,0.196,2.31,0.664c0.377,0.407,0.619,1.043,0.619,2.704v5.254L238.897,402.729L238.897,402.729z M238.671,398.459
			c-1.961,0.125-4.15,0.438-4.498,0.816c-0.226,0.197-0.377,0.574-0.377,1.211c0,0.543,0.136,0.938,0.347,1.177
			c0.256,0.271,0.799,0.485,1.719,0.485c1.285,0,2.355-0.362,2.808-0.59L238.671,398.459L238.671,398.459z"/>
		<path fill="#FFFFFF" d="M243.542,390.505v10.217c0,1.086,0.453,1.344,1.164,1.344c0.498,0,0.905-0.06,1.207-0.106v0.692
			c-0.362,0.074-0.89,0.166-1.463,0.166c-1.222,0-1.782-0.584-1.782-2.01v-10.303H243.542L243.542,390.505z"/>
		<path fill="#FFFFFF" d="M252.066,395.002h-3.004v5.645c0,1.147,0.53,1.39,1.48,1.39c0.694,0,1.327-0.105,1.661-0.151l-0.077,0.739
			c-0.453,0.091-1.162,0.196-1.811,0.196c-1.508,0-2.126-0.543-2.126-2.012v-5.807h-1.752l0.121-0.742h1.631v-1.763l0.875-0.226
			v1.991h3.17L252.066,395.002z"/>
		<path fill="#FFFFFF" d="M256.348,406.865h-0.92l1.661-4.137h-0.694l-3.17-8.469h0.951l2.823,7.697h0.392l2.989-7.697h0.95
			L256.348,406.865L256.348,406.865z"/>
		<path fill="#FFFFFF" d="M266.877,402.729v-0.769h3.335v-9.928l-3.335,0.601v-0.771l4.195-0.741v10.837h3.017v0.768
			L266.877,402.729z"/>
	</g>
	<g>
		<path fill="#FFFFFF" d="M301.815,317.211l-1.418-3.864h-5.523l-1.525,3.864h-0.92l4.527-11.32h1.616l4.226,11.32H301.815z
			 M297.966,306.721h-0.482l-2.325,5.84h4.965L297.966,306.721z"/>
		<path fill="#FFFFFF" d="M311.165,317.211l-0.224-0.905h-0.094c-0.029,0.06-0.393,0.528-0.418,0.543
			c-0.425,0.211-1.418,0.467-2.477,0.467c-1.22,0-1.854-0.256-2.323-0.739c-0.438-0.468-0.694-1.177-0.694-2.34v-5.493h0.875v5.164
			c0,1.146,0.211,1.734,0.559,2.099c0.361,0.377,0.993,0.528,1.917,0.528c0.98,0,1.964-0.256,2.643-0.558v-7.232h0.875v8.467
			L311.165,317.211L311.165,317.211z"/>
		<path fill="#FFFFFF" d="M317.333,313.333l-2.446,3.879h-0.997l2.764-4.271l-2.582-4.196h0.998l2.278,3.789h0.692l2.476-3.789h0.98
			l-2.775,4.196l2.686,4.271h-1.012l-2.385-3.879H317.333L317.333,313.333L317.333,313.333z"/>
		<path fill="#FFFFFF" d="M324.227,317.166c-0.074,0.091-0.272,0.121-0.454,0.121c-0.225,0-0.38-0.045-0.469-0.136
			c-0.093-0.091-0.122-0.242-0.122-0.468c0-0.227,0.093-0.407,0.182-0.483c0.093-0.045,0.227-0.09,0.438-0.09
			c0.182,0,0.362,0.03,0.438,0.105c0.104,0.076,0.149,0.256,0.149,0.468C324.393,316.879,324.347,317.061,324.227,317.166
			L324.227,317.166z"/>
		<path fill="#FFFFFF" d="M338.26,317.211l-6.509-10.475h-0.273v10.475h-0.828v-11.32h1.569l6.443,10.385h0.291v-10.385h0.83v11.32
			H338.26z"/>
		<path fill="#FFFFFF" d="M349.435,316.382c-0.588,0.604-1.447,1.011-2.94,1.011c-1.402,0-2.293-0.392-2.854-1.026
			c-0.484-0.558-0.923-1.556-0.923-3.185c0-1.644,0.438-2.972,1.211-3.698c0.604-0.573,1.541-0.965,2.884-0.965
			c1.286,0,2.173,0.362,2.702,0.89c0.618,0.649,0.995,1.629,0.995,3.381C350.506,314.449,350.083,315.703,349.435,316.382z
			 M348.711,315.929c0.525-0.543,0.905-1.48,0.905-2.989c0-1.737-0.332-2.461-0.782-2.929c-0.423-0.438-1.073-0.709-2.127-0.709
			c-1.041,0-1.737,0.332-2.13,0.694c-0.511,0.468-0.98,1.539-0.98,3.08c0,1.267,0.289,2.234,0.712,2.717
			c0.404,0.468,1.057,0.845,2.279,0.845C347.52,316.638,348.273,316.367,348.711,315.929L348.711,315.929z"/>
		<path fill="#FFFFFF" d="M359.149,304.911h0.892v12.3h-0.679l-0.213-0.799h-0.047c-0.147,0.166-0.435,0.498-0.524,0.558
			c-0.257,0.166-1.03,0.422-2.191,0.422c-1.19,0-1.959-0.241-2.488-0.679c-0.587-0.498-1.071-1.556-1.071-3.487
			c0-1.707,0.421-3.049,1.164-3.743c0.6-0.588,1.463-0.89,2.745-0.89c1.013,0,1.705,0.136,2.412,0.317L359.149,304.911
			L359.149,304.911L359.149,304.911z M354.59,316.08c0.396,0.347,1.148,0.543,2.036,0.543c0.849,0,1.767-0.151,2.521-0.513v-6.536
			c-0.573-0.075-1.355-0.226-2.291-0.226c-1.057,0-1.753,0.211-2.234,0.664c-0.511,0.483-0.889,1.526-0.889,3.155
			C353.731,314.828,354.124,315.673,354.59,316.08z"/>
		<path fill="#FFFFFF" d="M366.659,308.579c2.413,0,3.213,1.222,3.213,3.396v1.041H363.7c0,2.31,0.668,3.563,3.034,3.563
			c1.222,0,2.216-0.196,2.806-0.287l-0.058,0.724c-0.603,0.151-1.688,0.362-2.853,0.362c-2.822,0-3.831-1.448-3.831-4.332
			C362.795,310.087,364.002,308.579,366.659,308.579L366.659,308.579z M363.732,312.337h5.281v-0.302
			c0-1.873-0.617-2.732-2.445-2.732C364.62,309.303,363.854,310.329,363.732,312.337L363.732,312.337z"/>
	</g>
	<g>
		<path fill="#FFFFFF" d="M447.417,317.211l-1.418-3.864h-5.522l-1.525,3.864h-0.92l4.529-11.32h1.615l4.228,11.32H447.417z
			 M443.568,306.721h-0.484l-2.323,5.84h4.967L443.568,306.721L443.568,306.721z"/>
		<path fill="#FFFFFF" d="M456.768,317.211l-0.225-0.905h-0.092c-0.03,0.06-0.396,0.528-0.419,0.543
			c-0.424,0.211-1.418,0.467-2.475,0.467c-1.22,0-1.854-0.256-2.322-0.739c-0.438-0.468-0.693-1.177-0.693-2.34v-5.493h0.875v5.164
			c0,1.146,0.211,1.734,0.556,2.099c0.366,0.377,0.998,0.528,1.92,0.528c0.98,0,1.961-0.256,2.644-0.558v-7.232h0.875v8.467
			L456.768,317.211L456.768,317.211z"/>
		<path fill="#FFFFFF" d="M462.935,313.333l-2.444,3.879h-0.996l2.763-4.271l-2.581-4.196h0.995l2.282,3.789h0.69l2.478-3.789h0.979
			l-2.777,4.196l2.686,4.271h-1.011l-2.384-3.879H462.935L462.935,313.333L462.935,313.333z"/>
		<path fill="#FFFFFF" d="M469.828,317.166c-0.075,0.091-0.273,0.121-0.454,0.121c-0.225,0-0.377-0.045-0.468-0.136
			c-0.091-0.091-0.123-0.242-0.123-0.468c0-0.227,0.093-0.407,0.182-0.483c0.092-0.045,0.225-0.09,0.438-0.09
			c0.181,0,0.36,0.03,0.437,0.105c0.106,0.076,0.149,0.256,0.149,0.468C469.994,316.879,469.951,317.061,469.828,317.166z"/>
		<path fill="#FFFFFF" d="M483.861,317.211l-6.509-10.475h-0.271v10.475h-0.832v-11.32h1.571l6.444,10.385h0.289v-10.385h0.829
			v11.32H483.861L483.861,317.211z"/>
		<path fill="#FFFFFF" d="M495.037,316.382c-0.586,0.604-1.45,1.011-2.941,1.011c-1.402,0-2.291-0.392-2.852-1.026
			c-0.484-0.558-0.922-1.556-0.922-3.185c0-1.644,0.438-2.972,1.209-3.698c0.604-0.573,1.541-0.965,2.883-0.965
			c1.284,0,2.175,0.362,2.702,0.89c0.619,0.649,0.998,1.629,0.998,3.381C496.11,314.449,495.686,315.703,495.037,316.382z
			 M494.313,315.929c0.528-0.543,0.905-1.48,0.905-2.989c0-1.737-0.332-2.461-0.782-2.929c-0.422-0.438-1.072-0.709-2.127-0.709
			c-1.038,0-1.735,0.332-2.129,0.694c-0.511,0.468-0.979,1.539-0.979,3.08c0,1.267,0.287,2.234,0.709,2.717
			c0.405,0.468,1.056,0.845,2.28,0.845C493.119,316.638,493.875,316.367,494.313,315.929L494.313,315.929z"/>
		<path fill="#FFFFFF" d="M504.749,304.911h0.893v12.3h-0.677l-0.216-0.799h-0.045c-0.146,0.166-0.435,0.498-0.526,0.558
			c-0.256,0.166-1.028,0.422-2.19,0.422c-1.191,0-1.959-0.241-2.488-0.679c-0.587-0.498-1.069-1.556-1.069-3.487
			c0-1.707,0.42-3.049,1.161-3.743c0.603-0.588,1.466-0.89,2.746-0.89c1.013,0,1.704,0.136,2.411,0.317L504.749,304.911
			L504.749,304.911z M500.195,316.08c0.393,0.347,1.145,0.543,2.035,0.543c0.845,0,1.765-0.151,2.519-0.513v-6.536
			c-0.573-0.075-1.355-0.226-2.293-0.226c-1.056,0-1.752,0.211-2.23,0.664c-0.511,0.483-0.892,1.526-0.892,3.155
			C499.332,314.828,499.724,315.673,500.195,316.08z"/>
		<path fill="#FFFFFF" d="M512.262,308.579c2.415,0,3.215,1.222,3.215,3.396v1.041h-6.172c0,2.31,0.666,3.563,3.032,3.563
			c1.22,0,2.217-0.196,2.808-0.287l-0.061,0.724c-0.599,0.151-1.685,0.362-2.851,0.362c-2.823,0-3.829-1.448-3.829-4.332
			C508.397,310.087,509.604,308.579,512.262,308.579z M509.333,312.337h5.281v-0.302c0-1.873-0.618-2.732-2.445-2.732
			C510.225,309.303,509.455,310.329,509.333,312.337L509.333,312.337z"/>
	</g>
	<g>
		<path fill="#FFFFFF" d="M156.208,317.211l-1.418-3.864h-5.523l-1.525,3.864h-0.92l4.527-11.32h1.616l4.226,11.32H156.208
			L156.208,317.211z M152.36,306.721h-0.482l-2.325,5.84h4.965L152.36,306.721z"/>
		<path fill="#FFFFFF" d="M165.559,317.211l-0.227-0.905h-0.09c-0.03,0.06-0.392,0.528-0.422,0.543
			c-0.422,0.211-1.418,0.467-2.476,0.467c-1.222,0-1.855-0.256-2.323-0.739c-0.437-0.468-0.694-1.177-0.694-2.34v-5.493h0.875v5.164
			c0,1.146,0.211,1.734,0.558,2.099c0.362,0.377,0.996,0.528,1.918,0.528c0.98,0,1.963-0.256,2.642-0.558v-7.232h0.875v8.467
			L165.559,317.211L165.559,317.211z"/>
		<path fill="#FFFFFF" d="M171.727,313.333l-2.446,3.879h-0.995l2.762-4.271l-2.582-4.196h0.996l2.278,3.789h0.694l2.476-3.789h0.98
			l-2.778,4.196l2.688,4.271h-1.011l-2.383-3.879H171.727L171.727,313.333L171.727,313.333z"/>
		<path fill="#FFFFFF" d="M178.62,317.166c-0.076,0.091-0.271,0.121-0.453,0.121c-0.226,0-0.377-0.045-0.468-0.136
			c-0.09-0.091-0.121-0.242-0.121-0.468c0-0.227,0.09-0.407,0.181-0.483c0.09-0.045,0.226-0.09,0.438-0.09
			c0.181,0,0.362,0.03,0.438,0.105c0.105,0.076,0.151,0.256,0.151,0.468C178.786,316.879,178.741,317.061,178.62,317.166z"/>
		<path fill="#FFFFFF" d="M192.651,317.211l-6.506-10.475h-0.271v10.475h-0.83v-11.32h1.569l6.445,10.385h0.287v-10.385h0.83v11.32
			H192.651z"/>
		<path fill="#FFFFFF" d="M203.828,316.382c-0.588,0.604-1.448,1.011-2.943,1.011c-1.403,0-2.295-0.392-2.853-1.026
			c-0.483-0.558-0.92-1.556-0.92-3.185c0-1.644,0.438-2.972,1.207-3.698c0.603-0.573,1.539-0.965,2.883-0.965
			c1.282,0,2.172,0.362,2.702,0.89c0.619,0.649,0.996,1.629,0.996,3.381C204.899,314.449,204.477,315.703,203.828,316.382
			L203.828,316.382z M203.102,315.929c0.528-0.543,0.905-1.48,0.905-2.989c0-1.737-0.332-2.461-0.785-2.929
			c-0.422-0.438-1.071-0.709-2.127-0.709c-1.041,0-1.737,0.332-2.129,0.694c-0.513,0.468-0.98,1.539-0.98,3.08
			c0,1.267,0.287,2.234,0.709,2.717c0.407,0.468,1.056,0.845,2.28,0.845C201.911,316.638,202.665,316.367,203.102,315.929z"/>
		<path fill="#FFFFFF" d="M213.543,304.911h0.892v12.3h-0.679l-0.211-0.799H213.5c-0.151,0.166-0.438,0.498-0.528,0.558
			c-0.256,0.166-1.026,0.422-2.188,0.422c-1.193,0-1.963-0.241-2.491-0.679c-0.588-0.498-1.073-1.556-1.073-3.487
			c0-1.707,0.422-3.049,1.164-3.743c0.604-0.588,1.463-0.89,2.748-0.89c1.011,0,1.705,0.136,2.414,0.317L213.543,304.911z
			 M208.985,316.08c0.393,0.347,1.146,0.543,2.037,0.543c0.845,0,1.765-0.151,2.519-0.513v-6.536
			c-0.573-0.075-1.357-0.226-2.293-0.226c-1.056,0-1.752,0.211-2.234,0.664c-0.513,0.483-0.89,1.526-0.89,3.155
			C208.125,314.828,208.518,315.673,208.985,316.08L208.985,316.08z"/>
		<path fill="#FFFFFF" d="M221.053,308.579c2.416,0,3.215,1.222,3.215,3.396v1.041h-6.174c0,2.31,0.666,3.563,3.034,3.563
			c1.222,0,2.218-0.196,2.806-0.287l-0.06,0.724c-0.604,0.151-1.689,0.362-2.853,0.362c-2.823,0-3.834-1.448-3.834-4.332
			C217.189,310.087,218.396,308.579,221.053,308.579z M218.124,312.337h5.282v-0.302c0-1.873-0.618-2.732-2.444-2.732
			C219.014,309.303,218.245,310.329,218.124,312.337L218.124,312.337z"/>
	</g>
	<g>
		<path fill="#FFFFFF" d="M84.753,395.396h-5.482l-9.984-35.793h-0.879l-11.432,35.793h-5.431l-9.156-38.791h3.155l8.43,35.793
			h1.086l11.43-35.793h4.965l10.034,35.793h1.189l9.413-35.793h3.207L84.753,395.396z"/>
		<rect x="103.885" y="356.604" fill="#FFFFFF" width="3.051" height="38.793"/>
		<path fill="#FFFFFF" d="M121.779,392.653h20.845l-0.879,2.741H118.78v-38.791h3L121.779,392.653L121.779,392.653z"/>
	</g>
</g>
<g>
	<path fill="#FFFFFF" d="M345.477,450.016h-13.799v-22.499h13.739l-0.42,1.591h-11.579v8.64h10.199l-0.392,1.56h-9.809v9.12h12.568
		L345.477,450.016z"/>
	<path fill="#FFFFFF" d="M355.197,442.306l-4.859,7.71h-1.979l5.489-8.488l-5.131-8.341h1.98l4.528,7.529h1.382l4.92-7.529h1.948
		l-5.52,8.341l5.34,8.488h-2.01l-4.74-7.71H355.197z"/>
	<path fill="#FFFFFF" d="M376.646,434.656h-5.972v11.22c0,2.279,1.051,2.76,2.941,2.76c1.379,0,2.639-0.21,3.299-0.3l-0.15,1.47
		c-0.897,0.181-2.309,0.391-3.6,0.391c-3,0-4.229-1.08-4.229-3.989v-11.55h-3.479l0.24-1.47h3.239v-3.511l1.738-0.45v3.961h6.301
		L376.646,434.656z"/>
	<path fill="#FFFFFF" d="M382.768,433.188l0.421,1.858h0.18c0.09-0.12,0.811-0.989,0.869-1.05c0.811-0.479,2.34-1.05,4.44-1.05
		c0.84,0,1.47,0.06,1.92,0.12v1.68c-0.512-0.09-1.381-0.21-2.399-0.21c-2.041-0.03-3.961,0.66-4.98,1.32v14.158h-1.739v-16.829
		h1.289V433.188z"/>
	<path fill="#FFFFFF" d="M406.018,448.365c-1.17,1.2-2.881,2.011-5.85,2.011c-2.791,0-4.561-0.78-5.67-2.04
		c-0.961-1.11-1.83-3.09-1.83-6.33c0-3.27,0.869-5.91,2.4-7.35c1.198-1.141,3.059-1.92,5.729-1.92c2.551,0,4.32,0.72,5.371,1.77
		c1.229,1.29,1.979,3.24,1.979,6.72C408.146,444.525,407.307,447.016,406.018,448.365z M404.576,447.466
		c1.051-1.08,1.801-2.939,1.801-5.938c0-3.45-0.66-4.892-1.561-5.82c-0.841-0.87-2.13-1.41-4.229-1.41
		c-2.07,0-3.451,0.66-4.229,1.38c-1.021,0.932-1.949,3.062-1.949,6.12c0,2.521,0.567,4.439,1.41,5.399
		c0.809,0.931,2.1,1.681,4.528,1.681C402.207,448.876,403.707,448.336,404.576,447.466z"/>
	<path fill="#FFFFFF" d="M415.346,458.205h-1.739v-25.02h1.319l0.42,1.5h0.121c0.24-0.329,0.869-0.96,1.049-1.05
		c0.511-0.33,2.461-0.811,4.5-0.811c2.312,0,3.722,0.391,4.802,1.35c1.17,0.99,2.129,3.062,2.129,6.87c0,3.57-0.931,6.09-2.34,7.5
		c-1.109,1.08-2.789,1.739-5.341,1.739c-2.01,0-3.567-0.271-4.92-0.569V458.205L415.346,458.205z M424.467,435.376
		c-0.84-0.688-2.16-1.02-4.08-1.02c-1.739,0-3.541,0.3-5.041,0.989v12.989c1.17,0.18,2.791,0.45,4.621,0.45
		c2.101,0,3.449-0.36,4.379-1.29c1.021-0.96,1.802-3.062,1.802-6.3C426.146,438.016,425.426,436.246,424.467,435.376z"/>
	<path fill="#FFFFFF" d="M437.127,458.235h-1.83l3.299-8.221h-1.379l-6.301-16.829h1.891l5.609,15.3h0.779l5.94-15.3h1.89
		L437.127,458.235z"/>
</g>
</svg>
