<?xml version="1.0" standalone="no"?>
<!DOCTYPE svg PUBLIC "-//W3C//DTD SVG 1.1//EN" "http://www.w3.org/Graphics/SVG/1.1/DTD/svg11.dtd">
<svg width="100%" height="100%" viewBox="0 0 284 86" version="1.1" xmlns="http://www.w3.org/2000/svg" xmlns:xlink="http://www.w3.org/1999/xlink" xml:space="preserve" style="fill-rule:evenodd;clip-rule:evenodd;stroke-linejoin:round;stroke-miterlimit:1.41421;">
    <g id="tint">
        <path d="M120.274,16.297L110.354,6.377L54.152,6.376L64.072,16.296L64.081,16.296L78.464,30.679L84.47,27.672L73.094,16.296L120.274,16.297Z" style="fill:rgb(98,178,145);fill-rule:nonzero;"/>
        <path d="M187.843,16.297L177.923,6.377L121.721,6.376L131.642,16.296L131.652,16.296L145.904,30.549L151.912,27.542L140.666,16.296L187.843,16.297Z" style="fill:rgb(98,178,145);fill-rule:nonzero;"/>
        <path d="M254.416,16.298L244.492,6.376L188.285,6.376L198.207,16.298L198.219,16.298L210.573,28.653L216.58,25.646L207.232,16.298L254.416,16.298Z" style="fill:rgb(98,178,145);fill-rule:nonzero;"/>
        <path d="M163.341,46.064L174.597,34.809L168.589,31.802L154.328,46.064L154.326,46.064L144.404,55.984L200.606,55.982L210.526,46.063L163.341,46.064Z" style="fill:rgb(98,178,145);fill-rule:nonzero;"/>
        <path d="M229.903,46.063L240.862,35.104L234.855,32.097L220.89,46.063L220.875,46.063L210.953,55.984L267.16,55.984L277.083,46.063L229.903,46.063Z" style="fill:rgb(98,178,145);fill-rule:nonzero;"/>
        <rect x="61.527" y="25.511" width="170.057" height="11.339" style="fill:rgb(98,178,145);"/>
    </g>
    <g id="primary">
        <rect x="61.527" y="25.511" width="72.485" height="11.339" style="fill:rgb(30,144,98);"/>
        <g transform="matrix(-0.7071,-0.7071,0.7071,-0.7071,42.5218,102.652)">
            <rect x="14.459" y="14.458" width="56.123" height="56.122" style="fill:rgb(30,144,98);"/>
        </g>
        <path d="M194.503,82.205L217.181,59.527L72.615,59.527L49.938,82.205L194.503,82.205Z" style="fill:rgb(30,144,98);fill-rule:nonzero;"/>
        <path d="M105.846,41.144L81.739,65.251L71.831,60.291L95.938,36.184L105.846,41.144Z" style="fill:rgb(30,144,98);fill-rule:nonzero;"/>
        <g transform="matrix(-0.7071,-0.7071,0.7071,-0.7071,42.5218,102.652)">
            <rect x="14.459" y="14.458" width="56.123" height="56.122" style="fill:rgb(30,144,98);"/>
        </g>
        <path d="M133.204,19.842L61.527,19.842L84.205,42.519L155.88,42.519L133.204,19.842Z" style="fill:rgb(30,144,98);fill-rule:nonzero;"/>
        <path d="M199.762,19.842L163.537,19.842L162.573,19.842L162.425,19.842L161.573,19.842L135.198,19.842L157.875,42.519L222.438,42.519L199.762,19.842Z" style="fill:rgb(98,178,145);fill-rule:nonzero;"/>
        <path d="M257.953,19.842L201.757,19.842L224.434,42.519L280.63,42.519L257.953,19.842Z" style="fill:rgb(98,178,145);fill-rule:nonzero;"/>
    </g>
    <g id="Text">
        <g>
            <g>
                <path d="M89.475,35.38L89.475,34.666L92.571,34.666L92.571,25.449L89.475,26.009L89.475,25.295L93.369,24.608L93.369,34.666L96.171,34.666L96.171,35.38L89.475,35.38Z" style="fill:white;fill-rule:nonzero;"/>
                <path d="M112.116,35.38L104.902,35.38L104.902,34.54C105.028,32.999 105.868,32.004 108.334,30.8C109.903,30.016 110.589,29.61 110.954,29.133C111.262,28.699 111.346,28.139 111.346,27.592C111.346,26.149 110.814,25.491 108.531,25.491C107.284,25.491 105.94,25.799 105.323,25.939L105.323,25.21C106.149,24.986 107.438,24.733 108.698,24.733C111.373,24.733 112.214,25.602 112.214,27.493C112.214,28.446 112.004,29.104 111.682,29.51C111.136,30.224 110.057,30.771 108.684,31.443C106.121,32.69 105.715,33.572 105.686,34.623L112.326,34.623L112.116,35.38Z" style="fill:white;fill-rule:nonzero;"/>
                <path d="M126.914,29.427L125.779,29.959L125.779,30.015L126.969,30.435C127.446,30.828 127.823,31.724 127.823,32.634C127.823,34.651 126.675,35.52 123.831,35.52C122.655,35.52 121.618,35.366 121.001,35.226L121.001,34.512C121.646,34.624 122.78,34.792 123.831,34.792C126.436,34.792 126.983,33.938 126.983,32.635C126.983,30.772 125.736,30.422 124.153,30.422L122.15,30.422L122.15,29.693L123.971,29.693C125.344,29.693 126.786,29.343 126.786,27.522C126.786,26.177 126.282,25.477 124.153,25.477C123.032,25.477 121.954,25.701 121.225,25.855L121.225,25.154C121.982,24.958 123.144,24.734 124.293,24.734C126.814,24.734 127.613,25.617 127.613,27.41C127.614,28.39 127.18,29.174 126.914,29.427Z" style="fill:white;fill-rule:nonzero;"/>
            </g>
            <g>
                <path d="M164.898,35.38L164.127,35.38L164.127,32.397L158.733,32.397L158.733,31.584L163.371,24.874L164.897,24.874L164.897,31.696L167.251,31.696L167.04,32.397L164.896,32.397L164.898,35.38ZM164.128,31.696L164.128,25.561L163.749,25.561L159.645,31.514L159.645,31.696L164.128,31.696Z" style="fill:white;fill-rule:nonzero;"/>
                <path d="M178.083,35.52C177.118,35.52 176.096,35.38 175.366,35.268L175.366,34.525C176.038,34.623 177.075,34.763 178.126,34.763C180.55,34.763 181.391,34.076 181.391,32.34C181.391,30.491 180.803,30.015 178.645,30.015C177.651,30.015 176.306,30.225 175.69,30.309L175.69,24.874L181.91,24.874L181.91,25.588L176.42,25.588L176.42,29.538C177.008,29.44 177.819,29.286 178.899,29.286C181.337,29.286 182.233,29.931 182.233,32.227C182.23,34.441 181.208,35.52 178.083,35.52Z" style="fill:white;fill-rule:nonzero;"/>
                <path d="M191.846,30.253L191.915,30.253L192.362,29.791C192.966,29.567 194.057,29.259 195.333,29.259C197.812,29.259 198.639,30.295 198.639,32.242C198.639,34.273 197.587,35.52 194.885,35.52C191.944,35.52 191.032,33.657 191.032,30.561C191.032,28.614 191.579,27.213 192.405,26.331C193.372,25.322 194.913,24.692 197.616,24.664L197.895,25.407C195.262,25.421 193.832,25.967 192.993,26.864C192.335,27.563 191.901,28.754 191.846,30.253ZM195.066,29.987C193.82,29.987 192.671,30.295 191.845,30.617C191.872,33.517 192.783,34.791 194.925,34.791C196.929,34.791 197.825,34.007 197.825,32.312C197.826,30.688 197.167,29.987 195.066,29.987Z" style="fill:white;fill-rule:nonzero;"/>
            </g>
            <g>
                <path d="M227.708,25.813L227.708,25.617L221.393,25.617L221.617,24.874L228.606,24.874L228.606,25.799L223.591,35.38L222.681,35.38L227.708,25.813Z" style="fill:white;fill-rule:nonzero;"/>
                <path d="M238.347,30.505L239.298,29.986L239.298,29.916L238.458,29.482C238.094,29.118 237.743,28.599 237.743,27.633C237.743,25.938 238.807,24.719 241.272,24.719C243.724,24.719 244.634,25.811 244.634,27.38C244.634,28.375 244.213,28.977 243.821,29.397L242.954,29.916L242.954,29.986L244.017,30.379C244.579,30.827 244.9,31.542 244.9,32.494C244.9,34.231 243.821,35.52 241.062,35.52C238.458,35.52 237.377,34.483 237.377,32.705C237.38,31.808 237.744,31.065 238.347,30.505ZM238.207,32.606C238.207,34.007 239.02,34.805 241.148,34.805C243.319,34.805 244.076,33.783 244.076,32.578C244.076,30.659 242.857,30.505 239.733,30.168C238.962,30.673 238.207,31.36 238.207,32.606ZM238.57,27.563C238.57,29.286 239.664,29.524 242.408,29.776C243.291,29.23 243.795,28.515 243.795,27.479C243.795,26.134 243.039,25.434 241.191,25.434C239.257,25.435 238.57,26.387 238.57,27.563Z" style="fill:white;fill-rule:nonzero;"/>
                <path d="M260.063,30.015L259.994,30.015L259.558,30.477C258.984,30.715 257.906,30.996 256.701,30.996C254.194,30.996 253.311,29.987 253.311,28.054C253.311,25.841 254.699,24.734 257.05,24.734C259.796,24.734 260.874,26.261 260.874,29.595C260.874,31.598 260.329,33.069 259.501,33.937C258.577,34.946 256.995,35.548 254.276,35.604L254.009,34.833C256.601,34.819 258.113,34.301 258.926,33.418C259.559,32.705 260.021,31.528 260.063,30.015ZM256.884,30.267C258.145,30.267 259.28,29.973 260.064,29.679C260.037,26.709 259.182,25.463 256.998,25.463C255.037,25.463 254.125,26.401 254.125,27.999C254.125,29.567 254.824,30.267 256.884,30.267Z" style="fill:white;fill-rule:nonzero;"/>
            </g>
        </g>
        <g>
            <path d="M159.615,52.843C159.328,53.088 158.802,53.2 158.052,53.2C157.402,53.2 156.876,53.116 156.526,53.032L156.526,52.668C156.939,52.738 157.402,52.822 158.06,52.822C158.781,52.822 159.165,52.71 159.314,52.57C159.439,52.443 159.55,52.213 159.55,51.861C159.55,51.575 159.495,51.351 159.39,51.232C158.997,50.804 157.12,50.544 156.722,50.034C156.56,49.838 156.511,49.467 156.511,49.18C156.511,48.795 156.624,48.416 156.862,48.186C157.086,47.969 157.535,47.793 158.396,47.793C158.97,47.793 159.447,47.842 159.804,47.904L159.804,48.26C159.363,48.211 158.991,48.162 158.339,48.162C157.689,48.162 157.303,48.274 157.149,48.457C157.037,48.576 156.925,48.819 156.925,49.144C156.925,49.411 156.974,49.633 157.079,49.767C157.387,50.16 159.396,50.509 159.753,50.964C159.929,51.174 159.978,51.538 159.978,51.84C159.979,52.262 159.832,52.654 159.615,52.843Z" style="fill:white;fill-rule:nonzero;"/>
            <path d="M161.58,55.035L161.174,55.035L161.174,49.193L161.484,49.193L161.583,49.544L161.61,49.544C161.667,49.467 161.813,49.32 161.855,49.299C161.974,49.223 162.429,49.11 162.906,49.11C163.445,49.11 163.775,49.203 164.027,49.426C164.299,49.656 164.523,50.141 164.523,51.03C164.523,51.864 164.306,52.453 163.978,52.78C163.717,53.034 163.327,53.186 162.73,53.186C162.261,53.186 161.897,53.123 161.583,53.053L161.583,55.035L161.58,55.035ZM163.71,49.705C163.514,49.544 163.204,49.467 162.757,49.467C162.352,49.467 161.931,49.537 161.579,49.698L161.579,52.73C161.852,52.773 162.231,52.834 162.659,52.834C163.148,52.834 163.464,52.75 163.68,52.533C163.918,52.307 164.1,51.817 164.1,51.061C164.102,50.322 163.934,49.908 163.71,49.705Z" style="fill:white;fill-rule:nonzero;"/>
            <path d="M167.398,49.117C168.519,49.117 168.89,49.683 168.89,50.693L168.89,51.174L166.025,51.174C166.025,52.246 166.334,52.827 167.433,52.827C167.999,52.827 168.462,52.735 168.736,52.692L168.709,53.03C168.429,53.098 167.924,53.198 167.385,53.198C166.074,53.198 165.607,52.524 165.607,51.186C165.605,49.816 166.166,49.117 167.398,49.117ZM166.039,50.861L168.49,50.861L168.49,50.72C168.49,49.851 168.203,49.451 167.356,49.451C166.453,49.453 166.096,49.93 166.039,50.861Z" style="fill:white;fill-rule:nonzero;"/>
            <path d="M170.757,49.768C170.471,50.036 170.322,50.533 170.322,51.206C170.322,51.851 170.456,52.285 170.728,52.537C170.959,52.754 171.302,52.838 171.729,52.838C172.227,52.838 172.625,52.761 172.899,52.719L172.899,53.034C172.626,53.11 172.219,53.209 171.667,53.209C171.116,53.209 170.693,53.083 170.421,52.824C170.057,52.487 169.897,51.94 169.897,51.255C169.897,50.472 170.085,49.868 170.459,49.526C170.76,49.231 171.201,49.09 171.789,49.09C172.258,49.09 172.643,49.153 172.901,49.202L172.901,49.552C172.658,49.518 172.293,49.461 171.83,49.461C171.354,49.46 170.981,49.551 170.757,49.768Z" style="fill:white;fill-rule:nonzero;"/>
            <path d="M174.446,48.066C174.404,48.101 174.328,48.115 174.25,48.115C174.152,48.115 174.09,48.101 174.056,48.058C174.021,48.023 173.998,47.954 173.998,47.863C173.998,47.758 174.026,47.681 174.082,47.652C174.103,47.625 174.174,47.603 174.265,47.603C174.35,47.603 174.412,47.618 174.448,47.652C174.499,47.695 174.511,47.765 174.511,47.855C174.509,47.947 174.496,48.031 174.446,48.066ZM174.041,53.123L174.041,49.193L174.446,49.193L174.446,53.123L174.041,53.123Z" style="fill:white;fill-rule:nonzero;"/>
            <path d="M178.431,53.123L178.331,52.695L178.296,52.695C178.241,52.773 178.143,52.906 178.108,52.933C177.989,53.017 177.568,53.193 176.889,53.193C176.343,53.193 176.047,53.06 175.888,52.878C175.746,52.725 175.662,52.479 175.662,52.115C175.662,51.674 175.816,51.407 175.972,51.308C176.273,51.083 177.072,50.937 178.325,50.826C178.325,50.146 178.241,49.866 178.108,49.705C177.982,49.559 177.722,49.488 177.282,49.488C176.805,49.488 176.196,49.599 175.929,49.648L175.929,49.32C176.224,49.243 176.805,49.124 177.366,49.124C177.905,49.124 178.249,49.215 178.437,49.432C178.612,49.621 178.724,49.916 178.724,50.686L178.724,53.124L178.431,53.123ZM178.326,51.141C177.416,51.199 176.399,51.344 176.238,51.52C176.133,51.612 176.062,51.787 176.062,52.082C176.062,52.334 176.125,52.517 176.224,52.628C176.343,52.754 176.595,52.853 177.022,52.853C177.619,52.853 178.115,52.685 178.326,52.58L178.326,51.141L178.326,51.141Z" style="fill:white;fill-rule:nonzero;"/>
            <path d="M180.585,47.45L180.585,52.191C180.585,52.695 180.794,52.814 181.124,52.814C181.354,52.814 181.544,52.787 181.685,52.765L181.685,53.086C181.517,53.121 181.272,53.163 181.005,53.163C180.438,53.163 180.179,52.892 180.179,52.231L180.179,47.45L180.585,47.45Z" style="fill:white;fill-rule:nonzero;"/>
            <path d="M184.541,49.537L183.146,49.537L183.146,52.156C183.146,52.689 183.392,52.801 183.834,52.801C184.156,52.801 184.449,52.752 184.605,52.731L184.57,53.076C184.361,53.118 184.031,53.167 183.73,53.167C183.03,53.167 182.743,52.915 182.743,52.235L182.743,49.539L181.93,49.539L181.986,49.194L182.743,49.194L182.743,48.377L183.148,48.273L183.148,49.197L184.62,49.197L184.541,49.537Z" style="fill:white;fill-rule:nonzero;"/>
            <path d="M186.528,55.042L186.101,55.042L186.871,53.123L186.549,53.123L185.078,49.193L185.519,49.193L186.83,52.765L187.013,52.765L188.4,49.193L188.84,49.193L186.528,55.042Z" style="fill:white;fill-rule:nonzero;"/>
            <path d="M194.762,53.123L191.155,53.123L191.155,52.703C191.219,51.932 191.639,51.435 192.873,50.833C193.656,50.439 194,50.236 194.183,50C194.336,49.782 194.379,49.502 194.379,49.229C194.379,48.508 194.111,48.178 192.971,48.178C192.348,48.178 191.676,48.332 191.367,48.403L191.367,48.04C191.779,47.928 192.424,47.803 193.055,47.803C194.393,47.803 194.813,48.238 194.813,49.183C194.813,49.66 194.709,49.988 194.547,50.191C194.274,50.547 193.734,50.822 193.047,51.158C191.766,51.781 191.563,52.222 191.549,52.748L194.869,52.748L194.762,53.123Z" style="fill:white;fill-rule:nonzero;"/>
        </g>
        <g>
            <path d="M227.884,52.843C227.598,53.088 227.071,53.2 226.322,53.2C225.671,53.2 225.145,53.116 224.796,53.032L224.796,52.668C225.208,52.738 225.671,52.822 226.329,52.822C227.05,52.822 227.435,52.71 227.583,52.57C227.71,52.443 227.821,52.213 227.821,51.861C227.821,51.575 227.764,51.351 227.659,51.232C227.267,50.804 225.39,50.544 224.991,50.034C224.831,49.838 224.782,49.467 224.782,49.18C224.782,48.795 224.893,48.416 225.132,48.186C225.357,47.969 225.805,47.793 226.665,47.793C227.239,47.793 227.716,47.842 228.073,47.904L228.073,48.26C227.632,48.211 227.26,48.162 226.609,48.162C225.958,48.162 225.573,48.274 225.419,48.457C225.308,48.576 225.194,48.819 225.194,49.144C225.194,49.411 225.243,49.633 225.348,49.767C225.657,50.16 227.666,50.509 228.024,50.964C228.2,51.174 228.249,51.538 228.249,51.84C228.25,52.262 228.102,52.654 227.884,52.843Z" style="fill:white;fill-rule:nonzero;"/>
            <path d="M229.851,55.035L229.445,55.035L229.445,49.193L229.754,49.193L229.853,49.544L229.881,49.544C229.937,49.467 230.084,49.32 230.125,49.299C230.244,49.223 230.699,49.11 231.176,49.11C231.715,49.11 232.045,49.203 232.297,49.426C232.569,49.656 232.793,50.141 232.793,51.03C232.793,51.864 232.576,52.453 232.248,52.78C231.987,53.034 231.597,53.186 231,53.186C230.53,53.186 230.168,53.123 229.853,53.053L229.851,55.035ZM231.98,49.705C231.783,49.544 231.475,49.467 231.027,49.467C230.621,49.467 230.201,49.537 229.85,49.698L229.85,52.73C230.122,52.773 230.501,52.834 230.929,52.834C231.419,52.834 231.734,52.75 231.95,52.533C232.187,52.307 232.37,51.817 232.37,51.061C232.373,50.322 232.205,49.908 231.98,49.705Z" style="fill:white;fill-rule:nonzero;"/>
            <path d="M235.667,49.117C236.788,49.117 237.159,49.683 237.159,50.693L237.159,51.174L234.294,51.174C234.294,52.246 234.604,52.827 235.702,52.827C236.269,52.827 236.731,52.735 237.005,52.692L236.979,53.03C236.698,53.098 236.194,53.198 235.655,53.198C234.345,53.198 233.877,52.524 233.877,51.186C233.875,49.816 234.436,49.117 235.667,49.117ZM234.31,50.861L236.761,50.861L236.761,50.72C236.761,49.851 236.474,49.451 235.626,49.451C234.723,49.453 234.365,49.93 234.31,50.861Z" style="fill:white;fill-rule:nonzero;"/>
            <path d="M239.027,49.768C238.74,50.036 238.593,50.533 238.593,51.206C238.593,51.851 238.726,52.285 238.999,52.537C239.228,52.754 239.572,52.838 239.999,52.838C240.497,52.838 240.895,52.761 241.169,52.719L241.169,53.034C240.897,53.11 240.489,53.209 239.937,53.209C239.385,53.209 238.964,53.083 238.691,52.824C238.328,52.487 238.166,51.94 238.166,51.255C238.166,50.472 238.355,49.868 238.728,49.526C239.029,49.231 239.47,49.09 240.058,49.09C240.528,49.09 240.912,49.153 241.172,49.202L241.172,49.552C240.926,49.518 240.563,49.461 240.101,49.461C239.623,49.46 239.251,49.551 239.027,49.768Z" style="fill:white;fill-rule:nonzero;"/>
            <path d="M242.716,48.066C242.673,48.101 242.598,48.115 242.521,48.115C242.421,48.115 242.36,48.101 242.326,48.058C242.291,48.023 242.268,47.954 242.268,47.863C242.268,47.758 242.296,47.681 242.352,47.652C242.373,47.625 242.444,47.603 242.535,47.603C242.621,47.603 242.682,47.618 242.719,47.652C242.768,47.695 242.782,47.765 242.782,47.855C242.779,47.947 242.766,48.031 242.716,48.066ZM242.311,53.123L242.311,49.193L242.716,49.193L242.716,53.123L242.311,53.123Z" style="fill:white;fill-rule:nonzero;"/>
            <path d="M246.701,53.123L246.602,52.695L246.567,52.695C246.511,52.773 246.414,52.906 246.379,52.933C246.26,53.017 245.84,53.193 245.16,53.193C244.613,53.193 244.319,53.06 244.158,52.878C244.017,52.725 243.933,52.479 243.933,52.115C243.933,51.674 244.087,51.407 244.242,51.308C244.543,51.083 245.342,50.937 246.596,50.826C246.596,50.146 246.512,49.866 246.378,49.705C246.251,49.559 245.993,49.488 245.552,49.488C245.075,49.488 244.466,49.599 244.2,49.648L244.2,49.32C244.493,49.243 245.075,49.124 245.636,49.124C246.175,49.124 246.519,49.215 246.706,49.432C246.882,49.621 246.993,49.916 246.993,50.686L246.993,53.124L246.701,53.123ZM246.596,51.141C245.686,51.199 244.669,51.344 244.507,51.52C244.403,51.612 244.333,51.787 244.333,52.082C244.333,52.334 244.396,52.517 244.493,52.628C244.612,52.754 244.864,52.853 245.292,52.853C245.889,52.853 246.384,52.685 246.596,52.58L246.596,51.141Z" style="fill:white;fill-rule:nonzero;"/>
            <path d="M248.855,47.45L248.855,52.191C248.855,52.695 249.065,52.814 249.394,52.814C249.624,52.814 249.814,52.787 249.955,52.765L249.955,53.086C249.787,53.121 249.541,53.163 249.275,53.163C248.709,53.163 248.449,52.892 248.449,52.231L248.449,47.45L248.855,47.45Z" style="fill:white;fill-rule:nonzero;"/>
            <path d="M252.811,49.537L251.417,49.537L251.417,52.156C251.417,52.689 251.661,52.801 252.104,52.801C252.425,52.801 252.72,52.752 252.875,52.731L252.84,53.076C252.631,53.118 252.301,53.167 252,53.167C251.301,53.167 251.014,52.915 251.014,52.235L251.014,49.539L250.201,49.539L250.256,49.194L251.014,49.194L251.014,48.377L251.418,48.273L251.418,49.197L252.891,49.197L252.811,49.537Z" style="fill:white;fill-rule:nonzero;"/>
            <path d="M254.798,55.042L254.37,55.042L255.141,53.123L254.819,53.123L253.348,49.193L253.789,49.193L255.099,52.765L255.282,52.765L256.669,49.193L257.109,49.193L254.798,55.042Z" style="fill:white;fill-rule:nonzero;"/>
            <path d="M262.457,50.146L261.892,50.412L261.892,50.439L262.488,50.65C262.725,50.845 262.915,51.295 262.915,51.75C262.915,52.759 262.341,53.193 260.919,53.193C260.331,53.193 259.814,53.116 259.505,53.046L259.505,52.69C259.827,52.746 260.395,52.831 260.919,52.831C262.223,52.831 262.495,52.403 262.495,51.752C262.495,50.819 261.872,50.646 261.081,50.646L260.079,50.646L260.079,50.283L260.988,50.283C261.676,50.283 262.396,50.107 262.396,49.197C262.396,48.525 262.144,48.176 261.081,48.176C260.519,48.176 259.98,48.287 259.616,48.364L259.616,48.01C259.995,47.912 260.577,47.801 261.15,47.801C262.411,47.801 262.809,48.241 262.809,49.139C262.808,49.628 262.591,50.021 262.457,50.146Z" style="fill:white;fill-rule:nonzero;"/>
        </g>
        <g>
            <path d="M140.058,13.438L139.4,11.645L136.837,11.645L136.129,13.438L135.702,13.438L137.803,8.185L138.553,8.185L140.514,13.438L140.058,13.438ZM138.272,8.57L138.048,8.57L136.969,11.28L139.273,11.28L138.272,8.57Z" style="fill:white;fill-rule:nonzero;"/>
            <path d="M144.397,13.438L144.293,13.018L144.25,13.018C144.236,13.046 144.068,13.263 144.056,13.27C143.859,13.368 143.398,13.487 142.907,13.487C142.341,13.487 142.046,13.368 141.829,13.144C141.626,12.927 141.507,12.598 141.507,12.058L141.507,9.509L141.913,9.509L141.913,11.905C141.913,12.437 142.011,12.71 142.172,12.879C142.34,13.054 142.633,13.124 143.062,13.124C143.517,13.124 143.973,13.005 144.288,12.865L144.288,9.509L144.694,9.509L144.694,13.438L144.397,13.438Z" style="fill:white;fill-rule:nonzero;"/>
            <path d="M147.259,11.638L146.124,13.438L145.661,13.438L146.943,11.456L145.745,9.509L146.208,9.509L147.266,11.267L147.587,11.267L148.736,9.509L149.191,9.509L147.903,11.456L149.149,13.438L148.68,13.438L147.573,11.638L147.259,11.638L147.259,11.638Z" style="fill:white;fill-rule:nonzero;"/>
            <path d="M150.458,13.417C150.423,13.459 150.331,13.473 150.247,13.473C150.143,13.473 150.071,13.452 150.03,13.41C149.987,13.368 149.973,13.298 149.973,13.193C149.973,13.088 150.016,13.004 150.057,12.969C150.1,12.948 150.162,12.927 150.26,12.927C150.344,12.927 150.428,12.941 150.463,12.976C150.512,13.011 150.533,13.095 150.533,13.193C150.535,13.284 150.514,13.368 150.458,13.417Z" style="fill:white;fill-rule:nonzero;"/>
            <path d="M156.97,13.438L153.95,8.577L153.823,8.577L153.823,13.438L153.438,13.438L153.438,8.185L154.167,8.185L157.157,13.004L157.292,13.004L157.292,8.185L157.677,8.185L157.677,13.438L156.97,13.438Z" style="fill:white;fill-rule:nonzero;"/>
            <path d="M162.156,13.053C161.883,13.333 161.484,13.522 160.791,13.522C160.14,13.522 159.727,13.34 159.467,13.046C159.242,12.787 159.039,12.324 159.039,11.568C159.039,10.805 159.242,10.189 159.601,9.852C159.881,9.586 160.316,9.404 160.939,9.404C161.536,9.404 161.947,9.572 162.193,9.817C162.48,10.118 162.655,10.573 162.655,11.386C162.653,12.156 162.457,12.738 162.156,13.053ZM161.82,12.843C162.064,12.591 162.24,12.156 162.24,11.456C162.24,10.65 162.086,10.314 161.877,10.097C161.681,9.894 161.379,9.768 160.89,9.768C160.407,9.768 160.084,9.922 159.902,10.09C159.665,10.307 159.447,10.804 159.447,11.519C159.447,12.107 159.581,12.556 159.777,12.78C159.965,12.997 160.267,13.172 160.835,13.172C161.267,13.172 161.617,13.046 161.82,12.843Z" style="fill:white;fill-rule:nonzero;"/>
            <path d="M166.664,7.73L167.078,7.73L167.078,13.438L166.763,13.438L166.664,13.067L166.643,13.067C166.574,13.144 166.441,13.298 166.399,13.326C166.28,13.403 165.921,13.522 165.382,13.522C164.829,13.522 164.473,13.41 164.227,13.207C163.955,12.976 163.73,12.485 163.73,11.589C163.73,10.797 163.925,10.174 164.27,9.852C164.548,9.579 164.949,9.439 165.544,9.439C166.014,9.439 166.335,9.502 166.663,9.586L166.663,7.73L166.664,7.73ZM164.548,12.913C164.732,13.074 165.081,13.165 165.493,13.165C165.887,13.165 166.313,13.095 166.663,12.927L166.663,9.894C166.397,9.859 166.034,9.789 165.6,9.789C165.11,9.789 164.787,9.887 164.563,10.097C164.326,10.321 164.151,10.805 164.151,11.561C164.15,12.332 164.332,12.724 164.548,12.913Z" style="fill:white;fill-rule:nonzero;"/>
            <path d="M170.149,9.432C171.269,9.432 171.64,9.999 171.64,11.008L171.64,11.491L168.776,11.491C168.776,12.563 169.086,13.144 170.184,13.144C170.751,13.144 171.212,13.053 171.486,13.011L171.459,13.347C171.18,13.417 170.676,13.515 170.136,13.515C168.826,13.515 168.358,12.843 168.358,11.505C168.356,10.132 168.916,9.432 170.149,9.432ZM168.791,11.176L171.242,11.176L171.242,11.036C171.242,10.167 170.955,9.768 170.107,9.768C169.203,9.768 168.847,10.244 168.791,11.176Z" style="fill:white;fill-rule:nonzero;"/>
        </g>
        <g>
            <path d="M207.625,13.438L206.967,11.645L204.404,11.645L203.696,13.438L203.269,13.438L205.371,8.185L206.121,8.185L208.082,13.438L207.625,13.438ZM205.839,8.57L205.614,8.57L204.536,11.28L206.841,11.28L205.839,8.57Z" style="fill:white;fill-rule:nonzero;"/>
            <path d="M211.964,13.438L211.86,13.018L211.817,13.018C211.803,13.046 211.634,13.263 211.623,13.27C211.426,13.368 210.965,13.487 210.475,13.487C209.909,13.487 209.614,13.368 209.397,13.144C209.194,12.927 209.075,12.598 209.075,12.058L209.075,9.509L209.481,9.509L209.481,11.905C209.481,12.437 209.579,12.71 209.739,12.879C209.909,13.054 210.202,13.124 210.63,13.124C211.085,13.124 211.54,13.005 211.856,12.865L211.856,9.509L212.262,9.509L212.262,13.438L211.964,13.438Z" style="fill:white;fill-rule:nonzero;"/>
            <path d="M214.826,11.638L213.691,13.438L213.229,13.438L214.511,11.456L213.313,9.509L213.775,9.509L214.834,11.267L215.155,11.267L216.304,9.509L216.759,9.509L215.47,11.456L216.716,13.438L216.247,13.438L215.141,11.638L214.826,11.638L214.826,11.638Z" style="fill:white;fill-rule:nonzero;"/>
            <path d="M218.025,13.417C217.99,13.459 217.898,13.473 217.814,13.473C217.71,13.473 217.639,13.452 217.597,13.41C217.555,13.368 217.54,13.298 217.54,13.193C217.54,13.088 217.583,13.004 217.624,12.969C217.667,12.948 217.728,12.927 217.827,12.927C217.911,12.927 217.995,12.941 218.03,12.976C218.079,13.011 218.099,13.095 218.099,13.193C218.102,13.284 218.082,13.368 218.025,13.417Z" style="fill:white;fill-rule:nonzero;"/>
            <path d="M224.537,13.438L221.517,8.577L221.391,8.577L221.391,13.438L221.005,13.438L221.005,8.185L221.734,8.185L224.725,13.004L224.859,13.004L224.859,8.185L225.244,8.185L225.244,13.438L224.537,13.438Z" style="fill:white;fill-rule:nonzero;"/>
            <path d="M229.723,13.053C229.451,13.333 229.05,13.522 228.358,13.522C227.707,13.522 227.295,13.34 227.035,13.046C226.81,12.787 226.607,12.324 226.607,11.568C226.607,10.805 226.81,10.189 227.168,9.852C227.448,9.586 227.883,9.404 228.506,9.404C229.102,9.404 229.515,9.572 229.76,9.817C230.047,10.118 230.223,10.573 230.223,11.386C230.221,12.156 230.024,12.738 229.723,13.053ZM229.387,12.843C229.632,12.591 229.807,12.156 229.807,11.456C229.807,10.65 229.653,10.314 229.444,10.097C229.248,9.894 228.946,9.768 228.457,9.768C227.975,9.768 227.651,9.922 227.469,10.09C227.232,10.307 227.015,10.804 227.015,11.519C227.015,12.107 227.148,12.556 227.344,12.78C227.532,12.997 227.834,13.172 228.402,13.172C228.833,13.172 229.184,13.046 229.387,12.843Z" style="fill:white;fill-rule:nonzero;"/>
            <path d="M234.23,7.73L234.644,7.73L234.644,13.438L234.33,13.438L234.23,13.067L234.209,13.067C234.141,13.144 234.008,13.298 233.965,13.326C233.846,13.403 233.487,13.522 232.948,13.522C232.395,13.522 232.039,13.41 231.793,13.207C231.521,12.976 231.297,12.485 231.297,11.589C231.297,10.797 231.492,10.174 231.836,9.852C232.115,9.579 232.516,9.439 233.11,9.439C233.58,9.439 233.901,9.502 234.229,9.586L234.23,7.73ZM232.117,12.913C232.299,13.074 232.648,13.165 233.061,13.165C233.453,13.165 233.88,13.095 234.23,12.927L234.23,9.894C233.964,9.859 233.601,9.789 233.166,9.789C232.676,9.789 232.353,9.887 232.131,10.097C231.894,10.321 231.717,10.805 231.717,11.561C231.716,12.332 231.898,12.724 232.117,12.913Z" style="fill:white;fill-rule:nonzero;"/>
            <path d="M237.716,9.432C238.837,9.432 239.208,9.999 239.208,11.008L239.208,11.491L236.344,11.491C236.344,12.563 236.653,13.144 237.751,13.144C238.317,13.144 238.78,13.053 239.054,13.011L239.026,13.347C238.748,13.417 238.244,13.515 237.703,13.515C236.393,13.515 235.926,12.843 235.926,11.505C235.923,10.132 236.483,9.432 237.716,9.432ZM236.357,11.176L238.808,11.176L238.808,11.036C238.808,10.167 238.521,9.768 237.673,9.768C236.771,9.768 236.414,10.244 236.357,11.176Z" style="fill:white;fill-rule:nonzero;"/>
        </g>
        <g>
            <path d="M72.489,13.438L71.831,11.645L69.268,11.645L68.56,13.438L68.133,13.438L70.234,8.185L70.984,8.185L72.945,13.438L72.489,13.438ZM70.703,8.57L70.479,8.57L69.4,11.28L71.704,11.28L70.703,8.57Z" style="fill:white;fill-rule:nonzero;"/>
            <path d="M76.828,13.438L76.723,13.018L76.681,13.018C76.667,13.046 76.499,13.263 76.485,13.27C76.289,13.368 75.827,13.487 75.336,13.487C74.769,13.487 74.475,13.368 74.258,13.144C74.055,12.927 73.936,12.598 73.936,12.058L73.936,9.509L74.342,9.509L74.342,11.905C74.342,12.437 74.44,12.71 74.601,12.879C74.769,13.054 75.063,13.124 75.491,13.124C75.946,13.124 76.402,13.005 76.717,12.865L76.717,9.509L77.123,9.509L77.123,13.438L76.828,13.438Z" style="fill:white;fill-rule:nonzero;"/>
            <path d="M79.69,11.638L78.555,13.438L78.093,13.438L79.375,11.456L78.177,9.509L78.639,9.509L79.696,11.267L80.018,11.267L81.167,9.509L81.622,9.509L80.333,11.456L81.58,13.438L81.111,13.438L80.005,11.638L79.69,11.638L79.69,11.638Z" style="fill:white;fill-rule:nonzero;"/>
            <path d="M82.889,13.417C82.854,13.459 82.763,13.473 82.679,13.473C82.574,13.473 82.504,13.452 82.462,13.41C82.42,13.368 82.406,13.298 82.406,13.193C82.406,13.088 82.448,13.004 82.49,12.969C82.532,12.948 82.595,12.927 82.693,12.927C82.777,12.927 82.861,12.941 82.896,12.976C82.945,13.011 82.966,13.095 82.966,13.193C82.966,13.284 82.945,13.368 82.889,13.417Z" style="fill:white;fill-rule:nonzero;"/>
            <path d="M89.4,13.438L86.381,8.577L86.255,8.577L86.255,13.438L85.87,13.438L85.87,8.185L86.598,8.185L89.589,13.004L89.722,13.004L89.722,8.185L90.107,8.185L90.107,13.438L89.4,13.438Z" style="fill:white;fill-rule:nonzero;"/>
            <path d="M94.587,13.053C94.314,13.333 93.915,13.522 93.221,13.522C92.57,13.522 92.156,13.34 91.897,13.046C91.673,12.787 91.47,12.324 91.47,11.568C91.47,10.805 91.673,10.189 92.03,9.852C92.31,9.586 92.744,9.404 93.368,9.404C93.963,9.404 94.376,9.572 94.622,9.817C94.909,10.118 95.084,10.573 95.084,11.386C95.084,12.156 94.888,12.738 94.587,13.053ZM94.25,12.843C94.495,12.591 94.67,12.156 94.67,11.456C94.67,10.65 94.516,10.314 94.306,10.097C94.11,9.894 93.809,9.768 93.319,9.768C92.836,9.768 92.513,9.922 92.331,10.09C92.093,10.307 91.876,10.804 91.876,11.519C91.876,12.107 92.009,12.556 92.205,12.78C92.394,12.997 92.695,13.172 93.263,13.172C93.697,13.172 94.047,13.046 94.25,12.843Z" style="fill:white;fill-rule:nonzero;"/>
            <path d="M99.095,7.73L99.509,7.73L99.509,13.438L99.194,13.438L99.096,13.067L99.075,13.067C99.005,13.144 98.872,13.298 98.83,13.326C98.711,13.403 98.354,13.522 97.815,13.522C97.261,13.522 96.904,13.41 96.659,13.207C96.386,12.976 96.161,12.485 96.161,11.589C96.161,10.797 96.357,10.174 96.701,9.852C96.981,9.579 97.38,9.439 97.976,9.439C98.445,9.439 98.767,9.502 99.096,9.586L99.095,7.73ZM96.98,12.913C97.162,13.074 97.512,13.165 97.925,13.165C98.317,13.165 98.744,13.095 99.094,12.927L99.094,9.894C98.828,9.859 98.464,9.789 98.03,9.789C97.54,9.789 97.217,9.887 96.993,10.097C96.755,10.321 96.58,10.805 96.58,11.561C96.581,12.332 96.763,12.724 96.98,12.913Z" style="fill:white;fill-rule:nonzero;"/>
            <path d="M102.58,9.432C103.701,9.432 104.072,9.999 104.072,11.008L104.072,11.491L101.207,11.491C101.207,12.563 101.516,13.144 102.615,13.144C103.182,13.144 103.644,13.053 103.917,13.011L103.889,13.347C103.609,13.417 103.105,13.515 102.565,13.515C101.255,13.515 100.786,12.843 100.786,11.505C100.787,10.132 101.347,9.432 102.58,9.432ZM101.221,11.176L103.672,11.176L103.672,11.036C103.672,10.167 103.385,9.768 102.538,9.768C101.634,9.768 101.277,10.244 101.221,11.176Z" style="fill:white;fill-rule:nonzero;"/>
        </g>
        <g>
            <path d="M38.741,49.72L36.197,49.72L31.565,33.11L31.157,33.11L25.852,49.72L23.332,49.72L19.083,31.719L20.547,31.719L24.459,48.329L24.963,48.329L30.267,31.719L32.571,31.719L37.227,48.329L37.779,48.329L42.147,31.719L43.635,31.719L38.741,49.72Z" style="fill:white;fill-rule:nonzero;"/>
            <rect x="47.62" y="31.718" width="1.416" height="18.002" style="fill:white;fill-rule:nonzero;"/>
            <path d="M66.485,32.99L60.124,32.99L60.124,49.72L58.732,49.72L58.732,32.99L52.228,32.99L52.564,31.718L66.773,31.718L66.485,32.99Z" style="fill:white;fill-rule:nonzero;"/>
        </g>
        <g transform="matrix(1,0,0,1,-108.586,-3.76265)">
            <path d="M220.088,74.54C221.614,74.54 222.412,74.386 223.042,73.938C223.686,73.476 224.134,72.454 224.134,71.222C224.134,69.962 223.798,69.178 223.266,68.772C222.874,68.464 222.202,68.324 221.292,68.324L217.288,68.324L217.288,78.824L218.1,78.824L218.1,74.54L220.088,74.54ZM223.294,71.25C223.294,72.384 222.916,73.098 222.44,73.434C222.062,73.714 221.32,73.798 220.074,73.798L218.1,73.798L218.1,69.038L220.97,69.038C221.74,69.038 222.314,69.122 222.664,69.388C223.042,69.668 223.294,70.27 223.294,71.25Z" style="fill:white;fill-rule:nonzero;"/>
            <path d="M226.388,70.97L226.388,78.824L227.2,78.824L227.2,72.216C227.676,71.908 228.572,71.586 229.524,71.6C230,71.6 230.406,71.656 230.644,71.698L230.644,70.914C230.434,70.886 230.14,70.858 229.748,70.858C228.768,70.858 228.054,71.124 227.676,71.348C227.648,71.376 227.312,71.782 227.27,71.838L227.186,71.838L226.99,70.97L226.388,70.97Z" style="fill:white;fill-rule:nonzero;"/>
            <path d="M233.234,78.824L233.234,70.97L232.422,70.97L232.422,78.824L233.234,78.824ZM233.36,68.296C233.36,68.114 233.332,67.974 233.234,67.89C233.164,67.82 233.038,67.792 232.87,67.792C232.688,67.792 232.548,67.834 232.506,67.89C232.394,67.946 232.338,68.1 232.338,68.31C232.338,68.492 232.38,68.632 232.45,68.702C232.52,68.786 232.646,68.814 232.842,68.814C232.996,68.814 233.15,68.786 233.234,68.716C233.332,68.646 233.36,68.478 233.36,68.296Z" style="fill:white;fill-rule:nonzero;"/>
            <path d="M243.02,74.722C243.02,73.098 242.67,72.188 242.096,71.586C241.606,71.096 240.78,70.76 239.59,70.76C238.344,70.76 237.476,71.124 236.916,71.656C236.202,72.328 235.796,73.56 235.796,75.086C235.796,76.598 236.202,77.522 236.65,78.04C237.168,78.628 237.994,78.992 239.296,78.992C240.682,78.992 241.48,78.614 242.026,78.054C242.628,77.424 243.02,76.262 243.02,74.722ZM239.38,78.292C238.246,78.292 237.644,77.942 237.266,77.508C236.874,77.06 236.608,76.164 236.608,74.988C236.608,73.56 237.042,72.566 237.518,72.132C237.882,71.796 238.526,71.488 239.492,71.488C240.472,71.488 241.074,71.74 241.466,72.146C241.886,72.58 242.194,73.252 242.194,74.862C242.194,76.262 241.844,77.13 241.354,77.634C240.948,78.04 240.248,78.292 239.38,78.292Z" style="fill:white;fill-rule:nonzero;"/>
            <path d="M245.582,70.97L245.582,78.824L246.394,78.824L246.394,72.216C246.87,71.908 247.766,71.586 248.718,71.6C249.194,71.6 249.6,71.656 249.838,71.698L249.838,70.914C249.628,70.886 249.334,70.858 248.942,70.858C247.962,70.858 247.248,71.124 246.87,71.348C246.842,71.376 246.506,71.782 246.464,71.838L246.38,71.838L246.184,70.97L245.582,70.97Z" style="fill:white;fill-rule:nonzero;"/>
            <path d="M252.428,78.824L252.428,70.97L251.616,70.97L251.616,78.824L252.428,78.824ZM252.554,68.296C252.554,68.114 252.526,67.974 252.428,67.89C252.358,67.82 252.232,67.792 252.064,67.792C251.882,67.792 251.742,67.834 251.7,67.89C251.588,67.946 251.532,68.1 251.532,68.31C251.532,68.492 251.574,68.632 251.644,68.702C251.714,68.786 251.84,68.814 252.036,68.814C252.19,68.814 252.344,68.786 252.428,68.716C252.526,68.646 252.554,68.478 252.554,68.296Z" style="fill:white;fill-rule:nonzero;"/>
            <path d="M259.708,70.97L256.768,70.97L256.768,69.122L255.956,69.332L255.956,70.97L254.444,70.97L254.332,71.656L255.956,71.656L255.956,77.046C255.956,78.404 256.53,78.908 257.93,78.908C258.532,78.908 259.19,78.81 259.61,78.726L259.68,78.04C259.372,78.082 258.784,78.18 258.14,78.18C257.258,78.18 256.768,77.956 256.768,76.892L256.768,71.656L259.554,71.656L259.708,70.97Z" style="fill:white;fill-rule:nonzero;"/>
            <path d="M268.15,70.97L267.268,70.97L264.496,78.11L264.132,78.11L261.514,70.97L260.632,70.97L263.572,78.824L264.216,78.824L262.676,82.66L263.53,82.66L268.15,70.97Z" style="fill:white;fill-rule:nonzero;"/>
        </g>
    </g>
</svg>
