<?xml version="1.0" standalone="no"?>
<!DOCTYPE svg PUBLIC "-//W3C//DTD SVG 1.1//EN" "http://www.w3.org/Graphics/SVG/1.1/DTD/svg11.dtd">
<svg width="100%" height="100%" viewBox="0 0 284 86" version="1.1" xmlns="http://www.w3.org/2000/svg" xmlns:xlink="http://www.w3.org/1999/xlink" xml:space="preserve" style="fill-rule:evenodd;clip-rule:evenodd;stroke-linejoin:round;stroke-miterlimit:1.41421;">
    <g id="primary">
        <path d="M2.837,42.52L42.521,82.204L82.205,42.521L42.52,2.836L2.837,42.52L2.837,42.52Z" style="fill:rgb(30,144,98);"/>
        <path d="M2.837,42.52L42.521,82.204L82.205,42.521L42.52,2.836L2.837,42.52L2.837,42.52Z" style="fill:rgb(30,144,98);"/>
        <path d="M86.962,53.858L81.341,59.479L134.782,59.478L112.057,82.202L49.577,82.204L77.946,53.858L72.849,53.858L78.518,48.189L74.6,48.189L74.6,36.85L78.516,36.85L72.847,31.181L77.946,31.181L49.577,2.835L112.057,2.837L134.782,25.561L81.341,25.56L86.962,31.181L140.4,31.181L146.069,36.85L148.05,36.85L142.381,31.181L142.384,31.181L114.015,2.835L176.495,2.837L199.22,25.561L145.779,25.56L151.4,31.181L204.845,31.181L210.514,36.85L212.496,36.85L206.827,31.181L206.829,31.181L178.46,2.835L240.94,2.837L263.666,25.561L210.224,25.56L215.845,31.181L269.29,31.181L280.63,42.521L269.293,53.858L215.845,53.858L210.224,59.479L263.666,59.478L240.94,82.202L178.46,82.204L206.829,53.858L212.498,48.189L210.516,48.189L204.847,53.858L151.4,53.858L145.779,59.479L199.22,59.478L176.495,82.202L114.015,82.204L142.384,53.858L148.053,48.189L146.071,48.189L140.402,53.858L86.962,53.858L86.962,53.858Z" style="fill:rgb(30,144,98);"/>
        <g>
            <g>
                <path d="M91.295,47.794L91.295,47.08L94.391,47.08L94.391,37.863L91.295,38.423L91.295,37.709L95.189,37.022L95.189,47.08L97.991,47.08L97.991,47.794L91.295,47.794L91.295,47.794Z" style="fill:white;fill-rule:nonzero;"/>
                <path d="M113.936,47.794L106.722,47.794L106.722,46.954C106.848,45.413 107.688,44.418 110.154,43.214C111.723,42.43 112.409,42.024 112.774,41.547C113.082,41.113 113.166,40.553 113.166,40.006C113.166,38.563 112.634,37.905 110.351,37.905C109.104,37.905 107.76,38.213 107.143,38.353L107.143,37.624C107.969,37.4 109.258,37.147 110.518,37.147C113.193,37.147 114.034,38.016 114.034,39.907C114.034,40.86 113.824,41.518 113.502,41.924C112.956,42.638 111.877,43.185 110.504,43.857C107.941,45.104 107.535,45.986 107.506,47.037L114.146,47.037L113.936,47.794L113.936,47.794Z" style="fill:white;fill-rule:nonzero;"/>
                <path d="M128.734,41.841L127.599,42.373L127.599,42.429L128.789,42.849C129.266,43.242 129.643,44.138 129.643,45.048C129.643,47.065 128.495,47.934 125.651,47.934C124.475,47.934 123.438,47.78 122.821,47.64L122.821,46.926C123.466,47.038 124.6,47.206 125.651,47.206C128.256,47.206 128.803,46.352 128.803,45.049C128.803,43.186 127.556,42.836 125.973,42.836L123.97,42.836L123.97,42.107L125.791,42.107C127.164,42.107 128.606,41.757 128.606,39.936C128.606,38.591 128.102,37.891 125.973,37.891C124.852,37.891 123.774,38.115 123.045,38.269L123.045,37.568C123.802,37.372 124.964,37.148 126.113,37.148C128.634,37.148 129.433,38.031 129.433,39.824C129.434,40.804 129,41.588 128.734,41.841L128.734,41.841Z" style="fill:white;fill-rule:nonzero;"/>
            </g>
            <g>
                <path d="M166.718,47.794L165.947,47.794L165.947,44.811L160.553,44.811L160.553,43.998L165.191,37.288L166.717,37.288L166.717,44.11L169.071,44.11L168.86,44.811L166.716,44.811L166.718,47.794ZM165.948,44.11L165.948,37.975L165.569,37.975L161.465,43.928L161.465,44.11L165.948,44.11Z" style="fill:white;fill-rule:nonzero;"/>
                <path d="M179.903,47.934C178.938,47.934 177.916,47.794 177.186,47.682L177.186,46.939C177.858,47.037 178.895,47.177 179.946,47.177C182.37,47.177 183.211,46.49 183.211,44.754C183.211,42.905 182.623,42.429 180.465,42.429C179.471,42.429 178.126,42.639 177.51,42.723L177.51,37.288L183.73,37.288L183.73,38.002L178.24,38.002L178.24,41.952C178.828,41.854 179.639,41.7 180.719,41.7C183.157,41.7 184.053,42.345 184.053,44.641C184.05,46.855 183.028,47.934 179.903,47.934L179.903,47.934Z" style="fill:white;fill-rule:nonzero;"/>
                <path d="M193.666,42.667L193.735,42.667L194.182,42.205C194.786,41.981 195.877,41.673 197.153,41.673C199.632,41.673 200.459,42.709 200.459,44.656C200.459,46.687 199.407,47.934 196.705,47.934C193.764,47.934 192.852,46.071 192.852,42.975C192.852,41.028 193.399,39.627 194.225,38.745C195.192,37.736 196.733,37.106 199.436,37.078L199.715,37.821C197.082,37.835 195.652,38.381 194.813,39.278C194.155,39.977 193.721,41.168 193.666,42.667L193.666,42.667ZM196.886,42.401C195.64,42.401 194.491,42.709 193.665,43.031C193.692,45.931 194.603,47.205 196.745,47.205C198.749,47.205 199.645,46.421 199.645,44.726C199.646,43.102 198.987,42.401 196.886,42.401L196.886,42.401Z" style="fill:white;fill-rule:nonzero;"/>
            </g>
            <g>
                <path d="M229.528,38.227L229.528,38.031L223.213,38.031L223.437,37.288L230.426,37.288L230.426,38.213L225.411,47.794L224.501,47.794L229.528,38.227Z" style="fill:white;fill-rule:nonzero;"/>
                <path d="M240.167,42.919L241.118,42.4L241.118,42.33L240.278,41.896C239.914,41.532 239.563,41.013 239.563,40.047C239.563,38.352 240.627,37.133 243.092,37.133C245.544,37.133 246.454,38.225 246.454,39.794C246.454,40.789 246.033,41.391 245.641,41.811L244.774,42.33L244.774,42.4L245.837,42.793C246.399,43.241 246.72,43.956 246.72,44.908C246.72,46.645 245.641,47.934 242.882,47.934C240.278,47.934 239.197,46.897 239.197,45.119C239.2,44.222 239.564,43.479 240.167,42.919L240.167,42.919ZM240.027,45.02C240.027,46.421 240.84,47.219 242.968,47.219C245.139,47.219 245.896,46.197 245.896,44.992C245.896,43.073 244.677,42.919 241.553,42.582C240.782,43.087 240.027,43.774 240.027,45.02L240.027,45.02ZM240.39,39.977C240.39,41.7 241.484,41.938 244.228,42.19C245.111,41.644 245.615,40.929 245.615,39.893C245.615,38.548 244.859,37.848 243.011,37.848C241.077,37.849 240.39,38.801 240.39,39.977L240.39,39.977Z" style="fill:white;fill-rule:nonzero;"/>
                <path d="M261.883,42.429L261.814,42.429L261.378,42.891C260.804,43.129 259.726,43.41 258.521,43.41C256.014,43.41 255.131,42.401 255.131,40.468C255.131,38.255 256.519,37.148 258.87,37.148C261.616,37.148 262.694,38.675 262.694,42.009C262.694,44.012 262.149,45.483 261.321,46.351C260.397,47.36 258.815,47.962 256.096,48.018L255.829,47.247C258.421,47.233 259.933,46.715 260.746,45.832C261.379,45.119 261.841,43.942 261.883,42.429L261.883,42.429ZM258.704,42.681C259.965,42.681 261.1,42.387 261.884,42.093C261.857,39.123 261.002,37.877 258.818,37.877C256.857,37.877 255.945,38.815 255.945,40.413C255.945,41.981 256.644,42.681 258.704,42.681L258.704,42.681Z" style="fill:white;fill-rule:nonzero;"/>
            </g>
        </g>
        <g transform="matrix(1,0,0,1,-97.0338,8.33415)">
            <path d="M177.263,62.576C178.08,62.576 178.508,62.493 178.845,62.253C179.19,62.006 179.43,61.458 179.43,60.798C179.43,60.123 179.25,59.703 178.965,59.486C178.755,59.321 178.395,59.246 177.908,59.246L175.763,59.246L175.763,64.871L176.198,64.871L176.198,62.576L177.263,62.576ZM178.98,60.813C178.98,61.421 178.778,61.803 178.523,61.983C178.32,62.133 177.923,62.178 177.255,62.178L176.198,62.178L176.198,59.628L177.735,59.628C178.148,59.628 178.455,59.673 178.643,59.816C178.845,59.966 178.98,60.288 178.98,60.813Z" style="fill:white;fill-rule:nonzero;"/>
            <path d="M180.638,60.663L180.638,64.871L181.073,64.871L181.073,61.331C181.328,61.166 181.808,60.993 182.318,61.001C182.573,61.001 182.79,61.031 182.918,61.053L182.918,60.633C182.805,60.618 182.648,60.603 182.438,60.603C181.913,60.603 181.53,60.746 181.328,60.866C181.313,60.881 181.133,61.098 181.11,61.128L181.065,61.128L180.96,60.663L180.638,60.663Z" style="fill:white;fill-rule:nonzero;"/>
            <path d="M184.305,64.871L184.305,60.663L183.87,60.663L183.87,64.871L184.305,64.871ZM184.373,59.231C184.373,59.133 184.358,59.058 184.305,59.013C184.268,58.976 184.2,58.961 184.11,58.961C184.013,58.961 183.938,58.983 183.915,59.013C183.855,59.043 183.825,59.126 183.825,59.238C183.825,59.336 183.848,59.411 183.885,59.448C183.923,59.493 183.99,59.508 184.095,59.508C184.178,59.508 184.26,59.493 184.305,59.456C184.358,59.418 184.373,59.328 184.373,59.231Z" style="fill:white;fill-rule:nonzero;"/>
            <path d="M189.548,62.673C189.548,61.803 189.36,61.316 189.053,60.993C188.79,60.731 188.348,60.551 187.71,60.551C187.043,60.551 186.578,60.746 186.278,61.031C185.895,61.391 185.678,62.051 185.678,62.868C185.678,63.678 185.895,64.173 186.135,64.451C186.413,64.766 186.855,64.961 187.553,64.961C188.295,64.961 188.723,64.758 189.015,64.458C189.338,64.121 189.548,63.498 189.548,62.673ZM187.598,64.586C186.99,64.586 186.668,64.398 186.465,64.166C186.255,63.926 186.113,63.446 186.113,62.816C186.113,62.051 186.345,61.518 186.6,61.286C186.795,61.106 187.14,60.941 187.658,60.941C188.183,60.941 188.505,61.076 188.715,61.293C188.94,61.526 189.105,61.886 189.105,62.748C189.105,63.498 188.918,63.963 188.655,64.233C188.438,64.451 188.063,64.586 187.598,64.586Z" style="fill:white;fill-rule:nonzero;"/>
            <path d="M190.92,60.663L190.92,64.871L191.355,64.871L191.355,61.331C191.61,61.166 192.09,60.993 192.6,61.001C192.855,61.001 193.073,61.031 193.2,61.053L193.2,60.633C193.088,60.618 192.93,60.603 192.72,60.603C192.195,60.603 191.813,60.746 191.61,60.866C191.595,60.881 191.415,61.098 191.393,61.128L191.348,61.128L191.243,60.663L190.92,60.663Z" style="fill:white;fill-rule:nonzero;"/>
            <path d="M194.588,64.871L194.588,60.663L194.153,60.663L194.153,64.871L194.588,64.871ZM194.655,59.231C194.655,59.133 194.64,59.058 194.588,59.013C194.55,58.976 194.483,58.961 194.393,58.961C194.295,58.961 194.22,58.983 194.198,59.013C194.138,59.043 194.108,59.126 194.108,59.238C194.108,59.336 194.13,59.411 194.168,59.448C194.205,59.493 194.273,59.508 194.378,59.508C194.46,59.508 194.543,59.493 194.588,59.456C194.64,59.418 194.655,59.328 194.655,59.231Z" style="fill:white;fill-rule:nonzero;"/>
            <path d="M198.488,60.663L196.913,60.663L196.913,59.673L196.478,59.786L196.478,60.663L195.668,60.663L195.608,61.031L196.478,61.031L196.478,63.918C196.478,64.646 196.785,64.916 197.535,64.916C197.858,64.916 198.21,64.863 198.435,64.818L198.473,64.451C198.308,64.473 197.993,64.526 197.648,64.526C197.175,64.526 196.913,64.406 196.913,63.836L196.913,61.031L198.405,61.031L198.488,60.663Z" style="fill:white;fill-rule:nonzero;"/>
            <path d="M203.01,60.663L202.538,60.663L201.053,64.488L200.858,64.488L199.455,60.663L198.983,60.663L200.558,64.871L200.903,64.871L200.078,66.926L200.535,66.926L203.01,60.663Z" style="fill:white;fill-rule:nonzero;"/>
        </g>
        <g id="v1">
            <path d="M144.948,66.827C145.765,66.827 146.193,66.745 146.53,66.505C146.875,66.257 147.115,65.71 147.115,65.05C147.115,64.375 146.935,63.955 146.65,63.737C146.44,63.572 146.08,63.497 145.593,63.497L143.448,63.497L143.448,69.122L143.883,69.122L143.883,66.827L144.948,66.827ZM146.665,65.065C146.665,65.672 146.463,66.055 146.208,66.235C146.005,66.385 145.608,66.43 144.94,66.43L143.883,66.43L143.883,63.88L145.42,63.88C145.833,63.88 146.14,63.925 146.328,64.067C146.53,64.217 146.665,64.54 146.665,65.065Z" style="fill:white;fill-rule:nonzero;"/>
            <path d="M151.248,69.122L151.248,66.512C151.248,65.687 151.128,65.372 150.94,65.17C150.738,64.937 150.37,64.84 149.793,64.84C149.193,64.84 148.57,64.967 148.255,65.05L148.255,65.402C148.54,65.35 149.193,65.23 149.703,65.23C150.175,65.23 150.453,65.305 150.588,65.462C150.73,65.635 150.82,65.935 150.82,66.662C149.478,66.782 148.623,66.94 148.3,67.18C148.135,67.285 147.97,67.57 147.97,68.042C147.97,68.432 148.06,68.695 148.21,68.86C148.383,69.055 148.698,69.197 149.283,69.197C150.01,69.197 150.46,69.01 150.588,68.92C150.625,68.89 150.73,68.747 150.79,68.665L150.828,68.665L150.933,69.122L151.248,69.122ZM150.82,68.537C150.595,68.65 150.063,68.83 149.425,68.83C148.968,68.83 148.698,68.725 148.57,68.59C148.465,68.47 148.398,68.275 148.398,68.005C148.398,67.69 148.473,67.502 148.585,67.405C148.758,67.217 149.845,67.06 150.82,67L150.82,68.537Z" style="fill:white;fill-rule:nonzero;"/>
            <path d="M155.365,67.967C155.365,67.682 155.298,67.442 155.148,67.27C154.99,67.09 154.668,66.962 154.053,66.82C153.483,66.692 153.22,66.587 153.093,66.437C152.995,66.325 152.965,66.167 152.965,66.01C152.965,65.477 153.22,65.177 154.105,65.177C154.548,65.177 154.9,65.222 155.223,65.275L155.223,64.915C154.968,64.862 154.563,64.802 154.098,64.802C152.98,64.802 152.538,65.26 152.538,66.032C152.538,66.272 152.59,66.52 152.725,66.677C152.935,66.94 153.288,67.052 153.88,67.195C154.39,67.315 154.675,67.412 154.81,67.562C154.9,67.682 154.938,67.84 154.938,67.997C154.938,68.53 154.698,68.8 153.753,68.8C153.295,68.8 152.83,68.732 152.523,68.672L152.523,69.04C152.823,69.115 153.333,69.175 153.753,69.175C155.028,69.175 155.365,68.71 155.365,67.967L155.365,67.967Z" style="fill:white;fill-rule:nonzero;"/>
            <path d="M159.1,67.967C159.1,67.682 159.033,67.442 158.883,67.27C158.725,67.09 158.403,66.962 157.788,66.82C157.218,66.692 156.955,66.587 156.828,66.437C156.73,66.325 156.7,66.167 156.7,66.01C156.7,65.477 156.955,65.177 157.84,65.177C158.283,65.177 158.635,65.222 158.958,65.275L158.958,64.915C158.703,64.862 158.298,64.802 157.833,64.802C156.715,64.802 156.273,65.26 156.273,66.032C156.273,66.272 156.325,66.52 156.46,66.677C156.67,66.94 157.023,67.052 157.615,67.195C158.125,67.315 158.41,67.412 158.545,67.562C158.635,67.682 158.673,67.84 158.673,67.997C158.673,68.53 158.433,68.8 157.488,68.8C157.03,68.8 156.565,68.732 156.258,68.672L156.258,69.04C156.558,69.115 157.068,69.175 157.488,69.175C158.763,69.175 159.1,68.71 159.1,67.967L159.1,67.967Z" style="fill:white;fill-rule:nonzero;"/>
            <path d="M160.81,69.122L160.81,64.915L160.375,64.915L160.375,69.122L160.81,69.122ZM160.878,63.482C160.878,63.385 160.863,63.31 160.81,63.265C160.773,63.227 160.705,63.212 160.615,63.212C160.518,63.212 160.443,63.235 160.42,63.265C160.36,63.295 160.33,63.377 160.33,63.49C160.33,63.587 160.353,63.662 160.39,63.7C160.428,63.745 160.495,63.76 160.6,63.76C160.683,63.76 160.765,63.745 160.81,63.707C160.863,63.67 160.878,63.58 160.878,63.482L160.878,63.482Z" style="fill:white;fill-rule:nonzero;"/>
            <path d="M165.865,64.915L165.393,64.915L163.915,68.717L163.735,68.717L162.31,64.915L161.838,64.915L163.435,69.122L164.185,69.122L165.865,64.915L165.865,64.915Z" style="fill:white;fill-rule:nonzero;"/>
            <path d="M166.623,67.052C166.623,68.485 167.125,69.205 168.528,69.205C169.105,69.205 169.645,69.1 169.945,69.025L169.975,68.665C169.683,68.71 169.188,68.807 168.58,68.807C167.403,68.807 167.073,68.185 167.073,67.037L170.14,67.037L170.14,66.52C170.14,65.44 169.743,64.832 168.543,64.832C167.223,64.832 166.623,65.582 166.623,67.052ZM168.498,65.192C169.405,65.192 169.713,65.62 169.713,66.55L169.713,66.7L167.088,66.7C167.148,65.702 167.53,65.192 168.498,65.192L168.498,65.192Z" style="fill:white;fill-rule:nonzero;"/>
            <path d="M141.824,70.997L141.824,76.622L143.482,76.622C144.599,76.622 145.184,76.427 145.559,76.105C146.002,75.715 146.317,74.875 146.317,73.72C146.317,72.535 146.077,71.815 145.717,71.47C145.379,71.147 144.787,70.997 143.744,70.997L141.824,70.997ZM143.684,71.402C144.382,71.402 145.057,71.462 145.364,71.785C145.717,72.145 145.867,72.857 145.867,73.727C145.867,74.777 145.612,75.512 145.244,75.82C144.937,76.067 144.419,76.217 143.422,76.217L142.267,76.217L142.267,71.402L143.684,71.402Z" style="fill:white;fill-rule:nonzero;"/>
            <path d="M147.569,74.552C147.569,75.985 148.072,76.705 149.474,76.705C150.052,76.705 150.592,76.6 150.892,76.525L150.922,76.165C150.629,76.21 150.134,76.307 149.527,76.307C148.349,76.307 148.019,75.685 148.019,74.537L151.087,74.537L151.087,74.02C151.087,72.94 150.689,72.332 149.489,72.332C148.169,72.332 147.569,73.082 147.569,74.552ZM149.444,72.692C150.352,72.692 150.659,73.12 150.659,74.05L150.659,74.2L148.034,74.2C148.094,73.202 148.477,72.692 149.444,72.692L149.444,72.692Z" style="fill:white;fill-rule:nonzero;"/>
            <path d="M154.567,72.415L153.007,72.415L153.007,72.025C153.007,71.237 153.157,70.892 153.967,70.892C154.297,70.892 154.552,70.93 154.709,70.937L154.709,70.592C154.582,70.577 154.229,70.532 153.922,70.532C153.007,70.532 152.572,70.877 152.572,71.957L152.572,72.415L151.747,72.415L151.694,72.782L152.572,72.782L152.572,76.622L153.007,76.622L153.007,72.782L154.484,72.782L154.567,72.415Z" style="fill:white;fill-rule:nonzero;"/>
            <path d="M154.904,74.552C154.904,75.985 155.407,76.705 156.809,76.705C157.387,76.705 157.927,76.6 158.227,76.525L158.257,76.165C157.964,76.21 157.469,76.307 156.862,76.307C155.684,76.307 155.354,75.685 155.354,74.537L158.422,74.537L158.422,74.02C158.422,72.94 158.024,72.332 156.824,72.332C155.504,72.332 154.904,73.082 154.904,74.552ZM156.779,72.692C157.687,72.692 157.994,73.12 157.994,74.05L157.994,74.2L155.369,74.2C155.429,73.202 155.812,72.692 156.779,72.692L156.779,72.692Z" style="fill:white;fill-rule:nonzero;"/>
            <path d="M163.139,76.622L163.139,73.87C163.139,73.3 163.019,72.917 162.787,72.7C162.562,72.475 162.239,72.355 161.692,72.355C161.159,72.355 160.619,72.505 160.417,72.617C160.394,72.632 160.222,72.827 160.199,72.857L160.162,72.857L160.042,72.415L159.727,72.415L159.727,76.622L160.162,76.622L160.162,73.022C160.492,72.887 160.964,72.745 161.504,72.745C161.894,72.745 162.224,72.82 162.412,73C162.599,73.18 162.704,73.487 162.704,74.02L162.704,76.622L163.139,76.622Z" style="fill:white;fill-rule:nonzero;"/>
            <path d="M167.242,75.467C167.242,75.182 167.174,74.942 167.024,74.77C166.867,74.59 166.544,74.462 165.929,74.32C165.359,74.192 165.097,74.087 164.969,73.937C164.872,73.825 164.842,73.667 164.842,73.51C164.842,72.977 165.097,72.677 165.982,72.677C166.424,72.677 166.777,72.722 167.099,72.775L167.099,72.415C166.844,72.362 166.439,72.302 165.974,72.302C164.857,72.302 164.414,72.76 164.414,73.532C164.414,73.772 164.467,74.02 164.602,74.177C164.812,74.44 165.164,74.552 165.757,74.695C166.267,74.815 166.552,74.912 166.687,75.062C166.777,75.182 166.814,75.34 166.814,75.497C166.814,76.03 166.574,76.3 165.629,76.3C165.172,76.3 164.707,76.232 164.399,76.172L164.399,76.54C164.699,76.615 165.209,76.675 165.629,76.675C166.904,76.675 167.242,76.21 167.242,75.467L167.242,75.467Z" style="fill:white;fill-rule:nonzero;"/>
            <path d="M168.232,74.552C168.232,75.985 168.734,76.705 170.137,76.705C170.714,76.705 171.254,76.6 171.554,76.525L171.584,76.165C171.292,76.21 170.797,76.307 170.189,76.307C169.012,76.307 168.682,75.685 168.682,74.537L171.749,74.537L171.749,74.02C171.749,72.94 171.352,72.332 170.152,72.332C168.832,72.332 168.232,73.082 168.232,74.552ZM170.107,72.692C171.014,72.692 171.322,73.12 171.322,74.05L171.322,74.2L168.697,74.2C168.757,73.202 169.139,72.692 170.107,72.692L170.107,72.692Z" style="fill:white;fill-rule:nonzero;"/>
        </g>
        <g id="v2">
            <path d="M199.364,70.894C200.181,70.894 200.609,70.811 200.946,70.571C201.291,70.324 201.531,69.776 201.531,69.116C201.531,68.441 201.351,68.021 201.066,67.804C200.856,67.639 200.496,67.564 200.009,67.564L197.864,67.564L197.864,73.189L198.299,73.189L198.299,70.894L199.364,70.894ZM201.081,69.131C201.081,69.739 200.879,70.121 200.624,70.301C200.421,70.451 200.024,70.496 199.356,70.496L198.299,70.496L198.299,67.946L199.836,67.946C200.249,67.946 200.556,67.991 200.744,68.134C200.946,68.284 201.081,68.606 201.081,69.131Z" style="fill:white;fill-rule:nonzero;"/>
            <path d="M202.739,68.981L202.739,73.189L203.174,73.189L203.174,69.649C203.429,69.484 203.909,69.311 204.419,69.319C204.674,69.319 204.891,69.349 205.019,69.371L205.019,68.951C204.906,68.936 204.749,68.921 204.539,68.921C204.014,68.921 203.631,69.064 203.429,69.184C203.414,69.199 203.234,69.416 203.211,69.446L203.166,69.446L203.061,68.981L202.739,68.981L202.739,68.981Z" style="fill:white;fill-rule:nonzero;"/>
            <path d="M205.536,71.119C205.536,72.551 206.039,73.271 207.441,73.271C208.019,73.271 208.559,73.166 208.859,73.091L208.889,72.731C208.596,72.776 208.101,72.874 207.494,72.874C206.316,72.874 205.986,72.251 205.986,71.104L209.054,71.104L209.054,70.586C209.054,69.506 208.656,68.899 207.456,68.899C206.136,68.899 205.536,69.649 205.536,71.119ZM207.411,69.259C208.319,69.259 208.626,69.686 208.626,70.616L208.626,70.766L206.001,70.766C206.061,69.769 206.444,69.259 207.411,69.259Z" style="fill:white;fill-rule:nonzero;"/>
            <path d="M212.204,69.266C212.699,69.266 213.089,69.326 213.351,69.364L213.351,68.989C213.074,68.936 212.661,68.869 212.159,68.869C211.529,68.869 211.056,69.019 210.734,69.334C210.336,69.701 210.134,70.346 210.134,71.186C210.134,71.921 210.306,72.506 210.696,72.866C210.989,73.144 211.439,73.279 212.031,73.279C212.624,73.279 213.059,73.174 213.351,73.091L213.351,72.754C213.059,72.799 212.631,72.881 212.099,72.881C211.641,72.881 211.274,72.791 211.026,72.559C210.734,72.289 210.591,71.824 210.591,71.134C210.591,70.414 210.749,69.881 211.056,69.596C211.296,69.364 211.694,69.266 212.204,69.266L212.204,69.266Z" style="fill:white;fill-rule:nonzero;"/>
            <path d="M218.159,70.991C218.159,70.121 217.971,69.634 217.664,69.311C217.401,69.049 216.959,68.869 216.321,68.869C215.654,68.869 215.189,69.064 214.889,69.349C214.506,69.709 214.289,70.369 214.289,71.186C214.289,71.996 214.506,72.491 214.746,72.769C215.024,73.084 215.466,73.279 216.164,73.279C216.906,73.279 217.334,73.076 217.626,72.776C217.949,72.439 218.159,71.816 218.159,70.991L218.159,70.991ZM216.209,72.904C215.601,72.904 215.279,72.716 215.076,72.484C214.866,72.244 214.724,71.764 214.724,71.134C214.724,70.369 214.956,69.836 215.211,69.604C215.406,69.424 215.751,69.259 216.269,69.259C216.794,69.259 217.116,69.394 217.326,69.611C217.551,69.844 217.716,70.204 217.716,71.066C217.716,71.816 217.529,72.281 217.266,72.551C217.049,72.769 216.674,72.904 216.209,72.904L216.209,72.904Z" style="fill:white;fill-rule:nonzero;"/>
            <path d="M222.921,68.981L222.846,68.981L222.644,69.116C222.269,69.026 221.849,68.936 221.316,68.936C220.604,68.936 220.154,69.116 219.891,69.371C219.531,69.731 219.314,70.384 219.314,71.261C219.314,72.124 219.524,72.656 219.869,72.926C220.109,73.121 220.469,73.249 221.061,73.249C221.609,73.249 222.066,73.144 222.194,73.061C222.239,73.039 222.389,72.859 222.456,72.776L222.486,72.776L222.486,73.001C222.486,73.946 222.344,74.336 222.134,74.546C221.939,74.719 221.609,74.846 220.994,74.846C220.371,74.846 219.824,74.756 219.531,74.704L219.531,75.086C219.816,75.139 220.349,75.244 221.016,75.244C221.759,75.244 222.164,75.071 222.419,74.839C222.711,74.561 222.921,74.104 222.921,72.964L222.921,68.981L222.921,68.981ZM219.764,71.186C219.764,70.414 219.936,69.911 220.191,69.649C220.424,69.424 220.784,69.311 221.346,69.311C221.789,69.311 222.179,69.371 222.486,69.409L222.486,72.619C222.111,72.791 221.631,72.866 221.196,72.866C220.776,72.866 220.394,72.776 220.176,72.604C219.921,72.401 219.764,71.966 219.764,71.186L219.764,71.186Z" style="fill:white;fill-rule:nonzero;"/>
            <path d="M227.916,73.189L227.916,70.436C227.916,69.866 227.796,69.484 227.564,69.266C227.339,69.041 227.016,68.921 226.469,68.921C225.936,68.921 225.396,69.071 225.194,69.184C225.171,69.199 224.999,69.394 224.976,69.424L224.939,69.424L224.819,68.981L224.504,68.981L224.504,73.189L224.939,73.189L224.939,69.589C225.269,69.454 225.741,69.311 226.281,69.311C226.671,69.311 227.001,69.386 227.189,69.566C227.376,69.746 227.481,70.054 227.481,70.586L227.481,73.189L227.916,73.189Z" style="fill:white;fill-rule:nonzero;"/>
            <path d="M229.919,73.189L229.919,68.981L229.484,68.981L229.484,73.189L229.919,73.189ZM229.986,67.549C229.986,67.451 229.971,67.376 229.919,67.331C229.881,67.294 229.814,67.279 229.724,67.279C229.626,67.279 229.551,67.301 229.529,67.331C229.469,67.361 229.439,67.444 229.439,67.556C229.439,67.654 229.461,67.729 229.499,67.766C229.536,67.811 229.604,67.826 229.709,67.826C229.791,67.826 229.874,67.811 229.919,67.774C229.971,67.736 229.986,67.646 229.986,67.549L229.986,67.549Z" style="fill:white;fill-rule:nonzero;"/>
            <path d="M233.819,68.981L232.244,68.981L232.244,67.991L231.809,68.104L231.809,68.981L230.999,68.981L230.939,69.349L231.809,69.349L231.809,72.236C231.809,72.964 232.116,73.234 232.866,73.234C233.189,73.234 233.541,73.181 233.766,73.136L233.804,72.769C233.639,72.791 233.324,72.844 232.979,72.844C232.506,72.844 232.244,72.724 232.244,72.154L232.244,69.349L233.736,69.349L233.819,68.981Z" style="fill:white;fill-rule:nonzero;"/>
            <path d="M235.379,73.189L235.379,68.981L234.944,68.981L234.944,73.189L235.379,73.189ZM235.446,67.549C235.446,67.451 235.431,67.376 235.379,67.331C235.341,67.294 235.274,67.279 235.184,67.279C235.086,67.279 235.011,67.301 234.989,67.331C234.929,67.361 234.899,67.444 234.899,67.556C234.899,67.654 234.921,67.729 234.959,67.766C234.996,67.811 235.064,67.826 235.169,67.826C235.251,67.826 235.334,67.811 235.379,67.774C235.431,67.736 235.446,67.646 235.446,67.549L235.446,67.549Z" style="fill:white;fill-rule:nonzero;"/>
            <path d="M240.621,70.991C240.621,70.121 240.434,69.634 240.126,69.311C239.864,69.049 239.421,68.869 238.784,68.869C238.116,68.869 237.651,69.064 237.351,69.349C236.969,69.709 236.751,70.369 236.751,71.186C236.751,71.996 236.969,72.491 237.209,72.769C237.486,73.084 237.929,73.279 238.626,73.279C239.369,73.279 239.796,73.076 240.089,72.776C240.411,72.439 240.621,71.816 240.621,70.991L240.621,70.991ZM238.671,72.904C238.064,72.904 237.741,72.716 237.539,72.484C237.329,72.244 237.186,71.764 237.186,71.134C237.186,70.369 237.419,69.836 237.674,69.604C237.869,69.424 238.214,69.259 238.731,69.259C239.256,69.259 239.579,69.394 239.789,69.611C240.014,69.844 240.179,70.204 240.179,71.066C240.179,71.816 239.991,72.281 239.729,72.551C239.511,72.769 239.136,72.904 238.671,72.904L238.671,72.904Z" style="fill:white;fill-rule:nonzero;"/>
            <path d="M245.406,73.189L245.406,70.436C245.406,69.866 245.286,69.484 245.054,69.266C244.829,69.041 244.506,68.921 243.959,68.921C243.426,68.921 242.886,69.071 242.684,69.184C242.661,69.199 242.489,69.394 242.466,69.424L242.429,69.424L242.309,68.981L241.994,68.981L241.994,73.189L242.429,73.189L242.429,69.589C242.759,69.454 243.231,69.311 243.771,69.311C244.161,69.311 244.491,69.386 244.679,69.566C244.866,69.746 244.971,70.054 244.971,70.586L244.971,73.189L245.406,73.189Z" style="fill:white;fill-rule:nonzero;"/>
        </g>
        <g>
            <g id="v3">
                <path d="M80.682,12.426L78.582,6.801L77.78,6.801L75.53,12.426L75.987,12.426L76.745,10.506L79.49,10.506L80.195,12.426L80.682,12.426ZM79.355,10.116L76.887,10.116L78.042,7.213L78.282,7.213L79.355,10.116Z" style="fill:white;fill-rule:nonzero;"/>
                <path d="M85.16,12.426L85.16,8.218L84.725,8.218L84.725,11.811C84.387,11.961 83.9,12.088 83.412,12.088C82.955,12.088 82.64,12.013 82.46,11.826C82.287,11.646 82.182,11.353 82.182,10.783L82.182,8.218L81.747,8.218L81.747,10.948C81.747,11.526 81.875,11.878 82.092,12.111C82.325,12.351 82.64,12.478 83.247,12.478C83.772,12.478 84.267,12.351 84.477,12.246C84.492,12.238 84.672,12.006 84.687,11.976L84.732,11.976L84.845,12.426L85.16,12.426Z" style="fill:white;fill-rule:nonzero;"/>
                <path d="M88.25,10.498L89.435,12.426L89.937,12.426L88.602,10.303L89.982,8.218L89.495,8.218L88.265,10.101L87.92,10.101L86.787,8.218L86.292,8.218L87.575,10.303L86.202,12.426L86.697,12.426L87.912,10.498L88.25,10.498Z" style="fill:white;fill-rule:nonzero;"/>
                <path d="M91.475,12.426L91.475,8.218L91.04,8.218L91.04,12.426L91.475,12.426ZM91.542,6.786C91.542,6.688 91.527,6.613 91.475,6.568C91.437,6.531 91.37,6.516 91.28,6.516C91.182,6.516 91.107,6.538 91.085,6.568C91.025,6.598 90.995,6.681 90.995,6.793C90.995,6.891 91.017,6.966 91.055,7.003C91.092,7.048 91.16,7.063 91.265,7.063C91.347,7.063 91.43,7.048 91.475,7.011C91.527,6.973 91.542,6.883 91.542,6.786Z" style="fill:white;fill-rule:nonzero;"/>
                <path d="M93.035,6.351L93.035,11.473C93.035,12.178 93.312,12.471 93.92,12.471C94.205,12.471 94.467,12.426 94.647,12.388L94.647,12.043C94.497,12.066 94.295,12.096 94.047,12.096C93.695,12.096 93.47,11.968 93.47,11.428L93.47,6.351L93.035,6.351L93.035,6.351Z" style="fill:white;fill-rule:nonzero;"/>
                <path d="M95.982,12.426L95.982,8.218L95.547,8.218L95.547,12.426L95.982,12.426ZM96.05,6.786C96.05,6.688 96.035,6.613 95.982,6.568C95.945,6.531 95.877,6.516 95.787,6.516C95.69,6.516 95.615,6.538 95.592,6.568C95.532,6.598 95.502,6.681 95.502,6.793C95.502,6.891 95.525,6.966 95.562,7.003C95.6,7.048 95.667,7.063 95.772,7.063C95.855,7.063 95.937,7.048 95.982,7.011C96.035,6.973 96.05,6.883 96.05,6.786Z" style="fill:white;fill-rule:nonzero;"/>
                <path d="M100.565,12.426L100.565,9.816C100.565,8.991 100.445,8.676 100.257,8.473C100.055,8.241 99.687,8.143 99.11,8.143C98.51,8.143 97.887,8.271 97.572,8.353L97.572,8.706C97.857,8.653 98.51,8.533 99.02,8.533C99.492,8.533 99.77,8.608 99.905,8.766C100.047,8.938 100.137,9.238 100.137,9.966C98.795,10.086 97.94,10.243 97.617,10.483C97.452,10.588 97.287,10.873 97.287,11.346C97.287,11.736 97.377,11.998 97.527,12.163C97.7,12.358 98.015,12.501 98.6,12.501C99.327,12.501 99.777,12.313 99.905,12.223C99.942,12.193 100.047,12.051 100.107,11.968L100.145,11.968L100.25,12.426L100.565,12.426ZM100.137,11.841C99.912,11.953 99.38,12.133 98.742,12.133C98.285,12.133 98.015,12.028 97.887,11.893C97.782,11.773 97.715,11.578 97.715,11.308C97.715,10.993 97.79,10.806 97.902,10.708C98.075,10.521 99.162,10.363 100.137,10.303L100.137,11.841Z" style="fill:white;fill-rule:nonzero;"/>
                <path d="M102.147,8.218L102.147,12.426L102.582,12.426L102.582,8.886C102.837,8.721 103.317,8.548 103.827,8.556C104.082,8.556 104.3,8.586 104.427,8.608L104.427,8.188C104.315,8.173 104.157,8.158 103.947,8.158C103.422,8.158 103.04,8.301 102.837,8.421C102.822,8.436 102.642,8.653 102.62,8.683L102.575,8.683L102.47,8.218L102.147,8.218Z" style="fill:white;fill-rule:nonzero;"/>
                <path d="M108.852,8.218L108.38,8.218L106.895,12.043L106.7,12.043L105.297,8.218L104.825,8.218L106.4,12.426L106.745,12.426L105.92,14.481L106.377,14.481L108.852,8.218Z" style="fill:white;fill-rule:nonzero;"/>
                <path d="M87.144,19.926L87.144,14.301L86.731,14.301L86.731,19.461L86.589,19.461L83.386,14.301L82.606,14.301L82.606,19.926L83.019,19.926L83.019,14.721L83.154,14.721L86.386,19.926L87.144,19.926Z" style="fill:white;fill-rule:nonzero;"/>
                <path d="M92.476,17.728C92.476,16.858 92.289,16.371 91.981,16.048C91.719,15.786 91.276,15.606 90.639,15.606C89.971,15.606 89.506,15.801 89.206,16.086C88.824,16.446 88.606,17.106 88.606,17.923C88.606,18.733 88.824,19.228 89.064,19.506C89.341,19.821 89.784,20.016 90.481,20.016C91.224,20.016 91.651,19.813 91.944,19.513C92.266,19.176 92.476,18.553 92.476,17.728L92.476,17.728ZM90.526,19.641C89.919,19.641 89.596,19.453 89.394,19.221C89.184,18.981 89.041,18.501 89.041,17.871C89.041,17.106 89.274,16.573 89.529,16.341C89.724,16.161 90.069,15.996 90.586,15.996C91.111,15.996 91.434,16.131 91.644,16.348C91.869,16.581 92.034,16.941 92.034,17.803C92.034,18.553 91.846,19.018 91.584,19.288C91.366,19.506 90.991,19.641 90.526,19.641L90.526,19.641Z" style="fill:white;fill-rule:nonzero;"/>
                <path d="M96.774,15.801C96.421,15.711 96.076,15.643 95.574,15.643C94.936,15.643 94.509,15.793 94.209,16.086C93.841,16.431 93.631,17.098 93.631,17.946C93.631,18.906 93.871,19.431 94.164,19.678C94.426,19.896 94.809,20.016 95.401,20.016C95.979,20.016 96.361,19.888 96.489,19.806C96.534,19.776 96.676,19.611 96.751,19.528L96.774,19.528L96.879,19.926L97.216,19.926L97.216,13.813L96.774,13.813L96.774,15.801ZM94.081,17.916C94.081,17.106 94.269,16.588 94.524,16.348C94.764,16.123 95.109,16.018 95.634,16.018C96.099,16.018 96.489,16.093 96.774,16.131L96.774,19.378C96.399,19.558 95.941,19.633 95.521,19.633C95.079,19.633 94.704,19.536 94.509,19.363C94.276,19.161 94.081,18.741 94.081,17.916Z" style="fill:white;fill-rule:nonzero;"/>
                <path d="M98.589,17.856C98.589,19.288 99.091,20.008 100.494,20.008C101.071,20.008 101.611,19.903 101.911,19.828L101.941,19.468C101.649,19.513 101.154,19.611 100.546,19.611C99.369,19.611 99.039,18.988 99.039,17.841L102.106,17.841L102.106,17.323C102.106,16.243 101.709,15.636 100.509,15.636C99.189,15.636 98.589,16.386 98.589,17.856L98.589,17.856ZM100.464,15.996C101.371,15.996 101.679,16.423 101.679,17.353L101.679,17.503L99.054,17.503C99.114,16.506 99.496,15.996 100.464,15.996Z" style="fill:white;fill-rule:nonzero;"/>
            </g>
            <g id="v4">
                <path d="M145.12,12.429L143.02,6.804L142.218,6.804L139.968,12.429L140.425,12.429L141.183,10.509L143.928,10.509L144.633,12.429L145.12,12.429ZM143.793,10.119L141.325,10.119L142.48,7.217L142.72,7.217L143.793,10.119Z" style="fill:white;fill-rule:nonzero;"/>
                <path d="M149.598,12.429L149.598,8.222L149.163,8.222L149.163,11.814C148.825,11.964 148.338,12.092 147.85,12.092C147.393,12.092 147.078,12.017 146.898,11.829C146.725,11.649 146.62,11.357 146.62,10.787L146.62,8.222L146.185,8.222L146.185,10.952C146.185,11.529 146.313,11.882 146.53,12.114C146.763,12.354 147.078,12.482 147.685,12.482C148.21,12.482 148.705,12.354 148.915,12.249C148.93,12.242 149.11,12.009 149.125,11.979L149.17,11.979L149.283,12.429L149.598,12.429Z" style="fill:white;fill-rule:nonzero;"/>
                <path d="M152.688,10.502L153.873,12.429L154.375,12.429L153.04,10.307L154.42,8.222L153.933,8.222L152.703,10.104L152.358,10.104L151.225,8.222L150.73,8.222L152.013,10.307L150.64,12.429L151.135,12.429L152.35,10.502L152.688,10.502Z" style="fill:white;fill-rule:nonzero;"/>
                <path d="M155.913,12.429L155.913,8.222L155.478,8.222L155.478,12.429L155.913,12.429ZM155.98,6.789C155.98,6.692 155.965,6.617 155.913,6.572C155.875,6.534 155.808,6.519 155.718,6.519C155.62,6.519 155.545,6.542 155.523,6.572C155.463,6.602 155.433,6.684 155.433,6.797C155.433,6.894 155.455,6.969 155.493,7.007C155.53,7.052 155.598,7.067 155.703,7.067C155.785,7.067 155.868,7.052 155.913,7.014C155.965,6.977 155.98,6.887 155.98,6.789L155.98,6.789Z" style="fill:white;fill-rule:nonzero;"/>
                <path d="M157.473,6.354L157.473,11.477C157.473,12.182 157.75,12.474 158.358,12.474C158.643,12.474 158.905,12.429 159.085,12.392L159.085,12.047C158.935,12.069 158.733,12.099 158.485,12.099C158.133,12.099 157.908,11.972 157.908,11.432L157.908,6.354L157.473,6.354L157.473,6.354Z" style="fill:white;fill-rule:nonzero;"/>
                <path d="M160.42,12.429L160.42,8.222L159.985,8.222L159.985,12.429L160.42,12.429ZM160.488,6.789C160.488,6.692 160.473,6.617 160.42,6.572C160.383,6.534 160.315,6.519 160.225,6.519C160.128,6.519 160.053,6.542 160.03,6.572C159.97,6.602 159.94,6.684 159.94,6.797C159.94,6.894 159.963,6.969 160,7.007C160.038,7.052 160.105,7.067 160.21,7.067C160.293,7.067 160.375,7.052 160.42,7.014C160.473,6.977 160.488,6.887 160.488,6.789L160.488,6.789Z" style="fill:white;fill-rule:nonzero;"/>
                <path d="M165.003,12.429L165.003,9.819C165.003,8.994 164.883,8.679 164.695,8.477C164.493,8.244 164.125,8.147 163.548,8.147C162.948,8.147 162.325,8.274 162.01,8.357L162.01,8.709C162.295,8.657 162.948,8.537 163.458,8.537C163.93,8.537 164.208,8.612 164.343,8.769C164.485,8.942 164.575,9.242 164.575,9.969C163.233,10.089 162.378,10.247 162.055,10.487C161.89,10.592 161.725,10.877 161.725,11.349C161.725,11.739 161.815,12.002 161.965,12.167C162.138,12.362 162.453,12.504 163.038,12.504C163.765,12.504 164.215,12.317 164.343,12.227C164.38,12.197 164.485,12.054 164.545,11.972L164.583,11.972L164.688,12.429L165.003,12.429ZM164.575,11.844C164.35,11.957 163.818,12.137 163.18,12.137C162.723,12.137 162.453,12.032 162.325,11.897C162.22,11.777 162.153,11.582 162.153,11.312C162.153,10.997 162.228,10.809 162.34,10.712C162.513,10.524 163.6,10.367 164.575,10.307L164.575,11.844Z" style="fill:white;fill-rule:nonzero;"/>
                <path d="M166.585,8.222L166.585,12.429L167.02,12.429L167.02,8.889C167.275,8.724 167.755,8.552 168.265,8.559C168.52,8.559 168.738,8.589 168.865,8.612L168.865,8.192C168.753,8.177 168.595,8.162 168.385,8.162C167.86,8.162 167.478,8.304 167.275,8.424C167.26,8.439 167.08,8.657 167.058,8.687L167.013,8.687L166.908,8.222L166.585,8.222L166.585,8.222Z" style="fill:white;fill-rule:nonzero;"/>
                <path d="M173.29,8.222L172.818,8.222L171.333,12.047L171.138,12.047L169.735,8.222L169.263,8.222L170.838,12.429L171.183,12.429L170.358,14.484L170.815,14.484L173.29,8.222L173.29,8.222Z" style="fill:white;fill-rule:nonzero;"/>
                <path d="M151.582,19.929L151.582,14.304L151.169,14.304L151.169,19.464L151.027,19.464L147.824,14.304L147.044,14.304L147.044,19.929L147.457,19.929L147.457,14.724L147.592,14.724L150.824,19.929L151.582,19.929Z" style="fill:white;fill-rule:nonzero;"/>
                <path d="M156.914,17.732C156.914,16.862 156.727,16.374 156.419,16.052C156.157,15.789 155.714,15.609 155.077,15.609C154.409,15.609 153.944,15.804 153.644,16.089C153.262,16.449 153.044,17.109 153.044,17.927C153.044,18.737 153.262,19.232 153.502,19.509C153.779,19.824 154.222,20.019 154.919,20.019C155.662,20.019 156.089,19.817 156.382,19.517C156.704,19.179 156.914,18.557 156.914,17.732L156.914,17.732ZM154.964,19.644C154.357,19.644 154.034,19.457 153.832,19.224C153.622,18.984 153.479,18.504 153.479,17.874C153.479,17.109 153.712,16.577 153.967,16.344C154.162,16.164 154.507,15.999 155.024,15.999C155.549,15.999 155.872,16.134 156.082,16.352C156.307,16.584 156.472,16.944 156.472,17.807C156.472,18.557 156.284,19.022 156.022,19.292C155.804,19.509 155.429,19.644 154.964,19.644L154.964,19.644Z" style="fill:white;fill-rule:nonzero;"/>
                <path d="M161.212,15.804C160.859,15.714 160.514,15.647 160.012,15.647C159.374,15.647 158.947,15.797 158.647,16.089C158.279,16.434 158.069,17.102 158.069,17.949C158.069,18.909 158.309,19.434 158.602,19.682C158.864,19.899 159.247,20.019 159.839,20.019C160.417,20.019 160.799,19.892 160.927,19.809C160.972,19.779 161.114,19.614 161.189,19.532L161.212,19.532L161.317,19.929L161.654,19.929L161.654,13.817L161.212,13.817L161.212,15.804ZM158.519,17.919C158.519,17.109 158.707,16.592 158.962,16.352C159.202,16.127 159.547,16.022 160.072,16.022C160.537,16.022 160.927,16.097 161.212,16.134L161.212,19.382C160.837,19.562 160.379,19.637 159.959,19.637C159.517,19.637 159.142,19.539 158.947,19.367C158.714,19.164 158.519,18.744 158.519,17.919L158.519,17.919Z" style="fill:white;fill-rule:nonzero;"/>
                <path d="M163.027,17.859C163.027,19.292 163.529,20.012 164.932,20.012C165.509,20.012 166.049,19.907 166.349,19.832L166.379,19.472C166.087,19.517 165.592,19.614 164.984,19.614C163.807,19.614 163.477,18.992 163.477,17.844L166.544,17.844L166.544,17.327C166.544,16.247 166.147,15.639 164.947,15.639C163.627,15.639 163.027,16.389 163.027,17.859ZM164.902,15.999C165.809,15.999 166.117,16.427 166.117,17.357L166.117,17.507L163.492,17.507C163.552,16.509 163.934,15.999 164.902,15.999L164.902,15.999Z" style="fill:white;fill-rule:nonzero;"/>
            </g>
            <g id="v5">
                <path d="M210.093,12.429L207.993,6.804L207.19,6.804L204.94,12.429L205.398,12.429L206.155,10.509L208.9,10.509L209.605,12.429L210.093,12.429ZM208.765,10.119L206.298,10.119L207.453,7.217L207.693,7.217L208.765,10.119Z" style="fill:white;fill-rule:nonzero;"/>
                <path d="M214.57,12.429L214.57,8.222L214.135,8.222L214.135,11.814C213.798,11.964 213.31,12.092 212.823,12.092C212.365,12.092 212.05,12.017 211.87,11.829C211.698,11.649 211.593,11.357 211.593,10.787L211.593,8.222L211.158,8.222L211.158,10.952C211.158,11.529 211.285,11.882 211.503,12.114C211.735,12.354 212.05,12.482 212.658,12.482C213.183,12.482 213.678,12.354 213.888,12.249C213.903,12.242 214.083,12.009 214.098,11.979L214.143,11.979L214.255,12.429L214.57,12.429Z" style="fill:white;fill-rule:nonzero;"/>
                <path d="M217.66,10.502L218.845,12.429L219.348,12.429L218.013,10.307L219.393,8.222L218.905,8.222L217.675,10.104L217.33,10.104L216.198,8.222L215.703,8.222L216.985,10.307L215.613,12.429L216.108,12.429L217.323,10.502L217.66,10.502Z" style="fill:white;fill-rule:nonzero;"/>
                <path d="M220.885,12.429L220.885,8.222L220.45,8.222L220.45,12.429L220.885,12.429ZM220.953,6.789C220.953,6.692 220.938,6.617 220.885,6.572C220.848,6.534 220.78,6.519 220.69,6.519C220.593,6.519 220.518,6.542 220.495,6.572C220.435,6.602 220.405,6.684 220.405,6.797C220.405,6.894 220.428,6.969 220.465,7.007C220.503,7.052 220.57,7.067 220.675,7.067C220.758,7.067 220.84,7.052 220.885,7.014C220.938,6.977 220.953,6.887 220.953,6.789L220.953,6.789Z" style="fill:white;fill-rule:nonzero;"/>
                <path d="M222.445,6.354L222.445,11.477C222.445,12.182 222.723,12.474 223.33,12.474C223.615,12.474 223.878,12.429 224.058,12.392L224.058,12.047C223.908,12.069 223.705,12.099 223.458,12.099C223.105,12.099 222.88,11.972 222.88,11.432L222.88,6.354L222.445,6.354L222.445,6.354Z" style="fill:white;fill-rule:nonzero;"/>
                <path d="M225.393,12.429L225.393,8.222L224.958,8.222L224.958,12.429L225.393,12.429ZM225.46,6.789C225.46,6.692 225.445,6.617 225.393,6.572C225.355,6.534 225.288,6.519 225.198,6.519C225.1,6.519 225.025,6.542 225.003,6.572C224.943,6.602 224.913,6.684 224.913,6.797C224.913,6.894 224.935,6.969 224.973,7.007C225.01,7.052 225.078,7.067 225.183,7.067C225.265,7.067 225.348,7.052 225.393,7.014C225.445,6.977 225.46,6.887 225.46,6.789L225.46,6.789Z" style="fill:white;fill-rule:nonzero;"/>
                <path d="M229.975,12.429L229.975,9.819C229.975,8.994 229.855,8.679 229.668,8.477C229.465,8.244 229.098,8.147 228.52,8.147C227.92,8.147 227.298,8.274 226.983,8.357L226.983,8.709C227.268,8.657 227.92,8.537 228.43,8.537C228.903,8.537 229.18,8.612 229.315,8.769C229.458,8.942 229.548,9.242 229.548,9.969C228.205,10.089 227.35,10.247 227.028,10.487C226.863,10.592 226.698,10.877 226.698,11.349C226.698,11.739 226.788,12.002 226.938,12.167C227.11,12.362 227.425,12.504 228.01,12.504C228.738,12.504 229.188,12.317 229.315,12.227C229.353,12.197 229.458,12.054 229.518,11.972L229.555,11.972L229.66,12.429L229.975,12.429ZM229.548,11.844C229.323,11.957 228.79,12.137 228.153,12.137C227.695,12.137 227.425,12.032 227.298,11.897C227.193,11.777 227.125,11.582 227.125,11.312C227.125,10.997 227.2,10.809 227.313,10.712C227.485,10.524 228.573,10.367 229.548,10.307L229.548,11.844Z" style="fill:white;fill-rule:nonzero;"/>
                <path d="M231.558,8.222L231.558,12.429L231.993,12.429L231.993,8.889C232.248,8.724 232.728,8.552 233.238,8.559C233.493,8.559 233.71,8.589 233.838,8.612L233.838,8.192C233.725,8.177 233.568,8.162 233.358,8.162C232.833,8.162 232.45,8.304 232.248,8.424C232.233,8.439 232.053,8.657 232.03,8.687L231.985,8.687L231.88,8.222L231.558,8.222L231.558,8.222Z" style="fill:white;fill-rule:nonzero;"/>
                <path d="M238.263,8.222L237.79,8.222L236.305,12.047L236.11,12.047L234.708,8.222L234.235,8.222L235.81,12.429L236.155,12.429L235.33,14.484L235.788,14.484L238.263,8.222L238.263,8.222Z" style="fill:white;fill-rule:nonzero;"/>
                <path d="M216.554,19.929L216.554,14.304L216.141,14.304L216.141,19.464L215.999,19.464L212.796,14.304L212.016,14.304L212.016,19.929L212.429,19.929L212.429,14.724L212.564,14.724L215.796,19.929L216.554,19.929Z" style="fill:white;fill-rule:nonzero;"/>
                <path d="M221.886,17.732C221.886,16.862 221.699,16.374 221.391,16.052C221.129,15.789 220.686,15.609 220.049,15.609C219.381,15.609 218.916,15.804 218.616,16.089C218.234,16.449 218.016,17.109 218.016,17.927C218.016,18.737 218.234,19.232 218.474,19.509C218.751,19.824 219.194,20.019 219.891,20.019C220.634,20.019 221.061,19.817 221.354,19.517C221.676,19.179 221.886,18.557 221.886,17.732L221.886,17.732ZM219.936,19.644C219.329,19.644 219.006,19.457 218.804,19.224C218.594,18.984 218.451,18.504 218.451,17.874C218.451,17.109 218.684,16.577 218.939,16.344C219.134,16.164 219.479,15.999 219.996,15.999C220.521,15.999 220.844,16.134 221.054,16.352C221.279,16.584 221.444,16.944 221.444,17.807C221.444,18.557 221.256,19.022 220.994,19.292C220.776,19.509 220.401,19.644 219.936,19.644L219.936,19.644Z" style="fill:white;fill-rule:nonzero;"/>
                <path d="M226.184,15.804C225.831,15.714 225.486,15.647 224.984,15.647C224.346,15.647 223.919,15.797 223.619,16.089C223.251,16.434 223.041,17.102 223.041,17.949C223.041,18.909 223.281,19.434 223.574,19.682C223.836,19.899 224.219,20.019 224.811,20.019C225.389,20.019 225.771,19.892 225.899,19.809C225.944,19.779 226.086,19.614 226.161,19.532L226.184,19.532L226.289,19.929L226.626,19.929L226.626,13.817L226.184,13.817L226.184,15.804ZM223.491,17.919C223.491,17.109 223.679,16.592 223.934,16.352C224.174,16.127 224.519,16.022 225.044,16.022C225.509,16.022 225.899,16.097 226.184,16.134L226.184,19.382C225.809,19.562 225.351,19.637 224.931,19.637C224.489,19.637 224.114,19.539 223.919,19.367C223.686,19.164 223.491,18.744 223.491,17.919L223.491,17.919Z" style="fill:white;fill-rule:nonzero;"/>
                <path d="M227.999,17.859C227.999,19.292 228.501,20.012 229.904,20.012C230.481,20.012 231.021,19.907 231.321,19.832L231.351,19.472C231.059,19.517 230.564,19.614 229.956,19.614C228.779,19.614 228.449,18.992 228.449,17.844L231.516,17.844L231.516,17.327C231.516,16.247 231.119,15.639 229.919,15.639C228.599,15.639 227.999,16.389 227.999,17.859ZM229.874,15.999C230.781,15.999 231.089,16.427 231.089,17.357L231.089,17.507L228.464,17.507C228.524,16.509 228.906,15.999 229.874,15.999L229.874,15.999Z" style="fill:white;fill-rule:nonzero;"/>
            </g>
        </g>
    </g>
    <g id="Text">
        <path d="M38.741,49.72L36.197,49.72L31.565,33.11L31.157,33.11L25.852,49.72L23.332,49.72L19.083,31.719L20.547,31.719L24.459,48.329L24.963,48.329L30.267,31.719L32.571,31.719L37.227,48.329L37.779,48.329L42.147,31.719L43.635,31.719L38.741,49.72L38.741,49.72Z" style="fill:white;fill-rule:nonzero;"/>
        <rect x="47.62" y="31.718" width="1.416" height="18.002" style="fill:white;"/>
        <path d="M66.485,32.99L60.124,32.99L60.124,49.72L58.732,49.72L58.732,32.99L52.228,32.99L52.564,31.718L66.773,31.718L66.485,32.99L66.485,32.99Z" style="fill:white;fill-rule:nonzero;"/>
    </g>
</svg>
